<?xml version="1.0" encoding="utf-8" standalone="no"?>
<!DOCTYPE svg PUBLIC "-//W3C//DTD SVG 1.1//EN"
  "http://www.w3.org/Graphics/SVG/1.1/DTD/svg11.dtd">
<!-- Created with matplotlib (https://matplotlib.org/) -->
<svg height="360pt" version="1.1" viewBox="0 0 576 360" width="576pt" xmlns="http://www.w3.org/2000/svg" xmlns:xlink="http://www.w3.org/1999/xlink">
 <defs>
  <style type="text/css">
*{stroke-linecap:butt;stroke-linejoin:round;}
  </style>
 </defs>
 <g id="figure_1">
  <g id="patch_1">
   <path d="M 0 360 
L 576 360 
L 576 0 
L 0 0 
z
" style="fill:#ffffff;"/>
  </g>
  <g id="axes_1">
   <g id="patch_2">
    <path d="M 69.12 295.2 
L 547.2 295.2 
L 547.2 36 
L 69.12 36 
z
" style="fill:#ffffff;"/>
   </g>
   <g id="matplotlib.axis_1">
    <g id="xtick_1">
     <g id="line2d_1">
      <defs>
       <path d="M 0 0 
L 0 3.5 
" id="m9b6557dc06" style="stroke:#000000;stroke-width:0.8;"/>
      </defs>
      <g>
       <use style="stroke:#000000;stroke-width:0.8;" x="69.12" xlink:href="#m9b6557dc06" y="295.2"/>
      </g>
     </g>
     <g id="text_1">
      <!-- 0 -->
      <defs>
       <path d="M 27.296875 -1.796875 
Q 15.703125 -1.796875 9.453125 7.75 
Q 3.203125 17.296875 3.203125 35.90625 
Q 3.203125 54.5 9.453125 64.046875 
Q 15.703125 73.59375 27.296875 73.59375 
Q 38.703125 73.59375 45.453125 63.84375 
Q 52.203125 54.09375 52.203125 35.90625 
Q 52.203125 17.703125 45.390625 7.953125 
Q 38.59375 -1.796875 27.296875 -1.796875 
z
M 27.5 66.796875 
Q 19.203125 66.796875 14.59375 58.796875 
Q 10 50.796875 10 35.703125 
Q 10 4.703125 27.5 4.703125 
Q 36 4.703125 40.75 12.84375 
Q 45.5 21 45.5 35.703125 
Q 45.5 50.796875 40.59375 58.796875 
Q 35.703125 66.796875 27.5 66.796875 
z
" id="STXihei-48"/>
      </defs>
      <g transform="translate(66.349688 309.559375)scale(0.1 -0.1)">
       <use xlink:href="#STXihei-48"/>
      </g>
     </g>
    </g>
    <g id="xtick_2">
     <g id="line2d_2">
      <g>
       <use style="stroke:#000000;stroke-width:0.8;" x="148.8" xlink:href="#m9b6557dc06" y="295.2"/>
      </g>
     </g>
     <g id="text_2">
      <!-- 50 -->
      <defs>
       <path d="M 49.203125 71.796875 
L 49.203125 65 
L 23.59375 65 
L 20 45.40625 
Q 24.796875 46.796875 29 46.796875 
Q 38.40625 46.796875 44.703125 40.140625 
Q 51 33.5 51 23.296875 
Q 51 12.703125 44.140625 5.453125 
Q 37.296875 -1.796875 26 -1.796875 
Q 17.40625 -1.796875 11.34375 3.34375 
Q 5.296875 8.5 4.09375 17.40625 
L 11.40625 17.40625 
Q 12.703125 11.40625 16.796875 8.203125 
Q 20.90625 5 26.296875 5 
Q 33.40625 5 38.546875 10.296875 
Q 43.703125 15.59375 43.703125 23.5 
Q 43.703125 30.703125 39.203125 35.34375 
Q 34.703125 40 27 40 
Q 20.203125 40 11.40625 36.203125 
L 18.09375 71.796875 
z
" id="STXihei-53"/>
      </defs>
      <g transform="translate(143.259375 309.559375)scale(0.1 -0.1)">
       <use xlink:href="#STXihei-53"/>
       <use x="55.399994" xlink:href="#STXihei-48"/>
      </g>
     </g>
    </g>
    <g id="xtick_3">
     <g id="line2d_3">
      <g>
       <use style="stroke:#000000;stroke-width:0.8;" x="228.48" xlink:href="#m9b6557dc06" y="295.2"/>
      </g>
     </g>
     <g id="text_3">
      <!-- 100 -->
      <defs>
       <path d="M 18.5 71.796875 
L 32.59375 71.796875 
L 32.59375 0 
L 25.5 0 
L 25.5 64.796875 
L 14.203125 64.796875 
z
" id="STXihei-49"/>
      </defs>
      <g transform="translate(220.169062 309.559375)scale(0.1 -0.1)">
       <use xlink:href="#STXihei-49"/>
       <use x="55.399994" xlink:href="#STXihei-48"/>
       <use x="110.799988" xlink:href="#STXihei-48"/>
      </g>
     </g>
    </g>
    <g id="xtick_4">
     <g id="line2d_4">
      <g>
       <use style="stroke:#000000;stroke-width:0.8;" x="308.16" xlink:href="#m9b6557dc06" y="295.2"/>
      </g>
     </g>
     <g id="text_4">
      <!-- 150 -->
      <g transform="translate(299.849062 309.559375)scale(0.1 -0.1)">
       <use xlink:href="#STXihei-49"/>
       <use x="55.399994" xlink:href="#STXihei-53"/>
       <use x="110.799988" xlink:href="#STXihei-48"/>
      </g>
     </g>
    </g>
    <g id="xtick_5">
     <g id="line2d_5">
      <g>
       <use style="stroke:#000000;stroke-width:0.8;" x="387.84" xlink:href="#m9b6557dc06" y="295.2"/>
      </g>
     </g>
     <g id="text_5">
      <!-- 200 -->
      <defs>
       <path d="M 11.59375 49.296875 
L 4.703125 49.296875 
Q 5.203125 60.296875 12 66.9375 
Q 18.796875 73.59375 28.59375 73.59375 
Q 38.09375 73.59375 44.4375 67.34375 
Q 50.796875 61.09375 50.796875 52.09375 
Q 50.796875 45.40625 47.25 39.703125 
Q 43.703125 34 36.5 26.203125 
L 18.59375 6.90625 
L 51.796875 6.90625 
L 51.796875 0 
L 3 0 
L 30.40625 29.59375 
Q 37.59375 37.40625 40.6875 41.90625 
Q 43.796875 46.40625 43.796875 52 
Q 43.796875 58 39.25 62.390625 
Q 34.703125 66.796875 28.203125 66.796875 
Q 21.203125 66.796875 16.75 62.25 
Q 12.296875 57.703125 11.59375 49.296875 
z
" id="STXihei-50"/>
      </defs>
      <g transform="translate(379.529062 309.559375)scale(0.1 -0.1)">
       <use xlink:href="#STXihei-50"/>
       <use x="55.399994" xlink:href="#STXihei-48"/>
       <use x="110.799988" xlink:href="#STXihei-48"/>
      </g>
     </g>
    </g>
    <g id="xtick_6">
     <g id="line2d_6">
      <g>
       <use style="stroke:#000000;stroke-width:0.8;" x="467.52" xlink:href="#m9b6557dc06" y="295.2"/>
      </g>
     </g>
     <g id="text_6">
      <!-- 250 -->
      <g transform="translate(459.209062 309.559375)scale(0.1 -0.1)">
       <use xlink:href="#STXihei-50"/>
       <use x="55.399994" xlink:href="#STXihei-53"/>
       <use x="110.799988" xlink:href="#STXihei-48"/>
      </g>
     </g>
    </g>
    <g id="xtick_7">
     <g id="line2d_7">
      <g>
       <use style="stroke:#000000;stroke-width:0.8;" x="547.2" xlink:href="#m9b6557dc06" y="295.2"/>
      </g>
     </g>
     <g id="text_7">
      <!-- 300 -->
      <defs>
       <path d="M 13.203125 55.203125 
L 5.90625 55.203125 
Q 7.90625 64.09375 13.546875 68.84375 
Q 19.203125 73.59375 27 73.59375 
Q 35.5 73.59375 41.546875 68.1875 
Q 47.59375 62.796875 47.59375 55.09375 
Q 47.59375 45.796875 38.40625 40.40625 
Q 44.703125 37.796875 48.140625 32.640625 
Q 51.59375 27.5 51.59375 21.40625 
Q 51.59375 11.90625 44.640625 5.046875 
Q 37.703125 -1.796875 27.09375 -1.796875 
Q 17.703125 -1.796875 11.59375 3.546875 
Q 5.5 8.90625 3.5 19.203125 
L 10.5 19.203125 
Q 12.40625 12.09375 16.34375 8.640625 
Q 20.296875 5.203125 27.203125 5.203125 
Q 34.703125 5.203125 39.59375 9.796875 
Q 44.5 14.40625 44.5 20.796875 
Q 44.5 28 39.09375 32.140625 
Q 33.703125 36.296875 23.40625 36.5 
L 23.40625 43.09375 
Q 30.796875 43.09375 35.4375 46.5 
Q 40.09375 49.90625 40.09375 55.09375 
Q 40.09375 60 36.34375 63.34375 
Q 32.59375 66.703125 27 66.703125 
Q 22 66.703125 18.75 63.84375 
Q 15.5 61 13.203125 55.203125 
z
" id="STXihei-51"/>
      </defs>
      <g transform="translate(538.889063 309.559375)scale(0.1 -0.1)">
       <use xlink:href="#STXihei-51"/>
       <use x="55.399994" xlink:href="#STXihei-48"/>
       <use x="110.799988" xlink:href="#STXihei-48"/>
      </g>
     </g>
    </g>
    <g id="text_8">
     <!-- 时间（天） -->
     <defs>
      <path d="M 74.59375 51.09375 
Q 74.59375 70.59375 73.5 76 
Q 76.09375 75.296875 81.296875 75.296875 
Q 83 75.296875 83 74.5 
Q 83 73.703125 81.84375 73.046875 
Q 80.703125 72.40625 80.703125 69.09375 
L 80.703125 51.09375 
Q 89.09375 51.203125 96 51.90625 
L 96 45.203125 
Q 90.59375 45.90625 80.703125 45.90625 
L 80.703125 -3.703125 
Q 80.703125 -8.40625 79.25 -10.90625 
Q 77.796875 -13.40625 73.296875 -14.59375 
Q 68.796875 -15.796875 59.5 -15.796875 
Q 59.5 -11.09375 55.90625 -7.296875 
Q 62.59375 -8.40625 66.640625 -8.40625 
Q 70.703125 -8.40625 72.640625 -6.796875 
Q 74.59375 -5.203125 74.59375 -0.296875 
L 74.59375 46 
L 61.796875 46 
Q 50.90625 46 42.90625 45.203125 
L 42.90625 51.90625 
Q 50.796875 51.09375 61.796875 51.09375 
z
M 15.09375 4.203125 
L 15.09375 -7.59375 
L 8.296875 -7.59375 
Q 9 -1.90625 9 6.703125 
L 9 56.59375 
Q 9 64.59375 8.40625 67.703125 
Q 11.59375 66.90625 24.75 66.90625 
Q 37.90625 66.90625 41.09375 67.703125 
Q 40.5 65.09375 40.5 56.59375 
L 40.5 8.09375 
Q 40.5 1.703125 41.203125 -5.09375 
L 34.296875 -5.09375 
L 34.296875 4.203125 
z
M 34.296875 37.296875 
L 34.296875 61.796875 
L 15.09375 61.796875 
L 15.09375 37.296875 
z
M 34.296875 8.90625 
L 34.296875 32.59375 
L 15.09375 32.59375 
L 15.09375 8.90625 
z
M 68.09375 16.796875 
L 62.296875 13 
Q 57.296875 23.40625 48.296875 32.90625 
L 53.40625 36.296875 
Q 62.796875 25.296875 68.09375 16.796875 
z
" id="STXihei-26102"/>
      <path d="M 34 62.59375 
L 29 57.796875 
Q 24.203125 64.90625 14.796875 71.40625 
L 18.59375 75.796875 
Q 27.796875 69.09375 34 62.59375 
z
M 87.90625 67.703125 
Q 87.203125 64.09375 87.203125 56.40625 
L 87.203125 -4.703125 
Q 87.203125 -9.796875 86.046875 -12.140625 
Q 84.90625 -14.5 81.84375 -15.34375 
Q 78.796875 -16.203125 72.09375 -16.40625 
Q 72.40625 -12.296875 69.40625 -8.90625 
Q 74 -9.703125 76.5 -9.703125 
Q 79 -9.703125 80.140625 -8.796875 
Q 81.296875 -7.90625 81.296875 -5 
L 81.296875 61.796875 
L 62.203125 61.796875 
Q 51.5 61.796875 43.796875 61.203125 
L 43.796875 67.59375 
Q 51.296875 67 66.6875 67 
Q 82.09375 67 87.90625 67.703125 
z
M 11.796875 58 
Q 14.296875 57.09375 15.1875 56.9375 
Q 16.09375 56.796875 18.4375 56.796875 
Q 20.796875 56.796875 20.796875 56.046875 
Q 20.796875 55.296875 19.296875 54.09375 
Q 18.90625 53.796875 18.5 51.796875 
Q 18.09375 49.796875 18.09375 47.5 
L 18.09375 -16.296875 
L 11.296875 -16.296875 
Q 12.296875 -7.296875 12.296875 -2.40625 
L 12.296875 45.40625 
Q 12.296875 51.90625 11.796875 58 
z
M 68.703125 2.59375 
Q 63.203125 3.296875 49.140625 3.296875 
Q 35.09375 3.296875 29.703125 2.59375 
Q 30 7.09375 30 8.796875 
L 30 41.5 
Q 30 44.5 29.703125 47.703125 
Q 35 47 49.09375 47 
Q 63.203125 47 68.703125 47.703125 
Q 68.40625 45.203125 68.40625 41.5 
L 68.40625 8.796875 
Q 68.40625 5.203125 68.703125 2.59375 
z
M 62.59375 27.296875 
L 62.59375 42.203125 
L 35.59375 42.203125 
L 35.59375 27.296875 
z
M 35.59375 22.59375 
L 35.59375 7.796875 
L 62.59375 7.796875 
L 62.59375 22.59375 
z
" id="STXihei-38388"/>
      <path d="M 90.40625 70.59375 
Q 81.703125 60.796875 77.5 51.6875 
Q 73.296875 42.59375 73.296875 33 
Q 73.296875 16.203125 77.34375 7.453125 
Q 81.40625 -1.296875 89.90625 -10.296875 
L 86 -14.203125 
Q 76.40625 -4.796875 71.65625 6.25 
Q 66.90625 17.296875 66.90625 32.90625 
Q 66.90625 43.203125 72.046875 54.34375 
Q 77.203125 65.5 86.796875 74.09375 
z
" id="STXihei-65288"/>
      <path d="M 47.90625 62.203125 
Q 25.90625 62.203125 15.203125 61.40625 
L 15.203125 67.90625 
Q 23.703125 67.09375 51.046875 67.09375 
Q 78.40625 67.09375 86.203125 67.90625 
L 86.203125 61.40625 
Q 78.40625 62.203125 53.796875 62.203125 
Q 54.203125 46.90625 52.296875 35.40625 
Q 84.40625 35.40625 92.796875 36.203125 
L 92.796875 29.59375 
Q 84.90625 30.40625 55 30.40625 
Q 60.203125 17.90625 70.84375 7.34375 
Q 81.5 -3.203125 94.09375 -8.203125 
Q 90.09375 -9.90625 87.796875 -14.59375 
Q 57.59375 6.09375 50.59375 28.09375 
Q 47 14.59375 37.953125 4.296875 
Q 28.90625 -6 11.703125 -15.90625 
Q 10.09375 -12.59375 5.796875 -10.203125 
Q 22.40625 -2.796875 31.75 6.953125 
Q 41.09375 16.703125 44.796875 30.40625 
Q 18.5 30.40625 8.09375 29.59375 
L 8.09375 36.203125 
Q 15.90625 35.40625 46 35.40625 
Q 48.40625 46.796875 47.90625 62.203125 
z
" id="STXihei-22825"/>
      <path d="M 13.203125 74.09375 
Q 22.796875 65.5 27.9375 54.34375 
Q 33.09375 43.203125 33.09375 32.90625 
Q 33.09375 17.296875 28.34375 6.25 
Q 23.59375 -4.796875 14 -14.203125 
L 10.09375 -10.296875 
Q 18.59375 -1.296875 22.640625 7.453125 
Q 26.703125 16.203125 26.703125 33 
Q 26.703125 42.59375 22.5 51.6875 
Q 18.296875 60.796875 9.59375 70.59375 
z
" id="STXihei-65289"/>
     </defs>
     <g transform="translate(270.66 332.539062)scale(0.15 -0.15)">
      <use xlink:href="#STXihei-26102"/>
      <use x="99.999985" xlink:href="#STXihei-38388"/>
      <use x="199.999969" xlink:href="#STXihei-65288"/>
      <use x="299.999954" xlink:href="#STXihei-22825"/>
      <use x="399.999939" xlink:href="#STXihei-65289"/>
     </g>
    </g>
   </g>
   <g id="matplotlib.axis_2">
    <g id="ytick_1">
     <g id="line2d_8">
      <defs>
       <path d="M 0 0 
L -3.5 0 
" id="m08067cb507" style="stroke:#000000;stroke-width:0.8;"/>
      </defs>
      <g>
       <use style="stroke:#000000;stroke-width:0.8;" x="69.12" xlink:href="#m08067cb507" y="295.2"/>
      </g>
     </g>
     <g id="text_9">
      <!-- 0 -->
      <g transform="translate(56.579375 298.879687)scale(0.1 -0.1)">
       <use xlink:href="#STXihei-48"/>
      </g>
     </g>
    </g>
    <g id="ytick_2">
     <g id="line2d_9">
      <g>
       <use style="stroke:#000000;stroke-width:0.8;" x="69.12" xlink:href="#m08067cb507" y="243.36"/>
      </g>
     </g>
     <g id="text_10">
      <!-- 20 -->
      <g transform="translate(51.03875 247.039687)scale(0.1 -0.1)">
       <use xlink:href="#STXihei-50"/>
       <use x="55.399994" xlink:href="#STXihei-48"/>
      </g>
     </g>
    </g>
    <g id="ytick_3">
     <g id="line2d_10">
      <g>
       <use style="stroke:#000000;stroke-width:0.8;" x="69.12" xlink:href="#m08067cb507" y="191.52"/>
      </g>
     </g>
     <g id="text_11">
      <!-- 40 -->
      <defs>
       <path d="M 42.59375 73.59375 
L 44 73.59375 
L 44 23.59375 
L 52.703125 23.59375 
L 52.703125 16.703125 
L 44 16.703125 
L 44 0 
L 36.90625 0 
L 36.90625 16.703125 
L 2.5 16.703125 
z
M 36.90625 23.59375 
L 36.90625 53.5 
L 15.703125 23.59375 
z
" id="STXihei-52"/>
      </defs>
      <g transform="translate(51.03875 195.199687)scale(0.1 -0.1)">
       <use xlink:href="#STXihei-52"/>
       <use x="55.399994" xlink:href="#STXihei-48"/>
      </g>
     </g>
    </g>
    <g id="ytick_4">
     <g id="line2d_11">
      <g>
       <use style="stroke:#000000;stroke-width:0.8;" x="69.12" xlink:href="#m08067cb507" y="139.68"/>
      </g>
     </g>
     <g id="text_12">
      <!-- 60 -->
      <defs>
       <path d="M 36.703125 73.59375 
L 42.59375 69.796875 
L 23.203125 40.40625 
Q 27.296875 41.796875 31 41.796875 
Q 39 41.796875 45 35.4375 
Q 51 29.09375 51 20.09375 
Q 51 10.796875 44.453125 4.5 
Q 37.90625 -1.796875 28.5 -1.796875 
Q 19.203125 -1.796875 12.953125 4.59375 
Q 6.703125 11 6.703125 20.203125 
Q 6.703125 24.59375 8.390625 29.25 
Q 10.09375 33.90625 14.90625 41.09375 
z
M 43.90625 20.296875 
Q 43.90625 26.59375 39.5 31 
Q 35.09375 35.40625 28.796875 35.40625 
Q 22.5 35.40625 18.09375 31 
Q 13.703125 26.59375 13.703125 20.296875 
Q 13.703125 14 18.140625 9.59375 
Q 22.59375 5.203125 28.796875 5.203125 
Q 35 5.203125 39.453125 9.59375 
Q 43.90625 14 43.90625 20.296875 
z
" id="STXihei-54"/>
      </defs>
      <g transform="translate(51.03875 143.359687)scale(0.1 -0.1)">
       <use xlink:href="#STXihei-54"/>
       <use x="55.399994" xlink:href="#STXihei-48"/>
      </g>
     </g>
    </g>
    <g id="ytick_5">
     <g id="line2d_12">
      <g>
       <use style="stroke:#000000;stroke-width:0.8;" x="69.12" xlink:href="#m08067cb507" y="87.84"/>
      </g>
     </g>
     <g id="text_13">
      <!-- 80 -->
      <defs>
       <path d="M 38.40625 39.40625 
Q 52 32.703125 52 20.59375 
Q 52 11 45.25 4.59375 
Q 38.5 -1.796875 27.59375 -1.796875 
Q 16.59375 -1.796875 10 4.59375 
Q 3.40625 11 3.40625 20 
Q 3.40625 32.59375 17.296875 39.40625 
Q 6.796875 45 6.796875 54.90625 
Q 6.796875 62.296875 12.9375 67.9375 
Q 19.09375 73.59375 28.09375 73.59375 
Q 36.5 73.59375 42.59375 68.09375 
Q 48.703125 62.59375 48.703125 54.703125 
Q 48.703125 45.09375 38.40625 39.40625 
z
M 41.5 55 
Q 41.5 59.796875 37.75 63.25 
Q 34 66.703125 27.703125 66.703125 
Q 21.90625 66.703125 18 63.25 
Q 14.09375 59.796875 14.09375 54.796875 
Q 14.09375 50 18.34375 46.140625 
Q 22.59375 42.296875 28 42.296875 
Q 33.40625 42.296875 37.453125 46.09375 
Q 41.5 49.90625 41.5 55 
z
M 44.796875 20.5 
Q 44.796875 26.59375 39.84375 31.1875 
Q 34.90625 35.796875 28.09375 35.796875 
Q 20.796875 35.796875 15.6875 31.046875 
Q 10.59375 26.296875 10.59375 19.796875 
Q 10.59375 13.40625 15.296875 9.203125 
Q 20 5 27.703125 5 
Q 35.203125 5 40 9.5 
Q 44.796875 14 44.796875 20.5 
z
" id="STXihei-56"/>
      </defs>
      <g transform="translate(51.03875 91.519687)scale(0.1 -0.1)">
       <use xlink:href="#STXihei-56"/>
       <use x="55.399994" xlink:href="#STXihei-48"/>
      </g>
     </g>
    </g>
    <g id="ytick_6">
     <g id="line2d_13">
      <g>
       <use style="stroke:#000000;stroke-width:0.8;" x="69.12" xlink:href="#m08067cb507" y="36"/>
      </g>
     </g>
     <g id="text_14">
      <!-- 100 -->
      <g transform="translate(45.498125 39.679688)scale(0.1 -0.1)">
       <use xlink:href="#STXihei-49"/>
       <use x="55.399994" xlink:href="#STXihei-48"/>
       <use x="110.799988" xlink:href="#STXihei-48"/>
      </g>
     </g>
    </g>
    <g id="text_15">
     <!-- 累计发病率（%） -->
     <defs>
      <path d="M 47 26.296875 
L 33.09375 25.59375 
Q 25.09375 25.203125 18.5 23.796875 
Q 18.203125 26.40625 16.40625 29.796875 
Q 24.40625 30.203125 36.5 39 
Q 21.796875 39 16.703125 38.5 
Q 17.296875 40.796875 17.296875 45.09375 
L 17.296875 62.59375 
Q 17.296875 66.703125 16.703125 69.59375 
Q 20.703125 69.203125 49.390625 69.203125 
Q 78.09375 69.203125 82.203125 69.59375 
Q 81.703125 65.703125 81.703125 62.59375 
L 81.703125 45.09375 
Q 81.703125 41 82.203125 38.5 
Q 75.203125 39 44.703125 39 
Q 38.796875 34.796875 30.796875 29.90625 
L 56 30.203125 
Q 63.203125 33.5 67.59375 37.703125 
Q 70 34.5 73.40625 32.796875 
Q 74.296875 32.296875 74.296875 31.59375 
Q 74.296875 30.5 72.796875 30.5 
Q 68.203125 30.5 61.953125 27.5 
Q 55.703125 24.5 30 14.703125 
L 72.703125 16.296875 
Q 69.09375 19.296875 65.203125 22 
L 69.203125 26 
Q 79.703125 18.09375 89.796875 8.5 
L 85.40625 4.59375 
Q 81.09375 8.90625 77.203125 12.5 
L 53.703125 11.296875 
L 53.703125 -9.40625 
Q 53.703125 -13.703125 50 -14.75 
Q 46.296875 -15.796875 38.796875 -15.703125 
Q 39.09375 -12 36.40625 -9.203125 
Q 41 -9.703125 43.640625 -9.703125 
Q 46.296875 -9.703125 47.09375 -8.75 
Q 47.90625 -7.796875 47.90625 -5 
L 47.90625 11 
Q 16.09375 9.5 12.5 8.40625 
Q 12.90625 12.09375 11.296875 15.296875 
Q 22 15.796875 47 26.296875 
z
M 52.703125 56 
L 75.796875 56 
L 75.796875 64.59375 
L 52.703125 64.59375 
z
M 47 64.59375 
L 23.203125 64.59375 
L 23.203125 56 
L 47 56 
z
M 52.703125 51.40625 
L 52.703125 43.296875 
L 75.796875 43.296875 
L 75.796875 51.40625 
z
M 47 43.296875 
L 47 51.40625 
L 23.203125 51.40625 
L 23.203125 43.296875 
z
M 93.09375 -6 
L 89.296875 -11.203125 
Q 77.296875 -3 64.703125 2.09375 
L 67.59375 7.09375 
Q 80.09375 1.40625 93.09375 -6 
z
M 30.09375 7 
Q 32.5 3.90625 34.40625 3 
Q 35.703125 2.40625 35.703125 1.65625 
Q 35.703125 0.90625 33.59375 0.703125 
Q 32.296875 0.59375 25.296875 -4.15625 
Q 18.296875 -8.90625 10 -13.5 
Q 9.203125 -9.796875 5.203125 -8 
Q 19.703125 -3 30.09375 7 
z
" id="STXihei-32047"/>
      <path d="M 68.296875 43.40625 
Q 85.296875 43.5 95.203125 44.296875 
L 95.203125 37.40625 
Q 87.203125 38.203125 68.296875 38.296875 
L 68.296875 1.90625 
Q 68.296875 -5.703125 69.09375 -16.09375 
L 61.40625 -16.09375 
Q 62.203125 -3.703125 62.203125 1.90625 
L 62.203125 38.296875 
Q 44.40625 38.296875 34.59375 37.40625 
L 34.59375 44.296875 
Q 44.796875 43.5 62.203125 43.40625 
L 62.203125 60.296875 
Q 62.203125 70.703125 61 75.59375 
Q 65.703125 74.703125 68.453125 74.703125 
Q 71.203125 74.703125 71.203125 74.09375 
Q 71.203125 73.5 69.75 72.703125 
Q 68.296875 71.90625 68.296875 65.296875 
z
M 33.5 56.09375 
L 28.40625 51.796875 
Q 21.5 61.296875 10.90625 70 
L 15.40625 74.09375 
Q 25.09375 65.90625 33.5 56.09375 
z
M 26.09375 32.296875 
L 26.09375 -0.203125 
Q 34 5.703125 40.90625 13.40625 
Q 41.703125 9.90625 43.796875 7.296875 
L 28.90625 -5.203125 
Q 24.09375 -9.203125 21 -12.703125 
Q 19.203125 -9.296875 16.203125 -7.09375 
Q 18.40625 -4.59375 19.25 -2.4375 
Q 20.09375 -0.296875 20.09375 4 
L 20.09375 38.59375 
Q 12.09375 38.59375 9.75 38.390625 
Q 7.40625 38.203125 4.40625 37.09375 
L 4.40625 44.296875 
Q 8.40625 43.796875 15.796875 43.796875 
Q 23.203125 43.796875 27.796875 44.296875 
Q 26.09375 40.09375 26.09375 32.296875 
z
" id="STXihei-35745"/>
      <path d="M 35.296875 24.40625 
Q 25.796875 8.40625 10.5 -2.40625 
Q 7.703125 0.5 4 2 
Q 28.5 16.40625 38.5 44.5 
L 27.09375 44.5 
Q 18.703125 44.5 15.296875 42.09375 
Q 14.296875 45.703125 11.796875 48.59375 
Q 15.5 49.09375 18.140625 54.9375 
Q 20.796875 60.796875 21.796875 70.796875 
Q 25.703125 69.203125 29.90625 68.90625 
Q 31.09375 68.796875 31.09375 68.09375 
Q 31.09375 67.40625 29.9375 66.90625 
Q 28.796875 66.40625 27.1875 63.203125 
Q 25.59375 60 21.703125 49.703125 
L 40.203125 49.703125 
Q 43.796875 61 45.796875 74.5 
Q 49.90625 72.296875 53.59375 72.296875 
Q 55.40625 72.296875 55.40625 71.203125 
Q 55.40625 70.296875 54 69.75 
Q 52.59375 69.203125 51.09375 65.296875 
Q 49.59375 61.40625 46.5 49.703125 
L 68.203125 49.703125 
Q 82 49.703125 91 51 
L 91.09375 43.59375 
Q 81.703125 44.5 68.296875 44.5 
L 44.703125 44.5 
Q 42.796875 39 40.203125 33.5 
L 60.703125 33.5 
Q 71.09375 33.5 82.796875 34.09375 
Q 74.59375 15.203125 61.40625 4 
Q 73.296875 -4.09375 93.203125 -6.703125 
Q 90.296875 -8.90625 88.203125 -13.796875 
Q 69.296875 -9.5 56.59375 0.296875 
Q 44.90625 -8 25.09375 -15.296875 
Q 22.90625 -11.703125 18.90625 -9.40625 
Q 39.40625 -3.796875 52 4.203125 
Q 43 12.296875 35.296875 24.40625 
z
M 38.59375 28.59375 
Q 44.59375 18.40625 56.796875 7.5 
Q 68 16 73.296875 28.59375 
z
M 80.203125 57.703125 
L 75.203125 53.203125 
Q 69.296875 61.09375 60.5 67.703125 
L 64.90625 72.203125 
Q 74.203125 64.59375 80.203125 57.703125 
z
" id="STXihei-21457"/>
      <path d="M 19.59375 31.5 
Q 19.703125 43.5 18 64.59375 
Q 24.203125 63.90625 53 63.90625 
Q 50.796875 68 47 71.59375 
L 52.59375 75 
Q 56.09375 70.5 59.203125 63.90625 
Q 88.59375 63.90625 92.90625 64.59375 
L 92.90625 58.40625 
Q 84.59375 59.09375 64.296875 59.09375 
L 24.59375 59.09375 
Q 25.203125 43.59375 25.203125 34.203125 
Q 25.203125 15.90625 22.75 6.15625 
Q 20.296875 -3.59375 13.703125 -14.59375 
Q 11.5 -11.796875 7.296875 -11 
Q 13.40625 -2.796875 16.203125 5.640625 
Q 19 14.09375 19.5 25.59375 
Q 11.296875 19.703125 7.203125 16.203125 
Q 6.09375 19.40625 3.59375 22.09375 
Q 11.40625 25.203125 19.59375 31.5 
z
M 17.59375 41.59375 
L 12.40625 38.203125 
Q 8.796875 47 3.703125 53.5 
L 8.40625 57.09375 
Q 13.5 50.796875 17.59375 41.59375 
z
M 59.40625 45.09375 
Q 37.09375 44.90625 28.09375 44 
L 28.09375 50.90625 
Q 38.59375 49.796875 61.84375 49.796875 
Q 85.09375 49.796875 95.09375 50.90625 
L 95.09375 44 
Q 83.90625 45.09375 65.09375 45.09375 
Q 65.203125 38.703125 64.90625 32.703125 
Q 81.09375 32.703125 90.90625 33.40625 
Q 90.59375 30 90.59375 25.203125 
L 90.59375 -5.5 
Q 90.59375 -10.703125 87.59375 -12.453125 
Q 84.59375 -14.203125 74.796875 -14.796875 
Q 74.5 -10.796875 71.59375 -7.296875 
Q 76.5 -8.09375 79.296875 -8.09375 
Q 82.09375 -8.09375 83.390625 -7.25 
Q 84.703125 -6.40625 84.703125 -3.703125 
L 84.703125 28.09375 
L 64.5 28.09375 
Q 63.90625 23.203125 62.90625 19.703125 
Q 76.5 10.40625 82.59375 4.90625 
L 77.40625 -0.203125 
Q 72.203125 6.703125 61.296875 14.59375 
Q 57.703125 5 45.09375 -3.40625 
Q 43.203125 -0.5 39.40625 1.296875 
Q 49.90625 5.796875 53.84375 12.5 
Q 57.796875 19.203125 58.796875 28.09375 
L 38.5 28.09375 
L 38.5 -14.90625 
L 31.90625 -14.90625 
Q 32.59375 -8.203125 32.59375 -1.59375 
L 32.59375 25.5 
Q 32.59375 31 32.203125 33.5 
Q 43.90625 32.703125 59.09375 32.703125 
Q 59.5 37.796875 59.40625 45.09375 
z
" id="STXihei-30149"/>
      <path d="M 46 60.5 
Q 21.90625 60.5 10.796875 59.5 
L 10.796875 66 
Q 21.40625 65 48 65 
Q 45.203125 69.59375 40.59375 73.5 
L 46.296875 77.09375 
Q 50.296875 72.59375 54.09375 65 
Q 79.203125 65 90.296875 66 
L 90.296875 59.5 
Q 79.09375 60.5 47.5 60.5 
Q 49.5 59.09375 51.203125 58.34375 
Q 52.90625 57.59375 52.90625 56.796875 
Q 52.90625 56 51.40625 55.796875 
Q 49.90625 55.59375 47.046875 52 
Q 44.203125 48.40625 41 44.796875 
L 53.59375 45.296875 
Q 57.5 50.203125 59.40625 54.40625 
Q 63.296875 51.09375 64.9375 50.546875 
Q 66.59375 50 66.59375 49.09375 
Q 66.59375 48.203125 64.84375 48 
Q 63.09375 47.796875 53.90625 37.796875 
Q 47.59375 31.09375 41 25.296875 
L 61.40625 26.59375 
Q 59.40625 29.203125 55.90625 33.40625 
L 60.09375 36.40625 
Q 67.796875 27.296875 72.703125 18.90625 
L 67.5 15.90625 
Q 66.09375 19.40625 64.09375 22.703125 
L 52.59375 21.796875 
L 52.59375 9.796875 
Q 85.296875 9.796875 95.796875 10.796875 
L 95.796875 4.296875 
Q 82.703125 5.296875 52.59375 5.296875 
L 52.59375 1.09375 
Q 52.59375 -7.5 53.5 -16.703125 
L 45.90625 -16.703125 
Q 46.796875 -5.90625 46.796875 1.09375 
L 46.796875 5.296875 
Q 16 5.296875 4.796875 4.296875 
L 4.796875 10.796875 
Q 15.796875 9.796875 46.796875 9.796875 
L 46.796875 21.296875 
Q 37.296875 20.59375 32.5 19.203125 
Q 32 22.203125 30.203125 25 
Q 34.703125 26.296875 38.84375 29.890625 
Q 43 33.5 49.90625 41.09375 
L 40.09375 40 
Q 35.59375 39.59375 32.59375 38.5 
Q 32.59375 41.40625 31 43.296875 
Q 38 45.40625 46 60.5 
z
M 80 56.203125 
Q 83.296875 53.296875 84.796875 52.390625 
Q 86.296875 51.5 86.296875 50.796875 
Q 86.296875 49.90625 85.046875 49.90625 
Q 83.796875 49.90625 81.84375 48.453125 
Q 79.90625 47 76.65625 43.890625 
Q 73.40625 40.796875 70.703125 38.296875 
Q 69.40625 40.5 66.5 42 
Q 74.90625 47.703125 80 56.203125 
z
M 29.296875 43.40625 
L 24.796875 39.5 
Q 20.59375 45 11.40625 50.796875 
L 14.90625 54.90625 
Q 22.796875 49.296875 29.296875 43.40625 
z
M 32.59375 31.5 
Q 25.703125 26.5 12.90625 15 
Q 11.09375 18.5 7.90625 19.703125 
Q 21.5 27.40625 29 36.59375 
Q 30 33.40625 32.59375 31.5 
z
M 91.296875 20.59375 
L 86.796875 16.59375 
Q 81.296875 23 70.703125 30.5 
L 74.203125 34.703125 
Q 83.296875 28.40625 91.296875 20.59375 
z
" id="STXihei-29575"/>
      <path d="M 67.40625 75 
L 15.09375 -5 
L 8.59375 -5 
L 56.296875 67.90625 
Q 50.5 66.5 44.453125 66.09375 
Q 38.40625 65.703125 35.59375 65.796875 
L 33 65.90625 
Q 36 61.703125 36 57 
Q 36 49.796875 31.140625 44.75 
Q 26.296875 39.703125 19 39.703125 
Q 12 39.703125 7.09375 44.59375 
Q 2.203125 49.5 2.203125 56.59375 
Q 2.203125 63.703125 7.25 68.59375 
Q 12.296875 73.5 18.90625 73.5 
Q 21.59375 73.5 25 72.796875 
Q 31.59375 71.40625 38.90625 71.40625 
Q 50.5 71.40625 61.703125 75 
z
M 29.90625 56.703125 
Q 29.90625 61.203125 26.75 64.296875 
Q 23.59375 67.40625 19.09375 67.40625 
Q 14.703125 67.40625 11.546875 64.25 
Q 8.40625 61.09375 8.40625 56.703125 
Q 8.40625 52.296875 11.546875 49.140625 
Q 14.703125 46 19.09375 46 
Q 23.59375 46 26.75 49.09375 
Q 29.90625 52.203125 29.90625 56.703125 
z
M 41.5 14.796875 
Q 41.5 21.703125 46.453125 26.703125 
Q 51.40625 31.703125 58.296875 31.703125 
Q 65.296875 31.703125 70.25 26.75 
Q 75.203125 21.796875 75.203125 14.796875 
Q 75.203125 7.796875 70.25 2.84375 
Q 65.296875 -2.09375 58.296875 -2.09375 
Q 51.40625 -2.09375 46.453125 2.84375 
Q 41.5 7.796875 41.5 14.796875 
z
M 69.09375 14.796875 
Q 69.09375 19.203125 65.9375 22.34375 
Q 62.796875 25.5 58.296875 25.5 
Q 53.90625 25.5 50.796875 22.34375 
Q 47.703125 19.203125 47.703125 14.796875 
Q 47.703125 10.40625 50.796875 7.25 
Q 53.90625 4.09375 58.296875 4.09375 
Q 62.796875 4.09375 65.9375 7.1875 
Q 69.09375 10.296875 69.09375 14.796875 
z
" id="STXihei-37"/>
     </defs>
     <g transform="translate(32.587187 223.9125)rotate(-90)scale(0.15 -0.15)">
      <use xlink:href="#STXihei-32047"/>
      <use x="99.999985" xlink:href="#STXihei-35745"/>
      <use x="199.999969" xlink:href="#STXihei-21457"/>
      <use x="299.999954" xlink:href="#STXihei-30149"/>
      <use x="399.999939" xlink:href="#STXihei-29575"/>
      <use x="499.999924" xlink:href="#STXihei-65288"/>
      <use x="599.999908" xlink:href="#STXihei-37"/>
      <use x="677.499893" xlink:href="#STXihei-65289"/>
     </g>
    </g>
   </g>
   <g id="line2d_14">
    <path clip-path="url(#pbf5a3373ce)" d="M 69.12 295.2 
L 120.1152 295.09632 
L 145.6128 294.57792 
L 153.5808 294.11136 
L 159.9552 293.5152 
L 164.736 292.8672 
L 169.5168 291.98592 
L 172.704 291.20832 
L 175.8912 290.2752 
L 179.0784 289.1088 
L 182.2656 287.6832 
L 185.4528 285.94656 
L 188.64 283.82112 
L 191.8272 281.25504 
L 193.4208 279.7776 
L 196.608 276.35616 
L 198.2016 274.41216 
L 201.3888 269.97984 
L 202.9824 267.49152 
L 206.1696 261.84096 
L 209.3568 255.30912 
L 212.544 247.84416 
L 215.7312 239.44608 
L 218.9184 230.16672 
L 222.1056 220.10976 
L 226.8864 203.9616 
L 238.0416 165.2112 
L 241.2288 154.94688 
L 244.416 145.40832 
L 247.6032 136.6992 
L 250.7904 128.87136 
L 253.9776 121.95072 
L 257.1648 115.88544 
L 260.352 110.6496 
L 263.5392 106.16544 
L 266.7264 102.3552 
L 269.9136 99.14112 
L 273.1008 96.44544 
L 276.288 94.1904 
L 279.4752 92.29824 
L 282.6624 90.74304 
L 285.8496 89.44704 
L 290.6304 87.91776 
L 295.4112 86.77728 
L 300.192 85.92192 
L 304.9728 85.29984 
L 311.3472 84.67776 
L 322.5024 84.05568 
L 336.8448 83.6928 
L 348 83.58912 
L 359.1552 83.51136 
L 577 83.45952 
L 577 83.45952 
" style="fill:none;stroke:#1f77b4;stroke-linecap:square;stroke-width:1.5;"/>
   </g>
   <g id="line2d_15">
    <path clip-path="url(#pbf5a3373ce)" d="M 69.12 295.2 
L 124.896 295.09632 
L 151.9872 294.57792 
L 163.1424 293.92992 
L 169.5168 293.33376 
L 174.2976 292.71168 
L 179.0784 291.85632 
L 183.8592 290.74176 
L 188.64 289.2384 
L 191.8272 287.99424 
L 195.0144 286.49088 
L 198.2016 284.7024 
L 201.3888 282.55104 
L 204.576 280.0368 
L 207.7632 277.03008 
L 210.9504 273.50496 
L 214.1376 269.4096 
L 217.3248 264.64032 
L 220.512 259.19712 
L 223.6992 253.05408 
L 226.8864 246.13344 
L 230.0736 238.51296 
L 233.2608 230.21856 
L 236.448 221.35392 
L 241.2288 207.22752 
L 253.9776 168.76224 
L 257.1648 159.8976 
L 260.352 151.62912 
L 263.5392 143.98272 
L 266.7264 137.03616 
L 269.9136 130.78944 
L 273.1008 125.26848 
L 276.288 120.39552 
L 279.4752 116.14464 
L 282.6624 112.48992 
L 285.8496 109.32768 
L 289.0368 106.60608 
L 292.224 104.2992 
L 295.4112 102.3552 
L 298.5984 100.69632 
L 301.7856 99.29664 
L 304.9728 98.13024 
L 308.16 97.11936 
L 312.9408 95.92704 
L 319.3152 94.76064 
L 324.096 94.13856 
L 330.4704 93.51648 
L 336.8448 93.07584 
L 349.5936 92.55744 
L 379.872 92.16864 
L 577 92.09088 
L 577 92.09088 
" style="fill:none;stroke:#ff7f0e;stroke-linecap:square;stroke-width:1.5;"/>
   </g>
   <g id="line2d_16">
    <path clip-path="url(#pbf5a3373ce)" d="M 69.12 295.2 
L 120.1152 295.09632 
L 145.6128 294.60384 
L 155.1744 294.05952 
L 161.5488 293.46336 
L 166.3296 292.81536 
L 171.1104 291.93408 
L 174.2976 291.1824 
L 177.4848 290.2752 
L 180.672 289.13472 
L 183.8592 287.76096 
L 187.0464 286.07616 
L 190.2336 284.02848 
L 193.4208 281.56608 
L 196.608 278.6112 
L 199.7952 275.06016 
L 201.3888 273.06432 
L 202.9824 270.88704 
L 206.1696 265.93632 
L 207.7632 263.1888 
L 210.9504 257.01984 
L 214.1376 249.99552 
L 217.3248 242.08992 
L 220.512 233.30304 
L 223.6992 223.7904 
L 228.48 208.34208 
L 242.8224 160.46784 
L 246.0096 150.90336 
L 249.1968 142.06464 
L 252.384 134.05536 
L 255.5712 126.87552 
L 258.7584 120.55104 
L 261.9456 115.056 
L 263.5392 112.56768 
L 266.7264 108.16128 
L 268.32 106.19136 
L 271.5072 102.71808 
L 274.6944 99.78912 
L 277.8816 97.32672 
L 281.0688 95.25312 
L 284.256 93.5424 
L 287.4432 92.09088 
L 290.6304 90.89856 
L 293.8176 89.9136 
L 297.0048 89.08416 
L 300.192 88.41024 
L 304.9728 87.60672 
L 311.3472 86.82912 
L 320.9088 86.12928 
L 332.064 85.68864 
L 341.6256 85.48128 
L 357.5616 85.32576 
L 577 85.248 
L 577 85.248 
" style="fill:none;stroke:#2ca02c;stroke-linecap:square;stroke-width:1.5;"/>
   </g>
   <g id="line2d_17">
    <path clip-path="url(#pbf5a3373ce)" d="M 69.12 295.2 
L 128.0832 295.09632 
L 158.3616 294.50016 
L 167.9232 293.95584 
L 175.8912 293.20416 
L 182.2656 292.29696 
L 187.0464 291.36384 
L 190.2336 290.58624 
L 193.4208 289.65312 
L 196.608 288.56448 
L 199.7952 287.21664 
L 202.9824 285.66144 
L 206.1696 283.7952 
L 209.3568 281.56608 
L 212.544 278.97408 
L 215.7312 275.94144 
L 218.9184 272.41632 
L 222.1056 268.34688 
L 225.2928 263.68128 
L 228.48 258.36768 
L 231.6672 252.40608 
L 234.8544 245.79648 
L 238.0416 238.51296 
L 241.2288 230.6592 
L 244.416 222.28704 
L 249.1968 209.04192 
L 260.352 177.23808 
L 265.1328 164.48544 
L 268.32 156.57984 
L 271.5072 149.24448 
L 274.6944 142.5312 
L 277.8816 136.44 
L 281.0688 130.9968 
L 284.256 126.14976 
L 287.4432 121.89888 
L 290.6304 118.19232 
L 293.8176 114.95232 
L 297.0048 112.15296 
L 300.192 109.76832 
L 303.3792 107.72064 
L 306.5664 105.95808 
L 309.7536 104.45472 
L 312.9408 103.18464 
L 317.7216 101.62944 
L 322.5024 100.43712 
L 327.2832 99.504 
L 333.6576 98.57088 
L 340.032 97.92288 
L 348 97.35264 
L 359.1552 96.88608 
L 394.2144 96.41952 
L 577 96.34176 
L 577 96.34176 
" style="fill:none;stroke:#d62728;stroke-linecap:square;stroke-width:1.5;"/>
   </g>
   <g id="line2d_18">
    <path clip-path="url(#pbf5a3373ce)" d="M 69.12 295.2 
L 124.896 295.09632 
L 151.9872 294.552 
L 158.3616 294.24096 
L 163.1424 293.92992 
L 171.1104 293.10048 
L 177.4848 292.0896 
L 182.2656 291.00096 
L 185.4528 290.11968 
L 188.64 289.03104 
L 191.8272 287.70912 
L 195.0144 286.128 
L 198.2016 284.23584 
L 201.3888 281.95488 
L 204.576 279.28512 
L 207.7632 276.09696 
L 210.9504 272.36448 
L 214.1376 268.00992 
L 217.3248 262.98144 
L 220.512 257.20128 
L 223.6992 250.69536 
L 226.8864 243.43776 
L 230.0736 235.42848 
L 233.2608 226.7712 
L 236.448 217.5696 
L 242.8224 198.05184 
L 250.7904 173.53152 
L 255.5712 159.79392 
L 258.7584 151.344 
L 261.9456 143.568 
L 265.1328 136.51776 
L 268.32 130.19328 
L 271.5072 124.56864 
L 274.6944 119.64384 
L 277.8816 115.34112 
L 281.0688 111.66048 
L 284.256 108.47232 
L 287.4432 105.75072 
L 290.6304 103.44384 
L 293.8176 101.47392 
L 297.0048 99.81504 
L 300.192 98.44128 
L 303.3792 97.27488 
L 306.5664 96.28992 
L 309.7536 95.46048 
L 314.5344 94.47552 
L 319.3152 93.72384 
L 325.6896 92.99808 
L 332.064 92.47968 
L 340.032 92.06496 
L 348 91.77984 
L 376.6848 91.41696 
L 577 91.3392 
L 577 91.3392 
" style="fill:none;stroke:#9467bd;stroke-linecap:square;stroke-width:1.5;"/>
   </g>
   <g id="line2d_19">
    <path clip-path="url(#pbf5a3373ce)" d="M 69.12 295.2 
L 121.7088 295.09632 
L 147.2064 294.57792 
L 153.5808 294.26688 
L 159.9552 293.7744 
L 164.736 293.23008 
L 169.5168 292.50432 
L 172.704 291.88224 
L 177.4848 290.68992 
L 180.672 289.65312 
L 183.8592 288.38304 
L 187.0464 286.85376 
L 190.2336 284.98752 
L 193.4208 282.73248 
L 196.608 280.01088 
L 198.2016 278.45568 
L 201.3888 274.90464 
L 204.576 270.7056 
L 207.7632 265.75488 
L 209.3568 263.00736 
L 212.544 256.8384 
L 215.7312 249.84 
L 218.9184 241.9344 
L 222.1056 233.22528 
L 225.2928 223.73856 
L 228.48 213.65568 
L 234.8544 192.34944 
L 241.2288 171.06912 
L 244.416 160.96032 
L 247.6032 151.4736 
L 250.7904 142.71264 
L 253.9776 134.78112 
L 257.1648 127.65312 
L 260.352 121.38048 
L 263.5392 115.88544 
L 266.7264 111.14208 
L 269.9136 107.07264 
L 273.1008 103.59936 
L 276.288 100.6704 
L 279.4752 98.208 
L 282.6624 96.1344 
L 285.8496 94.39776 
L 289.0368 92.94624 
L 292.224 91.75392 
L 295.4112 90.74304 
L 298.5984 89.9136 
L 303.3792 88.92864 
L 309.7536 87.99552 
L 316.128 87.34752 
L 328.8768 86.62176 
L 343.2192 86.25888 
L 359.1552 86.10336 
L 577 85.99968 
L 577 85.99968 
" style="fill:none;stroke:#8c564b;stroke-linecap:square;stroke-width:1.5;"/>
   </g>
   <g id="patch_3">
    <path d="M 69.12 295.2 
L 69.12 36 
" style="fill:none;stroke:#000000;stroke-linecap:square;stroke-linejoin:miter;stroke-width:0.8;"/>
   </g>
   <g id="patch_4">
    <path d="M 547.2 295.2 
L 547.2 36 
" style="fill:none;stroke:#000000;stroke-linecap:square;stroke-linejoin:miter;stroke-width:0.8;"/>
   </g>
   <g id="patch_5">
    <path d="M 69.12 295.2 
L 547.2 295.2 
" style="fill:none;stroke:#000000;stroke-linecap:square;stroke-linejoin:miter;stroke-width:0.8;"/>
   </g>
   <g id="patch_6">
    <path d="M 69.12 36 
L 547.2 36 
" style="fill:none;stroke:#000000;stroke-linecap:square;stroke-linejoin:miter;stroke-width:0.8;"/>
   </g>
   <g id="legend_1">
    <g id="patch_7">
     <path d="M 76.12 129.998437 
L 138.12 129.998437 
Q 140.12 129.998437 140.12 127.998437 
L 140.12 43 
Q 140.12 41 138.12 41 
L 76.12 41 
Q 74.12 41 74.12 43 
L 74.12 127.998437 
Q 74.12 129.998437 76.12 129.998437 
z
" style="fill:#ffffff;opacity:0.8;stroke:#cccccc;stroke-linejoin:miter;"/>
    </g>
    <g id="line2d_20">
     <path d="M 78.12 48.859375 
L 98.12 48.859375 
" style="fill:none;stroke:#1f77b4;stroke-linecap:square;stroke-width:1.5;"/>
    </g>
    <g id="line2d_21"/>
    <g id="text_16">
     <!-- 湖北省 -->
     <defs>
      <path d="M 51.296875 6.40625 
L 34 6.40625 
L 34 -4.59375 
L 27.703125 -4.59375 
Q 28.5 2.203125 28.5 7.40625 
L 28.5 22.59375 
Q 28.5 30.296875 28 33.5 
Q 31.59375 33.203125 39.59375 33 
L 39.59375 48.59375 
Q 30.203125 48.40625 24.796875 47.703125 
L 24.796875 54.203125 
Q 30.203125 53.5 39.59375 53.296875 
L 39.59375 66.796875 
Q 39.59375 72.59375 38.796875 75.59375 
Q 41.703125 75.203125 46.09375 75.203125 
Q 47.796875 75.203125 47.796875 74.34375 
Q 47.796875 73.5 46.546875 72.5 
Q 45.296875 71.5 45.296875 66.90625 
L 45.296875 53.296875 
Q 54.703125 53.5 60.203125 54.203125 
L 60.203125 47.703125 
Q 54.703125 48.40625 45.296875 48.59375 
L 45.296875 33 
Q 52.90625 33.203125 57.40625 33.59375 
Q 56.796875 30.59375 56.796875 22.59375 
L 56.796875 9.5 
Q 56.796875 4.40625 57.5 -2.296875 
L 51.296875 -2.296875 
z
M 34 11.09375 
L 51.296875 11.09375 
L 51.296875 28.5 
L 34 28.5 
z
M 26.90625 59.90625 
L 22.59375 55 
Q 17.09375 61.203125 7.796875 67.296875 
L 11.59375 72.09375 
Q 19.796875 66.296875 26.90625 59.90625 
z
M 84.59375 17.703125 
L 68.296875 17.703125 
Q 67.90625 7.40625 66.296875 0.40625 
Q 64.703125 -6.59375 59.09375 -15.90625 
Q 56.59375 -13.703125 51.796875 -13 
Q 58.796875 -6.296875 60.890625 3.140625 
Q 63 12.59375 63 42.90625 
L 63 57 
Q 63 64.296875 62.59375 69.59375 
Q 68 69.203125 76.5 69.203125 
Q 85 69.203125 90.5 69.59375 
Q 90.296875 60.40625 90.296875 57 
L 90.296875 -3.703125 
Q 90.296875 -8.203125 89.390625 -10.140625 
Q 88.5 -12.09375 85.390625 -13 
Q 82.296875 -13.90625 75 -14.296875 
Q 75.203125 -10.703125 72.59375 -7.296875 
Q 76.703125 -7.796875 78.90625 -7.796875 
Q 82.59375 -7.796875 83.59375 -6.34375 
Q 84.59375 -4.90625 84.59375 -0.796875 
z
M 68.703125 45.296875 
L 84.59375 45.296875 
L 84.59375 64 
L 68.703125 64 
z
M 84.59375 40.5 
L 68.703125 40.5 
Q 68.703125 26.90625 68.5 22.5 
L 84.59375 22.5 
z
M 25.296875 35.703125 
L 21.09375 31.203125 
Q 14.59375 37.59375 6.59375 42.796875 
L 9.703125 47.40625 
Q 18.40625 41.796875 25.296875 35.703125 
z
M 23.90625 20.90625 
Q 17.5 4.59375 11.796875 -12.59375 
Q 8.703125 -10.296875 4.90625 -9.40625 
Q 13.09375 5.296875 18.09375 24.203125 
Q 20.296875 21.90625 23.90625 20.90625 
z
" id="STXihei-28246"/>
      <path d="M 33.703125 43.5 
L 33.703125 53.40625 
Q 33.703125 67.203125 32.796875 72.796875 
Q 37.09375 71.703125 41.5 71.703125 
Q 43.09375 71.703125 43.09375 71.09375 
Q 43.09375 70.5 42.1875 69.953125 
Q 41.296875 69.40625 40.640625 68 
Q 40 66.59375 40 65.09375 
L 40 1.90625 
Q 40 -6.5 40.796875 -13.09375 
L 32.796875 -13.09375 
Q 33.703125 -5.5 33.703125 1.90625 
L 33.703125 10.796875 
Q 23 4.703125 8.703125 -5 
Q 8 -1.59375 4.59375 1.90625 
Q 17.5 6.703125 33.703125 16.90625 
L 33.703125 38.703125 
L 20.90625 38.703125 
Q 13 38.703125 7.203125 38 
L 7.203125 44.296875 
Q 12.796875 43.5 20.90625 43.5 
z
M 64.203125 41 
Q 80.203125 45.796875 89.09375 51.5 
Q 91 47.5 93.296875 45.5 
Q 94.40625 44.59375 94.40625 43.84375 
Q 94.40625 43.09375 92.5 43.09375 
L 91.203125 43.203125 
Q 88.703125 43.203125 83.09375 41.640625 
Q 77.5 40.09375 64.203125 35.5 
L 64.203125 0.796875 
Q 64.203125 -1.40625 65.046875 -2.59375 
Q 65.90625 -3.796875 68.453125 -4.34375 
Q 71 -4.90625 77.25 -4.90625 
Q 83.5 -4.90625 85.953125 -3.75 
Q 88.40625 -2.59375 89.09375 -0.25 
Q 89.796875 2.09375 89.796875 5.796875 
Q 92.90625 2.796875 96.40625 1.796875 
Q 95.296875 -3.796875 93.390625 -6.296875 
Q 91.5 -8.796875 87.703125 -9.640625 
Q 83.90625 -10.5 75.90625 -10.5 
Q 67.90625 -10.5 64.15625 -9.59375 
Q 60.40625 -8.703125 59.25 -6.640625 
Q 58.09375 -4.59375 58.09375 -0.296875 
L 58.09375 55.796875 
Q 58.09375 68.59375 57.5 72.703125 
Q 59.703125 72.203125 61.796875 72.140625 
Q 63.90625 72.09375 65.40625 72.09375 
Q 66.90625 72.09375 66.90625 71.640625 
Q 66.90625 71.203125 65.90625 70.09375 
Q 64.203125 68.203125 64.203125 55.796875 
z
" id="STXihei-21271"/>
      <path d="M 46.90625 41 
L 46.90625 65.40625 
Q 46.90625 71.90625 45.796875 75.5 
Q 51 74.59375 53.34375 74.5 
Q 55.703125 74.40625 55.703125 73.59375 
Q 55.703125 72.796875 54.59375 72.203125 
Q 53 71.296875 53 68.703125 
L 53 43.296875 
Q 68.5 49.90625 73 55.203125 
Q 75.796875 52.203125 78.59375 50.59375 
Q 79.5 50.09375 79.5 49.203125 
Q 79.5 47.90625 78.09375 47.90625 
Q 73.40625 47.90625 69.5 45.59375 
Q 56.90625 38.09375 31.90625 32.09375 
Q 39.703125 31.796875 56.546875 31.796875 
Q 73.40625 31.796875 82.09375 32.703125 
Q 81.5 29.59375 81.5 25 
L 81.5 -5.59375 
Q 81.5 -10.40625 82.203125 -15.59375 
L 75.59375 -15.59375 
L 75.59375 -9 
L 28.296875 -9 
L 28.296875 -16 
L 21.5 -16 
Q 22.203125 -11.203125 22.203125 -6 
L 22.203125 29.796875 
L 8.796875 27.203125 
Q 8.796875 30.703125 6 34.203125 
Q 26.59375 34.59375 46.90625 41 
z
M 28.296875 19.40625 
L 75.59375 19.40625 
L 75.59375 27.296875 
L 28.296875 27.296875 
z
M 75.59375 14.90625 
L 28.296875 14.90625 
L 28.296875 7.90625 
L 75.59375 7.90625 
z
M 28.296875 3.59375 
L 28.296875 -4.40625 
L 75.59375 -4.40625 
L 75.59375 3.59375 
z
M 94.703125 50.5 
L 89.703125 46.203125 
Q 78.5 57.59375 68.09375 63.90625 
L 71.203125 68.09375 
Q 84.59375 59.296875 94.703125 50.5 
z
M 30.90625 67.40625 
Q 33.5 64.59375 36.203125 63.59375 
Q 37.40625 63.09375 37.40625 62.546875 
Q 37.40625 62 35.75 61.34375 
Q 34.09375 60.703125 29.5 55.90625 
Q 22.40625 48.40625 13.296875 41.203125 
Q 10.59375 45.5 7.5 45.796875 
Q 21.796875 52.59375 30.90625 67.40625 
z
" id="STXihei-30465"/>
     </defs>
     <g transform="translate(106.12 52.359375)scale(0.1 -0.1)">
      <use xlink:href="#STXihei-28246"/>
      <use x="99.999985" xlink:href="#STXihei-21271"/>
      <use x="199.999969" xlink:href="#STXihei-30465"/>
     </g>
    </g>
    <g id="line2d_22">
     <path d="M 78.12 63.189062 
L 98.12 63.189062 
" style="fill:none;stroke:#ff7f0e;stroke-linecap:square;stroke-width:1.5;"/>
    </g>
    <g id="line2d_23"/>
    <g id="text_17">
     <!-- 上海市 -->
     <defs>
      <path d="M 50.703125 43 
Q 83.203125 43 85.90625 43.796875 
L 85.90625 37.203125 
Q 83.203125 37.90625 50.703125 37.90625 
L 50.703125 -3.703125 
Q 83.5 -3.703125 93.5 -2.90625 
L 93.5 -9.59375 
Q 80.203125 -8.796875 51.59375 -8.796875 
Q 23 -8.796875 6.796875 -9.59375 
L 6.796875 -2.90625 
Q 21.796875 -3.703125 44.09375 -3.703125 
L 44.09375 60.90625 
Q 44.09375 69.703125 43.5 73.296875 
Q 47.40625 72.296875 52.203125 72.296875 
Q 53.5 72.296875 53.5 71.6875 
Q 53.5 71.09375 52.09375 70.25 
Q 50.703125 69.40625 50.703125 65.59375 
z
" id="STXihei-19978"/>
      <path d="M 47.5 64 
L 69.59375 64 
Q 82 64 91 64.703125 
L 91 58.40625 
Q 82 59.09375 69.59375 59.09375 
L 44.90625 59.09375 
Q 40 50.203125 34 42.796875 
Q 31.40625 45.59375 28.296875 46.796875 
Q 42.40625 59.796875 45.59375 76.703125 
Q 49.09375 74.40625 52.90625 73.90625 
Q 53.796875 73.796875 53.796875 73.140625 
Q 53.796875 72.5 52.59375 71.84375 
Q 51.40625 71.203125 50.90625 70.5 
Q 50.40625 69.796875 49 66.9375 
Q 47.59375 64.09375 47.5 64 
z
M 32.09375 61.09375 
L 28.296875 56.296875 
Q 21.796875 62.203125 10 68.59375 
L 13.203125 73.5 
Q 22.796875 68.09375 32.09375 61.09375 
z
M 39.59375 27.09375 
L 41.09375 50.296875 
Q 49.5 49.796875 62.5 49.796875 
Q 75.5 49.796875 83.796875 50.296875 
L 83.203125 27.09375 
Q 91.296875 27.09375 95.703125 27.5 
L 95.703125 21.90625 
Q 91.296875 22.296875 83.09375 22.296875 
L 82.703125 4.09375 
Q 87.203125 4.09375 92.703125 4.5 
L 92.703125 -1 
Q 87.203125 -0.59375 82.59375 -0.59375 
Q 82.59375 -10.09375 79.796875 -12.796875 
Q 77 -15.5 65.59375 -15.90625 
Q 65.90625 -12.40625 62.90625 -8.703125 
Q 67.90625 -9.59375 71.15625 -9.59375 
Q 74.40625 -9.59375 75.65625 -7.59375 
Q 76.90625 -5.59375 77 -0.59375 
L 54.703125 -0.59375 
Q 44.09375 -0.59375 37.703125 -1.5 
L 39.296875 22.296875 
Q 35.09375 22.296875 29.5 21.90625 
L 29.5 27.5 
Q 33.5 27.09375 39.59375 27.09375 
z
M 45.09375 27.09375 
L 77.40625 27.09375 
L 77.703125 45.09375 
L 46.203125 45.09375 
z
M 68.90625 32.09375 
L 64.5 28.296875 
Q 61.40625 33.09375 54.203125 38.296875 
L 57.40625 42.09375 
Q 61.90625 39.296875 68.90625 32.09375 
z
M 77.40625 22.296875 
L 44.796875 22.296875 
L 43.703125 4.09375 
L 77.09375 4.09375 
z
M 68.5 9.296875 
L 64.203125 5.40625 
Q 61.09375 9.796875 53.90625 15.703125 
L 57.703125 19.40625 
Q 62.90625 15.5 68.5 9.296875 
z
M 26.796875 37.5 
L 22.90625 32.5 
Q 14.5 39.703125 4.59375 44 
L 7.703125 49.09375 
Q 17.09375 44.203125 26.796875 37.5 
z
M 28.203125 19.796875 
Q 21.203125 7.5 12.59375 -13.5 
Q 9.5 -10.5 5.796875 -9.09375 
Q 16.59375 6.796875 22.90625 23.703125 
Q 25.296875 20.796875 28.203125 19.796875 
z
" id="STXihei-28023"/>
      <path d="M 45.796875 62.09375 
Q 43.40625 67 39.09375 73.203125 
L 45 76.203125 
Q 49.703125 69.296875 52.296875 62.09375 
Q 82.796875 62.09375 93.796875 63.09375 
L 93.796875 55.90625 
Q 82.90625 56.90625 53 56.90625 
L 53 42.5 
Q 69.796875 42.5 83.09375 43.59375 
Q 82.703125 39.703125 82.703125 32 
L 82.703125 7.09375 
Q 82.703125 0.703125 78.953125 -0.84375 
Q 75.203125 -2.40625 65.703125 -2.5 
Q 65.90625 2.09375 63.203125 5.296875 
Q 69 4.40625 71.59375 4.40625 
Q 74.203125 4.40625 75.5 5.296875 
Q 76.796875 6.203125 76.796875 10.09375 
L 76.796875 37.5 
L 53 37.5 
L 53 0.59375 
Q 53 -6.5 54 -16.59375 
L 45.796875 -16.59375 
Q 46.796875 -7.90625 46.796875 0.59375 
L 46.796875 37.5 
L 23.59375 37.5 
L 23.59375 -2 
L 16.90625 -2 
Q 17.703125 4 17.703125 11.703125 
L 17.703125 32 
Q 17.703125 38.90625 17 43.59375 
Q 30 42.5 46.796875 42.5 
L 46.796875 56.90625 
Q 17.5 56.90625 6.203125 55.90625 
L 6.203125 63.09375 
Q 19 62.09375 45.796875 62.09375 
z
" id="STXihei-24066"/>
     </defs>
     <g transform="translate(106.12 66.689062)scale(0.1 -0.1)">
      <use xlink:href="#STXihei-19978"/>
      <use x="99.999985" xlink:href="#STXihei-28023"/>
      <use x="199.999969" xlink:href="#STXihei-24066"/>
     </g>
    </g>
    <g id="line2d_24">
     <path d="M 78.12 77.489062 
L 98.12 77.489062 
" style="fill:none;stroke:#2ca02c;stroke-linecap:square;stroke-width:1.5;"/>
    </g>
    <g id="line2d_25"/>
    <g id="text_18">
     <!-- 江苏省 -->
     <defs>
      <path d="M 32.59375 59 
L 28.09375 54.5 
Q 19.90625 62.203125 11.59375 67.40625 
L 15.296875 72.5 
Q 25 66 32.59375 59 
z
M 59.90625 58.296875 
Q 43.703125 58.296875 35.296875 57.40625 
L 35.296875 64.40625 
Q 44.796875 63.5 63.796875 63.5 
Q 82.796875 63.5 92.296875 64.40625 
L 92.296875 57.40625 
Q 83.296875 58.296875 66.09375 58.296875 
L 66.09375 -3 
Q 86.59375 -2.796875 95.796875 -2 
L 95.796875 -9.203125 
Q 84.796875 -8.296875 62.59375 -8.296875 
Q 40.40625 -8.296875 29 -9.203125 
L 29 -2 
Q 39 -3 59.90625 -3 
z
M 27.703125 34.796875 
L 23.296875 30.09375 
Q 15.703125 37.796875 5.703125 43.703125 
L 9.296875 49 
Q 18.90625 42.90625 27.703125 34.796875 
z
M 34.5 20.59375 
Q 26.5 7.59375 11.796875 -13.59375 
Q 9 -10.703125 5.203125 -8.59375 
Q 10.296875 -4.40625 18.25 7.046875 
Q 26.203125 18.5 29.09375 25.59375 
Q 31.09375 23.09375 34.5 20.59375 
z
" id="STXihei-27743"/>
      <path d="M 63.296875 62.296875 
Q 63.296875 69.59375 62.5 73.90625 
Q 64.5 73.40625 70.40625 73.40625 
Q 71.703125 73.40625 71.703125 72.796875 
Q 71.703125 72.203125 70.546875 71.453125 
Q 69.40625 70.703125 69.40625 67.40625 
L 69.40625 62.296875 
Q 84.40625 62.296875 94.40625 63.09375 
L 94.40625 56.40625 
Q 85.09375 57.09375 69.40625 57.296875 
L 69.40625 45.796875 
L 63.296875 45.796875 
L 63.296875 57.296875 
L 37.40625 57.296875 
L 37.40625 45.203125 
L 31.40625 45.203125 
L 31.40625 57.296875 
Q 14.5 57.296875 5.59375 56.40625 
L 5.59375 63.09375 
Q 13.40625 62.296875 31.40625 62.296875 
Q 31.40625 68.90625 30.703125 73.59375 
Q 33.5 73 38.296875 73 
Q 39.5 73 39.5 72.5 
Q 39.5 72 38.453125 70.796875 
Q 37.40625 69.59375 37.40625 66.90625 
L 37.40625 62.296875 
z
M 49.5 32.203125 
Q 48.796875 14.09375 41.796875 3.5 
Q 34.796875 -7.09375 19.203125 -15.40625 
Q 16.5 -12.296875 11.90625 -10.5 
Q 28.5 -4.40625 35.890625 5.390625 
Q 43.296875 15.203125 43.90625 32.203125 
Q 19.796875 32.203125 12.90625 31.296875 
L 12.90625 37.796875 
Q 21.5 36.90625 44.09375 36.90625 
Q 44.09375 43.40625 43.5 49.796875 
Q 45.796875 49.09375 51.5 49.09375 
Q 52.703125 49.09375 52.703125 48.34375 
Q 52.703125 47.59375 51.75 46.75 
Q 50.796875 45.90625 50.390625 44.046875 
Q 50 42.203125 49.703125 36.90625 
Q 69.296875 36.90625 77.703125 37.796875 
Q 76.40625 33.796875 75.796875 26.796875 
L 73.90625 3 
Q 73.40625 -3.296875 71.5 -6.546875 
Q 69.59375 -9.796875 65.140625 -11.296875 
Q 60.703125 -12.796875 51.90625 -13.296875 
Q 51.296875 -8.296875 48.09375 -5.09375 
Q 54.703125 -6.203125 58.890625 -6.203125 
Q 63.09375 -6.203125 65.25 -4.390625 
Q 67.40625 -2.59375 67.796875 3 
L 70.09375 32.203125 
z
M 24.296875 25.90625 
Q 27.296875 23.5 30.40625 22.703125 
Q 31.40625 22.5 31.40625 21.75 
Q 31.40625 21 30.34375 20.640625 
Q 29.296875 20.296875 26.75 16.75 
Q 24.203125 13.203125 17.5 2.203125 
Q 14.90625 4.40625 10.90625 5.09375 
Q 20.296875 14.703125 24.296875 25.90625 
z
M 96.703125 5.203125 
L 91.296875 1.5 
Q 84.796875 13.59375 77 21.296875 
L 81.59375 24.796875 
Q 89.703125 16.40625 96.703125 5.203125 
z
" id="STXihei-33487"/>
     </defs>
     <g transform="translate(106.12 80.989062)scale(0.1 -0.1)">
      <use xlink:href="#STXihei-27743"/>
      <use x="99.999985" xlink:href="#STXihei-33487"/>
      <use x="199.999969" xlink:href="#STXihei-30465"/>
     </g>
    </g>
    <g id="line2d_26">
     <path d="M 78.12 91.889063 
L 98.12 91.889063 
" style="fill:none;stroke:#d62728;stroke-linecap:square;stroke-width:1.5;"/>
    </g>
    <g id="line2d_27"/>
    <g id="text_19">
     <!-- 北京市 -->
     <defs>
      <path d="M 48 62.703125 
Q 45.40625 67.90625 40.703125 73.90625 
L 46.5 77.40625 
Q 50.703125 70.296875 54.59375 62.703125 
Q 79 62.703125 93.90625 63.5 
L 93.90625 57 
Q 77.59375 57.796875 50.4375 57.796875 
Q 23.296875 57.796875 7.09375 57 
L 7.09375 63.5 
Q 22.59375 62.703125 48 62.703125 
z
M 53.796875 22.09375 
L 53.796875 -7.296875 
Q 53.796875 -10.703125 52.6875 -12.34375 
Q 51.59375 -14 47.9375 -14.84375 
Q 44.296875 -15.703125 36.40625 -16 
Q 36.203125 -11.796875 33 -8.09375 
Q 38.796875 -9 41.890625 -9 
Q 45 -9 46.390625 -8.046875 
Q 47.796875 -7.09375 47.796875 -3.796875 
L 47.796875 22.09375 
Q 29.90625 22.09375 21.40625 21.703125 
Q 22 28.796875 22 35.890625 
Q 22 43 21.40625 50 
Q 33.09375 49.5 50.4375 49.5 
Q 67.796875 49.5 79.40625 50 
Q 79.09375 42.59375 79.09375 34.75 
Q 79.09375 26.90625 79.40625 21.796875 
Q 69.90625 22.09375 53.796875 22.09375 
z
M 73 27.09375 
L 73 44.40625 
L 28.203125 44.40625 
L 28.203125 27.09375 
z
M 29.5 18.203125 
Q 31.796875 15.59375 34.09375 14.59375 
Q 35.59375 13.90625 35.59375 13.25 
Q 35.59375 12.59375 33.796875 12 
Q 32.40625 11.5 27.703125 6.796875 
Q 20.203125 -0.703125 11.59375 -7.203125 
Q 9.90625 -3.90625 6.40625 -2.203125 
Q 20.90625 5.796875 29.5 18.203125 
z
M 90.90625 -2.203125 
L 85.703125 -7.09375 
Q 75.40625 4.5 64.40625 12.5 
L 68.40625 16.90625 
Q 81.5 6.296875 90.90625 -2.203125 
z
" id="STXihei-20140"/>
     </defs>
     <g transform="translate(106.12 95.389063)scale(0.1 -0.1)">
      <use xlink:href="#STXihei-21271"/>
      <use x="99.999985" xlink:href="#STXihei-20140"/>
      <use x="199.999969" xlink:href="#STXihei-24066"/>
     </g>
    </g>
    <g id="line2d_28">
     <path d="M 78.12 106.257812 
L 98.12 106.257812 
" style="fill:none;stroke:#9467bd;stroke-linecap:square;stroke-width:1.5;"/>
    </g>
    <g id="line2d_29"/>
    <g id="text_20">
     <!-- 天津市 -->
     <defs>
      <path d="M 55.796875 32.5 
Q 41.296875 32.5 35.296875 31.703125 
L 35.296875 37.796875 
Q 42.5 36.90625 55.796875 36.90625 
L 55.796875 45.90625 
L 45.09375 45.90625 
Q 35.5 45.90625 28.296875 45.203125 
L 28.296875 51.09375 
Q 36.296875 50.5 45.296875 50.5 
L 55.796875 50.5 
L 55.796875 59.5 
Q 41.296875 59.5 34.796875 58.796875 
L 34.796875 64.796875 
Q 41.90625 64 55.796875 64 
Q 55.703125 74 55 77.09375 
Q 58.59375 76.40625 62.59375 76.40625 
Q 63.796875 76.40625 63.796875 75.703125 
Q 63.796875 75 63 73.796875 
Q 62.203125 72.59375 62.203125 71.203125 
L 62.203125 64 
Q 79.296875 64 85.796875 64.796875 
Q 85 61.09375 85 50.5 
Q 92 50.5 96.296875 51.09375 
L 96.296875 45.40625 
Q 92.703125 45.90625 85 45.90625 
Q 85 37.09375 85.703125 31.703125 
Q 78.40625 32.5 62.203125 32.5 
L 62.203125 22.5 
Q 82.59375 22.5 89.296875 23.296875 
L 89.296875 17.09375 
Q 82.59375 17.90625 62.203125 17.90625 
L 62.203125 8 
Q 84.296875 8 95.40625 8.703125 
L 95.40625 2.5 
Q 84.296875 3.203125 62.203125 3.203125 
Q 62.203125 -8.796875 62.796875 -15.90625 
L 55.203125 -15.90625 
Q 55.796875 -9.09375 55.796875 3.203125 
Q 35.90625 3.203125 25.59375 2.5 
L 25.59375 8.703125 
Q 35.90625 8 55.796875 8 
L 55.796875 17.90625 
Q 41.203125 17.703125 32.40625 17.09375 
L 32.40625 23.296875 
Q 39.59375 22.5 55.796875 22.5 
z
M 78.59375 50.5 
L 78.59375 59.5 
L 62.203125 59.5 
L 62.203125 50.5 
z
M 62.203125 36.90625 
L 78.59375 36.90625 
L 78.59375 45.90625 
L 62.203125 45.90625 
z
M 29.90625 61.59375 
L 25.703125 56.59375 
Q 19.796875 62.09375 8.5 67.90625 
L 11.59375 73 
Q 21.203125 67.703125 29.90625 61.59375 
z
M 25.703125 36.59375 
L 21.703125 31.703125 
Q 15.09375 38.296875 4.296875 44 
L 7.40625 49 
Q 18.296875 42.703125 25.703125 36.59375 
z
M 27.5 17.59375 
Q 19.796875 3.203125 11.296875 -13.796875 
Q 8 -11.09375 4.203125 -10.09375 
Q 13.40625 0.40625 21.40625 21.40625 
Q 23.796875 18.5 27.5 17.59375 
z
" id="STXihei-27941"/>
     </defs>
     <g transform="translate(106.12 109.757812)scale(0.1 -0.1)">
      <use xlink:href="#STXihei-22825"/>
      <use x="99.999985" xlink:href="#STXihei-27941"/>
      <use x="199.999969" xlink:href="#STXihei-24066"/>
     </g>
    </g>
    <g id="line2d_30">
     <path d="M 78.12 120.557813 
L 98.12 120.557813 
" style="fill:none;stroke:#8c564b;stroke-linecap:square;stroke-width:1.5;"/>
    </g>
    <g id="line2d_31"/>
    <g id="text_21">
     <!-- 广东省 -->
     <defs>
      <path d="M 62 63.59375 
L 56.5 59.796875 
Q 52.59375 66.796875 46.703125 72.703125 
L 51.296875 76.5 
Q 57.5 70.296875 62 63.59375 
z
M 94.203125 53.09375 
Q 87.09375 53.703125 68.09375 53.703125 
L 26.296875 53.703125 
Q 26.90625 42.40625 26.90625 34.09375 
Q 26.90625 16.59375 24.25 6.09375 
Q 21.59375 -4.40625 14.59375 -15.09375 
Q 11.5 -12 7.5 -11.59375 
Q 14.796875 -4 17.84375 6.953125 
Q 20.90625 17.90625 20.90625 35.296875 
Q 20.90625 45.90625 19.796875 59.59375 
Q 26 58.90625 57.453125 58.90625 
Q 88.90625 58.90625 94.203125 59.59375 
z
" id="STXihei-24191"/>
      <path d="M 36.90625 55.703125 
Q 18 55.703125 7.796875 54.90625 
L 7.796875 61.703125 
Q 18 60.90625 39.59375 60.90625 
Q 42.703125 67.296875 45.09375 75 
Q 49.09375 72.703125 51.75 72.453125 
Q 54.40625 72.203125 54.40625 71.390625 
Q 54.40625 70.59375 53.15625 70.09375 
Q 51.90625 69.59375 50.703125 67.84375 
Q 49.5 66.09375 46.59375 60.90625 
L 72.296875 60.90625 
Q 82.40625 60.90625 92.59375 61.703125 
L 92.59375 54.90625 
Q 82.40625 55.703125 72.296875 55.703125 
L 43.59375 55.703125 
Q 38.296875 46.59375 25.703125 30 
L 50.59375 30 
L 50.59375 36.90625 
Q 50.59375 45.90625 50.203125 48.203125 
Q 53.703125 47.40625 56.5 47.40625 
Q 59.296875 47.40625 59.296875 46.75 
Q 59.296875 46.09375 58.40625 45.5 
Q 56.5 44.09375 56.5 41.796875 
L 56.5 30 
Q 79.703125 30 86.5 30.703125 
L 86.5 24.09375 
Q 77.09375 25 56.5 25 
L 56.5 -6 
Q 56.5 -9.5 55.5 -11.203125 
Q 54.5 -12.90625 51.046875 -13.84375 
Q 47.59375 -14.796875 40 -15.296875 
Q 39.59375 -10.796875 36.5 -7.09375 
Q 42.296875 -7.90625 45.140625 -7.90625 
Q 48 -7.90625 49.296875 -7.203125 
Q 50.59375 -6.5 50.59375 -4 
L 50.59375 25 
Q 33.40625 25 26.34375 24.703125 
Q 19.296875 24.40625 17.59375 23.5 
Q 17.59375 26.90625 15.796875 30 
Q 18 30.40625 20.046875 32.046875 
Q 22.09375 33.703125 27.890625 41.890625 
Q 33.703125 50.09375 36.90625 55.703125 
z
M 31 18.59375 
Q 34.09375 15.59375 37 14.203125 
Q 38 13.703125 38 13.09375 
Q 38 12.5 36.890625 12.34375 
Q 35.796875 12.203125 33.890625 10.84375 
Q 32 9.5 30.796875 8.09375 
Q 21.5 -3 9.90625 -11 
Q 7.59375 -7.203125 4.296875 -5.59375 
Q 18.59375 0.796875 31 18.59375 
z
M 95.09375 -4.09375 
L 90.203125 -9.203125 
Q 79 2.5 64.703125 11.796875 
L 68.703125 17 
Q 82.90625 7 95.09375 -4.09375 
z
" id="STXihei-19996"/>
     </defs>
     <g transform="translate(106.12 124.057813)scale(0.1 -0.1)">
      <use xlink:href="#STXihei-24191"/>
      <use x="99.999985" xlink:href="#STXihei-19996"/>
      <use x="199.999969" xlink:href="#STXihei-30465"/>
     </g>
    </g>
   </g>
  </g>
 </g>
 <defs>
  <clipPath id="pbf5a3373ce">
   <rect height="259.2" width="478.08" x="69.12" y="36"/>
  </clipPath>
 </defs>
</svg>
