<?xml version="1.0" encoding="utf-8" standalone="no"?>
<!DOCTYPE svg PUBLIC "-//W3C//DTD SVG 1.1//EN"
  "http://www.w3.org/Graphics/SVG/1.1/DTD/svg11.dtd">
<!-- Created with matplotlib (https://matplotlib.org/) -->
<svg height="216pt" version="1.1" viewBox="0 0 576 216" width="576pt" xmlns="http://www.w3.org/2000/svg" xmlns:xlink="http://www.w3.org/1999/xlink">
 <defs>
  <style type="text/css">
*{stroke-linecap:butt;stroke-linejoin:round;}
  </style>
 </defs>
 <g id="figure_1">
  <g id="patch_1">
   <path d="M 0 216 
L 576 216 
L 576 0 
L 0 0 
z
" style="fill:#ffffff;"/>
  </g>
  <g id="axes_1">
   <g id="patch_2">
    <path d="M 69.12 172.8 
L 218.52 172.8 
L 218.52 43.2 
L 69.12 43.2 
z
" style="fill:#ffffff;"/>
   </g>
   <g id="matplotlib.axis_1">
    <g id="xtick_1">
     <g id="line2d_1">
      <defs>
       <path d="M 0 0 
L 0 3.5 
" id="m355da2f329" style="stroke:#000000;stroke-width:0.8;"/>
      </defs>
      <g>
       <use style="stroke:#000000;stroke-width:0.8;" x="69.12" xlink:href="#m355da2f329" y="172.8"/>
      </g>
     </g>
     <g id="text_1">
      <!-- 0 -->
      <defs>
       <path d="M 27.296875 -1.796875 
Q 15.703125 -1.796875 9.453125 7.75 
Q 3.203125 17.296875 3.203125 35.90625 
Q 3.203125 54.5 9.453125 64.046875 
Q 15.703125 73.59375 27.296875 73.59375 
Q 38.703125 73.59375 45.453125 63.84375 
Q 52.203125 54.09375 52.203125 35.90625 
Q 52.203125 17.703125 45.390625 7.953125 
Q 38.59375 -1.796875 27.296875 -1.796875 
z
M 27.5 66.796875 
Q 19.203125 66.796875 14.59375 58.796875 
Q 10 50.796875 10 35.703125 
Q 10 4.703125 27.5 4.703125 
Q 36 4.703125 40.75 12.84375 
Q 45.5 21 45.5 35.703125 
Q 45.5 50.796875 40.59375 58.796875 
Q 35.703125 66.796875 27.5 66.796875 
z
" id="STXihei-48"/>
      </defs>
      <g transform="translate(66.349688 187.159375)scale(0.1 -0.1)">
       <use xlink:href="#STXihei-48"/>
      </g>
     </g>
    </g>
    <g id="xtick_2">
     <g id="line2d_2">
      <g>
       <use style="stroke:#000000;stroke-width:0.8;" x="106.47" xlink:href="#m355da2f329" y="172.8"/>
      </g>
     </g>
     <g id="text_2">
      <!-- 100 -->
      <defs>
       <path d="M 18.5 71.796875 
L 32.59375 71.796875 
L 32.59375 0 
L 25.5 0 
L 25.5 64.796875 
L 14.203125 64.796875 
z
" id="STXihei-49"/>
      </defs>
      <g transform="translate(98.159063 187.159375)scale(0.1 -0.1)">
       <use xlink:href="#STXihei-49"/>
       <use x="55.399994" xlink:href="#STXihei-48"/>
       <use x="110.799988" xlink:href="#STXihei-48"/>
      </g>
     </g>
    </g>
    <g id="xtick_3">
     <g id="line2d_3">
      <g>
       <use style="stroke:#000000;stroke-width:0.8;" x="143.82" xlink:href="#m355da2f329" y="172.8"/>
      </g>
     </g>
     <g id="text_3">
      <!-- 200 -->
      <defs>
       <path d="M 11.59375 49.296875 
L 4.703125 49.296875 
Q 5.203125 60.296875 12 66.9375 
Q 18.796875 73.59375 28.59375 73.59375 
Q 38.09375 73.59375 44.4375 67.34375 
Q 50.796875 61.09375 50.796875 52.09375 
Q 50.796875 45.40625 47.25 39.703125 
Q 43.703125 34 36.5 26.203125 
L 18.59375 6.90625 
L 51.796875 6.90625 
L 51.796875 0 
L 3 0 
L 30.40625 29.59375 
Q 37.59375 37.40625 40.6875 41.90625 
Q 43.796875 46.40625 43.796875 52 
Q 43.796875 58 39.25 62.390625 
Q 34.703125 66.796875 28.203125 66.796875 
Q 21.203125 66.796875 16.75 62.25 
Q 12.296875 57.703125 11.59375 49.296875 
z
" id="STXihei-50"/>
      </defs>
      <g transform="translate(135.509062 187.159375)scale(0.1 -0.1)">
       <use xlink:href="#STXihei-50"/>
       <use x="55.399994" xlink:href="#STXihei-48"/>
       <use x="110.799988" xlink:href="#STXihei-48"/>
      </g>
     </g>
    </g>
    <g id="xtick_4">
     <g id="line2d_4">
      <g>
       <use style="stroke:#000000;stroke-width:0.8;" x="181.17" xlink:href="#m355da2f329" y="172.8"/>
      </g>
     </g>
     <g id="text_4">
      <!-- 300 -->
      <defs>
       <path d="M 13.203125 55.203125 
L 5.90625 55.203125 
Q 7.90625 64.09375 13.546875 68.84375 
Q 19.203125 73.59375 27 73.59375 
Q 35.5 73.59375 41.546875 68.1875 
Q 47.59375 62.796875 47.59375 55.09375 
Q 47.59375 45.796875 38.40625 40.40625 
Q 44.703125 37.796875 48.140625 32.640625 
Q 51.59375 27.5 51.59375 21.40625 
Q 51.59375 11.90625 44.640625 5.046875 
Q 37.703125 -1.796875 27.09375 -1.796875 
Q 17.703125 -1.796875 11.59375 3.546875 
Q 5.5 8.90625 3.5 19.203125 
L 10.5 19.203125 
Q 12.40625 12.09375 16.34375 8.640625 
Q 20.296875 5.203125 27.203125 5.203125 
Q 34.703125 5.203125 39.59375 9.796875 
Q 44.5 14.40625 44.5 20.796875 
Q 44.5 28 39.09375 32.140625 
Q 33.703125 36.296875 23.40625 36.5 
L 23.40625 43.09375 
Q 30.796875 43.09375 35.4375 46.5 
Q 40.09375 49.90625 40.09375 55.09375 
Q 40.09375 60 36.34375 63.34375 
Q 32.59375 66.703125 27 66.703125 
Q 22 66.703125 18.75 63.84375 
Q 15.5 61 13.203125 55.203125 
z
" id="STXihei-51"/>
      </defs>
      <g transform="translate(172.859062 187.159375)scale(0.1 -0.1)">
       <use xlink:href="#STXihei-51"/>
       <use x="55.399994" xlink:href="#STXihei-48"/>
       <use x="110.799988" xlink:href="#STXihei-48"/>
      </g>
     </g>
    </g>
    <g id="xtick_5">
     <g id="line2d_5">
      <g>
       <use style="stroke:#000000;stroke-width:0.8;" x="218.52" xlink:href="#m355da2f329" y="172.8"/>
      </g>
     </g>
     <g id="text_5">
      <!-- 400 -->
      <defs>
       <path d="M 42.59375 73.59375 
L 44 73.59375 
L 44 23.59375 
L 52.703125 23.59375 
L 52.703125 16.703125 
L 44 16.703125 
L 44 0 
L 36.90625 0 
L 36.90625 16.703125 
L 2.5 16.703125 
z
M 36.90625 23.59375 
L 36.90625 53.5 
L 15.703125 23.59375 
z
" id="STXihei-52"/>
      </defs>
      <g transform="translate(210.209062 187.159375)scale(0.1 -0.1)">
       <use xlink:href="#STXihei-52"/>
       <use x="55.399994" xlink:href="#STXihei-48"/>
       <use x="110.799988" xlink:href="#STXihei-48"/>
      </g>
     </g>
    </g>
    <g id="text_6">
     <!-- 时间（天） -->
     <defs>
      <path d="M 74.59375 51.09375 
Q 74.59375 70.59375 73.5 76 
Q 76.09375 75.296875 81.296875 75.296875 
Q 83 75.296875 83 74.5 
Q 83 73.703125 81.84375 73.046875 
Q 80.703125 72.40625 80.703125 69.09375 
L 80.703125 51.09375 
Q 89.09375 51.203125 96 51.90625 
L 96 45.203125 
Q 90.59375 45.90625 80.703125 45.90625 
L 80.703125 -3.703125 
Q 80.703125 -8.40625 79.25 -10.90625 
Q 77.796875 -13.40625 73.296875 -14.59375 
Q 68.796875 -15.796875 59.5 -15.796875 
Q 59.5 -11.09375 55.90625 -7.296875 
Q 62.59375 -8.40625 66.640625 -8.40625 
Q 70.703125 -8.40625 72.640625 -6.796875 
Q 74.59375 -5.203125 74.59375 -0.296875 
L 74.59375 46 
L 61.796875 46 
Q 50.90625 46 42.90625 45.203125 
L 42.90625 51.90625 
Q 50.796875 51.09375 61.796875 51.09375 
z
M 15.09375 4.203125 
L 15.09375 -7.59375 
L 8.296875 -7.59375 
Q 9 -1.90625 9 6.703125 
L 9 56.59375 
Q 9 64.59375 8.40625 67.703125 
Q 11.59375 66.90625 24.75 66.90625 
Q 37.90625 66.90625 41.09375 67.703125 
Q 40.5 65.09375 40.5 56.59375 
L 40.5 8.09375 
Q 40.5 1.703125 41.203125 -5.09375 
L 34.296875 -5.09375 
L 34.296875 4.203125 
z
M 34.296875 37.296875 
L 34.296875 61.796875 
L 15.09375 61.796875 
L 15.09375 37.296875 
z
M 34.296875 8.90625 
L 34.296875 32.59375 
L 15.09375 32.59375 
L 15.09375 8.90625 
z
M 68.09375 16.796875 
L 62.296875 13 
Q 57.296875 23.40625 48.296875 32.90625 
L 53.40625 36.296875 
Q 62.796875 25.296875 68.09375 16.796875 
z
" id="STXihei-26102"/>
      <path d="M 34 62.59375 
L 29 57.796875 
Q 24.203125 64.90625 14.796875 71.40625 
L 18.59375 75.796875 
Q 27.796875 69.09375 34 62.59375 
z
M 87.90625 67.703125 
Q 87.203125 64.09375 87.203125 56.40625 
L 87.203125 -4.703125 
Q 87.203125 -9.796875 86.046875 -12.140625 
Q 84.90625 -14.5 81.84375 -15.34375 
Q 78.796875 -16.203125 72.09375 -16.40625 
Q 72.40625 -12.296875 69.40625 -8.90625 
Q 74 -9.703125 76.5 -9.703125 
Q 79 -9.703125 80.140625 -8.796875 
Q 81.296875 -7.90625 81.296875 -5 
L 81.296875 61.796875 
L 62.203125 61.796875 
Q 51.5 61.796875 43.796875 61.203125 
L 43.796875 67.59375 
Q 51.296875 67 66.6875 67 
Q 82.09375 67 87.90625 67.703125 
z
M 11.796875 58 
Q 14.296875 57.09375 15.1875 56.9375 
Q 16.09375 56.796875 18.4375 56.796875 
Q 20.796875 56.796875 20.796875 56.046875 
Q 20.796875 55.296875 19.296875 54.09375 
Q 18.90625 53.796875 18.5 51.796875 
Q 18.09375 49.796875 18.09375 47.5 
L 18.09375 -16.296875 
L 11.296875 -16.296875 
Q 12.296875 -7.296875 12.296875 -2.40625 
L 12.296875 45.40625 
Q 12.296875 51.90625 11.796875 58 
z
M 68.703125 2.59375 
Q 63.203125 3.296875 49.140625 3.296875 
Q 35.09375 3.296875 29.703125 2.59375 
Q 30 7.09375 30 8.796875 
L 30 41.5 
Q 30 44.5 29.703125 47.703125 
Q 35 47 49.09375 47 
Q 63.203125 47 68.703125 47.703125 
Q 68.40625 45.203125 68.40625 41.5 
L 68.40625 8.796875 
Q 68.40625 5.203125 68.703125 2.59375 
z
M 62.59375 27.296875 
L 62.59375 42.203125 
L 35.59375 42.203125 
L 35.59375 27.296875 
z
M 35.59375 22.59375 
L 35.59375 7.796875 
L 62.59375 7.796875 
L 62.59375 22.59375 
z
" id="STXihei-38388"/>
      <path d="M 90.40625 70.59375 
Q 81.703125 60.796875 77.5 51.6875 
Q 73.296875 42.59375 73.296875 33 
Q 73.296875 16.203125 77.34375 7.453125 
Q 81.40625 -1.296875 89.90625 -10.296875 
L 86 -14.203125 
Q 76.40625 -4.796875 71.65625 6.25 
Q 66.90625 17.296875 66.90625 32.90625 
Q 66.90625 43.203125 72.046875 54.34375 
Q 77.203125 65.5 86.796875 74.09375 
z
" id="STXihei-65288"/>
      <path d="M 47.90625 62.203125 
Q 25.90625 62.203125 15.203125 61.40625 
L 15.203125 67.90625 
Q 23.703125 67.09375 51.046875 67.09375 
Q 78.40625 67.09375 86.203125 67.90625 
L 86.203125 61.40625 
Q 78.40625 62.203125 53.796875 62.203125 
Q 54.203125 46.90625 52.296875 35.40625 
Q 84.40625 35.40625 92.796875 36.203125 
L 92.796875 29.59375 
Q 84.90625 30.40625 55 30.40625 
Q 60.203125 17.90625 70.84375 7.34375 
Q 81.5 -3.203125 94.09375 -8.203125 
Q 90.09375 -9.90625 87.796875 -14.59375 
Q 57.59375 6.09375 50.59375 28.09375 
Q 47 14.59375 37.953125 4.296875 
Q 28.90625 -6 11.703125 -15.90625 
Q 10.09375 -12.59375 5.796875 -10.203125 
Q 22.40625 -2.796875 31.75 6.953125 
Q 41.09375 16.703125 44.796875 30.40625 
Q 18.5 30.40625 8.09375 29.59375 
L 8.09375 36.203125 
Q 15.90625 35.40625 46 35.40625 
Q 48.40625 46.796875 47.90625 62.203125 
z
" id="STXihei-22825"/>
      <path d="M 13.203125 74.09375 
Q 22.796875 65.5 27.9375 54.34375 
Q 33.09375 43.203125 33.09375 32.90625 
Q 33.09375 17.296875 28.34375 6.25 
Q 23.59375 -4.796875 14 -14.203125 
L 10.09375 -10.296875 
Q 18.59375 -1.296875 22.640625 7.453125 
Q 26.703125 16.203125 26.703125 33 
Q 26.703125 42.59375 22.5 51.6875 
Q 18.296875 60.796875 9.59375 70.59375 
z
" id="STXihei-65289"/>
     </defs>
     <g transform="translate(106.32 210.139063)scale(0.15 -0.15)">
      <use xlink:href="#STXihei-26102"/>
      <use x="99.999985" xlink:href="#STXihei-38388"/>
      <use x="199.999969" xlink:href="#STXihei-65288"/>
      <use x="299.999954" xlink:href="#STXihei-22825"/>
      <use x="399.999939" xlink:href="#STXihei-65289"/>
     </g>
    </g>
   </g>
   <g id="matplotlib.axis_2">
    <g id="ytick_1">
     <g id="line2d_6">
      <defs>
       <path d="M 0 0 
L -3.5 0 
" id="mcc8a260471" style="stroke:#000000;stroke-width:0.8;"/>
      </defs>
      <g>
       <use style="stroke:#000000;stroke-width:0.8;" x="69.12" xlink:href="#mcc8a260471" y="172.8"/>
      </g>
     </g>
     <g id="text_7">
      <!-- 0 -->
      <g transform="translate(56.579375 176.479688)scale(0.1 -0.1)">
       <use xlink:href="#STXihei-48"/>
      </g>
     </g>
    </g>
    <g id="ytick_2">
     <g id="line2d_7">
      <g>
       <use style="stroke:#000000;stroke-width:0.8;" x="69.12" xlink:href="#mcc8a260471" y="151.2"/>
      </g>
     </g>
     <g id="text_8">
      <!-- 1 -->
      <g transform="translate(56.579375 154.879688)scale(0.1 -0.1)">
       <use xlink:href="#STXihei-49"/>
      </g>
     </g>
    </g>
    <g id="ytick_3">
     <g id="line2d_8">
      <g>
       <use style="stroke:#000000;stroke-width:0.8;" x="69.12" xlink:href="#mcc8a260471" y="129.6"/>
      </g>
     </g>
     <g id="text_9">
      <!-- 2 -->
      <g transform="translate(56.579375 133.279688)scale(0.1 -0.1)">
       <use xlink:href="#STXihei-50"/>
      </g>
     </g>
    </g>
    <g id="ytick_4">
     <g id="line2d_9">
      <g>
       <use style="stroke:#000000;stroke-width:0.8;" x="69.12" xlink:href="#mcc8a260471" y="108"/>
      </g>
     </g>
     <g id="text_10">
      <!-- 3 -->
      <g transform="translate(56.579375 111.679688)scale(0.1 -0.1)">
       <use xlink:href="#STXihei-51"/>
      </g>
     </g>
    </g>
    <g id="ytick_5">
     <g id="line2d_10">
      <g>
       <use style="stroke:#000000;stroke-width:0.8;" x="69.12" xlink:href="#mcc8a260471" y="86.4"/>
      </g>
     </g>
     <g id="text_11">
      <!-- 4 -->
      <g transform="translate(56.579375 90.079688)scale(0.1 -0.1)">
       <use xlink:href="#STXihei-52"/>
      </g>
     </g>
    </g>
    <g id="ytick_6">
     <g id="line2d_11">
      <g>
       <use style="stroke:#000000;stroke-width:0.8;" x="69.12" xlink:href="#mcc8a260471" y="64.8"/>
      </g>
     </g>
     <g id="text_12">
      <!-- 5 -->
      <defs>
       <path d="M 49.203125 71.796875 
L 49.203125 65 
L 23.59375 65 
L 20 45.40625 
Q 24.796875 46.796875 29 46.796875 
Q 38.40625 46.796875 44.703125 40.140625 
Q 51 33.5 51 23.296875 
Q 51 12.703125 44.140625 5.453125 
Q 37.296875 -1.796875 26 -1.796875 
Q 17.40625 -1.796875 11.34375 3.34375 
Q 5.296875 8.5 4.09375 17.40625 
L 11.40625 17.40625 
Q 12.703125 11.40625 16.796875 8.203125 
Q 20.90625 5 26.296875 5 
Q 33.40625 5 38.546875 10.296875 
Q 43.703125 15.59375 43.703125 23.5 
Q 43.703125 30.703125 39.203125 35.34375 
Q 34.703125 40 27 40 
Q 20.203125 40 11.40625 36.203125 
L 18.09375 71.796875 
z
" id="STXihei-53"/>
      </defs>
      <g transform="translate(56.579375 68.479688)scale(0.1 -0.1)">
       <use xlink:href="#STXihei-53"/>
      </g>
     </g>
    </g>
    <g id="ytick_7">
     <g id="line2d_12">
      <g>
       <use style="stroke:#000000;stroke-width:0.8;" x="69.12" xlink:href="#mcc8a260471" y="43.2"/>
      </g>
     </g>
     <g id="text_13">
      <!-- 6 -->
      <defs>
       <path d="M 36.703125 73.59375 
L 42.59375 69.796875 
L 23.203125 40.40625 
Q 27.296875 41.796875 31 41.796875 
Q 39 41.796875 45 35.4375 
Q 51 29.09375 51 20.09375 
Q 51 10.796875 44.453125 4.5 
Q 37.90625 -1.796875 28.5 -1.796875 
Q 19.203125 -1.796875 12.953125 4.59375 
Q 6.703125 11 6.703125 20.203125 
Q 6.703125 24.59375 8.390625 29.25 
Q 10.09375 33.90625 14.90625 41.09375 
z
M 43.90625 20.296875 
Q 43.90625 26.59375 39.5 31 
Q 35.09375 35.40625 28.796875 35.40625 
Q 22.5 35.40625 18.09375 31 
Q 13.703125 26.59375 13.703125 20.296875 
Q 13.703125 14 18.140625 9.59375 
Q 22.59375 5.203125 28.796875 5.203125 
Q 35 5.203125 39.453125 9.59375 
Q 43.90625 14 43.90625 20.296875 
z
" id="STXihei-54"/>
      </defs>
      <g transform="translate(56.579375 46.879687)scale(0.1 -0.1)">
       <use xlink:href="#STXihei-54"/>
      </g>
     </g>
    </g>
    <g id="text_14">
     <!-- 感染者（%） -->
     <defs>
      <path d="M 82.40625 68 
L 77.703125 63.796875 
Q 74.5 68.90625 68.203125 72.09375 
L 72.40625 76.59375 
Q 78.796875 71.90625 82.40625 68 
z
M 56.59375 58.5 
L 19.203125 58.5 
Q 19.203125 40.703125 17.703125 30.84375 
Q 16.203125 21 11.5 11.203125 
Q 8.59375 13.40625 4.703125 14.203125 
Q 9.40625 20.296875 11.453125 28.25 
Q 13.5 36.203125 13.5 49 
Q 13.5 55.5 13 64 
Q 15.90625 63.296875 56.09375 63.296875 
Q 55.59375 68.796875 55.40625 76 
Q 58.5 74.90625 62.703125 74.90625 
Q 64.203125 74.90625 64.203125 74.046875 
Q 64.203125 73.203125 63.34375 72.59375 
Q 62.5 72 62.203125 71 
Q 61.90625 70 61.90625 68 
Q 61.90625 66 62 63.296875 
Q 84.40625 63.296875 87.90625 64 
L 87.90625 57.796875 
Q 80.296875 58.5 62.296875 58.5 
Q 63.5 46.59375 69.296875 34.90625 
Q 75.09375 42.90625 78.09375 51.59375 
Q 81.40625 49.09375 84.40625 48.09375 
Q 85.40625 47.796875 85.40625 47.140625 
Q 85.40625 46.5 83.796875 45.84375 
Q 82.203125 45.203125 79.796875 41.40625 
Q 75.59375 34.59375 72 30 
Q 75.703125 23.90625 78.703125 21.25 
Q 81.703125 18.59375 83.546875 18.59375 
Q 85.40625 18.59375 86.296875 20.84375 
Q 87.203125 23.09375 87.59375 27.703125 
Q 90 24.703125 93.59375 24.09375 
Q 92.40625 19.703125 90.453125 16.046875 
Q 88.5 12.40625 85.09375 12.40625 
Q 76.59375 12.40625 68.09375 25 
Q 62.796875 18.203125 55.90625 11.703125 
Q 53.90625 13.90625 50.09375 15.09375 
Q 57.203125 20.296875 65.296875 29.59375 
Q 58.90625 41.09375 56.59375 58.5 
z
M 23.5 51 
Q 29.09375 50.40625 38.796875 50.40625 
Q 48.5 50.40625 54 51 
L 54 45.203125 
Q 49.703125 45.796875 38.75 45.796875 
Q 27.796875 45.796875 23.5 45.203125 
z
M 52.40625 39 
Q 51.796875 33.59375 51.796875 28.4375 
Q 51.796875 23.296875 52.296875 18.796875 
Q 48.40625 19.203125 38.75 19.203125 
Q 29.09375 19.203125 24.90625 18.796875 
Q 25.59375 24.703125 25.59375 30 
Q 25.59375 35.296875 24.90625 39 
Q 30.40625 38.296875 38.59375 38.296875 
Q 46.796875 38.296875 52.40625 39 
z
M 46.40625 23.40625 
L 46.40625 34.09375 
L 31 34.09375 
L 31 23.40625 
z
M 59 4.09375 
L 54.59375 -0.203125 
Q 47.90625 7.09375 41.5 11.40625 
L 45.5 15.703125 
Q 52.703125 10.703125 59 4.09375 
z
M 74.5 -1.5 
Q 73.296875 -6.59375 71 -9.09375 
Q 68.703125 -11.59375 63.84375 -12.4375 
Q 59 -13.296875 48.140625 -13.296875 
Q 37.296875 -13.296875 34.140625 -12.640625 
Q 31 -12 29.84375 -10.09375 
Q 28.703125 -8.203125 28.703125 -4.40625 
L 28.703125 7.59375 
Q 28.703125 11.90625 28.296875 13.40625 
Q 31 12.5 35.40625 12.5 
Q 36.796875 12.5 36.796875 11.84375 
Q 36.796875 11.203125 35.75 10.25 
Q 34.703125 9.296875 34.703125 6.90625 
L 34.703125 -4 
Q 34.703125 -6.296875 37.046875 -7.1875 
Q 39.40625 -8.09375 48.59375 -8.09375 
Q 55.203125 -8.09375 59.890625 -7.34375 
Q 64.59375 -6.59375 66.296875 -4.6875 
Q 68 -2.796875 68.296875 2.703125 
Q 70.796875 -0.59375 74.5 -1.5 
z
M 23 9.296875 
Q 18.59375 -2.59375 12.5 -11.5 
L 6.296875 -8.296875 
Q 14.296875 0.09375 17.203125 11.40625 
z
M 93.90625 -5.90625 
L 88.5 -10.5 
Q 81.90625 -1 73.296875 5.90625 
L 77.703125 10.296875 
Q 86.5 3.40625 93.90625 -5.90625 
z
" id="STXihei-24863"/>
      <path d="M 61.5 56.40625 
Q 60.5 48.09375 55.640625 41.34375 
Q 50.796875 34.59375 40.90625 27.203125 
Q 39.09375 30.59375 34.90625 31.90625 
Q 53.703125 40.796875 56 56.09375 
Q 46.40625 55.703125 40.5 54.59375 
L 40.5 60.59375 
Q 43.5 60.40625 47.296875 60.40625 
Q 51.09375 60.40625 56.5 60.703125 
Q 56.703125 63.796875 56.703125 67.34375 
Q 56.703125 70.90625 55.796875 76.296875 
Q 58.40625 75.703125 63 75.703125 
Q 64.796875 75.703125 64.796875 74.890625 
Q 64.796875 74.09375 63.9375 73.1875 
Q 63.09375 72.296875 62.6875 70 
Q 62.296875 67.703125 61.90625 61 
Q 76 61.90625 81.59375 62.5 
L 79.796875 38 
Q 79.59375 35.09375 80.25 34.140625 
Q 80.90625 33.203125 83.59375 33.203125 
Q 86.296875 33.203125 87.75 34.640625 
Q 89.203125 36.09375 90 40.90625 
Q 91.796875 37.90625 95.296875 37.203125 
Q 93.796875 32.90625 92.4375 31.09375 
Q 91.09375 29.296875 88.890625 28.6875 
Q 86.703125 28.09375 81.953125 28.09375 
Q 77.203125 28.09375 75.703125 29.5 
Q 74.203125 30.90625 74.203125 34.5 
Q 74.203125 34.796875 74.40625 38 
L 75.59375 57.09375 
z
M 38.09375 63.59375 
L 34.796875 58.703125 
Q 27.59375 64.703125 17.5 69.703125 
L 20.40625 74.203125 
Q 29.703125 69.703125 38.09375 63.59375 
z
M 29.703125 51.703125 
L 26.703125 47.203125 
Q 20.40625 51.59375 9.90625 55.59375 
L 12.203125 60.296875 
Q 20.796875 56.90625 29.703125 51.703125 
z
M 38 42.296875 
Q 24.90625 34.59375 13 25.296875 
L 8.5 31.5 
Q 25.09375 38.203125 35 47.90625 
Q 35.796875 44.703125 38 42.296875 
z
M 54.203125 20.296875 
Q 81.296875 20.296875 94.796875 21.296875 
L 94.796875 14.796875 
Q 81.703125 15.59375 61.90625 15.5 
Q 77.203125 -0.40625 95.59375 -4.203125 
Q 92.40625 -6.5 91 -11.09375 
Q 67.796875 -0.5 56.703125 15.5 
L 54.203125 15.5 
L 54.203125 -6 
Q 54.203125 -11.796875 54.796875 -16.296875 
L 47.40625 -16.296875 
Q 48.203125 -11.203125 48.203125 -6 
L 48.203125 15.5 
L 46.296875 15.5 
Q 35.40625 -0.203125 11 -12.5 
Q 9.5 -9.5 5.296875 -6.296875 
Q 27.40625 -0.09375 40.40625 15.5 
Q 13.90625 15.5 6.796875 14.796875 
L 6.796875 21.296875 
Q 20.203125 20.296875 48.203125 20.296875 
Q 48 27.296875 47.59375 30.09375 
Q 51.40625 29.59375 54.296875 29.59375 
Q 57.203125 29.59375 57.203125 28.84375 
Q 57.203125 28.09375 55.703125 27.34375 
Q 54.203125 26.59375 54.203125 24.59375 
z
" id="STXihei-26579"/>
      <path d="M 45.703125 57.703125 
Q 27.796875 57.703125 17.796875 56.59375 
L 17.796875 63.5 
Q 26.5 62.5 45.703125 62.40625 
Q 45.703125 72.09375 45 76.59375 
Q 47.5 76 52.5 76 
Q 54.296875 76 54.296875 75.296875 
Q 54.296875 74.59375 53.046875 73.59375 
Q 51.796875 72.59375 51.796875 70.09375 
L 51.796875 62.40625 
Q 64.296875 62.5 74.796875 63.5 
L 74.796875 56.796875 
Q 81 63.203125 84.296875 70.09375 
Q 86.90625 66.90625 89.09375 65.796875 
Q 91.296875 64.703125 91.296875 63.59375 
Q 91.296875 62.5 89.390625 62.25 
Q 87.5 62 80.09375 54.75 
Q 72.703125 47.5 67.59375 42.90625 
Q 86.59375 43.40625 95.203125 44.09375 
L 95.203125 36.90625 
Q 82.203125 38 61.796875 38.09375 
Q 53.296875 31.296875 45.5 26.40625 
L 59.703125 26.40625 
Q 73.40625 26.40625 81.203125 27.296875 
Q 80.703125 24.40625 80.703125 19.59375 
L 80.703125 -5 
Q 80.703125 -9.5 81.296875 -15 
L 74.40625 -15 
L 74.40625 -9.203125 
L 35.40625 -9.203125 
L 35.40625 -16.203125 
L 28.796875 -16.203125 
Q 29.296875 -11.90625 29.296875 -6.203125 
L 29.296875 16.90625 
Q 19 11.296875 8.703125 6.796875 
Q 7.5 11.40625 3.296875 13.40625 
Q 14.703125 16.40625 29.203125 23.5 
Q 29.09375 25 28.703125 27.296875 
Q 31.5 26.90625 35.40625 26.796875 
Q 45.203125 32.09375 53.40625 38.203125 
L 32.5 38.203125 
Q 18.90625 38.203125 5.796875 36.90625 
L 5.796875 44.09375 
Q 22.5 42.90625 45.703125 42.796875 
z
M 74.59375 56.59375 
Q 64.203125 57.59375 51.796875 57.703125 
L 51.796875 42.796875 
L 59.203125 42.796875 
Q 69.796875 51.59375 74.59375 56.59375 
z
M 35.40625 12 
L 74.40625 12 
L 74.40625 21.5 
L 37.40625 21.5 
L 35.40625 20.296875 
z
M 74.40625 6.59375 
L 35.40625 6.59375 
L 35.40625 -4.703125 
L 74.40625 -4.703125 
z
" id="STXihei-32773"/>
      <path d="M 67.40625 75 
L 15.09375 -5 
L 8.59375 -5 
L 56.296875 67.90625 
Q 50.5 66.5 44.453125 66.09375 
Q 38.40625 65.703125 35.59375 65.796875 
L 33 65.90625 
Q 36 61.703125 36 57 
Q 36 49.796875 31.140625 44.75 
Q 26.296875 39.703125 19 39.703125 
Q 12 39.703125 7.09375 44.59375 
Q 2.203125 49.5 2.203125 56.59375 
Q 2.203125 63.703125 7.25 68.59375 
Q 12.296875 73.5 18.90625 73.5 
Q 21.59375 73.5 25 72.796875 
Q 31.59375 71.40625 38.90625 71.40625 
Q 50.5 71.40625 61.703125 75 
z
M 29.90625 56.703125 
Q 29.90625 61.203125 26.75 64.296875 
Q 23.59375 67.40625 19.09375 67.40625 
Q 14.703125 67.40625 11.546875 64.25 
Q 8.40625 61.09375 8.40625 56.703125 
Q 8.40625 52.296875 11.546875 49.140625 
Q 14.703125 46 19.09375 46 
Q 23.59375 46 26.75 49.09375 
Q 29.90625 52.203125 29.90625 56.703125 
z
M 41.5 14.796875 
Q 41.5 21.703125 46.453125 26.703125 
Q 51.40625 31.703125 58.296875 31.703125 
Q 65.296875 31.703125 70.25 26.75 
Q 75.203125 21.796875 75.203125 14.796875 
Q 75.203125 7.796875 70.25 2.84375 
Q 65.296875 -2.09375 58.296875 -2.09375 
Q 51.40625 -2.09375 46.453125 2.84375 
Q 41.5 7.796875 41.5 14.796875 
z
M 69.09375 14.796875 
Q 69.09375 19.203125 65.9375 22.34375 
Q 62.796875 25.5 58.296875 25.5 
Q 53.90625 25.5 50.796875 22.34375 
Q 47.703125 19.203125 47.703125 14.796875 
Q 47.703125 10.40625 50.796875 7.25 
Q 53.90625 4.09375 58.296875 4.09375 
Q 62.796875 4.09375 65.9375 7.1875 
Q 69.09375 10.296875 69.09375 14.796875 
z
" id="STXihei-37"/>
     </defs>
     <g transform="translate(43.668438 151.3125)rotate(-90)scale(0.15 -0.15)">
      <use xlink:href="#STXihei-24863"/>
      <use x="99.999985" xlink:href="#STXihei-26579"/>
      <use x="199.999969" xlink:href="#STXihei-32773"/>
      <use x="299.999954" xlink:href="#STXihei-65288"/>
      <use x="399.999939" xlink:href="#STXihei-37"/>
      <use x="477.499924" xlink:href="#STXihei-65289"/>
     </g>
    </g>
   </g>
   <g id="line2d_13">
    <path clip-path="url(#pba4b83994a)" d="M 69.12 172.7784 
L 72.108 172.786821 
L 80.325 172.656265 
L 83.6865 172.418362 
L 85.9275 172.068592 
L 87.795 171.543732 
L 89.289 170.865861 
L 90.4095 170.129558 
L 91.53 169.117835 
L 92.6505 167.732072 
L 93.771 165.842125 
L 94.8915 163.280229 
L 95.6385 161.096788 
L 96.759 156.92663 
L 97.8795 151.437801 
L 99 144.350466 
L 100.1205 135.43473 
L 101.241 124.608818 
L 102.735 107.618054 
L 105.3495 76.871055 
L 106.0965 70.04271 
L 106.8435 65.016989 
L 107.217 63.307232 
L 107.5905 62.180767 
L 107.964 61.658201 
L 108.3375 61.746824 
L 108.711 62.440442 
L 109.0845 63.719781 
L 109.8315 67.900037 
L 110.5785 73.922934 
L 111.699 85.380643 
L 115.434 126.759774 
L 116.5545 136.612336 
L 117.675 144.764726 
L 118.7955 151.321724 
L 119.916 156.485053 
L 121.0365 160.487173 
L 122.157 163.552809 
L 123.2775 165.880601 
L 124.398 167.636534 
L 125.5185 168.95476 
L 126.639 169.940742 
L 127.7595 170.676291 
L 129.2535 171.373297 
L 131.121 171.933449 
L 133.362 172.324227 
L 136.35 172.586366 
L 141.2055 172.741842 
L 152.4105 172.797125 
L 307.7865 172.8 
L 330.57 172.8 
L 330.57 172.8 
" style="fill:none;stroke:#1f77b4;stroke-linecap:square;stroke-width:1.5;"/>
   </g>
   <g id="line2d_14">
    <path clip-path="url(#pba4b83994a)" d="M 69.12 172.795676 
L 81.072 172.773622 
L 88.542 172.611029 
L 91.9035 172.342404 
L 94.1445 171.975704 
L 96.012 171.455449 
L 97.506 170.813724 
L 98.6265 170.141167 
L 99.747 169.245218 
L 100.8675 168.05526 
L 101.988 166.480872 
L 103.1085 164.408456 
L 104.229 161.699721 
L 105.3495 158.191468 
L 106.47 153.703461 
L 107.5905 148.054771 
L 108.711 141.096816 
L 109.8315 132.766375 
L 111.3255 119.721766 
L 114.687 88.506016 
L 115.434 83.158599 
L 116.181 79.106048 
L 116.928 76.607516 
L 117.3015 75.995327 
L 117.675 75.822009 
L 118.0485 76.088472 
L 118.422 76.787277 
L 118.7955 77.903722 
L 119.5425 81.295695 
L 120.2895 86.022533 
L 121.41 94.942807 
L 126.2655 136.884871 
L 127.386 144.153181 
L 128.5065 150.200224 
L 129.627 155.124423 
L 130.7475 159.068651 
L 131.868 162.188539 
L 132.9885 164.632714 
L 134.109 166.533456 
L 135.2295 168.003282 
L 136.35 169.135078 
L 137.4705 170.003741 
L 138.9645 170.853551 
L 140.4585 171.44693 
L 142.326 171.942191 
L 144.567 172.304134 
L 147.555 172.561559 
L 152.4105 172.727482 
L 162.8685 172.794378 
L 240.183 172.8 
L 330.57 172.8 
L 330.57 172.8 
" style="fill:none;stroke:#ff7f0e;stroke-linecap:square;stroke-width:1.5;"/>
   </g>
   <g id="line2d_15">
    <path clip-path="url(#pba4b83994a)" d="M 69.12 172.778404 
L 72.108 172.786351 
L 80.6985 172.644009 
L 84.06 172.39527 
L 86.301 172.036713 
L 88.1685 171.506197 
L 89.6625 170.828999 
L 90.783 170.100294 
L 91.9035 169.107031 
L 93.024 167.757233 
L 94.1445 165.930965 
L 95.265 163.474333 
L 96.3855 160.196027 
L 97.506 155.868536 
L 98.6265 150.239922 
L 99.747 143.06424 
L 100.8675 134.160299 
L 101.988 123.50654 
L 103.482 107.094003 
L 105.723 81.934804 
L 106.8435 72.154298 
L 107.5905 67.721919 
L 107.964 66.267195 
L 108.3375 65.359322 
L 108.711 65.013862 
L 109.0845 65.234419 
L 109.458 66.01268 
L 109.8315 67.329072 
L 110.5785 71.446417 
L 111.3255 77.247284 
L 112.446 88.16343 
L 116.181 127.540702 
L 117.3015 137.010367 
L 118.422 144.897204 
L 119.5425 151.284581 
L 120.663 156.349973 
L 121.7835 160.304043 
L 122.904 163.354249 
L 124.0245 165.686347 
L 125.145 167.457614 
L 126.2655 168.796264 
L 127.386 169.80417 
L 128.5065 170.560945 
L 130.0005 171.283359 
L 131.4945 171.773773 
L 133.362 172.170813 
L 135.9765 172.483199 
L 139.7115 172.681204 
L 146.808 172.781605 
L 175.194 172.8 
L 330.57 172.8 
L 330.57 172.8 
" style="fill:none;stroke:#2ca02c;stroke-linecap:square;stroke-width:1.5;"/>
   </g>
   <g id="line2d_16">
    <path clip-path="url(#pba4b83994a)" d="M 69.12 172.77842 
L 72.108 172.78888 
L 82.1925 172.658741 
L 86.301 172.401669 
L 88.9155 172.030501 
L 90.783 171.569715 
L 92.277 171.01105 
L 93.771 170.202654 
L 94.8915 169.369117 
L 96.012 168.275169 
L 97.1325 166.844642 
L 98.253 164.982865 
L 99.3735 162.575476 
L 100.494 159.488205 
L 101.6145 155.572671 
L 102.735 150.677815 
L 103.8555 144.673231 
L 104.976 137.486534 
L 106.47 126.1558 
L 110.952 89.75766 
L 111.699 85.778485 
L 112.446 83.084841 
L 112.8195 82.273324 
L 113.193 81.836053 
L 113.5665 81.778389 
L 113.94 82.099277 
L 114.3135 82.791466 
L 114.687 83.841639 
L 115.434 86.936514 
L 116.181 91.18155 
L 117.3015 99.149482 
L 119.916 120.643999 
L 121.7835 134.769552 
L 123.2775 144.120632 
L 124.398 149.889372 
L 125.5185 154.654572 
L 126.639 158.526023 
L 127.7595 161.631314 
L 128.88 164.097466 
L 130.0005 166.041037 
L 131.121 167.563817 
L 132.2415 168.751426 
L 133.362 169.674359 
L 134.856 170.59026 
L 136.35 171.24008 
L 138.2175 171.792021 
L 140.4585 172.203932 
L 143.4465 172.504559 
L 147.9285 172.697022 
L 156.519 172.786331 
L 197.2305 172.8 
L 330.57 172.8 
L 330.57 172.8 
" style="fill:none;stroke:#d62728;stroke-linecap:square;stroke-width:1.5;"/>
   </g>
   <g id="line2d_17">
    <path clip-path="url(#pba4b83994a)" d="M 69.12 172.778389 
L 72.108 172.788037 
L 81.4455 172.655902 
L 85.1805 172.409538 
L 87.795 172.016453 
L 89.6625 171.512804 
L 91.1565 170.887556 
L 92.277 170.228927 
L 93.3975 169.347706 
L 94.518 168.171922 
L 95.6385 166.609111 
L 96.759 164.542612 
L 97.8795 161.828831 
L 99 158.297696 
L 100.1205 153.759534 
L 101.241 148.022048 
L 102.3615 140.924661 
L 103.482 132.394784 
L 104.976 118.991082 
L 108.3375 86.897088 
L 109.0845 81.452622 
L 109.8315 77.375929 
L 110.5785 74.934019 
L 110.952 74.380473 
L 111.3255 74.284729 
L 111.699 74.646016 
L 112.0725 75.454879 
L 112.446 76.693991 
L 113.193 80.358148 
L 113.94 85.373408 
L 115.0605 94.709562 
L 119.5425 134.787066 
L 120.663 142.482919 
L 121.7835 148.901378 
L 122.904 154.13317 
L 124.0245 158.323667 
L 125.145 161.635606 
L 126.2655 164.226554 
L 127.386 166.237751 
L 128.5065 167.789796 
L 129.627 168.98202 
L 130.7475 169.894847 
L 132.2415 170.785252 
L 133.7355 171.404634 
L 135.603 171.919551 
L 137.844 172.293959 
L 140.832 172.558422 
L 145.6875 172.727488 
L 155.772 172.794018 
L 236.448 172.8 
L 330.57 172.8 
L 330.57 172.8 
" style="fill:none;stroke:#9467bd;stroke-linecap:square;stroke-width:1.5;"/>
   </g>
   <g id="line2d_18">
    <path clip-path="url(#pba4b83994a)" d="M 69.12 172.778415 
L 72.108 172.787322 
L 80.6985 172.655892 
L 84.4335 172.385873 
L 86.6745 172.020713 
L 88.542 171.481652 
L 90.036 170.794886 
L 91.1565 170.056848 
L 92.277 169.052213 
L 93.3975 167.688915 
L 94.518 165.846979 
L 95.6385 163.373078 
L 96.759 160.077244 
L 97.8795 155.734479 
L 99 150.097221 
L 100.1205 142.926222 
L 101.241 134.049746 
L 102.3615 123.457526 
L 103.8555 107.197417 
L 106.0965 82.414152 
L 107.217 72.842842 
L 107.964 68.530882 
L 108.3375 67.125881 
L 108.711 66.258858 
L 109.0845 65.944307 
L 109.458 66.185128 
L 109.8315 66.972623 
L 110.205 68.286988 
L 110.952 72.368816 
L 111.699 78.097756 
L 112.8195 88.859337 
L 116.5545 127.704592 
L 117.675 137.075945 
L 118.7955 144.896129 
L 119.916 151.242436 
L 121.0365 156.285798 
L 122.157 160.230957 
L 123.2775 163.280662 
L 124.398 165.617231 
L 125.5185 167.395494 
L 126.639 168.742028 
L 127.7595 169.757909 
L 128.88 170.522178 
L 130.374 171.253336 
L 131.868 171.750903 
L 133.7355 172.154867 
L 136.35 172.473784 
L 140.085 172.676953 
L 146.808 172.778764 
L 171.8325 172.799965 
L 330.57 172.8 
L 330.57 172.8 
" style="fill:none;stroke:#8c564b;stroke-linecap:square;stroke-width:1.5;"/>
   </g>
   <g id="patch_3">
    <path d="M 69.12 172.8 
L 69.12 43.2 
" style="fill:none;stroke:#000000;stroke-linecap:square;stroke-linejoin:miter;stroke-width:0.8;"/>
   </g>
   <g id="patch_4">
    <path d="M 218.52 172.8 
L 218.52 43.2 
" style="fill:none;stroke:#000000;stroke-linecap:square;stroke-linejoin:miter;stroke-width:0.8;"/>
   </g>
   <g id="patch_5">
    <path d="M 69.12 172.8 
L 218.52 172.8 
" style="fill:none;stroke:#000000;stroke-linecap:square;stroke-linejoin:miter;stroke-width:0.8;"/>
   </g>
   <g id="patch_6">
    <path d="M 69.12 43.2 
L 218.52 43.2 
" style="fill:none;stroke:#000000;stroke-linecap:square;stroke-linejoin:miter;stroke-width:0.8;"/>
   </g>
   <g id="text_15">
    <!-- 未接种率 p = 0.9 -->
    <defs>
     <path d="M 46.703125 57.5 
Q 46.703125 68.296875 45.796875 74 
Q 49.40625 73 53.90625 73 
Q 55.5 73 55.5 72.390625 
Q 55.5 71.796875 54.453125 71.140625 
Q 53.40625 70.5 53.09375 68.796875 
Q 52.796875 67.09375 52.796875 63.203125 
L 52.796875 57.5 
Q 75.203125 57.5 81.703125 58.09375 
L 81.703125 51.90625 
Q 75.59375 52.5 52.796875 52.5 
L 52.796875 36.296875 
Q 80 36.296875 91.09375 36.90625 
L 91.09375 30.796875 
Q 80.203125 31.40625 60.09375 31.40625 
Q 75.5 7.40625 94.09375 -0.40625 
Q 91.203125 -3 88.90625 -6.59375 
Q 69.203125 4.5 54.796875 31.40625 
L 52.796875 31.40625 
L 52.796875 3.59375 
Q 52.796875 -5.296875 53.796875 -15.296875 
L 45.796875 -15.296875 
Q 46.703125 -5.59375 46.703125 3.59375 
L 46.703125 31.40625 
L 43.296875 31.40625 
Q 36 17.296875 28.5 8.5 
Q 21 -0.296875 9.296875 -8.796875 
Q 7.796875 -5.09375 3.5 -3.40625 
Q 14.703125 3.40625 22.59375 11.40625 
Q 30.5 19.40625 37.796875 31.40625 
Q 19 31.40625 7.40625 30.796875 
L 7.40625 36.90625 
Q 15.703125 36.296875 46.703125 36.296875 
L 46.703125 52.5 
Q 23.5 52.5 16.796875 51.90625 
L 16.796875 58.09375 
Q 23.203125 57.5 46.703125 57.5 
z
" id="STXihei-26410"/>
     <path d="M 60.59375 63.90625 
Q 58.296875 67.703125 54.203125 72 
L 59.5 75.5 
Q 64.203125 68.90625 66.703125 63.90625 
Q 83.296875 63.90625 90 64.703125 
L 90 58.5 
Q 82.703125 59.296875 64.25 59.296875 
Q 45.796875 59.296875 38.40625 58.5 
L 38.40625 64.703125 
Q 46.296875 63.90625 60.59375 63.90625 
z
M 18.703125 26.796875 
L 18.703125 49.90625 
Q 11.40625 49.796875 6.09375 48.90625 
L 6.09375 56 
Q 11.40625 55.09375 18.703125 55.09375 
Q 18.5 69.203125 17.40625 75.09375 
Q 21 74.296875 25.09375 74.296875 
Q 27.203125 74.296875 27.203125 73.5 
Q 27.203125 72.703125 25.40625 71.09375 
Q 24.59375 70.40625 24.59375 64.703125 
L 24.59375 55.09375 
Q 31.59375 55.203125 35.703125 56 
L 35.703125 48.90625 
Q 31 49.796875 24.59375 49.796875 
L 24.59375 29.59375 
Q 28.59375 31.59375 34.09375 35 
Q 34.40625 32 36 29.203125 
L 24.59375 23.796875 
L 24.59375 -5.40625 
Q 24.59375 -9.5 23.4375 -11.546875 
Q 22.296875 -13.59375 19.140625 -14.546875 
Q 16 -15.5 9.59375 -15.796875 
Q 9.59375 -11.40625 6.796875 -7.703125 
Q 11.796875 -8.703125 14.1875 -8.703125 
Q 16.59375 -8.703125 17.640625 -7.703125 
Q 18.703125 -6.703125 18.703125 -3.296875 
L 18.703125 20.796875 
Q 12.203125 17.40625 7.703125 14.59375 
Q 6.90625 18.203125 4 21.203125 
Q 12.09375 23.796875 18.703125 26.796875 
z
M 67.40625 40.203125 
Q 75.09375 50 77 57.40625 
Q 80.09375 55.09375 83 54.203125 
Q 84.09375 53.90625 84.09375 53 
Q 84.09375 52.09375 82.1875 51.296875 
Q 80.296875 50.5 73.296875 40.203125 
Q 87.90625 40.5 93.796875 41.09375 
L 93.796875 34.796875 
Q 87.90625 35.703125 64.75 35.703125 
Q 41.59375 35.703125 35.703125 34.796875 
L 35.703125 41.09375 
Q 46.59375 40.203125 59.296875 40.203125 
z
M 59.5 44.703125 
L 55.09375 41.296875 
Q 50.703125 48.09375 45 52.796875 
L 48.703125 56.40625 
Q 53.40625 52 59.5 44.703125 
z
M 49.09375 17.296875 
Q 37.796875 17.296875 32.796875 16.703125 
L 32.796875 22.5 
Q 40.703125 21.90625 51.796875 21.90625 
Q 55.796875 29.40625 56.796875 33.796875 
Q 59.59375 31.203125 63.296875 30.5 
Q 64.796875 30.203125 64.796875 29.453125 
Q 64.796875 28.703125 62.796875 27.546875 
Q 60.796875 26.40625 57.796875 21.90625 
L 74.703125 21.90625 
Q 90.796875 21.90625 95.5 22.5 
L 95.5 16.703125 
Q 92.59375 17.09375 81.703125 17.296875 
Q 78 7.09375 71.09375 1.09375 
Q 82.203125 -3.40625 92.203125 -7.796875 
Q 89.5 -9.90625 87.703125 -13.5 
Q 79.40625 -7.703125 66.5 -2.40625 
Q 56.59375 -9.296875 35.40625 -14.203125 
Q 34.59375 -10.203125 31.40625 -7.796875 
Q 49.203125 -5.796875 59.90625 0.09375 
Q 49.796875 3.59375 40.90625 5.5 
Q 44.90625 10.203125 49.09375 17.296875 
z
M 75.5 17.296875 
L 54.90625 17.296875 
L 49.796875 8.5 
Q 55.5 6.796875 65 3.40625 
Q 72.40625 9 75.5 17.296875 
z
" id="STXihei-25509"/>
     <path d="M 53 18 
L 53 9.40625 
L 46.40625 9.40625 
Q 47 17.796875 47 22.796875 
L 47 43.59375 
Q 47 48.59375 46.40625 53.90625 
Q 51.90625 52.90625 66.203125 52.796875 
L 66.203125 61.5 
Q 66.203125 70.203125 65.296875 75.203125 
Q 68.40625 74.203125 72.796875 74.203125 
Q 74.5 74.203125 74.5 72.90625 
Q 74.5 72 73.296875 71.203125 
Q 72.09375 70.40625 72.09375 67.296875 
L 72.09375 52.796875 
Q 85.703125 52.90625 92.296875 53.90625 
Q 91.796875 46.796875 91.796875 41.59375 
L 91.796875 25.59375 
Q 91.796875 21.5 92.296875 11.296875 
L 85.703125 11.296875 
L 85.703125 18 
L 72.09375 18 
L 72.09375 2.703125 
Q 72.09375 -9 73 -15.90625 
L 65.296875 -15.90625 
Q 66.203125 -9 66.203125 2.703125 
L 66.203125 18 
z
M 66.203125 48.40625 
L 53 48.40625 
L 53 22.703125 
L 66.203125 22.703125 
z
M 85.703125 22.703125 
L 85.703125 48.40625 
L 72.09375 48.40625 
L 72.09375 22.703125 
z
M 23.703125 63 
Q 16.40625 61.703125 8.203125 61.09375 
Q 8.296875 64.296875 5.40625 67.296875 
Q 9.09375 67.09375 12 67.09375 
Q 20.09375 67.09375 28.140625 68.84375 
Q 36.203125 70.59375 39.40625 72.90625 
Q 41.59375 69.796875 43.5 68.09375 
Q 44.40625 67.296875 44.40625 66.5 
Q 44.40625 65.703125 42.90625 65.703125 
Q 42.40625 65.703125 41.703125 65.796875 
Q 41 65.90625 39.796875 65.90625 
Q 36.296875 65.90625 29.40625 64.09375 
L 29.40625 46.59375 
Q 36.90625 46.703125 43.796875 47.203125 
L 43.796875 41.296875 
Q 36.296875 41.796875 29.40625 41.796875 
L 29.40625 34.09375 
Q 35.90625 29.5 44.296875 22.09375 
L 39.09375 17.5 
Q 35.703125 22.796875 29.40625 28.296875 
L 29.40625 1 
Q 29.40625 -7.703125 30.09375 -16.203125 
L 22.90625 -16.203125 
Q 23.703125 -6.5 23.703125 1 
L 23.703125 28.40625 
Q 18.296875 14.59375 9.203125 2 
Q 6.59375 4.796875 3 5.59375 
Q 16.09375 18.203125 23.703125 41.203125 
L 23.703125 41.90625 
Q 13.5 41.90625 5.40625 41.296875 
L 5.40625 47.203125 
Q 13.5 46.59375 23.703125 46.59375 
z
" id="STXihei-31181"/>
     <path d="M 46 60.5 
Q 21.90625 60.5 10.796875 59.5 
L 10.796875 66 
Q 21.40625 65 48 65 
Q 45.203125 69.59375 40.59375 73.5 
L 46.296875 77.09375 
Q 50.296875 72.59375 54.09375 65 
Q 79.203125 65 90.296875 66 
L 90.296875 59.5 
Q 79.09375 60.5 47.5 60.5 
Q 49.5 59.09375 51.203125 58.34375 
Q 52.90625 57.59375 52.90625 56.796875 
Q 52.90625 56 51.40625 55.796875 
Q 49.90625 55.59375 47.046875 52 
Q 44.203125 48.40625 41 44.796875 
L 53.59375 45.296875 
Q 57.5 50.203125 59.40625 54.40625 
Q 63.296875 51.09375 64.9375 50.546875 
Q 66.59375 50 66.59375 49.09375 
Q 66.59375 48.203125 64.84375 48 
Q 63.09375 47.796875 53.90625 37.796875 
Q 47.59375 31.09375 41 25.296875 
L 61.40625 26.59375 
Q 59.40625 29.203125 55.90625 33.40625 
L 60.09375 36.40625 
Q 67.796875 27.296875 72.703125 18.90625 
L 67.5 15.90625 
Q 66.09375 19.40625 64.09375 22.703125 
L 52.59375 21.796875 
L 52.59375 9.796875 
Q 85.296875 9.796875 95.796875 10.796875 
L 95.796875 4.296875 
Q 82.703125 5.296875 52.59375 5.296875 
L 52.59375 1.09375 
Q 52.59375 -7.5 53.5 -16.703125 
L 45.90625 -16.703125 
Q 46.796875 -5.90625 46.796875 1.09375 
L 46.796875 5.296875 
Q 16 5.296875 4.796875 4.296875 
L 4.796875 10.796875 
Q 15.796875 9.796875 46.796875 9.796875 
L 46.796875 21.296875 
Q 37.296875 20.59375 32.5 19.203125 
Q 32 22.203125 30.203125 25 
Q 34.703125 26.296875 38.84375 29.890625 
Q 43 33.5 49.90625 41.09375 
L 40.09375 40 
Q 35.59375 39.59375 32.59375 38.5 
Q 32.59375 41.40625 31 43.296875 
Q 38 45.40625 46 60.5 
z
M 80 56.203125 
Q 83.296875 53.296875 84.796875 52.390625 
Q 86.296875 51.5 86.296875 50.796875 
Q 86.296875 49.90625 85.046875 49.90625 
Q 83.796875 49.90625 81.84375 48.453125 
Q 79.90625 47 76.65625 43.890625 
Q 73.40625 40.796875 70.703125 38.296875 
Q 69.40625 40.5 66.5 42 
Q 74.90625 47.703125 80 56.203125 
z
M 29.296875 43.40625 
L 24.796875 39.5 
Q 20.59375 45 11.40625 50.796875 
L 14.90625 54.90625 
Q 22.796875 49.296875 29.296875 43.40625 
z
M 32.59375 31.5 
Q 25.703125 26.5 12.90625 15 
Q 11.09375 18.5 7.90625 19.703125 
Q 21.5 27.40625 29 36.59375 
Q 30 33.40625 32.59375 31.5 
z
M 91.296875 20.59375 
L 86.796875 16.59375 
Q 81.296875 23 70.703125 30.5 
L 74.203125 34.703125 
Q 83.296875 28.40625 91.296875 20.59375 
z
" id="STXihei-29575"/>
     <path id="STXihei-32"/>
     <path d="M 7.703125 53.09375 
L 14.5 53.09375 
L 14.5 43.40625 
Q 22.59375 54.5 35.59375 54.5 
Q 46.796875 54.5 54.890625 46.25 
Q 63 38 63 26.5 
Q 63 14.796875 55 6.5 
Q 47 -1.796875 35.796875 -1.796875 
Q 23.59375 -1.796875 14.5 9.09375 
L 14.5 -19.40625 
L 7.703125 -19.40625 
z
M 56.203125 26.296875 
Q 56.203125 35.203125 50.046875 41.546875 
Q 43.90625 47.90625 35.09375 47.90625 
Q 26.09375 47.90625 20.046875 41.65625 
Q 14 35.40625 14 26.296875 
Q 14 17 20.203125 10.75 
Q 26.40625 4.5 35.203125 4.5 
Q 43.703125 4.5 49.953125 10.84375 
Q 56.203125 17.203125 56.203125 26.296875 
z
" id="STXihei-112"/>
     <path d="M 55 50 
L 55 43.296875 
L 5.59375 43.296875 
L 5.59375 50 
z
M 55 28.5 
L 55 21.796875 
L 5.59375 21.796875 
L 5.59375 28.5 
z
" id="STXihei-61"/>
     <path d="M 9.09375 4.703125 
Q 9.09375 7.203125 10.890625 8.953125 
Q 12.703125 10.703125 15.09375 10.703125 
Q 17.59375 10.703125 19.34375 8.953125 
Q 21.09375 7.203125 21.09375 4.703125 
Q 21.09375 2.09375 19.34375 0.34375 
Q 17.59375 -1.40625 15.09375 -1.40625 
Q 12.703125 -1.40625 10.890625 0.390625 
Q 9.09375 2.203125 9.09375 4.703125 
z
" id="STXihei-46"/>
     <path d="M 19.203125 -1.796875 
L 13.296875 2 
L 32.703125 31.40625 
Q 28.90625 30.09375 25.203125 30.09375 
Q 16.59375 30.09375 10.75 36.296875 
Q 4.90625 42.5 4.90625 51.5 
Q 4.90625 61 11.40625 67.296875 
Q 17.90625 73.59375 27.296875 73.59375 
Q 36.796875 73.59375 42.9375 67.140625 
Q 49.09375 60.703125 49.09375 51.703125 
Q 49.09375 46.703125 47.046875 41.640625 
Q 45 36.59375 41 30.703125 
z
M 11.90625 51.5 
Q 11.90625 45.203125 16.296875 40.796875 
Q 20.703125 36.40625 27 36.40625 
Q 33.296875 36.40625 37.6875 40.84375 
Q 42.09375 45.296875 42.09375 51.5 
Q 42.09375 57.703125 37.6875 62.140625 
Q 33.296875 66.59375 27 66.59375 
Q 20.703125 66.59375 16.296875 62.1875 
Q 11.90625 57.796875 11.90625 51.5 
z
" id="STXihei-57"/>
    </defs>
    <g transform="translate(99.28125 37.2)scale(0.12 -0.12)">
     <use xlink:href="#STXihei-26410"/>
     <use x="99.999985" xlink:href="#STXihei-25509"/>
     <use x="199.999969" xlink:href="#STXihei-31181"/>
     <use x="299.999954" xlink:href="#STXihei-29575"/>
     <use x="399.999939" xlink:href="#STXihei-32"/>
     <use x="424.999924" xlink:href="#STXihei-112"/>
     <use x="493.199905" xlink:href="#STXihei-32"/>
     <use x="518.19989" xlink:href="#STXihei-61"/>
     <use x="578.799881" xlink:href="#STXihei-32"/>
     <use x="603.799866" xlink:href="#STXihei-48"/>
     <use x="659.19986" xlink:href="#STXihei-46"/>
     <use x="686.899857" xlink:href="#STXihei-57"/>
    </g>
   </g>
  </g>
  <g id="axes_2">
   <g id="patch_7">
    <path d="M 233.46 172.8 
L 382.86 172.8 
L 382.86 43.2 
L 233.46 43.2 
z
" style="fill:#ffffff;"/>
   </g>
   <g id="matplotlib.axis_3">
    <g id="xtick_6">
     <g id="line2d_19">
      <g>
       <use style="stroke:#000000;stroke-width:0.8;" x="233.46" xlink:href="#m355da2f329" y="172.8"/>
      </g>
     </g>
     <g id="text_16">
      <!-- 0 -->
      <g transform="translate(230.689687 187.159375)scale(0.1 -0.1)">
       <use xlink:href="#STXihei-48"/>
      </g>
     </g>
    </g>
    <g id="xtick_7">
     <g id="line2d_20">
      <g>
       <use style="stroke:#000000;stroke-width:0.8;" x="270.81" xlink:href="#m355da2f329" y="172.8"/>
      </g>
     </g>
     <g id="text_17">
      <!-- 100 -->
      <g transform="translate(262.499062 187.159375)scale(0.1 -0.1)">
       <use xlink:href="#STXihei-49"/>
       <use x="55.399994" xlink:href="#STXihei-48"/>
       <use x="110.799988" xlink:href="#STXihei-48"/>
      </g>
     </g>
    </g>
    <g id="xtick_8">
     <g id="line2d_21">
      <g>
       <use style="stroke:#000000;stroke-width:0.8;" x="308.16" xlink:href="#m355da2f329" y="172.8"/>
      </g>
     </g>
     <g id="text_18">
      <!-- 200 -->
      <g transform="translate(299.849062 187.159375)scale(0.1 -0.1)">
       <use xlink:href="#STXihei-50"/>
       <use x="55.399994" xlink:href="#STXihei-48"/>
       <use x="110.799988" xlink:href="#STXihei-48"/>
      </g>
     </g>
    </g>
    <g id="xtick_9">
     <g id="line2d_22">
      <g>
       <use style="stroke:#000000;stroke-width:0.8;" x="345.51" xlink:href="#m355da2f329" y="172.8"/>
      </g>
     </g>
     <g id="text_19">
      <!-- 300 -->
      <g transform="translate(337.199062 187.159375)scale(0.1 -0.1)">
       <use xlink:href="#STXihei-51"/>
       <use x="55.399994" xlink:href="#STXihei-48"/>
       <use x="110.799988" xlink:href="#STXihei-48"/>
      </g>
     </g>
    </g>
    <g id="xtick_10">
     <g id="line2d_23">
      <g>
       <use style="stroke:#000000;stroke-width:0.8;" x="382.86" xlink:href="#m355da2f329" y="172.8"/>
      </g>
     </g>
     <g id="text_20">
      <!-- 400 -->
      <g transform="translate(374.549062 187.159375)scale(0.1 -0.1)">
       <use xlink:href="#STXihei-52"/>
       <use x="55.399994" xlink:href="#STXihei-48"/>
       <use x="110.799988" xlink:href="#STXihei-48"/>
      </g>
     </g>
    </g>
    <g id="text_21">
     <!-- 时间（天） -->
     <g transform="translate(270.66 210.139063)scale(0.15 -0.15)">
      <use xlink:href="#STXihei-26102"/>
      <use x="99.999985" xlink:href="#STXihei-38388"/>
      <use x="199.999969" xlink:href="#STXihei-65288"/>
      <use x="299.999954" xlink:href="#STXihei-22825"/>
      <use x="399.999939" xlink:href="#STXihei-65289"/>
     </g>
    </g>
   </g>
   <g id="matplotlib.axis_4">
    <g id="ytick_8">
     <g id="line2d_24">
      <g>
       <use style="stroke:#000000;stroke-width:0.8;" x="233.46" xlink:href="#mcc8a260471" y="172.8"/>
      </g>
     </g>
    </g>
    <g id="ytick_9">
     <g id="line2d_25">
      <g>
       <use style="stroke:#000000;stroke-width:0.8;" x="233.46" xlink:href="#mcc8a260471" y="151.2"/>
      </g>
     </g>
    </g>
    <g id="ytick_10">
     <g id="line2d_26">
      <g>
       <use style="stroke:#000000;stroke-width:0.8;" x="233.46" xlink:href="#mcc8a260471" y="129.6"/>
      </g>
     </g>
    </g>
    <g id="ytick_11">
     <g id="line2d_27">
      <g>
       <use style="stroke:#000000;stroke-width:0.8;" x="233.46" xlink:href="#mcc8a260471" y="108"/>
      </g>
     </g>
    </g>
    <g id="ytick_12">
     <g id="line2d_28">
      <g>
       <use style="stroke:#000000;stroke-width:0.8;" x="233.46" xlink:href="#mcc8a260471" y="86.4"/>
      </g>
     </g>
    </g>
    <g id="ytick_13">
     <g id="line2d_29">
      <g>
       <use style="stroke:#000000;stroke-width:0.8;" x="233.46" xlink:href="#mcc8a260471" y="64.8"/>
      </g>
     </g>
    </g>
    <g id="ytick_14">
     <g id="line2d_30">
      <g>
       <use style="stroke:#000000;stroke-width:0.8;" x="233.46" xlink:href="#mcc8a260471" y="43.2"/>
      </g>
     </g>
    </g>
   </g>
   <g id="line2d_31">
    <path clip-path="url(#p077dfb4e30)" d="M 233.46 172.7784 
L 236.8215 172.790107 
L 250.641 172.655991 
L 255.87 172.40354 
L 259.2315 172.041036 
L 261.846 171.544622 
L 264.087 170.871475 
L 265.9545 170.048021 
L 267.4485 169.150114 
L 268.9425 167.971242 
L 270.4365 166.432571 
L 271.557 164.986391 
L 272.6775 163.240179 
L 273.798 161.14632 
L 274.9185 158.656582 
L 276.039 155.727048 
L 277.533 151.080569 
L 279.027 145.570517 
L 280.8945 137.609374 
L 285.3765 117.615172 
L 286.497 113.844246 
L 287.244 111.913051 
L 287.991 110.530815 
L 288.738 109.747855 
L 289.1115 109.590736 
L 289.485 109.59166 
L 289.8585 109.750491 
L 290.232 110.064934 
L 290.979 111.145393 
L 291.726 112.788092 
L 292.473 114.929155 
L 293.5935 118.90211 
L 295.0875 125.161575 
L 299.5695 144.677711 
L 301.0635 150.104959 
L 302.5575 154.730557 
L 304.0515 158.566829 
L 305.5455 161.682818 
L 307.0395 164.173514 
L 308.5335 166.140241 
L 310.0275 167.678775 
L 311.5215 168.873701 
L 313.0155 169.796801 
L 314.883 170.656985 
L 316.7505 171.273755 
L 318.9915 171.786257 
L 321.9795 172.213696 
L 325.7145 172.504794 
L 331.317 172.694775 
L 341.775 172.784665 
L 386.2215 172.8 
L 494.91 172.8 
L 494.91 172.8 
" style="fill:none;stroke:#1f77b4;stroke-linecap:square;stroke-width:1.5;"/>
   </g>
   <g id="line2d_32">
    <path clip-path="url(#p077dfb4e30)" d="M 233.46 172.795676 
L 247.653 172.788411 
L 262.593 172.655439 
L 268.569 172.404284 
L 272.304 172.05886 
L 275.292 171.578215 
L 277.533 171.025874 
L 279.774 170.230507 
L 281.6415 169.31099 
L 283.1355 168.354587 
L 284.6295 167.151959 
L 286.1235 165.649744 
L 287.6175 163.789088 
L 289.1115 161.509063 
L 290.6055 158.753064 
L 292.0995 155.479058 
L 293.5935 151.674288 
L 295.461 146.231867 
L 298.449 136.565177 
L 300.69 129.631178 
L 301.8105 126.698704 
L 302.931 124.340626 
L 303.678 123.158884 
L 304.425 122.328923 
L 305.172 121.873921 
L 305.919 121.80616 
L 306.666 122.125941 
L 307.413 122.822152 
L 308.16 123.872478 
L 308.907 125.245397 
L 310.0275 127.822587 
L 311.5215 131.984673 
L 314.136 140.215439 
L 316.7505 148.237516 
L 318.618 153.264632 
L 320.112 156.740237 
L 321.606 159.717294 
L 323.1 162.221187 
L 324.594 164.29689 
L 326.088 165.998109 
L 327.582 167.379849 
L 329.076 168.494089 
L 330.9435 169.581345 
L 332.811 170.400884 
L 335.052 171.118413 
L 337.6665 171.692117 
L 340.6545 172.113908 
L 344.763 172.445884 
L 350.3655 172.65665 
L 360.0765 172.770119 
L 389.583 172.799741 
L 494.91 172.8 
L 494.91 172.8 
" style="fill:none;stroke:#ff7f0e;stroke-linecap:square;stroke-width:1.5;"/>
   </g>
   <g id="line2d_33">
    <path clip-path="url(#p077dfb4e30)" d="M 233.46 172.778404 
L 236.8215 172.789809 
L 251.0145 172.653869 
L 256.2435 172.411127 
L 259.9785 172.01898 
L 262.593 171.52978 
L 264.834 170.876863 
L 266.7015 170.088595 
L 268.1955 169.238225 
L 269.6895 168.13231 
L 271.1835 166.701978 
L 272.6775 164.86563 
L 273.798 163.166509 
L 274.9185 161.14562 
L 276.039 158.761943 
L 277.533 154.957389 
L 279.027 150.387892 
L 280.521 145.061178 
L 282.3885 137.519948 
L 286.1235 121.963336 
L 287.244 118.142595 
L 288.3645 115.174026 
L 289.1115 113.779491 
L 289.8585 112.910359 
L 290.232 112.682848 
L 290.6055 112.596059 
L 290.979 112.650509 
L 291.3525 112.845313 
L 292.0995 113.646053 
L 292.8465 114.966235 
L 293.5935 116.756632 
L 294.714 120.183718 
L 296.208 125.748759 
L 301.8105 147.985157 
L 303.3045 152.741806 
L 304.7985 156.77674 
L 306.2925 160.119724 
L 307.7865 162.83948 
L 309.2805 165.021289 
L 310.7745 166.752786 
L 312.2685 168.115423 
L 313.7625 169.180906 
L 315.2565 170.009937 
L 317.124 170.789008 
L 319.365 171.445604 
L 321.9795 171.947901 
L 325.341 172.331403 
L 329.823 172.589302 
L 336.9195 172.740694 
L 352.98 172.796652 
L 494.91 172.8 
L 494.91 172.8 
" style="fill:none;stroke:#2ca02c;stroke-linecap:square;stroke-width:1.5;"/>
   </g>
   <g id="line2d_34">
    <path clip-path="url(#p077dfb4e30)" d="M 233.46 172.77842 
L 236.8215 172.791693 
L 254.7495 172.657334 
L 261.099 172.409273 
L 265.2075 172.051817 
L 268.1955 171.602503 
L 270.81 170.997249 
L 273.051 170.247045 
L 274.9185 169.397598 
L 276.786 168.280444 
L 278.28 167.145709 
L 279.774 165.750914 
L 281.268 164.050482 
L 282.762 161.998879 
L 284.256 159.555319 
L 285.75 156.691759 
L 287.244 153.403279 
L 289.1115 148.747254 
L 292.0995 140.517108 
L 294.3405 134.523205 
L 295.8345 131.119704 
L 296.955 129.087264 
L 297.702 128.041707 
L 298.449 127.274537 
L 299.196 126.804829 
L 299.943 126.644011 
L 300.69 126.795072 
L 301.437 127.252956 
L 302.184 128.004172 
L 302.931 129.028194 
L 304.0515 131.016199 
L 305.5455 134.337687 
L 307.413 139.165166 
L 311.895 151.019052 
L 313.7625 155.265452 
L 315.63 158.898335 
L 317.124 161.356443 
L 318.618 163.439603 
L 320.112 165.183195 
L 321.606 166.628138 
L 323.1 167.816054 
L 324.9675 168.999267 
L 326.835 169.911125 
L 329.076 170.72818 
L 331.6905 171.398745 
L 334.6785 171.906382 
L 338.4135 172.292055 
L 343.269 172.556949 
L 350.739 172.721986 
L 366.426 172.792836 
L 466.8975 172.8 
L 494.91 172.8 
L 494.91 172.8 
" style="fill:none;stroke:#d62728;stroke-linecap:square;stroke-width:1.5;"/>
   </g>
   <g id="line2d_35">
    <path clip-path="url(#p077dfb4e30)" d="M 233.46 172.778389 
L 236.8215 172.791086 
L 252.882 172.658603 
L 258.858 172.404869 
L 262.593 172.050451 
L 265.581 171.551704 
L 267.822 170.973652 
L 269.6895 170.29731 
L 271.557 169.379081 
L 273.051 168.418015 
L 274.545 167.202791 
L 276.039 165.67641 
L 277.533 163.775389 
L 279.027 161.433236 
L 280.521 158.587551 
L 282.015 155.19079 
L 283.509 151.226782 
L 285.3765 145.535875 
L 288.3645 135.409188 
L 290.6055 128.182251 
L 291.726 125.160091 
L 292.8465 122.768002 
L 293.5935 121.598855 
L 294.3405 120.810831 
L 295.0875 120.426737 
L 295.8345 120.456799 
L 296.5815 120.898124 
L 297.3285 121.735119 
L 298.0755 122.940618 
L 299.196 125.356286 
L 300.3165 128.36139 
L 302.184 134.209439 
L 306.666 148.699857 
L 308.5335 153.789751 
L 310.0275 157.270679 
L 311.5215 160.226194 
L 313.0155 162.692029 
L 314.5095 164.72094 
L 316.0035 166.372202 
L 317.4975 167.704626 
L 318.9915 168.77251 
L 320.859 169.807824 
L 322.7265 170.582959 
L 324.9675 171.25687 
L 327.582 171.791275 
L 330.9435 172.217549 
L 335.4255 172.520641 
L 341.775 172.701593 
L 354.1005 172.787033 
L 411.246 172.8 
L 494.91 172.8 
L 494.91 172.8 
" style="fill:none;stroke:#9467bd;stroke-linecap:square;stroke-width:1.5;"/>
   </g>
   <g id="line2d_36">
    <path clip-path="url(#p077dfb4e30)" d="M 233.46 172.778415 
L 236.8215 172.7905 
L 251.388 172.655927 
L 256.9905 172.390937 
L 260.352 172.036116 
L 262.9665 171.560587 
L 265.2075 170.927119 
L 267.075 170.163689 
L 268.569 169.341093 
L 270.063 168.272297 
L 271.557 166.891186 
L 273.051 165.119314 
L 274.1715 163.480338 
L 275.292 161.531108 
L 276.4125 159.231561 
L 277.9065 155.558867 
L 279.4005 151.141358 
L 280.8945 145.978895 
L 282.762 138.636894 
L 286.8705 121.90468 
L 287.991 118.269986 
L 289.1115 115.505668 
L 289.8585 114.24956 
L 290.6055 113.514595 
L 290.979 113.350858 
L 291.3525 113.324907 
L 291.726 113.436568 
L 292.0995 113.684479 
L 292.8465 114.577313 
L 293.5935 115.968658 
L 294.3405 117.807659 
L 295.461 121.265449 
L 296.955 126.800301 
L 302.184 147.306568 
L 303.678 152.110053 
L 305.172 156.211125 
L 306.666 159.627841 
L 308.16 162.421043 
L 309.654 164.671377 
L 311.148 166.463822 
L 312.642 167.879231 
L 314.136 168.98938 
L 315.63 169.8556 
L 317.4975 170.671979 
L 319.7385 171.362412 
L 322.353 171.892322 
L 325.341 172.264432 
L 329.4495 172.541262 
L 335.799 172.716106 
L 348.498 172.791198 
L 428.427 172.8 
L 494.91 172.8 
L 494.91 172.8 
" style="fill:none;stroke:#8c564b;stroke-linecap:square;stroke-width:1.5;"/>
   </g>
   <g id="patch_8">
    <path d="M 233.46 172.8 
L 233.46 43.2 
" style="fill:none;stroke:#000000;stroke-linecap:square;stroke-linejoin:miter;stroke-width:0.8;"/>
   </g>
   <g id="patch_9">
    <path d="M 382.86 172.8 
L 382.86 43.2 
" style="fill:none;stroke:#000000;stroke-linecap:square;stroke-linejoin:miter;stroke-width:0.8;"/>
   </g>
   <g id="patch_10">
    <path d="M 233.46 172.8 
L 382.86 172.8 
" style="fill:none;stroke:#000000;stroke-linecap:square;stroke-linejoin:miter;stroke-width:0.8;"/>
   </g>
   <g id="patch_11">
    <path d="M 233.46 43.2 
L 382.86 43.2 
" style="fill:none;stroke:#000000;stroke-linecap:square;stroke-linejoin:miter;stroke-width:0.8;"/>
   </g>
   <g id="text_22">
    <!-- 未接种率 p = 0.5 -->
    <g transform="translate(263.62125 37.2)scale(0.12 -0.12)">
     <use xlink:href="#STXihei-26410"/>
     <use x="99.999985" xlink:href="#STXihei-25509"/>
     <use x="199.999969" xlink:href="#STXihei-31181"/>
     <use x="299.999954" xlink:href="#STXihei-29575"/>
     <use x="399.999939" xlink:href="#STXihei-32"/>
     <use x="424.999924" xlink:href="#STXihei-112"/>
     <use x="493.199905" xlink:href="#STXihei-32"/>
     <use x="518.19989" xlink:href="#STXihei-61"/>
     <use x="578.799881" xlink:href="#STXihei-32"/>
     <use x="603.799866" xlink:href="#STXihei-48"/>
     <use x="659.19986" xlink:href="#STXihei-46"/>
     <use x="686.899857" xlink:href="#STXihei-53"/>
    </g>
   </g>
  </g>
  <g id="axes_3">
   <g id="patch_12">
    <path d="M 397.8 172.8 
L 547.2 172.8 
L 547.2 43.2 
L 397.8 43.2 
z
" style="fill:#ffffff;"/>
   </g>
   <g id="matplotlib.axis_5">
    <g id="xtick_11">
     <g id="line2d_37">
      <g>
       <use style="stroke:#000000;stroke-width:0.8;" x="397.8" xlink:href="#m355da2f329" y="172.8"/>
      </g>
     </g>
     <g id="text_23">
      <!-- 0 -->
      <g transform="translate(395.029687 187.159375)scale(0.1 -0.1)">
       <use xlink:href="#STXihei-48"/>
      </g>
     </g>
    </g>
    <g id="xtick_12">
     <g id="line2d_38">
      <g>
       <use style="stroke:#000000;stroke-width:0.8;" x="435.15" xlink:href="#m355da2f329" y="172.8"/>
      </g>
     </g>
     <g id="text_24">
      <!-- 100 -->
      <g transform="translate(426.839062 187.159375)scale(0.1 -0.1)">
       <use xlink:href="#STXihei-49"/>
       <use x="55.399994" xlink:href="#STXihei-48"/>
       <use x="110.799988" xlink:href="#STXihei-48"/>
      </g>
     </g>
    </g>
    <g id="xtick_13">
     <g id="line2d_39">
      <g>
       <use style="stroke:#000000;stroke-width:0.8;" x="472.5" xlink:href="#m355da2f329" y="172.8"/>
      </g>
     </g>
     <g id="text_25">
      <!-- 200 -->
      <g transform="translate(464.189062 187.159375)scale(0.1 -0.1)">
       <use xlink:href="#STXihei-50"/>
       <use x="55.399994" xlink:href="#STXihei-48"/>
       <use x="110.799988" xlink:href="#STXihei-48"/>
      </g>
     </g>
    </g>
    <g id="xtick_14">
     <g id="line2d_40">
      <g>
       <use style="stroke:#000000;stroke-width:0.8;" x="509.85" xlink:href="#m355da2f329" y="172.8"/>
      </g>
     </g>
     <g id="text_26">
      <!-- 300 -->
      <g transform="translate(501.539062 187.159375)scale(0.1 -0.1)">
       <use xlink:href="#STXihei-51"/>
       <use x="55.399994" xlink:href="#STXihei-48"/>
       <use x="110.799988" xlink:href="#STXihei-48"/>
      </g>
     </g>
    </g>
    <g id="xtick_15">
     <g id="line2d_41">
      <g>
       <use style="stroke:#000000;stroke-width:0.8;" x="547.2" xlink:href="#m355da2f329" y="172.8"/>
      </g>
     </g>
     <g id="text_27">
      <!-- 400 -->
      <g transform="translate(538.889062 187.159375)scale(0.1 -0.1)">
       <use xlink:href="#STXihei-52"/>
       <use x="55.399994" xlink:href="#STXihei-48"/>
       <use x="110.799988" xlink:href="#STXihei-48"/>
      </g>
     </g>
    </g>
    <g id="text_28">
     <!-- 时间（天） -->
     <g transform="translate(435 210.139063)scale(0.15 -0.15)">
      <use xlink:href="#STXihei-26102"/>
      <use x="99.999985" xlink:href="#STXihei-38388"/>
      <use x="199.999969" xlink:href="#STXihei-65288"/>
      <use x="299.999954" xlink:href="#STXihei-22825"/>
      <use x="399.999939" xlink:href="#STXihei-65289"/>
     </g>
    </g>
   </g>
   <g id="matplotlib.axis_6">
    <g id="ytick_15">
     <g id="line2d_42">
      <g>
       <use style="stroke:#000000;stroke-width:0.8;" x="397.8" xlink:href="#mcc8a260471" y="172.8"/>
      </g>
     </g>
    </g>
    <g id="ytick_16">
     <g id="line2d_43">
      <g>
       <use style="stroke:#000000;stroke-width:0.8;" x="397.8" xlink:href="#mcc8a260471" y="151.2"/>
      </g>
     </g>
    </g>
    <g id="ytick_17">
     <g id="line2d_44">
      <g>
       <use style="stroke:#000000;stroke-width:0.8;" x="397.8" xlink:href="#mcc8a260471" y="129.6"/>
      </g>
     </g>
    </g>
    <g id="ytick_18">
     <g id="line2d_45">
      <g>
       <use style="stroke:#000000;stroke-width:0.8;" x="397.8" xlink:href="#mcc8a260471" y="108"/>
      </g>
     </g>
    </g>
    <g id="ytick_19">
     <g id="line2d_46">
      <g>
       <use style="stroke:#000000;stroke-width:0.8;" x="397.8" xlink:href="#mcc8a260471" y="86.4"/>
      </g>
     </g>
    </g>
    <g id="ytick_20">
     <g id="line2d_47">
      <g>
       <use style="stroke:#000000;stroke-width:0.8;" x="397.8" xlink:href="#mcc8a260471" y="64.8"/>
      </g>
     </g>
    </g>
    <g id="ytick_21">
     <g id="line2d_48">
      <g>
       <use style="stroke:#000000;stroke-width:0.8;" x="397.8" xlink:href="#mcc8a260471" y="43.2"/>
      </g>
     </g>
    </g>
   </g>
   <g id="line2d_49">
    <path clip-path="url(#p3abbb9ee79)" d="M 397.8 172.782885 
L 401.9085 172.794797 
L 441.126 172.667596 
L 454.1985 172.412714 
L 462.4155 172.044767 
L 468.765 171.544006 
L 473.994 170.905945 
L 478.476 170.130174 
L 482.5845 169.179929 
L 486.3195 168.079514 
L 490.0545 166.731816 
L 493.7895 165.140738 
L 498.2715 162.979136 
L 505.7415 159.333597 
L 508.7295 158.155855 
L 510.9705 157.484625 
L 513.2115 157.040789 
L 515.4525 156.852109 
L 517.32 156.898766 
L 519.561 157.195512 
L 521.802 157.735365 
L 524.4165 158.62598 
L 527.4045 159.900082 
L 532.26 162.266931 
L 538.236 165.14043 
L 542.3445 166.852137 
L 546.0795 168.158519 
L 549.8145 169.225764 
L 553.923 170.149891 
L 558.405 170.90752 
L 563.2605 171.497452 
L 569.2365 171.984419 
L 576.7065 172.349455 
L 577 172.359865 
L 577 172.359865 
" style="fill:none;stroke:#1f77b4;stroke-linecap:square;stroke-width:1.5;"/>
   </g>
   <g id="line2d_50">
    <path clip-path="url(#p3abbb9ee79)" d="M 397.8 172.778379 
L 401.1615 172.794205 
L 454.572 172.652974 
L 471.753 172.389971 
L 482.958 172.009736 
L 491.5485 171.510237 
L 499.0185 170.855929 
L 505.7415 170.039633 
L 512.091 169.044268 
L 519.1875 167.692668 
L 534.8745 164.592931 
L 539.3565 164.019011 
L 543.0915 163.755056 
L 546.8265 163.713543 
L 550.5615 163.897888 
L 554.67 164.338879 
L 559.152 165.047154 
L 565.5015 166.294279 
L 577 168.614703 
L 577 168.614703 
" style="fill:none;stroke:#ff7f0e;stroke-linecap:square;stroke-width:1.5;"/>
   </g>
   <g id="line2d_51">
    <path clip-path="url(#p3abbb9ee79)" d="M 397.8 172.781605 
L 401.535 172.794408 
L 442.9935 172.664538 
L 456.813 172.410722 
L 465.777 172.034211 
L 472.5 171.538462 
L 478.1025 170.905044 
L 482.958 170.131161 
L 487.44 169.181899 
L 491.5485 168.081834 
L 495.657 166.750431 
L 500.139 165.060581 
L 512.4645 160.222037 
L 515.4525 159.402277 
L 518.067 158.926101 
L 520.308 158.725925 
L 522.549 158.729825 
L 524.79 158.937101 
L 527.4045 159.418869 
L 530.019 160.123844 
L 533.3805 161.277697 
L 538.6095 163.367015 
L 545.706 166.173119 
L 550.188 167.688583 
L 554.2965 168.844717 
L 558.405 169.780477 
L 562.887 170.576802 
L 568.116 171.261983 
L 574.092 171.800887 
L 577 171.992277 
L 577 171.992277 
" style="fill:none;stroke:#2ca02c;stroke-linecap:square;stroke-width:1.5;"/>
   </g>
   <g id="line2d_52">
    <path clip-path="url(#p3abbb9ee79)" d="M 397.8 172.778024 
L 401.1615 172.794682 
L 463.1625 172.669728 
L 484.0785 172.422063 
L 497.898 172.048916 
L 508.7295 171.538246 
L 518.067 170.87234 
L 526.6575 170.035727 
L 535.995 168.895938 
L 553.923 166.640401 
L 559.5255 166.199789 
L 564.7545 166.011809 
L 569.61 166.053958 
L 574.839 166.326281 
L 577 166.499744 
L 577 166.499744 
" style="fill:none;stroke:#d62728;stroke-linecap:square;stroke-width:1.5;"/>
   </g>
   <g id="line2d_53">
    <path clip-path="url(#p3abbb9ee79)" d="M 397.8 172.780705 
L 401.535 172.794867 
L 452.7045 172.669061 
L 469.8855 172.414902 
L 480.717 172.048406 
L 489.3075 171.538583 
L 496.404 170.892689 
L 502.7535 170.08452 
L 508.7295 169.090499 
L 514.7055 167.86883 
L 523.296 165.848409 
L 530.3925 164.255806 
L 534.8745 163.485032 
L 538.6095 163.073268 
L 541.971 162.920294 
L 545.3325 162.987095 
L 548.694 163.267457 
L 552.429 163.799006 
L 556.911 164.66919 
L 564.0075 166.311807 
L 572.9715 168.342802 
L 577 169.127456 
L 577 169.127456 
" style="fill:none;stroke:#9467bd;stroke-linecap:square;stroke-width:1.5;"/>
   </g>
   <g id="line2d_54">
    <path clip-path="url(#p3abbb9ee79)" d="M 397.8 172.782537 
L 401.9085 172.794901 
L 444.4875 172.670177 
L 458.6805 172.42045 
L 467.6445 172.058643 
L 474.3675 171.584826 
L 479.97 170.981885 
L 484.8255 170.247164 
L 489.3075 169.347205 
L 493.416 168.304465 
L 497.5245 167.040708 
L 502.0065 165.430547 
L 515.4525 160.375344 
L 518.4405 159.626758 
L 521.055 159.209871 
L 523.296 159.054342 
L 525.537 159.094299 
L 528.1515 159.383632 
L 530.766 159.912424 
L 533.754 160.760098 
L 537.489 162.076106 
L 552.0555 167.49762 
L 556.164 168.668437 
L 560.646 169.702865 
L 565.128 170.507474 
L 570.357 171.204648 
L 576.333 171.75705 
L 577 171.805838 
L 577 171.805838 
" style="fill:none;stroke:#8c564b;stroke-linecap:square;stroke-width:1.5;"/>
   </g>
   <g id="patch_13">
    <path d="M 397.8 172.8 
L 397.8 43.2 
" style="fill:none;stroke:#000000;stroke-linecap:square;stroke-linejoin:miter;stroke-width:0.8;"/>
   </g>
   <g id="patch_14">
    <path d="M 547.2 172.8 
L 547.2 43.2 
" style="fill:none;stroke:#000000;stroke-linecap:square;stroke-linejoin:miter;stroke-width:0.8;"/>
   </g>
   <g id="patch_15">
    <path d="M 397.8 172.8 
L 547.2 172.8 
" style="fill:none;stroke:#000000;stroke-linecap:square;stroke-linejoin:miter;stroke-width:0.8;"/>
   </g>
   <g id="patch_16">
    <path d="M 397.8 43.2 
L 547.2 43.2 
" style="fill:none;stroke:#000000;stroke-linecap:square;stroke-linejoin:miter;stroke-width:0.8;"/>
   </g>
   <g id="text_29">
    <!-- 未接种率 p = 0.1 -->
    <g transform="translate(427.96125 37.2)scale(0.12 -0.12)">
     <use xlink:href="#STXihei-26410"/>
     <use x="99.999985" xlink:href="#STXihei-25509"/>
     <use x="199.999969" xlink:href="#STXihei-31181"/>
     <use x="299.999954" xlink:href="#STXihei-29575"/>
     <use x="399.999939" xlink:href="#STXihei-32"/>
     <use x="424.999924" xlink:href="#STXihei-112"/>
     <use x="493.199905" xlink:href="#STXihei-32"/>
     <use x="518.19989" xlink:href="#STXihei-61"/>
     <use x="578.799881" xlink:href="#STXihei-32"/>
     <use x="603.799866" xlink:href="#STXihei-48"/>
     <use x="659.19986" xlink:href="#STXihei-46"/>
     <use x="686.899857" xlink:href="#STXihei-49"/>
    </g>
   </g>
  </g>
  <g id="legend_1">
   <g id="line2d_55">
    <path d="M 119 12.959375 
L 139 12.959375 
" style="fill:none;stroke:#1f77b4;stroke-linecap:square;stroke-width:1.5;"/>
   </g>
   <g id="line2d_56"/>
   <g id="text_30">
    <!-- 湖北省 -->
    <defs>
     <path d="M 51.296875 6.40625 
L 34 6.40625 
L 34 -4.59375 
L 27.703125 -4.59375 
Q 28.5 2.203125 28.5 7.40625 
L 28.5 22.59375 
Q 28.5 30.296875 28 33.5 
Q 31.59375 33.203125 39.59375 33 
L 39.59375 48.59375 
Q 30.203125 48.40625 24.796875 47.703125 
L 24.796875 54.203125 
Q 30.203125 53.5 39.59375 53.296875 
L 39.59375 66.796875 
Q 39.59375 72.59375 38.796875 75.59375 
Q 41.703125 75.203125 46.09375 75.203125 
Q 47.796875 75.203125 47.796875 74.34375 
Q 47.796875 73.5 46.546875 72.5 
Q 45.296875 71.5 45.296875 66.90625 
L 45.296875 53.296875 
Q 54.703125 53.5 60.203125 54.203125 
L 60.203125 47.703125 
Q 54.703125 48.40625 45.296875 48.59375 
L 45.296875 33 
Q 52.90625 33.203125 57.40625 33.59375 
Q 56.796875 30.59375 56.796875 22.59375 
L 56.796875 9.5 
Q 56.796875 4.40625 57.5 -2.296875 
L 51.296875 -2.296875 
z
M 34 11.09375 
L 51.296875 11.09375 
L 51.296875 28.5 
L 34 28.5 
z
M 26.90625 59.90625 
L 22.59375 55 
Q 17.09375 61.203125 7.796875 67.296875 
L 11.59375 72.09375 
Q 19.796875 66.296875 26.90625 59.90625 
z
M 84.59375 17.703125 
L 68.296875 17.703125 
Q 67.90625 7.40625 66.296875 0.40625 
Q 64.703125 -6.59375 59.09375 -15.90625 
Q 56.59375 -13.703125 51.796875 -13 
Q 58.796875 -6.296875 60.890625 3.140625 
Q 63 12.59375 63 42.90625 
L 63 57 
Q 63 64.296875 62.59375 69.59375 
Q 68 69.203125 76.5 69.203125 
Q 85 69.203125 90.5 69.59375 
Q 90.296875 60.40625 90.296875 57 
L 90.296875 -3.703125 
Q 90.296875 -8.203125 89.390625 -10.140625 
Q 88.5 -12.09375 85.390625 -13 
Q 82.296875 -13.90625 75 -14.296875 
Q 75.203125 -10.703125 72.59375 -7.296875 
Q 76.703125 -7.796875 78.90625 -7.796875 
Q 82.59375 -7.796875 83.59375 -6.34375 
Q 84.59375 -4.90625 84.59375 -0.796875 
z
M 68.703125 45.296875 
L 84.59375 45.296875 
L 84.59375 64 
L 68.703125 64 
z
M 84.59375 40.5 
L 68.703125 40.5 
Q 68.703125 26.90625 68.5 22.5 
L 84.59375 22.5 
z
M 25.296875 35.703125 
L 21.09375 31.203125 
Q 14.59375 37.59375 6.59375 42.796875 
L 9.703125 47.40625 
Q 18.40625 41.796875 25.296875 35.703125 
z
M 23.90625 20.90625 
Q 17.5 4.59375 11.796875 -12.59375 
Q 8.703125 -10.296875 4.90625 -9.40625 
Q 13.09375 5.296875 18.09375 24.203125 
Q 20.296875 21.90625 23.90625 20.90625 
z
" id="STXihei-28246"/>
     <path d="M 33.703125 43.5 
L 33.703125 53.40625 
Q 33.703125 67.203125 32.796875 72.796875 
Q 37.09375 71.703125 41.5 71.703125 
Q 43.09375 71.703125 43.09375 71.09375 
Q 43.09375 70.5 42.1875 69.953125 
Q 41.296875 69.40625 40.640625 68 
Q 40 66.59375 40 65.09375 
L 40 1.90625 
Q 40 -6.5 40.796875 -13.09375 
L 32.796875 -13.09375 
Q 33.703125 -5.5 33.703125 1.90625 
L 33.703125 10.796875 
Q 23 4.703125 8.703125 -5 
Q 8 -1.59375 4.59375 1.90625 
Q 17.5 6.703125 33.703125 16.90625 
L 33.703125 38.703125 
L 20.90625 38.703125 
Q 13 38.703125 7.203125 38 
L 7.203125 44.296875 
Q 12.796875 43.5 20.90625 43.5 
z
M 64.203125 41 
Q 80.203125 45.796875 89.09375 51.5 
Q 91 47.5 93.296875 45.5 
Q 94.40625 44.59375 94.40625 43.84375 
Q 94.40625 43.09375 92.5 43.09375 
L 91.203125 43.203125 
Q 88.703125 43.203125 83.09375 41.640625 
Q 77.5 40.09375 64.203125 35.5 
L 64.203125 0.796875 
Q 64.203125 -1.40625 65.046875 -2.59375 
Q 65.90625 -3.796875 68.453125 -4.34375 
Q 71 -4.90625 77.25 -4.90625 
Q 83.5 -4.90625 85.953125 -3.75 
Q 88.40625 -2.59375 89.09375 -0.25 
Q 89.796875 2.09375 89.796875 5.796875 
Q 92.90625 2.796875 96.40625 1.796875 
Q 95.296875 -3.796875 93.390625 -6.296875 
Q 91.5 -8.796875 87.703125 -9.640625 
Q 83.90625 -10.5 75.90625 -10.5 
Q 67.90625 -10.5 64.15625 -9.59375 
Q 60.40625 -8.703125 59.25 -6.640625 
Q 58.09375 -4.59375 58.09375 -0.296875 
L 58.09375 55.796875 
Q 58.09375 68.59375 57.5 72.703125 
Q 59.703125 72.203125 61.796875 72.140625 
Q 63.90625 72.09375 65.40625 72.09375 
Q 66.90625 72.09375 66.90625 71.640625 
Q 66.90625 71.203125 65.90625 70.09375 
Q 64.203125 68.203125 64.203125 55.796875 
z
" id="STXihei-21271"/>
     <path d="M 46.90625 41 
L 46.90625 65.40625 
Q 46.90625 71.90625 45.796875 75.5 
Q 51 74.59375 53.34375 74.5 
Q 55.703125 74.40625 55.703125 73.59375 
Q 55.703125 72.796875 54.59375 72.203125 
Q 53 71.296875 53 68.703125 
L 53 43.296875 
Q 68.5 49.90625 73 55.203125 
Q 75.796875 52.203125 78.59375 50.59375 
Q 79.5 50.09375 79.5 49.203125 
Q 79.5 47.90625 78.09375 47.90625 
Q 73.40625 47.90625 69.5 45.59375 
Q 56.90625 38.09375 31.90625 32.09375 
Q 39.703125 31.796875 56.546875 31.796875 
Q 73.40625 31.796875 82.09375 32.703125 
Q 81.5 29.59375 81.5 25 
L 81.5 -5.59375 
Q 81.5 -10.40625 82.203125 -15.59375 
L 75.59375 -15.59375 
L 75.59375 -9 
L 28.296875 -9 
L 28.296875 -16 
L 21.5 -16 
Q 22.203125 -11.203125 22.203125 -6 
L 22.203125 29.796875 
L 8.796875 27.203125 
Q 8.796875 30.703125 6 34.203125 
Q 26.59375 34.59375 46.90625 41 
z
M 28.296875 19.40625 
L 75.59375 19.40625 
L 75.59375 27.296875 
L 28.296875 27.296875 
z
M 75.59375 14.90625 
L 28.296875 14.90625 
L 28.296875 7.90625 
L 75.59375 7.90625 
z
M 28.296875 3.59375 
L 28.296875 -4.40625 
L 75.59375 -4.40625 
L 75.59375 3.59375 
z
M 94.703125 50.5 
L 89.703125 46.203125 
Q 78.5 57.59375 68.09375 63.90625 
L 71.203125 68.09375 
Q 84.59375 59.296875 94.703125 50.5 
z
M 30.90625 67.40625 
Q 33.5 64.59375 36.203125 63.59375 
Q 37.40625 63.09375 37.40625 62.546875 
Q 37.40625 62 35.75 61.34375 
Q 34.09375 60.703125 29.5 55.90625 
Q 22.40625 48.40625 13.296875 41.203125 
Q 10.59375 45.5 7.5 45.796875 
Q 21.796875 52.59375 30.90625 67.40625 
z
" id="STXihei-30465"/>
    </defs>
    <g transform="translate(147 16.459375)scale(0.1 -0.1)">
     <use xlink:href="#STXihei-28246"/>
     <use x="99.999985" xlink:href="#STXihei-21271"/>
     <use x="199.999969" xlink:href="#STXihei-30465"/>
    </g>
   </g>
   <g id="line2d_57">
    <path d="M 197 12.959375 
L 217 12.959375 
" style="fill:none;stroke:#ff7f0e;stroke-linecap:square;stroke-width:1.5;"/>
   </g>
   <g id="line2d_58"/>
   <g id="text_31">
    <!-- 上海市 -->
    <defs>
     <path d="M 50.703125 43 
Q 83.203125 43 85.90625 43.796875 
L 85.90625 37.203125 
Q 83.203125 37.90625 50.703125 37.90625 
L 50.703125 -3.703125 
Q 83.5 -3.703125 93.5 -2.90625 
L 93.5 -9.59375 
Q 80.203125 -8.796875 51.59375 -8.796875 
Q 23 -8.796875 6.796875 -9.59375 
L 6.796875 -2.90625 
Q 21.796875 -3.703125 44.09375 -3.703125 
L 44.09375 60.90625 
Q 44.09375 69.703125 43.5 73.296875 
Q 47.40625 72.296875 52.203125 72.296875 
Q 53.5 72.296875 53.5 71.6875 
Q 53.5 71.09375 52.09375 70.25 
Q 50.703125 69.40625 50.703125 65.59375 
z
" id="STXihei-19978"/>
     <path d="M 47.5 64 
L 69.59375 64 
Q 82 64 91 64.703125 
L 91 58.40625 
Q 82 59.09375 69.59375 59.09375 
L 44.90625 59.09375 
Q 40 50.203125 34 42.796875 
Q 31.40625 45.59375 28.296875 46.796875 
Q 42.40625 59.796875 45.59375 76.703125 
Q 49.09375 74.40625 52.90625 73.90625 
Q 53.796875 73.796875 53.796875 73.140625 
Q 53.796875 72.5 52.59375 71.84375 
Q 51.40625 71.203125 50.90625 70.5 
Q 50.40625 69.796875 49 66.9375 
Q 47.59375 64.09375 47.5 64 
z
M 32.09375 61.09375 
L 28.296875 56.296875 
Q 21.796875 62.203125 10 68.59375 
L 13.203125 73.5 
Q 22.796875 68.09375 32.09375 61.09375 
z
M 39.59375 27.09375 
L 41.09375 50.296875 
Q 49.5 49.796875 62.5 49.796875 
Q 75.5 49.796875 83.796875 50.296875 
L 83.203125 27.09375 
Q 91.296875 27.09375 95.703125 27.5 
L 95.703125 21.90625 
Q 91.296875 22.296875 83.09375 22.296875 
L 82.703125 4.09375 
Q 87.203125 4.09375 92.703125 4.5 
L 92.703125 -1 
Q 87.203125 -0.59375 82.59375 -0.59375 
Q 82.59375 -10.09375 79.796875 -12.796875 
Q 77 -15.5 65.59375 -15.90625 
Q 65.90625 -12.40625 62.90625 -8.703125 
Q 67.90625 -9.59375 71.15625 -9.59375 
Q 74.40625 -9.59375 75.65625 -7.59375 
Q 76.90625 -5.59375 77 -0.59375 
L 54.703125 -0.59375 
Q 44.09375 -0.59375 37.703125 -1.5 
L 39.296875 22.296875 
Q 35.09375 22.296875 29.5 21.90625 
L 29.5 27.5 
Q 33.5 27.09375 39.59375 27.09375 
z
M 45.09375 27.09375 
L 77.40625 27.09375 
L 77.703125 45.09375 
L 46.203125 45.09375 
z
M 68.90625 32.09375 
L 64.5 28.296875 
Q 61.40625 33.09375 54.203125 38.296875 
L 57.40625 42.09375 
Q 61.90625 39.296875 68.90625 32.09375 
z
M 77.40625 22.296875 
L 44.796875 22.296875 
L 43.703125 4.09375 
L 77.09375 4.09375 
z
M 68.5 9.296875 
L 64.203125 5.40625 
Q 61.09375 9.796875 53.90625 15.703125 
L 57.703125 19.40625 
Q 62.90625 15.5 68.5 9.296875 
z
M 26.796875 37.5 
L 22.90625 32.5 
Q 14.5 39.703125 4.59375 44 
L 7.703125 49.09375 
Q 17.09375 44.203125 26.796875 37.5 
z
M 28.203125 19.796875 
Q 21.203125 7.5 12.59375 -13.5 
Q 9.5 -10.5 5.796875 -9.09375 
Q 16.59375 6.796875 22.90625 23.703125 
Q 25.296875 20.796875 28.203125 19.796875 
z
" id="STXihei-28023"/>
     <path d="M 45.796875 62.09375 
Q 43.40625 67 39.09375 73.203125 
L 45 76.203125 
Q 49.703125 69.296875 52.296875 62.09375 
Q 82.796875 62.09375 93.796875 63.09375 
L 93.796875 55.90625 
Q 82.90625 56.90625 53 56.90625 
L 53 42.5 
Q 69.796875 42.5 83.09375 43.59375 
Q 82.703125 39.703125 82.703125 32 
L 82.703125 7.09375 
Q 82.703125 0.703125 78.953125 -0.84375 
Q 75.203125 -2.40625 65.703125 -2.5 
Q 65.90625 2.09375 63.203125 5.296875 
Q 69 4.40625 71.59375 4.40625 
Q 74.203125 4.40625 75.5 5.296875 
Q 76.796875 6.203125 76.796875 10.09375 
L 76.796875 37.5 
L 53 37.5 
L 53 0.59375 
Q 53 -6.5 54 -16.59375 
L 45.796875 -16.59375 
Q 46.796875 -7.90625 46.796875 0.59375 
L 46.796875 37.5 
L 23.59375 37.5 
L 23.59375 -2 
L 16.90625 -2 
Q 17.703125 4 17.703125 11.703125 
L 17.703125 32 
Q 17.703125 38.90625 17 43.59375 
Q 30 42.5 46.796875 42.5 
L 46.796875 56.90625 
Q 17.5 56.90625 6.203125 55.90625 
L 6.203125 63.09375 
Q 19 62.09375 45.796875 62.09375 
z
" id="STXihei-24066"/>
    </defs>
    <g transform="translate(225 16.459375)scale(0.1 -0.1)">
     <use xlink:href="#STXihei-19978"/>
     <use x="99.999985" xlink:href="#STXihei-28023"/>
     <use x="199.999969" xlink:href="#STXihei-24066"/>
    </g>
   </g>
   <g id="line2d_59">
    <path d="M 275 12.959375 
L 295 12.959375 
" style="fill:none;stroke:#2ca02c;stroke-linecap:square;stroke-width:1.5;"/>
   </g>
   <g id="line2d_60"/>
   <g id="text_32">
    <!-- 江苏省 -->
    <defs>
     <path d="M 32.59375 59 
L 28.09375 54.5 
Q 19.90625 62.203125 11.59375 67.40625 
L 15.296875 72.5 
Q 25 66 32.59375 59 
z
M 59.90625 58.296875 
Q 43.703125 58.296875 35.296875 57.40625 
L 35.296875 64.40625 
Q 44.796875 63.5 63.796875 63.5 
Q 82.796875 63.5 92.296875 64.40625 
L 92.296875 57.40625 
Q 83.296875 58.296875 66.09375 58.296875 
L 66.09375 -3 
Q 86.59375 -2.796875 95.796875 -2 
L 95.796875 -9.203125 
Q 84.796875 -8.296875 62.59375 -8.296875 
Q 40.40625 -8.296875 29 -9.203125 
L 29 -2 
Q 39 -3 59.90625 -3 
z
M 27.703125 34.796875 
L 23.296875 30.09375 
Q 15.703125 37.796875 5.703125 43.703125 
L 9.296875 49 
Q 18.90625 42.90625 27.703125 34.796875 
z
M 34.5 20.59375 
Q 26.5 7.59375 11.796875 -13.59375 
Q 9 -10.703125 5.203125 -8.59375 
Q 10.296875 -4.40625 18.25 7.046875 
Q 26.203125 18.5 29.09375 25.59375 
Q 31.09375 23.09375 34.5 20.59375 
z
" id="STXihei-27743"/>
     <path d="M 63.296875 62.296875 
Q 63.296875 69.59375 62.5 73.90625 
Q 64.5 73.40625 70.40625 73.40625 
Q 71.703125 73.40625 71.703125 72.796875 
Q 71.703125 72.203125 70.546875 71.453125 
Q 69.40625 70.703125 69.40625 67.40625 
L 69.40625 62.296875 
Q 84.40625 62.296875 94.40625 63.09375 
L 94.40625 56.40625 
Q 85.09375 57.09375 69.40625 57.296875 
L 69.40625 45.796875 
L 63.296875 45.796875 
L 63.296875 57.296875 
L 37.40625 57.296875 
L 37.40625 45.203125 
L 31.40625 45.203125 
L 31.40625 57.296875 
Q 14.5 57.296875 5.59375 56.40625 
L 5.59375 63.09375 
Q 13.40625 62.296875 31.40625 62.296875 
Q 31.40625 68.90625 30.703125 73.59375 
Q 33.5 73 38.296875 73 
Q 39.5 73 39.5 72.5 
Q 39.5 72 38.453125 70.796875 
Q 37.40625 69.59375 37.40625 66.90625 
L 37.40625 62.296875 
z
M 49.5 32.203125 
Q 48.796875 14.09375 41.796875 3.5 
Q 34.796875 -7.09375 19.203125 -15.40625 
Q 16.5 -12.296875 11.90625 -10.5 
Q 28.5 -4.40625 35.890625 5.390625 
Q 43.296875 15.203125 43.90625 32.203125 
Q 19.796875 32.203125 12.90625 31.296875 
L 12.90625 37.796875 
Q 21.5 36.90625 44.09375 36.90625 
Q 44.09375 43.40625 43.5 49.796875 
Q 45.796875 49.09375 51.5 49.09375 
Q 52.703125 49.09375 52.703125 48.34375 
Q 52.703125 47.59375 51.75 46.75 
Q 50.796875 45.90625 50.390625 44.046875 
Q 50 42.203125 49.703125 36.90625 
Q 69.296875 36.90625 77.703125 37.796875 
Q 76.40625 33.796875 75.796875 26.796875 
L 73.90625 3 
Q 73.40625 -3.296875 71.5 -6.546875 
Q 69.59375 -9.796875 65.140625 -11.296875 
Q 60.703125 -12.796875 51.90625 -13.296875 
Q 51.296875 -8.296875 48.09375 -5.09375 
Q 54.703125 -6.203125 58.890625 -6.203125 
Q 63.09375 -6.203125 65.25 -4.390625 
Q 67.40625 -2.59375 67.796875 3 
L 70.09375 32.203125 
z
M 24.296875 25.90625 
Q 27.296875 23.5 30.40625 22.703125 
Q 31.40625 22.5 31.40625 21.75 
Q 31.40625 21 30.34375 20.640625 
Q 29.296875 20.296875 26.75 16.75 
Q 24.203125 13.203125 17.5 2.203125 
Q 14.90625 4.40625 10.90625 5.09375 
Q 20.296875 14.703125 24.296875 25.90625 
z
M 96.703125 5.203125 
L 91.296875 1.5 
Q 84.796875 13.59375 77 21.296875 
L 81.59375 24.796875 
Q 89.703125 16.40625 96.703125 5.203125 
z
" id="STXihei-33487"/>
    </defs>
    <g transform="translate(303 16.459375)scale(0.1 -0.1)">
     <use xlink:href="#STXihei-27743"/>
     <use x="99.999985" xlink:href="#STXihei-33487"/>
     <use x="199.999969" xlink:href="#STXihei-30465"/>
    </g>
   </g>
   <g id="line2d_61">
    <path d="M 353 12.959375 
L 373 12.959375 
" style="fill:none;stroke:#d62728;stroke-linecap:square;stroke-width:1.5;"/>
   </g>
   <g id="line2d_62"/>
   <g id="text_33">
    <!-- 北京市 -->
    <defs>
     <path d="M 48 62.703125 
Q 45.40625 67.90625 40.703125 73.90625 
L 46.5 77.40625 
Q 50.703125 70.296875 54.59375 62.703125 
Q 79 62.703125 93.90625 63.5 
L 93.90625 57 
Q 77.59375 57.796875 50.4375 57.796875 
Q 23.296875 57.796875 7.09375 57 
L 7.09375 63.5 
Q 22.59375 62.703125 48 62.703125 
z
M 53.796875 22.09375 
L 53.796875 -7.296875 
Q 53.796875 -10.703125 52.6875 -12.34375 
Q 51.59375 -14 47.9375 -14.84375 
Q 44.296875 -15.703125 36.40625 -16 
Q 36.203125 -11.796875 33 -8.09375 
Q 38.796875 -9 41.890625 -9 
Q 45 -9 46.390625 -8.046875 
Q 47.796875 -7.09375 47.796875 -3.796875 
L 47.796875 22.09375 
Q 29.90625 22.09375 21.40625 21.703125 
Q 22 28.796875 22 35.890625 
Q 22 43 21.40625 50 
Q 33.09375 49.5 50.4375 49.5 
Q 67.796875 49.5 79.40625 50 
Q 79.09375 42.59375 79.09375 34.75 
Q 79.09375 26.90625 79.40625 21.796875 
Q 69.90625 22.09375 53.796875 22.09375 
z
M 73 27.09375 
L 73 44.40625 
L 28.203125 44.40625 
L 28.203125 27.09375 
z
M 29.5 18.203125 
Q 31.796875 15.59375 34.09375 14.59375 
Q 35.59375 13.90625 35.59375 13.25 
Q 35.59375 12.59375 33.796875 12 
Q 32.40625 11.5 27.703125 6.796875 
Q 20.203125 -0.703125 11.59375 -7.203125 
Q 9.90625 -3.90625 6.40625 -2.203125 
Q 20.90625 5.796875 29.5 18.203125 
z
M 90.90625 -2.203125 
L 85.703125 -7.09375 
Q 75.40625 4.5 64.40625 12.5 
L 68.40625 16.90625 
Q 81.5 6.296875 90.90625 -2.203125 
z
" id="STXihei-20140"/>
    </defs>
    <g transform="translate(381 16.459375)scale(0.1 -0.1)">
     <use xlink:href="#STXihei-21271"/>
     <use x="99.999985" xlink:href="#STXihei-20140"/>
     <use x="199.999969" xlink:href="#STXihei-24066"/>
    </g>
   </g>
   <g id="line2d_63">
    <path d="M 431 12.959375 
L 451 12.959375 
" style="fill:none;stroke:#9467bd;stroke-linecap:square;stroke-width:1.5;"/>
   </g>
   <g id="line2d_64"/>
   <g id="text_34">
    <!-- 天津市 -->
    <defs>
     <path d="M 55.796875 32.5 
Q 41.296875 32.5 35.296875 31.703125 
L 35.296875 37.796875 
Q 42.5 36.90625 55.796875 36.90625 
L 55.796875 45.90625 
L 45.09375 45.90625 
Q 35.5 45.90625 28.296875 45.203125 
L 28.296875 51.09375 
Q 36.296875 50.5 45.296875 50.5 
L 55.796875 50.5 
L 55.796875 59.5 
Q 41.296875 59.5 34.796875 58.796875 
L 34.796875 64.796875 
Q 41.90625 64 55.796875 64 
Q 55.703125 74 55 77.09375 
Q 58.59375 76.40625 62.59375 76.40625 
Q 63.796875 76.40625 63.796875 75.703125 
Q 63.796875 75 63 73.796875 
Q 62.203125 72.59375 62.203125 71.203125 
L 62.203125 64 
Q 79.296875 64 85.796875 64.796875 
Q 85 61.09375 85 50.5 
Q 92 50.5 96.296875 51.09375 
L 96.296875 45.40625 
Q 92.703125 45.90625 85 45.90625 
Q 85 37.09375 85.703125 31.703125 
Q 78.40625 32.5 62.203125 32.5 
L 62.203125 22.5 
Q 82.59375 22.5 89.296875 23.296875 
L 89.296875 17.09375 
Q 82.59375 17.90625 62.203125 17.90625 
L 62.203125 8 
Q 84.296875 8 95.40625 8.703125 
L 95.40625 2.5 
Q 84.296875 3.203125 62.203125 3.203125 
Q 62.203125 -8.796875 62.796875 -15.90625 
L 55.203125 -15.90625 
Q 55.796875 -9.09375 55.796875 3.203125 
Q 35.90625 3.203125 25.59375 2.5 
L 25.59375 8.703125 
Q 35.90625 8 55.796875 8 
L 55.796875 17.90625 
Q 41.203125 17.703125 32.40625 17.09375 
L 32.40625 23.296875 
Q 39.59375 22.5 55.796875 22.5 
z
M 78.59375 50.5 
L 78.59375 59.5 
L 62.203125 59.5 
L 62.203125 50.5 
z
M 62.203125 36.90625 
L 78.59375 36.90625 
L 78.59375 45.90625 
L 62.203125 45.90625 
z
M 29.90625 61.59375 
L 25.703125 56.59375 
Q 19.796875 62.09375 8.5 67.90625 
L 11.59375 73 
Q 21.203125 67.703125 29.90625 61.59375 
z
M 25.703125 36.59375 
L 21.703125 31.703125 
Q 15.09375 38.296875 4.296875 44 
L 7.40625 49 
Q 18.296875 42.703125 25.703125 36.59375 
z
M 27.5 17.59375 
Q 19.796875 3.203125 11.296875 -13.796875 
Q 8 -11.09375 4.203125 -10.09375 
Q 13.40625 0.40625 21.40625 21.40625 
Q 23.796875 18.5 27.5 17.59375 
z
" id="STXihei-27941"/>
    </defs>
    <g transform="translate(459 16.459375)scale(0.1 -0.1)">
     <use xlink:href="#STXihei-22825"/>
     <use x="99.999985" xlink:href="#STXihei-27941"/>
     <use x="199.999969" xlink:href="#STXihei-24066"/>
    </g>
   </g>
   <g id="line2d_65">
    <path d="M 509 12.959375 
L 529 12.959375 
" style="fill:none;stroke:#8c564b;stroke-linecap:square;stroke-width:1.5;"/>
   </g>
   <g id="line2d_66"/>
   <g id="text_35">
    <!-- 广东省 -->
    <defs>
     <path d="M 62 63.59375 
L 56.5 59.796875 
Q 52.59375 66.796875 46.703125 72.703125 
L 51.296875 76.5 
Q 57.5 70.296875 62 63.59375 
z
M 94.203125 53.09375 
Q 87.09375 53.703125 68.09375 53.703125 
L 26.296875 53.703125 
Q 26.90625 42.40625 26.90625 34.09375 
Q 26.90625 16.59375 24.25 6.09375 
Q 21.59375 -4.40625 14.59375 -15.09375 
Q 11.5 -12 7.5 -11.59375 
Q 14.796875 -4 17.84375 6.953125 
Q 20.90625 17.90625 20.90625 35.296875 
Q 20.90625 45.90625 19.796875 59.59375 
Q 26 58.90625 57.453125 58.90625 
Q 88.90625 58.90625 94.203125 59.59375 
z
" id="STXihei-24191"/>
     <path d="M 36.90625 55.703125 
Q 18 55.703125 7.796875 54.90625 
L 7.796875 61.703125 
Q 18 60.90625 39.59375 60.90625 
Q 42.703125 67.296875 45.09375 75 
Q 49.09375 72.703125 51.75 72.453125 
Q 54.40625 72.203125 54.40625 71.390625 
Q 54.40625 70.59375 53.15625 70.09375 
Q 51.90625 69.59375 50.703125 67.84375 
Q 49.5 66.09375 46.59375 60.90625 
L 72.296875 60.90625 
Q 82.40625 60.90625 92.59375 61.703125 
L 92.59375 54.90625 
Q 82.40625 55.703125 72.296875 55.703125 
L 43.59375 55.703125 
Q 38.296875 46.59375 25.703125 30 
L 50.59375 30 
L 50.59375 36.90625 
Q 50.59375 45.90625 50.203125 48.203125 
Q 53.703125 47.40625 56.5 47.40625 
Q 59.296875 47.40625 59.296875 46.75 
Q 59.296875 46.09375 58.40625 45.5 
Q 56.5 44.09375 56.5 41.796875 
L 56.5 30 
Q 79.703125 30 86.5 30.703125 
L 86.5 24.09375 
Q 77.09375 25 56.5 25 
L 56.5 -6 
Q 56.5 -9.5 55.5 -11.203125 
Q 54.5 -12.90625 51.046875 -13.84375 
Q 47.59375 -14.796875 40 -15.296875 
Q 39.59375 -10.796875 36.5 -7.09375 
Q 42.296875 -7.90625 45.140625 -7.90625 
Q 48 -7.90625 49.296875 -7.203125 
Q 50.59375 -6.5 50.59375 -4 
L 50.59375 25 
Q 33.40625 25 26.34375 24.703125 
Q 19.296875 24.40625 17.59375 23.5 
Q 17.59375 26.90625 15.796875 30 
Q 18 30.40625 20.046875 32.046875 
Q 22.09375 33.703125 27.890625 41.890625 
Q 33.703125 50.09375 36.90625 55.703125 
z
M 31 18.59375 
Q 34.09375 15.59375 37 14.203125 
Q 38 13.703125 38 13.09375 
Q 38 12.5 36.890625 12.34375 
Q 35.796875 12.203125 33.890625 10.84375 
Q 32 9.5 30.796875 8.09375 
Q 21.5 -3 9.90625 -11 
Q 7.59375 -7.203125 4.296875 -5.59375 
Q 18.59375 0.796875 31 18.59375 
z
M 95.09375 -4.09375 
L 90.203125 -9.203125 
Q 79 2.5 64.703125 11.796875 
L 68.703125 17 
Q 82.90625 7 95.09375 -4.09375 
z
" id="STXihei-19996"/>
    </defs>
    <g transform="translate(537 16.459375)scale(0.1 -0.1)">
     <use xlink:href="#STXihei-24191"/>
     <use x="99.999985" xlink:href="#STXihei-19996"/>
     <use x="199.999969" xlink:href="#STXihei-30465"/>
    </g>
   </g>
  </g>
 </g>
 <defs>
  <clipPath id="pba4b83994a">
   <rect height="129.6" width="149.4" x="69.12" y="43.2"/>
  </clipPath>
  <clipPath id="p077dfb4e30">
   <rect height="129.6" width="149.4" x="233.46" y="43.2"/>
  </clipPath>
  <clipPath id="p3abbb9ee79">
   <rect height="129.6" width="149.4" x="397.8" y="43.2"/>
  </clipPath>
 </defs>
</svg>
