<?xml version="1.0" encoding="utf-8" standalone="no"?>
<!DOCTYPE svg PUBLIC "-//W3C//DTD SVG 1.1//EN"
  "http://www.w3.org/Graphics/SVG/1.1/DTD/svg11.dtd">
<!-- Created with matplotlib (https://matplotlib.org/) -->
<svg height="360pt" version="1.1" viewBox="0 0 360 360" width="360pt" xmlns="http://www.w3.org/2000/svg" xmlns:xlink="http://www.w3.org/1999/xlink">
 <defs>
  <style type="text/css">
*{stroke-linecap:butt;stroke-linejoin:round;}
  </style>
 </defs>
 <g id="figure_1">
  <g id="patch_1">
   <path d="M 0 360 
L 360 360 
L 360 0 
L 0 0 
z
" style="fill:#ffffff;"/>
  </g>
  <g id="axes_1">
   <g id="patch_2">
    <path d="M 43.2 295.2 
L 342 295.2 
L 342 36 
L 43.2 36 
z
" style="fill:#ffffff;"/>
   </g>
   <g id="matplotlib.axis_1">
    <g id="xtick_1">
     <g id="line2d_1">
      <defs>
       <path d="M 0 0 
L 0 3.5 
" id="m88fa3fcf21" style="stroke:#000000;stroke-width:0.8;"/>
      </defs>
      <g>
       <use style="stroke:#000000;stroke-width:0.8;" x="43.2" xlink:href="#m88fa3fcf21" y="295.2"/>
      </g>
     </g>
     <g id="text_1">
      <!-- 0 -->
      <defs>
       <path d="M 27.296875 -1.796875 
Q 15.703125 -1.796875 9.453125 7.75 
Q 3.203125 17.296875 3.203125 35.90625 
Q 3.203125 54.5 9.453125 64.046875 
Q 15.703125 73.59375 27.296875 73.59375 
Q 38.703125 73.59375 45.453125 63.84375 
Q 52.203125 54.09375 52.203125 35.90625 
Q 52.203125 17.703125 45.390625 7.953125 
Q 38.59375 -1.796875 27.296875 -1.796875 
z
M 27.5 66.796875 
Q 19.203125 66.796875 14.59375 58.796875 
Q 10 50.796875 10 35.703125 
Q 10 4.703125 27.5 4.703125 
Q 36 4.703125 40.75 12.84375 
Q 45.5 21 45.5 35.703125 
Q 45.5 50.796875 40.59375 58.796875 
Q 35.703125 66.796875 27.5 66.796875 
z
" id="STXihei-48"/>
      </defs>
      <g transform="translate(40.429687 309.559375)scale(0.1 -0.1)">
       <use xlink:href="#STXihei-48"/>
      </g>
     </g>
    </g>
    <g id="xtick_2">
     <g id="line2d_2">
      <g>
       <use style="stroke:#000000;stroke-width:0.8;" x="80.55" xlink:href="#m88fa3fcf21" y="295.2"/>
      </g>
     </g>
     <g id="text_2">
      <!-- 50 -->
      <defs>
       <path d="M 49.203125 71.796875 
L 49.203125 65 
L 23.59375 65 
L 20 45.40625 
Q 24.796875 46.796875 29 46.796875 
Q 38.40625 46.796875 44.703125 40.140625 
Q 51 33.5 51 23.296875 
Q 51 12.703125 44.140625 5.453125 
Q 37.296875 -1.796875 26 -1.796875 
Q 17.40625 -1.796875 11.34375 3.34375 
Q 5.296875 8.5 4.09375 17.40625 
L 11.40625 17.40625 
Q 12.703125 11.40625 16.796875 8.203125 
Q 20.90625 5 26.296875 5 
Q 33.40625 5 38.546875 10.296875 
Q 43.703125 15.59375 43.703125 23.5 
Q 43.703125 30.703125 39.203125 35.34375 
Q 34.703125 40 27 40 
Q 20.203125 40 11.40625 36.203125 
L 18.09375 71.796875 
z
" id="STXihei-53"/>
      </defs>
      <g transform="translate(75.009375 309.559375)scale(0.1 -0.1)">
       <use xlink:href="#STXihei-53"/>
       <use x="55.399994" xlink:href="#STXihei-48"/>
      </g>
     </g>
    </g>
    <g id="xtick_3">
     <g id="line2d_3">
      <g>
       <use style="stroke:#000000;stroke-width:0.8;" x="117.9" xlink:href="#m88fa3fcf21" y="295.2"/>
      </g>
     </g>
     <g id="text_3">
      <!-- 100 -->
      <defs>
       <path d="M 18.5 71.796875 
L 32.59375 71.796875 
L 32.59375 0 
L 25.5 0 
L 25.5 64.796875 
L 14.203125 64.796875 
z
" id="STXihei-49"/>
      </defs>
      <g transform="translate(109.589063 309.559375)scale(0.1 -0.1)">
       <use xlink:href="#STXihei-49"/>
       <use x="55.399994" xlink:href="#STXihei-48"/>
       <use x="110.799988" xlink:href="#STXihei-48"/>
      </g>
     </g>
    </g>
    <g id="xtick_4">
     <g id="line2d_4">
      <g>
       <use style="stroke:#000000;stroke-width:0.8;" x="155.25" xlink:href="#m88fa3fcf21" y="295.2"/>
      </g>
     </g>
     <g id="text_4">
      <!-- 150 -->
      <g transform="translate(146.939063 309.559375)scale(0.1 -0.1)">
       <use xlink:href="#STXihei-49"/>
       <use x="55.399994" xlink:href="#STXihei-53"/>
       <use x="110.799988" xlink:href="#STXihei-48"/>
      </g>
     </g>
    </g>
    <g id="xtick_5">
     <g id="line2d_5">
      <g>
       <use style="stroke:#000000;stroke-width:0.8;" x="192.6" xlink:href="#m88fa3fcf21" y="295.2"/>
      </g>
     </g>
     <g id="text_5">
      <!-- 200 -->
      <defs>
       <path d="M 11.59375 49.296875 
L 4.703125 49.296875 
Q 5.203125 60.296875 12 66.9375 
Q 18.796875 73.59375 28.59375 73.59375 
Q 38.09375 73.59375 44.4375 67.34375 
Q 50.796875 61.09375 50.796875 52.09375 
Q 50.796875 45.40625 47.25 39.703125 
Q 43.703125 34 36.5 26.203125 
L 18.59375 6.90625 
L 51.796875 6.90625 
L 51.796875 0 
L 3 0 
L 30.40625 29.59375 
Q 37.59375 37.40625 40.6875 41.90625 
Q 43.796875 46.40625 43.796875 52 
Q 43.796875 58 39.25 62.390625 
Q 34.703125 66.796875 28.203125 66.796875 
Q 21.203125 66.796875 16.75 62.25 
Q 12.296875 57.703125 11.59375 49.296875 
z
" id="STXihei-50"/>
      </defs>
      <g transform="translate(184.289062 309.559375)scale(0.1 -0.1)">
       <use xlink:href="#STXihei-50"/>
       <use x="55.399994" xlink:href="#STXihei-48"/>
       <use x="110.799988" xlink:href="#STXihei-48"/>
      </g>
     </g>
    </g>
    <g id="xtick_6">
     <g id="line2d_6">
      <g>
       <use style="stroke:#000000;stroke-width:0.8;" x="229.95" xlink:href="#m88fa3fcf21" y="295.2"/>
      </g>
     </g>
     <g id="text_6">
      <!-- 250 -->
      <g transform="translate(221.639062 309.559375)scale(0.1 -0.1)">
       <use xlink:href="#STXihei-50"/>
       <use x="55.399994" xlink:href="#STXihei-53"/>
       <use x="110.799988" xlink:href="#STXihei-48"/>
      </g>
     </g>
    </g>
    <g id="xtick_7">
     <g id="line2d_7">
      <g>
       <use style="stroke:#000000;stroke-width:0.8;" x="267.3" xlink:href="#m88fa3fcf21" y="295.2"/>
      </g>
     </g>
     <g id="text_7">
      <!-- 300 -->
      <defs>
       <path d="M 13.203125 55.203125 
L 5.90625 55.203125 
Q 7.90625 64.09375 13.546875 68.84375 
Q 19.203125 73.59375 27 73.59375 
Q 35.5 73.59375 41.546875 68.1875 
Q 47.59375 62.796875 47.59375 55.09375 
Q 47.59375 45.796875 38.40625 40.40625 
Q 44.703125 37.796875 48.140625 32.640625 
Q 51.59375 27.5 51.59375 21.40625 
Q 51.59375 11.90625 44.640625 5.046875 
Q 37.703125 -1.796875 27.09375 -1.796875 
Q 17.703125 -1.796875 11.59375 3.546875 
Q 5.5 8.90625 3.5 19.203125 
L 10.5 19.203125 
Q 12.40625 12.09375 16.34375 8.640625 
Q 20.296875 5.203125 27.203125 5.203125 
Q 34.703125 5.203125 39.59375 9.796875 
Q 44.5 14.40625 44.5 20.796875 
Q 44.5 28 39.09375 32.140625 
Q 33.703125 36.296875 23.40625 36.5 
L 23.40625 43.09375 
Q 30.796875 43.09375 35.4375 46.5 
Q 40.09375 49.90625 40.09375 55.09375 
Q 40.09375 60 36.34375 63.34375 
Q 32.59375 66.703125 27 66.703125 
Q 22 66.703125 18.75 63.84375 
Q 15.5 61 13.203125 55.203125 
z
" id="STXihei-51"/>
      </defs>
      <g transform="translate(258.989062 309.559375)scale(0.1 -0.1)">
       <use xlink:href="#STXihei-51"/>
       <use x="55.399994" xlink:href="#STXihei-48"/>
       <use x="110.799988" xlink:href="#STXihei-48"/>
      </g>
     </g>
    </g>
    <g id="xtick_8">
     <g id="line2d_8">
      <g>
       <use style="stroke:#000000;stroke-width:0.8;" x="304.65" xlink:href="#m88fa3fcf21" y="295.2"/>
      </g>
     </g>
     <g id="text_8">
      <!-- 350 -->
      <g transform="translate(296.339062 309.559375)scale(0.1 -0.1)">
       <use xlink:href="#STXihei-51"/>
       <use x="55.399994" xlink:href="#STXihei-53"/>
       <use x="110.799988" xlink:href="#STXihei-48"/>
      </g>
     </g>
    </g>
    <g id="xtick_9">
     <g id="line2d_9">
      <g>
       <use style="stroke:#000000;stroke-width:0.8;" x="342" xlink:href="#m88fa3fcf21" y="295.2"/>
      </g>
     </g>
     <g id="text_9">
      <!-- 400 -->
      <defs>
       <path d="M 42.59375 73.59375 
L 44 73.59375 
L 44 23.59375 
L 52.703125 23.59375 
L 52.703125 16.703125 
L 44 16.703125 
L 44 0 
L 36.90625 0 
L 36.90625 16.703125 
L 2.5 16.703125 
z
M 36.90625 23.59375 
L 36.90625 53.5 
L 15.703125 23.59375 
z
" id="STXihei-52"/>
      </defs>
      <g transform="translate(333.689062 309.559375)scale(0.1 -0.1)">
       <use xlink:href="#STXihei-52"/>
       <use x="55.399994" xlink:href="#STXihei-48"/>
       <use x="110.799988" xlink:href="#STXihei-48"/>
      </g>
     </g>
    </g>
    <g id="text_10">
     <!-- 时间（天） -->
     <defs>
      <path d="M 74.59375 51.09375 
Q 74.59375 70.59375 73.5 76 
Q 76.09375 75.296875 81.296875 75.296875 
Q 83 75.296875 83 74.5 
Q 83 73.703125 81.84375 73.046875 
Q 80.703125 72.40625 80.703125 69.09375 
L 80.703125 51.09375 
Q 89.09375 51.203125 96 51.90625 
L 96 45.203125 
Q 90.59375 45.90625 80.703125 45.90625 
L 80.703125 -3.703125 
Q 80.703125 -8.40625 79.25 -10.90625 
Q 77.796875 -13.40625 73.296875 -14.59375 
Q 68.796875 -15.796875 59.5 -15.796875 
Q 59.5 -11.09375 55.90625 -7.296875 
Q 62.59375 -8.40625 66.640625 -8.40625 
Q 70.703125 -8.40625 72.640625 -6.796875 
Q 74.59375 -5.203125 74.59375 -0.296875 
L 74.59375 46 
L 61.796875 46 
Q 50.90625 46 42.90625 45.203125 
L 42.90625 51.90625 
Q 50.796875 51.09375 61.796875 51.09375 
z
M 15.09375 4.203125 
L 15.09375 -7.59375 
L 8.296875 -7.59375 
Q 9 -1.90625 9 6.703125 
L 9 56.59375 
Q 9 64.59375 8.40625 67.703125 
Q 11.59375 66.90625 24.75 66.90625 
Q 37.90625 66.90625 41.09375 67.703125 
Q 40.5 65.09375 40.5 56.59375 
L 40.5 8.09375 
Q 40.5 1.703125 41.203125 -5.09375 
L 34.296875 -5.09375 
L 34.296875 4.203125 
z
M 34.296875 37.296875 
L 34.296875 61.796875 
L 15.09375 61.796875 
L 15.09375 37.296875 
z
M 34.296875 8.90625 
L 34.296875 32.59375 
L 15.09375 32.59375 
L 15.09375 8.90625 
z
M 68.09375 16.796875 
L 62.296875 13 
Q 57.296875 23.40625 48.296875 32.90625 
L 53.40625 36.296875 
Q 62.796875 25.296875 68.09375 16.796875 
z
" id="STXihei-26102"/>
      <path d="M 34 62.59375 
L 29 57.796875 
Q 24.203125 64.90625 14.796875 71.40625 
L 18.59375 75.796875 
Q 27.796875 69.09375 34 62.59375 
z
M 87.90625 67.703125 
Q 87.203125 64.09375 87.203125 56.40625 
L 87.203125 -4.703125 
Q 87.203125 -9.796875 86.046875 -12.140625 
Q 84.90625 -14.5 81.84375 -15.34375 
Q 78.796875 -16.203125 72.09375 -16.40625 
Q 72.40625 -12.296875 69.40625 -8.90625 
Q 74 -9.703125 76.5 -9.703125 
Q 79 -9.703125 80.140625 -8.796875 
Q 81.296875 -7.90625 81.296875 -5 
L 81.296875 61.796875 
L 62.203125 61.796875 
Q 51.5 61.796875 43.796875 61.203125 
L 43.796875 67.59375 
Q 51.296875 67 66.6875 67 
Q 82.09375 67 87.90625 67.703125 
z
M 11.796875 58 
Q 14.296875 57.09375 15.1875 56.9375 
Q 16.09375 56.796875 18.4375 56.796875 
Q 20.796875 56.796875 20.796875 56.046875 
Q 20.796875 55.296875 19.296875 54.09375 
Q 18.90625 53.796875 18.5 51.796875 
Q 18.09375 49.796875 18.09375 47.5 
L 18.09375 -16.296875 
L 11.296875 -16.296875 
Q 12.296875 -7.296875 12.296875 -2.40625 
L 12.296875 45.40625 
Q 12.296875 51.90625 11.796875 58 
z
M 68.703125 2.59375 
Q 63.203125 3.296875 49.140625 3.296875 
Q 35.09375 3.296875 29.703125 2.59375 
Q 30 7.09375 30 8.796875 
L 30 41.5 
Q 30 44.5 29.703125 47.703125 
Q 35 47 49.09375 47 
Q 63.203125 47 68.703125 47.703125 
Q 68.40625 45.203125 68.40625 41.5 
L 68.40625 8.796875 
Q 68.40625 5.203125 68.703125 2.59375 
z
M 62.59375 27.296875 
L 62.59375 42.203125 
L 35.59375 42.203125 
L 35.59375 27.296875 
z
M 35.59375 22.59375 
L 35.59375 7.796875 
L 62.59375 7.796875 
L 62.59375 22.59375 
z
" id="STXihei-38388"/>
      <path d="M 90.40625 70.59375 
Q 81.703125 60.796875 77.5 51.6875 
Q 73.296875 42.59375 73.296875 33 
Q 73.296875 16.203125 77.34375 7.453125 
Q 81.40625 -1.296875 89.90625 -10.296875 
L 86 -14.203125 
Q 76.40625 -4.796875 71.65625 6.25 
Q 66.90625 17.296875 66.90625 32.90625 
Q 66.90625 43.203125 72.046875 54.34375 
Q 77.203125 65.5 86.796875 74.09375 
z
" id="STXihei-65288"/>
      <path d="M 47.90625 62.203125 
Q 25.90625 62.203125 15.203125 61.40625 
L 15.203125 67.90625 
Q 23.703125 67.09375 51.046875 67.09375 
Q 78.40625 67.09375 86.203125 67.90625 
L 86.203125 61.40625 
Q 78.40625 62.203125 53.796875 62.203125 
Q 54.203125 46.90625 52.296875 35.40625 
Q 84.40625 35.40625 92.796875 36.203125 
L 92.796875 29.59375 
Q 84.90625 30.40625 55 30.40625 
Q 60.203125 17.90625 70.84375 7.34375 
Q 81.5 -3.203125 94.09375 -8.203125 
Q 90.09375 -9.90625 87.796875 -14.59375 
Q 57.59375 6.09375 50.59375 28.09375 
Q 47 14.59375 37.953125 4.296875 
Q 28.90625 -6 11.703125 -15.90625 
Q 10.09375 -12.59375 5.796875 -10.203125 
Q 22.40625 -2.796875 31.75 6.953125 
Q 41.09375 16.703125 44.796875 30.40625 
Q 18.5 30.40625 8.09375 29.59375 
L 8.09375 36.203125 
Q 15.90625 35.40625 46 35.40625 
Q 48.40625 46.796875 47.90625 62.203125 
z
" id="STXihei-22825"/>
      <path d="M 13.203125 74.09375 
Q 22.796875 65.5 27.9375 54.34375 
Q 33.09375 43.203125 33.09375 32.90625 
Q 33.09375 17.296875 28.34375 6.25 
Q 23.59375 -4.796875 14 -14.203125 
L 10.09375 -10.296875 
Q 18.59375 -1.296875 22.640625 7.453125 
Q 26.703125 16.203125 26.703125 33 
Q 26.703125 42.59375 22.5 51.6875 
Q 18.296875 60.796875 9.59375 70.59375 
z
" id="STXihei-65289"/>
     </defs>
     <g transform="translate(155.1 332.539062)scale(0.15 -0.15)">
      <use xlink:href="#STXihei-26102"/>
      <use x="99.999985" xlink:href="#STXihei-38388"/>
      <use x="199.999969" xlink:href="#STXihei-65288"/>
      <use x="299.999954" xlink:href="#STXihei-22825"/>
      <use x="399.999939" xlink:href="#STXihei-65289"/>
     </g>
    </g>
   </g>
   <g id="matplotlib.axis_2">
    <g id="ytick_1">
     <g id="line2d_10">
      <defs>
       <path d="M 0 0 
L -3.5 0 
" id="m2a4defee6b" style="stroke:#000000;stroke-width:0.8;"/>
      </defs>
      <g>
       <use style="stroke:#000000;stroke-width:0.8;" x="43.2" xlink:href="#m2a4defee6b" y="295.2"/>
      </g>
     </g>
     <g id="text_11">
      <!-- 0 -->
      <g transform="translate(30.659375 298.879687)scale(0.1 -0.1)">
       <use xlink:href="#STXihei-48"/>
      </g>
     </g>
    </g>
    <g id="ytick_2">
     <g id="line2d_11">
      <g>
       <use style="stroke:#000000;stroke-width:0.8;" x="43.2" xlink:href="#m2a4defee6b" y="243.36"/>
      </g>
     </g>
     <g id="text_12">
      <!-- 2 -->
      <g transform="translate(30.659375 247.039687)scale(0.1 -0.1)">
       <use xlink:href="#STXihei-50"/>
      </g>
     </g>
    </g>
    <g id="ytick_3">
     <g id="line2d_12">
      <g>
       <use style="stroke:#000000;stroke-width:0.8;" x="43.2" xlink:href="#m2a4defee6b" y="191.52"/>
      </g>
     </g>
     <g id="text_13">
      <!-- 4 -->
      <g transform="translate(30.659375 195.199687)scale(0.1 -0.1)">
       <use xlink:href="#STXihei-52"/>
      </g>
     </g>
    </g>
    <g id="ytick_4">
     <g id="line2d_13">
      <g>
       <use style="stroke:#000000;stroke-width:0.8;" x="43.2" xlink:href="#m2a4defee6b" y="139.68"/>
      </g>
     </g>
     <g id="text_14">
      <!-- 6 -->
      <defs>
       <path d="M 36.703125 73.59375 
L 42.59375 69.796875 
L 23.203125 40.40625 
Q 27.296875 41.796875 31 41.796875 
Q 39 41.796875 45 35.4375 
Q 51 29.09375 51 20.09375 
Q 51 10.796875 44.453125 4.5 
Q 37.90625 -1.796875 28.5 -1.796875 
Q 19.203125 -1.796875 12.953125 4.59375 
Q 6.703125 11 6.703125 20.203125 
Q 6.703125 24.59375 8.390625 29.25 
Q 10.09375 33.90625 14.90625 41.09375 
z
M 43.90625 20.296875 
Q 43.90625 26.59375 39.5 31 
Q 35.09375 35.40625 28.796875 35.40625 
Q 22.5 35.40625 18.09375 31 
Q 13.703125 26.59375 13.703125 20.296875 
Q 13.703125 14 18.140625 9.59375 
Q 22.59375 5.203125 28.796875 5.203125 
Q 35 5.203125 39.453125 9.59375 
Q 43.90625 14 43.90625 20.296875 
z
" id="STXihei-54"/>
      </defs>
      <g transform="translate(30.659375 143.359687)scale(0.1 -0.1)">
       <use xlink:href="#STXihei-54"/>
      </g>
     </g>
    </g>
    <g id="ytick_5">
     <g id="line2d_14">
      <g>
       <use style="stroke:#000000;stroke-width:0.8;" x="43.2" xlink:href="#m2a4defee6b" y="87.84"/>
      </g>
     </g>
     <g id="text_15">
      <!-- 8 -->
      <defs>
       <path d="M 38.40625 39.40625 
Q 52 32.703125 52 20.59375 
Q 52 11 45.25 4.59375 
Q 38.5 -1.796875 27.59375 -1.796875 
Q 16.59375 -1.796875 10 4.59375 
Q 3.40625 11 3.40625 20 
Q 3.40625 32.59375 17.296875 39.40625 
Q 6.796875 45 6.796875 54.90625 
Q 6.796875 62.296875 12.9375 67.9375 
Q 19.09375 73.59375 28.09375 73.59375 
Q 36.5 73.59375 42.59375 68.09375 
Q 48.703125 62.59375 48.703125 54.703125 
Q 48.703125 45.09375 38.40625 39.40625 
z
M 41.5 55 
Q 41.5 59.796875 37.75 63.25 
Q 34 66.703125 27.703125 66.703125 
Q 21.90625 66.703125 18 63.25 
Q 14.09375 59.796875 14.09375 54.796875 
Q 14.09375 50 18.34375 46.140625 
Q 22.59375 42.296875 28 42.296875 
Q 33.40625 42.296875 37.453125 46.09375 
Q 41.5 49.90625 41.5 55 
z
M 44.796875 20.5 
Q 44.796875 26.59375 39.84375 31.1875 
Q 34.90625 35.796875 28.09375 35.796875 
Q 20.796875 35.796875 15.6875 31.046875 
Q 10.59375 26.296875 10.59375 19.796875 
Q 10.59375 13.40625 15.296875 9.203125 
Q 20 5 27.703125 5 
Q 35.203125 5 40 9.5 
Q 44.796875 14 44.796875 20.5 
z
" id="STXihei-56"/>
      </defs>
      <g transform="translate(30.659375 91.519687)scale(0.1 -0.1)">
       <use xlink:href="#STXihei-56"/>
      </g>
     </g>
    </g>
    <g id="ytick_6">
     <g id="line2d_15">
      <g>
       <use style="stroke:#000000;stroke-width:0.8;" x="43.2" xlink:href="#m2a4defee6b" y="36"/>
      </g>
     </g>
     <g id="text_16">
      <!-- 10 -->
      <g transform="translate(25.11875 39.679687)scale(0.1 -0.1)">
       <use xlink:href="#STXihei-49"/>
       <use x="55.399994" xlink:href="#STXihei-48"/>
      </g>
     </g>
    </g>
    <g id="text_17">
     <!-- 感染者（%） -->
     <defs>
      <path d="M 82.40625 68 
L 77.703125 63.796875 
Q 74.5 68.90625 68.203125 72.09375 
L 72.40625 76.59375 
Q 78.796875 71.90625 82.40625 68 
z
M 56.59375 58.5 
L 19.203125 58.5 
Q 19.203125 40.703125 17.703125 30.84375 
Q 16.203125 21 11.5 11.203125 
Q 8.59375 13.40625 4.703125 14.203125 
Q 9.40625 20.296875 11.453125 28.25 
Q 13.5 36.203125 13.5 49 
Q 13.5 55.5 13 64 
Q 15.90625 63.296875 56.09375 63.296875 
Q 55.59375 68.796875 55.40625 76 
Q 58.5 74.90625 62.703125 74.90625 
Q 64.203125 74.90625 64.203125 74.046875 
Q 64.203125 73.203125 63.34375 72.59375 
Q 62.5 72 62.203125 71 
Q 61.90625 70 61.90625 68 
Q 61.90625 66 62 63.296875 
Q 84.40625 63.296875 87.90625 64 
L 87.90625 57.796875 
Q 80.296875 58.5 62.296875 58.5 
Q 63.5 46.59375 69.296875 34.90625 
Q 75.09375 42.90625 78.09375 51.59375 
Q 81.40625 49.09375 84.40625 48.09375 
Q 85.40625 47.796875 85.40625 47.140625 
Q 85.40625 46.5 83.796875 45.84375 
Q 82.203125 45.203125 79.796875 41.40625 
Q 75.59375 34.59375 72 30 
Q 75.703125 23.90625 78.703125 21.25 
Q 81.703125 18.59375 83.546875 18.59375 
Q 85.40625 18.59375 86.296875 20.84375 
Q 87.203125 23.09375 87.59375 27.703125 
Q 90 24.703125 93.59375 24.09375 
Q 92.40625 19.703125 90.453125 16.046875 
Q 88.5 12.40625 85.09375 12.40625 
Q 76.59375 12.40625 68.09375 25 
Q 62.796875 18.203125 55.90625 11.703125 
Q 53.90625 13.90625 50.09375 15.09375 
Q 57.203125 20.296875 65.296875 29.59375 
Q 58.90625 41.09375 56.59375 58.5 
z
M 23.5 51 
Q 29.09375 50.40625 38.796875 50.40625 
Q 48.5 50.40625 54 51 
L 54 45.203125 
Q 49.703125 45.796875 38.75 45.796875 
Q 27.796875 45.796875 23.5 45.203125 
z
M 52.40625 39 
Q 51.796875 33.59375 51.796875 28.4375 
Q 51.796875 23.296875 52.296875 18.796875 
Q 48.40625 19.203125 38.75 19.203125 
Q 29.09375 19.203125 24.90625 18.796875 
Q 25.59375 24.703125 25.59375 30 
Q 25.59375 35.296875 24.90625 39 
Q 30.40625 38.296875 38.59375 38.296875 
Q 46.796875 38.296875 52.40625 39 
z
M 46.40625 23.40625 
L 46.40625 34.09375 
L 31 34.09375 
L 31 23.40625 
z
M 59 4.09375 
L 54.59375 -0.203125 
Q 47.90625 7.09375 41.5 11.40625 
L 45.5 15.703125 
Q 52.703125 10.703125 59 4.09375 
z
M 74.5 -1.5 
Q 73.296875 -6.59375 71 -9.09375 
Q 68.703125 -11.59375 63.84375 -12.4375 
Q 59 -13.296875 48.140625 -13.296875 
Q 37.296875 -13.296875 34.140625 -12.640625 
Q 31 -12 29.84375 -10.09375 
Q 28.703125 -8.203125 28.703125 -4.40625 
L 28.703125 7.59375 
Q 28.703125 11.90625 28.296875 13.40625 
Q 31 12.5 35.40625 12.5 
Q 36.796875 12.5 36.796875 11.84375 
Q 36.796875 11.203125 35.75 10.25 
Q 34.703125 9.296875 34.703125 6.90625 
L 34.703125 -4 
Q 34.703125 -6.296875 37.046875 -7.1875 
Q 39.40625 -8.09375 48.59375 -8.09375 
Q 55.203125 -8.09375 59.890625 -7.34375 
Q 64.59375 -6.59375 66.296875 -4.6875 
Q 68 -2.796875 68.296875 2.703125 
Q 70.796875 -0.59375 74.5 -1.5 
z
M 23 9.296875 
Q 18.59375 -2.59375 12.5 -11.5 
L 6.296875 -8.296875 
Q 14.296875 0.09375 17.203125 11.40625 
z
M 93.90625 -5.90625 
L 88.5 -10.5 
Q 81.90625 -1 73.296875 5.90625 
L 77.703125 10.296875 
Q 86.5 3.40625 93.90625 -5.90625 
z
" id="STXihei-24863"/>
      <path d="M 61.5 56.40625 
Q 60.5 48.09375 55.640625 41.34375 
Q 50.796875 34.59375 40.90625 27.203125 
Q 39.09375 30.59375 34.90625 31.90625 
Q 53.703125 40.796875 56 56.09375 
Q 46.40625 55.703125 40.5 54.59375 
L 40.5 60.59375 
Q 43.5 60.40625 47.296875 60.40625 
Q 51.09375 60.40625 56.5 60.703125 
Q 56.703125 63.796875 56.703125 67.34375 
Q 56.703125 70.90625 55.796875 76.296875 
Q 58.40625 75.703125 63 75.703125 
Q 64.796875 75.703125 64.796875 74.890625 
Q 64.796875 74.09375 63.9375 73.1875 
Q 63.09375 72.296875 62.6875 70 
Q 62.296875 67.703125 61.90625 61 
Q 76 61.90625 81.59375 62.5 
L 79.796875 38 
Q 79.59375 35.09375 80.25 34.140625 
Q 80.90625 33.203125 83.59375 33.203125 
Q 86.296875 33.203125 87.75 34.640625 
Q 89.203125 36.09375 90 40.90625 
Q 91.796875 37.90625 95.296875 37.203125 
Q 93.796875 32.90625 92.4375 31.09375 
Q 91.09375 29.296875 88.890625 28.6875 
Q 86.703125 28.09375 81.953125 28.09375 
Q 77.203125 28.09375 75.703125 29.5 
Q 74.203125 30.90625 74.203125 34.5 
Q 74.203125 34.796875 74.40625 38 
L 75.59375 57.09375 
z
M 38.09375 63.59375 
L 34.796875 58.703125 
Q 27.59375 64.703125 17.5 69.703125 
L 20.40625 74.203125 
Q 29.703125 69.703125 38.09375 63.59375 
z
M 29.703125 51.703125 
L 26.703125 47.203125 
Q 20.40625 51.59375 9.90625 55.59375 
L 12.203125 60.296875 
Q 20.796875 56.90625 29.703125 51.703125 
z
M 38 42.296875 
Q 24.90625 34.59375 13 25.296875 
L 8.5 31.5 
Q 25.09375 38.203125 35 47.90625 
Q 35.796875 44.703125 38 42.296875 
z
M 54.203125 20.296875 
Q 81.296875 20.296875 94.796875 21.296875 
L 94.796875 14.796875 
Q 81.703125 15.59375 61.90625 15.5 
Q 77.203125 -0.40625 95.59375 -4.203125 
Q 92.40625 -6.5 91 -11.09375 
Q 67.796875 -0.5 56.703125 15.5 
L 54.203125 15.5 
L 54.203125 -6 
Q 54.203125 -11.796875 54.796875 -16.296875 
L 47.40625 -16.296875 
Q 48.203125 -11.203125 48.203125 -6 
L 48.203125 15.5 
L 46.296875 15.5 
Q 35.40625 -0.203125 11 -12.5 
Q 9.5 -9.5 5.296875 -6.296875 
Q 27.40625 -0.09375 40.40625 15.5 
Q 13.90625 15.5 6.796875 14.796875 
L 6.796875 21.296875 
Q 20.203125 20.296875 48.203125 20.296875 
Q 48 27.296875 47.59375 30.09375 
Q 51.40625 29.59375 54.296875 29.59375 
Q 57.203125 29.59375 57.203125 28.84375 
Q 57.203125 28.09375 55.703125 27.34375 
Q 54.203125 26.59375 54.203125 24.59375 
z
" id="STXihei-26579"/>
      <path d="M 45.703125 57.703125 
Q 27.796875 57.703125 17.796875 56.59375 
L 17.796875 63.5 
Q 26.5 62.5 45.703125 62.40625 
Q 45.703125 72.09375 45 76.59375 
Q 47.5 76 52.5 76 
Q 54.296875 76 54.296875 75.296875 
Q 54.296875 74.59375 53.046875 73.59375 
Q 51.796875 72.59375 51.796875 70.09375 
L 51.796875 62.40625 
Q 64.296875 62.5 74.796875 63.5 
L 74.796875 56.796875 
Q 81 63.203125 84.296875 70.09375 
Q 86.90625 66.90625 89.09375 65.796875 
Q 91.296875 64.703125 91.296875 63.59375 
Q 91.296875 62.5 89.390625 62.25 
Q 87.5 62 80.09375 54.75 
Q 72.703125 47.5 67.59375 42.90625 
Q 86.59375 43.40625 95.203125 44.09375 
L 95.203125 36.90625 
Q 82.203125 38 61.796875 38.09375 
Q 53.296875 31.296875 45.5 26.40625 
L 59.703125 26.40625 
Q 73.40625 26.40625 81.203125 27.296875 
Q 80.703125 24.40625 80.703125 19.59375 
L 80.703125 -5 
Q 80.703125 -9.5 81.296875 -15 
L 74.40625 -15 
L 74.40625 -9.203125 
L 35.40625 -9.203125 
L 35.40625 -16.203125 
L 28.796875 -16.203125 
Q 29.296875 -11.90625 29.296875 -6.203125 
L 29.296875 16.90625 
Q 19 11.296875 8.703125 6.796875 
Q 7.5 11.40625 3.296875 13.40625 
Q 14.703125 16.40625 29.203125 23.5 
Q 29.09375 25 28.703125 27.296875 
Q 31.5 26.90625 35.40625 26.796875 
Q 45.203125 32.09375 53.40625 38.203125 
L 32.5 38.203125 
Q 18.90625 38.203125 5.796875 36.90625 
L 5.796875 44.09375 
Q 22.5 42.90625 45.703125 42.796875 
z
M 74.59375 56.59375 
Q 64.203125 57.59375 51.796875 57.703125 
L 51.796875 42.796875 
L 59.203125 42.796875 
Q 69.796875 51.59375 74.59375 56.59375 
z
M 35.40625 12 
L 74.40625 12 
L 74.40625 21.5 
L 37.40625 21.5 
L 35.40625 20.296875 
z
M 74.40625 6.59375 
L 35.40625 6.59375 
L 35.40625 -4.703125 
L 74.40625 -4.703125 
z
" id="STXihei-32773"/>
      <path d="M 67.40625 75 
L 15.09375 -5 
L 8.59375 -5 
L 56.296875 67.90625 
Q 50.5 66.5 44.453125 66.09375 
Q 38.40625 65.703125 35.59375 65.796875 
L 33 65.90625 
Q 36 61.703125 36 57 
Q 36 49.796875 31.140625 44.75 
Q 26.296875 39.703125 19 39.703125 
Q 12 39.703125 7.09375 44.59375 
Q 2.203125 49.5 2.203125 56.59375 
Q 2.203125 63.703125 7.25 68.59375 
Q 12.296875 73.5 18.90625 73.5 
Q 21.59375 73.5 25 72.796875 
Q 31.59375 71.40625 38.90625 71.40625 
Q 50.5 71.40625 61.703125 75 
z
M 29.90625 56.703125 
Q 29.90625 61.203125 26.75 64.296875 
Q 23.59375 67.40625 19.09375 67.40625 
Q 14.703125 67.40625 11.546875 64.25 
Q 8.40625 61.09375 8.40625 56.703125 
Q 8.40625 52.296875 11.546875 49.140625 
Q 14.703125 46 19.09375 46 
Q 23.59375 46 26.75 49.09375 
Q 29.90625 52.203125 29.90625 56.703125 
z
M 41.5 14.796875 
Q 41.5 21.703125 46.453125 26.703125 
Q 51.40625 31.703125 58.296875 31.703125 
Q 65.296875 31.703125 70.25 26.75 
Q 75.203125 21.796875 75.203125 14.796875 
Q 75.203125 7.796875 70.25 2.84375 
Q 65.296875 -2.09375 58.296875 -2.09375 
Q 51.40625 -2.09375 46.453125 2.84375 
Q 41.5 7.796875 41.5 14.796875 
z
M 69.09375 14.796875 
Q 69.09375 19.203125 65.9375 22.34375 
Q 62.796875 25.5 58.296875 25.5 
Q 53.90625 25.5 50.796875 22.34375 
Q 47.703125 19.203125 47.703125 14.796875 
Q 47.703125 10.40625 50.796875 7.25 
Q 53.90625 4.09375 58.296875 4.09375 
Q 62.796875 4.09375 65.9375 7.1875 
Q 69.09375 10.296875 69.09375 14.796875 
z
" id="STXihei-37"/>
     </defs>
     <g transform="translate(12.207812 208.9125)rotate(-90)scale(0.15 -0.15)">
      <use xlink:href="#STXihei-24863"/>
      <use x="99.999985" xlink:href="#STXihei-26579"/>
      <use x="199.999969" xlink:href="#STXihei-32773"/>
      <use x="299.999954" xlink:href="#STXihei-65288"/>
      <use x="399.999939" xlink:href="#STXihei-37"/>
      <use x="477.499924" xlink:href="#STXihei-65289"/>
     </g>
    </g>
   </g>
   <g id="line2d_16">
    <path clip-path="url(#p5a977be8ff)" d="M 43.2 295.17408 
L 48.429 295.189772 
L 76.068 295.050439 
L 86.526 294.788328 
L 93.249 294.411529 
L 98.478 293.895029 
L 102.213 293.332276 
L 105.948 292.531277 
L 108.936 291.655353 
L 111.924 290.501422 
L 114.165 289.405491 
L 116.406 288.067083 
L 118.647 286.439371 
L 120.888 284.470146 
L 123.129 282.10305 
L 125.37 279.280001 
L 127.611 275.945832 
L 129.852 272.05462 
L 132.093 267.579541 
L 134.334 262.524621 
L 136.575 256.938905 
L 139.563 248.864013 
L 144.792 234.452768 
L 147.033 228.978206 
L 148.527 225.833607 
L 150.021 223.216723 
L 151.515 221.219565 
L 152.262 220.476978 
L 153.009 219.914594 
L 153.756 219.537426 
L 154.503 219.348883 
L 155.25 219.349992 
L 155.997 219.540589 
L 156.744 219.917921 
L 157.491 220.477922 
L 158.238 221.214472 
L 159.732 223.18571 
L 161.226 225.754986 
L 162.72 228.828686 
L 164.961 234.15763 
L 167.949 242.050059 
L 173.178 255.992289 
L 175.419 261.453254 
L 177.66 266.42639 
L 179.901 270.862774 
L 182.142 274.753904 
L 184.383 278.120195 
L 186.624 280.999643 
L 188.865 283.439979 
L 191.106 285.492549 
L 193.347 287.208289 
L 195.588 288.635299 
L 197.829 289.817328 
L 200.07 290.792944 
L 203.058 291.830752 
L 206.046 292.628382 
L 209.781 293.368505 
L 214.263 293.983508 
L 219.492 294.446486 
L 226.215 294.793585 
L 235.179 295.02185 
L 250.119 295.155021 
L 288.216 295.198644 
L 361 295.2 
L 361 295.2 
" style="fill:none;stroke:#1f77b4;stroke-linecap:square;stroke-width:1.5;"/>
   </g>
   <g id="line2d_17">
    <path clip-path="url(#p5a977be8ff)" d="M 43.2 295.194811 
L 67.104 295.190452 
L 99.225 295.056416 
L 111.177 294.806766 
L 119.394 294.415453 
L 125.37 293.905775 
L 129.852 293.319505 
L 133.587 292.636924 
L 137.322 291.714086 
L 140.31 290.750721 
L 143.298 289.5348 
L 145.539 288.42235 
L 147.78 287.107888 
L 150.021 285.561625 
L 152.262 283.752896 
L 154.503 281.650876 
L 156.744 279.227285 
L 158.985 276.45903 
L 161.226 273.332724 
L 163.467 269.849146 
L 166.455 264.688746 
L 169.443 259.058625 
L 176.913 244.690186 
L 179.154 240.984149 
L 180.648 238.849437 
L 182.142 237.048751 
L 183.636 235.630661 
L 185.13 234.634708 
L 186.624 234.088706 
L 187.371 233.989645 
L 188.118 234.007392 
L 188.865 234.141635 
L 190.359 234.753799 
L 191.853 235.805795 
L 193.347 237.265087 
L 194.841 239.08902 
L 196.335 241.227105 
L 198.576 244.901125 
L 201.564 250.370746 
L 209.034 264.419896 
L 212.022 269.449062 
L 214.263 272.85662 
L 216.504 275.928284 
L 218.745 278.662602 
L 220.986 281.071093 
L 223.227 283.173891 
L 225.468 284.996268 
L 227.709 286.565881 
L 229.95 287.910701 
L 232.938 289.400816 
L 235.926 290.598887 
L 238.914 291.557374 
L 242.649 292.486128 
L 246.384 293.182096 
L 250.866 293.788708 
L 256.095 294.271765 
L 262.818 294.659395 
L 271.782 294.937585 
L 285.228 295.111421 
L 312.12 295.189933 
L 361 295.199792 
L 361 295.199792 
" style="fill:none;stroke:#ff7f0e;stroke-linecap:square;stroke-width:1.5;"/>
   </g>
   <g id="line2d_18">
    <path clip-path="url(#p5a977be8ff)" d="M 43.2 295.174085 
L 48.429 295.189449 
L 76.815 295.0476 
L 87.273 294.794233 
L 93.996 294.439501 
L 99.225 293.96217 
L 103.707 293.323918 
L 107.442 292.551543 
L 110.43 291.716036 
L 113.418 290.625794 
L 115.659 289.598772 
L 117.9 288.352995 
L 120.141 286.848068 
L 122.382 285.038914 
L 124.623 282.876883 
L 126.864 280.311955 
L 129.105 277.296229 
L 131.346 273.788866 
L 133.587 269.763645 
L 135.828 265.218223 
L 138.069 260.185626 
L 141.057 252.863938 
L 147.78 235.89823 
L 150.021 231.040592 
L 151.515 228.295671 
L 153.009 226.048831 
L 154.503 224.37539 
L 155.25 223.772368 
L 155.997 223.33243 
L 156.744 223.059417 
L 157.491 222.955271 
L 158.238 223.020611 
L 158.985 223.254376 
L 159.732 223.653962 
L 160.479 224.215264 
L 161.973 225.799482 
L 163.467 227.947959 
L 164.961 230.585202 
L 166.455 233.625078 
L 168.696 238.738511 
L 173.178 249.86565 
L 176.913 258.895612 
L 179.154 263.863047 
L 181.395 268.383922 
L 183.636 272.421505 
L 185.877 275.972088 
L 188.118 279.054567 
L 190.359 281.702848 
L 192.6 283.958296 
L 194.841 285.865547 
L 197.082 287.469014 
L 199.323 288.810548 
L 201.564 289.928516 
L 204.552 291.129791 
L 207.54 292.063572 
L 210.528 292.786809 
L 214.263 293.463824 
L 218.745 294.032498 
L 223.974 294.466343 
L 230.697 294.796882 
L 240.408 295.030559 
L 256.842 295.161017 
L 302.409 295.199338 
L 361 295.2 
L 361 295.2 
" style="fill:none;stroke:#2ca02c;stroke-linecap:square;stroke-width:1.5;"/>
   </g>
   <g id="line2d_19">
    <path clip-path="url(#p5a977be8ff)" d="M 43.2 295.174104 
L 48.429 295.191245 
L 83.538 295.056701 
L 96.237 294.807392 
L 104.454 294.447747 
L 110.43 293.995013 
L 115.659 293.384002 
L 120.141 292.624735 
L 123.876 291.762305 
L 126.864 290.877301 
L 129.852 289.776532 
L 132.84 288.41485 
L 135.081 287.191721 
L 137.322 285.770125 
L 139.563 284.126698 
L 141.804 282.238655 
L 144.045 280.085744 
L 146.286 277.652407 
L 148.527 274.930784 
L 150.768 271.923935 
L 153.756 267.505299 
L 157.491 261.47293 
L 164.214 250.400999 
L 166.455 247.124693 
L 168.696 244.302492 
L 170.19 242.744717 
L 171.684 241.490048 
L 173.178 240.569444 
L 174.672 240.005795 
L 176.166 239.812813 
L 177.66 239.994086 
L 179.154 240.543548 
L 180.648 241.445007 
L 182.142 242.673832 
L 183.636 244.198116 
L 185.13 245.980148 
L 187.371 249.045224 
L 190.359 253.635955 
L 200.07 269.062863 
L 203.058 273.19643 
L 206.046 276.864923 
L 208.287 279.299473 
L 210.528 281.467732 
L 212.769 283.38262 
L 215.01 285.061647 
L 217.251 286.525015 
L 220.239 288.177144 
L 223.227 289.53313 
L 226.215 290.63912 
L 229.203 291.537046 
L 232.938 292.421522 
L 237.42 293.21101 
L 242.649 293.856725 
L 248.625 294.344268 
L 256.095 294.714092 
L 266.553 294.980437 
L 282.987 295.137185 
L 320.337 295.196308 
L 361 295.199842 
L 361 295.199842 
" style="fill:none;stroke:#d62728;stroke-linecap:square;stroke-width:1.5;"/>
   </g>
   <g id="line2d_20">
    <path clip-path="url(#p5a977be8ff)" d="M 43.2 295.174067 
L 48.429 295.190646 
L 79.803 295.060054 
L 91.755 294.808875 
L 99.225 294.457575 
L 105.201 293.96244 
L 109.683 293.387607 
L 113.418 292.713441 
L 117.153 291.795644 
L 120.141 290.831723 
L 123.129 289.608194 
L 125.37 288.48335 
L 127.611 287.148679 
L 129.852 285.57223 
L 132.093 283.720474 
L 134.334 281.559884 
L 136.575 279.059015 
L 138.816 276.192074 
L 141.057 272.943177 
L 143.298 269.312138 
L 145.539 265.320631 
L 148.527 259.530484 
L 157.491 241.658702 
L 159.732 238.032109 
L 161.226 236.022439 
L 162.72 234.405238 
L 164.214 233.226583 
L 165.708 232.520834 
L 166.455 232.352084 
L 167.202 232.307813 
L 167.949 232.388159 
L 168.696 232.592057 
L 170.19 233.362314 
L 171.684 234.592743 
L 173.178 236.244305 
L 174.672 238.267544 
L 176.166 240.605636 
L 178.407 244.568386 
L 181.395 250.37752 
L 187.371 262.189914 
L 190.359 267.576572 
L 192.6 271.243361 
L 194.841 274.556396 
L 197.082 277.509379 
L 199.323 280.111432 
L 201.564 282.382516 
L 203.805 284.348933 
L 206.046 286.040182 
L 208.287 287.486642 
L 210.528 288.717997 
L 213.516 290.07309 
L 216.504 291.15482 
L 219.492 292.014315 
L 223.227 292.841578 
L 227.709 293.559691 
L 232.938 294.128411 
L 238.914 294.542506 
L 247.131 294.86477 
L 259.083 295.07441 
L 279.999 295.177494 
L 353.952 295.2 
L 361 295.2 
L 361 295.2 
" style="fill:none;stroke:#9467bd;stroke-linecap:square;stroke-width:1.5;"/>
   </g>
   <g id="line2d_21">
    <path clip-path="url(#p5a977be8ff)" d="M 43.2 295.174098 
L 48.429 295.190151 
L 76.815 295.059762 
L 88.02 294.801499 
L 94.743 294.45543 
L 99.972 293.991001 
L 104.454 293.371204 
L 108.189 292.622443 
L 111.177 291.813538 
L 114.165 290.759195 
L 116.406 289.766757 
L 118.647 288.563835 
L 120.888 287.111369 
L 123.129 285.365894 
L 125.37 283.280596 
L 127.611 280.80652 
L 129.852 277.896851 
L 132.093 274.51064 
L 134.334 270.620268 
L 136.575 266.21995 
L 138.816 261.336594 
L 141.804 254.204273 
L 149.274 235.760819 
L 151.515 231.11586 
L 153.009 228.528663 
L 154.503 226.446801 
L 155.997 224.939472 
L 156.744 224.418001 
L 157.491 224.057514 
L 158.238 223.86103 
L 158.985 223.829889 
L 159.732 223.963882 
L 160.479 224.261375 
L 161.226 224.719265 
L 161.973 225.332776 
L 163.467 227.002389 
L 164.961 229.209191 
L 166.455 231.877572 
L 168.696 236.558282 
L 171.684 243.597684 
L 177.66 258.0669 
L 180.648 264.607882 
L 182.889 269.009289 
L 185.13 272.938304 
L 187.371 276.393083 
L 189.612 279.393409 
L 191.853 281.972349 
L 194.094 284.170475 
L 196.335 286.030957 
L 198.576 287.596586 
L 200.817 288.907976 
L 203.058 290.002094 
L 206.046 291.17949 
L 209.034 292.096277 
L 212.769 292.958788 
L 216.504 293.584327 
L 220.986 294.110786 
L 226.962 294.557319 
L 234.432 294.868223 
L 245.637 295.077155 
L 265.806 295.179505 
L 341.253 295.2 
L 361 295.2 
L 361 295.2 
" style="fill:none;stroke:#8c564b;stroke-linecap:square;stroke-width:1.5;"/>
   </g>
   <g id="patch_3">
    <path d="M 43.2 295.2 
L 43.2 36 
" style="fill:none;stroke:#000000;stroke-linecap:square;stroke-linejoin:miter;stroke-width:0.8;"/>
   </g>
   <g id="patch_4">
    <path d="M 342 295.2 
L 342 36 
" style="fill:none;stroke:#000000;stroke-linecap:square;stroke-linejoin:miter;stroke-width:0.8;"/>
   </g>
   <g id="patch_5">
    <path d="M 43.2 295.2 
L 342 295.2 
" style="fill:none;stroke:#000000;stroke-linecap:square;stroke-linejoin:miter;stroke-width:0.8;"/>
   </g>
   <g id="patch_6">
    <path d="M 43.2 36 
L 342 36 
" style="fill:none;stroke:#000000;stroke-linecap:square;stroke-linejoin:miter;stroke-width:0.8;"/>
   </g>
   <g id="legend_1">
    <g id="patch_7">
     <path d="M 242.310937 129.8 
L 335 129.8 
Q 337 129.8 337 127.8 
L 337 43 
Q 337 41 335 41 
L 242.310937 41 
Q 240.310937 41 240.310937 43 
L 240.310937 127.8 
Q 240.310937 129.8 242.310937 129.8 
z
" style="fill:#ffffff;opacity:0.8;stroke:#cccccc;stroke-linejoin:miter;"/>
    </g>
    <g id="line2d_22">
     <path d="M 244.310937 48.859375 
L 264.310938 48.859375 
" style="fill:none;stroke:#1f77b4;stroke-linecap:square;stroke-width:1.5;"/>
    </g>
    <g id="line2d_23"/>
    <g id="text_18">
     <!-- Hubei -->
     <defs>
      <path d="M 8.59375 71.796875 
L 15.90625 71.796875 
L 15.90625 41.703125 
L 52.40625 41.703125 
L 52.40625 71.796875 
L 59.59375 71.796875 
L 59.59375 0 
L 52.40625 0 
L 52.40625 34.703125 
L 15.90625 34.703125 
L 15.90625 0 
L 8.59375 0 
z
" id="STXihei-72"/>
      <path d="M 6.703125 53.09375 
L 13.59375 53.09375 
L 13.59375 27.90625 
Q 13.59375 19.796875 14.34375 16.4375 
Q 15.09375 13.09375 17.296875 10.390625 
Q 19.5 7.703125 22.703125 6.296875 
Q 25.90625 4.90625 30 4.90625 
Q 34.203125 4.90625 37.390625 6.34375 
Q 40.59375 7.796875 42.75 10.4375 
Q 44.90625 13.09375 45.546875 16.296875 
Q 46.203125 19.5 46.203125 27.90625 
L 46.203125 53.09375 
L 53.203125 53.09375 
L 53.203125 26.703125 
Q 53.203125 15.296875 50.59375 9.796875 
Q 48 4.296875 42.796875 1.25 
Q 37.59375 -1.796875 30 -1.796875 
Q 22.703125 -1.796875 17.453125 1.140625 
Q 12.203125 4.09375 9.453125 9.84375 
Q 6.703125 15.59375 6.703125 27.09375 
z
" id="STXihei-117"/>
      <path d="M 8.09375 0 
L 8.09375 73.59375 
L 14.796875 73.59375 
L 14.796875 44 
Q 23.5 54.5 36.09375 54.5 
Q 47.5 54.5 55.453125 46.25 
Q 63.40625 38 63.40625 26.296875 
Q 63.40625 14.796875 55.296875 6.5 
Q 47.203125 -1.796875 35.90625 -1.796875 
Q 23.296875 -1.796875 14.796875 9.796875 
L 14.796875 0 
z
M 14.40625 26.90625 
Q 14.40625 17.59375 20.5 11.1875 
Q 26.59375 4.796875 35.40625 4.796875 
Q 44.203125 4.796875 50.34375 11.296875 
Q 56.5 17.796875 56.5 26.5 
Q 56.5 35.296875 50.5 41.796875 
Q 44.5 48.296875 35.5 48.296875 
Q 26.5 48.296875 20.453125 42.1875 
Q 14.40625 36.09375 14.40625 26.90625 
z
" id="STXihei-98"/>
      <path d="M 52.296875 17.203125 
L 58.09375 14.203125 
Q 49.5 -1.796875 32.703125 -1.796875 
Q 20.703125 -1.796875 12.890625 6.453125 
Q 5.09375 14.703125 5.09375 26.203125 
Q 5.09375 37.90625 12.9375 46.203125 
Q 20.796875 54.5 32.296875 54.5 
Q 43.90625 54.5 51.75 46.796875 
Q 59.59375 39.09375 59.90625 25.796875 
L 12.09375 25.796875 
Q 12.40625 16.203125 18.15625 10.34375 
Q 23.90625 4.5 32.09375 4.5 
Q 45.59375 4.5 52.296875 17.203125 
z
M 52.296875 31.703125 
Q 50.90625 39.296875 45.296875 43.59375 
Q 39.703125 47.90625 32.40625 47.90625 
Q 17.40625 47.90625 12.796875 31.703125 
z
" id="STXihei-101"/>
      <path d="M 4.40625 67.90625 
Q 4.40625 70.203125 6.046875 71.890625 
Q 7.703125 73.59375 10 73.59375 
Q 12.40625 73.59375 14.046875 71.9375 
Q 15.703125 70.296875 15.703125 67.90625 
Q 15.703125 65.59375 14.046875 63.9375 
Q 12.40625 62.296875 10 62.296875 
Q 7.703125 62.296875 6.046875 64 
Q 4.40625 65.703125 4.40625 67.90625 
z
M 6.59375 53.09375 
L 13.5 53.09375 
L 13.5 0 
L 6.59375 0 
z
" id="STXihei-105"/>
     </defs>
     <g transform="translate(272.310938 52.359375)scale(0.1 -0.1)">
      <use xlink:href="#STXihei-72"/>
      <use x="68.299988" xlink:href="#STXihei-117"/>
      <use x="129.099976" xlink:href="#STXihei-98"/>
      <use x="197.299957" xlink:href="#STXihei-101"/>
      <use x="262.299942" xlink:href="#STXihei-105"/>
     </g>
    </g>
    <g id="line2d_24">
     <path d="M 244.310937 63.159375 
L 264.310938 63.159375 
" style="fill:none;stroke:#ff7f0e;stroke-linecap:square;stroke-width:1.5;"/>
    </g>
    <g id="line2d_25"/>
    <g id="text_19">
     <!-- Shanghai -->
     <defs>
      <path d="M 1.296875 13.40625 
L 7.40625 17 
Q 13.796875 5.203125 22.296875 5.203125 
Q 27.796875 5.203125 31.6875 8.703125 
Q 35.59375 12.203125 35.59375 17.40625 
Q 35.59375 21.5 32.296875 25.703125 
Q 29 29.90625 20.796875 36 
Q 13.703125 41.40625 11.046875 44.25 
Q 8.40625 47.09375 7.15625 50.34375 
Q 5.90625 53.59375 5.90625 56.90625 
Q 5.90625 63.90625 10.84375 68.75 
Q 15.796875 73.59375 23.296875 73.59375 
Q 29.203125 73.59375 33.59375 70.640625 
Q 38 67.703125 42.09375 61.90625 
L 36.296875 57.40625 
Q 33.5 61.203125 30.5 63.703125 
Q 27.5 66.203125 23.09375 66.203125 
Q 18.796875 66.203125 16.046875 63.59375 
Q 13.296875 61 13.296875 57.09375 
Q 13.296875 53 15.75 50.046875 
Q 18.203125 47.09375 27.09375 40.59375 
Q 35.5 34.296875 39.453125 28.890625 
Q 43.40625 23.5 43.40625 17.5 
Q 43.40625 9.703125 37.34375 3.953125 
Q 31.296875 -1.796875 23.296875 -1.796875 
Q 9.203125 -1.796875 1.296875 13.40625 
z
" id="STXihei-83"/>
      <path d="M 7.59375 73.59375 
L 14.5 73.59375 
L 14.5 43.59375 
Q 22.703125 54.5 34.40625 54.5 
Q 40.40625 54.5 45.203125 51.25 
Q 50 48 52 42.75 
Q 54 37.5 54 27.296875 
L 54 0 
L 47.09375 0 
L 47.09375 25.296875 
Q 47.09375 33.5 46.59375 36.59375 
Q 46.09375 39.703125 44.390625 42.5 
Q 42.703125 45.296875 39.84375 46.75 
Q 37 48.203125 33 48.203125 
Q 28.90625 48.203125 25.203125 46.296875 
Q 21.5 44.40625 18.890625 41 
Q 16.296875 37.59375 15.390625 34 
Q 14.5 30.40625 14.5 19.5 
L 14.5 0 
L 7.59375 0 
z
" id="STXihei-104"/>
      <path d="M 60.5 53.09375 
L 60.5 0 
L 53.796875 0 
L 53.796875 9.09375 
Q 44.703125 -1.796875 32.5 -1.796875 
Q 21.296875 -1.796875 13.25 6.546875 
Q 5.203125 14.90625 5.203125 26.5 
Q 5.203125 38 13.296875 46.25 
Q 21.40625 54.5 32.703125 54.5 
Q 45.703125 54.5 53.796875 43.40625 
L 53.796875 53.09375 
z
M 54.203125 26.296875 
Q 54.203125 35.40625 48.09375 41.65625 
Q 42 47.90625 33.203125 47.90625 
Q 24.296875 47.90625 18.1875 41.453125 
Q 12.09375 35 12.09375 26.296875 
Q 12.09375 17.40625 18.296875 10.953125 
Q 24.5 4.5 33.203125 4.5 
Q 41.796875 4.5 48 10.703125 
Q 54.203125 16.90625 54.203125 26.296875 
z
" id="STXihei-97"/>
      <path d="M 7.59375 53.09375 
L 14.5 53.09375 
L 14.5 43.59375 
Q 22.703125 54.5 34.40625 54.5 
Q 40.40625 54.5 45.203125 51.25 
Q 50 48 52 42.75 
Q 54 37.5 54 27.296875 
L 54 0 
L 47.203125 0 
L 47.203125 25.296875 
Q 47.203125 34.59375 46.34375 37.890625 
Q 45.5 41.203125 43.75 43.5 
Q 42 45.796875 39.296875 47 
Q 36.59375 48.203125 33 48.203125 
Q 28.90625 48.203125 25.203125 46.296875 
Q 21.5 44.40625 18.890625 41 
Q 16.296875 37.59375 15.390625 34 
Q 14.5 30.40625 14.5 19.5 
L 14.5 0 
L 7.59375 0 
z
" id="STXihei-110"/>
      <path d="M 54.09375 53.09375 
L 61 53.09375 
L 61 12.09375 
Q 61 1.203125 59.09375 -3.890625 
Q 57.203125 -9 53.59375 -12.390625 
Q 50 -15.796875 44.890625 -17.59375 
Q 39.796875 -19.40625 33.703125 -19.40625 
Q 12.90625 -19.40625 6.296875 -2.796875 
L 13.703125 -2.796875 
Q 19.5 -13.203125 33.40625 -13.203125 
Q 40.09375 -13.203125 45.046875 -10.59375 
Q 50 -8 52.046875 -3.953125 
Q 54.09375 0.09375 54.09375 8.703125 
L 54.09375 11 
Q 50 5.90625 44.390625 3.40625 
Q 38.796875 0.90625 32.59375 0.90625 
Q 21 0.90625 13.296875 8.796875 
Q 5.59375 16.703125 5.59375 27.40625 
Q 5.59375 38.5 13.796875 46.5 
Q 22 54.5 33 54.5 
Q 45.296875 54.5 54.09375 43.90625 
z
M 54.40625 27.40625 
Q 54.40625 36.09375 48.5 42 
Q 42.59375 47.90625 33.90625 47.90625 
Q 24.703125 47.90625 18.59375 41.546875 
Q 12.5 35.203125 12.5 26.90625 
Q 12.5 18.796875 18.390625 13.046875 
Q 24.296875 7.296875 33.5 7.296875 
Q 42.703125 7.296875 48.546875 12.890625 
Q 54.40625 18.5 54.40625 27.40625 
z
" id="STXihei-103"/>
     </defs>
     <g transform="translate(272.310938 66.659375)scale(0.1 -0.1)">
      <use xlink:href="#STXihei-83"/>
      <use x="49.799988" xlink:href="#STXihei-104"/>
      <use x="110.799973" xlink:href="#STXihei-97"/>
      <use x="179.09996" xlink:href="#STXihei-110"/>
      <use x="240.099945" xlink:href="#STXihei-103"/>
      <use x="307.399933" xlink:href="#STXihei-104"/>
      <use x="368.399918" xlink:href="#STXihei-97"/>
      <use x="436.699905" xlink:href="#STXihei-105"/>
     </g>
    </g>
    <g id="line2d_26">
     <path d="M 244.310937 77.459375 
L 264.310938 77.459375 
" style="fill:none;stroke:#2ca02c;stroke-linecap:square;stroke-width:1.5;"/>
    </g>
    <g id="line2d_27"/>
    <g id="text_20">
     <!-- Jiangsu -->
     <defs>
      <path d="M 32.203125 71.796875 
L 39.5 71.796875 
L 39.5 23.296875 
Q 39.5 13.59375 38 8.6875 
Q 36.5 3.796875 32.296875 1 
Q 28.09375 -1.796875 22.40625 -1.796875 
Q 13.203125 -1.796875 4.203125 5.796875 
L 8 11.5 
Q 13 8.09375 16.203125 6.546875 
Q 19.40625 5 22 5 
Q 25.296875 5 27.75 6.796875 
Q 30.203125 8.59375 31.203125 11.75 
Q 32.203125 14.90625 32.203125 23.59375 
z
" id="STXihei-74"/>
      <path d="M 34.296875 47.296875 
L 29.90625 42.796875 
Q 24.40625 48.09375 19.203125 48.09375 
Q 15.796875 48.09375 13.5 45.9375 
Q 11.203125 43.796875 11.203125 40.796875 
Q 11.203125 37.5 13.640625 35.25 
Q 16.09375 33 21.296875 30.203125 
Q 28.09375 26.703125 31.25 23.046875 
Q 34.40625 19.40625 34.40625 14.09375 
Q 34.40625 7.40625 29.75 2.796875 
Q 25.09375 -1.796875 18.296875 -1.796875 
Q 13.796875 -1.796875 9.640625 0.203125 
Q 5.5 2.203125 2.59375 5.796875 
L 6.90625 10.59375 
Q 12.203125 4.703125 18 4.703125 
Q 22.09375 4.703125 25 7.390625 
Q 27.90625 10.09375 27.90625 13.796875 
Q 27.90625 17.40625 25.34375 19.75 
Q 22.796875 22.09375 17.40625 24.90625 
Q 10.90625 28.09375 7.953125 31.640625 
Q 5 35.203125 5 40.40625 
Q 5 46.5 9.140625 50.5 
Q 13.296875 54.5 19.59375 54.5 
Q 27 54.5 34.296875 47.296875 
z
" id="STXihei-115"/>
     </defs>
     <g transform="translate(272.310938 80.959375)scale(0.1 -0.1)">
      <use xlink:href="#STXihei-74"/>
      <use x="48.199997" xlink:href="#STXihei-105"/>
      <use x="68.199982" xlink:href="#STXihei-97"/>
      <use x="136.499969" xlink:href="#STXihei-110"/>
      <use x="197.499954" xlink:href="#STXihei-103"/>
      <use x="264.799942" xlink:href="#STXihei-115"/>
      <use x="303.59993" xlink:href="#STXihei-117"/>
     </g>
    </g>
    <g id="line2d_28">
     <path d="M 244.310937 91.759375 
L 264.310938 91.759375 
" style="fill:none;stroke:#d62728;stroke-linecap:square;stroke-width:1.5;"/>
    </g>
    <g id="line2d_29"/>
    <g id="text_21">
     <!-- Beijing -->
     <defs>
      <path d="M 8.90625 71.796875 
L 23.09375 71.796875 
Q 34.40625 71.796875 40.25 67.25 
Q 46.09375 62.703125 46.09375 54.203125 
Q 46.09375 49.5 43.75 45.546875 
Q 41.40625 41.59375 36.90625 39.203125 
Q 44.296875 36.796875 48.140625 32 
Q 52 27.203125 52 20.59375 
Q 52 11.703125 45.5 5.84375 
Q 39 0 28.703125 0 
L 8.90625 0 
z
M 16 64.796875 
L 16 41.796875 
L 20.09375 41.796875 
Q 29.5 41.796875 34.09375 44.796875 
Q 38.703125 47.796875 38.703125 54.203125 
Q 38.703125 64.796875 24.296875 64.796875 
z
M 16 34.59375 
L 16 7 
L 24.90625 7 
Q 32.59375 7 36.25 8.546875 
Q 39.90625 10.09375 42.203125 13.34375 
Q 44.5 16.59375 44.5 20.5 
Q 44.5 23.40625 43.203125 26 
Q 41.90625 28.59375 39.34375 30.59375 
Q 36.796875 32.59375 33.25 33.59375 
Q 29.703125 34.59375 20 34.59375 
z
" id="STXihei-66"/>
      <path d="M 4.5 67.90625 
Q 4.5 70.203125 6.203125 71.890625 
Q 7.90625 73.59375 10.203125 73.59375 
Q 12.5 73.59375 14.140625 71.9375 
Q 15.796875 70.296875 15.796875 67.90625 
Q 15.796875 65.703125 14.09375 64 
Q 12.40625 62.296875 10.203125 62.296875 
Q 8 62.296875 6.25 64 
Q 4.5 65.703125 4.5 67.90625 
z
M 6.796875 53.09375 
L 13.703125 53.09375 
L 13.703125 -4.796875 
Q 13.703125 -11.296875 12 -14.34375 
Q 10.296875 -17.40625 6.5 -17.40625 
Q 3.90625 -17.40625 0 -15.90625 
L 0 -9.796875 
Q 2.90625 -11.09375 4.203125 -11.09375 
Q 5.703125 -11.09375 6.25 -9.390625 
Q 6.796875 -7.703125 6.796875 -2.796875 
z
" id="STXihei-106"/>
     </defs>
     <g transform="translate(272.310938 95.259375)scale(0.1 -0.1)">
      <use xlink:href="#STXihei-66"/>
      <use x="57.399994" xlink:href="#STXihei-101"/>
      <use x="122.399979" xlink:href="#STXihei-105"/>
      <use x="142.399963" xlink:href="#STXihei-106"/>
      <use x="162.699951" xlink:href="#STXihei-105"/>
      <use x="182.699936" xlink:href="#STXihei-110"/>
      <use x="243.699921" xlink:href="#STXihei-103"/>
     </g>
    </g>
    <g id="line2d_30">
     <path d="M 244.310937 106.059375 
L 264.310938 106.059375 
" style="fill:none;stroke:#9467bd;stroke-linecap:square;stroke-width:1.5;"/>
    </g>
    <g id="line2d_31"/>
    <g id="text_22">
     <!-- Tianjin -->
     <defs>
      <path d="M 1.59375 64.796875 
L 1.59375 71.796875 
L 41 71.796875 
L 41 64.796875 
L 25 64.796875 
L 25 0 
L 17.703125 0 
L 17.703125 64.796875 
z
" id="STXihei-84"/>
     </defs>
     <g transform="translate(272.310938 109.559375)scale(0.1 -0.1)">
      <use xlink:href="#STXihei-84"/>
      <use x="42.599991" xlink:href="#STXihei-105"/>
      <use x="62.599976" xlink:href="#STXihei-97"/>
      <use x="130.899963" xlink:href="#STXihei-110"/>
      <use x="191.899948" xlink:href="#STXihei-106"/>
      <use x="212.199936" xlink:href="#STXihei-105"/>
      <use x="232.199921" xlink:href="#STXihei-110"/>
     </g>
    </g>
    <g id="line2d_32">
     <path d="M 244.310937 120.359375 
L 264.310938 120.359375 
" style="fill:none;stroke:#8c564b;stroke-linecap:square;stroke-width:1.5;"/>
    </g>
    <g id="line2d_33"/>
    <g id="text_23">
     <!-- Guangdong -->
     <defs>
      <path d="M 83.09375 59.796875 
L 77.59375 54.5 
Q 71.59375 60.296875 64.4375 63.390625 
Q 57.296875 66.5 50.5 66.5 
Q 42.09375 66.5 34.5 62.390625 
Q 26.90625 58.296875 22.65625 51.34375 
Q 18.40625 44.40625 18.40625 36.296875 
Q 18.40625 23.703125 27.84375 14.34375 
Q 37.296875 5 51.5 5 
Q 62.296875 5 70.046875 11.046875 
Q 77.796875 17.09375 79.296875 27.5 
L 56.40625 27.5 
L 56.40625 34.40625 
L 87.40625 34.40625 
Q 87.09375 17.296875 77.1875 7.75 
Q 67.296875 -1.796875 51.296875 -1.796875 
Q 32.90625 -1.796875 21.84375 9.5 
Q 10.796875 20.796875 10.796875 36.09375 
Q 10.796875 51.296875 21.796875 62.4375 
Q 32.796875 73.59375 50.203125 73.59375 
Q 68.59375 73.59375 83.09375 59.796875 
z
" id="STXihei-71"/>
      <path d="M 60.59375 73.59375 
L 60.59375 0 
L 53.90625 0 
L 53.90625 9.09375 
Q 44.796875 -1.796875 32.59375 -1.796875 
Q 21.296875 -1.796875 13.296875 6.5 
Q 5.296875 14.796875 5.296875 26.5 
Q 5.296875 38 13.390625 46.25 
Q 21.5 54.5 32.796875 54.5 
Q 45.796875 54.5 53.90625 43.40625 
L 53.90625 73.59375 
z
M 54.296875 26.203125 
Q 54.296875 35.296875 48.296875 41.59375 
Q 42.296875 47.90625 33.296875 47.90625 
Q 24.296875 47.90625 18.25 41.453125 
Q 12.203125 35 12.203125 26.296875 
Q 12.203125 17.5 18.390625 11 
Q 24.59375 4.5 33.296875 4.5 
Q 41.5 4.5 47.890625 10.640625 
Q 54.296875 16.796875 54.296875 26.203125 
z
" id="STXihei-100"/>
      <path d="M 5.09375 26.203125 
Q 5.09375 37.90625 13.140625 46.203125 
Q 21.203125 54.5 32.796875 54.5 
Q 44.296875 54.5 52.34375 46.203125 
Q 60.40625 37.90625 60.40625 26.203125 
Q 60.40625 14.703125 52.453125 6.453125 
Q 44.5 -1.796875 32.796875 -1.796875 
Q 21.09375 -1.796875 13.09375 6.453125 
Q 5.09375 14.703125 5.09375 26.203125 
z
M 53.5 26.09375 
Q 53.5 34.90625 47.34375 41.34375 
Q 41.203125 47.796875 32.796875 47.796875 
Q 24.296875 47.796875 18.1875 41.34375 
Q 12.09375 34.90625 12.09375 26.09375 
Q 12.09375 17.09375 18 10.890625 
Q 23.90625 4.703125 32.796875 4.703125 
Q 41.40625 4.703125 47.453125 10.953125 
Q 53.5 17.203125 53.5 26.09375 
z
" id="STXihei-111"/>
     </defs>
     <g transform="translate(272.310938 123.859375)scale(0.1 -0.1)">
      <use xlink:href="#STXihei-71"/>
      <use x="87.199982" xlink:href="#STXihei-117"/>
      <use x="147.999969" xlink:href="#STXihei-97"/>
      <use x="216.299957" xlink:href="#STXihei-110"/>
      <use x="277.299942" xlink:href="#STXihei-103"/>
      <use x="344.59993" xlink:href="#STXihei-100"/>
      <use x="413.099915" xlink:href="#STXihei-111"/>
      <use x="478.599899" xlink:href="#STXihei-110"/>
      <use x="539.599884" xlink:href="#STXihei-103"/>
     </g>
    </g>
   </g>
  </g>
 </g>
 <defs>
  <clipPath id="p5a977be8ff">
   <rect height="259.2" width="298.8" x="43.2" y="36"/>
  </clipPath>
 </defs>
</svg>
