<?xml version="1.0" encoding="utf-8" standalone="no"?>
<!DOCTYPE svg PUBLIC "-//W3C//DTD SVG 1.1//EN"
  "http://www.w3.org/Graphics/SVG/1.1/DTD/svg11.dtd">
<!-- Created with matplotlib (https://matplotlib.org/) -->
<svg height="216pt" version="1.1" viewBox="0 0 576 216" width="576pt" xmlns="http://www.w3.org/2000/svg" xmlns:xlink="http://www.w3.org/1999/xlink">
 <defs>
  <style type="text/css">
*{stroke-linecap:butt;stroke-linejoin:round;}
  </style>
 </defs>
 <g id="figure_1">
  <g id="patch_1">
   <path d="M 0 216 
L 576 216 
L 576 0 
L 0 0 
z
" style="fill:#ffffff;"/>
  </g>
  <g id="axes_1">
   <g id="patch_2">
    <path d="M 69.12 172.8 
L 218.52 172.8 
L 218.52 43.2 
L 69.12 43.2 
z
" style="fill:#ffffff;"/>
   </g>
   <g id="matplotlib.axis_1">
    <g id="xtick_1">
     <g id="line2d_1">
      <defs>
       <path d="M 0 0 
L 0 3.5 
" id="mcf10434ab6" style="stroke:#000000;stroke-width:0.8;"/>
      </defs>
      <g>
       <use style="stroke:#000000;stroke-width:0.8;" x="69.12" xlink:href="#mcf10434ab6" y="172.8"/>
      </g>
     </g>
     <g id="text_1">
      <!-- 0 -->
      <defs>
       <path d="M 27.296875 -1.796875 
Q 15.703125 -1.796875 9.453125 7.75 
Q 3.203125 17.296875 3.203125 35.90625 
Q 3.203125 54.5 9.453125 64.046875 
Q 15.703125 73.59375 27.296875 73.59375 
Q 38.703125 73.59375 45.453125 63.84375 
Q 52.203125 54.09375 52.203125 35.90625 
Q 52.203125 17.703125 45.390625 7.953125 
Q 38.59375 -1.796875 27.296875 -1.796875 
z
M 27.5 66.796875 
Q 19.203125 66.796875 14.59375 58.796875 
Q 10 50.796875 10 35.703125 
Q 10 4.703125 27.5 4.703125 
Q 36 4.703125 40.75 12.84375 
Q 45.5 21 45.5 35.703125 
Q 45.5 50.796875 40.59375 58.796875 
Q 35.703125 66.796875 27.5 66.796875 
z
" id="STXihei-48"/>
      </defs>
      <g transform="translate(66.349688 187.159375)scale(0.1 -0.1)">
       <use xlink:href="#STXihei-48"/>
      </g>
     </g>
    </g>
    <g id="xtick_2">
     <g id="line2d_2">
      <g>
       <use style="stroke:#000000;stroke-width:0.8;" x="106.47" xlink:href="#mcf10434ab6" y="172.8"/>
      </g>
     </g>
     <g id="text_2">
      <!-- 100 -->
      <defs>
       <path d="M 18.5 71.796875 
L 32.59375 71.796875 
L 32.59375 0 
L 25.5 0 
L 25.5 64.796875 
L 14.203125 64.796875 
z
" id="STXihei-49"/>
      </defs>
      <g transform="translate(98.159063 187.159375)scale(0.1 -0.1)">
       <use xlink:href="#STXihei-49"/>
       <use x="55.399994" xlink:href="#STXihei-48"/>
       <use x="110.799988" xlink:href="#STXihei-48"/>
      </g>
     </g>
    </g>
    <g id="xtick_3">
     <g id="line2d_3">
      <g>
       <use style="stroke:#000000;stroke-width:0.8;" x="143.82" xlink:href="#mcf10434ab6" y="172.8"/>
      </g>
     </g>
     <g id="text_3">
      <!-- 200 -->
      <defs>
       <path d="M 11.59375 49.296875 
L 4.703125 49.296875 
Q 5.203125 60.296875 12 66.9375 
Q 18.796875 73.59375 28.59375 73.59375 
Q 38.09375 73.59375 44.4375 67.34375 
Q 50.796875 61.09375 50.796875 52.09375 
Q 50.796875 45.40625 47.25 39.703125 
Q 43.703125 34 36.5 26.203125 
L 18.59375 6.90625 
L 51.796875 6.90625 
L 51.796875 0 
L 3 0 
L 30.40625 29.59375 
Q 37.59375 37.40625 40.6875 41.90625 
Q 43.796875 46.40625 43.796875 52 
Q 43.796875 58 39.25 62.390625 
Q 34.703125 66.796875 28.203125 66.796875 
Q 21.203125 66.796875 16.75 62.25 
Q 12.296875 57.703125 11.59375 49.296875 
z
" id="STXihei-50"/>
      </defs>
      <g transform="translate(135.509062 187.159375)scale(0.1 -0.1)">
       <use xlink:href="#STXihei-50"/>
       <use x="55.399994" xlink:href="#STXihei-48"/>
       <use x="110.799988" xlink:href="#STXihei-48"/>
      </g>
     </g>
    </g>
    <g id="xtick_4">
     <g id="line2d_4">
      <g>
       <use style="stroke:#000000;stroke-width:0.8;" x="181.17" xlink:href="#mcf10434ab6" y="172.8"/>
      </g>
     </g>
     <g id="text_4">
      <!-- 300 -->
      <defs>
       <path d="M 13.203125 55.203125 
L 5.90625 55.203125 
Q 7.90625 64.09375 13.546875 68.84375 
Q 19.203125 73.59375 27 73.59375 
Q 35.5 73.59375 41.546875 68.1875 
Q 47.59375 62.796875 47.59375 55.09375 
Q 47.59375 45.796875 38.40625 40.40625 
Q 44.703125 37.796875 48.140625 32.640625 
Q 51.59375 27.5 51.59375 21.40625 
Q 51.59375 11.90625 44.640625 5.046875 
Q 37.703125 -1.796875 27.09375 -1.796875 
Q 17.703125 -1.796875 11.59375 3.546875 
Q 5.5 8.90625 3.5 19.203125 
L 10.5 19.203125 
Q 12.40625 12.09375 16.34375 8.640625 
Q 20.296875 5.203125 27.203125 5.203125 
Q 34.703125 5.203125 39.59375 9.796875 
Q 44.5 14.40625 44.5 20.796875 
Q 44.5 28 39.09375 32.140625 
Q 33.703125 36.296875 23.40625 36.5 
L 23.40625 43.09375 
Q 30.796875 43.09375 35.4375 46.5 
Q 40.09375 49.90625 40.09375 55.09375 
Q 40.09375 60 36.34375 63.34375 
Q 32.59375 66.703125 27 66.703125 
Q 22 66.703125 18.75 63.84375 
Q 15.5 61 13.203125 55.203125 
z
" id="STXihei-51"/>
      </defs>
      <g transform="translate(172.859062 187.159375)scale(0.1 -0.1)">
       <use xlink:href="#STXihei-51"/>
       <use x="55.399994" xlink:href="#STXihei-48"/>
       <use x="110.799988" xlink:href="#STXihei-48"/>
      </g>
     </g>
    </g>
    <g id="xtick_5">
     <g id="line2d_5">
      <g>
       <use style="stroke:#000000;stroke-width:0.8;" x="218.52" xlink:href="#mcf10434ab6" y="172.8"/>
      </g>
     </g>
     <g id="text_5">
      <!-- 400 -->
      <defs>
       <path d="M 42.59375 73.59375 
L 44 73.59375 
L 44 23.59375 
L 52.703125 23.59375 
L 52.703125 16.703125 
L 44 16.703125 
L 44 0 
L 36.90625 0 
L 36.90625 16.703125 
L 2.5 16.703125 
z
M 36.90625 23.59375 
L 36.90625 53.5 
L 15.703125 23.59375 
z
" id="STXihei-52"/>
      </defs>
      <g transform="translate(210.209062 187.159375)scale(0.1 -0.1)">
       <use xlink:href="#STXihei-52"/>
       <use x="55.399994" xlink:href="#STXihei-48"/>
       <use x="110.799988" xlink:href="#STXihei-48"/>
      </g>
     </g>
    </g>
    <g id="text_6">
     <!-- 时间（天） -->
     <defs>
      <path d="M 74.59375 51.09375 
Q 74.59375 70.59375 73.5 76 
Q 76.09375 75.296875 81.296875 75.296875 
Q 83 75.296875 83 74.5 
Q 83 73.703125 81.84375 73.046875 
Q 80.703125 72.40625 80.703125 69.09375 
L 80.703125 51.09375 
Q 89.09375 51.203125 96 51.90625 
L 96 45.203125 
Q 90.59375 45.90625 80.703125 45.90625 
L 80.703125 -3.703125 
Q 80.703125 -8.40625 79.25 -10.90625 
Q 77.796875 -13.40625 73.296875 -14.59375 
Q 68.796875 -15.796875 59.5 -15.796875 
Q 59.5 -11.09375 55.90625 -7.296875 
Q 62.59375 -8.40625 66.640625 -8.40625 
Q 70.703125 -8.40625 72.640625 -6.796875 
Q 74.59375 -5.203125 74.59375 -0.296875 
L 74.59375 46 
L 61.796875 46 
Q 50.90625 46 42.90625 45.203125 
L 42.90625 51.90625 
Q 50.796875 51.09375 61.796875 51.09375 
z
M 15.09375 4.203125 
L 15.09375 -7.59375 
L 8.296875 -7.59375 
Q 9 -1.90625 9 6.703125 
L 9 56.59375 
Q 9 64.59375 8.40625 67.703125 
Q 11.59375 66.90625 24.75 66.90625 
Q 37.90625 66.90625 41.09375 67.703125 
Q 40.5 65.09375 40.5 56.59375 
L 40.5 8.09375 
Q 40.5 1.703125 41.203125 -5.09375 
L 34.296875 -5.09375 
L 34.296875 4.203125 
z
M 34.296875 37.296875 
L 34.296875 61.796875 
L 15.09375 61.796875 
L 15.09375 37.296875 
z
M 34.296875 8.90625 
L 34.296875 32.59375 
L 15.09375 32.59375 
L 15.09375 8.90625 
z
M 68.09375 16.796875 
L 62.296875 13 
Q 57.296875 23.40625 48.296875 32.90625 
L 53.40625 36.296875 
Q 62.796875 25.296875 68.09375 16.796875 
z
" id="STXihei-26102"/>
      <path d="M 34 62.59375 
L 29 57.796875 
Q 24.203125 64.90625 14.796875 71.40625 
L 18.59375 75.796875 
Q 27.796875 69.09375 34 62.59375 
z
M 87.90625 67.703125 
Q 87.203125 64.09375 87.203125 56.40625 
L 87.203125 -4.703125 
Q 87.203125 -9.796875 86.046875 -12.140625 
Q 84.90625 -14.5 81.84375 -15.34375 
Q 78.796875 -16.203125 72.09375 -16.40625 
Q 72.40625 -12.296875 69.40625 -8.90625 
Q 74 -9.703125 76.5 -9.703125 
Q 79 -9.703125 80.140625 -8.796875 
Q 81.296875 -7.90625 81.296875 -5 
L 81.296875 61.796875 
L 62.203125 61.796875 
Q 51.5 61.796875 43.796875 61.203125 
L 43.796875 67.59375 
Q 51.296875 67 66.6875 67 
Q 82.09375 67 87.90625 67.703125 
z
M 11.796875 58 
Q 14.296875 57.09375 15.1875 56.9375 
Q 16.09375 56.796875 18.4375 56.796875 
Q 20.796875 56.796875 20.796875 56.046875 
Q 20.796875 55.296875 19.296875 54.09375 
Q 18.90625 53.796875 18.5 51.796875 
Q 18.09375 49.796875 18.09375 47.5 
L 18.09375 -16.296875 
L 11.296875 -16.296875 
Q 12.296875 -7.296875 12.296875 -2.40625 
L 12.296875 45.40625 
Q 12.296875 51.90625 11.796875 58 
z
M 68.703125 2.59375 
Q 63.203125 3.296875 49.140625 3.296875 
Q 35.09375 3.296875 29.703125 2.59375 
Q 30 7.09375 30 8.796875 
L 30 41.5 
Q 30 44.5 29.703125 47.703125 
Q 35 47 49.09375 47 
Q 63.203125 47 68.703125 47.703125 
Q 68.40625 45.203125 68.40625 41.5 
L 68.40625 8.796875 
Q 68.40625 5.203125 68.703125 2.59375 
z
M 62.59375 27.296875 
L 62.59375 42.203125 
L 35.59375 42.203125 
L 35.59375 27.296875 
z
M 35.59375 22.59375 
L 35.59375 7.796875 
L 62.59375 7.796875 
L 62.59375 22.59375 
z
" id="STXihei-38388"/>
      <path d="M 90.40625 70.59375 
Q 81.703125 60.796875 77.5 51.6875 
Q 73.296875 42.59375 73.296875 33 
Q 73.296875 16.203125 77.34375 7.453125 
Q 81.40625 -1.296875 89.90625 -10.296875 
L 86 -14.203125 
Q 76.40625 -4.796875 71.65625 6.25 
Q 66.90625 17.296875 66.90625 32.90625 
Q 66.90625 43.203125 72.046875 54.34375 
Q 77.203125 65.5 86.796875 74.09375 
z
" id="STXihei-65288"/>
      <path d="M 47.90625 62.203125 
Q 25.90625 62.203125 15.203125 61.40625 
L 15.203125 67.90625 
Q 23.703125 67.09375 51.046875 67.09375 
Q 78.40625 67.09375 86.203125 67.90625 
L 86.203125 61.40625 
Q 78.40625 62.203125 53.796875 62.203125 
Q 54.203125 46.90625 52.296875 35.40625 
Q 84.40625 35.40625 92.796875 36.203125 
L 92.796875 29.59375 
Q 84.90625 30.40625 55 30.40625 
Q 60.203125 17.90625 70.84375 7.34375 
Q 81.5 -3.203125 94.09375 -8.203125 
Q 90.09375 -9.90625 87.796875 -14.59375 
Q 57.59375 6.09375 50.59375 28.09375 
Q 47 14.59375 37.953125 4.296875 
Q 28.90625 -6 11.703125 -15.90625 
Q 10.09375 -12.59375 5.796875 -10.203125 
Q 22.40625 -2.796875 31.75 6.953125 
Q 41.09375 16.703125 44.796875 30.40625 
Q 18.5 30.40625 8.09375 29.59375 
L 8.09375 36.203125 
Q 15.90625 35.40625 46 35.40625 
Q 48.40625 46.796875 47.90625 62.203125 
z
" id="STXihei-22825"/>
      <path d="M 13.203125 74.09375 
Q 22.796875 65.5 27.9375 54.34375 
Q 33.09375 43.203125 33.09375 32.90625 
Q 33.09375 17.296875 28.34375 6.25 
Q 23.59375 -4.796875 14 -14.203125 
L 10.09375 -10.296875 
Q 18.59375 -1.296875 22.640625 7.453125 
Q 26.703125 16.203125 26.703125 33 
Q 26.703125 42.59375 22.5 51.6875 
Q 18.296875 60.796875 9.59375 70.59375 
z
" id="STXihei-65289"/>
     </defs>
     <g transform="translate(106.32 210.139063)scale(0.15 -0.15)">
      <use xlink:href="#STXihei-26102"/>
      <use x="99.999985" xlink:href="#STXihei-38388"/>
      <use x="199.999969" xlink:href="#STXihei-65288"/>
      <use x="299.999954" xlink:href="#STXihei-22825"/>
      <use x="399.999939" xlink:href="#STXihei-65289"/>
     </g>
    </g>
   </g>
   <g id="matplotlib.axis_2">
    <g id="ytick_1">
     <g id="line2d_6">
      <defs>
       <path d="M 0 0 
L -3.5 0 
" id="m7f47385e9d" style="stroke:#000000;stroke-width:0.8;"/>
      </defs>
      <g>
       <use style="stroke:#000000;stroke-width:0.8;" x="69.12" xlink:href="#m7f47385e9d" y="172.8"/>
      </g>
     </g>
     <g id="text_7">
      <!-- 0 -->
      <g transform="translate(56.579375 176.479688)scale(0.1 -0.1)">
       <use xlink:href="#STXihei-48"/>
      </g>
     </g>
    </g>
    <g id="ytick_2">
     <g id="line2d_7">
      <g>
       <use style="stroke:#000000;stroke-width:0.8;" x="69.12" xlink:href="#m7f47385e9d" y="146.88"/>
      </g>
     </g>
     <g id="text_8">
      <!-- 2 -->
      <g transform="translate(56.579375 150.559687)scale(0.1 -0.1)">
       <use xlink:href="#STXihei-50"/>
      </g>
     </g>
    </g>
    <g id="ytick_3">
     <g id="line2d_8">
      <g>
       <use style="stroke:#000000;stroke-width:0.8;" x="69.12" xlink:href="#m7f47385e9d" y="120.96"/>
      </g>
     </g>
     <g id="text_9">
      <!-- 4 -->
      <g transform="translate(56.579375 124.639688)scale(0.1 -0.1)">
       <use xlink:href="#STXihei-52"/>
      </g>
     </g>
    </g>
    <g id="ytick_4">
     <g id="line2d_9">
      <g>
       <use style="stroke:#000000;stroke-width:0.8;" x="69.12" xlink:href="#m7f47385e9d" y="95.04"/>
      </g>
     </g>
     <g id="text_10">
      <!-- 6 -->
      <defs>
       <path d="M 36.703125 73.59375 
L 42.59375 69.796875 
L 23.203125 40.40625 
Q 27.296875 41.796875 31 41.796875 
Q 39 41.796875 45 35.4375 
Q 51 29.09375 51 20.09375 
Q 51 10.796875 44.453125 4.5 
Q 37.90625 -1.796875 28.5 -1.796875 
Q 19.203125 -1.796875 12.953125 4.59375 
Q 6.703125 11 6.703125 20.203125 
Q 6.703125 24.59375 8.390625 29.25 
Q 10.09375 33.90625 14.90625 41.09375 
z
M 43.90625 20.296875 
Q 43.90625 26.59375 39.5 31 
Q 35.09375 35.40625 28.796875 35.40625 
Q 22.5 35.40625 18.09375 31 
Q 13.703125 26.59375 13.703125 20.296875 
Q 13.703125 14 18.140625 9.59375 
Q 22.59375 5.203125 28.796875 5.203125 
Q 35 5.203125 39.453125 9.59375 
Q 43.90625 14 43.90625 20.296875 
z
" id="STXihei-54"/>
      </defs>
      <g transform="translate(56.579375 98.719687)scale(0.1 -0.1)">
       <use xlink:href="#STXihei-54"/>
      </g>
     </g>
    </g>
    <g id="ytick_5">
     <g id="line2d_10">
      <g>
       <use style="stroke:#000000;stroke-width:0.8;" x="69.12" xlink:href="#m7f47385e9d" y="69.12"/>
      </g>
     </g>
     <g id="text_11">
      <!-- 8 -->
      <defs>
       <path d="M 38.40625 39.40625 
Q 52 32.703125 52 20.59375 
Q 52 11 45.25 4.59375 
Q 38.5 -1.796875 27.59375 -1.796875 
Q 16.59375 -1.796875 10 4.59375 
Q 3.40625 11 3.40625 20 
Q 3.40625 32.59375 17.296875 39.40625 
Q 6.796875 45 6.796875 54.90625 
Q 6.796875 62.296875 12.9375 67.9375 
Q 19.09375 73.59375 28.09375 73.59375 
Q 36.5 73.59375 42.59375 68.09375 
Q 48.703125 62.59375 48.703125 54.703125 
Q 48.703125 45.09375 38.40625 39.40625 
z
M 41.5 55 
Q 41.5 59.796875 37.75 63.25 
Q 34 66.703125 27.703125 66.703125 
Q 21.90625 66.703125 18 63.25 
Q 14.09375 59.796875 14.09375 54.796875 
Q 14.09375 50 18.34375 46.140625 
Q 22.59375 42.296875 28 42.296875 
Q 33.40625 42.296875 37.453125 46.09375 
Q 41.5 49.90625 41.5 55 
z
M 44.796875 20.5 
Q 44.796875 26.59375 39.84375 31.1875 
Q 34.90625 35.796875 28.09375 35.796875 
Q 20.796875 35.796875 15.6875 31.046875 
Q 10.59375 26.296875 10.59375 19.796875 
Q 10.59375 13.40625 15.296875 9.203125 
Q 20 5 27.703125 5 
Q 35.203125 5 40 9.5 
Q 44.796875 14 44.796875 20.5 
z
" id="STXihei-56"/>
      </defs>
      <g transform="translate(56.579375 72.799688)scale(0.1 -0.1)">
       <use xlink:href="#STXihei-56"/>
      </g>
     </g>
    </g>
    <g id="ytick_6">
     <g id="line2d_11">
      <g>
       <use style="stroke:#000000;stroke-width:0.8;" x="69.12" xlink:href="#m7f47385e9d" y="43.2"/>
      </g>
     </g>
     <g id="text_12">
      <!-- 10 -->
      <g transform="translate(51.03875 46.879687)scale(0.1 -0.1)">
       <use xlink:href="#STXihei-49"/>
       <use x="55.399994" xlink:href="#STXihei-48"/>
      </g>
     </g>
    </g>
    <g id="text_13">
     <!-- 感染者（%） -->
     <defs>
      <path d="M 82.40625 68 
L 77.703125 63.796875 
Q 74.5 68.90625 68.203125 72.09375 
L 72.40625 76.59375 
Q 78.796875 71.90625 82.40625 68 
z
M 56.59375 58.5 
L 19.203125 58.5 
Q 19.203125 40.703125 17.703125 30.84375 
Q 16.203125 21 11.5 11.203125 
Q 8.59375 13.40625 4.703125 14.203125 
Q 9.40625 20.296875 11.453125 28.25 
Q 13.5 36.203125 13.5 49 
Q 13.5 55.5 13 64 
Q 15.90625 63.296875 56.09375 63.296875 
Q 55.59375 68.796875 55.40625 76 
Q 58.5 74.90625 62.703125 74.90625 
Q 64.203125 74.90625 64.203125 74.046875 
Q 64.203125 73.203125 63.34375 72.59375 
Q 62.5 72 62.203125 71 
Q 61.90625 70 61.90625 68 
Q 61.90625 66 62 63.296875 
Q 84.40625 63.296875 87.90625 64 
L 87.90625 57.796875 
Q 80.296875 58.5 62.296875 58.5 
Q 63.5 46.59375 69.296875 34.90625 
Q 75.09375 42.90625 78.09375 51.59375 
Q 81.40625 49.09375 84.40625 48.09375 
Q 85.40625 47.796875 85.40625 47.140625 
Q 85.40625 46.5 83.796875 45.84375 
Q 82.203125 45.203125 79.796875 41.40625 
Q 75.59375 34.59375 72 30 
Q 75.703125 23.90625 78.703125 21.25 
Q 81.703125 18.59375 83.546875 18.59375 
Q 85.40625 18.59375 86.296875 20.84375 
Q 87.203125 23.09375 87.59375 27.703125 
Q 90 24.703125 93.59375 24.09375 
Q 92.40625 19.703125 90.453125 16.046875 
Q 88.5 12.40625 85.09375 12.40625 
Q 76.59375 12.40625 68.09375 25 
Q 62.796875 18.203125 55.90625 11.703125 
Q 53.90625 13.90625 50.09375 15.09375 
Q 57.203125 20.296875 65.296875 29.59375 
Q 58.90625 41.09375 56.59375 58.5 
z
M 23.5 51 
Q 29.09375 50.40625 38.796875 50.40625 
Q 48.5 50.40625 54 51 
L 54 45.203125 
Q 49.703125 45.796875 38.75 45.796875 
Q 27.796875 45.796875 23.5 45.203125 
z
M 52.40625 39 
Q 51.796875 33.59375 51.796875 28.4375 
Q 51.796875 23.296875 52.296875 18.796875 
Q 48.40625 19.203125 38.75 19.203125 
Q 29.09375 19.203125 24.90625 18.796875 
Q 25.59375 24.703125 25.59375 30 
Q 25.59375 35.296875 24.90625 39 
Q 30.40625 38.296875 38.59375 38.296875 
Q 46.796875 38.296875 52.40625 39 
z
M 46.40625 23.40625 
L 46.40625 34.09375 
L 31 34.09375 
L 31 23.40625 
z
M 59 4.09375 
L 54.59375 -0.203125 
Q 47.90625 7.09375 41.5 11.40625 
L 45.5 15.703125 
Q 52.703125 10.703125 59 4.09375 
z
M 74.5 -1.5 
Q 73.296875 -6.59375 71 -9.09375 
Q 68.703125 -11.59375 63.84375 -12.4375 
Q 59 -13.296875 48.140625 -13.296875 
Q 37.296875 -13.296875 34.140625 -12.640625 
Q 31 -12 29.84375 -10.09375 
Q 28.703125 -8.203125 28.703125 -4.40625 
L 28.703125 7.59375 
Q 28.703125 11.90625 28.296875 13.40625 
Q 31 12.5 35.40625 12.5 
Q 36.796875 12.5 36.796875 11.84375 
Q 36.796875 11.203125 35.75 10.25 
Q 34.703125 9.296875 34.703125 6.90625 
L 34.703125 -4 
Q 34.703125 -6.296875 37.046875 -7.1875 
Q 39.40625 -8.09375 48.59375 -8.09375 
Q 55.203125 -8.09375 59.890625 -7.34375 
Q 64.59375 -6.59375 66.296875 -4.6875 
Q 68 -2.796875 68.296875 2.703125 
Q 70.796875 -0.59375 74.5 -1.5 
z
M 23 9.296875 
Q 18.59375 -2.59375 12.5 -11.5 
L 6.296875 -8.296875 
Q 14.296875 0.09375 17.203125 11.40625 
z
M 93.90625 -5.90625 
L 88.5 -10.5 
Q 81.90625 -1 73.296875 5.90625 
L 77.703125 10.296875 
Q 86.5 3.40625 93.90625 -5.90625 
z
" id="STXihei-24863"/>
      <path d="M 61.5 56.40625 
Q 60.5 48.09375 55.640625 41.34375 
Q 50.796875 34.59375 40.90625 27.203125 
Q 39.09375 30.59375 34.90625 31.90625 
Q 53.703125 40.796875 56 56.09375 
Q 46.40625 55.703125 40.5 54.59375 
L 40.5 60.59375 
Q 43.5 60.40625 47.296875 60.40625 
Q 51.09375 60.40625 56.5 60.703125 
Q 56.703125 63.796875 56.703125 67.34375 
Q 56.703125 70.90625 55.796875 76.296875 
Q 58.40625 75.703125 63 75.703125 
Q 64.796875 75.703125 64.796875 74.890625 
Q 64.796875 74.09375 63.9375 73.1875 
Q 63.09375 72.296875 62.6875 70 
Q 62.296875 67.703125 61.90625 61 
Q 76 61.90625 81.59375 62.5 
L 79.796875 38 
Q 79.59375 35.09375 80.25 34.140625 
Q 80.90625 33.203125 83.59375 33.203125 
Q 86.296875 33.203125 87.75 34.640625 
Q 89.203125 36.09375 90 40.90625 
Q 91.796875 37.90625 95.296875 37.203125 
Q 93.796875 32.90625 92.4375 31.09375 
Q 91.09375 29.296875 88.890625 28.6875 
Q 86.703125 28.09375 81.953125 28.09375 
Q 77.203125 28.09375 75.703125 29.5 
Q 74.203125 30.90625 74.203125 34.5 
Q 74.203125 34.796875 74.40625 38 
L 75.59375 57.09375 
z
M 38.09375 63.59375 
L 34.796875 58.703125 
Q 27.59375 64.703125 17.5 69.703125 
L 20.40625 74.203125 
Q 29.703125 69.703125 38.09375 63.59375 
z
M 29.703125 51.703125 
L 26.703125 47.203125 
Q 20.40625 51.59375 9.90625 55.59375 
L 12.203125 60.296875 
Q 20.796875 56.90625 29.703125 51.703125 
z
M 38 42.296875 
Q 24.90625 34.59375 13 25.296875 
L 8.5 31.5 
Q 25.09375 38.203125 35 47.90625 
Q 35.796875 44.703125 38 42.296875 
z
M 54.203125 20.296875 
Q 81.296875 20.296875 94.796875 21.296875 
L 94.796875 14.796875 
Q 81.703125 15.59375 61.90625 15.5 
Q 77.203125 -0.40625 95.59375 -4.203125 
Q 92.40625 -6.5 91 -11.09375 
Q 67.796875 -0.5 56.703125 15.5 
L 54.203125 15.5 
L 54.203125 -6 
Q 54.203125 -11.796875 54.796875 -16.296875 
L 47.40625 -16.296875 
Q 48.203125 -11.203125 48.203125 -6 
L 48.203125 15.5 
L 46.296875 15.5 
Q 35.40625 -0.203125 11 -12.5 
Q 9.5 -9.5 5.296875 -6.296875 
Q 27.40625 -0.09375 40.40625 15.5 
Q 13.90625 15.5 6.796875 14.796875 
L 6.796875 21.296875 
Q 20.203125 20.296875 48.203125 20.296875 
Q 48 27.296875 47.59375 30.09375 
Q 51.40625 29.59375 54.296875 29.59375 
Q 57.203125 29.59375 57.203125 28.84375 
Q 57.203125 28.09375 55.703125 27.34375 
Q 54.203125 26.59375 54.203125 24.59375 
z
" id="STXihei-26579"/>
      <path d="M 45.703125 57.703125 
Q 27.796875 57.703125 17.796875 56.59375 
L 17.796875 63.5 
Q 26.5 62.5 45.703125 62.40625 
Q 45.703125 72.09375 45 76.59375 
Q 47.5 76 52.5 76 
Q 54.296875 76 54.296875 75.296875 
Q 54.296875 74.59375 53.046875 73.59375 
Q 51.796875 72.59375 51.796875 70.09375 
L 51.796875 62.40625 
Q 64.296875 62.5 74.796875 63.5 
L 74.796875 56.796875 
Q 81 63.203125 84.296875 70.09375 
Q 86.90625 66.90625 89.09375 65.796875 
Q 91.296875 64.703125 91.296875 63.59375 
Q 91.296875 62.5 89.390625 62.25 
Q 87.5 62 80.09375 54.75 
Q 72.703125 47.5 67.59375 42.90625 
Q 86.59375 43.40625 95.203125 44.09375 
L 95.203125 36.90625 
Q 82.203125 38 61.796875 38.09375 
Q 53.296875 31.296875 45.5 26.40625 
L 59.703125 26.40625 
Q 73.40625 26.40625 81.203125 27.296875 
Q 80.703125 24.40625 80.703125 19.59375 
L 80.703125 -5 
Q 80.703125 -9.5 81.296875 -15 
L 74.40625 -15 
L 74.40625 -9.203125 
L 35.40625 -9.203125 
L 35.40625 -16.203125 
L 28.796875 -16.203125 
Q 29.296875 -11.90625 29.296875 -6.203125 
L 29.296875 16.90625 
Q 19 11.296875 8.703125 6.796875 
Q 7.5 11.40625 3.296875 13.40625 
Q 14.703125 16.40625 29.203125 23.5 
Q 29.09375 25 28.703125 27.296875 
Q 31.5 26.90625 35.40625 26.796875 
Q 45.203125 32.09375 53.40625 38.203125 
L 32.5 38.203125 
Q 18.90625 38.203125 5.796875 36.90625 
L 5.796875 44.09375 
Q 22.5 42.90625 45.703125 42.796875 
z
M 74.59375 56.59375 
Q 64.203125 57.59375 51.796875 57.703125 
L 51.796875 42.796875 
L 59.203125 42.796875 
Q 69.796875 51.59375 74.59375 56.59375 
z
M 35.40625 12 
L 74.40625 12 
L 74.40625 21.5 
L 37.40625 21.5 
L 35.40625 20.296875 
z
M 74.40625 6.59375 
L 35.40625 6.59375 
L 35.40625 -4.703125 
L 74.40625 -4.703125 
z
" id="STXihei-32773"/>
      <path d="M 67.40625 75 
L 15.09375 -5 
L 8.59375 -5 
L 56.296875 67.90625 
Q 50.5 66.5 44.453125 66.09375 
Q 38.40625 65.703125 35.59375 65.796875 
L 33 65.90625 
Q 36 61.703125 36 57 
Q 36 49.796875 31.140625 44.75 
Q 26.296875 39.703125 19 39.703125 
Q 12 39.703125 7.09375 44.59375 
Q 2.203125 49.5 2.203125 56.59375 
Q 2.203125 63.703125 7.25 68.59375 
Q 12.296875 73.5 18.90625 73.5 
Q 21.59375 73.5 25 72.796875 
Q 31.59375 71.40625 38.90625 71.40625 
Q 50.5 71.40625 61.703125 75 
z
M 29.90625 56.703125 
Q 29.90625 61.203125 26.75 64.296875 
Q 23.59375 67.40625 19.09375 67.40625 
Q 14.703125 67.40625 11.546875 64.25 
Q 8.40625 61.09375 8.40625 56.703125 
Q 8.40625 52.296875 11.546875 49.140625 
Q 14.703125 46 19.09375 46 
Q 23.59375 46 26.75 49.09375 
Q 29.90625 52.203125 29.90625 56.703125 
z
M 41.5 14.796875 
Q 41.5 21.703125 46.453125 26.703125 
Q 51.40625 31.703125 58.296875 31.703125 
Q 65.296875 31.703125 70.25 26.75 
Q 75.203125 21.796875 75.203125 14.796875 
Q 75.203125 7.796875 70.25 2.84375 
Q 65.296875 -2.09375 58.296875 -2.09375 
Q 51.40625 -2.09375 46.453125 2.84375 
Q 41.5 7.796875 41.5 14.796875 
z
M 69.09375 14.796875 
Q 69.09375 19.203125 65.9375 22.34375 
Q 62.796875 25.5 58.296875 25.5 
Q 53.90625 25.5 50.796875 22.34375 
Q 47.703125 19.203125 47.703125 14.796875 
Q 47.703125 10.40625 50.796875 7.25 
Q 53.90625 4.09375 58.296875 4.09375 
Q 62.796875 4.09375 65.9375 7.1875 
Q 69.09375 10.296875 69.09375 14.796875 
z
" id="STXihei-37"/>
     </defs>
     <g transform="translate(38.127813 151.3125)rotate(-90)scale(0.15 -0.15)">
      <use xlink:href="#STXihei-24863"/>
      <use x="99.999985" xlink:href="#STXihei-26579"/>
      <use x="199.999969" xlink:href="#STXihei-32773"/>
      <use x="299.999954" xlink:href="#STXihei-65288"/>
      <use x="399.999939" xlink:href="#STXihei-37"/>
      <use x="477.499924" xlink:href="#STXihei-65289"/>
     </g>
    </g>
   </g>
   <g id="line2d_12">
    <path clip-path="url(#p2b79d955df)" d="M 69.12 172.78704 
L 74.349 172.795687 
L 115.434 172.671943 
L 128.5065 172.42731 
L 137.097 172.056693 
L 143.4465 171.577059 
L 149.049 170.93014 
L 153.9045 170.143805 
L 158.3865 169.199859 
L 163.242 167.941551 
L 170.712 165.718758 
L 175.5675 164.387107 
L 178.929 163.696892 
L 181.917 163.327529 
L 184.5315 163.227569 
L 187.146 163.345274 
L 189.7605 163.669412 
L 192.7485 164.255476 
L 196.4835 165.21992 
L 211.4235 169.36125 
L 215.9055 170.257526 
L 220.761 171.002497 
L 225.99 171.58242 
L 232.3395 172.052606 
L 240.183 172.396625 
L 251.0145 172.630188 
L 268.9425 172.759991 
L 316.0035 172.799117 
L 330.57 172.799712 
L 330.57 172.799712 
" style="fill:none;stroke:#1f77b4;stroke-linecap:square;stroke-width:1.5;"/>
   </g>
   <g id="line2d_13">
    <path clip-path="url(#p2b79d955df)" d="M 69.12 172.787027 
L 74.349 172.796082 
L 132.2415 172.670894 
L 150.543 172.418364 
L 162.495 172.042203 
L 171.8325 171.536806 
L 180.0495 170.879237 
L 188.64 169.961147 
L 208.809 167.656387 
L 214.038 167.383049 
L 218.8935 167.359568 
L 223.749 167.561867 
L 229.3515 168.031277 
L 237.195 168.943192 
L 251.388 170.613371 
L 259.605 171.335856 
L 268.1955 171.870001 
L 278.28 172.269228 
L 291.3525 172.549883 
L 310.7745 172.720191 
L 330.57 172.775377 
L 330.57 172.775377 
" style="fill:none;stroke:#ff7f0e;stroke-linecap:square;stroke-width:1.5;"/>
   </g>
   <g id="line2d_14">
    <path clip-path="url(#p2b79d955df)" d="M 69.12 172.787042 
L 74.349 172.795563 
L 117.675 172.676605 
L 131.868 172.437145 
L 141.2055 172.071884 
L 148.302 171.581838 
L 154.278 170.95193 
L 159.507 170.188716 
L 164.736 169.202619 
L 170.712 167.831417 
L 181.5435 165.282449 
L 185.2785 164.683422 
L 188.2665 164.408842 
L 191.2545 164.345975 
L 194.2425 164.500494 
L 197.604 164.913258 
L 201.339 165.608086 
L 206.9415 166.917591 
L 216.279 169.111475 
L 221.508 170.102472 
L 226.737 170.875862 
L 232.3395 171.486257 
L 239.0625 171.983786 
L 247.2795 172.351277 
L 258.111 172.599125 
L 275.292 172.744726 
L 314.5095 172.797152 
L 330.57 172.799161 
L 330.57 172.799161 
" style="fill:none;stroke:#2ca02c;stroke-linecap:square;stroke-width:1.5;"/>
   </g>
   <g id="line2d_15">
    <path clip-path="url(#p2b79d955df)" d="M 69.12 172.787052 
L 74.349 172.796519 
L 143.073 172.680725 
L 165.483 172.431046 
L 180.0495 172.054656 
L 191.628 171.543459 
L 202.833 170.825593 
L 231.219 168.838528 
L 237.942 168.721416 
L 244.2915 168.830881 
L 251.388 169.177156 
L 261.4725 169.917568 
L 279.774 171.27569 
L 290.979 171.856928 
L 303.3045 172.267679 
L 318.9915 172.552141 
L 330.57 172.660947 
L 330.57 172.660947 
" style="fill:none;stroke:#d62728;stroke-linecap:square;stroke-width:1.5;"/>
   </g>
   <g id="line2d_16">
    <path clip-path="url(#p2b79d955df)" d="M 69.12 172.787033 
L 74.349 172.796203 
L 130.0005 172.671933 
L 147.1815 172.426565 
L 158.76 172.047179 
L 167.724 171.534284 
L 175.5675 170.861646 
L 183.0375 169.999744 
L 193.4955 168.534645 
L 201.7125 167.47153 
L 206.9415 167.027983 
L 211.4235 166.872686 
L 215.9055 166.950508 
L 220.3875 167.248714 
L 225.99 167.8621 
L 235.701 169.213372 
L 245.0385 170.427754 
L 252.5085 171.180205 
L 260.352 171.749134 
L 269.6895 172.189046 
L 281.268 172.495495 
L 297.702 172.689136 
L 327.582 172.782704 
L 330.57 172.785667 
L 330.57 172.785667 
" style="fill:none;stroke:#9467bd;stroke-linecap:square;stroke-width:1.5;"/>
   </g>
   <g id="line2d_17">
    <path clip-path="url(#p2b79d955df)" d="M 69.12 172.787049 
L 74.349 172.795893 
L 119.5425 172.672273 
L 134.109 172.418411 
L 143.4465 172.041159 
L 150.543 171.539931 
L 156.519 170.901672 
L 162.1215 170.072733 
L 167.3505 169.078303 
L 173.7 167.63357 
L 182.664 165.588591 
L 186.399 164.96894 
L 189.7605 164.63402 
L 192.7485 164.547848 
L 195.7365 164.669666 
L 199.098 165.038766 
L 202.833 165.683249 
L 208.062 166.839648 
L 218.8935 169.292223 
L 224.496 170.290424 
L 230.0985 171.051906 
L 236.0745 171.635282 
L 243.171 172.093654 
L 252.135 172.430691 
L 264.4605 172.650981 
L 285.3765 172.768545 
L 330.57 172.798931 
L 330.57 172.798931 
" style="fill:none;stroke:#8c564b;stroke-linecap:square;stroke-width:1.5;"/>
   </g>
   <g id="patch_3">
    <path d="M 69.12 172.8 
L 69.12 43.2 
" style="fill:none;stroke:#000000;stroke-linecap:square;stroke-linejoin:miter;stroke-width:0.8;"/>
   </g>
   <g id="patch_4">
    <path d="M 218.52 172.8 
L 218.52 43.2 
" style="fill:none;stroke:#000000;stroke-linecap:square;stroke-linejoin:miter;stroke-width:0.8;"/>
   </g>
   <g id="patch_5">
    <path d="M 69.12 172.8 
L 218.52 172.8 
" style="fill:none;stroke:#000000;stroke-linecap:square;stroke-linejoin:miter;stroke-width:0.8;"/>
   </g>
   <g id="patch_6">
    <path d="M 69.12 43.2 
L 218.52 43.2 
" style="fill:none;stroke:#000000;stroke-linecap:square;stroke-linejoin:miter;stroke-width:0.8;"/>
   </g>
   <g id="text_14">
    <!-- 未接种率 p = 0.1 -->
    <defs>
     <path d="M 46.703125 57.5 
Q 46.703125 68.296875 45.796875 74 
Q 49.40625 73 53.90625 73 
Q 55.5 73 55.5 72.390625 
Q 55.5 71.796875 54.453125 71.140625 
Q 53.40625 70.5 53.09375 68.796875 
Q 52.796875 67.09375 52.796875 63.203125 
L 52.796875 57.5 
Q 75.203125 57.5 81.703125 58.09375 
L 81.703125 51.90625 
Q 75.59375 52.5 52.796875 52.5 
L 52.796875 36.296875 
Q 80 36.296875 91.09375 36.90625 
L 91.09375 30.796875 
Q 80.203125 31.40625 60.09375 31.40625 
Q 75.5 7.40625 94.09375 -0.40625 
Q 91.203125 -3 88.90625 -6.59375 
Q 69.203125 4.5 54.796875 31.40625 
L 52.796875 31.40625 
L 52.796875 3.59375 
Q 52.796875 -5.296875 53.796875 -15.296875 
L 45.796875 -15.296875 
Q 46.703125 -5.59375 46.703125 3.59375 
L 46.703125 31.40625 
L 43.296875 31.40625 
Q 36 17.296875 28.5 8.5 
Q 21 -0.296875 9.296875 -8.796875 
Q 7.796875 -5.09375 3.5 -3.40625 
Q 14.703125 3.40625 22.59375 11.40625 
Q 30.5 19.40625 37.796875 31.40625 
Q 19 31.40625 7.40625 30.796875 
L 7.40625 36.90625 
Q 15.703125 36.296875 46.703125 36.296875 
L 46.703125 52.5 
Q 23.5 52.5 16.796875 51.90625 
L 16.796875 58.09375 
Q 23.203125 57.5 46.703125 57.5 
z
" id="STXihei-26410"/>
     <path d="M 60.59375 63.90625 
Q 58.296875 67.703125 54.203125 72 
L 59.5 75.5 
Q 64.203125 68.90625 66.703125 63.90625 
Q 83.296875 63.90625 90 64.703125 
L 90 58.5 
Q 82.703125 59.296875 64.25 59.296875 
Q 45.796875 59.296875 38.40625 58.5 
L 38.40625 64.703125 
Q 46.296875 63.90625 60.59375 63.90625 
z
M 18.703125 26.796875 
L 18.703125 49.90625 
Q 11.40625 49.796875 6.09375 48.90625 
L 6.09375 56 
Q 11.40625 55.09375 18.703125 55.09375 
Q 18.5 69.203125 17.40625 75.09375 
Q 21 74.296875 25.09375 74.296875 
Q 27.203125 74.296875 27.203125 73.5 
Q 27.203125 72.703125 25.40625 71.09375 
Q 24.59375 70.40625 24.59375 64.703125 
L 24.59375 55.09375 
Q 31.59375 55.203125 35.703125 56 
L 35.703125 48.90625 
Q 31 49.796875 24.59375 49.796875 
L 24.59375 29.59375 
Q 28.59375 31.59375 34.09375 35 
Q 34.40625 32 36 29.203125 
L 24.59375 23.796875 
L 24.59375 -5.40625 
Q 24.59375 -9.5 23.4375 -11.546875 
Q 22.296875 -13.59375 19.140625 -14.546875 
Q 16 -15.5 9.59375 -15.796875 
Q 9.59375 -11.40625 6.796875 -7.703125 
Q 11.796875 -8.703125 14.1875 -8.703125 
Q 16.59375 -8.703125 17.640625 -7.703125 
Q 18.703125 -6.703125 18.703125 -3.296875 
L 18.703125 20.796875 
Q 12.203125 17.40625 7.703125 14.59375 
Q 6.90625 18.203125 4 21.203125 
Q 12.09375 23.796875 18.703125 26.796875 
z
M 67.40625 40.203125 
Q 75.09375 50 77 57.40625 
Q 80.09375 55.09375 83 54.203125 
Q 84.09375 53.90625 84.09375 53 
Q 84.09375 52.09375 82.1875 51.296875 
Q 80.296875 50.5 73.296875 40.203125 
Q 87.90625 40.5 93.796875 41.09375 
L 93.796875 34.796875 
Q 87.90625 35.703125 64.75 35.703125 
Q 41.59375 35.703125 35.703125 34.796875 
L 35.703125 41.09375 
Q 46.59375 40.203125 59.296875 40.203125 
z
M 59.5 44.703125 
L 55.09375 41.296875 
Q 50.703125 48.09375 45 52.796875 
L 48.703125 56.40625 
Q 53.40625 52 59.5 44.703125 
z
M 49.09375 17.296875 
Q 37.796875 17.296875 32.796875 16.703125 
L 32.796875 22.5 
Q 40.703125 21.90625 51.796875 21.90625 
Q 55.796875 29.40625 56.796875 33.796875 
Q 59.59375 31.203125 63.296875 30.5 
Q 64.796875 30.203125 64.796875 29.453125 
Q 64.796875 28.703125 62.796875 27.546875 
Q 60.796875 26.40625 57.796875 21.90625 
L 74.703125 21.90625 
Q 90.796875 21.90625 95.5 22.5 
L 95.5 16.703125 
Q 92.59375 17.09375 81.703125 17.296875 
Q 78 7.09375 71.09375 1.09375 
Q 82.203125 -3.40625 92.203125 -7.796875 
Q 89.5 -9.90625 87.703125 -13.5 
Q 79.40625 -7.703125 66.5 -2.40625 
Q 56.59375 -9.296875 35.40625 -14.203125 
Q 34.59375 -10.203125 31.40625 -7.796875 
Q 49.203125 -5.796875 59.90625 0.09375 
Q 49.796875 3.59375 40.90625 5.5 
Q 44.90625 10.203125 49.09375 17.296875 
z
M 75.5 17.296875 
L 54.90625 17.296875 
L 49.796875 8.5 
Q 55.5 6.796875 65 3.40625 
Q 72.40625 9 75.5 17.296875 
z
" id="STXihei-25509"/>
     <path d="M 53 18 
L 53 9.40625 
L 46.40625 9.40625 
Q 47 17.796875 47 22.796875 
L 47 43.59375 
Q 47 48.59375 46.40625 53.90625 
Q 51.90625 52.90625 66.203125 52.796875 
L 66.203125 61.5 
Q 66.203125 70.203125 65.296875 75.203125 
Q 68.40625 74.203125 72.796875 74.203125 
Q 74.5 74.203125 74.5 72.90625 
Q 74.5 72 73.296875 71.203125 
Q 72.09375 70.40625 72.09375 67.296875 
L 72.09375 52.796875 
Q 85.703125 52.90625 92.296875 53.90625 
Q 91.796875 46.796875 91.796875 41.59375 
L 91.796875 25.59375 
Q 91.796875 21.5 92.296875 11.296875 
L 85.703125 11.296875 
L 85.703125 18 
L 72.09375 18 
L 72.09375 2.703125 
Q 72.09375 -9 73 -15.90625 
L 65.296875 -15.90625 
Q 66.203125 -9 66.203125 2.703125 
L 66.203125 18 
z
M 66.203125 48.40625 
L 53 48.40625 
L 53 22.703125 
L 66.203125 22.703125 
z
M 85.703125 22.703125 
L 85.703125 48.40625 
L 72.09375 48.40625 
L 72.09375 22.703125 
z
M 23.703125 63 
Q 16.40625 61.703125 8.203125 61.09375 
Q 8.296875 64.296875 5.40625 67.296875 
Q 9.09375 67.09375 12 67.09375 
Q 20.09375 67.09375 28.140625 68.84375 
Q 36.203125 70.59375 39.40625 72.90625 
Q 41.59375 69.796875 43.5 68.09375 
Q 44.40625 67.296875 44.40625 66.5 
Q 44.40625 65.703125 42.90625 65.703125 
Q 42.40625 65.703125 41.703125 65.796875 
Q 41 65.90625 39.796875 65.90625 
Q 36.296875 65.90625 29.40625 64.09375 
L 29.40625 46.59375 
Q 36.90625 46.703125 43.796875 47.203125 
L 43.796875 41.296875 
Q 36.296875 41.796875 29.40625 41.796875 
L 29.40625 34.09375 
Q 35.90625 29.5 44.296875 22.09375 
L 39.09375 17.5 
Q 35.703125 22.796875 29.40625 28.296875 
L 29.40625 1 
Q 29.40625 -7.703125 30.09375 -16.203125 
L 22.90625 -16.203125 
Q 23.703125 -6.5 23.703125 1 
L 23.703125 28.40625 
Q 18.296875 14.59375 9.203125 2 
Q 6.59375 4.796875 3 5.59375 
Q 16.09375 18.203125 23.703125 41.203125 
L 23.703125 41.90625 
Q 13.5 41.90625 5.40625 41.296875 
L 5.40625 47.203125 
Q 13.5 46.59375 23.703125 46.59375 
z
" id="STXihei-31181"/>
     <path d="M 46 60.5 
Q 21.90625 60.5 10.796875 59.5 
L 10.796875 66 
Q 21.40625 65 48 65 
Q 45.203125 69.59375 40.59375 73.5 
L 46.296875 77.09375 
Q 50.296875 72.59375 54.09375 65 
Q 79.203125 65 90.296875 66 
L 90.296875 59.5 
Q 79.09375 60.5 47.5 60.5 
Q 49.5 59.09375 51.203125 58.34375 
Q 52.90625 57.59375 52.90625 56.796875 
Q 52.90625 56 51.40625 55.796875 
Q 49.90625 55.59375 47.046875 52 
Q 44.203125 48.40625 41 44.796875 
L 53.59375 45.296875 
Q 57.5 50.203125 59.40625 54.40625 
Q 63.296875 51.09375 64.9375 50.546875 
Q 66.59375 50 66.59375 49.09375 
Q 66.59375 48.203125 64.84375 48 
Q 63.09375 47.796875 53.90625 37.796875 
Q 47.59375 31.09375 41 25.296875 
L 61.40625 26.59375 
Q 59.40625 29.203125 55.90625 33.40625 
L 60.09375 36.40625 
Q 67.796875 27.296875 72.703125 18.90625 
L 67.5 15.90625 
Q 66.09375 19.40625 64.09375 22.703125 
L 52.59375 21.796875 
L 52.59375 9.796875 
Q 85.296875 9.796875 95.796875 10.796875 
L 95.796875 4.296875 
Q 82.703125 5.296875 52.59375 5.296875 
L 52.59375 1.09375 
Q 52.59375 -7.5 53.5 -16.703125 
L 45.90625 -16.703125 
Q 46.796875 -5.90625 46.796875 1.09375 
L 46.796875 5.296875 
Q 16 5.296875 4.796875 4.296875 
L 4.796875 10.796875 
Q 15.796875 9.796875 46.796875 9.796875 
L 46.796875 21.296875 
Q 37.296875 20.59375 32.5 19.203125 
Q 32 22.203125 30.203125 25 
Q 34.703125 26.296875 38.84375 29.890625 
Q 43 33.5 49.90625 41.09375 
L 40.09375 40 
Q 35.59375 39.59375 32.59375 38.5 
Q 32.59375 41.40625 31 43.296875 
Q 38 45.40625 46 60.5 
z
M 80 56.203125 
Q 83.296875 53.296875 84.796875 52.390625 
Q 86.296875 51.5 86.296875 50.796875 
Q 86.296875 49.90625 85.046875 49.90625 
Q 83.796875 49.90625 81.84375 48.453125 
Q 79.90625 47 76.65625 43.890625 
Q 73.40625 40.796875 70.703125 38.296875 
Q 69.40625 40.5 66.5 42 
Q 74.90625 47.703125 80 56.203125 
z
M 29.296875 43.40625 
L 24.796875 39.5 
Q 20.59375 45 11.40625 50.796875 
L 14.90625 54.90625 
Q 22.796875 49.296875 29.296875 43.40625 
z
M 32.59375 31.5 
Q 25.703125 26.5 12.90625 15 
Q 11.09375 18.5 7.90625 19.703125 
Q 21.5 27.40625 29 36.59375 
Q 30 33.40625 32.59375 31.5 
z
M 91.296875 20.59375 
L 86.796875 16.59375 
Q 81.296875 23 70.703125 30.5 
L 74.203125 34.703125 
Q 83.296875 28.40625 91.296875 20.59375 
z
" id="STXihei-29575"/>
     <path id="STXihei-32"/>
     <path d="M 7.703125 53.09375 
L 14.5 53.09375 
L 14.5 43.40625 
Q 22.59375 54.5 35.59375 54.5 
Q 46.796875 54.5 54.890625 46.25 
Q 63 38 63 26.5 
Q 63 14.796875 55 6.5 
Q 47 -1.796875 35.796875 -1.796875 
Q 23.59375 -1.796875 14.5 9.09375 
L 14.5 -19.40625 
L 7.703125 -19.40625 
z
M 56.203125 26.296875 
Q 56.203125 35.203125 50.046875 41.546875 
Q 43.90625 47.90625 35.09375 47.90625 
Q 26.09375 47.90625 20.046875 41.65625 
Q 14 35.40625 14 26.296875 
Q 14 17 20.203125 10.75 
Q 26.40625 4.5 35.203125 4.5 
Q 43.703125 4.5 49.953125 10.84375 
Q 56.203125 17.203125 56.203125 26.296875 
z
" id="STXihei-112"/>
     <path d="M 55 50 
L 55 43.296875 
L 5.59375 43.296875 
L 5.59375 50 
z
M 55 28.5 
L 55 21.796875 
L 5.59375 21.796875 
L 5.59375 28.5 
z
" id="STXihei-61"/>
     <path d="M 9.09375 4.703125 
Q 9.09375 7.203125 10.890625 8.953125 
Q 12.703125 10.703125 15.09375 10.703125 
Q 17.59375 10.703125 19.34375 8.953125 
Q 21.09375 7.203125 21.09375 4.703125 
Q 21.09375 2.09375 19.34375 0.34375 
Q 17.59375 -1.40625 15.09375 -1.40625 
Q 12.703125 -1.40625 10.890625 0.390625 
Q 9.09375 2.203125 9.09375 4.703125 
z
" id="STXihei-46"/>
    </defs>
    <g transform="translate(99.28125 37.2)scale(0.12 -0.12)">
     <use xlink:href="#STXihei-26410"/>
     <use x="99.999985" xlink:href="#STXihei-25509"/>
     <use x="199.999969" xlink:href="#STXihei-31181"/>
     <use x="299.999954" xlink:href="#STXihei-29575"/>
     <use x="399.999939" xlink:href="#STXihei-32"/>
     <use x="424.999924" xlink:href="#STXihei-112"/>
     <use x="493.199905" xlink:href="#STXihei-32"/>
     <use x="518.19989" xlink:href="#STXihei-61"/>
     <use x="578.799881" xlink:href="#STXihei-32"/>
     <use x="603.799866" xlink:href="#STXihei-48"/>
     <use x="659.19986" xlink:href="#STXihei-46"/>
     <use x="686.899857" xlink:href="#STXihei-49"/>
    </g>
   </g>
  </g>
  <g id="axes_2">
   <g id="patch_7">
    <path d="M 233.46 172.8 
L 382.86 172.8 
L 382.86 43.2 
L 233.46 43.2 
z
" style="fill:#ffffff;"/>
   </g>
   <g id="matplotlib.axis_3">
    <g id="xtick_6">
     <g id="line2d_18">
      <g>
       <use style="stroke:#000000;stroke-width:0.8;" x="233.46" xlink:href="#mcf10434ab6" y="172.8"/>
      </g>
     </g>
     <g id="text_15">
      <!-- 0 -->
      <g transform="translate(230.689687 187.159375)scale(0.1 -0.1)">
       <use xlink:href="#STXihei-48"/>
      </g>
     </g>
    </g>
    <g id="xtick_7">
     <g id="line2d_19">
      <g>
       <use style="stroke:#000000;stroke-width:0.8;" x="270.81" xlink:href="#mcf10434ab6" y="172.8"/>
      </g>
     </g>
     <g id="text_16">
      <!-- 100 -->
      <g transform="translate(262.499062 187.159375)scale(0.1 -0.1)">
       <use xlink:href="#STXihei-49"/>
       <use x="55.399994" xlink:href="#STXihei-48"/>
       <use x="110.799988" xlink:href="#STXihei-48"/>
      </g>
     </g>
    </g>
    <g id="xtick_8">
     <g id="line2d_20">
      <g>
       <use style="stroke:#000000;stroke-width:0.8;" x="308.16" xlink:href="#mcf10434ab6" y="172.8"/>
      </g>
     </g>
     <g id="text_17">
      <!-- 200 -->
      <g transform="translate(299.849062 187.159375)scale(0.1 -0.1)">
       <use xlink:href="#STXihei-50"/>
       <use x="55.399994" xlink:href="#STXihei-48"/>
       <use x="110.799988" xlink:href="#STXihei-48"/>
      </g>
     </g>
    </g>
    <g id="xtick_9">
     <g id="line2d_21">
      <g>
       <use style="stroke:#000000;stroke-width:0.8;" x="345.51" xlink:href="#mcf10434ab6" y="172.8"/>
      </g>
     </g>
     <g id="text_18">
      <!-- 300 -->
      <g transform="translate(337.199062 187.159375)scale(0.1 -0.1)">
       <use xlink:href="#STXihei-51"/>
       <use x="55.399994" xlink:href="#STXihei-48"/>
       <use x="110.799988" xlink:href="#STXihei-48"/>
      </g>
     </g>
    </g>
    <g id="xtick_10">
     <g id="line2d_22">
      <g>
       <use style="stroke:#000000;stroke-width:0.8;" x="382.86" xlink:href="#mcf10434ab6" y="172.8"/>
      </g>
     </g>
     <g id="text_19">
      <!-- 400 -->
      <g transform="translate(374.549062 187.159375)scale(0.1 -0.1)">
       <use xlink:href="#STXihei-52"/>
       <use x="55.399994" xlink:href="#STXihei-48"/>
       <use x="110.799988" xlink:href="#STXihei-48"/>
      </g>
     </g>
    </g>
    <g id="text_20">
     <!-- 时间（天） -->
     <g transform="translate(270.66 210.139063)scale(0.15 -0.15)">
      <use xlink:href="#STXihei-26102"/>
      <use x="99.999985" xlink:href="#STXihei-38388"/>
      <use x="199.999969" xlink:href="#STXihei-65288"/>
      <use x="299.999954" xlink:href="#STXihei-22825"/>
      <use x="399.999939" xlink:href="#STXihei-65289"/>
     </g>
    </g>
   </g>
   <g id="matplotlib.axis_4">
    <g id="ytick_7">
     <g id="line2d_23">
      <g>
       <use style="stroke:#000000;stroke-width:0.8;" x="233.46" xlink:href="#m7f47385e9d" y="172.8"/>
      </g>
     </g>
    </g>
    <g id="ytick_8">
     <g id="line2d_24">
      <g>
       <use style="stroke:#000000;stroke-width:0.8;" x="233.46" xlink:href="#m7f47385e9d" y="146.88"/>
      </g>
     </g>
    </g>
    <g id="ytick_9">
     <g id="line2d_25">
      <g>
       <use style="stroke:#000000;stroke-width:0.8;" x="233.46" xlink:href="#m7f47385e9d" y="120.96"/>
      </g>
     </g>
    </g>
    <g id="ytick_10">
     <g id="line2d_26">
      <g>
       <use style="stroke:#000000;stroke-width:0.8;" x="233.46" xlink:href="#m7f47385e9d" y="95.04"/>
      </g>
     </g>
    </g>
    <g id="ytick_11">
     <g id="line2d_27">
      <g>
       <use style="stroke:#000000;stroke-width:0.8;" x="233.46" xlink:href="#m7f47385e9d" y="69.12"/>
      </g>
     </g>
    </g>
    <g id="ytick_12">
     <g id="line2d_28">
      <g>
       <use style="stroke:#000000;stroke-width:0.8;" x="233.46" xlink:href="#m7f47385e9d" y="43.2"/>
      </g>
     </g>
    </g>
   </g>
   <g id="line2d_29">
    <path clip-path="url(#p29a882aadb)" d="M 233.46 172.78704 
L 238.689 172.791456 
L 253.2555 172.656601 
L 258.4845 172.405765 
L 261.846 172.046773 
L 264.4605 171.557363 
L 266.7015 170.897915 
L 268.569 170.097799 
L 270.063 169.233542 
L 271.557 168.111835 
L 273.051 166.669954 
L 274.545 164.84 
L 276.039 162.556229 
L 277.533 159.768341 
L 279.027 156.46231 
L 280.8945 151.685624 
L 285.3765 139.689103 
L 286.497 137.426548 
L 287.244 136.267831 
L 287.991 135.438489 
L 288.738 134.968713 
L 289.485 134.874996 
L 290.232 135.158961 
L 290.979 135.807236 
L 291.726 136.792855 
L 292.8465 138.817513 
L 293.967 141.351669 
L 295.8345 146.225029 
L 298.8225 154.130869 
L 300.69 158.413195 
L 302.184 161.309915 
L 303.678 163.727187 
L 305.172 165.699821 
L 306.666 167.282328 
L 308.16 168.535399 
L 309.654 169.51765 
L 311.5215 170.444221 
L 313.389 171.115376 
L 315.63 171.677205 
L 318.2445 172.102741 
L 321.606 172.423243 
L 326.4615 172.645654 
L 334.6785 172.765988 
L 358.209 172.799548 
L 494.91 172.8 
L 494.91 172.8 
" style="fill:none;stroke:#1f77b4;stroke-linecap:square;stroke-width:1.5;"/>
   </g>
   <g id="line2d_30">
    <path clip-path="url(#p29a882aadb)" d="M 233.46 172.797405 
L 254.376 172.778335 
L 266.7015 172.626657 
L 272.304 172.355316 
L 276.039 171.969684 
L 279.027 171.436915 
L 281.268 170.830355 
L 283.1355 170.132752 
L 285.003 169.20405 
L 286.8705 167.980813 
L 288.3645 166.743149 
L 289.8585 165.236221 
L 291.3525 163.429515 
L 292.8465 161.305337 
L 294.714 158.214681 
L 296.955 154.000964 
L 300.69 146.898707 
L 302.184 144.624719 
L 303.3045 143.344582 
L 304.0515 142.73893 
L 304.7985 142.352131 
L 305.5455 142.194822 
L 306.2925 142.270817 
L 307.0395 142.576899 
L 307.7865 143.102897 
L 308.907 144.267238 
L 310.0275 145.813552 
L 311.5215 148.310804 
L 314.5095 153.963394 
L 317.124 158.699711 
L 318.9915 161.62831 
L 320.859 164.094037 
L 322.353 165.735546 
L 323.847 167.105585 
L 325.7145 168.482941 
L 327.582 169.547909 
L 329.4495 170.361879 
L 331.6905 171.08247 
L 334.305 171.663862 
L 337.293 172.094354 
L 341.4015 172.434943 
L 347.004 172.65198 
L 356.715 172.769176 
L 385.4745 172.799715 
L 494.91 172.8 
L 494.91 172.8 
" style="fill:none;stroke:#ff7f0e;stroke-linecap:square;stroke-width:1.5;"/>
   </g>
   <g id="line2d_31">
    <path clip-path="url(#p29a882aadb)" d="M 233.46 172.787042 
L 238.689 172.791281 
L 253.629 172.656959 
L 259.2315 172.392312 
L 262.593 172.037868 
L 265.2075 171.563825 
L 267.4485 170.934955 
L 269.316 170.181763 
L 270.81 169.376498 
L 272.304 168.340602 
L 273.798 167.019905 
L 275.292 165.355978 
L 276.786 163.291691 
L 278.28 160.781838 
L 279.774 157.809112 
L 281.6415 153.498515 
L 286.8705 140.720296 
L 287.991 138.752451 
L 288.738 137.768209 
L 289.485 137.086184 
L 290.232 136.729709 
L 290.979 136.710305 
L 291.726 137.026981 
L 292.473 137.666337 
L 293.22 138.60376 
L 294.3405 140.492601 
L 295.8345 143.687813 
L 298.449 150.132825 
L 300.69 155.498566 
L 302.5575 159.391961 
L 304.0515 162.029314 
L 305.5455 164.238628 
L 307.0395 166.051424 
L 308.5335 167.515271 
L 310.0275 168.682839 
L 311.5215 169.605274 
L 313.389 170.483318 
L 315.2565 171.125962 
L 317.4975 171.670134 
L 320.4855 172.133581 
L 324.2205 172.456769 
L 329.4495 172.664884 
L 338.787 172.774526 
L 369.7875 172.799912 
L 494.91 172.8 
L 494.91 172.8 
" style="fill:none;stroke:#2ca02c;stroke-linecap:square;stroke-width:1.5;"/>
   </g>
   <g id="line2d_32">
    <path clip-path="url(#p29a882aadb)" d="M 233.46 172.787052 
L 238.689 172.793355 
L 257.7375 172.662424 
L 264.4605 172.40101 
L 268.569 172.038148 
L 271.557 171.584966 
L 274.1715 170.979519 
L 276.4125 170.237208 
L 278.28 169.407425 
L 280.1475 168.333739 
L 282.015 166.962748 
L 283.509 165.616942 
L 285.003 164.026203 
L 286.8705 161.678545 
L 288.738 158.95265 
L 291.3525 154.685145 
L 294.3405 149.833923 
L 295.8345 147.791823 
L 296.955 146.572358 
L 298.0755 145.693183 
L 298.8225 145.320933 
L 299.5695 145.131248 
L 300.3165 145.1284 
L 301.0635 145.311782 
L 301.8105 145.675805 
L 302.931 146.536916 
L 304.0515 147.729719 
L 305.5455 149.722612 
L 307.7865 153.226234 
L 311.895 159.731431 
L 313.7625 162.279271 
L 315.63 164.459001 
L 317.4975 166.266691 
L 319.365 167.730824 
L 321.2325 168.895568 
L 323.1 169.809632 
L 325.341 170.640813 
L 327.9555 171.331543 
L 330.9435 171.859618 
L 334.6785 172.263829 
L 339.534 172.542859 
L 347.004 172.717354 
L 361.944 172.791509 
L 461.295 172.8 
L 494.91 172.8 
L 494.91 172.8 
" style="fill:none;stroke:#d62728;stroke-linecap:square;stroke-width:1.5;"/>
   </g>
   <g id="line2d_33">
    <path clip-path="url(#p29a882aadb)" d="M 233.46 172.787033 
L 238.689 172.792591 
L 255.4965 172.666978 
L 261.4725 172.428787 
L 265.581 172.051022 
L 268.569 171.55672 
L 270.81 170.988 
L 272.6775 170.328005 
L 274.545 169.441675 
L 276.039 168.525846 
L 277.533 167.385233 
L 279.027 165.979942 
L 280.521 164.272531 
L 282.015 162.234474 
L 283.509 159.856069 
L 285.3765 156.441525 
L 288.3645 150.365513 
L 290.6055 146.029351 
L 291.726 144.216054 
L 292.8465 142.780801 
L 293.5935 142.079313 
L 294.3405 141.606499 
L 295.0875 141.376042 
L 295.8345 141.39408 
L 296.5815 141.658874 
L 297.3285 142.161072 
L 298.0755 142.884371 
L 299.196 144.333772 
L 300.69 146.798566 
L 302.931 151.137506 
L 306.2925 157.674223 
L 308.16 160.82168 
L 310.0275 163.482407 
L 311.5215 165.255716 
L 313.0155 166.735218 
L 314.5095 167.952564 
L 316.377 169.159769 
L 318.2445 170.081086 
L 320.4855 170.894317 
L 322.7265 171.469775 
L 325.7145 171.979845 
L 329.4495 172.35379 
L 334.305 172.598533 
L 342.1485 172.744476 
L 360.45 172.797268 
L 494.91 172.8 
L 494.91 172.8 
" style="fill:none;stroke:#9467bd;stroke-linecap:square;stroke-width:1.5;"/>
   </g>
   <g id="line2d_34">
    <path clip-path="url(#p29a882aadb)" d="M 233.46 172.787049 
L 238.689 172.79189 
L 254.0025 172.659259 
L 259.605 172.400975 
L 263.34 172.003249 
L 265.9545 171.511221 
L 268.1955 170.860493 
L 270.063 170.083378 
L 271.557 169.254712 
L 273.051 168.191588 
L 274.545 166.840298 
L 276.039 165.143609 
L 277.533 163.047204 
L 279.027 160.510134 
L 280.521 157.521712 
L 282.3885 153.220537 
L 287.244 141.486741 
L 288.3645 139.464332 
L 289.1115 138.423401 
L 289.8585 137.669736 
L 290.6055 137.228757 
L 291.3525 137.114944 
L 292.0995 137.330687 
L 292.8465 137.866388 
L 293.5935 138.701195 
L 294.714 140.445391 
L 295.8345 142.661267 
L 297.702 146.998842 
L 301.437 155.912892 
L 303.3045 159.704645 
L 304.7985 162.27099 
L 306.2925 164.421001 
L 307.7865 166.186174 
L 309.2805 167.612991 
L 310.7745 168.752457 
L 312.2685 169.653988 
L 314.136 170.513628 
L 316.0035 171.144176 
L 318.2445 171.679394 
L 321.2325 172.136593 
L 324.9675 172.456739 
L 330.1965 172.663974 
L 339.534 172.774035 
L 369.414 172.799874 
L 494.91 172.8 
L 494.91 172.8 
" style="fill:none;stroke:#8c564b;stroke-linecap:square;stroke-width:1.5;"/>
   </g>
   <g id="patch_8">
    <path d="M 233.46 172.8 
L 233.46 43.2 
" style="fill:none;stroke:#000000;stroke-linecap:square;stroke-linejoin:miter;stroke-width:0.8;"/>
   </g>
   <g id="patch_9">
    <path d="M 382.86 172.8 
L 382.86 43.2 
" style="fill:none;stroke:#000000;stroke-linecap:square;stroke-linejoin:miter;stroke-width:0.8;"/>
   </g>
   <g id="patch_10">
    <path d="M 233.46 172.8 
L 382.86 172.8 
" style="fill:none;stroke:#000000;stroke-linecap:square;stroke-linejoin:miter;stroke-width:0.8;"/>
   </g>
   <g id="patch_11">
    <path d="M 233.46 43.2 
L 382.86 43.2 
" style="fill:none;stroke:#000000;stroke-linecap:square;stroke-linejoin:miter;stroke-width:0.8;"/>
   </g>
   <g id="text_21">
    <!-- 未接种率 p = 0.5 -->
    <defs>
     <path d="M 49.203125 71.796875 
L 49.203125 65 
L 23.59375 65 
L 20 45.40625 
Q 24.796875 46.796875 29 46.796875 
Q 38.40625 46.796875 44.703125 40.140625 
Q 51 33.5 51 23.296875 
Q 51 12.703125 44.140625 5.453125 
Q 37.296875 -1.796875 26 -1.796875 
Q 17.40625 -1.796875 11.34375 3.34375 
Q 5.296875 8.5 4.09375 17.40625 
L 11.40625 17.40625 
Q 12.703125 11.40625 16.796875 8.203125 
Q 20.90625 5 26.296875 5 
Q 33.40625 5 38.546875 10.296875 
Q 43.703125 15.59375 43.703125 23.5 
Q 43.703125 30.703125 39.203125 35.34375 
Q 34.703125 40 27 40 
Q 20.203125 40 11.40625 36.203125 
L 18.09375 71.796875 
z
" id="STXihei-53"/>
    </defs>
    <g transform="translate(263.62125 37.2)scale(0.12 -0.12)">
     <use xlink:href="#STXihei-26410"/>
     <use x="99.999985" xlink:href="#STXihei-25509"/>
     <use x="199.999969" xlink:href="#STXihei-31181"/>
     <use x="299.999954" xlink:href="#STXihei-29575"/>
     <use x="399.999939" xlink:href="#STXihei-32"/>
     <use x="424.999924" xlink:href="#STXihei-112"/>
     <use x="493.199905" xlink:href="#STXihei-32"/>
     <use x="518.19989" xlink:href="#STXihei-61"/>
     <use x="578.799881" xlink:href="#STXihei-32"/>
     <use x="603.799866" xlink:href="#STXihei-48"/>
     <use x="659.19986" xlink:href="#STXihei-46"/>
     <use x="686.899857" xlink:href="#STXihei-53"/>
    </g>
   </g>
  </g>
  <g id="axes_3">
   <g id="patch_12">
    <path d="M 397.8 172.8 
L 547.2 172.8 
L 547.2 43.2 
L 397.8 43.2 
z
" style="fill:#ffffff;"/>
   </g>
   <g id="matplotlib.axis_5">
    <g id="xtick_11">
     <g id="line2d_35">
      <g>
       <use style="stroke:#000000;stroke-width:0.8;" x="397.8" xlink:href="#mcf10434ab6" y="172.8"/>
      </g>
     </g>
     <g id="text_22">
      <!-- 0 -->
      <g transform="translate(395.029687 187.159375)scale(0.1 -0.1)">
       <use xlink:href="#STXihei-48"/>
      </g>
     </g>
    </g>
    <g id="xtick_12">
     <g id="line2d_36">
      <g>
       <use style="stroke:#000000;stroke-width:0.8;" x="435.15" xlink:href="#mcf10434ab6" y="172.8"/>
      </g>
     </g>
     <g id="text_23">
      <!-- 100 -->
      <g transform="translate(426.839062 187.159375)scale(0.1 -0.1)">
       <use xlink:href="#STXihei-49"/>
       <use x="55.399994" xlink:href="#STXihei-48"/>
       <use x="110.799988" xlink:href="#STXihei-48"/>
      </g>
     </g>
    </g>
    <g id="xtick_13">
     <g id="line2d_37">
      <g>
       <use style="stroke:#000000;stroke-width:0.8;" x="472.5" xlink:href="#mcf10434ab6" y="172.8"/>
      </g>
     </g>
     <g id="text_24">
      <!-- 200 -->
      <g transform="translate(464.189062 187.159375)scale(0.1 -0.1)">
       <use xlink:href="#STXihei-50"/>
       <use x="55.399994" xlink:href="#STXihei-48"/>
       <use x="110.799988" xlink:href="#STXihei-48"/>
      </g>
     </g>
    </g>
    <g id="xtick_14">
     <g id="line2d_38">
      <g>
       <use style="stroke:#000000;stroke-width:0.8;" x="509.85" xlink:href="#mcf10434ab6" y="172.8"/>
      </g>
     </g>
     <g id="text_25">
      <!-- 300 -->
      <g transform="translate(501.539062 187.159375)scale(0.1 -0.1)">
       <use xlink:href="#STXihei-51"/>
       <use x="55.399994" xlink:href="#STXihei-48"/>
       <use x="110.799988" xlink:href="#STXihei-48"/>
      </g>
     </g>
    </g>
    <g id="xtick_15">
     <g id="line2d_39">
      <g>
       <use style="stroke:#000000;stroke-width:0.8;" x="547.2" xlink:href="#mcf10434ab6" y="172.8"/>
      </g>
     </g>
     <g id="text_26">
      <!-- 400 -->
      <g transform="translate(538.889062 187.159375)scale(0.1 -0.1)">
       <use xlink:href="#STXihei-52"/>
       <use x="55.399994" xlink:href="#STXihei-48"/>
       <use x="110.799988" xlink:href="#STXihei-48"/>
      </g>
     </g>
    </g>
    <g id="text_27">
     <!-- 时间（天） -->
     <g transform="translate(435 210.139063)scale(0.15 -0.15)">
      <use xlink:href="#STXihei-26102"/>
      <use x="99.999985" xlink:href="#STXihei-38388"/>
      <use x="199.999969" xlink:href="#STXihei-65288"/>
      <use x="299.999954" xlink:href="#STXihei-22825"/>
      <use x="399.999939" xlink:href="#STXihei-65289"/>
     </g>
    </g>
   </g>
   <g id="matplotlib.axis_6">
    <g id="ytick_13">
     <g id="line2d_40">
      <g>
       <use style="stroke:#000000;stroke-width:0.8;" x="397.8" xlink:href="#m7f47385e9d" y="172.8"/>
      </g>
     </g>
    </g>
    <g id="ytick_14">
     <g id="line2d_41">
      <g>
       <use style="stroke:#000000;stroke-width:0.8;" x="397.8" xlink:href="#m7f47385e9d" y="146.88"/>
      </g>
     </g>
    </g>
    <g id="ytick_15">
     <g id="line2d_42">
      <g>
       <use style="stroke:#000000;stroke-width:0.8;" x="397.8" xlink:href="#m7f47385e9d" y="120.96"/>
      </g>
     </g>
    </g>
    <g id="ytick_16">
     <g id="line2d_43">
      <g>
       <use style="stroke:#000000;stroke-width:0.8;" x="397.8" xlink:href="#m7f47385e9d" y="95.04"/>
      </g>
     </g>
    </g>
    <g id="ytick_17">
     <g id="line2d_44">
      <g>
       <use style="stroke:#000000;stroke-width:0.8;" x="397.8" xlink:href="#m7f47385e9d" y="69.12"/>
      </g>
     </g>
    </g>
    <g id="ytick_18">
     <g id="line2d_45">
      <g>
       <use style="stroke:#000000;stroke-width:0.8;" x="397.8" xlink:href="#m7f47385e9d" y="43.2"/>
      </g>
     </g>
    </g>
   </g>
   <g id="line2d_46">
    <path clip-path="url(#p79ef089279)" d="M 397.8 172.78704 
L 402.6555 172.786404 
L 410.8725 172.651651 
L 414.234 172.406196 
L 416.475 172.046239 
L 418.3425 171.507598 
L 419.8365 170.814734 
L 420.957 170.065697 
L 422.0775 169.042575 
L 423.198 167.652554 
L 424.3185 165.778073 
L 425.439 163.275978 
L 426.5595 159.982681 
L 427.68 155.730279 
L 428.8005 150.380838 
L 429.921 143.885291 
L 431.415 133.690832 
L 434.0295 115.242633 
L 434.7765 111.145626 
L 435.5235 108.130193 
L 435.897 107.104339 
L 436.2705 106.42846 
L 436.644 106.114921 
L 437.0175 106.168095 
L 437.391 106.584265 
L 437.7645 107.351869 
L 438.5115 109.860022 
L 439.2585 113.47376 
L 440.379 120.348386 
L 444.114 145.175864 
L 445.2345 151.087401 
L 446.355 155.978836 
L 447.4755 159.913035 
L 448.596 163.011032 
L 449.7165 165.412304 
L 450.837 167.251685 
L 451.9575 168.64836 
L 453.078 169.701921 
L 454.1985 170.492856 
L 455.6925 171.246206 
L 457.1865 171.755456 
L 459.054 172.165219 
L 461.6685 172.484509 
L 465.4035 172.683999 
L 472.1265 172.780879 
L 498.645 172.799979 
L 577 172.8 
L 577 172.8 
" style="fill:none;stroke:#1f77b4;stroke-linecap:square;stroke-width:1.5;"/>
   </g>
   <g id="line2d_47">
    <path clip-path="url(#p79ef089279)" d="M 397.8 172.797405 
L 413.487 172.757579 
L 419.8365 172.574376 
L 423.198 172.254517 
L 425.439 171.819329 
L 427.3065 171.2047 
L 428.8005 170.451158 
L 429.921 169.667 
L 431.0415 168.631013 
L 432.162 167.270315 
L 433.2825 165.496664 
L 434.403 163.208068 
L 435.5235 160.294725 
L 436.644 156.651866 
L 437.7645 152.20308 
L 438.885 146.936847 
L 440.379 138.838637 
L 443.367 122.223609 
L 444.114 119.015159 
L 444.861 116.583629 
L 445.608 115.08451 
L 445.9815 114.717196 
L 446.355 114.613205 
L 446.7285 114.773083 
L 447.102 115.192366 
L 447.4755 115.862233 
L 448.2225 117.897417 
L 448.9695 120.73352 
L 450.09 126.085684 
L 454.9455 151.250923 
L 456.066 155.611908 
L 457.1865 159.240135 
L 458.307 162.194654 
L 459.4275 164.56119 
L 460.548 166.433123 
L 461.6685 167.899628 
L 462.789 169.040073 
L 463.9095 169.921969 
L 465.4035 170.790399 
L 466.8975 171.399942 
L 468.765 171.91084 
L 471.006 172.285314 
L 473.994 172.552218 
L 478.8495 172.724602 
L 488.934 172.793643 
L 569.2365 172.8 
L 577 172.8 
L 577 172.8 
" style="fill:none;stroke:#ff7f0e;stroke-linecap:square;stroke-width:1.5;"/>
   </g>
   <g id="line2d_48">
    <path clip-path="url(#p79ef089279)" d="M 397.8 172.787042 
L 402.6555 172.786115 
L 411.246 172.641 
L 414.6075 172.387942 
L 416.8485 172.023718 
L 418.716 171.4865 
L 420.21 170.803569 
L 421.3305 170.072142 
L 422.451 169.080858 
L 423.5715 167.7446 
L 424.692 165.956086 
L 425.8125 163.585741 
L 426.933 160.485912 
L 428.0535 156.50486 
L 429.174 151.515705 
L 430.2945 145.465952 
L 431.7885 135.940381 
L 434.7765 116.11713 
L 435.5235 112.412579 
L 436.2705 109.753151 
L 436.644 108.880317 
L 437.0175 108.335593 
L 437.391 108.128317 
L 437.7645 108.260652 
L 438.138 108.727608 
L 438.5115 109.517443 
L 439.2585 111.98785 
L 440.0055 115.46837 
L 441.126 122.018058 
L 444.861 145.644421 
L 445.9815 151.32622 
L 447.102 156.058322 
L 448.2225 159.890748 
L 449.343 162.929984 
L 450.4635 165.302426 
L 451.584 167.13255 
L 452.7045 168.531808 
L 453.825 169.594568 
L 454.9455 170.397758 
L 456.4395 171.168588 
L 457.9335 171.694173 
L 459.801 172.121043 
L 462.4155 172.457718 
L 466.1505 172.671595 
L 472.8735 172.778058 
L 496.7775 172.799956 
L 577 172.8 
L 577 172.8 
" style="fill:none;stroke:#2ca02c;stroke-linecap:square;stroke-width:1.5;"/>
   </g>
   <g id="line2d_49">
    <path clip-path="url(#p79ef089279)" d="M 397.8 172.787052 
L 402.6555 172.78932 
L 413.1135 172.650794 
L 417.222 172.379729 
L 419.8365 171.989283 
L 421.704 171.506381 
L 423.198 170.923613 
L 424.692 170.085102 
L 425.8125 169.226785 
L 426.933 168.109719 
L 428.0535 166.665286 
L 429.174 164.812923 
L 430.2945 162.463603 
L 431.415 159.526689 
L 432.5355 155.923939 
L 433.656 151.61192 
L 435.15 144.81348 
L 439.632 122.974596 
L 440.379 120.587091 
L 441.126 118.970905 
L 441.4995 118.483995 
L 441.873 118.221632 
L 442.2465 118.187033 
L 442.62 118.379566 
L 442.9935 118.79488 
L 443.7405 120.258695 
L 444.4875 122.47806 
L 445.608 126.915261 
L 447.102 134.056152 
L 449.7165 146.763204 
L 451.2105 152.929668 
L 452.331 156.816194 
L 453.4515 160.070718 
L 454.572 162.742922 
L 455.6925 164.903876 
L 456.813 166.630977 
L 457.9335 167.99883 
L 459.054 169.07452 
L 460.548 170.152901 
L 462.042 170.924615 
L 463.9095 171.584544 
L 466.1505 172.079682 
L 468.765 172.409633 
L 472.5 172.637609 
L 478.8495 172.763556 
L 496.7775 172.799473 
L 577 172.8 
L 577 172.8 
" style="fill:none;stroke:#d62728;stroke-linecap:square;stroke-width:1.5;"/>
   </g>
   <g id="line2d_50">
    <path clip-path="url(#p79ef089279)" d="M 397.8 172.787033 
L 402.6555 172.788214 
L 411.993 172.657646 
L 415.728 172.41464 
L 418.3425 172.027682 
L 420.21 171.533427 
L 421.704 170.922126 
L 423.198 170.023153 
L 424.3185 169.085466 
L 425.439 167.845567 
L 426.5595 166.217298 
L 427.68 164.098617 
L 428.8005 161.375721 
L 429.921 157.933229 
L 431.0415 153.674797 
L 432.162 148.55687 
L 433.656 140.514649 
L 437.0175 121.258253 
L 437.7645 117.991573 
L 438.5115 115.545557 
L 439.2585 114.080412 
L 439.632 113.748284 
L 440.0055 113.690838 
L 440.379 113.90761 
L 440.7525 114.392928 
L 441.4995 116.123215 
L 442.2465 118.74979 
L 443.367 123.968183 
L 445.2345 134.379246 
L 447.102 144.619822 
L 448.596 151.617614 
L 449.7165 155.976861 
L 450.837 159.582383 
L 451.9575 162.502649 
L 453.078 164.830345 
L 454.1985 166.663184 
L 455.319 168.092973 
L 456.4395 169.200452 
L 457.56 170.053717 
L 459.054 170.89045 
L 460.548 171.475124 
L 462.4155 171.96278 
L 464.6565 172.318271 
L 468.018 172.59022 
L 473.247 172.742554 
L 485.199 172.797013 
L 577 172.8 
L 577 172.8 
" style="fill:none;stroke:#9467bd;stroke-linecap:square;stroke-width:1.5;"/>
   </g>
   <g id="line2d_51">
    <path clip-path="url(#p79ef089279)" d="M 397.8 172.787049 
L 402.6555 172.78707 
L 411.246 172.65337 
L 414.981 172.379139 
L 417.222 172.008991 
L 419.0895 171.46428 
L 420.5835 170.773148 
L 421.704 170.033964 
L 422.8245 169.033709 
L 423.945 167.687322 
L 425.0655 165.888263 
L 426.186 163.508049 
L 427.3065 160.40133 
L 428.427 156.419903 
L 429.5475 151.441973 
L 430.668 145.421603 
L 432.162 135.97464 
L 435.15 116.447525 
L 435.897 112.825705 
L 436.644 110.238529 
L 437.0175 109.395529 
L 437.391 108.875315 
L 437.7645 108.686584 
L 438.138 108.831077 
L 438.5115 109.303574 
L 438.885 110.092193 
L 439.632 112.541289 
L 440.379 115.978654 
L 441.4995 122.435602 
L 445.2345 145.742755 
L 446.355 151.365567 
L 447.4755 156.057677 
L 448.596 159.865462 
L 449.7165 162.891479 
L 450.837 165.258574 
L 451.9575 167.088397 
L 453.078 168.490338 
L 454.1985 169.557297 
L 455.319 170.365217 
L 456.813 171.142352 
L 458.307 171.673652 
L 460.1745 172.106332 
L 462.789 172.448839 
L 466.524 172.667453 
L 472.8735 172.774748 
L 494.163 172.799916 
L 577 172.8 
L 577 172.8 
" style="fill:none;stroke:#8c564b;stroke-linecap:square;stroke-width:1.5;"/>
   </g>
   <g id="patch_13">
    <path d="M 397.8 172.8 
L 397.8 43.2 
" style="fill:none;stroke:#000000;stroke-linecap:square;stroke-linejoin:miter;stroke-width:0.8;"/>
   </g>
   <g id="patch_14">
    <path d="M 547.2 172.8 
L 547.2 43.2 
" style="fill:none;stroke:#000000;stroke-linecap:square;stroke-linejoin:miter;stroke-width:0.8;"/>
   </g>
   <g id="patch_15">
    <path d="M 397.8 172.8 
L 547.2 172.8 
" style="fill:none;stroke:#000000;stroke-linecap:square;stroke-linejoin:miter;stroke-width:0.8;"/>
   </g>
   <g id="patch_16">
    <path d="M 397.8 43.2 
L 547.2 43.2 
" style="fill:none;stroke:#000000;stroke-linecap:square;stroke-linejoin:miter;stroke-width:0.8;"/>
   </g>
   <g id="text_28">
    <!-- 未接种率 p = 0.9 -->
    <defs>
     <path d="M 19.203125 -1.796875 
L 13.296875 2 
L 32.703125 31.40625 
Q 28.90625 30.09375 25.203125 30.09375 
Q 16.59375 30.09375 10.75 36.296875 
Q 4.90625 42.5 4.90625 51.5 
Q 4.90625 61 11.40625 67.296875 
Q 17.90625 73.59375 27.296875 73.59375 
Q 36.796875 73.59375 42.9375 67.140625 
Q 49.09375 60.703125 49.09375 51.703125 
Q 49.09375 46.703125 47.046875 41.640625 
Q 45 36.59375 41 30.703125 
z
M 11.90625 51.5 
Q 11.90625 45.203125 16.296875 40.796875 
Q 20.703125 36.40625 27 36.40625 
Q 33.296875 36.40625 37.6875 40.84375 
Q 42.09375 45.296875 42.09375 51.5 
Q 42.09375 57.703125 37.6875 62.140625 
Q 33.296875 66.59375 27 66.59375 
Q 20.703125 66.59375 16.296875 62.1875 
Q 11.90625 57.796875 11.90625 51.5 
z
" id="STXihei-57"/>
    </defs>
    <g transform="translate(427.96125 37.2)scale(0.12 -0.12)">
     <use xlink:href="#STXihei-26410"/>
     <use x="99.999985" xlink:href="#STXihei-25509"/>
     <use x="199.999969" xlink:href="#STXihei-31181"/>
     <use x="299.999954" xlink:href="#STXihei-29575"/>
     <use x="399.999939" xlink:href="#STXihei-32"/>
     <use x="424.999924" xlink:href="#STXihei-112"/>
     <use x="493.199905" xlink:href="#STXihei-32"/>
     <use x="518.19989" xlink:href="#STXihei-61"/>
     <use x="578.799881" xlink:href="#STXihei-32"/>
     <use x="603.799866" xlink:href="#STXihei-48"/>
     <use x="659.19986" xlink:href="#STXihei-46"/>
     <use x="686.899857" xlink:href="#STXihei-57"/>
    </g>
   </g>
  </g>
  <g id="legend_1">
   <g id="line2d_52">
    <path d="M 67.554688 12.859375 
L 87.554688 12.859375 
" style="fill:none;stroke:#1f77b4;stroke-linecap:square;stroke-width:1.5;"/>
   </g>
   <g id="line2d_53"/>
   <g id="text_29">
    <!-- Hubei -->
    <defs>
     <path d="M 8.59375 71.796875 
L 15.90625 71.796875 
L 15.90625 41.703125 
L 52.40625 41.703125 
L 52.40625 71.796875 
L 59.59375 71.796875 
L 59.59375 0 
L 52.40625 0 
L 52.40625 34.703125 
L 15.90625 34.703125 
L 15.90625 0 
L 8.59375 0 
z
" id="STXihei-72"/>
     <path d="M 6.703125 53.09375 
L 13.59375 53.09375 
L 13.59375 27.90625 
Q 13.59375 19.796875 14.34375 16.4375 
Q 15.09375 13.09375 17.296875 10.390625 
Q 19.5 7.703125 22.703125 6.296875 
Q 25.90625 4.90625 30 4.90625 
Q 34.203125 4.90625 37.390625 6.34375 
Q 40.59375 7.796875 42.75 10.4375 
Q 44.90625 13.09375 45.546875 16.296875 
Q 46.203125 19.5 46.203125 27.90625 
L 46.203125 53.09375 
L 53.203125 53.09375 
L 53.203125 26.703125 
Q 53.203125 15.296875 50.59375 9.796875 
Q 48 4.296875 42.796875 1.25 
Q 37.59375 -1.796875 30 -1.796875 
Q 22.703125 -1.796875 17.453125 1.140625 
Q 12.203125 4.09375 9.453125 9.84375 
Q 6.703125 15.59375 6.703125 27.09375 
z
" id="STXihei-117"/>
     <path d="M 8.09375 0 
L 8.09375 73.59375 
L 14.796875 73.59375 
L 14.796875 44 
Q 23.5 54.5 36.09375 54.5 
Q 47.5 54.5 55.453125 46.25 
Q 63.40625 38 63.40625 26.296875 
Q 63.40625 14.796875 55.296875 6.5 
Q 47.203125 -1.796875 35.90625 -1.796875 
Q 23.296875 -1.796875 14.796875 9.796875 
L 14.796875 0 
z
M 14.40625 26.90625 
Q 14.40625 17.59375 20.5 11.1875 
Q 26.59375 4.796875 35.40625 4.796875 
Q 44.203125 4.796875 50.34375 11.296875 
Q 56.5 17.796875 56.5 26.5 
Q 56.5 35.296875 50.5 41.796875 
Q 44.5 48.296875 35.5 48.296875 
Q 26.5 48.296875 20.453125 42.1875 
Q 14.40625 36.09375 14.40625 26.90625 
z
" id="STXihei-98"/>
     <path d="M 52.296875 17.203125 
L 58.09375 14.203125 
Q 49.5 -1.796875 32.703125 -1.796875 
Q 20.703125 -1.796875 12.890625 6.453125 
Q 5.09375 14.703125 5.09375 26.203125 
Q 5.09375 37.90625 12.9375 46.203125 
Q 20.796875 54.5 32.296875 54.5 
Q 43.90625 54.5 51.75 46.796875 
Q 59.59375 39.09375 59.90625 25.796875 
L 12.09375 25.796875 
Q 12.40625 16.203125 18.15625 10.34375 
Q 23.90625 4.5 32.09375 4.5 
Q 45.59375 4.5 52.296875 17.203125 
z
M 52.296875 31.703125 
Q 50.90625 39.296875 45.296875 43.59375 
Q 39.703125 47.90625 32.40625 47.90625 
Q 17.40625 47.90625 12.796875 31.703125 
z
" id="STXihei-101"/>
     <path d="M 4.40625 67.90625 
Q 4.40625 70.203125 6.046875 71.890625 
Q 7.703125 73.59375 10 73.59375 
Q 12.40625 73.59375 14.046875 71.9375 
Q 15.703125 70.296875 15.703125 67.90625 
Q 15.703125 65.59375 14.046875 63.9375 
Q 12.40625 62.296875 10 62.296875 
Q 7.703125 62.296875 6.046875 64 
Q 4.40625 65.703125 4.40625 67.90625 
z
M 6.59375 53.09375 
L 13.5 53.09375 
L 13.5 0 
L 6.59375 0 
z
" id="STXihei-105"/>
    </defs>
    <g transform="translate(95.554688 16.359375)scale(0.1 -0.1)">
     <use xlink:href="#STXihei-72"/>
     <use x="68.299988" xlink:href="#STXihei-117"/>
     <use x="129.099976" xlink:href="#STXihei-98"/>
     <use x="197.299957" xlink:href="#STXihei-101"/>
     <use x="262.299942" xlink:href="#STXihei-105"/>
    </g>
   </g>
   <g id="line2d_54">
    <path d="M 143.784375 12.859375 
L 163.784375 12.859375 
" style="fill:none;stroke:#ff7f0e;stroke-linecap:square;stroke-width:1.5;"/>
   </g>
   <g id="line2d_55"/>
   <g id="text_30">
    <!-- Shanghai -->
    <defs>
     <path d="M 1.296875 13.40625 
L 7.40625 17 
Q 13.796875 5.203125 22.296875 5.203125 
Q 27.796875 5.203125 31.6875 8.703125 
Q 35.59375 12.203125 35.59375 17.40625 
Q 35.59375 21.5 32.296875 25.703125 
Q 29 29.90625 20.796875 36 
Q 13.703125 41.40625 11.046875 44.25 
Q 8.40625 47.09375 7.15625 50.34375 
Q 5.90625 53.59375 5.90625 56.90625 
Q 5.90625 63.90625 10.84375 68.75 
Q 15.796875 73.59375 23.296875 73.59375 
Q 29.203125 73.59375 33.59375 70.640625 
Q 38 67.703125 42.09375 61.90625 
L 36.296875 57.40625 
Q 33.5 61.203125 30.5 63.703125 
Q 27.5 66.203125 23.09375 66.203125 
Q 18.796875 66.203125 16.046875 63.59375 
Q 13.296875 61 13.296875 57.09375 
Q 13.296875 53 15.75 50.046875 
Q 18.203125 47.09375 27.09375 40.59375 
Q 35.5 34.296875 39.453125 28.890625 
Q 43.40625 23.5 43.40625 17.5 
Q 43.40625 9.703125 37.34375 3.953125 
Q 31.296875 -1.796875 23.296875 -1.796875 
Q 9.203125 -1.796875 1.296875 13.40625 
z
" id="STXihei-83"/>
     <path d="M 7.59375 73.59375 
L 14.5 73.59375 
L 14.5 43.59375 
Q 22.703125 54.5 34.40625 54.5 
Q 40.40625 54.5 45.203125 51.25 
Q 50 48 52 42.75 
Q 54 37.5 54 27.296875 
L 54 0 
L 47.09375 0 
L 47.09375 25.296875 
Q 47.09375 33.5 46.59375 36.59375 
Q 46.09375 39.703125 44.390625 42.5 
Q 42.703125 45.296875 39.84375 46.75 
Q 37 48.203125 33 48.203125 
Q 28.90625 48.203125 25.203125 46.296875 
Q 21.5 44.40625 18.890625 41 
Q 16.296875 37.59375 15.390625 34 
Q 14.5 30.40625 14.5 19.5 
L 14.5 0 
L 7.59375 0 
z
" id="STXihei-104"/>
     <path d="M 60.5 53.09375 
L 60.5 0 
L 53.796875 0 
L 53.796875 9.09375 
Q 44.703125 -1.796875 32.5 -1.796875 
Q 21.296875 -1.796875 13.25 6.546875 
Q 5.203125 14.90625 5.203125 26.5 
Q 5.203125 38 13.296875 46.25 
Q 21.40625 54.5 32.703125 54.5 
Q 45.703125 54.5 53.796875 43.40625 
L 53.796875 53.09375 
z
M 54.203125 26.296875 
Q 54.203125 35.40625 48.09375 41.65625 
Q 42 47.90625 33.203125 47.90625 
Q 24.296875 47.90625 18.1875 41.453125 
Q 12.09375 35 12.09375 26.296875 
Q 12.09375 17.40625 18.296875 10.953125 
Q 24.5 4.5 33.203125 4.5 
Q 41.796875 4.5 48 10.703125 
Q 54.203125 16.90625 54.203125 26.296875 
z
" id="STXihei-97"/>
     <path d="M 7.59375 53.09375 
L 14.5 53.09375 
L 14.5 43.59375 
Q 22.703125 54.5 34.40625 54.5 
Q 40.40625 54.5 45.203125 51.25 
Q 50 48 52 42.75 
Q 54 37.5 54 27.296875 
L 54 0 
L 47.203125 0 
L 47.203125 25.296875 
Q 47.203125 34.59375 46.34375 37.890625 
Q 45.5 41.203125 43.75 43.5 
Q 42 45.796875 39.296875 47 
Q 36.59375 48.203125 33 48.203125 
Q 28.90625 48.203125 25.203125 46.296875 
Q 21.5 44.40625 18.890625 41 
Q 16.296875 37.59375 15.390625 34 
Q 14.5 30.40625 14.5 19.5 
L 14.5 0 
L 7.59375 0 
z
" id="STXihei-110"/>
     <path d="M 54.09375 53.09375 
L 61 53.09375 
L 61 12.09375 
Q 61 1.203125 59.09375 -3.890625 
Q 57.203125 -9 53.59375 -12.390625 
Q 50 -15.796875 44.890625 -17.59375 
Q 39.796875 -19.40625 33.703125 -19.40625 
Q 12.90625 -19.40625 6.296875 -2.796875 
L 13.703125 -2.796875 
Q 19.5 -13.203125 33.40625 -13.203125 
Q 40.09375 -13.203125 45.046875 -10.59375 
Q 50 -8 52.046875 -3.953125 
Q 54.09375 0.09375 54.09375 8.703125 
L 54.09375 11 
Q 50 5.90625 44.390625 3.40625 
Q 38.796875 0.90625 32.59375 0.90625 
Q 21 0.90625 13.296875 8.796875 
Q 5.59375 16.703125 5.59375 27.40625 
Q 5.59375 38.5 13.796875 46.5 
Q 22 54.5 33 54.5 
Q 45.296875 54.5 54.09375 43.90625 
z
M 54.40625 27.40625 
Q 54.40625 36.09375 48.5 42 
Q 42.59375 47.90625 33.90625 47.90625 
Q 24.703125 47.90625 18.59375 41.546875 
Q 12.5 35.203125 12.5 26.90625 
Q 12.5 18.796875 18.390625 13.046875 
Q 24.296875 7.296875 33.5 7.296875 
Q 42.703125 7.296875 48.546875 12.890625 
Q 54.40625 18.5 54.40625 27.40625 
z
" id="STXihei-103"/>
    </defs>
    <g transform="translate(171.784375 16.359375)scale(0.1 -0.1)">
     <use xlink:href="#STXihei-83"/>
     <use x="49.799988" xlink:href="#STXihei-104"/>
     <use x="110.799973" xlink:href="#STXihei-97"/>
     <use x="179.09996" xlink:href="#STXihei-110"/>
     <use x="240.099945" xlink:href="#STXihei-103"/>
     <use x="307.399933" xlink:href="#STXihei-104"/>
     <use x="368.399918" xlink:href="#STXihei-97"/>
     <use x="436.699905" xlink:href="#STXihei-105"/>
    </g>
   </g>
   <g id="line2d_56">
    <path d="M 237.453125 12.859375 
L 257.453125 12.859375 
" style="fill:none;stroke:#2ca02c;stroke-linecap:square;stroke-width:1.5;"/>
   </g>
   <g id="line2d_57"/>
   <g id="text_31">
    <!-- Jiangsu -->
    <defs>
     <path d="M 32.203125 71.796875 
L 39.5 71.796875 
L 39.5 23.296875 
Q 39.5 13.59375 38 8.6875 
Q 36.5 3.796875 32.296875 1 
Q 28.09375 -1.796875 22.40625 -1.796875 
Q 13.203125 -1.796875 4.203125 5.796875 
L 8 11.5 
Q 13 8.09375 16.203125 6.546875 
Q 19.40625 5 22 5 
Q 25.296875 5 27.75 6.796875 
Q 30.203125 8.59375 31.203125 11.75 
Q 32.203125 14.90625 32.203125 23.59375 
z
" id="STXihei-74"/>
     <path d="M 34.296875 47.296875 
L 29.90625 42.796875 
Q 24.40625 48.09375 19.203125 48.09375 
Q 15.796875 48.09375 13.5 45.9375 
Q 11.203125 43.796875 11.203125 40.796875 
Q 11.203125 37.5 13.640625 35.25 
Q 16.09375 33 21.296875 30.203125 
Q 28.09375 26.703125 31.25 23.046875 
Q 34.40625 19.40625 34.40625 14.09375 
Q 34.40625 7.40625 29.75 2.796875 
Q 25.09375 -1.796875 18.296875 -1.796875 
Q 13.796875 -1.796875 9.640625 0.203125 
Q 5.5 2.203125 2.59375 5.796875 
L 6.90625 10.59375 
Q 12.203125 4.703125 18 4.703125 
Q 22.09375 4.703125 25 7.390625 
Q 27.90625 10.09375 27.90625 13.796875 
Q 27.90625 17.40625 25.34375 19.75 
Q 22.796875 22.09375 17.40625 24.90625 
Q 10.90625 28.09375 7.953125 31.640625 
Q 5 35.203125 5 40.40625 
Q 5 46.5 9.140625 50.5 
Q 13.296875 54.5 19.59375 54.5 
Q 27 54.5 34.296875 47.296875 
z
" id="STXihei-115"/>
    </defs>
    <g transform="translate(265.453125 16.359375)scale(0.1 -0.1)">
     <use xlink:href="#STXihei-74"/>
     <use x="48.199997" xlink:href="#STXihei-105"/>
     <use x="68.199982" xlink:href="#STXihei-97"/>
     <use x="136.499969" xlink:href="#STXihei-110"/>
     <use x="197.499954" xlink:href="#STXihei-103"/>
     <use x="264.799942" xlink:href="#STXihei-115"/>
     <use x="303.59993" xlink:href="#STXihei-117"/>
    </g>
   </g>
   <g id="line2d_58">
    <path d="M 321.892187 12.859375 
L 341.892187 12.859375 
" style="fill:none;stroke:#d62728;stroke-linecap:square;stroke-width:1.5;"/>
   </g>
   <g id="line2d_59"/>
   <g id="text_32">
    <!-- Beijing -->
    <defs>
     <path d="M 8.90625 71.796875 
L 23.09375 71.796875 
Q 34.40625 71.796875 40.25 67.25 
Q 46.09375 62.703125 46.09375 54.203125 
Q 46.09375 49.5 43.75 45.546875 
Q 41.40625 41.59375 36.90625 39.203125 
Q 44.296875 36.796875 48.140625 32 
Q 52 27.203125 52 20.59375 
Q 52 11.703125 45.5 5.84375 
Q 39 0 28.703125 0 
L 8.90625 0 
z
M 16 64.796875 
L 16 41.796875 
L 20.09375 41.796875 
Q 29.5 41.796875 34.09375 44.796875 
Q 38.703125 47.796875 38.703125 54.203125 
Q 38.703125 64.796875 24.296875 64.796875 
z
M 16 34.59375 
L 16 7 
L 24.90625 7 
Q 32.59375 7 36.25 8.546875 
Q 39.90625 10.09375 42.203125 13.34375 
Q 44.5 16.59375 44.5 20.5 
Q 44.5 23.40625 43.203125 26 
Q 41.90625 28.59375 39.34375 30.59375 
Q 36.796875 32.59375 33.25 33.59375 
Q 29.703125 34.59375 20 34.59375 
z
" id="STXihei-66"/>
     <path d="M 4.5 67.90625 
Q 4.5 70.203125 6.203125 71.890625 
Q 7.90625 73.59375 10.203125 73.59375 
Q 12.5 73.59375 14.140625 71.9375 
Q 15.796875 70.296875 15.796875 67.90625 
Q 15.796875 65.703125 14.09375 64 
Q 12.40625 62.296875 10.203125 62.296875 
Q 8 62.296875 6.25 64 
Q 4.5 65.703125 4.5 67.90625 
z
M 6.796875 53.09375 
L 13.703125 53.09375 
L 13.703125 -4.796875 
Q 13.703125 -11.296875 12 -14.34375 
Q 10.296875 -17.40625 6.5 -17.40625 
Q 3.90625 -17.40625 0 -15.90625 
L 0 -9.796875 
Q 2.90625 -11.09375 4.203125 -11.09375 
Q 5.703125 -11.09375 6.25 -9.390625 
Q 6.796875 -7.703125 6.796875 -2.796875 
z
" id="STXihei-106"/>
    </defs>
    <g transform="translate(349.892187 16.359375)scale(0.1 -0.1)">
     <use xlink:href="#STXihei-66"/>
     <use x="57.399994" xlink:href="#STXihei-101"/>
     <use x="122.399979" xlink:href="#STXihei-105"/>
     <use x="142.399963" xlink:href="#STXihei-106"/>
     <use x="162.699951" xlink:href="#STXihei-105"/>
     <use x="182.699936" xlink:href="#STXihei-110"/>
     <use x="243.699921" xlink:href="#STXihei-103"/>
    </g>
   </g>
   <g id="line2d_60">
    <path d="M 400.992188 12.859375 
L 420.992188 12.859375 
" style="fill:none;stroke:#9467bd;stroke-linecap:square;stroke-width:1.5;"/>
   </g>
   <g id="line2d_61"/>
   <g id="text_33">
    <!-- Tianjin -->
    <defs>
     <path d="M 1.59375 64.796875 
L 1.59375 71.796875 
L 41 71.796875 
L 41 64.796875 
L 25 64.796875 
L 25 0 
L 17.703125 0 
L 17.703125 64.796875 
z
" id="STXihei-84"/>
    </defs>
    <g transform="translate(428.992188 16.359375)scale(0.1 -0.1)">
     <use xlink:href="#STXihei-84"/>
     <use x="42.599991" xlink:href="#STXihei-105"/>
     <use x="62.599976" xlink:href="#STXihei-97"/>
     <use x="130.899963" xlink:href="#STXihei-110"/>
     <use x="191.899948" xlink:href="#STXihei-106"/>
     <use x="212.199936" xlink:href="#STXihei-105"/>
     <use x="232.199921" xlink:href="#STXihei-110"/>
    </g>
   </g>
   <g id="line2d_62">
    <path d="M 478.310938 12.859375 
L 498.310938 12.859375 
" style="fill:none;stroke:#8c564b;stroke-linecap:square;stroke-width:1.5;"/>
   </g>
   <g id="line2d_63"/>
   <g id="text_34">
    <!-- Guangdong -->
    <defs>
     <path d="M 83.09375 59.796875 
L 77.59375 54.5 
Q 71.59375 60.296875 64.4375 63.390625 
Q 57.296875 66.5 50.5 66.5 
Q 42.09375 66.5 34.5 62.390625 
Q 26.90625 58.296875 22.65625 51.34375 
Q 18.40625 44.40625 18.40625 36.296875 
Q 18.40625 23.703125 27.84375 14.34375 
Q 37.296875 5 51.5 5 
Q 62.296875 5 70.046875 11.046875 
Q 77.796875 17.09375 79.296875 27.5 
L 56.40625 27.5 
L 56.40625 34.40625 
L 87.40625 34.40625 
Q 87.09375 17.296875 77.1875 7.75 
Q 67.296875 -1.796875 51.296875 -1.796875 
Q 32.90625 -1.796875 21.84375 9.5 
Q 10.796875 20.796875 10.796875 36.09375 
Q 10.796875 51.296875 21.796875 62.4375 
Q 32.796875 73.59375 50.203125 73.59375 
Q 68.59375 73.59375 83.09375 59.796875 
z
" id="STXihei-71"/>
     <path d="M 60.59375 73.59375 
L 60.59375 0 
L 53.90625 0 
L 53.90625 9.09375 
Q 44.796875 -1.796875 32.59375 -1.796875 
Q 21.296875 -1.796875 13.296875 6.5 
Q 5.296875 14.796875 5.296875 26.5 
Q 5.296875 38 13.390625 46.25 
Q 21.5 54.5 32.796875 54.5 
Q 45.796875 54.5 53.90625 43.40625 
L 53.90625 73.59375 
z
M 54.296875 26.203125 
Q 54.296875 35.296875 48.296875 41.59375 
Q 42.296875 47.90625 33.296875 47.90625 
Q 24.296875 47.90625 18.25 41.453125 
Q 12.203125 35 12.203125 26.296875 
Q 12.203125 17.5 18.390625 11 
Q 24.59375 4.5 33.296875 4.5 
Q 41.5 4.5 47.890625 10.640625 
Q 54.296875 16.796875 54.296875 26.203125 
z
" id="STXihei-100"/>
     <path d="M 5.09375 26.203125 
Q 5.09375 37.90625 13.140625 46.203125 
Q 21.203125 54.5 32.796875 54.5 
Q 44.296875 54.5 52.34375 46.203125 
Q 60.40625 37.90625 60.40625 26.203125 
Q 60.40625 14.703125 52.453125 6.453125 
Q 44.5 -1.796875 32.796875 -1.796875 
Q 21.09375 -1.796875 13.09375 6.453125 
Q 5.09375 14.703125 5.09375 26.203125 
z
M 53.5 26.09375 
Q 53.5 34.90625 47.34375 41.34375 
Q 41.203125 47.796875 32.796875 47.796875 
Q 24.296875 47.796875 18.1875 41.34375 
Q 12.09375 34.90625 12.09375 26.09375 
Q 12.09375 17.09375 18 10.890625 
Q 23.90625 4.703125 32.796875 4.703125 
Q 41.40625 4.703125 47.453125 10.953125 
Q 53.5 17.203125 53.5 26.09375 
z
" id="STXihei-111"/>
    </defs>
    <g transform="translate(506.310938 16.359375)scale(0.1 -0.1)">
     <use xlink:href="#STXihei-71"/>
     <use x="87.199982" xlink:href="#STXihei-117"/>
     <use x="147.999969" xlink:href="#STXihei-97"/>
     <use x="216.299957" xlink:href="#STXihei-110"/>
     <use x="277.299942" xlink:href="#STXihei-103"/>
     <use x="344.59993" xlink:href="#STXihei-100"/>
     <use x="413.099915" xlink:href="#STXihei-111"/>
     <use x="478.599899" xlink:href="#STXihei-110"/>
     <use x="539.599884" xlink:href="#STXihei-103"/>
    </g>
   </g>
  </g>
 </g>
 <defs>
  <clipPath id="p2b79d955df">
   <rect height="129.6" width="149.4" x="69.12" y="43.2"/>
  </clipPath>
  <clipPath id="p29a882aadb">
   <rect height="129.6" width="149.4" x="233.46" y="43.2"/>
  </clipPath>
  <clipPath id="p79ef089279">
   <rect height="129.6" width="149.4" x="397.8" y="43.2"/>
  </clipPath>
 </defs>
</svg>
