<?xml version="1.0" encoding="utf-8" standalone="no"?>
<!DOCTYPE svg PUBLIC "-//W3C//DTD SVG 1.1//EN"
  "http://www.w3.org/Graphics/SVG/1.1/DTD/svg11.dtd">
<!-- Created with matplotlib (https://matplotlib.org/) -->
<svg height="360pt" version="1.1" viewBox="0 0 648 360" width="648pt" xmlns="http://www.w3.org/2000/svg" xmlns:xlink="http://www.w3.org/1999/xlink">
 <defs>
  <style type="text/css">
*{stroke-linecap:butt;stroke-linejoin:round;}
  </style>
 </defs>
 <g id="figure_1">
  <g id="patch_1">
   <path d="M 0 360 
L 648 360 
L 648 0 
L 0 0 
z
" style="fill:#ffffff;"/>
  </g>
  <g id="axes_1">
   <g id="patch_2">
    <path d="M 64.8 158.086957 
L 211.552941 158.086957 
L 211.552941 36 
L 64.8 36 
z
" style="fill:#ffffff;"/>
   </g>
   <g id="matplotlib.axis_1">
    <g id="xtick_1">
     <g id="line2d_1">
      <defs>
       <path d="M 0 0 
L 0 3.5 
" id="mbcab88b736" style="stroke:#000000;stroke-width:0.8;"/>
      </defs>
      <g>
       <use style="stroke:#000000;stroke-width:0.8;" x="64.8" xlink:href="#mbcab88b736" y="158.086957"/>
      </g>
     </g>
    </g>
    <g id="xtick_2">
     <g id="line2d_2">
      <g>
       <use style="stroke:#000000;stroke-width:0.8;" x="106.729412" xlink:href="#mbcab88b736" y="158.086957"/>
      </g>
     </g>
    </g>
    <g id="xtick_3">
     <g id="line2d_3">
      <g>
       <use style="stroke:#000000;stroke-width:0.8;" x="148.658824" xlink:href="#mbcab88b736" y="158.086957"/>
      </g>
     </g>
    </g>
    <g id="xtick_4">
     <g id="line2d_4">
      <g>
       <use style="stroke:#000000;stroke-width:0.8;" x="190.588235" xlink:href="#mbcab88b736" y="158.086957"/>
      </g>
     </g>
    </g>
   </g>
   <g id="matplotlib.axis_2">
    <g id="ytick_1">
     <g id="line2d_5">
      <defs>
       <path d="M 0 0 
L -3.5 0 
" id="m3a27a51523" style="stroke:#000000;stroke-width:0.8;"/>
      </defs>
      <g>
       <use style="stroke:#000000;stroke-width:0.8;" x="64.8" xlink:href="#m3a27a51523" y="152.537549"/>
      </g>
     </g>
     <g id="text_1">
      <!-- 0 -->
      <defs>
       <path d="M 27.296875 -1.796875 
Q 15.703125 -1.796875 9.453125 7.75 
Q 3.203125 17.296875 3.203125 35.90625 
Q 3.203125 54.5 9.453125 64.046875 
Q 15.703125 73.59375 27.296875 73.59375 
Q 38.703125 73.59375 45.453125 63.84375 
Q 52.203125 54.09375 52.203125 35.90625 
Q 52.203125 17.703125 45.390625 7.953125 
Q 38.59375 -1.796875 27.296875 -1.796875 
z
M 27.5 66.796875 
Q 19.203125 66.796875 14.59375 58.796875 
Q 10 50.796875 10 35.703125 
Q 10 4.703125 27.5 4.703125 
Q 36 4.703125 40.75 12.84375 
Q 45.5 21 45.5 35.703125 
Q 45.5 50.796875 40.59375 58.796875 
Q 35.703125 66.796875 27.5 66.796875 
z
" id="STXihei-48"/>
      </defs>
      <g transform="translate(51.15125 156.953174)scale(0.12 -0.12)">
       <use xlink:href="#STXihei-48"/>
      </g>
     </g>
    </g>
    <g id="ytick_2">
     <g id="line2d_6">
      <g>
       <use style="stroke:#000000;stroke-width:0.8;" x="64.8" xlink:href="#m3a27a51523" y="112.45371"/>
      </g>
     </g>
     <g id="text_2">
      <!-- 10000 -->
      <defs>
       <path d="M 18.5 71.796875 
L 32.59375 71.796875 
L 32.59375 0 
L 25.5 0 
L 25.5 64.796875 
L 14.203125 64.796875 
z
" id="STXihei-49"/>
      </defs>
      <g transform="translate(24.55625 116.869335)scale(0.12 -0.12)">
       <use xlink:href="#STXihei-49"/>
       <use x="55.399994" xlink:href="#STXihei-48"/>
       <use x="110.799988" xlink:href="#STXihei-48"/>
       <use x="166.199982" xlink:href="#STXihei-48"/>
       <use x="221.599976" xlink:href="#STXihei-48"/>
      </g>
     </g>
    </g>
    <g id="ytick_3">
     <g id="line2d_7">
      <g>
       <use style="stroke:#000000;stroke-width:0.8;" x="64.8" xlink:href="#m3a27a51523" y="72.369871"/>
      </g>
     </g>
     <g id="text_3">
      <!-- 20000 -->
      <defs>
       <path d="M 11.59375 49.296875 
L 4.703125 49.296875 
Q 5.203125 60.296875 12 66.9375 
Q 18.796875 73.59375 28.59375 73.59375 
Q 38.09375 73.59375 44.4375 67.34375 
Q 50.796875 61.09375 50.796875 52.09375 
Q 50.796875 45.40625 47.25 39.703125 
Q 43.703125 34 36.5 26.203125 
L 18.59375 6.90625 
L 51.796875 6.90625 
L 51.796875 0 
L 3 0 
L 30.40625 29.59375 
Q 37.59375 37.40625 40.6875 41.90625 
Q 43.796875 46.40625 43.796875 52 
Q 43.796875 58 39.25 62.390625 
Q 34.703125 66.796875 28.203125 66.796875 
Q 21.203125 66.796875 16.75 62.25 
Q 12.296875 57.703125 11.59375 49.296875 
z
" id="STXihei-50"/>
      </defs>
      <g transform="translate(24.55625 76.785496)scale(0.12 -0.12)">
       <use xlink:href="#STXihei-50"/>
       <use x="55.399994" xlink:href="#STXihei-48"/>
       <use x="110.799988" xlink:href="#STXihei-48"/>
       <use x="166.199982" xlink:href="#STXihei-48"/>
       <use x="221.599976" xlink:href="#STXihei-48"/>
      </g>
     </g>
    </g>
   </g>
   <g id="line2d_8">
    <path clip-path="url(#p682307955a)" d="M 64.8 152.537549 
L 71.299059 152.433331 
L 72.766588 152.200845 
L 73.605176 151.908233 
L 74.443765 151.335034 
L 75.072706 150.589475 
L 75.701647 149.374934 
L 76.120941 148.200478 
L 76.749882 145.562961 
L 77.378824 141.410276 
L 78.007765 134.976819 
L 78.636706 125.324631 
L 79.265647 111.527774 
L 80.104235 86.459341 
L 81.152471 52.873092 
L 81.571765 44.3192 
L 81.781412 42.122606 
L 81.991059 41.549407 
L 82.200706 42.659729 
L 82.410353 45.43754 
L 82.829647 55.350273 
L 83.668235 84.940163 
L 84.506824 113.207286 
L 85.135765 128.371003 
L 85.764706 138.351879 
L 86.393647 144.476689 
L 87.022588 148.052168 
L 87.651529 150.076402 
L 88.280471 151.206766 
L 88.909412 151.820049 
L 89.538353 152.152745 
L 90.376941 152.369197 
L 91.634824 152.489449 
L 95.618118 152.537549 
L 211.552941 152.537549 
L 211.552941 152.537549 
" style="fill:none;stroke:#1f77b4;stroke-linecap:square;stroke-width:1.5;"/>
   </g>
   <g id="line2d_9">
    <path clip-path="url(#p682307955a)" d="M 64.8 152.537549 
L 74.234118 152.441348 
L 77.798118 151.992409 
L 79.056 151.539462 
L 80.104235 150.906137 
L 80.942824 150.112477 
L 81.781412 148.962071 
L 82.62 147.282558 
L 83.248941 145.554945 
L 84.087529 142.424397 
L 84.926118 138.103359 
L 85.764706 132.339303 
L 86.603294 125.076111 
L 89.538353 97.738933 
L 89.957647 96.039378 
L 90.167294 95.598456 
L 90.376941 95.438121 
L 90.586588 95.566389 
L 90.796235 95.983261 
L 91.215529 97.634715 
L 91.844471 101.867568 
L 92.683059 109.6759 
L 94.569882 128.182609 
L 95.618118 135.954865 
L 96.456706 140.572523 
L 97.295294 143.97965 
L 98.133882 146.440797 
L 98.972471 148.204486 
L 99.811059 149.451094 
L 100.649647 150.340955 
L 101.697882 151.094531 
L 102.746118 151.595579 
L 104.632941 152.092619 
L 106.310118 152.309072 
L 110.083765 152.489449 
L 211.552941 152.537549 
L 211.552941 152.537549 
" style="fill:none;stroke:#ff7f0e;stroke-linecap:square;stroke-width:1.5;"/>
   </g>
   <g id="line2d_10">
    <path clip-path="url(#p682307955a)" d="M 64.8 152.537549 
L 82.200706 152.433331 
L 89.538353 151.924267 
L 92.473412 151.306976 
L 93.940941 150.809936 
L 95.408471 150.120494 
L 96.666353 149.346876 
L 98.133882 148.156386 
L 99.601412 146.621175 
L 101.278588 144.396522 
L 103.165412 141.410276 
L 106.100471 136.672366 
L 107.148706 135.401708 
L 107.987294 134.708258 
L 108.825882 134.335478 
L 109.454824 134.299403 
L 110.083765 134.467755 
L 110.922353 134.996861 
L 111.760941 135.830605 
L 113.018824 137.534168 
L 114.905647 140.576532 
L 117.002118 143.907499 
L 118.469647 145.911691 
L 119.727529 147.338675 
L 120.985412 148.513132 
L 122.452941 149.58337 
L 124.130118 150.481248 
L 125.388 150.986305 
L 127.484471 151.571529 
L 130.000235 151.996418 
L 133.564235 152.305063 
L 151.384235 152.537549 
L 211.552941 152.537549 
L 211.552941 152.537549 
" style="fill:none;stroke:#2ca02c;stroke-linecap:square;stroke-width:1.5;"/>
   </g>
   <g id="line2d_11">
    <path clip-path="url(#p682307955a)" d="M 64.8 152.537549 
L 124.968706 152.433331 
L 127.274824 152.409281 
L 137.337882 152.301055 
L 156.415765 151.828065 
L 183.460235 150.89812 
L 194.152235 151.006347 
L 200.860941 151.242841 
L 211.552941 151.683764 
L 211.552941 151.683764 
" style="fill:none;stroke:#d62728;stroke-linecap:square;stroke-width:1.5;"/>
   </g>
   <g id="line2d_12">
    <path clip-path="url(#p682307955a)" d="M 64.8 152.537549 
L 211.552941 152.537549 
L 211.552941 152.537549 
" style="fill:none;stroke:#9467bd;stroke-linecap:square;stroke-width:1.5;"/>
   </g>
   <g id="line2d_13">
    <path clip-path="url(#p682307955a)" d="M 64.8 152.537549 
L 211.552941 152.537549 
L 211.552941 152.537549 
" style="fill:none;stroke:#8c564b;stroke-linecap:square;stroke-width:1.5;"/>
   </g>
   <g id="patch_3">
    <path d="M 64.8 158.086957 
L 64.8 36 
" style="fill:none;stroke:#000000;stroke-linecap:square;stroke-linejoin:miter;stroke-width:0.8;"/>
   </g>
   <g id="patch_4">
    <path d="M 211.552941 158.086957 
L 211.552941 36 
" style="fill:none;stroke:#000000;stroke-linecap:square;stroke-linejoin:miter;stroke-width:0.8;"/>
   </g>
   <g id="patch_5">
    <path d="M 64.8 158.086957 
L 211.552941 158.086957 
" style="fill:none;stroke:#000000;stroke-linecap:square;stroke-linejoin:miter;stroke-width:0.8;"/>
   </g>
   <g id="patch_6">
    <path d="M 64.8 36 
L 211.552941 36 
" style="fill:none;stroke:#000000;stroke-linecap:square;stroke-linejoin:miter;stroke-width:0.8;"/>
   </g>
   <g id="text_4">
    <!-- 湖北省 -->
    <defs>
     <path d="M 51.296875 6.40625 
L 34 6.40625 
L 34 -4.59375 
L 27.703125 -4.59375 
Q 28.5 2.203125 28.5 7.40625 
L 28.5 22.59375 
Q 28.5 30.296875 28 33.5 
Q 31.59375 33.203125 39.59375 33 
L 39.59375 48.59375 
Q 30.203125 48.40625 24.796875 47.703125 
L 24.796875 54.203125 
Q 30.203125 53.5 39.59375 53.296875 
L 39.59375 66.796875 
Q 39.59375 72.59375 38.796875 75.59375 
Q 41.703125 75.203125 46.09375 75.203125 
Q 47.796875 75.203125 47.796875 74.34375 
Q 47.796875 73.5 46.546875 72.5 
Q 45.296875 71.5 45.296875 66.90625 
L 45.296875 53.296875 
Q 54.703125 53.5 60.203125 54.203125 
L 60.203125 47.703125 
Q 54.703125 48.40625 45.296875 48.59375 
L 45.296875 33 
Q 52.90625 33.203125 57.40625 33.59375 
Q 56.796875 30.59375 56.796875 22.59375 
L 56.796875 9.5 
Q 56.796875 4.40625 57.5 -2.296875 
L 51.296875 -2.296875 
z
M 34 11.09375 
L 51.296875 11.09375 
L 51.296875 28.5 
L 34 28.5 
z
M 26.90625 59.90625 
L 22.59375 55 
Q 17.09375 61.203125 7.796875 67.296875 
L 11.59375 72.09375 
Q 19.796875 66.296875 26.90625 59.90625 
z
M 84.59375 17.703125 
L 68.296875 17.703125 
Q 67.90625 7.40625 66.296875 0.40625 
Q 64.703125 -6.59375 59.09375 -15.90625 
Q 56.59375 -13.703125 51.796875 -13 
Q 58.796875 -6.296875 60.890625 3.140625 
Q 63 12.59375 63 42.90625 
L 63 57 
Q 63 64.296875 62.59375 69.59375 
Q 68 69.203125 76.5 69.203125 
Q 85 69.203125 90.5 69.59375 
Q 90.296875 60.40625 90.296875 57 
L 90.296875 -3.703125 
Q 90.296875 -8.203125 89.390625 -10.140625 
Q 88.5 -12.09375 85.390625 -13 
Q 82.296875 -13.90625 75 -14.296875 
Q 75.203125 -10.703125 72.59375 -7.296875 
Q 76.703125 -7.796875 78.90625 -7.796875 
Q 82.59375 -7.796875 83.59375 -6.34375 
Q 84.59375 -4.90625 84.59375 -0.796875 
z
M 68.703125 45.296875 
L 84.59375 45.296875 
L 84.59375 64 
L 68.703125 64 
z
M 84.59375 40.5 
L 68.703125 40.5 
Q 68.703125 26.90625 68.5 22.5 
L 84.59375 22.5 
z
M 25.296875 35.703125 
L 21.09375 31.203125 
Q 14.59375 37.59375 6.59375 42.796875 
L 9.703125 47.40625 
Q 18.40625 41.796875 25.296875 35.703125 
z
M 23.90625 20.90625 
Q 17.5 4.59375 11.796875 -12.59375 
Q 8.703125 -10.296875 4.90625 -9.40625 
Q 13.09375 5.296875 18.09375 24.203125 
Q 20.296875 21.90625 23.90625 20.90625 
z
" id="STXihei-28246"/>
     <path d="M 33.703125 43.5 
L 33.703125 53.40625 
Q 33.703125 67.203125 32.796875 72.796875 
Q 37.09375 71.703125 41.5 71.703125 
Q 43.09375 71.703125 43.09375 71.09375 
Q 43.09375 70.5 42.1875 69.953125 
Q 41.296875 69.40625 40.640625 68 
Q 40 66.59375 40 65.09375 
L 40 1.90625 
Q 40 -6.5 40.796875 -13.09375 
L 32.796875 -13.09375 
Q 33.703125 -5.5 33.703125 1.90625 
L 33.703125 10.796875 
Q 23 4.703125 8.703125 -5 
Q 8 -1.59375 4.59375 1.90625 
Q 17.5 6.703125 33.703125 16.90625 
L 33.703125 38.703125 
L 20.90625 38.703125 
Q 13 38.703125 7.203125 38 
L 7.203125 44.296875 
Q 12.796875 43.5 20.90625 43.5 
z
M 64.203125 41 
Q 80.203125 45.796875 89.09375 51.5 
Q 91 47.5 93.296875 45.5 
Q 94.40625 44.59375 94.40625 43.84375 
Q 94.40625 43.09375 92.5 43.09375 
L 91.203125 43.203125 
Q 88.703125 43.203125 83.09375 41.640625 
Q 77.5 40.09375 64.203125 35.5 
L 64.203125 0.796875 
Q 64.203125 -1.40625 65.046875 -2.59375 
Q 65.90625 -3.796875 68.453125 -4.34375 
Q 71 -4.90625 77.25 -4.90625 
Q 83.5 -4.90625 85.953125 -3.75 
Q 88.40625 -2.59375 89.09375 -0.25 
Q 89.796875 2.09375 89.796875 5.796875 
Q 92.90625 2.796875 96.40625 1.796875 
Q 95.296875 -3.796875 93.390625 -6.296875 
Q 91.5 -8.796875 87.703125 -9.640625 
Q 83.90625 -10.5 75.90625 -10.5 
Q 67.90625 -10.5 64.15625 -9.59375 
Q 60.40625 -8.703125 59.25 -6.640625 
Q 58.09375 -4.59375 58.09375 -0.296875 
L 58.09375 55.796875 
Q 58.09375 68.59375 57.5 72.703125 
Q 59.703125 72.203125 61.796875 72.140625 
Q 63.90625 72.09375 65.40625 72.09375 
Q 66.90625 72.09375 66.90625 71.640625 
Q 66.90625 71.203125 65.90625 70.09375 
Q 64.203125 68.203125 64.203125 55.796875 
z
" id="STXihei-21271"/>
     <path d="M 46.90625 41 
L 46.90625 65.40625 
Q 46.90625 71.90625 45.796875 75.5 
Q 51 74.59375 53.34375 74.5 
Q 55.703125 74.40625 55.703125 73.59375 
Q 55.703125 72.796875 54.59375 72.203125 
Q 53 71.296875 53 68.703125 
L 53 43.296875 
Q 68.5 49.90625 73 55.203125 
Q 75.796875 52.203125 78.59375 50.59375 
Q 79.5 50.09375 79.5 49.203125 
Q 79.5 47.90625 78.09375 47.90625 
Q 73.40625 47.90625 69.5 45.59375 
Q 56.90625 38.09375 31.90625 32.09375 
Q 39.703125 31.796875 56.546875 31.796875 
Q 73.40625 31.796875 82.09375 32.703125 
Q 81.5 29.59375 81.5 25 
L 81.5 -5.59375 
Q 81.5 -10.40625 82.203125 -15.59375 
L 75.59375 -15.59375 
L 75.59375 -9 
L 28.296875 -9 
L 28.296875 -16 
L 21.5 -16 
Q 22.203125 -11.203125 22.203125 -6 
L 22.203125 29.796875 
L 8.796875 27.203125 
Q 8.796875 30.703125 6 34.203125 
Q 26.59375 34.59375 46.90625 41 
z
M 28.296875 19.40625 
L 75.59375 19.40625 
L 75.59375 27.296875 
L 28.296875 27.296875 
z
M 75.59375 14.90625 
L 28.296875 14.90625 
L 28.296875 7.90625 
L 75.59375 7.90625 
z
M 28.296875 3.59375 
L 28.296875 -4.40625 
L 75.59375 -4.40625 
L 75.59375 3.59375 
z
M 94.703125 50.5 
L 89.703125 46.203125 
Q 78.5 57.59375 68.09375 63.90625 
L 71.203125 68.09375 
Q 84.59375 59.296875 94.703125 50.5 
z
M 30.90625 67.40625 
Q 33.5 64.59375 36.203125 63.59375 
Q 37.40625 63.09375 37.40625 62.546875 
Q 37.40625 62 35.75 61.34375 
Q 34.09375 60.703125 29.5 55.90625 
Q 22.40625 48.40625 13.296875 41.203125 
Q 10.59375 45.5 7.5 45.796875 
Q 21.796875 52.59375 30.90625 67.40625 
z
" id="STXihei-30465"/>
    </defs>
    <g transform="translate(114.176471 30)scale(0.16 -0.16)">
     <use xlink:href="#STXihei-28246"/>
     <use x="99.999985" xlink:href="#STXihei-21271"/>
     <use x="199.999969" xlink:href="#STXihei-30465"/>
    </g>
   </g>
  </g>
  <g id="axes_2">
   <g id="patch_7">
    <path d="M 240.903529 158.086957 
L 387.656471 158.086957 
L 387.656471 36 
L 240.903529 36 
z
" style="fill:#ffffff;"/>
   </g>
   <g id="matplotlib.axis_3">
    <g id="xtick_5">
     <g id="line2d_14">
      <g>
       <use style="stroke:#000000;stroke-width:0.8;" x="240.903529" xlink:href="#mbcab88b736" y="158.086957"/>
      </g>
     </g>
    </g>
    <g id="xtick_6">
     <g id="line2d_15">
      <g>
       <use style="stroke:#000000;stroke-width:0.8;" x="282.832941" xlink:href="#mbcab88b736" y="158.086957"/>
      </g>
     </g>
    </g>
    <g id="xtick_7">
     <g id="line2d_16">
      <g>
       <use style="stroke:#000000;stroke-width:0.8;" x="324.762353" xlink:href="#mbcab88b736" y="158.086957"/>
      </g>
     </g>
    </g>
    <g id="xtick_8">
     <g id="line2d_17">
      <g>
       <use style="stroke:#000000;stroke-width:0.8;" x="366.691765" xlink:href="#mbcab88b736" y="158.086957"/>
      </g>
     </g>
    </g>
   </g>
   <g id="matplotlib.axis_4">
    <g id="ytick_4">
     <g id="line2d_18">
      <g>
       <use style="stroke:#000000;stroke-width:0.8;" x="240.903529" xlink:href="#m3a27a51523" y="152.537549"/>
      </g>
     </g>
    </g>
    <g id="ytick_5">
     <g id="line2d_19">
      <g>
       <use style="stroke:#000000;stroke-width:0.8;" x="240.903529" xlink:href="#m3a27a51523" y="112.45371"/>
      </g>
     </g>
    </g>
    <g id="ytick_6">
     <g id="line2d_20">
      <g>
       <use style="stroke:#000000;stroke-width:0.8;" x="240.903529" xlink:href="#m3a27a51523" y="72.369871"/>
      </g>
     </g>
    </g>
   </g>
   <g id="line2d_21">
    <path clip-path="url(#p124bda4fac)" d="M 240.903529 152.537549 
L 247.612235 152.441348 
L 249.499059 152.132703 
L 250.547294 151.659713 
L 251.176235 151.138623 
L 251.805176 150.324921 
L 252.434118 149.03823 
L 253.063059 147.022013 
L 253.692 143.90349 
L 254.320941 139.169589 
L 254.949882 132.166942 
L 255.578824 122.286276 
L 256.417412 104.34475 
L 257.675294 75.187765 
L 258.094588 69.499868 
L 258.304235 68.185118 
L 258.513882 68.024783 
L 258.723529 69.058946 
L 259.142824 74.50634 
L 259.771765 88.948547 
L 261.239294 125.801629 
L 261.868235 136.071108 
L 262.497176 142.805193 
L 263.126118 146.949862 
L 263.755059 149.402993 
L 264.384 150.801919 
L 265.012941 151.579546 
L 265.641882 152.020468 
L 266.480471 152.309072 
L 267.738353 152.477424 
L 272.140941 152.537549 
L 387.656471 152.537549 
L 387.656471 152.537549 
" style="fill:none;stroke:#1f77b4;stroke-linecap:square;stroke-width:1.5;"/>
   </g>
   <g id="line2d_22">
    <path clip-path="url(#p124bda4fac)" d="M 240.903529 152.537549 
L 251.176235 152.43734 
L 254.530588 152.08861 
L 255.998118 151.683764 
L 257.046353 151.178707 
L 258.094588 150.409098 
L 258.933176 149.491178 
L 259.771765 148.200478 
L 260.610353 146.400714 
L 261.448941 143.947583 
L 262.287529 140.688767 
L 263.126118 136.524056 
L 264.174353 130.078574 
L 266.480471 115.175403 
L 267.109412 112.72628 
L 267.528706 111.872495 
L 267.738353 111.700134 
L 267.948 111.704142 
L 268.157647 111.88452 
L 268.576941 112.754339 
L 268.996235 114.245458 
L 269.625176 117.432123 
L 270.673412 124.202283 
L 272.350588 134.972811 
L 273.398824 140.187719 
L 274.237412 143.374384 
L 275.076 145.799456 
L 275.914588 147.611246 
L 276.753176 148.938021 
L 277.591765 149.920075 
L 278.64 150.77386 
L 279.688235 151.347059 
L 281.155765 151.848107 
L 282.623294 152.140719 
L 284.719765 152.357172 
L 292.057412 152.529533 
L 387.656471 152.537549 
L 387.656471 152.537549 
" style="fill:none;stroke:#ff7f0e;stroke-linecap:square;stroke-width:1.5;"/>
   </g>
   <g id="line2d_23">
    <path clip-path="url(#p124bda4fac)" d="M 240.903529 152.537549 
L 261.658588 152.433331 
L 271.512 151.779965 
L 274.656706 151.138623 
L 276.753176 150.473232 
L 278.64 149.651513 
L 280.526824 148.577266 
L 282.832941 146.921804 
L 286.396941 143.987667 
L 287.864471 142.925445 
L 289.122353 142.231994 
L 290.170588 141.87124 
L 291.218824 141.734955 
L 292.267059 141.839173 
L 293.524941 142.264061 
L 294.782824 142.96152 
L 296.669647 144.352429 
L 301.072235 147.835715 
L 302.959059 149.042239 
L 305.265176 150.168595 
L 307.361647 150.906137 
L 309.877412 151.515412 
L 311.973882 151.848107 
L 314.908941 152.144728 
L 321.827294 152.441348 
L 387.656471 152.537549 
L 387.656471 152.537549 
" style="fill:none;stroke:#2ca02c;stroke-linecap:square;stroke-width:1.5;"/>
   </g>
   <g id="line2d_24">
    <path clip-path="url(#p124bda4fac)" d="M 240.903529 152.537549 
L 387.656471 152.449365 
L 387.656471 152.449365 
" style="fill:none;stroke:#d62728;stroke-linecap:square;stroke-width:1.5;"/>
   </g>
   <g id="line2d_25">
    <path clip-path="url(#p124bda4fac)" d="M 240.903529 152.537549 
L 387.656471 152.537549 
L 387.656471 152.537549 
" style="fill:none;stroke:#9467bd;stroke-linecap:square;stroke-width:1.5;"/>
   </g>
   <g id="line2d_26">
    <path clip-path="url(#p124bda4fac)" d="M 240.903529 152.537549 
L 387.656471 152.537549 
L 387.656471 152.537549 
" style="fill:none;stroke:#8c564b;stroke-linecap:square;stroke-width:1.5;"/>
   </g>
   <g id="patch_8">
    <path d="M 240.903529 158.086957 
L 240.903529 36 
" style="fill:none;stroke:#000000;stroke-linecap:square;stroke-linejoin:miter;stroke-width:0.8;"/>
   </g>
   <g id="patch_9">
    <path d="M 387.656471 158.086957 
L 387.656471 36 
" style="fill:none;stroke:#000000;stroke-linecap:square;stroke-linejoin:miter;stroke-width:0.8;"/>
   </g>
   <g id="patch_10">
    <path d="M 240.903529 158.086957 
L 387.656471 158.086957 
" style="fill:none;stroke:#000000;stroke-linecap:square;stroke-linejoin:miter;stroke-width:0.8;"/>
   </g>
   <g id="patch_11">
    <path d="M 240.903529 36 
L 387.656471 36 
" style="fill:none;stroke:#000000;stroke-linecap:square;stroke-linejoin:miter;stroke-width:0.8;"/>
   </g>
   <g id="text_5">
    <!-- 上海市 -->
    <defs>
     <path d="M 50.703125 43 
Q 83.203125 43 85.90625 43.796875 
L 85.90625 37.203125 
Q 83.203125 37.90625 50.703125 37.90625 
L 50.703125 -3.703125 
Q 83.5 -3.703125 93.5 -2.90625 
L 93.5 -9.59375 
Q 80.203125 -8.796875 51.59375 -8.796875 
Q 23 -8.796875 6.796875 -9.59375 
L 6.796875 -2.90625 
Q 21.796875 -3.703125 44.09375 -3.703125 
L 44.09375 60.90625 
Q 44.09375 69.703125 43.5 73.296875 
Q 47.40625 72.296875 52.203125 72.296875 
Q 53.5 72.296875 53.5 71.6875 
Q 53.5 71.09375 52.09375 70.25 
Q 50.703125 69.40625 50.703125 65.59375 
z
" id="STXihei-19978"/>
     <path d="M 47.5 64 
L 69.59375 64 
Q 82 64 91 64.703125 
L 91 58.40625 
Q 82 59.09375 69.59375 59.09375 
L 44.90625 59.09375 
Q 40 50.203125 34 42.796875 
Q 31.40625 45.59375 28.296875 46.796875 
Q 42.40625 59.796875 45.59375 76.703125 
Q 49.09375 74.40625 52.90625 73.90625 
Q 53.796875 73.796875 53.796875 73.140625 
Q 53.796875 72.5 52.59375 71.84375 
Q 51.40625 71.203125 50.90625 70.5 
Q 50.40625 69.796875 49 66.9375 
Q 47.59375 64.09375 47.5 64 
z
M 32.09375 61.09375 
L 28.296875 56.296875 
Q 21.796875 62.203125 10 68.59375 
L 13.203125 73.5 
Q 22.796875 68.09375 32.09375 61.09375 
z
M 39.59375 27.09375 
L 41.09375 50.296875 
Q 49.5 49.796875 62.5 49.796875 
Q 75.5 49.796875 83.796875 50.296875 
L 83.203125 27.09375 
Q 91.296875 27.09375 95.703125 27.5 
L 95.703125 21.90625 
Q 91.296875 22.296875 83.09375 22.296875 
L 82.703125 4.09375 
Q 87.203125 4.09375 92.703125 4.5 
L 92.703125 -1 
Q 87.203125 -0.59375 82.59375 -0.59375 
Q 82.59375 -10.09375 79.796875 -12.796875 
Q 77 -15.5 65.59375 -15.90625 
Q 65.90625 -12.40625 62.90625 -8.703125 
Q 67.90625 -9.59375 71.15625 -9.59375 
Q 74.40625 -9.59375 75.65625 -7.59375 
Q 76.90625 -5.59375 77 -0.59375 
L 54.703125 -0.59375 
Q 44.09375 -0.59375 37.703125 -1.5 
L 39.296875 22.296875 
Q 35.09375 22.296875 29.5 21.90625 
L 29.5 27.5 
Q 33.5 27.09375 39.59375 27.09375 
z
M 45.09375 27.09375 
L 77.40625 27.09375 
L 77.703125 45.09375 
L 46.203125 45.09375 
z
M 68.90625 32.09375 
L 64.5 28.296875 
Q 61.40625 33.09375 54.203125 38.296875 
L 57.40625 42.09375 
Q 61.90625 39.296875 68.90625 32.09375 
z
M 77.40625 22.296875 
L 44.796875 22.296875 
L 43.703125 4.09375 
L 77.09375 4.09375 
z
M 68.5 9.296875 
L 64.203125 5.40625 
Q 61.09375 9.796875 53.90625 15.703125 
L 57.703125 19.40625 
Q 62.90625 15.5 68.5 9.296875 
z
M 26.796875 37.5 
L 22.90625 32.5 
Q 14.5 39.703125 4.59375 44 
L 7.703125 49.09375 
Q 17.09375 44.203125 26.796875 37.5 
z
M 28.203125 19.796875 
Q 21.203125 7.5 12.59375 -13.5 
Q 9.5 -10.5 5.796875 -9.09375 
Q 16.59375 6.796875 22.90625 23.703125 
Q 25.296875 20.796875 28.203125 19.796875 
z
" id="STXihei-28023"/>
     <path d="M 45.796875 62.09375 
Q 43.40625 67 39.09375 73.203125 
L 45 76.203125 
Q 49.703125 69.296875 52.296875 62.09375 
Q 82.796875 62.09375 93.796875 63.09375 
L 93.796875 55.90625 
Q 82.90625 56.90625 53 56.90625 
L 53 42.5 
Q 69.796875 42.5 83.09375 43.59375 
Q 82.703125 39.703125 82.703125 32 
L 82.703125 7.09375 
Q 82.703125 0.703125 78.953125 -0.84375 
Q 75.203125 -2.40625 65.703125 -2.5 
Q 65.90625 2.09375 63.203125 5.296875 
Q 69 4.40625 71.59375 4.40625 
Q 74.203125 4.40625 75.5 5.296875 
Q 76.796875 6.203125 76.796875 10.09375 
L 76.796875 37.5 
L 53 37.5 
L 53 0.59375 
Q 53 -6.5 54 -16.59375 
L 45.796875 -16.59375 
Q 46.796875 -7.90625 46.796875 0.59375 
L 46.796875 37.5 
L 23.59375 37.5 
L 23.59375 -2 
L 16.90625 -2 
Q 17.703125 4 17.703125 11.703125 
L 17.703125 32 
Q 17.703125 38.90625 17 43.59375 
Q 30 42.5 46.796875 42.5 
L 46.796875 56.90625 
Q 17.5 56.90625 6.203125 55.90625 
L 6.203125 63.09375 
Q 19 62.09375 45.796875 62.09375 
z
" id="STXihei-24066"/>
    </defs>
    <g transform="translate(290.28 30)scale(0.16 -0.16)">
     <use xlink:href="#STXihei-19978"/>
     <use x="99.999985" xlink:href="#STXihei-28023"/>
     <use x="199.999969" xlink:href="#STXihei-24066"/>
    </g>
   </g>
  </g>
  <g id="axes_3">
   <g id="patch_12">
    <path d="M 417.007059 158.086957 
L 563.76 158.086957 
L 563.76 36 
L 417.007059 36 
z
" style="fill:#ffffff;"/>
   </g>
   <g id="matplotlib.axis_5">
    <g id="xtick_9">
     <g id="line2d_27">
      <g>
       <use style="stroke:#000000;stroke-width:0.8;" x="417.007059" xlink:href="#mbcab88b736" y="158.086957"/>
      </g>
     </g>
    </g>
    <g id="xtick_10">
     <g id="line2d_28">
      <g>
       <use style="stroke:#000000;stroke-width:0.8;" x="458.936471" xlink:href="#mbcab88b736" y="158.086957"/>
      </g>
     </g>
    </g>
    <g id="xtick_11">
     <g id="line2d_29">
      <g>
       <use style="stroke:#000000;stroke-width:0.8;" x="500.865882" xlink:href="#mbcab88b736" y="158.086957"/>
      </g>
     </g>
    </g>
    <g id="xtick_12">
     <g id="line2d_30">
      <g>
       <use style="stroke:#000000;stroke-width:0.8;" x="542.795294" xlink:href="#mbcab88b736" y="158.086957"/>
      </g>
     </g>
    </g>
   </g>
   <g id="matplotlib.axis_6">
    <g id="ytick_7">
     <g id="line2d_31">
      <g>
       <use style="stroke:#000000;stroke-width:0.8;" x="417.007059" xlink:href="#m3a27a51523" y="152.537549"/>
      </g>
     </g>
    </g>
    <g id="ytick_8">
     <g id="line2d_32">
      <g>
       <use style="stroke:#000000;stroke-width:0.8;" x="417.007059" xlink:href="#m3a27a51523" y="112.45371"/>
      </g>
     </g>
    </g>
    <g id="ytick_9">
     <g id="line2d_33">
      <g>
       <use style="stroke:#000000;stroke-width:0.8;" x="417.007059" xlink:href="#m3a27a51523" y="72.369871"/>
      </g>
     </g>
    </g>
   </g>
   <g id="line2d_34">
    <path clip-path="url(#p49d9e7a940)" d="M 417.007059 152.537549 
L 423.506118 152.433331 
L 424.973647 152.21287 
L 426.021882 151.820049 
L 426.650824 151.375118 
L 427.279765 150.657617 
L 427.908706 149.51122 
L 428.328 148.396889 
L 428.956941 145.915699 
L 429.585882 142.031575 
L 430.214824 136.04305 
L 430.843765 127.104353 
L 431.472706 114.397776 
L 432.311294 91.433745 
L 433.359529 60.693449 
L 433.778824 52.772882 
L 433.988471 50.692531 
L 434.198118 50.071231 
L 434.407765 50.989151 
L 434.617412 53.418232 
L 435.036706 62.284777 
L 435.875294 89.265209 
L 436.713882 115.439956 
L 437.342824 129.621619 
L 437.971765 139.033304 
L 438.600706 144.829427 
L 439.229647 148.232545 
L 439.858588 150.168595 
L 440.487529 151.254867 
L 441.116471 151.840091 
L 441.745412 152.168778 
L 442.793647 152.405273 
L 444.261176 152.505482 
L 451.598824 152.537549 
L 563.76 152.537549 
L 563.76 152.537549 
" style="fill:none;stroke:#1f77b4;stroke-linecap:square;stroke-width:1.5;"/>
   </g>
   <g id="line2d_35">
    <path clip-path="url(#p49d9e7a940)" d="M 417.007059 152.537549 
L 426.650824 152.433331 
L 429.585882 152.116669 
L 430.843765 151.783973 
L 432.101647 151.186724 
L 432.940235 150.553399 
L 433.778824 149.623454 
L 434.617412 148.272629 
L 435.246353 146.893745 
L 435.875294 145.101997 
L 436.713882 141.907315 
L 437.552471 137.574252 
L 438.391059 131.930448 
L 439.439294 123.132045 
L 441.326118 106.356958 
L 441.955059 102.581061 
L 442.374353 101.109984 
L 442.584 100.729187 
L 442.793647 100.604927 
L 443.003294 100.729187 
L 443.212941 101.109984 
L 443.632235 102.577052 
L 444.261176 106.3289 
L 445.099765 113.255387 
L 447.196235 131.449442 
L 448.034824 136.96097 
L 448.873412 141.209856 
L 449.712 144.380488 
L 450.550588 146.689317 
L 451.389176 148.356805 
L 452.227765 149.547295 
L 453.066353 150.393064 
L 454.114588 151.126598 
L 455.162824 151.607604 
L 456.420706 151.968359 
L 458.307529 152.268988 
L 462.500471 152.489449 
L 563.76 152.537549 
L 563.76 152.537549 
" style="fill:none;stroke:#ff7f0e;stroke-linecap:square;stroke-width:1.5;"/>
   </g>
   <g id="line2d_36">
    <path clip-path="url(#p49d9e7a940)" d="M 417.007059 152.537549 
L 435.036706 152.433331 
L 443.003294 151.868149 
L 445.728706 151.298959 
L 447.825176 150.565425 
L 449.502353 149.715647 
L 450.969882 148.713551 
L 452.227765 147.639304 
L 453.695294 146.104093 
L 455.162824 144.284287 
L 459.775059 138.17551 
L 460.823294 137.269615 
L 461.661882 136.816668 
L 462.500471 136.652324 
L 463.129412 136.71245 
L 463.968 137.057171 
L 464.806588 137.650412 
L 466.064471 138.953136 
L 467.741647 141.133697 
L 470.886353 145.334484 
L 472.773176 147.378759 
L 474.450353 148.78971 
L 475.708235 149.627463 
L 477.175765 150.385047 
L 478.852941 151.030397 
L 481.578353 151.703806 
L 484.513412 152.096627 
L 486.400235 152.244937 
L 488.706353 152.365189 
L 494.995765 152.497466 
L 563.76 152.537549 
L 563.76 152.537549 
" style="fill:none;stroke:#2ca02c;stroke-linecap:square;stroke-width:1.5;"/>
   </g>
   <g id="line2d_37">
    <path clip-path="url(#p49d9e7a940)" d="M 417.007059 152.537549 
L 487.448471 152.433331 
L 489.544941 152.41329 
L 502.123765 152.305063 
L 554.116235 151.415202 
L 563.76 151.523428 
L 563.76 151.523428 
" style="fill:none;stroke:#d62728;stroke-linecap:square;stroke-width:1.5;"/>
   </g>
   <g id="line2d_38">
    <path clip-path="url(#p49d9e7a940)" d="M 417.007059 152.537549 
L 563.76 152.537549 
L 563.76 152.537549 
" style="fill:none;stroke:#9467bd;stroke-linecap:square;stroke-width:1.5;"/>
   </g>
   <g id="line2d_39">
    <path clip-path="url(#p49d9e7a940)" d="M 417.007059 152.537549 
L 563.76 152.537549 
L 563.76 152.537549 
" style="fill:none;stroke:#8c564b;stroke-linecap:square;stroke-width:1.5;"/>
   </g>
   <g id="patch_13">
    <path d="M 417.007059 158.086957 
L 417.007059 36 
" style="fill:none;stroke:#000000;stroke-linecap:square;stroke-linejoin:miter;stroke-width:0.8;"/>
   </g>
   <g id="patch_14">
    <path d="M 563.76 158.086957 
L 563.76 36 
" style="fill:none;stroke:#000000;stroke-linecap:square;stroke-linejoin:miter;stroke-width:0.8;"/>
   </g>
   <g id="patch_15">
    <path d="M 417.007059 158.086957 
L 563.76 158.086957 
" style="fill:none;stroke:#000000;stroke-linecap:square;stroke-linejoin:miter;stroke-width:0.8;"/>
   </g>
   <g id="patch_16">
    <path d="M 417.007059 36 
L 563.76 36 
" style="fill:none;stroke:#000000;stroke-linecap:square;stroke-linejoin:miter;stroke-width:0.8;"/>
   </g>
   <g id="text_6">
    <!-- 江苏省 -->
    <defs>
     <path d="M 32.59375 59 
L 28.09375 54.5 
Q 19.90625 62.203125 11.59375 67.40625 
L 15.296875 72.5 
Q 25 66 32.59375 59 
z
M 59.90625 58.296875 
Q 43.703125 58.296875 35.296875 57.40625 
L 35.296875 64.40625 
Q 44.796875 63.5 63.796875 63.5 
Q 82.796875 63.5 92.296875 64.40625 
L 92.296875 57.40625 
Q 83.296875 58.296875 66.09375 58.296875 
L 66.09375 -3 
Q 86.59375 -2.796875 95.796875 -2 
L 95.796875 -9.203125 
Q 84.796875 -8.296875 62.59375 -8.296875 
Q 40.40625 -8.296875 29 -9.203125 
L 29 -2 
Q 39 -3 59.90625 -3 
z
M 27.703125 34.796875 
L 23.296875 30.09375 
Q 15.703125 37.796875 5.703125 43.703125 
L 9.296875 49 
Q 18.90625 42.90625 27.703125 34.796875 
z
M 34.5 20.59375 
Q 26.5 7.59375 11.796875 -13.59375 
Q 9 -10.703125 5.203125 -8.59375 
Q 10.296875 -4.40625 18.25 7.046875 
Q 26.203125 18.5 29.09375 25.59375 
Q 31.09375 23.09375 34.5 20.59375 
z
" id="STXihei-27743"/>
     <path d="M 63.296875 62.296875 
Q 63.296875 69.59375 62.5 73.90625 
Q 64.5 73.40625 70.40625 73.40625 
Q 71.703125 73.40625 71.703125 72.796875 
Q 71.703125 72.203125 70.546875 71.453125 
Q 69.40625 70.703125 69.40625 67.40625 
L 69.40625 62.296875 
Q 84.40625 62.296875 94.40625 63.09375 
L 94.40625 56.40625 
Q 85.09375 57.09375 69.40625 57.296875 
L 69.40625 45.796875 
L 63.296875 45.796875 
L 63.296875 57.296875 
L 37.40625 57.296875 
L 37.40625 45.203125 
L 31.40625 45.203125 
L 31.40625 57.296875 
Q 14.5 57.296875 5.59375 56.40625 
L 5.59375 63.09375 
Q 13.40625 62.296875 31.40625 62.296875 
Q 31.40625 68.90625 30.703125 73.59375 
Q 33.5 73 38.296875 73 
Q 39.5 73 39.5 72.5 
Q 39.5 72 38.453125 70.796875 
Q 37.40625 69.59375 37.40625 66.90625 
L 37.40625 62.296875 
z
M 49.5 32.203125 
Q 48.796875 14.09375 41.796875 3.5 
Q 34.796875 -7.09375 19.203125 -15.40625 
Q 16.5 -12.296875 11.90625 -10.5 
Q 28.5 -4.40625 35.890625 5.390625 
Q 43.296875 15.203125 43.90625 32.203125 
Q 19.796875 32.203125 12.90625 31.296875 
L 12.90625 37.796875 
Q 21.5 36.90625 44.09375 36.90625 
Q 44.09375 43.40625 43.5 49.796875 
Q 45.796875 49.09375 51.5 49.09375 
Q 52.703125 49.09375 52.703125 48.34375 
Q 52.703125 47.59375 51.75 46.75 
Q 50.796875 45.90625 50.390625 44.046875 
Q 50 42.203125 49.703125 36.90625 
Q 69.296875 36.90625 77.703125 37.796875 
Q 76.40625 33.796875 75.796875 26.796875 
L 73.90625 3 
Q 73.40625 -3.296875 71.5 -6.546875 
Q 69.59375 -9.796875 65.140625 -11.296875 
Q 60.703125 -12.796875 51.90625 -13.296875 
Q 51.296875 -8.296875 48.09375 -5.09375 
Q 54.703125 -6.203125 58.890625 -6.203125 
Q 63.09375 -6.203125 65.25 -4.390625 
Q 67.40625 -2.59375 67.796875 3 
L 70.09375 32.203125 
z
M 24.296875 25.90625 
Q 27.296875 23.5 30.40625 22.703125 
Q 31.40625 22.5 31.40625 21.75 
Q 31.40625 21 30.34375 20.640625 
Q 29.296875 20.296875 26.75 16.75 
Q 24.203125 13.203125 17.5 2.203125 
Q 14.90625 4.40625 10.90625 5.09375 
Q 20.296875 14.703125 24.296875 25.90625 
z
M 96.703125 5.203125 
L 91.296875 1.5 
Q 84.796875 13.59375 77 21.296875 
L 81.59375 24.796875 
Q 89.703125 16.40625 96.703125 5.203125 
z
" id="STXihei-33487"/>
    </defs>
    <g transform="translate(466.383529 30)scale(0.16 -0.16)">
     <use xlink:href="#STXihei-27743"/>
     <use x="99.999985" xlink:href="#STXihei-33487"/>
     <use x="199.999969" xlink:href="#STXihei-30465"/>
    </g>
   </g>
  </g>
  <g id="axes_4">
   <g id="patch_17">
    <path d="M 64.8 316.8 
L 211.552941 316.8 
L 211.552941 194.713043 
L 64.8 194.713043 
z
" style="fill:#ffffff;"/>
   </g>
   <g id="matplotlib.axis_7">
    <g id="xtick_13">
     <g id="line2d_40">
      <g>
       <use style="stroke:#000000;stroke-width:0.8;" x="64.8" xlink:href="#mbcab88b736" y="316.8"/>
      </g>
     </g>
     <g id="text_7">
      <!-- 0 -->
      <g transform="translate(61.475625 332.63125)scale(0.12 -0.12)">
       <use xlink:href="#STXihei-48"/>
      </g>
     </g>
    </g>
    <g id="xtick_14">
     <g id="line2d_41">
      <g>
       <use style="stroke:#000000;stroke-width:0.8;" x="106.729412" xlink:href="#mbcab88b736" y="316.8"/>
      </g>
     </g>
     <g id="text_8">
      <!-- 200 -->
      <g transform="translate(96.756287 332.63125)scale(0.12 -0.12)">
       <use xlink:href="#STXihei-50"/>
       <use x="55.399994" xlink:href="#STXihei-48"/>
       <use x="110.799988" xlink:href="#STXihei-48"/>
      </g>
     </g>
    </g>
    <g id="xtick_15">
     <g id="line2d_42">
      <g>
       <use style="stroke:#000000;stroke-width:0.8;" x="148.658824" xlink:href="#mbcab88b736" y="316.8"/>
      </g>
     </g>
     <g id="text_9">
      <!-- 400 -->
      <defs>
       <path d="M 42.59375 73.59375 
L 44 73.59375 
L 44 23.59375 
L 52.703125 23.59375 
L 52.703125 16.703125 
L 44 16.703125 
L 44 0 
L 36.90625 0 
L 36.90625 16.703125 
L 2.5 16.703125 
z
M 36.90625 23.59375 
L 36.90625 53.5 
L 15.703125 23.59375 
z
" id="STXihei-52"/>
      </defs>
      <g transform="translate(138.685699 332.63125)scale(0.12 -0.12)">
       <use xlink:href="#STXihei-52"/>
       <use x="55.399994" xlink:href="#STXihei-48"/>
       <use x="110.799988" xlink:href="#STXihei-48"/>
      </g>
     </g>
    </g>
    <g id="xtick_16">
     <g id="line2d_43">
      <g>
       <use style="stroke:#000000;stroke-width:0.8;" x="190.588235" xlink:href="#mbcab88b736" y="316.8"/>
      </g>
     </g>
     <g id="text_10">
      <!-- 600 -->
      <defs>
       <path d="M 36.703125 73.59375 
L 42.59375 69.796875 
L 23.203125 40.40625 
Q 27.296875 41.796875 31 41.796875 
Q 39 41.796875 45 35.4375 
Q 51 29.09375 51 20.09375 
Q 51 10.796875 44.453125 4.5 
Q 37.90625 -1.796875 28.5 -1.796875 
Q 19.203125 -1.796875 12.953125 4.59375 
Q 6.703125 11 6.703125 20.203125 
Q 6.703125 24.59375 8.390625 29.25 
Q 10.09375 33.90625 14.90625 41.09375 
z
M 43.90625 20.296875 
Q 43.90625 26.59375 39.5 31 
Q 35.09375 35.40625 28.796875 35.40625 
Q 22.5 35.40625 18.09375 31 
Q 13.703125 26.59375 13.703125 20.296875 
Q 13.703125 14 18.140625 9.59375 
Q 22.59375 5.203125 28.796875 5.203125 
Q 35 5.203125 39.453125 9.59375 
Q 43.90625 14 43.90625 20.296875 
z
" id="STXihei-54"/>
      </defs>
      <g transform="translate(180.61511 332.63125)scale(0.12 -0.12)">
       <use xlink:href="#STXihei-54"/>
       <use x="55.399994" xlink:href="#STXihei-48"/>
       <use x="110.799988" xlink:href="#STXihei-48"/>
      </g>
     </g>
    </g>
   </g>
   <g id="matplotlib.axis_8">
    <g id="ytick_10">
     <g id="line2d_44">
      <g>
       <use style="stroke:#000000;stroke-width:0.8;" x="64.8" xlink:href="#m3a27a51523" y="311.250593"/>
      </g>
     </g>
     <g id="text_11">
      <!-- 0 -->
      <g transform="translate(51.15125 315.666218)scale(0.12 -0.12)">
       <use xlink:href="#STXihei-48"/>
      </g>
     </g>
    </g>
    <g id="ytick_11">
     <g id="line2d_45">
      <g>
       <use style="stroke:#000000;stroke-width:0.8;" x="64.8" xlink:href="#m3a27a51523" y="271.166754"/>
      </g>
     </g>
     <g id="text_12">
      <!-- 10000 -->
      <g transform="translate(24.55625 275.582379)scale(0.12 -0.12)">
       <use xlink:href="#STXihei-49"/>
       <use x="55.399994" xlink:href="#STXihei-48"/>
       <use x="110.799988" xlink:href="#STXihei-48"/>
       <use x="166.199982" xlink:href="#STXihei-48"/>
       <use x="221.599976" xlink:href="#STXihei-48"/>
      </g>
     </g>
    </g>
    <g id="ytick_12">
     <g id="line2d_46">
      <g>
       <use style="stroke:#000000;stroke-width:0.8;" x="64.8" xlink:href="#m3a27a51523" y="231.082915"/>
      </g>
     </g>
     <g id="text_13">
      <!-- 20000 -->
      <g transform="translate(24.55625 235.49854)scale(0.12 -0.12)">
       <use xlink:href="#STXihei-50"/>
       <use x="55.399994" xlink:href="#STXihei-48"/>
       <use x="110.799988" xlink:href="#STXihei-48"/>
       <use x="166.199982" xlink:href="#STXihei-48"/>
       <use x="221.599976" xlink:href="#STXihei-48"/>
      </g>
     </g>
    </g>
   </g>
   <g id="line2d_47">
    <path clip-path="url(#pab061a251e)" d="M 64.8 311.250593 
L 71.718353 311.154392 
L 73.605176 310.865788 
L 74.443765 310.549126 
L 75.282353 309.959893 
L 75.911294 309.214334 
L 76.540235 308.047894 
L 77.169176 306.236105 
L 77.798118 303.458295 
L 78.427059 299.249491 
L 79.056 293.02848 
L 79.684941 284.210035 
L 80.523529 267.944013 
L 81.991059 235.812808 
L 82.410353 230.738194 
L 82.62 229.651921 
L 82.829647 229.647913 
L 83.039294 230.754227 
L 83.458588 236.085378 
L 84.087529 249.842151 
L 85.555059 284.931544 
L 86.184 294.880353 
L 86.812941 301.490178 
L 87.441882 305.598772 
L 88.070824 308.043886 
L 88.699765 309.458845 
L 89.328706 310.268539 
L 89.957647 310.713469 
L 90.796235 311.018107 
L 92.263765 311.194476 
L 96.456706 311.250593 
L 211.552941 311.250593 
L 211.552941 311.250593 
" style="fill:none;stroke:#1f77b4;stroke-linecap:square;stroke-width:1.5;"/>
   </g>
   <g id="line2d_48">
    <path clip-path="url(#pab061a251e)" d="M 64.8 311.250593 
L 75.701647 311.146375 
L 78.636706 310.88583 
L 80.313882 310.501025 
L 81.781412 309.851667 
L 82.829647 309.086066 
L 83.668235 308.196204 
L 84.506824 306.945589 
L 85.345412 305.250042 
L 86.184 302.94923 
L 87.022588 299.930917 
L 87.861176 296.114935 
L 88.909412 290.258686 
L 91.215529 276.590097 
L 91.844471 274.181058 
L 92.263765 273.23508 
L 92.683059 272.878334 
L 92.892706 272.926434 
L 93.102353 273.122845 
L 93.521647 273.980639 
L 93.940941 275.363532 
L 94.569882 278.26961 
L 95.618118 284.386404 
L 97.295294 294.202936 
L 98.343529 299.073123 
L 99.391765 302.740794 
L 100.230353 304.917346 
L 101.068941 306.572809 
L 101.907529 307.799374 
L 102.955765 308.885646 
L 104.004 309.635214 
L 105.261882 310.232463 
L 106.729412 310.649335 
L 108.616235 310.945956 
L 110.503059 311.098274 
L 114.276706 311.210509 
L 122.033647 311.250593 
L 211.552941 311.250593 
L 211.552941 311.250593 
" style="fill:none;stroke:#ff7f0e;stroke-linecap:square;stroke-width:1.5;"/>
   </g>
   <g id="line2d_49">
    <path clip-path="url(#pab061a251e)" d="M 64.8 311.250593 
L 87.861176 311.146375 
L 91.844471 311.022115 
L 94.779529 310.857771 
L 97.714588 310.581193 
L 101.068941 310.032044 
L 103.375059 309.44682 
L 105.471529 308.701261 
L 107.358353 307.847475 
L 110.083765 306.276188 
L 115.953882 302.688685 
L 117.421412 302.17962 
L 118.679294 301.999243 
L 119.727529 302.035318 
L 120.985412 302.30388 
L 122.662588 302.993322 
L 124.339765 303.939301 
L 130.629176 307.779332 
L 132.516 308.641135 
L 134.612471 309.382686 
L 137.337882 310.064111 
L 139.853647 310.484992 
L 144.465882 310.905872 
L 146.772 311.030132 
L 163.543765 311.242576 
L 211.552941 311.250593 
L 211.552941 311.250593 
" style="fill:none;stroke:#2ca02c;stroke-linecap:square;stroke-width:1.5;"/>
   </g>
   <g id="line2d_50">
    <path clip-path="url(#pab061a251e)" d="M 64.8 311.250593 
L 211.552941 311.242576 
L 211.552941 311.242576 
" style="fill:none;stroke:#d62728;stroke-linecap:square;stroke-width:1.5;"/>
   </g>
   <g id="line2d_51">
    <path clip-path="url(#pab061a251e)" d="M 64.8 311.250593 
L 211.552941 311.250593 
L 211.552941 311.250593 
" style="fill:none;stroke:#9467bd;stroke-linecap:square;stroke-width:1.5;"/>
   </g>
   <g id="line2d_52">
    <path clip-path="url(#pab061a251e)" d="M 64.8 311.250593 
L 211.552941 311.250593 
L 211.552941 311.250593 
" style="fill:none;stroke:#8c564b;stroke-linecap:square;stroke-width:1.5;"/>
   </g>
   <g id="patch_18">
    <path d="M 64.8 316.8 
L 64.8 194.713043 
" style="fill:none;stroke:#000000;stroke-linecap:square;stroke-linejoin:miter;stroke-width:0.8;"/>
   </g>
   <g id="patch_19">
    <path d="M 211.552941 316.8 
L 211.552941 194.713043 
" style="fill:none;stroke:#000000;stroke-linecap:square;stroke-linejoin:miter;stroke-width:0.8;"/>
   </g>
   <g id="patch_20">
    <path d="M 64.8 316.8 
L 211.552941 316.8 
" style="fill:none;stroke:#000000;stroke-linecap:square;stroke-linejoin:miter;stroke-width:0.8;"/>
   </g>
   <g id="patch_21">
    <path d="M 64.8 194.713043 
L 211.552941 194.713043 
" style="fill:none;stroke:#000000;stroke-linecap:square;stroke-linejoin:miter;stroke-width:0.8;"/>
   </g>
   <g id="text_14">
    <!-- 北京市 -->
    <defs>
     <path d="M 48 62.703125 
Q 45.40625 67.90625 40.703125 73.90625 
L 46.5 77.40625 
Q 50.703125 70.296875 54.59375 62.703125 
Q 79 62.703125 93.90625 63.5 
L 93.90625 57 
Q 77.59375 57.796875 50.4375 57.796875 
Q 23.296875 57.796875 7.09375 57 
L 7.09375 63.5 
Q 22.59375 62.703125 48 62.703125 
z
M 53.796875 22.09375 
L 53.796875 -7.296875 
Q 53.796875 -10.703125 52.6875 -12.34375 
Q 51.59375 -14 47.9375 -14.84375 
Q 44.296875 -15.703125 36.40625 -16 
Q 36.203125 -11.796875 33 -8.09375 
Q 38.796875 -9 41.890625 -9 
Q 45 -9 46.390625 -8.046875 
Q 47.796875 -7.09375 47.796875 -3.796875 
L 47.796875 22.09375 
Q 29.90625 22.09375 21.40625 21.703125 
Q 22 28.796875 22 35.890625 
Q 22 43 21.40625 50 
Q 33.09375 49.5 50.4375 49.5 
Q 67.796875 49.5 79.40625 50 
Q 79.09375 42.59375 79.09375 34.75 
Q 79.09375 26.90625 79.40625 21.796875 
Q 69.90625 22.09375 53.796875 22.09375 
z
M 73 27.09375 
L 73 44.40625 
L 28.203125 44.40625 
L 28.203125 27.09375 
z
M 29.5 18.203125 
Q 31.796875 15.59375 34.09375 14.59375 
Q 35.59375 13.90625 35.59375 13.25 
Q 35.59375 12.59375 33.796875 12 
Q 32.40625 11.5 27.703125 6.796875 
Q 20.203125 -0.703125 11.59375 -7.203125 
Q 9.90625 -3.90625 6.40625 -2.203125 
Q 20.90625 5.796875 29.5 18.203125 
z
M 90.90625 -2.203125 
L 85.703125 -7.09375 
Q 75.40625 4.5 64.40625 12.5 
L 68.40625 16.90625 
Q 81.5 6.296875 90.90625 -2.203125 
z
" id="STXihei-20140"/>
    </defs>
    <g transform="translate(114.176471 188.713043)scale(0.16 -0.16)">
     <use xlink:href="#STXihei-21271"/>
     <use x="99.999985" xlink:href="#STXihei-20140"/>
     <use x="199.999969" xlink:href="#STXihei-24066"/>
    </g>
   </g>
  </g>
  <g id="axes_5">
   <g id="patch_22">
    <path d="M 240.903529 316.8 
L 387.656471 316.8 
L 387.656471 194.713043 
L 240.903529 194.713043 
z
" style="fill:#ffffff;"/>
   </g>
   <g id="matplotlib.axis_9">
    <g id="xtick_17">
     <g id="line2d_53">
      <g>
       <use style="stroke:#000000;stroke-width:0.8;" x="240.903529" xlink:href="#mbcab88b736" y="316.8"/>
      </g>
     </g>
     <g id="text_15">
      <!-- 0 -->
      <g transform="translate(237.579154 332.63125)scale(0.12 -0.12)">
       <use xlink:href="#STXihei-48"/>
      </g>
     </g>
    </g>
    <g id="xtick_18">
     <g id="line2d_54">
      <g>
       <use style="stroke:#000000;stroke-width:0.8;" x="282.832941" xlink:href="#mbcab88b736" y="316.8"/>
      </g>
     </g>
     <g id="text_16">
      <!-- 200 -->
      <g transform="translate(272.859816 332.63125)scale(0.12 -0.12)">
       <use xlink:href="#STXihei-50"/>
       <use x="55.399994" xlink:href="#STXihei-48"/>
       <use x="110.799988" xlink:href="#STXihei-48"/>
      </g>
     </g>
    </g>
    <g id="xtick_19">
     <g id="line2d_55">
      <g>
       <use style="stroke:#000000;stroke-width:0.8;" x="324.762353" xlink:href="#mbcab88b736" y="316.8"/>
      </g>
     </g>
     <g id="text_17">
      <!-- 400 -->
      <g transform="translate(314.789228 332.63125)scale(0.12 -0.12)">
       <use xlink:href="#STXihei-52"/>
       <use x="55.399994" xlink:href="#STXihei-48"/>
       <use x="110.799988" xlink:href="#STXihei-48"/>
      </g>
     </g>
    </g>
    <g id="xtick_20">
     <g id="line2d_56">
      <g>
       <use style="stroke:#000000;stroke-width:0.8;" x="366.691765" xlink:href="#mbcab88b736" y="316.8"/>
      </g>
     </g>
     <g id="text_18">
      <!-- 600 -->
      <g transform="translate(356.71864 332.63125)scale(0.12 -0.12)">
       <use xlink:href="#STXihei-54"/>
       <use x="55.399994" xlink:href="#STXihei-48"/>
       <use x="110.799988" xlink:href="#STXihei-48"/>
      </g>
     </g>
    </g>
   </g>
   <g id="matplotlib.axis_10">
    <g id="ytick_13">
     <g id="line2d_57">
      <g>
       <use style="stroke:#000000;stroke-width:0.8;" x="240.903529" xlink:href="#m3a27a51523" y="311.250593"/>
      </g>
     </g>
    </g>
    <g id="ytick_14">
     <g id="line2d_58">
      <g>
       <use style="stroke:#000000;stroke-width:0.8;" x="240.903529" xlink:href="#m3a27a51523" y="271.166754"/>
      </g>
     </g>
    </g>
    <g id="ytick_15">
     <g id="line2d_59">
      <g>
       <use style="stroke:#000000;stroke-width:0.8;" x="240.903529" xlink:href="#m3a27a51523" y="231.082915"/>
      </g>
     </g>
    </g>
   </g>
   <g id="line2d_60">
    <path clip-path="url(#pe1108a6e87)" d="M 240.903529 311.250593 
L 247.612235 311.154392 
L 249.289412 310.905872 
L 250.128 310.617268 
L 250.966588 310.064111 
L 251.595529 309.362644 
L 252.224471 308.248313 
L 252.853412 306.492641 
L 253.482353 303.754915 
L 254.111294 299.530078 
L 254.740235 293.172781 
L 255.369176 283.917423 
L 255.998118 271.17477 
L 257.046353 243.388653 
L 257.884941 222.817627 
L 258.304235 217.209898 
L 258.513882 216.223835 
L 258.723529 216.556531 
L 258.933176 218.244061 
L 259.352471 225.282783 
L 259.981412 242.30639 
L 261.239294 278.357794 
L 261.868235 290.787793 
L 262.497176 299.073123 
L 263.126118 304.227904 
L 263.755059 307.286301 
L 264.384 309.04999 
L 265.012941 310.044069 
L 265.641882 310.593218 
L 266.480471 310.957981 
L 267.528706 311.150383 
L 270.044471 311.242576 
L 387.656471 311.250593 
L 387.656471 311.250593 
" style="fill:none;stroke:#1f77b4;stroke-linecap:square;stroke-width:1.5;"/>
   </g>
   <g id="line2d_61">
    <path clip-path="url(#pe1108a6e87)" d="M 240.903529 311.250593 
L 251.176235 311.150383 
L 254.530588 310.797646 
L 255.998118 310.372757 
L 257.046353 309.851667 
L 257.884941 309.238384 
L 258.723529 308.348523 
L 259.562118 307.097907 
L 260.400706 305.338227 
L 261.239294 302.901129 
L 262.077882 299.606238 
L 262.916471 295.301233 
L 263.964706 288.43888 
L 266.899765 267.398873 
L 267.319059 265.847628 
L 267.738353 265.057977 
L 267.948 264.961775 
L 268.157647 265.070002 
L 268.576941 265.875687 
L 268.996235 267.426932 
L 269.625176 270.906209 
L 270.673412 278.534163 
L 272.350588 290.924078 
L 273.398824 296.976738 
L 274.237412 300.676476 
L 275.076 303.49437 
L 275.914588 305.594763 
L 276.753176 307.121957 
L 277.591765 308.252322 
L 278.430353 309.066024 
L 279.478588 309.783524 
L 280.736471 310.332673 
L 281.994353 310.681402 
L 283.881176 310.974014 
L 288.074118 311.194476 
L 296.669647 311.250593 
L 387.656471 311.250593 
L 387.656471 311.250593 
" style="fill:none;stroke:#ff7f0e;stroke-linecap:square;stroke-width:1.5;"/>
   </g>
   <g id="line2d_62">
    <path clip-path="url(#pe1108a6e87)" d="M 240.903529 311.250593 
L 261.448941 311.146375 
L 270.883059 310.501025 
L 274.027765 309.847659 
L 275.914588 309.230367 
L 277.801412 308.376582 
L 279.897882 307.08989 
L 281.784706 305.594763 
L 283.671529 303.831074 
L 287.025882 300.576267 
L 288.493412 299.477969 
L 289.541647 298.952871 
L 290.380235 298.724393 
L 291.218824 298.684309 
L 292.057412 298.820594 
L 293.315294 299.357718 
L 294.573176 300.227537 
L 296.46 301.919075 
L 300.233647 305.514595 
L 302.330118 307.137991 
L 304.216941 308.28038 
L 306.313412 309.218342 
L 308.409882 309.879726 
L 311.135294 310.444908 
L 316.795765 310.98604 
L 325.181647 311.202492 
L 387.656471 311.250593 
L 387.656471 311.250593 
" style="fill:none;stroke:#2ca02c;stroke-linecap:square;stroke-width:1.5;"/>
   </g>
   <g id="line2d_63">
    <path clip-path="url(#pe1108a6e87)" d="M 240.903529 311.250593 
L 369.417176 311.146375 
L 371.513647 311.130341 
L 387.656471 311.074224 
L 387.656471 311.074224 
" style="fill:none;stroke:#d62728;stroke-linecap:square;stroke-width:1.5;"/>
   </g>
   <g id="line2d_64">
    <path clip-path="url(#pe1108a6e87)" d="M 240.903529 311.250593 
L 387.656471 311.250593 
L 387.656471 311.250593 
" style="fill:none;stroke:#9467bd;stroke-linecap:square;stroke-width:1.5;"/>
   </g>
   <g id="line2d_65">
    <path clip-path="url(#pe1108a6e87)" d="M 240.903529 311.250593 
L 387.656471 311.250593 
L 387.656471 311.250593 
" style="fill:none;stroke:#8c564b;stroke-linecap:square;stroke-width:1.5;"/>
   </g>
   <g id="patch_23">
    <path d="M 240.903529 316.8 
L 240.903529 194.713043 
" style="fill:none;stroke:#000000;stroke-linecap:square;stroke-linejoin:miter;stroke-width:0.8;"/>
   </g>
   <g id="patch_24">
    <path d="M 387.656471 316.8 
L 387.656471 194.713043 
" style="fill:none;stroke:#000000;stroke-linecap:square;stroke-linejoin:miter;stroke-width:0.8;"/>
   </g>
   <g id="patch_25">
    <path d="M 240.903529 316.8 
L 387.656471 316.8 
" style="fill:none;stroke:#000000;stroke-linecap:square;stroke-linejoin:miter;stroke-width:0.8;"/>
   </g>
   <g id="patch_26">
    <path d="M 240.903529 194.713043 
L 387.656471 194.713043 
" style="fill:none;stroke:#000000;stroke-linecap:square;stroke-linejoin:miter;stroke-width:0.8;"/>
   </g>
   <g id="text_19">
    <!-- 天津市 -->
    <defs>
     <path d="M 47.90625 62.203125 
Q 25.90625 62.203125 15.203125 61.40625 
L 15.203125 67.90625 
Q 23.703125 67.09375 51.046875 67.09375 
Q 78.40625 67.09375 86.203125 67.90625 
L 86.203125 61.40625 
Q 78.40625 62.203125 53.796875 62.203125 
Q 54.203125 46.90625 52.296875 35.40625 
Q 84.40625 35.40625 92.796875 36.203125 
L 92.796875 29.59375 
Q 84.90625 30.40625 55 30.40625 
Q 60.203125 17.90625 70.84375 7.34375 
Q 81.5 -3.203125 94.09375 -8.203125 
Q 90.09375 -9.90625 87.796875 -14.59375 
Q 57.59375 6.09375 50.59375 28.09375 
Q 47 14.59375 37.953125 4.296875 
Q 28.90625 -6 11.703125 -15.90625 
Q 10.09375 -12.59375 5.796875 -10.203125 
Q 22.40625 -2.796875 31.75 6.953125 
Q 41.09375 16.703125 44.796875 30.40625 
Q 18.5 30.40625 8.09375 29.59375 
L 8.09375 36.203125 
Q 15.90625 35.40625 46 35.40625 
Q 48.40625 46.796875 47.90625 62.203125 
z
" id="STXihei-22825"/>
     <path d="M 55.796875 32.5 
Q 41.296875 32.5 35.296875 31.703125 
L 35.296875 37.796875 
Q 42.5 36.90625 55.796875 36.90625 
L 55.796875 45.90625 
L 45.09375 45.90625 
Q 35.5 45.90625 28.296875 45.203125 
L 28.296875 51.09375 
Q 36.296875 50.5 45.296875 50.5 
L 55.796875 50.5 
L 55.796875 59.5 
Q 41.296875 59.5 34.796875 58.796875 
L 34.796875 64.796875 
Q 41.90625 64 55.796875 64 
Q 55.703125 74 55 77.09375 
Q 58.59375 76.40625 62.59375 76.40625 
Q 63.796875 76.40625 63.796875 75.703125 
Q 63.796875 75 63 73.796875 
Q 62.203125 72.59375 62.203125 71.203125 
L 62.203125 64 
Q 79.296875 64 85.796875 64.796875 
Q 85 61.09375 85 50.5 
Q 92 50.5 96.296875 51.09375 
L 96.296875 45.40625 
Q 92.703125 45.90625 85 45.90625 
Q 85 37.09375 85.703125 31.703125 
Q 78.40625 32.5 62.203125 32.5 
L 62.203125 22.5 
Q 82.59375 22.5 89.296875 23.296875 
L 89.296875 17.09375 
Q 82.59375 17.90625 62.203125 17.90625 
L 62.203125 8 
Q 84.296875 8 95.40625 8.703125 
L 95.40625 2.5 
Q 84.296875 3.203125 62.203125 3.203125 
Q 62.203125 -8.796875 62.796875 -15.90625 
L 55.203125 -15.90625 
Q 55.796875 -9.09375 55.796875 3.203125 
Q 35.90625 3.203125 25.59375 2.5 
L 25.59375 8.703125 
Q 35.90625 8 55.796875 8 
L 55.796875 17.90625 
Q 41.203125 17.703125 32.40625 17.09375 
L 32.40625 23.296875 
Q 39.59375 22.5 55.796875 22.5 
z
M 78.59375 50.5 
L 78.59375 59.5 
L 62.203125 59.5 
L 62.203125 50.5 
z
M 62.203125 36.90625 
L 78.59375 36.90625 
L 78.59375 45.90625 
L 62.203125 45.90625 
z
M 29.90625 61.59375 
L 25.703125 56.59375 
Q 19.796875 62.09375 8.5 67.90625 
L 11.59375 73 
Q 21.203125 67.703125 29.90625 61.59375 
z
M 25.703125 36.59375 
L 21.703125 31.703125 
Q 15.09375 38.296875 4.296875 44 
L 7.40625 49 
Q 18.296875 42.703125 25.703125 36.59375 
z
M 27.5 17.59375 
Q 19.796875 3.203125 11.296875 -13.796875 
Q 8 -11.09375 4.203125 -10.09375 
Q 13.40625 0.40625 21.40625 21.40625 
Q 23.796875 18.5 27.5 17.59375 
z
" id="STXihei-27941"/>
    </defs>
    <g transform="translate(290.28 188.713043)scale(0.16 -0.16)">
     <use xlink:href="#STXihei-22825"/>
     <use x="99.999985" xlink:href="#STXihei-27941"/>
     <use x="199.999969" xlink:href="#STXihei-24066"/>
    </g>
   </g>
  </g>
  <g id="axes_6">
   <g id="patch_27">
    <path d="M 417.007059 316.8 
L 563.76 316.8 
L 563.76 194.713043 
L 417.007059 194.713043 
z
" style="fill:#ffffff;"/>
   </g>
   <g id="matplotlib.axis_11">
    <g id="xtick_21">
     <g id="line2d_66">
      <g>
       <use style="stroke:#000000;stroke-width:0.8;" x="417.007059" xlink:href="#mbcab88b736" y="316.8"/>
      </g>
     </g>
     <g id="text_20">
      <!-- 0 -->
      <g transform="translate(413.682684 332.63125)scale(0.12 -0.12)">
       <use xlink:href="#STXihei-48"/>
      </g>
     </g>
    </g>
    <g id="xtick_22">
     <g id="line2d_67">
      <g>
       <use style="stroke:#000000;stroke-width:0.8;" x="458.936471" xlink:href="#mbcab88b736" y="316.8"/>
      </g>
     </g>
     <g id="text_21">
      <!-- 200 -->
      <g transform="translate(448.963346 332.63125)scale(0.12 -0.12)">
       <use xlink:href="#STXihei-50"/>
       <use x="55.399994" xlink:href="#STXihei-48"/>
       <use x="110.799988" xlink:href="#STXihei-48"/>
      </g>
     </g>
    </g>
    <g id="xtick_23">
     <g id="line2d_68">
      <g>
       <use style="stroke:#000000;stroke-width:0.8;" x="500.865882" xlink:href="#mbcab88b736" y="316.8"/>
      </g>
     </g>
     <g id="text_22">
      <!-- 400 -->
      <g transform="translate(490.892757 332.63125)scale(0.12 -0.12)">
       <use xlink:href="#STXihei-52"/>
       <use x="55.399994" xlink:href="#STXihei-48"/>
       <use x="110.799988" xlink:href="#STXihei-48"/>
      </g>
     </g>
    </g>
    <g id="xtick_24">
     <g id="line2d_69">
      <g>
       <use style="stroke:#000000;stroke-width:0.8;" x="542.795294" xlink:href="#mbcab88b736" y="316.8"/>
      </g>
     </g>
     <g id="text_23">
      <!-- 600 -->
      <g transform="translate(532.822169 332.63125)scale(0.12 -0.12)">
       <use xlink:href="#STXihei-54"/>
       <use x="55.399994" xlink:href="#STXihei-48"/>
       <use x="110.799988" xlink:href="#STXihei-48"/>
      </g>
     </g>
    </g>
   </g>
   <g id="matplotlib.axis_12">
    <g id="ytick_16">
     <g id="line2d_70">
      <g>
       <use style="stroke:#000000;stroke-width:0.8;" x="417.007059" xlink:href="#m3a27a51523" y="311.250593"/>
      </g>
     </g>
    </g>
    <g id="ytick_17">
     <g id="line2d_71">
      <g>
       <use style="stroke:#000000;stroke-width:0.8;" x="417.007059" xlink:href="#m3a27a51523" y="271.166754"/>
      </g>
     </g>
    </g>
    <g id="ytick_18">
     <g id="line2d_72">
      <g>
       <use style="stroke:#000000;stroke-width:0.8;" x="417.007059" xlink:href="#m3a27a51523" y="231.082915"/>
      </g>
     </g>
    </g>
   </g>
   <g id="line2d_73">
    <path clip-path="url(#pe4ea5f6e78)" d="M 417.007059 311.250593 
L 423.506118 311.154392 
L 425.183294 310.897855 
L 426.021882 310.585201 
L 426.860471 309.983944 
L 427.489412 309.218342 
L 428.118353 307.98376 
L 428.747294 306.015643 
L 429.376235 302.909146 
L 430.005176 298.071027 
L 430.634118 290.707625 
L 431.263059 279.897014 
L 431.892 264.941733 
L 432.940235 232.509899 
L 433.569176 214.155509 
L 433.988471 206.186842 
L 434.198118 204.194675 
L 434.407765 203.745736 
L 434.617412 204.892134 
L 435.036706 211.750479 
L 435.665647 230.521741 
L 436.923529 272.677914 
L 437.552471 287.400709 
L 438.181412 297.177157 
L 438.810353 303.209775 
L 439.439294 306.757195 
L 440.068235 308.77742 
L 440.697176 309.899768 
L 441.326118 310.529084 
L 441.955059 310.857771 
L 442.793647 311.078232 
L 444.051529 311.202492 
L 448.034824 311.250593 
L 563.76 311.250593 
L 563.76 311.250593 
" style="fill:none;stroke:#1f77b4;stroke-linecap:square;stroke-width:1.5;"/>
   </g>
   <g id="line2d_74">
    <path clip-path="url(#pe4ea5f6e78)" d="M 417.007059 311.250593 
L 426.860471 311.146375 
L 430.214824 310.733511 
L 431.472706 310.324656 
L 432.520941 309.747449 
L 433.359529 309.045982 
L 434.198118 308.019835 
L 435.036706 306.532725 
L 435.665647 305.021564 
L 436.504235 302.287846 
L 437.342824 298.50794 
L 438.181412 293.469402 
L 439.02 287.051979 
L 440.277882 275.355515 
L 441.535765 263.763269 
L 442.164706 259.54244 
L 442.584 257.766726 
L 443.003294 256.969058 
L 443.212941 256.961041 
L 443.422588 257.209561 
L 443.841882 258.472202 
L 444.261176 260.648754 
L 444.890118 265.290463 
L 446.148 276.974902 
L 447.405882 288.110193 
L 448.454118 295.341317 
L 449.292706 299.670372 
L 450.131294 302.901129 
L 450.969882 305.250042 
L 451.808471 306.945589 
L 452.647059 308.164137 
L 453.485647 309.037965 
L 454.324235 309.659264 
L 455.372471 310.196388 
L 456.630353 310.605243 
L 458.097882 310.889838 
L 461.242588 311.146375 
L 466.483765 311.238568 
L 563.76 311.250593 
L 563.76 311.250593 
" style="fill:none;stroke:#ff7f0e;stroke-linecap:square;stroke-width:1.5;"/>
   </g>
   <g id="line2d_75">
    <path clip-path="url(#pe4ea5f6e78)" d="M 417.007059 311.250593 
L 435.456 311.146375 
L 443.422588 310.581193 
L 445.728706 310.136262 
L 448.454118 309.214334 
L 449.921647 308.468774 
L 451.598824 307.318368 
L 453.066353 306.007627 
L 454.533882 304.38824 
L 456.001412 302.484257 
L 458.307529 299.173332 
L 459.775059 297.189182 
L 460.823294 296.026751 
L 461.661882 295.3333 
L 462.500471 294.900395 
L 463.339059 294.76411 
L 463.968 294.856303 
L 464.806588 295.241108 
L 465.645176 295.878441 
L 466.693412 296.980746 
L 468.370588 299.201391 
L 472.144235 304.320097 
L 473.821412 306.111845 
L 475.288941 307.366469 
L 476.756471 308.348523 
L 478.224 309.102099 
L 479.901176 309.747449 
L 482.416941 310.372757 
L 484.932706 310.749545 
L 491.222118 311.126333 
L 499.817647 311.234559 
L 506.107059 311.246585 
L 563.76 311.250593 
L 563.76 311.250593 
" style="fill:none;stroke:#2ca02c;stroke-linecap:square;stroke-width:1.5;"/>
   </g>
   <g id="line2d_76">
    <path clip-path="url(#pe4ea5f6e78)" d="M 417.007059 311.250593 
L 490.383529 311.146375 
L 492.48 311.126333 
L 505.687765 311.018107 
L 510.090353 310.953972 
L 517.218353 310.845746 
L 523.298118 310.721486 
L 559.567059 310.136262 
L 563.76 310.168329 
L 563.76 310.168329 
" style="fill:none;stroke:#d62728;stroke-linecap:square;stroke-width:1.5;"/>
   </g>
   <g id="line2d_77">
    <path clip-path="url(#pe4ea5f6e78)" d="M 417.007059 311.250593 
L 563.76 311.250593 
L 563.76 311.250593 
" style="fill:none;stroke:#9467bd;stroke-linecap:square;stroke-width:1.5;"/>
   </g>
   <g id="line2d_78">
    <path clip-path="url(#pe4ea5f6e78)" d="M 417.007059 311.250593 
L 563.76 311.250593 
L 563.76 311.250593 
" style="fill:none;stroke:#8c564b;stroke-linecap:square;stroke-width:1.5;"/>
   </g>
   <g id="patch_28">
    <path d="M 417.007059 316.8 
L 417.007059 194.713043 
" style="fill:none;stroke:#000000;stroke-linecap:square;stroke-linejoin:miter;stroke-width:0.8;"/>
   </g>
   <g id="patch_29">
    <path d="M 563.76 316.8 
L 563.76 194.713043 
" style="fill:none;stroke:#000000;stroke-linecap:square;stroke-linejoin:miter;stroke-width:0.8;"/>
   </g>
   <g id="patch_30">
    <path d="M 417.007059 316.8 
L 563.76 316.8 
" style="fill:none;stroke:#000000;stroke-linecap:square;stroke-linejoin:miter;stroke-width:0.8;"/>
   </g>
   <g id="patch_31">
    <path d="M 417.007059 194.713043 
L 563.76 194.713043 
" style="fill:none;stroke:#000000;stroke-linecap:square;stroke-linejoin:miter;stroke-width:0.8;"/>
   </g>
   <g id="text_24">
    <!-- 广东省 -->
    <defs>
     <path d="M 62 63.59375 
L 56.5 59.796875 
Q 52.59375 66.796875 46.703125 72.703125 
L 51.296875 76.5 
Q 57.5 70.296875 62 63.59375 
z
M 94.203125 53.09375 
Q 87.09375 53.703125 68.09375 53.703125 
L 26.296875 53.703125 
Q 26.90625 42.40625 26.90625 34.09375 
Q 26.90625 16.59375 24.25 6.09375 
Q 21.59375 -4.40625 14.59375 -15.09375 
Q 11.5 -12 7.5 -11.59375 
Q 14.796875 -4 17.84375 6.953125 
Q 20.90625 17.90625 20.90625 35.296875 
Q 20.90625 45.90625 19.796875 59.59375 
Q 26 58.90625 57.453125 58.90625 
Q 88.90625 58.90625 94.203125 59.59375 
z
" id="STXihei-24191"/>
     <path d="M 36.90625 55.703125 
Q 18 55.703125 7.796875 54.90625 
L 7.796875 61.703125 
Q 18 60.90625 39.59375 60.90625 
Q 42.703125 67.296875 45.09375 75 
Q 49.09375 72.703125 51.75 72.453125 
Q 54.40625 72.203125 54.40625 71.390625 
Q 54.40625 70.59375 53.15625 70.09375 
Q 51.90625 69.59375 50.703125 67.84375 
Q 49.5 66.09375 46.59375 60.90625 
L 72.296875 60.90625 
Q 82.40625 60.90625 92.59375 61.703125 
L 92.59375 54.90625 
Q 82.40625 55.703125 72.296875 55.703125 
L 43.59375 55.703125 
Q 38.296875 46.59375 25.703125 30 
L 50.59375 30 
L 50.59375 36.90625 
Q 50.59375 45.90625 50.203125 48.203125 
Q 53.703125 47.40625 56.5 47.40625 
Q 59.296875 47.40625 59.296875 46.75 
Q 59.296875 46.09375 58.40625 45.5 
Q 56.5 44.09375 56.5 41.796875 
L 56.5 30 
Q 79.703125 30 86.5 30.703125 
L 86.5 24.09375 
Q 77.09375 25 56.5 25 
L 56.5 -6 
Q 56.5 -9.5 55.5 -11.203125 
Q 54.5 -12.90625 51.046875 -13.84375 
Q 47.59375 -14.796875 40 -15.296875 
Q 39.59375 -10.796875 36.5 -7.09375 
Q 42.296875 -7.90625 45.140625 -7.90625 
Q 48 -7.90625 49.296875 -7.203125 
Q 50.59375 -6.5 50.59375 -4 
L 50.59375 25 
Q 33.40625 25 26.34375 24.703125 
Q 19.296875 24.40625 17.59375 23.5 
Q 17.59375 26.90625 15.796875 30 
Q 18 30.40625 20.046875 32.046875 
Q 22.09375 33.703125 27.890625 41.890625 
Q 33.703125 50.09375 36.90625 55.703125 
z
M 31 18.59375 
Q 34.09375 15.59375 37 14.203125 
Q 38 13.703125 38 13.09375 
Q 38 12.5 36.890625 12.34375 
Q 35.796875 12.203125 33.890625 10.84375 
Q 32 9.5 30.796875 8.09375 
Q 21.5 -3 9.90625 -11 
Q 7.59375 -7.203125 4.296875 -5.59375 
Q 18.59375 0.796875 31 18.59375 
z
M 95.09375 -4.09375 
L 90.203125 -9.203125 
Q 79 2.5 64.703125 11.796875 
L 68.703125 17 
Q 82.90625 7 95.09375 -4.09375 
z
" id="STXihei-19996"/>
    </defs>
    <g transform="translate(466.383529 188.713043)scale(0.16 -0.16)">
     <use xlink:href="#STXihei-24191"/>
     <use x="99.999985" xlink:href="#STXihei-19996"/>
     <use x="199.999969" xlink:href="#STXihei-30465"/>
    </g>
   </g>
  </g>
  <g id="text_25">
   <!-- 时间（天） -->
   <defs>
    <path d="M 74.59375 51.09375 
Q 74.59375 70.59375 73.5 76 
Q 76.09375 75.296875 81.296875 75.296875 
Q 83 75.296875 83 74.5 
Q 83 73.703125 81.84375 73.046875 
Q 80.703125 72.40625 80.703125 69.09375 
L 80.703125 51.09375 
Q 89.09375 51.203125 96 51.90625 
L 96 45.203125 
Q 90.59375 45.90625 80.703125 45.90625 
L 80.703125 -3.703125 
Q 80.703125 -8.40625 79.25 -10.90625 
Q 77.796875 -13.40625 73.296875 -14.59375 
Q 68.796875 -15.796875 59.5 -15.796875 
Q 59.5 -11.09375 55.90625 -7.296875 
Q 62.59375 -8.40625 66.640625 -8.40625 
Q 70.703125 -8.40625 72.640625 -6.796875 
Q 74.59375 -5.203125 74.59375 -0.296875 
L 74.59375 46 
L 61.796875 46 
Q 50.90625 46 42.90625 45.203125 
L 42.90625 51.90625 
Q 50.796875 51.09375 61.796875 51.09375 
z
M 15.09375 4.203125 
L 15.09375 -7.59375 
L 8.296875 -7.59375 
Q 9 -1.90625 9 6.703125 
L 9 56.59375 
Q 9 64.59375 8.40625 67.703125 
Q 11.59375 66.90625 24.75 66.90625 
Q 37.90625 66.90625 41.09375 67.703125 
Q 40.5 65.09375 40.5 56.59375 
L 40.5 8.09375 
Q 40.5 1.703125 41.203125 -5.09375 
L 34.296875 -5.09375 
L 34.296875 4.203125 
z
M 34.296875 37.296875 
L 34.296875 61.796875 
L 15.09375 61.796875 
L 15.09375 37.296875 
z
M 34.296875 8.90625 
L 34.296875 32.59375 
L 15.09375 32.59375 
L 15.09375 8.90625 
z
M 68.09375 16.796875 
L 62.296875 13 
Q 57.296875 23.40625 48.296875 32.90625 
L 53.40625 36.296875 
Q 62.796875 25.296875 68.09375 16.796875 
z
" id="STXihei-26102"/>
    <path d="M 34 62.59375 
L 29 57.796875 
Q 24.203125 64.90625 14.796875 71.40625 
L 18.59375 75.796875 
Q 27.796875 69.09375 34 62.59375 
z
M 87.90625 67.703125 
Q 87.203125 64.09375 87.203125 56.40625 
L 87.203125 -4.703125 
Q 87.203125 -9.796875 86.046875 -12.140625 
Q 84.90625 -14.5 81.84375 -15.34375 
Q 78.796875 -16.203125 72.09375 -16.40625 
Q 72.40625 -12.296875 69.40625 -8.90625 
Q 74 -9.703125 76.5 -9.703125 
Q 79 -9.703125 80.140625 -8.796875 
Q 81.296875 -7.90625 81.296875 -5 
L 81.296875 61.796875 
L 62.203125 61.796875 
Q 51.5 61.796875 43.796875 61.203125 
L 43.796875 67.59375 
Q 51.296875 67 66.6875 67 
Q 82.09375 67 87.90625 67.703125 
z
M 11.796875 58 
Q 14.296875 57.09375 15.1875 56.9375 
Q 16.09375 56.796875 18.4375 56.796875 
Q 20.796875 56.796875 20.796875 56.046875 
Q 20.796875 55.296875 19.296875 54.09375 
Q 18.90625 53.796875 18.5 51.796875 
Q 18.09375 49.796875 18.09375 47.5 
L 18.09375 -16.296875 
L 11.296875 -16.296875 
Q 12.296875 -7.296875 12.296875 -2.40625 
L 12.296875 45.40625 
Q 12.296875 51.90625 11.796875 58 
z
M 68.703125 2.59375 
Q 63.203125 3.296875 49.140625 3.296875 
Q 35.09375 3.296875 29.703125 2.59375 
Q 30 7.09375 30 8.796875 
L 30 41.5 
Q 30 44.5 29.703125 47.703125 
Q 35 47 49.09375 47 
Q 63.203125 47 68.703125 47.703125 
Q 68.40625 45.203125 68.40625 41.5 
L 68.40625 8.796875 
Q 68.40625 5.203125 68.703125 2.59375 
z
M 62.59375 27.296875 
L 62.59375 42.203125 
L 35.59375 42.203125 
L 35.59375 27.296875 
z
M 35.59375 22.59375 
L 35.59375 7.796875 
L 62.59375 7.796875 
L 62.59375 22.59375 
z
" id="STXihei-38388"/>
    <path d="M 90.40625 70.59375 
Q 81.703125 60.796875 77.5 51.6875 
Q 73.296875 42.59375 73.296875 33 
Q 73.296875 16.203125 77.34375 7.453125 
Q 81.40625 -1.296875 89.90625 -10.296875 
L 86 -14.203125 
Q 76.40625 -4.796875 71.65625 6.25 
Q 66.90625 17.296875 66.90625 32.90625 
Q 66.90625 43.203125 72.046875 54.34375 
Q 77.203125 65.5 86.796875 74.09375 
z
" id="STXihei-65288"/>
    <path d="M 13.203125 74.09375 
Q 22.796875 65.5 27.9375 54.34375 
Q 33.09375 43.203125 33.09375 32.90625 
Q 33.09375 17.296875 28.34375 6.25 
Q 23.59375 -4.796875 14 -14.203125 
L 10.09375 -10.296875 
Q 18.59375 -1.296875 22.640625 7.453125 
Q 26.703125 16.203125 26.703125 33 
Q 26.703125 42.59375 22.5 51.6875 
Q 18.296875 60.796875 9.59375 70.59375 
z
" id="STXihei-65289"/>
   </defs>
   <g transform="translate(324 345.793125)scale(0.14 -0.14)">
    <use xlink:href="#STXihei-26102"/>
    <use x="99.999985" xlink:href="#STXihei-38388"/>
    <use x="199.999969" xlink:href="#STXihei-65288"/>
    <use x="299.999954" xlink:href="#STXihei-22825"/>
    <use x="399.999939" xlink:href="#STXihei-65289"/>
   </g>
  </g>
  <g id="text_26">
   <!-- 每日新增病例 -->
   <defs>
    <path d="M 27 60.09375 
Q 20.296875 49 12.296875 39.90625 
Q 10 43.40625 5.703125 44.5 
Q 12.90625 49.59375 19.09375 58.59375 
Q 25.296875 67.59375 28.40625 76.90625 
Q 31 74.703125 35.796875 73.703125 
Q 36.90625 73.5 36.90625 72.796875 
Q 36.90625 72.09375 35.40625 71.546875 
Q 33.90625 71 30.09375 65.203125 
L 75.40625 65.203125 
Q 83.40625 65.203125 90 65.90625 
L 90 59.5 
Q 84.5 60.09375 75.296875 60.09375 
z
M 21.5 28.59375 
L 23 51 
Q 33.203125 50.5 53 50.5 
Q 72.796875 50.5 82.40625 51.09375 
L 81.203125 28.5 
Q 90.703125 28.59375 95.09375 29.203125 
L 95.09375 23 
Q 90.296875 23.59375 80.90625 23.5 
L 79.90625 4.796875 
Q 86.796875 5.40625 89.09375 6.09375 
L 89.09375 -1.5 
Q 86.296875 -0.90625 79.5 -0.59375 
Q 79 -9.203125 75.953125 -12.140625 
Q 72.90625 -15.09375 61.296875 -16.203125 
Q 61.203125 -12.5 58.203125 -8.5 
Q 62.09375 -8.796875 64.40625 -8.796875 
Q 69.703125 -8.796875 71.453125 -6.75 
Q 73.203125 -4.703125 73.59375 -0.296875 
L 42.703125 -0.296875 
Q 29.203125 -0.296875 19.5 -1.296875 
L 21.203125 23.5 
Q 10.703125 23.59375 6.296875 23.09375 
L 6.296875 29.203125 
Q 11.90625 28.59375 21.5 28.59375 
z
M 27.296875 28.5 
L 75.296875 28.5 
L 76.296875 45.59375 
L 28.5 45.59375 
z
M 59.203125 33.703125 
L 55.203125 29.5 
Q 49.09375 35.703125 41.296875 40.796875 
L 44.90625 44.90625 
Q 51.703125 40.59375 59.203125 33.703125 
z
M 75.09375 23.5 
L 27 23.5 
L 25.703125 4.5 
L 74 4.5 
z
M 59.40625 10.703125 
L 55.40625 6.09375 
Q 49.703125 11.90625 40.09375 17.90625 
L 43.296875 22.09375 
Q 51.59375 17 59.40625 10.703125 
z
" id="STXihei-27599"/>
    <path d="M 26.40625 -2.09375 
L 26.40625 -12.90625 
L 18.296875 -12.90625 
Q 19.90625 -5.203125 19.90625 2.296875 
L 19.90625 58 
Q 19.90625 63.296875 19.09375 67.59375 
Q 33.296875 67.09375 50.640625 67.09375 
Q 68 67.09375 82.09375 67.59375 
Q 80.40625 63.5 80.40625 58.09375 
L 80.40625 5.703125 
Q 80.40625 -6.703125 81.5 -11.40625 
L 73.796875 -11.40625 
L 73.796875 -2.09375 
z
M 26.40625 34.703125 
L 73.796875 34.703125 
L 73.796875 61.90625 
L 26.40625 61.90625 
z
M 73.796875 29.90625 
L 26.40625 29.90625 
L 26.40625 3 
L 73.796875 3 
z
" id="STXihei-26085"/>
    <path d="M 36.203125 67.90625 
L 32.5 63.40625 
Q 27.59375 68.203125 20.5 71.703125 
L 23.5 75.796875 
Q 30.703125 72.5 36.203125 67.90625 
z
M 65.5 41.296875 
L 79.40625 41.296875 
Q 92.203125 41.296875 97.203125 42 
L 97.203125 36 
Q 92.5 36.703125 83.5 36.703125 
L 83.5 0.09375 
Q 83.5 -8.09375 84.203125 -15.796875 
L 77.203125 -15.796875 
Q 77.796875 -9.796875 77.796875 0.09375 
L 77.796875 36.703125 
L 65.5 36.703125 
Q 65.40625 13.59375 61.953125 3.34375 
Q 58.5 -6.90625 50.296875 -16.296875 
Q 46.90625 -14.203125 42.703125 -13.90625 
Q 52 -6.59375 56.046875 4.546875 
Q 60.09375 15.703125 60.09375 34.390625 
Q 60.09375 53.09375 58.59375 66 
Q 76.5 66 89 74.703125 
Q 90.703125 71 91.796875 69.953125 
Q 92.90625 68.90625 92.90625 68.203125 
Q 92.90625 67.5 91.796875 67.5 
L 90.59375 67.703125 
Q 89.296875 67.703125 82 65.5 
Q 74.703125 63.296875 65.5 61.40625 
z
M 55.5 57.296875 
Q 47.40625 58.203125 31.90625 58.203125 
Q 16.40625 58.203125 8.296875 57.296875 
L 8.296875 63.5 
Q 16.40625 62.59375 32.40625 62.59375 
Q 48.40625 62.59375 55.5 63.5 
z
M 34 39.59375 
Q 39 48.296875 41.703125 56.40625 
Q 45.09375 54.796875 47.140625 54.140625 
Q 49.203125 53.5 49.203125 52.640625 
Q 49.203125 51.796875 48.203125 51.203125 
Q 44.703125 49.203125 39 39.59375 
Q 49.09375 39.59375 56.59375 40.296875 
L 56.59375 34.59375 
Q 49.59375 35.296875 35.09375 35.296875 
L 35.09375 23.5 
Q 48.796875 23.703125 55.40625 24.5 
L 55.40625 18.09375 
Q 48.796875 18.90625 35.09375 19.09375 
L 35.09375 -7.703125 
Q 35.09375 -12.40625 31.6875 -13.34375 
Q 28.296875 -14.296875 20.5 -14.296875 
Q 20.703125 -13.59375 20.703125 -12.90625 
Q 20.703125 -10 17.59375 -7.203125 
Q 22.703125 -8.203125 26.09375 -8.203125 
Q 29.5 -8.203125 29.5 -5.296875 
L 29.5 19.09375 
Q 17.203125 19.09375 9.203125 18.09375 
L 9.203125 24.5 
Q 17.203125 23.5 29.5 23.5 
L 29.5 35.296875 
Q 13.296875 35.296875 6.203125 34.59375 
L 6.203125 40.296875 
Q 13.5 39.59375 34 39.59375 
z
M 28.5 44.40625 
L 24.703125 40.296875 
Q 20.59375 46.5 14.203125 51.296875 
L 18 54.59375 
Q 24.203125 50 28.5 44.40625 
z
M 17.90625 15.90625 
Q 20 13.796875 21.890625 13.390625 
Q 23.796875 13 23.796875 11.75 
Q 23.796875 10.5 22.296875 9.90625 
Q 21.5 9.59375 20.046875 7.890625 
Q 18.59375 6.203125 16.140625 1.703125 
Q 13.703125 -2.796875 11.09375 -6.59375 
Q 8.703125 -3.796875 6 -3.296875 
Q 13.203125 5 17.90625 15.90625 
z
M 52.703125 2 
L 48.09375 -1.59375 
Q 44.09375 5.703125 39 10.90625 
L 43.203125 14.09375 
Q 49.90625 7.296875 52.703125 2 
z
" id="STXihei-26032"/>
    <path d="M 70 59.40625 
Q 76.59375 68.59375 79.5 75.59375 
Q 81.796875 73.296875 85.703125 71.796875 
Q 87 71.296875 87 70.546875 
Q 87 69.796875 85.546875 69.4375 
Q 84.09375 69.09375 82.046875 67.1875 
Q 80 65.296875 75.59375 59.5 
Q 85.40625 59.59375 93.09375 60.203125 
Q 92.40625 54.5 92.40625 43.59375 
Q 92.40625 32.703125 93.09375 27.703125 
Q 85.90625 28.5 67 28.5 
Q 48.09375 28.5 37 27.703125 
Q 37.703125 34.703125 37.703125 43.796875 
Q 37.703125 52.90625 37 60.203125 
Q 46.5 59.40625 55.703125 59.40625 
z
M 62.203125 32.703125 
L 62.203125 55.203125 
L 43.296875 55.203125 
L 43.296875 32.703125 
z
M 59.5 39.09375 
L 54.796875 36.09375 
Q 51 43.796875 45.703125 48.59375 
L 49.90625 51.90625 
Q 55.40625 46 59.5 39.09375 
z
M 67.796875 55.203125 
L 67.796875 32.703125 
L 86.796875 32.703125 
L 86.796875 55.203125 
z
M 78.203125 52.703125 
Q 80.5 50.59375 82.75 50.140625 
Q 85 49.703125 85 49.046875 
Q 85 48.40625 83.59375 47.796875 
Q 81.5 46.90625 74.203125 35.40625 
L 69.703125 37.703125 
Q 75.5 44.40625 78.203125 52.703125 
z
M 59.796875 64.09375 
L 55.40625 60.203125 
Q 50.5 66.703125 43.5 70.90625 
L 47.296875 75.09375 
Q 53.703125 70.796875 59.796875 64.09375 
z
M 18.796875 40.296875 
Q 10.09375 40.296875 5.5 39.296875 
L 5.5 46.09375 
Q 10.09375 45.09375 18.796875 45.09375 
Q 18.796875 67.59375 18 74.40625 
Q 21.09375 73.59375 25.59375 73.59375 
Q 27.296875 73.59375 27.296875 72.84375 
Q 27.296875 72.09375 26 71.296875 
Q 24.703125 70.5 24.703125 68.59375 
L 24.703125 45.203125 
Q 31 45.40625 34.90625 46.09375 
L 34.90625 39.296875 
Q 31 40.09375 24.703125 40.203125 
L 24.703125 7.703125 
Q 30.59375 9.703125 36.59375 12.296875 
Q 36.40625 11.40625 36.40625 9.75 
Q 36.40625 8.09375 37 5.796875 
Q 22.203125 2 6.703125 -4.203125 
Q 6.296875 -0.40625 3.296875 3 
Q 11.5 4.09375 18.796875 6 
z
M 48.796875 -9.90625 
L 48.796875 -15.296875 
L 42.203125 -15.296875 
Q 42.90625 -10.59375 42.90625 -5.59375 
L 42.90625 10.796875 
Q 42.90625 18.40625 42.203125 21.796875 
Q 49.09375 21 66.296875 21 
Q 83.5 21 88.59375 21.796875 
Q 88 17.90625 88 10.796875 
L 88 -4.203125 
Q 88 -8.5 88.59375 -14.703125 
L 82 -14.703125 
L 82 -9.90625 
z
M 48.796875 7.90625 
L 82 7.90625 
L 82 16.5 
L 48.796875 16.5 
z
M 82 3.40625 
L 48.796875 3.40625 
L 48.796875 -5.40625 
L 82 -5.40625 
z
" id="STXihei-22686"/>
    <path d="M 19.59375 31.5 
Q 19.703125 43.5 18 64.59375 
Q 24.203125 63.90625 53 63.90625 
Q 50.796875 68 47 71.59375 
L 52.59375 75 
Q 56.09375 70.5 59.203125 63.90625 
Q 88.59375 63.90625 92.90625 64.59375 
L 92.90625 58.40625 
Q 84.59375 59.09375 64.296875 59.09375 
L 24.59375 59.09375 
Q 25.203125 43.59375 25.203125 34.203125 
Q 25.203125 15.90625 22.75 6.15625 
Q 20.296875 -3.59375 13.703125 -14.59375 
Q 11.5 -11.796875 7.296875 -11 
Q 13.40625 -2.796875 16.203125 5.640625 
Q 19 14.09375 19.5 25.59375 
Q 11.296875 19.703125 7.203125 16.203125 
Q 6.09375 19.40625 3.59375 22.09375 
Q 11.40625 25.203125 19.59375 31.5 
z
M 17.59375 41.59375 
L 12.40625 38.203125 
Q 8.796875 47 3.703125 53.5 
L 8.40625 57.09375 
Q 13.5 50.796875 17.59375 41.59375 
z
M 59.40625 45.09375 
Q 37.09375 44.90625 28.09375 44 
L 28.09375 50.90625 
Q 38.59375 49.796875 61.84375 49.796875 
Q 85.09375 49.796875 95.09375 50.90625 
L 95.09375 44 
Q 83.90625 45.09375 65.09375 45.09375 
Q 65.203125 38.703125 64.90625 32.703125 
Q 81.09375 32.703125 90.90625 33.40625 
Q 90.59375 30 90.59375 25.203125 
L 90.59375 -5.5 
Q 90.59375 -10.703125 87.59375 -12.453125 
Q 84.59375 -14.203125 74.796875 -14.796875 
Q 74.5 -10.796875 71.59375 -7.296875 
Q 76.5 -8.09375 79.296875 -8.09375 
Q 82.09375 -8.09375 83.390625 -7.25 
Q 84.703125 -6.40625 84.703125 -3.703125 
L 84.703125 28.09375 
L 64.5 28.09375 
Q 63.90625 23.203125 62.90625 19.703125 
Q 76.5 10.40625 82.59375 4.90625 
L 77.40625 -0.203125 
Q 72.203125 6.703125 61.296875 14.59375 
Q 57.703125 5 45.09375 -3.40625 
Q 43.203125 -0.5 39.40625 1.296875 
Q 49.90625 5.796875 53.84375 12.5 
Q 57.796875 19.203125 58.796875 28.09375 
L 38.5 28.09375 
L 38.5 -14.90625 
L 31.90625 -14.90625 
Q 32.59375 -8.203125 32.59375 -1.59375 
L 32.59375 25.5 
Q 32.59375 31 32.203125 33.5 
Q 43.90625 32.703125 59.09375 32.703125 
Q 59.5 37.796875 59.40625 45.09375 
z
" id="STXihei-30149"/>
    <path d="M 16.203125 45.203125 
Q 12.703125 37.703125 8.09375 30.703125 
Q 5.90625 33.5 2.203125 34.296875 
Q 15.703125 51.296875 21.90625 76.203125 
Q 24.90625 74.40625 27.34375 74.25 
Q 29.796875 74.09375 29.796875 73.4375 
Q 29.796875 72.796875 28.75 72.09375 
Q 27.703125 71.40625 26.34375 68.84375 
Q 25 66.296875 21.796875 58.296875 
L 21.796875 -15.59375 
L 15.09375 -15.59375 
Q 16.203125 -6.59375 16.203125 3.90625 
z
M 83.40625 73.296875 
Q 85.703125 72.703125 87.34375 72.640625 
Q 89 72.59375 90.5 72.59375 
Q 92 72.59375 92 71.75 
Q 92 70.90625 90.890625 70.296875 
Q 89.796875 69.703125 89.796875 67.703125 
L 89.796875 -5.09375 
Q 89.796875 -9.09375 88.546875 -11.046875 
Q 87.296875 -13 83.390625 -14.046875 
Q 79.5 -15.09375 70.796875 -15.703125 
Q 70.796875 -12.296875 70.09375 -10.890625 
Q 69.40625 -9.5 68 -8.09375 
Q 73.09375 -8.5 76.203125 -8.5 
Q 81.296875 -8.5 82.75 -7.453125 
Q 84.203125 -6.40625 84.203125 -3.703125 
L 84.203125 56.90625 
Q 84.203125 67.09375 83.40625 73.296875 
z
M 40.59375 61.703125 
Q 34.59375 61.703125 28.59375 61 
L 28.59375 67.40625 
Q 36.40625 66.59375 47.453125 66.59375 
Q 58.5 66.59375 66.40625 67.40625 
L 66.40625 61 
Q 58.59375 61.796875 46.203125 61.796875 
Q 45.5 53 42.90625 44.59375 
L 55.09375 44.59375 
Q 59 44.59375 63.09375 45.203125 
Q 60.59375 21.703125 54.84375 9.390625 
Q 49.09375 -2.90625 33 -14.5 
Q 31.296875 -10.90625 27.09375 -10 
Q 43.09375 -1.296875 49.703125 12.203125 
Q 42.5 19.59375 35.796875 23.90625 
L 39.203125 28.5 
Q 45.5 23.703125 52 17.40625 
Q 55.296875 26.296875 57 39.796875 
L 41.296875 39.796875 
Q 37.40625 29.703125 30.90625 21.40625 
Q 28.5 24.296875 25.203125 24.796875 
Q 32.09375 31.796875 35.59375 40.296875 
Q 39.09375 48.796875 40.59375 61.703125 
z
M 68.796875 55.703125 
Q 71 54.90625 76.09375 54.90625 
Q 77.203125 54.90625 77.203125 54.25 
Q 77.203125 53.59375 76.140625 52.9375 
Q 75.09375 52.296875 75.09375 50.296875 
L 75.09375 24.40625 
Q 75.09375 19.796875 75.796875 8.5 
L 68.90625 8.5 
Q 69.59375 17.296875 69.59375 24.40625 
L 69.59375 42.40625 
Q 69.59375 50 68.796875 55.703125 
z
" id="STXihei-20363"/>
   </defs>
   <g transform="translate(16.811563 222)rotate(-90)scale(0.14 -0.14)">
    <use xlink:href="#STXihei-27599"/>
    <use x="99.999985" xlink:href="#STXihei-26085"/>
    <use x="199.999969" xlink:href="#STXihei-26032"/>
    <use x="299.999954" xlink:href="#STXihei-22686"/>
    <use x="399.999939" xlink:href="#STXihei-30149"/>
    <use x="499.999924" xlink:href="#STXihei-20363"/>
   </g>
  </g>
  <g id="legend_1">
   <g id="line2d_79">
    <path d="M 567.6825 136.15125 
L 591.6825 136.15125 
" style="fill:none;stroke:#1f77b4;stroke-linecap:square;stroke-width:1.5;"/>
   </g>
   <g id="line2d_80"/>
   <g id="text_27">
    <!-- k = 0.0 -->
    <defs>
     <path d="M 6.59375 73.59375 
L 13.5 73.59375 
L 13.5 31.703125 
L 38 53.09375 
L 48.09375 53.09375 
L 18.90625 27.796875 
L 49.796875 0 
L 40.09375 0 
L 13.5 23.90625 
L 13.5 0 
L 6.59375 0 
z
" id="STXihei-107"/>
     <path id="STXihei-32"/>
     <path d="M 55 50 
L 55 43.296875 
L 5.59375 43.296875 
L 5.59375 50 
z
M 55 28.5 
L 55 21.796875 
L 5.59375 21.796875 
L 5.59375 28.5 
z
" id="STXihei-61"/>
     <path d="M 9.09375 4.703125 
Q 9.09375 7.203125 10.890625 8.953125 
Q 12.703125 10.703125 15.09375 10.703125 
Q 17.59375 10.703125 19.34375 8.953125 
Q 21.09375 7.203125 21.09375 4.703125 
Q 21.09375 2.09375 19.34375 0.34375 
Q 17.59375 -1.40625 15.09375 -1.40625 
Q 12.703125 -1.40625 10.890625 0.390625 
Q 9.09375 2.203125 9.09375 4.703125 
z
" id="STXihei-46"/>
    </defs>
    <g transform="translate(601.2825 140.35125)scale(0.12 -0.12)">
     <use xlink:href="#STXihei-107"/>
     <use x="50.199997" xlink:href="#STXihei-32"/>
     <use x="75.199982" xlink:href="#STXihei-61"/>
     <use x="135.799973" xlink:href="#STXihei-32"/>
     <use x="160.799957" xlink:href="#STXihei-48"/>
     <use x="216.199951" xlink:href="#STXihei-46"/>
     <use x="243.899948" xlink:href="#STXihei-48"/>
    </g>
   </g>
   <g id="line2d_81">
    <path d="M 567.6825 153.31125 
L 591.6825 153.31125 
" style="fill:none;stroke:#ff7f0e;stroke-linecap:square;stroke-width:1.5;"/>
   </g>
   <g id="line2d_82"/>
   <g id="text_28">
    <!-- k = 0.2 -->
    <g transform="translate(601.2825 157.51125)scale(0.12 -0.12)">
     <use xlink:href="#STXihei-107"/>
     <use x="50.199997" xlink:href="#STXihei-32"/>
     <use x="75.199982" xlink:href="#STXihei-61"/>
     <use x="135.799973" xlink:href="#STXihei-32"/>
     <use x="160.799957" xlink:href="#STXihei-48"/>
     <use x="216.199951" xlink:href="#STXihei-46"/>
     <use x="243.899948" xlink:href="#STXihei-50"/>
    </g>
   </g>
   <g id="line2d_83">
    <path d="M 567.6825 170.47125 
L 591.6825 170.47125 
" style="fill:none;stroke:#2ca02c;stroke-linecap:square;stroke-width:1.5;"/>
   </g>
   <g id="line2d_84"/>
   <g id="text_29">
    <!-- k = 0.4 -->
    <g transform="translate(601.2825 174.67125)scale(0.12 -0.12)">
     <use xlink:href="#STXihei-107"/>
     <use x="50.199997" xlink:href="#STXihei-32"/>
     <use x="75.199982" xlink:href="#STXihei-61"/>
     <use x="135.799973" xlink:href="#STXihei-32"/>
     <use x="160.799957" xlink:href="#STXihei-48"/>
     <use x="216.199951" xlink:href="#STXihei-46"/>
     <use x="243.899948" xlink:href="#STXihei-52"/>
    </g>
   </g>
   <g id="line2d_85">
    <path d="M 567.6825 187.63125 
L 591.6825 187.63125 
" style="fill:none;stroke:#d62728;stroke-linecap:square;stroke-width:1.5;"/>
   </g>
   <g id="line2d_86"/>
   <g id="text_30">
    <!-- k = 0.6 -->
    <g transform="translate(601.2825 191.83125)scale(0.12 -0.12)">
     <use xlink:href="#STXihei-107"/>
     <use x="50.199997" xlink:href="#STXihei-32"/>
     <use x="75.199982" xlink:href="#STXihei-61"/>
     <use x="135.799973" xlink:href="#STXihei-32"/>
     <use x="160.799957" xlink:href="#STXihei-48"/>
     <use x="216.199951" xlink:href="#STXihei-46"/>
     <use x="243.899948" xlink:href="#STXihei-54"/>
    </g>
   </g>
   <g id="line2d_87">
    <path d="M 567.6825 204.79125 
L 591.6825 204.79125 
" style="fill:none;stroke:#9467bd;stroke-linecap:square;stroke-width:1.5;"/>
   </g>
   <g id="line2d_88"/>
   <g id="text_31">
    <!-- k = 0.8 -->
    <defs>
     <path d="M 38.40625 39.40625 
Q 52 32.703125 52 20.59375 
Q 52 11 45.25 4.59375 
Q 38.5 -1.796875 27.59375 -1.796875 
Q 16.59375 -1.796875 10 4.59375 
Q 3.40625 11 3.40625 20 
Q 3.40625 32.59375 17.296875 39.40625 
Q 6.796875 45 6.796875 54.90625 
Q 6.796875 62.296875 12.9375 67.9375 
Q 19.09375 73.59375 28.09375 73.59375 
Q 36.5 73.59375 42.59375 68.09375 
Q 48.703125 62.59375 48.703125 54.703125 
Q 48.703125 45.09375 38.40625 39.40625 
z
M 41.5 55 
Q 41.5 59.796875 37.75 63.25 
Q 34 66.703125 27.703125 66.703125 
Q 21.90625 66.703125 18 63.25 
Q 14.09375 59.796875 14.09375 54.796875 
Q 14.09375 50 18.34375 46.140625 
Q 22.59375 42.296875 28 42.296875 
Q 33.40625 42.296875 37.453125 46.09375 
Q 41.5 49.90625 41.5 55 
z
M 44.796875 20.5 
Q 44.796875 26.59375 39.84375 31.1875 
Q 34.90625 35.796875 28.09375 35.796875 
Q 20.796875 35.796875 15.6875 31.046875 
Q 10.59375 26.296875 10.59375 19.796875 
Q 10.59375 13.40625 15.296875 9.203125 
Q 20 5 27.703125 5 
Q 35.203125 5 40 9.5 
Q 44.796875 14 44.796875 20.5 
z
" id="STXihei-56"/>
    </defs>
    <g transform="translate(601.2825 208.99125)scale(0.12 -0.12)">
     <use xlink:href="#STXihei-107"/>
     <use x="50.199997" xlink:href="#STXihei-32"/>
     <use x="75.199982" xlink:href="#STXihei-61"/>
     <use x="135.799973" xlink:href="#STXihei-32"/>
     <use x="160.799957" xlink:href="#STXihei-48"/>
     <use x="216.199951" xlink:href="#STXihei-46"/>
     <use x="243.899948" xlink:href="#STXihei-56"/>
    </g>
   </g>
   <g id="line2d_89">
    <path d="M 567.6825 221.95125 
L 591.6825 221.95125 
" style="fill:none;stroke:#8c564b;stroke-linecap:square;stroke-width:1.5;"/>
   </g>
   <g id="line2d_90"/>
   <g id="text_32">
    <!-- k = 1.0 -->
    <g transform="translate(601.2825 226.15125)scale(0.12 -0.12)">
     <use xlink:href="#STXihei-107"/>
     <use x="50.199997" xlink:href="#STXihei-32"/>
     <use x="75.199982" xlink:href="#STXihei-61"/>
     <use x="135.799973" xlink:href="#STXihei-32"/>
     <use x="160.799957" xlink:href="#STXihei-49"/>
     <use x="216.199951" xlink:href="#STXihei-46"/>
     <use x="243.899948" xlink:href="#STXihei-48"/>
    </g>
   </g>
  </g>
 </g>
 <defs>
  <clipPath id="p682307955a">
   <rect height="122.086957" width="146.752941" x="64.8" y="36"/>
  </clipPath>
  <clipPath id="p124bda4fac">
   <rect height="122.086957" width="146.752941" x="240.903529" y="36"/>
  </clipPath>
  <clipPath id="p49d9e7a940">
   <rect height="122.086957" width="146.752941" x="417.007059" y="36"/>
  </clipPath>
  <clipPath id="pab061a251e">
   <rect height="122.086957" width="146.752941" x="64.8" y="194.713043"/>
  </clipPath>
  <clipPath id="pe1108a6e87">
   <rect height="122.086957" width="146.752941" x="240.903529" y="194.713043"/>
  </clipPath>
  <clipPath id="pe4ea5f6e78">
   <rect height="122.086957" width="146.752941" x="417.007059" y="194.713043"/>
  </clipPath>
 </defs>
</svg>
