<?xml version="1.0" encoding="utf-8" standalone="no"?>
<!DOCTYPE svg PUBLIC "-//W3C//DTD SVG 1.1//EN"
  "http://www.w3.org/Graphics/SVG/1.1/DTD/svg11.dtd">
<!-- Created with matplotlib (https://matplotlib.org/) -->
<svg height="360pt" version="1.1" viewBox="0 0 576 360" width="576pt" xmlns="http://www.w3.org/2000/svg" xmlns:xlink="http://www.w3.org/1999/xlink">
 <defs>
  <style type="text/css">
*{stroke-linecap:butt;stroke-linejoin:round;}
  </style>
 </defs>
 <g id="figure_1">
  <g id="patch_1">
   <path d="M 0 360 
L 576 360 
L 576 0 
L 0 0 
z
" style="fill:#ffffff;"/>
  </g>
  <g id="axes_1">
   <g id="patch_2">
    <path d="M 69.12 306 
L 518.4 306 
L 518.4 36 
L 69.12 36 
z
" style="fill:#ffffff;"/>
   </g>
   <g id="matplotlib.axis_1">
    <g id="xtick_1">
     <g id="line2d_1">
      <defs>
       <path d="M 0 0 
L 0 3.5 
" id="m0896293a1c" style="stroke:#000000;stroke-width:0.8;"/>
      </defs>
      <g>
       <use style="stroke:#000000;stroke-width:0.8;" x="89.541818" xlink:href="#m0896293a1c" y="306"/>
      </g>
     </g>
     <g id="text_1">
      <!-- 0 -->
      <defs>
       <path d="M 27.296875 -1.796875 
Q 15.703125 -1.796875 9.453125 7.75 
Q 3.203125 17.296875 3.203125 35.90625 
Q 3.203125 54.5 9.453125 64.046875 
Q 15.703125 73.59375 27.296875 73.59375 
Q 38.703125 73.59375 45.453125 63.84375 
Q 52.203125 54.09375 52.203125 35.90625 
Q 52.203125 17.703125 45.390625 7.953125 
Q 38.59375 -1.796875 27.296875 -1.796875 
z
M 27.5 66.796875 
Q 19.203125 66.796875 14.59375 58.796875 
Q 10 50.796875 10 35.703125 
Q 10 4.703125 27.5 4.703125 
Q 36 4.703125 40.75 12.84375 
Q 45.5 21 45.5 35.703125 
Q 45.5 50.796875 40.59375 58.796875 
Q 35.703125 66.796875 27.5 66.796875 
z
" id="STXihei-48"/>
      </defs>
      <g transform="translate(85.109318 324.775)scale(0.16 -0.16)">
       <use xlink:href="#STXihei-48"/>
      </g>
     </g>
    </g>
    <g id="xtick_2">
     <g id="line2d_2">
      <g>
       <use style="stroke:#000000;stroke-width:0.8;" x="155.022598" xlink:href="#m0896293a1c" y="306"/>
      </g>
     </g>
     <g id="text_2">
      <!-- 80 -->
      <defs>
       <path d="M 38.40625 39.40625 
Q 52 32.703125 52 20.59375 
Q 52 11 45.25 4.59375 
Q 38.5 -1.796875 27.59375 -1.796875 
Q 16.59375 -1.796875 10 4.59375 
Q 3.40625 11 3.40625 20 
Q 3.40625 32.59375 17.296875 39.40625 
Q 6.796875 45 6.796875 54.90625 
Q 6.796875 62.296875 12.9375 67.9375 
Q 19.09375 73.59375 28.09375 73.59375 
Q 36.5 73.59375 42.59375 68.09375 
Q 48.703125 62.59375 48.703125 54.703125 
Q 48.703125 45.09375 38.40625 39.40625 
z
M 41.5 55 
Q 41.5 59.796875 37.75 63.25 
Q 34 66.703125 27.703125 66.703125 
Q 21.90625 66.703125 18 63.25 
Q 14.09375 59.796875 14.09375 54.796875 
Q 14.09375 50 18.34375 46.140625 
Q 22.59375 42.296875 28 42.296875 
Q 33.40625 42.296875 37.453125 46.09375 
Q 41.5 49.90625 41.5 55 
z
M 44.796875 20.5 
Q 44.796875 26.59375 39.84375 31.1875 
Q 34.90625 35.796875 28.09375 35.796875 
Q 20.796875 35.796875 15.6875 31.046875 
Q 10.59375 26.296875 10.59375 19.796875 
Q 10.59375 13.40625 15.296875 9.203125 
Q 20 5 27.703125 5 
Q 35.203125 5 40 9.5 
Q 44.796875 14 44.796875 20.5 
z
" id="STXihei-56"/>
      </defs>
      <g transform="translate(146.157598 324.775)scale(0.16 -0.16)">
       <use xlink:href="#STXihei-56"/>
       <use x="55.399994" xlink:href="#STXihei-48"/>
      </g>
     </g>
    </g>
    <g id="xtick_3">
     <g id="line2d_3">
      <g>
       <use style="stroke:#000000;stroke-width:0.8;" x="220.503378" xlink:href="#m0896293a1c" y="306"/>
      </g>
     </g>
     <g id="text_3">
      <!-- 160 -->
      <defs>
       <path d="M 18.5 71.796875 
L 32.59375 71.796875 
L 32.59375 0 
L 25.5 0 
L 25.5 64.796875 
L 14.203125 64.796875 
z
" id="STXihei-49"/>
       <path d="M 36.703125 73.59375 
L 42.59375 69.796875 
L 23.203125 40.40625 
Q 27.296875 41.796875 31 41.796875 
Q 39 41.796875 45 35.4375 
Q 51 29.09375 51 20.09375 
Q 51 10.796875 44.453125 4.5 
Q 37.90625 -1.796875 28.5 -1.796875 
Q 19.203125 -1.796875 12.953125 4.59375 
Q 6.703125 11 6.703125 20.203125 
Q 6.703125 24.59375 8.390625 29.25 
Q 10.09375 33.90625 14.90625 41.09375 
z
M 43.90625 20.296875 
Q 43.90625 26.59375 39.5 31 
Q 35.09375 35.40625 28.796875 35.40625 
Q 22.5 35.40625 18.09375 31 
Q 13.703125 26.59375 13.703125 20.296875 
Q 13.703125 14 18.140625 9.59375 
Q 22.59375 5.203125 28.796875 5.203125 
Q 35 5.203125 39.453125 9.59375 
Q 43.90625 14 43.90625 20.296875 
z
" id="STXihei-54"/>
      </defs>
      <g transform="translate(207.205878 324.775)scale(0.16 -0.16)">
       <use xlink:href="#STXihei-49"/>
       <use x="55.399994" xlink:href="#STXihei-54"/>
       <use x="110.799988" xlink:href="#STXihei-48"/>
      </g>
     </g>
    </g>
    <g id="xtick_4">
     <g id="line2d_4">
      <g>
       <use style="stroke:#000000;stroke-width:0.8;" x="285.984157" xlink:href="#m0896293a1c" y="306"/>
      </g>
     </g>
     <g id="text_4">
      <!-- 240 -->
      <defs>
       <path d="M 11.59375 49.296875 
L 4.703125 49.296875 
Q 5.203125 60.296875 12 66.9375 
Q 18.796875 73.59375 28.59375 73.59375 
Q 38.09375 73.59375 44.4375 67.34375 
Q 50.796875 61.09375 50.796875 52.09375 
Q 50.796875 45.40625 47.25 39.703125 
Q 43.703125 34 36.5 26.203125 
L 18.59375 6.90625 
L 51.796875 6.90625 
L 51.796875 0 
L 3 0 
L 30.40625 29.59375 
Q 37.59375 37.40625 40.6875 41.90625 
Q 43.796875 46.40625 43.796875 52 
Q 43.796875 58 39.25 62.390625 
Q 34.703125 66.796875 28.203125 66.796875 
Q 21.203125 66.796875 16.75 62.25 
Q 12.296875 57.703125 11.59375 49.296875 
z
" id="STXihei-50"/>
       <path d="M 42.59375 73.59375 
L 44 73.59375 
L 44 23.59375 
L 52.703125 23.59375 
L 52.703125 16.703125 
L 44 16.703125 
L 44 0 
L 36.90625 0 
L 36.90625 16.703125 
L 2.5 16.703125 
z
M 36.90625 23.59375 
L 36.90625 53.5 
L 15.703125 23.59375 
z
" id="STXihei-52"/>
      </defs>
      <g transform="translate(272.686657 324.775)scale(0.16 -0.16)">
       <use xlink:href="#STXihei-50"/>
       <use x="55.399994" xlink:href="#STXihei-52"/>
       <use x="110.799988" xlink:href="#STXihei-48"/>
      </g>
     </g>
    </g>
    <g id="xtick_5">
     <g id="line2d_5">
      <g>
       <use style="stroke:#000000;stroke-width:0.8;" x="351.464937" xlink:href="#m0896293a1c" y="306"/>
      </g>
     </g>
     <g id="text_5">
      <!-- 320 -->
      <defs>
       <path d="M 13.203125 55.203125 
L 5.90625 55.203125 
Q 7.90625 64.09375 13.546875 68.84375 
Q 19.203125 73.59375 27 73.59375 
Q 35.5 73.59375 41.546875 68.1875 
Q 47.59375 62.796875 47.59375 55.09375 
Q 47.59375 45.796875 38.40625 40.40625 
Q 44.703125 37.796875 48.140625 32.640625 
Q 51.59375 27.5 51.59375 21.40625 
Q 51.59375 11.90625 44.640625 5.046875 
Q 37.703125 -1.796875 27.09375 -1.796875 
Q 17.703125 -1.796875 11.59375 3.546875 
Q 5.5 8.90625 3.5 19.203125 
L 10.5 19.203125 
Q 12.40625 12.09375 16.34375 8.640625 
Q 20.296875 5.203125 27.203125 5.203125 
Q 34.703125 5.203125 39.59375 9.796875 
Q 44.5 14.40625 44.5 20.796875 
Q 44.5 28 39.09375 32.140625 
Q 33.703125 36.296875 23.40625 36.5 
L 23.40625 43.09375 
Q 30.796875 43.09375 35.4375 46.5 
Q 40.09375 49.90625 40.09375 55.09375 
Q 40.09375 60 36.34375 63.34375 
Q 32.59375 66.703125 27 66.703125 
Q 22 66.703125 18.75 63.84375 
Q 15.5 61 13.203125 55.203125 
z
" id="STXihei-51"/>
      </defs>
      <g transform="translate(338.167437 324.775)scale(0.16 -0.16)">
       <use xlink:href="#STXihei-51"/>
       <use x="55.399994" xlink:href="#STXihei-50"/>
       <use x="110.799988" xlink:href="#STXihei-48"/>
      </g>
     </g>
    </g>
    <g id="xtick_6">
     <g id="line2d_6">
      <g>
       <use style="stroke:#000000;stroke-width:0.8;" x="416.945717" xlink:href="#m0896293a1c" y="306"/>
      </g>
     </g>
     <g id="text_6">
      <!-- 400 -->
      <g transform="translate(403.648217 324.775)scale(0.16 -0.16)">
       <use xlink:href="#STXihei-52"/>
       <use x="55.399994" xlink:href="#STXihei-48"/>
       <use x="110.799988" xlink:href="#STXihei-48"/>
      </g>
     </g>
    </g>
    <g id="xtick_7">
     <g id="line2d_7">
      <g>
       <use style="stroke:#000000;stroke-width:0.8;" x="482.426497" xlink:href="#m0896293a1c" y="306"/>
      </g>
     </g>
     <g id="text_7">
      <!-- 480 -->
      <g transform="translate(469.128997 324.775)scale(0.16 -0.16)">
       <use xlink:href="#STXihei-52"/>
       <use x="55.399994" xlink:href="#STXihei-56"/>
       <use x="110.799988" xlink:href="#STXihei-48"/>
      </g>
     </g>
    </g>
    <g id="text_8">
     <!-- 时间（天） -->
     <defs>
      <path d="M 74.59375 51.09375 
Q 74.59375 70.59375 73.5 76 
Q 76.09375 75.296875 81.296875 75.296875 
Q 83 75.296875 83 74.5 
Q 83 73.703125 81.84375 73.046875 
Q 80.703125 72.40625 80.703125 69.09375 
L 80.703125 51.09375 
Q 89.09375 51.203125 96 51.90625 
L 96 45.203125 
Q 90.59375 45.90625 80.703125 45.90625 
L 80.703125 -3.703125 
Q 80.703125 -8.40625 79.25 -10.90625 
Q 77.796875 -13.40625 73.296875 -14.59375 
Q 68.796875 -15.796875 59.5 -15.796875 
Q 59.5 -11.09375 55.90625 -7.296875 
Q 62.59375 -8.40625 66.640625 -8.40625 
Q 70.703125 -8.40625 72.640625 -6.796875 
Q 74.59375 -5.203125 74.59375 -0.296875 
L 74.59375 46 
L 61.796875 46 
Q 50.90625 46 42.90625 45.203125 
L 42.90625 51.90625 
Q 50.796875 51.09375 61.796875 51.09375 
z
M 15.09375 4.203125 
L 15.09375 -7.59375 
L 8.296875 -7.59375 
Q 9 -1.90625 9 6.703125 
L 9 56.59375 
Q 9 64.59375 8.40625 67.703125 
Q 11.59375 66.90625 24.75 66.90625 
Q 37.90625 66.90625 41.09375 67.703125 
Q 40.5 65.09375 40.5 56.59375 
L 40.5 8.09375 
Q 40.5 1.703125 41.203125 -5.09375 
L 34.296875 -5.09375 
L 34.296875 4.203125 
z
M 34.296875 37.296875 
L 34.296875 61.796875 
L 15.09375 61.796875 
L 15.09375 37.296875 
z
M 34.296875 8.90625 
L 34.296875 32.59375 
L 15.09375 32.59375 
L 15.09375 8.90625 
z
M 68.09375 16.796875 
L 62.296875 13 
Q 57.296875 23.40625 48.296875 32.90625 
L 53.40625 36.296875 
Q 62.796875 25.296875 68.09375 16.796875 
z
" id="STXihei-26102"/>
      <path d="M 34 62.59375 
L 29 57.796875 
Q 24.203125 64.90625 14.796875 71.40625 
L 18.59375 75.796875 
Q 27.796875 69.09375 34 62.59375 
z
M 87.90625 67.703125 
Q 87.203125 64.09375 87.203125 56.40625 
L 87.203125 -4.703125 
Q 87.203125 -9.796875 86.046875 -12.140625 
Q 84.90625 -14.5 81.84375 -15.34375 
Q 78.796875 -16.203125 72.09375 -16.40625 
Q 72.40625 -12.296875 69.40625 -8.90625 
Q 74 -9.703125 76.5 -9.703125 
Q 79 -9.703125 80.140625 -8.796875 
Q 81.296875 -7.90625 81.296875 -5 
L 81.296875 61.796875 
L 62.203125 61.796875 
Q 51.5 61.796875 43.796875 61.203125 
L 43.796875 67.59375 
Q 51.296875 67 66.6875 67 
Q 82.09375 67 87.90625 67.703125 
z
M 11.796875 58 
Q 14.296875 57.09375 15.1875 56.9375 
Q 16.09375 56.796875 18.4375 56.796875 
Q 20.796875 56.796875 20.796875 56.046875 
Q 20.796875 55.296875 19.296875 54.09375 
Q 18.90625 53.796875 18.5 51.796875 
Q 18.09375 49.796875 18.09375 47.5 
L 18.09375 -16.296875 
L 11.296875 -16.296875 
Q 12.296875 -7.296875 12.296875 -2.40625 
L 12.296875 45.40625 
Q 12.296875 51.90625 11.796875 58 
z
M 68.703125 2.59375 
Q 63.203125 3.296875 49.140625 3.296875 
Q 35.09375 3.296875 29.703125 2.59375 
Q 30 7.09375 30 8.796875 
L 30 41.5 
Q 30 44.5 29.703125 47.703125 
Q 35 47 49.09375 47 
Q 63.203125 47 68.703125 47.703125 
Q 68.40625 45.203125 68.40625 41.5 
L 68.40625 8.796875 
Q 68.40625 5.203125 68.703125 2.59375 
z
M 62.59375 27.296875 
L 62.59375 42.203125 
L 35.59375 42.203125 
L 35.59375 27.296875 
z
M 35.59375 22.59375 
L 35.59375 7.796875 
L 62.59375 7.796875 
L 62.59375 22.59375 
z
" id="STXihei-38388"/>
      <path d="M 90.40625 70.59375 
Q 81.703125 60.796875 77.5 51.6875 
Q 73.296875 42.59375 73.296875 33 
Q 73.296875 16.203125 77.34375 7.453125 
Q 81.40625 -1.296875 89.90625 -10.296875 
L 86 -14.203125 
Q 76.40625 -4.796875 71.65625 6.25 
Q 66.90625 17.296875 66.90625 32.90625 
Q 66.90625 43.203125 72.046875 54.34375 
Q 77.203125 65.5 86.796875 74.09375 
z
" id="STXihei-65288"/>
      <path d="M 47.90625 62.203125 
Q 25.90625 62.203125 15.203125 61.40625 
L 15.203125 67.90625 
Q 23.703125 67.09375 51.046875 67.09375 
Q 78.40625 67.09375 86.203125 67.90625 
L 86.203125 61.40625 
Q 78.40625 62.203125 53.796875 62.203125 
Q 54.203125 46.90625 52.296875 35.40625 
Q 84.40625 35.40625 92.796875 36.203125 
L 92.796875 29.59375 
Q 84.90625 30.40625 55 30.40625 
Q 60.203125 17.90625 70.84375 7.34375 
Q 81.5 -3.203125 94.09375 -8.203125 
Q 90.09375 -9.90625 87.796875 -14.59375 
Q 57.59375 6.09375 50.59375 28.09375 
Q 47 14.59375 37.953125 4.296875 
Q 28.90625 -6 11.703125 -15.90625 
Q 10.09375 -12.59375 5.796875 -10.203125 
Q 22.40625 -2.796875 31.75 6.953125 
Q 41.09375 16.703125 44.796875 30.40625 
Q 18.5 30.40625 8.09375 29.59375 
L 8.09375 36.203125 
Q 15.90625 35.40625 46 35.40625 
Q 48.40625 46.796875 47.90625 62.203125 
z
" id="STXihei-22825"/>
      <path d="M 13.203125 74.09375 
Q 22.796875 65.5 27.9375 54.34375 
Q 33.09375 43.203125 33.09375 32.90625 
Q 33.09375 17.296875 28.34375 6.25 
Q 23.59375 -4.796875 14 -14.203125 
L 10.09375 -10.296875 
Q 18.59375 -1.296875 22.640625 7.453125 
Q 26.703125 16.203125 26.703125 33 
Q 26.703125 42.59375 22.5 51.6875 
Q 18.296875 60.796875 9.59375 70.59375 
z
" id="STXihei-65289"/>
     </defs>
     <g transform="translate(243.76 352.59875)scale(0.2 -0.2)">
      <use xlink:href="#STXihei-26102"/>
      <use x="99.999985" xlink:href="#STXihei-38388"/>
      <use x="199.999969" xlink:href="#STXihei-65288"/>
      <use x="299.999954" xlink:href="#STXihei-22825"/>
      <use x="399.999939" xlink:href="#STXihei-65289"/>
     </g>
    </g>
   </g>
   <g id="matplotlib.axis_2">
    <g id="ytick_1">
     <g id="line2d_8">
      <defs>
       <path d="M 0 0 
L -3.5 0 
" id="m9a012f934d" style="stroke:#000000;stroke-width:0.8;"/>
      </defs>
      <g>
       <use style="stroke:#000000;stroke-width:0.8;" x="69.12" xlink:href="#m9a012f934d" y="306"/>
      </g>
     </g>
     <g id="text_9">
      <!-- 0 -->
      <g transform="translate(53.255 311.8875)scale(0.16 -0.16)">
       <use xlink:href="#STXihei-48"/>
      </g>
     </g>
    </g>
    <g id="ytick_2">
     <g id="line2d_9">
      <g>
       <use style="stroke:#000000;stroke-width:0.8;" x="69.12" xlink:href="#m9a012f934d" y="252"/>
      </g>
     </g>
     <g id="text_10">
      <!-- 1 -->
      <g transform="translate(53.255 257.8875)scale(0.16 -0.16)">
       <use xlink:href="#STXihei-49"/>
      </g>
     </g>
    </g>
    <g id="ytick_3">
     <g id="line2d_10">
      <g>
       <use style="stroke:#000000;stroke-width:0.8;" x="69.12" xlink:href="#m9a012f934d" y="198"/>
      </g>
     </g>
     <g id="text_11">
      <!-- 2 -->
      <g transform="translate(53.255 203.8875)scale(0.16 -0.16)">
       <use xlink:href="#STXihei-50"/>
      </g>
     </g>
    </g>
    <g id="ytick_4">
     <g id="line2d_11">
      <g>
       <use style="stroke:#000000;stroke-width:0.8;" x="69.12" xlink:href="#m9a012f934d" y="144"/>
      </g>
     </g>
     <g id="text_12">
      <!-- 3 -->
      <g transform="translate(53.255 149.8875)scale(0.16 -0.16)">
       <use xlink:href="#STXihei-51"/>
      </g>
     </g>
    </g>
    <g id="ytick_5">
     <g id="line2d_12">
      <g>
       <use style="stroke:#000000;stroke-width:0.8;" x="69.12" xlink:href="#m9a012f934d" y="90"/>
      </g>
     </g>
     <g id="text_13">
      <!-- 4 -->
      <g transform="translate(53.255 95.8875)scale(0.16 -0.16)">
       <use xlink:href="#STXihei-52"/>
      </g>
     </g>
    </g>
    <g id="ytick_6">
     <g id="line2d_13">
      <g>
       <use style="stroke:#000000;stroke-width:0.8;" x="69.12" xlink:href="#m9a012f934d" y="36"/>
      </g>
     </g>
     <g id="text_14">
      <!-- 5 -->
      <defs>
       <path d="M 49.203125 71.796875 
L 49.203125 65 
L 23.59375 65 
L 20 45.40625 
Q 24.796875 46.796875 29 46.796875 
Q 38.40625 46.796875 44.703125 40.140625 
Q 51 33.5 51 23.296875 
Q 51 12.703125 44.140625 5.453125 
Q 37.296875 -1.796875 26 -1.796875 
Q 17.40625 -1.796875 11.34375 3.34375 
Q 5.296875 8.5 4.09375 17.40625 
L 11.40625 17.40625 
Q 12.703125 11.40625 16.796875 8.203125 
Q 20.90625 5 26.296875 5 
Q 33.40625 5 38.546875 10.296875 
Q 43.703125 15.59375 43.703125 23.5 
Q 43.703125 30.703125 39.203125 35.34375 
Q 34.703125 40 27 40 
Q 20.203125 40 11.40625 36.203125 
L 18.09375 71.796875 
z
" id="STXihei-53"/>
      </defs>
      <g transform="translate(53.255 41.8875)scale(0.16 -0.16)">
       <use xlink:href="#STXihei-53"/>
      </g>
     </g>
    </g>
    <g id="text_15">
     <!-- 感染者数量（%） -->
     <defs>
      <path d="M 82.40625 68 
L 77.703125 63.796875 
Q 74.5 68.90625 68.203125 72.09375 
L 72.40625 76.59375 
Q 78.796875 71.90625 82.40625 68 
z
M 56.59375 58.5 
L 19.203125 58.5 
Q 19.203125 40.703125 17.703125 30.84375 
Q 16.203125 21 11.5 11.203125 
Q 8.59375 13.40625 4.703125 14.203125 
Q 9.40625 20.296875 11.453125 28.25 
Q 13.5 36.203125 13.5 49 
Q 13.5 55.5 13 64 
Q 15.90625 63.296875 56.09375 63.296875 
Q 55.59375 68.796875 55.40625 76 
Q 58.5 74.90625 62.703125 74.90625 
Q 64.203125 74.90625 64.203125 74.046875 
Q 64.203125 73.203125 63.34375 72.59375 
Q 62.5 72 62.203125 71 
Q 61.90625 70 61.90625 68 
Q 61.90625 66 62 63.296875 
Q 84.40625 63.296875 87.90625 64 
L 87.90625 57.796875 
Q 80.296875 58.5 62.296875 58.5 
Q 63.5 46.59375 69.296875 34.90625 
Q 75.09375 42.90625 78.09375 51.59375 
Q 81.40625 49.09375 84.40625 48.09375 
Q 85.40625 47.796875 85.40625 47.140625 
Q 85.40625 46.5 83.796875 45.84375 
Q 82.203125 45.203125 79.796875 41.40625 
Q 75.59375 34.59375 72 30 
Q 75.703125 23.90625 78.703125 21.25 
Q 81.703125 18.59375 83.546875 18.59375 
Q 85.40625 18.59375 86.296875 20.84375 
Q 87.203125 23.09375 87.59375 27.703125 
Q 90 24.703125 93.59375 24.09375 
Q 92.40625 19.703125 90.453125 16.046875 
Q 88.5 12.40625 85.09375 12.40625 
Q 76.59375 12.40625 68.09375 25 
Q 62.796875 18.203125 55.90625 11.703125 
Q 53.90625 13.90625 50.09375 15.09375 
Q 57.203125 20.296875 65.296875 29.59375 
Q 58.90625 41.09375 56.59375 58.5 
z
M 23.5 51 
Q 29.09375 50.40625 38.796875 50.40625 
Q 48.5 50.40625 54 51 
L 54 45.203125 
Q 49.703125 45.796875 38.75 45.796875 
Q 27.796875 45.796875 23.5 45.203125 
z
M 52.40625 39 
Q 51.796875 33.59375 51.796875 28.4375 
Q 51.796875 23.296875 52.296875 18.796875 
Q 48.40625 19.203125 38.75 19.203125 
Q 29.09375 19.203125 24.90625 18.796875 
Q 25.59375 24.703125 25.59375 30 
Q 25.59375 35.296875 24.90625 39 
Q 30.40625 38.296875 38.59375 38.296875 
Q 46.796875 38.296875 52.40625 39 
z
M 46.40625 23.40625 
L 46.40625 34.09375 
L 31 34.09375 
L 31 23.40625 
z
M 59 4.09375 
L 54.59375 -0.203125 
Q 47.90625 7.09375 41.5 11.40625 
L 45.5 15.703125 
Q 52.703125 10.703125 59 4.09375 
z
M 74.5 -1.5 
Q 73.296875 -6.59375 71 -9.09375 
Q 68.703125 -11.59375 63.84375 -12.4375 
Q 59 -13.296875 48.140625 -13.296875 
Q 37.296875 -13.296875 34.140625 -12.640625 
Q 31 -12 29.84375 -10.09375 
Q 28.703125 -8.203125 28.703125 -4.40625 
L 28.703125 7.59375 
Q 28.703125 11.90625 28.296875 13.40625 
Q 31 12.5 35.40625 12.5 
Q 36.796875 12.5 36.796875 11.84375 
Q 36.796875 11.203125 35.75 10.25 
Q 34.703125 9.296875 34.703125 6.90625 
L 34.703125 -4 
Q 34.703125 -6.296875 37.046875 -7.1875 
Q 39.40625 -8.09375 48.59375 -8.09375 
Q 55.203125 -8.09375 59.890625 -7.34375 
Q 64.59375 -6.59375 66.296875 -4.6875 
Q 68 -2.796875 68.296875 2.703125 
Q 70.796875 -0.59375 74.5 -1.5 
z
M 23 9.296875 
Q 18.59375 -2.59375 12.5 -11.5 
L 6.296875 -8.296875 
Q 14.296875 0.09375 17.203125 11.40625 
z
M 93.90625 -5.90625 
L 88.5 -10.5 
Q 81.90625 -1 73.296875 5.90625 
L 77.703125 10.296875 
Q 86.5 3.40625 93.90625 -5.90625 
z
" id="STXihei-24863"/>
      <path d="M 61.5 56.40625 
Q 60.5 48.09375 55.640625 41.34375 
Q 50.796875 34.59375 40.90625 27.203125 
Q 39.09375 30.59375 34.90625 31.90625 
Q 53.703125 40.796875 56 56.09375 
Q 46.40625 55.703125 40.5 54.59375 
L 40.5 60.59375 
Q 43.5 60.40625 47.296875 60.40625 
Q 51.09375 60.40625 56.5 60.703125 
Q 56.703125 63.796875 56.703125 67.34375 
Q 56.703125 70.90625 55.796875 76.296875 
Q 58.40625 75.703125 63 75.703125 
Q 64.796875 75.703125 64.796875 74.890625 
Q 64.796875 74.09375 63.9375 73.1875 
Q 63.09375 72.296875 62.6875 70 
Q 62.296875 67.703125 61.90625 61 
Q 76 61.90625 81.59375 62.5 
L 79.796875 38 
Q 79.59375 35.09375 80.25 34.140625 
Q 80.90625 33.203125 83.59375 33.203125 
Q 86.296875 33.203125 87.75 34.640625 
Q 89.203125 36.09375 90 40.90625 
Q 91.796875 37.90625 95.296875 37.203125 
Q 93.796875 32.90625 92.4375 31.09375 
Q 91.09375 29.296875 88.890625 28.6875 
Q 86.703125 28.09375 81.953125 28.09375 
Q 77.203125 28.09375 75.703125 29.5 
Q 74.203125 30.90625 74.203125 34.5 
Q 74.203125 34.796875 74.40625 38 
L 75.59375 57.09375 
z
M 38.09375 63.59375 
L 34.796875 58.703125 
Q 27.59375 64.703125 17.5 69.703125 
L 20.40625 74.203125 
Q 29.703125 69.703125 38.09375 63.59375 
z
M 29.703125 51.703125 
L 26.703125 47.203125 
Q 20.40625 51.59375 9.90625 55.59375 
L 12.203125 60.296875 
Q 20.796875 56.90625 29.703125 51.703125 
z
M 38 42.296875 
Q 24.90625 34.59375 13 25.296875 
L 8.5 31.5 
Q 25.09375 38.203125 35 47.90625 
Q 35.796875 44.703125 38 42.296875 
z
M 54.203125 20.296875 
Q 81.296875 20.296875 94.796875 21.296875 
L 94.796875 14.796875 
Q 81.703125 15.59375 61.90625 15.5 
Q 77.203125 -0.40625 95.59375 -4.203125 
Q 92.40625 -6.5 91 -11.09375 
Q 67.796875 -0.5 56.703125 15.5 
L 54.203125 15.5 
L 54.203125 -6 
Q 54.203125 -11.796875 54.796875 -16.296875 
L 47.40625 -16.296875 
Q 48.203125 -11.203125 48.203125 -6 
L 48.203125 15.5 
L 46.296875 15.5 
Q 35.40625 -0.203125 11 -12.5 
Q 9.5 -9.5 5.296875 -6.296875 
Q 27.40625 -0.09375 40.40625 15.5 
Q 13.90625 15.5 6.796875 14.796875 
L 6.796875 21.296875 
Q 20.203125 20.296875 48.203125 20.296875 
Q 48 27.296875 47.59375 30.09375 
Q 51.40625 29.59375 54.296875 29.59375 
Q 57.203125 29.59375 57.203125 28.84375 
Q 57.203125 28.09375 55.703125 27.34375 
Q 54.203125 26.59375 54.203125 24.59375 
z
" id="STXihei-26579"/>
      <path d="M 45.703125 57.703125 
Q 27.796875 57.703125 17.796875 56.59375 
L 17.796875 63.5 
Q 26.5 62.5 45.703125 62.40625 
Q 45.703125 72.09375 45 76.59375 
Q 47.5 76 52.5 76 
Q 54.296875 76 54.296875 75.296875 
Q 54.296875 74.59375 53.046875 73.59375 
Q 51.796875 72.59375 51.796875 70.09375 
L 51.796875 62.40625 
Q 64.296875 62.5 74.796875 63.5 
L 74.796875 56.796875 
Q 81 63.203125 84.296875 70.09375 
Q 86.90625 66.90625 89.09375 65.796875 
Q 91.296875 64.703125 91.296875 63.59375 
Q 91.296875 62.5 89.390625 62.25 
Q 87.5 62 80.09375 54.75 
Q 72.703125 47.5 67.59375 42.90625 
Q 86.59375 43.40625 95.203125 44.09375 
L 95.203125 36.90625 
Q 82.203125 38 61.796875 38.09375 
Q 53.296875 31.296875 45.5 26.40625 
L 59.703125 26.40625 
Q 73.40625 26.40625 81.203125 27.296875 
Q 80.703125 24.40625 80.703125 19.59375 
L 80.703125 -5 
Q 80.703125 -9.5 81.296875 -15 
L 74.40625 -15 
L 74.40625 -9.203125 
L 35.40625 -9.203125 
L 35.40625 -16.203125 
L 28.796875 -16.203125 
Q 29.296875 -11.90625 29.296875 -6.203125 
L 29.296875 16.90625 
Q 19 11.296875 8.703125 6.796875 
Q 7.5 11.40625 3.296875 13.40625 
Q 14.703125 16.40625 29.203125 23.5 
Q 29.09375 25 28.703125 27.296875 
Q 31.5 26.90625 35.40625 26.796875 
Q 45.203125 32.09375 53.40625 38.203125 
L 32.5 38.203125 
Q 18.90625 38.203125 5.796875 36.90625 
L 5.796875 44.09375 
Q 22.5 42.90625 45.703125 42.796875 
z
M 74.59375 56.59375 
Q 64.203125 57.59375 51.796875 57.703125 
L 51.796875 42.796875 
L 59.203125 42.796875 
Q 69.796875 51.59375 74.59375 56.59375 
z
M 35.40625 12 
L 74.40625 12 
L 74.40625 21.5 
L 37.40625 21.5 
L 35.40625 20.296875 
z
M 74.40625 6.59375 
L 35.40625 6.59375 
L 35.40625 -4.703125 
L 74.40625 -4.703125 
z
" id="STXihei-32773"/>
      <path d="M 24.09375 49.296875 
Q 13.296875 49.296875 7.203125 48.59375 
L 7.203125 54.5 
Q 16.5 53.796875 28.703125 53.796875 
L 28.703125 64.5 
Q 28.703125 70 27.703125 74.90625 
Q 31.703125 74.5 34.140625 74.5 
Q 36.59375 74.5 36.59375 73.796875 
Q 36.59375 73.09375 35.796875 72.796875 
Q 34.40625 72.296875 34.40625 69.203125 
L 34.40625 53.796875 
Q 43.90625 53.90625 56 54.5 
L 56 48.59375 
Q 48.40625 49.296875 34.40625 49.296875 
Q 42.59375 43 50.203125 35.5 
L 45.796875 30.90625 
Q 40.5 37.5 34.40625 43.90625 
Q 34.59375 36 35.09375 30.5 
L 28 30.5 
Q 28.703125 37.59375 28.703125 47.90625 
Q 21.203125 34.703125 9.796875 25.40625 
Q 8.40625 27.59375 5.296875 29.40625 
Q 17.296875 38.09375 24.09375 49.296875 
z
M 74.203125 12.40625 
Q 79.90625 23.796875 80.90625 48.796875 
L 64.59375 48.796875 
Q 60.796875 36.90625 55.90625 28.703125 
Q 54.90625 29.09375 53.09375 30.09375 
Q 51.296875 31.09375 50.09375 31.5 
Q 55.40625 37.90625 59.203125 50.046875 
Q 63 62.203125 63.703125 74.703125 
Q 67.796875 73 72 73 
Q 73.296875 73 73.296875 71.84375 
Q 73.296875 70.703125 72.046875 69.953125 
Q 70.796875 69.203125 69.84375 67.296875 
Q 68.90625 65.40625 66.09375 53.90625 
L 83.09375 53.90625 
Q 91.40625 53.90625 95.40625 54.703125 
L 95.40625 48.09375 
Q 92.40625 48.703125 86.59375 48.703125 
Q 84.59375 19.203125 77.40625 7.09375 
Q 85.09375 -3.703125 96.703125 -8 
Q 93.796875 -10.59375 91.90625 -14.203125 
Q 82 -7.09375 74.296875 2.59375 
Q 66.09375 -7.703125 50.90625 -16.296875 
Q 49.203125 -13.90625 45.296875 -10.703125 
Q 52.203125 -8.703125 59.296875 -3.796875 
Q 66.40625 1.09375 70.90625 7 
Q 64.203125 17.09375 60.796875 32.703125 
L 66.40625 34.203125 
Q 66.796875 24.90625 74.203125 12.40625 
z
M 47.296875 71.703125 
Q 50 69.40625 51.703125 68.546875 
Q 53.40625 67.703125 53.40625 66.796875 
Q 53.40625 65.90625 52.25 65.59375 
Q 51.09375 65.296875 49.25 63.34375 
Q 47.40625 61.40625 43.203125 55.59375 
Q 41.59375 56.703125 38.59375 57.703125 
Q 44.59375 64.09375 47.296875 71.703125 
z
M 23.796875 59.203125 
L 18.703125 56.203125 
Q 14.796875 63.203125 10.796875 67.90625 
L 15.09375 70.5 
Q 20 65 23.796875 59.203125 
z
M 41.5 1.40625 
Q 47.5 -1 52.5 -3.5 
Q 50.40625 -5.296875 48.5 -8.5 
Q 43 -5.09375 37.296875 -2.59375 
Q 29.703125 -8.90625 11.703125 -14.203125 
Q 11 -10.796875 8.203125 -7.703125 
Q 23 -6 31.59375 -0.203125 
Q 23.09375 3 14.703125 4.703125 
Q 18.90625 10.5 21.796875 15.703125 
Q 12.90625 15.59375 7.296875 14.90625 
L 7.296875 20.90625 
Q 12.703125 20.5 24.09375 20.296875 
Q 25.90625 23.90625 27.90625 29.90625 
Q 31.203125 28.296875 33.34375 27.84375 
Q 35.5 27.40625 35.5 26.546875 
Q 35.5 25.703125 34.046875 25 
Q 32.59375 24.296875 30.09375 20.296875 
L 44.296875 20.296875 
Q 49.296875 20.296875 52.203125 21 
Q 47.203125 7.796875 41.5 1.40625 
z
M 27.59375 15.703125 
L 23.203125 7.5 
Q 29.703125 5.796875 36 3.40625 
Q 40.796875 8.203125 43.5 15.703125 
z
" id="STXihei-25968"/>
      <path d="M 81.203125 46.796875 
Q 78.296875 47.296875 50 47.296875 
Q 21.703125 47.296875 18.796875 46.796875 
Q 19.296875 53.59375 19.296875 58.75 
Q 19.296875 63.90625 18.796875 70.09375 
Q 21.796875 69.40625 49.390625 69.40625 
Q 77 69.40625 81.09375 70.09375 
Q 80.90625 62.796875 80.90625 57.796875 
Q 80.90625 52.796875 81.203125 46.796875 
z
M 75.09375 59.703125 
L 75.09375 65.5 
L 25.09375 65.5 
L 25.09375 59.703125 
z
M 25.09375 56.09375 
L 25.09375 50.90625 
L 75.09375 50.90625 
L 75.09375 56.09375 
z
M 94.5 38.203125 
Q 77.203125 39 47.75 39 
Q 18.296875 39 4.703125 38.203125 
L 4.703125 44 
Q 23.5 43.296875 49.546875 43.296875 
Q 75.59375 43.296875 94.5 44 
z
M 52.90625 -0.40625 
L 52.90625 -9 
Q 75.90625 -9 92.40625 -8 
L 92.40625 -14.203125 
Q 78.40625 -13.09375 49.703125 -13.09375 
Q 21 -13.09375 7.296875 -14.203125 
L 7.296875 -8 
Q 23.90625 -9 47.203125 -9 
L 47.203125 -0.40625 
Q 26.59375 -0.40625 14.5 -1.59375 
L 14.5 4.90625 
Q 28.40625 3.703125 47.203125 3.703125 
L 47.203125 10.09375 
Q 23.59375 10 18.09375 9.203125 
Q 18.5 15.296875 18.5 20.546875 
Q 18.5 25.796875 18.09375 35.5 
Q 23.296875 34.296875 49.1875 34.296875 
Q 75.09375 34.296875 82 35.5 
Q 81.59375 25.90625 81.59375 20.296875 
Q 81.59375 14.703125 82.09375 9.203125 
Q 77.90625 10.09375 52.90625 10.09375 
L 52.90625 3.703125 
Q 73.5 3.796875 84.90625 4.90625 
L 84.90625 -1.59375 
Q 73.5 -0.5 52.90625 -0.40625 
z
M 75.59375 23.90625 
L 75.59375 30.09375 
L 52.90625 30.09375 
L 52.90625 23.90625 
z
M 47.203125 23.90625 
L 47.203125 30.09375 
L 24.296875 30.09375 
L 24.296875 23.90625 
z
M 52.90625 20.296875 
L 52.90625 14.40625 
L 75.59375 14.40625 
L 75.59375 20.296875 
z
M 24.296875 20.296875 
L 24.296875 14.40625 
L 47.203125 14.40625 
L 47.203125 20.296875 
z
" id="STXihei-37327"/>
      <path d="M 67.40625 75 
L 15.09375 -5 
L 8.59375 -5 
L 56.296875 67.90625 
Q 50.5 66.5 44.453125 66.09375 
Q 38.40625 65.703125 35.59375 65.796875 
L 33 65.90625 
Q 36 61.703125 36 57 
Q 36 49.796875 31.140625 44.75 
Q 26.296875 39.703125 19 39.703125 
Q 12 39.703125 7.09375 44.59375 
Q 2.203125 49.5 2.203125 56.59375 
Q 2.203125 63.703125 7.25 68.59375 
Q 12.296875 73.5 18.90625 73.5 
Q 21.59375 73.5 25 72.796875 
Q 31.59375 71.40625 38.90625 71.40625 
Q 50.5 71.40625 61.703125 75 
z
M 29.90625 56.703125 
Q 29.90625 61.203125 26.75 64.296875 
Q 23.59375 67.40625 19.09375 67.40625 
Q 14.703125 67.40625 11.546875 64.25 
Q 8.40625 61.09375 8.40625 56.703125 
Q 8.40625 52.296875 11.546875 49.140625 
Q 14.703125 46 19.09375 46 
Q 23.59375 46 26.75 49.09375 
Q 29.90625 52.203125 29.90625 56.703125 
z
M 41.5 14.796875 
Q 41.5 21.703125 46.453125 26.703125 
Q 51.40625 31.703125 58.296875 31.703125 
Q 65.296875 31.703125 70.25 26.75 
Q 75.203125 21.796875 75.203125 14.796875 
Q 75.203125 7.796875 70.25 2.84375 
Q 65.296875 -2.09375 58.296875 -2.09375 
Q 51.40625 -2.09375 46.453125 2.84375 
Q 41.5 7.796875 41.5 14.796875 
z
M 69.09375 14.796875 
Q 69.09375 19.203125 65.9375 22.34375 
Q 62.796875 25.5 58.296875 25.5 
Q 53.90625 25.5 50.796875 22.34375 
Q 47.703125 19.203125 47.703125 14.796875 
Q 47.703125 10.40625 50.796875 7.25 
Q 53.90625 4.09375 58.296875 4.09375 
Q 62.796875 4.09375 65.9375 7.1875 
Q 69.09375 10.296875 69.09375 14.796875 
z
" id="STXihei-37"/>
     </defs>
     <g transform="translate(34.37375 248.75)rotate(-90)scale(0.2 -0.2)">
      <use xlink:href="#STXihei-24863"/>
      <use x="99.999985" xlink:href="#STXihei-26579"/>
      <use x="199.999969" xlink:href="#STXihei-32773"/>
      <use x="299.999954" xlink:href="#STXihei-25968"/>
      <use x="399.999939" xlink:href="#STXihei-37327"/>
      <use x="499.999924" xlink:href="#STXihei-65288"/>
      <use x="599.999908" xlink:href="#STXihei-37"/>
      <use x="677.499893" xlink:href="#STXihei-65289"/>
     </g>
    </g>
   </g>
   <g id="line2d_14">
    <path clip-path="url(#p60893dbcb6)" d="M 89.541818 305.945946 
L 92.815857 305.987892 
L 191.855537 305.799785 
L 224.595926 305.508544 
L 246.69569 305.10325 
L 263.884394 304.575687 
L 277.79906 303.939044 
L 290.076706 303.160671 
L 300.717333 302.273651 
L 310.53945 301.240687 
L 319.543057 300.084264 
L 328.546664 298.706221 
L 337.550271 297.096504 
L 346.553879 295.262897 
L 357.194505 292.856754 
L 384.205327 286.583615 
L 390.753405 285.345895 
L 396.482973 284.45974 
L 402.212541 283.797475 
L 407.1236 283.431424 
L 412.034658 283.265047 
L 416.945717 283.303966 
L 421.856775 283.54645 
L 427.586344 284.074446 
L 433.315912 284.841791 
L 439.86399 285.966971 
L 447.230578 287.474635 
L 457.052694 289.727157 
L 479.152458 294.868413 
L 488.974575 296.882127 
L 497.978182 298.50179 
L 497.978182 298.50179 
" style="fill:none;stroke:#1f77b4;stroke-linecap:square;stroke-width:1.5;"/>
   </g>
   <g id="line2d_15">
    <path clip-path="url(#p60893dbcb6)" d="M 89.541818 305.945946 
L 92.815857 305.984 
L 123.100718 305.825082 
L 135.378364 305.549841 
L 143.563461 305.155142 
L 149.29303 304.688443 
L 154.204088 304.089313 
L 158.296637 303.387913 
L 161.570676 302.648027 
L 164.844715 301.702305 
L 168.118754 300.495504 
L 170.574283 299.378972 
L 173.029812 298.043631 
L 175.485342 296.44959 
L 177.940871 294.552092 
L 180.3964 292.299785 
L 182.851929 289.63678 
L 185.307459 286.50167 
L 187.762988 282.830456 
L 190.218517 278.558814 
L 192.674046 273.62653 
L 195.129576 267.983223 
L 197.585105 261.596788 
L 200.040634 254.463224 
L 202.496163 246.618205 
L 205.770202 235.21354 
L 210.681261 216.960064 
L 213.9553 205.009241 
L 216.410829 196.788226 
L 218.047848 191.892157 
L 219.684868 187.605705 
L 221.321887 184.041842 
L 222.958907 181.297107 
L 223.777417 180.257115 
L 224.595926 179.448689 
L 225.414436 178.877775 
L 226.232946 178.548156 
L 227.051456 178.46167 
L 227.869965 178.618534 
L 228.688475 179.017125 
L 229.506985 179.653769 
L 230.325495 180.523275 
L 231.144004 181.618618 
L 232.781024 184.451568 
L 234.418043 188.068512 
L 236.055063 192.367937 
L 237.692082 197.235898 
L 240.147612 205.343293 
L 244.24016 220.029229 
L 249.151219 237.666169 
L 252.425258 248.532136 
L 254.880787 255.970671 
L 257.336316 262.72413 
L 259.791846 268.77219 
L 262.247375 274.126634 
L 264.702904 278.821515 
L 267.158433 282.904834 
L 269.613962 286.432049 
L 272.069492 289.461754 
L 274.525021 292.051679 
L 276.98055 294.256743 
L 279.436079 296.127971 
L 281.891609 297.711418 
L 284.347138 299.048056 
L 286.802667 300.174425 
L 290.076706 301.402848 
L 293.350745 302.375813 
L 297.443294 303.31094 
L 301.535843 304.006719 
L 306.446901 304.609417 
L 312.176469 305.087251 
L 319.543057 305.46941 
L 329.365174 305.742705 
L 344.098349 305.91319 
L 374.38321 305.990703 
L 497.978182 306 
L 497.978182 306 
" style="fill:none;stroke:#ff7f0e;stroke-linecap:square;stroke-width:1.5;"/>
   </g>
   <g id="line2d_16">
    <path clip-path="url(#p60893dbcb6)" d="M 89.541818 305.945946 
L 92.815857 305.979676 
L 110.823072 305.817083 
L 118.189659 305.556977 
L 123.100718 305.201087 
L 127.193267 304.694713 
L 130.467306 304.067475 
L 132.922835 303.407372 
L 135.378364 302.523704 
L 137.833893 301.341443 
L 139.470913 300.340262 
L 141.107932 299.127082 
L 142.744952 297.658553 
L 144.381971 295.883108 
L 146.018991 293.739882 
L 147.65601 291.157632 
L 149.29303 288.053333 
L 150.930049 284.331741 
L 152.567069 279.884642 
L 154.204088 274.591927 
L 155.841108 268.323437 
L 157.478127 260.942523 
L 159.115147 252.313511 
L 160.752166 242.310672 
L 162.389186 230.834332 
L 164.026205 217.829247 
L 165.663225 203.309039 
L 168.118754 178.962855 
L 171.392793 143.336654 
L 174.666832 108.201152 
L 176.303851 92.762032 
L 177.940871 79.896621 
L 178.759381 74.681528 
L 179.57789 70.394319 
L 180.3964 67.1044 
L 181.21491 64.86539 
L 182.03342 63.711454 
L 182.851929 63.657833 
L 183.670439 64.699662 
L 184.488949 66.811645 
L 185.307459 69.950755 
L 186.125968 74.056452 
L 186.944478 79.054574 
L 188.581498 91.373178 
L 190.218517 106.12906 
L 192.674046 131.038158 
L 197.585105 182.062182 
L 200.040634 204.859945 
L 201.677653 218.45789 
L 203.314673 230.679198 
L 204.951692 241.525597 
L 206.588712 251.051467 
L 208.225731 259.344266 
L 209.862751 266.510587 
L 211.49977 272.665348 
L 213.13679 277.924333 
L 214.773809 282.398351 
L 216.410829 286.191186 
L 218.047848 289.396782 
L 219.684868 292.099138 
L 221.321887 294.372526 
L 222.958907 296.281808 
L 224.595926 297.88266 
L 226.232946 299.223838 
L 227.869965 300.345883 
L 230.325495 301.693332 
L 232.781024 302.721864 
L 235.236553 303.506074 
L 238.510592 304.268771 
L 241.784631 304.799037 
L 245.87718 305.239682 
L 251.606748 305.599463 
L 259.791846 305.839677 
L 272.888001 305.963027 
L 311.35796 305.999568 
L 497.978182 306 
L 497.978182 306 
" style="fill:none;stroke:#2ca02c;stroke-linecap:square;stroke-width:1.5;"/>
   </g>
   <g id="patch_3">
    <path d="M 69.12 306 
L 69.12 36 
" style="fill:none;stroke:#000000;stroke-linecap:square;stroke-linejoin:miter;stroke-width:0.8;"/>
   </g>
   <g id="patch_4">
    <path d="M 518.4 306 
L 518.4 36 
" style="fill:none;stroke:#000000;stroke-linecap:square;stroke-linejoin:miter;stroke-width:0.8;"/>
   </g>
   <g id="patch_5">
    <path d="M 69.12 306 
L 518.4 306 
" style="fill:none;stroke:#000000;stroke-linecap:square;stroke-linejoin:miter;stroke-width:0.8;"/>
   </g>
   <g id="patch_6">
    <path d="M 69.12 36 
L 518.4 36 
" style="fill:none;stroke:#000000;stroke-linecap:square;stroke-linejoin:miter;stroke-width:0.8;"/>
   </g>
   <g id="legend_1">
    <g id="patch_7">
     <path d="M 391.08375 127.62 
L 505.8 127.62 
Q 509.4 127.62 509.4 124.02 
L 509.4 48.6 
Q 509.4 45 505.8 45 
L 391.08375 45 
Q 387.48375 45 387.48375 48.6 
L 387.48375 124.02 
Q 387.48375 127.62 391.08375 127.62 
z
" style="fill:#ffffff;opacity:0.8;stroke:#cccccc;stroke-linejoin:miter;"/>
    </g>
    <g id="line2d_17">
     <path d="M 394.68375 59.146875 
L 430.68375 59.146875 
" style="fill:none;stroke:#1f77b4;stroke-linecap:square;stroke-width:1.5;"/>
    </g>
    <g id="line2d_18"/>
    <g id="text_16">
     <!-- p = 0.1 -->
     <defs>
      <path d="M 7.703125 53.09375 
L 14.5 53.09375 
L 14.5 43.40625 
Q 22.59375 54.5 35.59375 54.5 
Q 46.796875 54.5 54.890625 46.25 
Q 63 38 63 26.5 
Q 63 14.796875 55 6.5 
Q 47 -1.796875 35.796875 -1.796875 
Q 23.59375 -1.796875 14.5 9.09375 
L 14.5 -19.40625 
L 7.703125 -19.40625 
z
M 56.203125 26.296875 
Q 56.203125 35.203125 50.046875 41.546875 
Q 43.90625 47.90625 35.09375 47.90625 
Q 26.09375 47.90625 20.046875 41.65625 
Q 14 35.40625 14 26.296875 
Q 14 17 20.203125 10.75 
Q 26.40625 4.5 35.203125 4.5 
Q 43.703125 4.5 49.953125 10.84375 
Q 56.203125 17.203125 56.203125 26.296875 
z
" id="STXihei-112"/>
      <path id="STXihei-32"/>
      <path d="M 55 50 
L 55 43.296875 
L 5.59375 43.296875 
L 5.59375 50 
z
M 55 28.5 
L 55 21.796875 
L 5.59375 21.796875 
L 5.59375 28.5 
z
" id="STXihei-61"/>
      <path d="M 9.09375 4.703125 
Q 9.09375 7.203125 10.890625 8.953125 
Q 12.703125 10.703125 15.09375 10.703125 
Q 17.59375 10.703125 19.34375 8.953125 
Q 21.09375 7.203125 21.09375 4.703125 
Q 21.09375 2.09375 19.34375 0.34375 
Q 17.59375 -1.40625 15.09375 -1.40625 
Q 12.703125 -1.40625 10.890625 0.390625 
Q 9.09375 2.203125 9.09375 4.703125 
z
" id="STXihei-46"/>
     </defs>
     <g transform="translate(445.08375 65.446875)scale(0.18 -0.18)">
      <use xlink:href="#STXihei-112"/>
      <use x="68.199982" xlink:href="#STXihei-32"/>
      <use x="93.199966" xlink:href="#STXihei-61"/>
      <use x="153.799957" xlink:href="#STXihei-32"/>
      <use x="178.799942" xlink:href="#STXihei-48"/>
      <use x="234.199936" xlink:href="#STXihei-46"/>
      <use x="261.899933" xlink:href="#STXihei-49"/>
     </g>
    </g>
    <g id="line2d_19">
     <path d="M 394.68375 84.886875 
L 430.68375 84.886875 
" style="fill:none;stroke:#ff7f0e;stroke-linecap:square;stroke-width:1.5;"/>
    </g>
    <g id="line2d_20"/>
    <g id="text_17">
     <!-- p = 0.5 -->
     <g transform="translate(445.08375 91.186875)scale(0.18 -0.18)">
      <use xlink:href="#STXihei-112"/>
      <use x="68.199982" xlink:href="#STXihei-32"/>
      <use x="93.199966" xlink:href="#STXihei-61"/>
      <use x="153.799957" xlink:href="#STXihei-32"/>
      <use x="178.799942" xlink:href="#STXihei-48"/>
      <use x="234.199936" xlink:href="#STXihei-46"/>
      <use x="261.899933" xlink:href="#STXihei-53"/>
     </g>
    </g>
    <g id="line2d_21">
     <path d="M 394.68375 110.626875 
L 430.68375 110.626875 
" style="fill:none;stroke:#2ca02c;stroke-linecap:square;stroke-width:1.5;"/>
    </g>
    <g id="line2d_22"/>
    <g id="text_18">
     <!-- p = 0.9 -->
     <defs>
      <path d="M 19.203125 -1.796875 
L 13.296875 2 
L 32.703125 31.40625 
Q 28.90625 30.09375 25.203125 30.09375 
Q 16.59375 30.09375 10.75 36.296875 
Q 4.90625 42.5 4.90625 51.5 
Q 4.90625 61 11.40625 67.296875 
Q 17.90625 73.59375 27.296875 73.59375 
Q 36.796875 73.59375 42.9375 67.140625 
Q 49.09375 60.703125 49.09375 51.703125 
Q 49.09375 46.703125 47.046875 41.640625 
Q 45 36.59375 41 30.703125 
z
M 11.90625 51.5 
Q 11.90625 45.203125 16.296875 40.796875 
Q 20.703125 36.40625 27 36.40625 
Q 33.296875 36.40625 37.6875 40.84375 
Q 42.09375 45.296875 42.09375 51.5 
Q 42.09375 57.703125 37.6875 62.140625 
Q 33.296875 66.59375 27 66.59375 
Q 20.703125 66.59375 16.296875 62.1875 
Q 11.90625 57.796875 11.90625 51.5 
z
" id="STXihei-57"/>
     </defs>
     <g transform="translate(445.08375 116.926875)scale(0.18 -0.18)">
      <use xlink:href="#STXihei-112"/>
      <use x="68.199982" xlink:href="#STXihei-32"/>
      <use x="93.199966" xlink:href="#STXihei-61"/>
      <use x="153.799957" xlink:href="#STXihei-32"/>
      <use x="178.799942" xlink:href="#STXihei-48"/>
      <use x="234.199936" xlink:href="#STXihei-46"/>
      <use x="261.899933" xlink:href="#STXihei-57"/>
     </g>
    </g>
   </g>
  </g>
 </g>
 <defs>
  <clipPath id="p60893dbcb6">
   <rect height="270" width="449.28" x="69.12" y="36"/>
  </clipPath>
 </defs>
</svg>
