<?xml version="1.0" encoding="utf-8" standalone="no"?>
<!DOCTYPE svg PUBLIC "-//W3C//DTD SVG 1.1//EN"
  "http://www.w3.org/Graphics/SVG/1.1/DTD/svg11.dtd">
<!-- Created with matplotlib (https://matplotlib.org/) -->
<svg height="288pt" version="1.1" viewBox="0 0 576 288" width="576pt" xmlns="http://www.w3.org/2000/svg" xmlns:xlink="http://www.w3.org/1999/xlink">
 <defs>
  <style type="text/css">
*{stroke-linecap:butt;stroke-linejoin:round;}
  </style>
 </defs>
 <g id="figure_1">
  <g id="patch_1">
   <path d="M 0 288 
L 576 288 
L 576 0 
L 0 0 
z
" style="fill:#ffffff;"/>
  </g>
  <g id="axes_1">
   <g id="patch_2">
    <path d="M 57.6 244.8 
L 253.963636 244.8 
L 253.963636 43.2 
L 57.6 43.2 
z
" style="fill:#ffffff;"/>
   </g>
   <g id="matplotlib.axis_1">
    <g id="xtick_1">
     <g id="line2d_1">
      <defs>
       <path d="M 0 0 
L 0 3.5 
" id="ma08f1c91fb" style="stroke:#000000;stroke-width:0.8;"/>
      </defs>
      <g>
       <use style="stroke:#000000;stroke-width:0.8;" x="57.6" xlink:href="#ma08f1c91fb" y="244.8"/>
      </g>
     </g>
     <g id="text_1">
      <!-- 0 -->
      <defs>
       <path d="M 27.296875 -1.796875 
Q 15.703125 -1.796875 9.453125 7.75 
Q 3.203125 17.296875 3.203125 35.90625 
Q 3.203125 54.5 9.453125 64.046875 
Q 15.703125 73.59375 27.296875 73.59375 
Q 38.703125 73.59375 45.453125 63.84375 
Q 52.203125 54.09375 52.203125 35.90625 
Q 52.203125 17.703125 45.390625 7.953125 
Q 38.59375 -1.796875 27.296875 -1.796875 
z
M 27.5 66.796875 
Q 19.203125 66.796875 14.59375 58.796875 
Q 10 50.796875 10 35.703125 
Q 10 4.703125 27.5 4.703125 
Q 36 4.703125 40.75 12.84375 
Q 45.5 21 45.5 35.703125 
Q 45.5 50.796875 40.59375 58.796875 
Q 35.703125 66.796875 27.5 66.796875 
z
" id="STXihei-48"/>
      </defs>
      <g transform="translate(54.829687 259.159375)scale(0.1 -0.1)">
       <use xlink:href="#STXihei-48"/>
      </g>
     </g>
    </g>
    <g id="xtick_2">
     <g id="line2d_2">
      <g>
       <use style="stroke:#000000;stroke-width:0.8;" x="113.703896" xlink:href="#ma08f1c91fb" y="244.8"/>
      </g>
     </g>
     <g id="text_2">
      <!-- 200 -->
      <defs>
       <path d="M 11.59375 49.296875 
L 4.703125 49.296875 
Q 5.203125 60.296875 12 66.9375 
Q 18.796875 73.59375 28.59375 73.59375 
Q 38.09375 73.59375 44.4375 67.34375 
Q 50.796875 61.09375 50.796875 52.09375 
Q 50.796875 45.40625 47.25 39.703125 
Q 43.703125 34 36.5 26.203125 
L 18.59375 6.90625 
L 51.796875 6.90625 
L 51.796875 0 
L 3 0 
L 30.40625 29.59375 
Q 37.59375 37.40625 40.6875 41.90625 
Q 43.796875 46.40625 43.796875 52 
Q 43.796875 58 39.25 62.390625 
Q 34.703125 66.796875 28.203125 66.796875 
Q 21.203125 66.796875 16.75 62.25 
Q 12.296875 57.703125 11.59375 49.296875 
z
" id="STXihei-50"/>
      </defs>
      <g transform="translate(105.392959 259.159375)scale(0.1 -0.1)">
       <use xlink:href="#STXihei-50"/>
       <use x="55.399994" xlink:href="#STXihei-48"/>
       <use x="110.799988" xlink:href="#STXihei-48"/>
      </g>
     </g>
    </g>
    <g id="xtick_3">
     <g id="line2d_3">
      <g>
       <use style="stroke:#000000;stroke-width:0.8;" x="169.807792" xlink:href="#ma08f1c91fb" y="244.8"/>
      </g>
     </g>
     <g id="text_3">
      <!-- 400 -->
      <defs>
       <path d="M 42.59375 73.59375 
L 44 73.59375 
L 44 23.59375 
L 52.703125 23.59375 
L 52.703125 16.703125 
L 44 16.703125 
L 44 0 
L 36.90625 0 
L 36.90625 16.703125 
L 2.5 16.703125 
z
M 36.90625 23.59375 
L 36.90625 53.5 
L 15.703125 23.59375 
z
" id="STXihei-52"/>
      </defs>
      <g transform="translate(161.496855 259.159375)scale(0.1 -0.1)">
       <use xlink:href="#STXihei-52"/>
       <use x="55.399994" xlink:href="#STXihei-48"/>
       <use x="110.799988" xlink:href="#STXihei-48"/>
      </g>
     </g>
    </g>
    <g id="xtick_4">
     <g id="line2d_4">
      <g>
       <use style="stroke:#000000;stroke-width:0.8;" x="225.911688" xlink:href="#ma08f1c91fb" y="244.8"/>
      </g>
     </g>
     <g id="text_4">
      <!-- 600 -->
      <defs>
       <path d="M 36.703125 73.59375 
L 42.59375 69.796875 
L 23.203125 40.40625 
Q 27.296875 41.796875 31 41.796875 
Q 39 41.796875 45 35.4375 
Q 51 29.09375 51 20.09375 
Q 51 10.796875 44.453125 4.5 
Q 37.90625 -1.796875 28.5 -1.796875 
Q 19.203125 -1.796875 12.953125 4.59375 
Q 6.703125 11 6.703125 20.203125 
Q 6.703125 24.59375 8.390625 29.25 
Q 10.09375 33.90625 14.90625 41.09375 
z
M 43.90625 20.296875 
Q 43.90625 26.59375 39.5 31 
Q 35.09375 35.40625 28.796875 35.40625 
Q 22.5 35.40625 18.09375 31 
Q 13.703125 26.59375 13.703125 20.296875 
Q 13.703125 14 18.140625 9.59375 
Q 22.59375 5.203125 28.796875 5.203125 
Q 35 5.203125 39.453125 9.59375 
Q 43.90625 14 43.90625 20.296875 
z
" id="STXihei-54"/>
      </defs>
      <g transform="translate(217.600751 259.159375)scale(0.1 -0.1)">
       <use xlink:href="#STXihei-54"/>
       <use x="55.399994" xlink:href="#STXihei-48"/>
       <use x="110.799988" xlink:href="#STXihei-48"/>
      </g>
     </g>
    </g>
    <g id="text_5">
     <!-- 时间（天） -->
     <defs>
      <path d="M 74.59375 51.09375 
Q 74.59375 70.59375 73.5 76 
Q 76.09375 75.296875 81.296875 75.296875 
Q 83 75.296875 83 74.5 
Q 83 73.703125 81.84375 73.046875 
Q 80.703125 72.40625 80.703125 69.09375 
L 80.703125 51.09375 
Q 89.09375 51.203125 96 51.90625 
L 96 45.203125 
Q 90.59375 45.90625 80.703125 45.90625 
L 80.703125 -3.703125 
Q 80.703125 -8.40625 79.25 -10.90625 
Q 77.796875 -13.40625 73.296875 -14.59375 
Q 68.796875 -15.796875 59.5 -15.796875 
Q 59.5 -11.09375 55.90625 -7.296875 
Q 62.59375 -8.40625 66.640625 -8.40625 
Q 70.703125 -8.40625 72.640625 -6.796875 
Q 74.59375 -5.203125 74.59375 -0.296875 
L 74.59375 46 
L 61.796875 46 
Q 50.90625 46 42.90625 45.203125 
L 42.90625 51.90625 
Q 50.796875 51.09375 61.796875 51.09375 
z
M 15.09375 4.203125 
L 15.09375 -7.59375 
L 8.296875 -7.59375 
Q 9 -1.90625 9 6.703125 
L 9 56.59375 
Q 9 64.59375 8.40625 67.703125 
Q 11.59375 66.90625 24.75 66.90625 
Q 37.90625 66.90625 41.09375 67.703125 
Q 40.5 65.09375 40.5 56.59375 
L 40.5 8.09375 
Q 40.5 1.703125 41.203125 -5.09375 
L 34.296875 -5.09375 
L 34.296875 4.203125 
z
M 34.296875 37.296875 
L 34.296875 61.796875 
L 15.09375 61.796875 
L 15.09375 37.296875 
z
M 34.296875 8.90625 
L 34.296875 32.59375 
L 15.09375 32.59375 
L 15.09375 8.90625 
z
M 68.09375 16.796875 
L 62.296875 13 
Q 57.296875 23.40625 48.296875 32.90625 
L 53.40625 36.296875 
Q 62.796875 25.296875 68.09375 16.796875 
z
" id="STXihei-26102"/>
      <path d="M 34 62.59375 
L 29 57.796875 
Q 24.203125 64.90625 14.796875 71.40625 
L 18.59375 75.796875 
Q 27.796875 69.09375 34 62.59375 
z
M 87.90625 67.703125 
Q 87.203125 64.09375 87.203125 56.40625 
L 87.203125 -4.703125 
Q 87.203125 -9.796875 86.046875 -12.140625 
Q 84.90625 -14.5 81.84375 -15.34375 
Q 78.796875 -16.203125 72.09375 -16.40625 
Q 72.40625 -12.296875 69.40625 -8.90625 
Q 74 -9.703125 76.5 -9.703125 
Q 79 -9.703125 80.140625 -8.796875 
Q 81.296875 -7.90625 81.296875 -5 
L 81.296875 61.796875 
L 62.203125 61.796875 
Q 51.5 61.796875 43.796875 61.203125 
L 43.796875 67.59375 
Q 51.296875 67 66.6875 67 
Q 82.09375 67 87.90625 67.703125 
z
M 11.796875 58 
Q 14.296875 57.09375 15.1875 56.9375 
Q 16.09375 56.796875 18.4375 56.796875 
Q 20.796875 56.796875 20.796875 56.046875 
Q 20.796875 55.296875 19.296875 54.09375 
Q 18.90625 53.796875 18.5 51.796875 
Q 18.09375 49.796875 18.09375 47.5 
L 18.09375 -16.296875 
L 11.296875 -16.296875 
Q 12.296875 -7.296875 12.296875 -2.40625 
L 12.296875 45.40625 
Q 12.296875 51.90625 11.796875 58 
z
M 68.703125 2.59375 
Q 63.203125 3.296875 49.140625 3.296875 
Q 35.09375 3.296875 29.703125 2.59375 
Q 30 7.09375 30 8.796875 
L 30 41.5 
Q 30 44.5 29.703125 47.703125 
Q 35 47 49.09375 47 
Q 63.203125 47 68.703125 47.703125 
Q 68.40625 45.203125 68.40625 41.5 
L 68.40625 8.796875 
Q 68.40625 5.203125 68.703125 2.59375 
z
M 62.59375 27.296875 
L 62.59375 42.203125 
L 35.59375 42.203125 
L 35.59375 27.296875 
z
M 35.59375 22.59375 
L 35.59375 7.796875 
L 62.59375 7.796875 
L 62.59375 22.59375 
z
" id="STXihei-38388"/>
      <path d="M 90.40625 70.59375 
Q 81.703125 60.796875 77.5 51.6875 
Q 73.296875 42.59375 73.296875 33 
Q 73.296875 16.203125 77.34375 7.453125 
Q 81.40625 -1.296875 89.90625 -10.296875 
L 86 -14.203125 
Q 76.40625 -4.796875 71.65625 6.25 
Q 66.90625 17.296875 66.90625 32.90625 
Q 66.90625 43.203125 72.046875 54.34375 
Q 77.203125 65.5 86.796875 74.09375 
z
" id="STXihei-65288"/>
      <path d="M 47.90625 62.203125 
Q 25.90625 62.203125 15.203125 61.40625 
L 15.203125 67.90625 
Q 23.703125 67.09375 51.046875 67.09375 
Q 78.40625 67.09375 86.203125 67.90625 
L 86.203125 61.40625 
Q 78.40625 62.203125 53.796875 62.203125 
Q 54.203125 46.90625 52.296875 35.40625 
Q 84.40625 35.40625 92.796875 36.203125 
L 92.796875 29.59375 
Q 84.90625 30.40625 55 30.40625 
Q 60.203125 17.90625 70.84375 7.34375 
Q 81.5 -3.203125 94.09375 -8.203125 
Q 90.09375 -9.90625 87.796875 -14.59375 
Q 57.59375 6.09375 50.59375 28.09375 
Q 47 14.59375 37.953125 4.296875 
Q 28.90625 -6 11.703125 -15.90625 
Q 10.09375 -12.59375 5.796875 -10.203125 
Q 22.40625 -2.796875 31.75 6.953125 
Q 41.09375 16.703125 44.796875 30.40625 
Q 18.5 30.40625 8.09375 29.59375 
L 8.09375 36.203125 
Q 15.90625 35.40625 46 35.40625 
Q 48.40625 46.796875 47.90625 62.203125 
z
" id="STXihei-22825"/>
      <path d="M 13.203125 74.09375 
Q 22.796875 65.5 27.9375 54.34375 
Q 33.09375 43.203125 33.09375 32.90625 
Q 33.09375 17.296875 28.34375 6.25 
Q 23.59375 -4.796875 14 -14.203125 
L 10.09375 -10.296875 
Q 18.59375 -1.296875 22.640625 7.453125 
Q 26.703125 16.203125 26.703125 33 
Q 26.703125 42.59375 22.5 51.6875 
Q 18.296875 60.796875 9.59375 70.59375 
z
" id="STXihei-65289"/>
     </defs>
     <g transform="translate(120.781818 281.403125)scale(0.14 -0.14)">
      <use xlink:href="#STXihei-26102"/>
      <use x="99.999985" xlink:href="#STXihei-38388"/>
      <use x="199.999969" xlink:href="#STXihei-65288"/>
      <use x="299.999954" xlink:href="#STXihei-22825"/>
      <use x="399.999939" xlink:href="#STXihei-65289"/>
     </g>
    </g>
   </g>
   <g id="matplotlib.axis_2">
    <g id="ytick_1">
     <g id="line2d_5">
      <defs>
       <path d="M 0 0 
L -3.5 0 
" id="m01ebaef9dd" style="stroke:#000000;stroke-width:0.8;"/>
      </defs>
      <g>
       <use style="stroke:#000000;stroke-width:0.8;" x="57.6" xlink:href="#m01ebaef9dd" y="244.8"/>
      </g>
     </g>
     <g id="text_6">
      <!-- 0 -->
      <g transform="translate(45.059375 248.479688)scale(0.1 -0.1)">
       <use xlink:href="#STXihei-48"/>
      </g>
     </g>
    </g>
    <g id="ytick_2">
     <g id="line2d_6">
      <g>
       <use style="stroke:#000000;stroke-width:0.8;" x="57.6" xlink:href="#m01ebaef9dd" y="204.48"/>
      </g>
     </g>
     <g id="text_7">
      <!-- 1 -->
      <defs>
       <path d="M 18.5 71.796875 
L 32.59375 71.796875 
L 32.59375 0 
L 25.5 0 
L 25.5 64.796875 
L 14.203125 64.796875 
z
" id="STXihei-49"/>
      </defs>
      <g transform="translate(45.059375 208.159688)scale(0.1 -0.1)">
       <use xlink:href="#STXihei-49"/>
      </g>
     </g>
    </g>
    <g id="ytick_3">
     <g id="line2d_7">
      <g>
       <use style="stroke:#000000;stroke-width:0.8;" x="57.6" xlink:href="#m01ebaef9dd" y="164.16"/>
      </g>
     </g>
     <g id="text_8">
      <!-- 2 -->
      <g transform="translate(45.059375 167.839688)scale(0.1 -0.1)">
       <use xlink:href="#STXihei-50"/>
      </g>
     </g>
    </g>
    <g id="ytick_4">
     <g id="line2d_8">
      <g>
       <use style="stroke:#000000;stroke-width:0.8;" x="57.6" xlink:href="#m01ebaef9dd" y="123.84"/>
      </g>
     </g>
     <g id="text_9">
      <!-- 3 -->
      <defs>
       <path d="M 13.203125 55.203125 
L 5.90625 55.203125 
Q 7.90625 64.09375 13.546875 68.84375 
Q 19.203125 73.59375 27 73.59375 
Q 35.5 73.59375 41.546875 68.1875 
Q 47.59375 62.796875 47.59375 55.09375 
Q 47.59375 45.796875 38.40625 40.40625 
Q 44.703125 37.796875 48.140625 32.640625 
Q 51.59375 27.5 51.59375 21.40625 
Q 51.59375 11.90625 44.640625 5.046875 
Q 37.703125 -1.796875 27.09375 -1.796875 
Q 17.703125 -1.796875 11.59375 3.546875 
Q 5.5 8.90625 3.5 19.203125 
L 10.5 19.203125 
Q 12.40625 12.09375 16.34375 8.640625 
Q 20.296875 5.203125 27.203125 5.203125 
Q 34.703125 5.203125 39.59375 9.796875 
Q 44.5 14.40625 44.5 20.796875 
Q 44.5 28 39.09375 32.140625 
Q 33.703125 36.296875 23.40625 36.5 
L 23.40625 43.09375 
Q 30.796875 43.09375 35.4375 46.5 
Q 40.09375 49.90625 40.09375 55.09375 
Q 40.09375 60 36.34375 63.34375 
Q 32.59375 66.703125 27 66.703125 
Q 22 66.703125 18.75 63.84375 
Q 15.5 61 13.203125 55.203125 
z
" id="STXihei-51"/>
      </defs>
      <g transform="translate(45.059375 127.519688)scale(0.1 -0.1)">
       <use xlink:href="#STXihei-51"/>
      </g>
     </g>
    </g>
    <g id="ytick_5">
     <g id="line2d_9">
      <g>
       <use style="stroke:#000000;stroke-width:0.8;" x="57.6" xlink:href="#m01ebaef9dd" y="83.52"/>
      </g>
     </g>
     <g id="text_10">
      <!-- 4 -->
      <g transform="translate(45.059375 87.199688)scale(0.1 -0.1)">
       <use xlink:href="#STXihei-52"/>
      </g>
     </g>
    </g>
    <g id="ytick_6">
     <g id="line2d_10">
      <g>
       <use style="stroke:#000000;stroke-width:0.8;" x="57.6" xlink:href="#m01ebaef9dd" y="43.2"/>
      </g>
     </g>
     <g id="text_11">
      <!-- 5 -->
      <defs>
       <path d="M 49.203125 71.796875 
L 49.203125 65 
L 23.59375 65 
L 20 45.40625 
Q 24.796875 46.796875 29 46.796875 
Q 38.40625 46.796875 44.703125 40.140625 
Q 51 33.5 51 23.296875 
Q 51 12.703125 44.140625 5.453125 
Q 37.296875 -1.796875 26 -1.796875 
Q 17.40625 -1.796875 11.34375 3.34375 
Q 5.296875 8.5 4.09375 17.40625 
L 11.40625 17.40625 
Q 12.703125 11.40625 16.796875 8.203125 
Q 20.90625 5 26.296875 5 
Q 33.40625 5 38.546875 10.296875 
Q 43.703125 15.59375 43.703125 23.5 
Q 43.703125 30.703125 39.203125 35.34375 
Q 34.703125 40 27 40 
Q 20.203125 40 11.40625 36.203125 
L 18.09375 71.796875 
z
" id="STXihei-53"/>
      </defs>
      <g transform="translate(45.059375 46.879688)scale(0.1 -0.1)">
       <use xlink:href="#STXihei-53"/>
      </g>
     </g>
    </g>
    <g id="text_12">
     <!-- 每日新增病例（%） -->
     <defs>
      <path d="M 27 60.09375 
Q 20.296875 49 12.296875 39.90625 
Q 10 43.40625 5.703125 44.5 
Q 12.90625 49.59375 19.09375 58.59375 
Q 25.296875 67.59375 28.40625 76.90625 
Q 31 74.703125 35.796875 73.703125 
Q 36.90625 73.5 36.90625 72.796875 
Q 36.90625 72.09375 35.40625 71.546875 
Q 33.90625 71 30.09375 65.203125 
L 75.40625 65.203125 
Q 83.40625 65.203125 90 65.90625 
L 90 59.5 
Q 84.5 60.09375 75.296875 60.09375 
z
M 21.5 28.59375 
L 23 51 
Q 33.203125 50.5 53 50.5 
Q 72.796875 50.5 82.40625 51.09375 
L 81.203125 28.5 
Q 90.703125 28.59375 95.09375 29.203125 
L 95.09375 23 
Q 90.296875 23.59375 80.90625 23.5 
L 79.90625 4.796875 
Q 86.796875 5.40625 89.09375 6.09375 
L 89.09375 -1.5 
Q 86.296875 -0.90625 79.5 -0.59375 
Q 79 -9.203125 75.953125 -12.140625 
Q 72.90625 -15.09375 61.296875 -16.203125 
Q 61.203125 -12.5 58.203125 -8.5 
Q 62.09375 -8.796875 64.40625 -8.796875 
Q 69.703125 -8.796875 71.453125 -6.75 
Q 73.203125 -4.703125 73.59375 -0.296875 
L 42.703125 -0.296875 
Q 29.203125 -0.296875 19.5 -1.296875 
L 21.203125 23.5 
Q 10.703125 23.59375 6.296875 23.09375 
L 6.296875 29.203125 
Q 11.90625 28.59375 21.5 28.59375 
z
M 27.296875 28.5 
L 75.296875 28.5 
L 76.296875 45.59375 
L 28.5 45.59375 
z
M 59.203125 33.703125 
L 55.203125 29.5 
Q 49.09375 35.703125 41.296875 40.796875 
L 44.90625 44.90625 
Q 51.703125 40.59375 59.203125 33.703125 
z
M 75.09375 23.5 
L 27 23.5 
L 25.703125 4.5 
L 74 4.5 
z
M 59.40625 10.703125 
L 55.40625 6.09375 
Q 49.703125 11.90625 40.09375 17.90625 
L 43.296875 22.09375 
Q 51.59375 17 59.40625 10.703125 
z
" id="STXihei-27599"/>
      <path d="M 26.40625 -2.09375 
L 26.40625 -12.90625 
L 18.296875 -12.90625 
Q 19.90625 -5.203125 19.90625 2.296875 
L 19.90625 58 
Q 19.90625 63.296875 19.09375 67.59375 
Q 33.296875 67.09375 50.640625 67.09375 
Q 68 67.09375 82.09375 67.59375 
Q 80.40625 63.5 80.40625 58.09375 
L 80.40625 5.703125 
Q 80.40625 -6.703125 81.5 -11.40625 
L 73.796875 -11.40625 
L 73.796875 -2.09375 
z
M 26.40625 34.703125 
L 73.796875 34.703125 
L 73.796875 61.90625 
L 26.40625 61.90625 
z
M 73.796875 29.90625 
L 26.40625 29.90625 
L 26.40625 3 
L 73.796875 3 
z
" id="STXihei-26085"/>
      <path d="M 36.203125 67.90625 
L 32.5 63.40625 
Q 27.59375 68.203125 20.5 71.703125 
L 23.5 75.796875 
Q 30.703125 72.5 36.203125 67.90625 
z
M 65.5 41.296875 
L 79.40625 41.296875 
Q 92.203125 41.296875 97.203125 42 
L 97.203125 36 
Q 92.5 36.703125 83.5 36.703125 
L 83.5 0.09375 
Q 83.5 -8.09375 84.203125 -15.796875 
L 77.203125 -15.796875 
Q 77.796875 -9.796875 77.796875 0.09375 
L 77.796875 36.703125 
L 65.5 36.703125 
Q 65.40625 13.59375 61.953125 3.34375 
Q 58.5 -6.90625 50.296875 -16.296875 
Q 46.90625 -14.203125 42.703125 -13.90625 
Q 52 -6.59375 56.046875 4.546875 
Q 60.09375 15.703125 60.09375 34.390625 
Q 60.09375 53.09375 58.59375 66 
Q 76.5 66 89 74.703125 
Q 90.703125 71 91.796875 69.953125 
Q 92.90625 68.90625 92.90625 68.203125 
Q 92.90625 67.5 91.796875 67.5 
L 90.59375 67.703125 
Q 89.296875 67.703125 82 65.5 
Q 74.703125 63.296875 65.5 61.40625 
z
M 55.5 57.296875 
Q 47.40625 58.203125 31.90625 58.203125 
Q 16.40625 58.203125 8.296875 57.296875 
L 8.296875 63.5 
Q 16.40625 62.59375 32.40625 62.59375 
Q 48.40625 62.59375 55.5 63.5 
z
M 34 39.59375 
Q 39 48.296875 41.703125 56.40625 
Q 45.09375 54.796875 47.140625 54.140625 
Q 49.203125 53.5 49.203125 52.640625 
Q 49.203125 51.796875 48.203125 51.203125 
Q 44.703125 49.203125 39 39.59375 
Q 49.09375 39.59375 56.59375 40.296875 
L 56.59375 34.59375 
Q 49.59375 35.296875 35.09375 35.296875 
L 35.09375 23.5 
Q 48.796875 23.703125 55.40625 24.5 
L 55.40625 18.09375 
Q 48.796875 18.90625 35.09375 19.09375 
L 35.09375 -7.703125 
Q 35.09375 -12.40625 31.6875 -13.34375 
Q 28.296875 -14.296875 20.5 -14.296875 
Q 20.703125 -13.59375 20.703125 -12.90625 
Q 20.703125 -10 17.59375 -7.203125 
Q 22.703125 -8.203125 26.09375 -8.203125 
Q 29.5 -8.203125 29.5 -5.296875 
L 29.5 19.09375 
Q 17.203125 19.09375 9.203125 18.09375 
L 9.203125 24.5 
Q 17.203125 23.5 29.5 23.5 
L 29.5 35.296875 
Q 13.296875 35.296875 6.203125 34.59375 
L 6.203125 40.296875 
Q 13.5 39.59375 34 39.59375 
z
M 28.5 44.40625 
L 24.703125 40.296875 
Q 20.59375 46.5 14.203125 51.296875 
L 18 54.59375 
Q 24.203125 50 28.5 44.40625 
z
M 17.90625 15.90625 
Q 20 13.796875 21.890625 13.390625 
Q 23.796875 13 23.796875 11.75 
Q 23.796875 10.5 22.296875 9.90625 
Q 21.5 9.59375 20.046875 7.890625 
Q 18.59375 6.203125 16.140625 1.703125 
Q 13.703125 -2.796875 11.09375 -6.59375 
Q 8.703125 -3.796875 6 -3.296875 
Q 13.203125 5 17.90625 15.90625 
z
M 52.703125 2 
L 48.09375 -1.59375 
Q 44.09375 5.703125 39 10.90625 
L 43.203125 14.09375 
Q 49.90625 7.296875 52.703125 2 
z
" id="STXihei-26032"/>
      <path d="M 70 59.40625 
Q 76.59375 68.59375 79.5 75.59375 
Q 81.796875 73.296875 85.703125 71.796875 
Q 87 71.296875 87 70.546875 
Q 87 69.796875 85.546875 69.4375 
Q 84.09375 69.09375 82.046875 67.1875 
Q 80 65.296875 75.59375 59.5 
Q 85.40625 59.59375 93.09375 60.203125 
Q 92.40625 54.5 92.40625 43.59375 
Q 92.40625 32.703125 93.09375 27.703125 
Q 85.90625 28.5 67 28.5 
Q 48.09375 28.5 37 27.703125 
Q 37.703125 34.703125 37.703125 43.796875 
Q 37.703125 52.90625 37 60.203125 
Q 46.5 59.40625 55.703125 59.40625 
z
M 62.203125 32.703125 
L 62.203125 55.203125 
L 43.296875 55.203125 
L 43.296875 32.703125 
z
M 59.5 39.09375 
L 54.796875 36.09375 
Q 51 43.796875 45.703125 48.59375 
L 49.90625 51.90625 
Q 55.40625 46 59.5 39.09375 
z
M 67.796875 55.203125 
L 67.796875 32.703125 
L 86.796875 32.703125 
L 86.796875 55.203125 
z
M 78.203125 52.703125 
Q 80.5 50.59375 82.75 50.140625 
Q 85 49.703125 85 49.046875 
Q 85 48.40625 83.59375 47.796875 
Q 81.5 46.90625 74.203125 35.40625 
L 69.703125 37.703125 
Q 75.5 44.40625 78.203125 52.703125 
z
M 59.796875 64.09375 
L 55.40625 60.203125 
Q 50.5 66.703125 43.5 70.90625 
L 47.296875 75.09375 
Q 53.703125 70.796875 59.796875 64.09375 
z
M 18.796875 40.296875 
Q 10.09375 40.296875 5.5 39.296875 
L 5.5 46.09375 
Q 10.09375 45.09375 18.796875 45.09375 
Q 18.796875 67.59375 18 74.40625 
Q 21.09375 73.59375 25.59375 73.59375 
Q 27.296875 73.59375 27.296875 72.84375 
Q 27.296875 72.09375 26 71.296875 
Q 24.703125 70.5 24.703125 68.59375 
L 24.703125 45.203125 
Q 31 45.40625 34.90625 46.09375 
L 34.90625 39.296875 
Q 31 40.09375 24.703125 40.203125 
L 24.703125 7.703125 
Q 30.59375 9.703125 36.59375 12.296875 
Q 36.40625 11.40625 36.40625 9.75 
Q 36.40625 8.09375 37 5.796875 
Q 22.203125 2 6.703125 -4.203125 
Q 6.296875 -0.40625 3.296875 3 
Q 11.5 4.09375 18.796875 6 
z
M 48.796875 -9.90625 
L 48.796875 -15.296875 
L 42.203125 -15.296875 
Q 42.90625 -10.59375 42.90625 -5.59375 
L 42.90625 10.796875 
Q 42.90625 18.40625 42.203125 21.796875 
Q 49.09375 21 66.296875 21 
Q 83.5 21 88.59375 21.796875 
Q 88 17.90625 88 10.796875 
L 88 -4.203125 
Q 88 -8.5 88.59375 -14.703125 
L 82 -14.703125 
L 82 -9.90625 
z
M 48.796875 7.90625 
L 82 7.90625 
L 82 16.5 
L 48.796875 16.5 
z
M 82 3.40625 
L 48.796875 3.40625 
L 48.796875 -5.40625 
L 82 -5.40625 
z
" id="STXihei-22686"/>
      <path d="M 19.59375 31.5 
Q 19.703125 43.5 18 64.59375 
Q 24.203125 63.90625 53 63.90625 
Q 50.796875 68 47 71.59375 
L 52.59375 75 
Q 56.09375 70.5 59.203125 63.90625 
Q 88.59375 63.90625 92.90625 64.59375 
L 92.90625 58.40625 
Q 84.59375 59.09375 64.296875 59.09375 
L 24.59375 59.09375 
Q 25.203125 43.59375 25.203125 34.203125 
Q 25.203125 15.90625 22.75 6.15625 
Q 20.296875 -3.59375 13.703125 -14.59375 
Q 11.5 -11.796875 7.296875 -11 
Q 13.40625 -2.796875 16.203125 5.640625 
Q 19 14.09375 19.5 25.59375 
Q 11.296875 19.703125 7.203125 16.203125 
Q 6.09375 19.40625 3.59375 22.09375 
Q 11.40625 25.203125 19.59375 31.5 
z
M 17.59375 41.59375 
L 12.40625 38.203125 
Q 8.796875 47 3.703125 53.5 
L 8.40625 57.09375 
Q 13.5 50.796875 17.59375 41.59375 
z
M 59.40625 45.09375 
Q 37.09375 44.90625 28.09375 44 
L 28.09375 50.90625 
Q 38.59375 49.796875 61.84375 49.796875 
Q 85.09375 49.796875 95.09375 50.90625 
L 95.09375 44 
Q 83.90625 45.09375 65.09375 45.09375 
Q 65.203125 38.703125 64.90625 32.703125 
Q 81.09375 32.703125 90.90625 33.40625 
Q 90.59375 30 90.59375 25.203125 
L 90.59375 -5.5 
Q 90.59375 -10.703125 87.59375 -12.453125 
Q 84.59375 -14.203125 74.796875 -14.796875 
Q 74.5 -10.796875 71.59375 -7.296875 
Q 76.5 -8.09375 79.296875 -8.09375 
Q 82.09375 -8.09375 83.390625 -7.25 
Q 84.703125 -6.40625 84.703125 -3.703125 
L 84.703125 28.09375 
L 64.5 28.09375 
Q 63.90625 23.203125 62.90625 19.703125 
Q 76.5 10.40625 82.59375 4.90625 
L 77.40625 -0.203125 
Q 72.203125 6.703125 61.296875 14.59375 
Q 57.703125 5 45.09375 -3.40625 
Q 43.203125 -0.5 39.40625 1.296875 
Q 49.90625 5.796875 53.84375 12.5 
Q 57.796875 19.203125 58.796875 28.09375 
L 38.5 28.09375 
L 38.5 -14.90625 
L 31.90625 -14.90625 
Q 32.59375 -8.203125 32.59375 -1.59375 
L 32.59375 25.5 
Q 32.59375 31 32.203125 33.5 
Q 43.90625 32.703125 59.09375 32.703125 
Q 59.5 37.796875 59.40625 45.09375 
z
" id="STXihei-30149"/>
      <path d="M 16.203125 45.203125 
Q 12.703125 37.703125 8.09375 30.703125 
Q 5.90625 33.5 2.203125 34.296875 
Q 15.703125 51.296875 21.90625 76.203125 
Q 24.90625 74.40625 27.34375 74.25 
Q 29.796875 74.09375 29.796875 73.4375 
Q 29.796875 72.796875 28.75 72.09375 
Q 27.703125 71.40625 26.34375 68.84375 
Q 25 66.296875 21.796875 58.296875 
L 21.796875 -15.59375 
L 15.09375 -15.59375 
Q 16.203125 -6.59375 16.203125 3.90625 
z
M 83.40625 73.296875 
Q 85.703125 72.703125 87.34375 72.640625 
Q 89 72.59375 90.5 72.59375 
Q 92 72.59375 92 71.75 
Q 92 70.90625 90.890625 70.296875 
Q 89.796875 69.703125 89.796875 67.703125 
L 89.796875 -5.09375 
Q 89.796875 -9.09375 88.546875 -11.046875 
Q 87.296875 -13 83.390625 -14.046875 
Q 79.5 -15.09375 70.796875 -15.703125 
Q 70.796875 -12.296875 70.09375 -10.890625 
Q 69.40625 -9.5 68 -8.09375 
Q 73.09375 -8.5 76.203125 -8.5 
Q 81.296875 -8.5 82.75 -7.453125 
Q 84.203125 -6.40625 84.203125 -3.703125 
L 84.203125 56.90625 
Q 84.203125 67.09375 83.40625 73.296875 
z
M 40.59375 61.703125 
Q 34.59375 61.703125 28.59375 61 
L 28.59375 67.40625 
Q 36.40625 66.59375 47.453125 66.59375 
Q 58.5 66.59375 66.40625 67.40625 
L 66.40625 61 
Q 58.59375 61.796875 46.203125 61.796875 
Q 45.5 53 42.90625 44.59375 
L 55.09375 44.59375 
Q 59 44.59375 63.09375 45.203125 
Q 60.59375 21.703125 54.84375 9.390625 
Q 49.09375 -2.90625 33 -14.5 
Q 31.296875 -10.90625 27.09375 -10 
Q 43.09375 -1.296875 49.703125 12.203125 
Q 42.5 19.59375 35.796875 23.90625 
L 39.203125 28.5 
Q 45.5 23.703125 52 17.40625 
Q 55.296875 26.296875 57 39.796875 
L 41.296875 39.796875 
Q 37.40625 29.703125 30.90625 21.40625 
Q 28.5 24.296875 25.203125 24.796875 
Q 32.09375 31.796875 35.59375 40.296875 
Q 39.09375 48.796875 40.59375 61.703125 
z
M 68.796875 55.703125 
Q 71 54.90625 76.09375 54.90625 
Q 77.203125 54.90625 77.203125 54.25 
Q 77.203125 53.59375 76.140625 52.9375 
Q 75.09375 52.296875 75.09375 50.296875 
L 75.09375 24.40625 
Q 75.09375 19.796875 75.796875 8.5 
L 68.90625 8.5 
Q 69.59375 17.296875 69.59375 24.40625 
L 69.59375 42.40625 
Q 69.59375 50 68.796875 55.703125 
z
" id="STXihei-20363"/>
      <path d="M 67.40625 75 
L 15.09375 -5 
L 8.59375 -5 
L 56.296875 67.90625 
Q 50.5 66.5 44.453125 66.09375 
Q 38.40625 65.703125 35.59375 65.796875 
L 33 65.90625 
Q 36 61.703125 36 57 
Q 36 49.796875 31.140625 44.75 
Q 26.296875 39.703125 19 39.703125 
Q 12 39.703125 7.09375 44.59375 
Q 2.203125 49.5 2.203125 56.59375 
Q 2.203125 63.703125 7.25 68.59375 
Q 12.296875 73.5 18.90625 73.5 
Q 21.59375 73.5 25 72.796875 
Q 31.59375 71.40625 38.90625 71.40625 
Q 50.5 71.40625 61.703125 75 
z
M 29.90625 56.703125 
Q 29.90625 61.203125 26.75 64.296875 
Q 23.59375 67.40625 19.09375 67.40625 
Q 14.703125 67.40625 11.546875 64.25 
Q 8.40625 61.09375 8.40625 56.703125 
Q 8.40625 52.296875 11.546875 49.140625 
Q 14.703125 46 19.09375 46 
Q 23.59375 46 26.75 49.09375 
Q 29.90625 52.203125 29.90625 56.703125 
z
M 41.5 14.796875 
Q 41.5 21.703125 46.453125 26.703125 
Q 51.40625 31.703125 58.296875 31.703125 
Q 65.296875 31.703125 70.25 26.75 
Q 75.203125 21.796875 75.203125 14.796875 
Q 75.203125 7.796875 70.25 2.84375 
Q 65.296875 -2.09375 58.296875 -2.09375 
Q 51.40625 -2.09375 46.453125 2.84375 
Q 41.5 7.796875 41.5 14.796875 
z
M 69.09375 14.796875 
Q 69.09375 19.203125 65.9375 22.34375 
Q 62.796875 25.5 58.296875 25.5 
Q 53.90625 25.5 50.796875 22.34375 
Q 47.703125 19.203125 47.703125 14.796875 
Q 47.703125 10.40625 50.796875 7.25 
Q 53.90625 4.09375 58.296875 4.09375 
Q 62.796875 4.09375 65.9375 7.1875 
Q 69.09375 10.296875 69.09375 14.796875 
z
" id="STXihei-37"/>
     </defs>
     <g transform="translate(27.3425 205.425)rotate(-90)scale(0.14 -0.14)">
      <use xlink:href="#STXihei-27599"/>
      <use x="99.999985" xlink:href="#STXihei-26085"/>
      <use x="199.999969" xlink:href="#STXihei-26032"/>
      <use x="299.999954" xlink:href="#STXihei-22686"/>
      <use x="399.999939" xlink:href="#STXihei-30149"/>
      <use x="499.999924" xlink:href="#STXihei-20363"/>
      <use x="599.999908" xlink:href="#STXihei-65288"/>
      <use x="699.999893" xlink:href="#STXihei-37"/>
      <use x="777.499878" xlink:href="#STXihei-65289"/>
     </g>
    </g>
   </g>
   <g id="line2d_11">
    <path clip-path="url(#p2e493a3b67)" d="M 57.6 244.8 
L 66.296104 244.703136 
L 68.25974 244.501336 
L 69.381818 244.243031 
L 70.503896 243.774855 
L 71.345455 243.161382 
L 71.906494 242.580198 
L 72.467532 241.781069 
L 73.028571 240.69942 
L 73.58961 239.238387 
L 74.150649 237.293033 
L 74.711688 234.685775 
L 75.272727 231.2471 
L 75.833766 226.734847 
L 76.394805 220.931074 
L 77.236364 209.355815 
L 78.077922 194.115865 
L 80.041558 154.175573 
L 80.602597 147.508094 
L 80.883117 145.966341 
L 81.163636 145.780685 
L 81.444156 146.991486 
L 81.724675 149.558384 
L 82.285714 158.260008 
L 83.127273 176.96285 
L 84.52987 208.419463 
L 85.371429 222.004651 
L 86.212987 231.166379 
L 86.774026 235.299247 
L 87.335065 238.253602 
L 87.896104 240.33618 
L 88.457143 241.772997 
L 89.018182 242.765854 
L 89.579221 243.435831 
L 90.420779 244.057375 
L 91.262338 244.3964 
L 92.384416 244.630488 
L 95.18961 244.783856 
L 253.963636 244.8 
L 253.963636 244.8 
" style="fill:none;stroke:#1f77b4;stroke-linecap:square;stroke-width:1.5;"/>
   </g>
   <g id="line2d_12">
    <path clip-path="url(#p2e493a3b67)" d="M 57.6 244.8 
L 68.25974 244.695064 
L 71.064935 244.428688 
L 72.467532 244.121951 
L 73.87013 243.548839 
L 74.711688 242.99187 
L 75.553247 242.200814 
L 76.394805 241.078805 
L 77.236364 239.480547 
L 78.077922 237.244601 
L 78.919481 234.120734 
L 79.761039 229.874858 
L 80.602597 224.208309 
L 81.444156 216.93543 
L 82.566234 204.770915 
L 84.81039 178.787123 
L 85.371429 174.613895 
L 85.932468 172.426381 
L 86.212987 172.176149 
L 86.493506 172.515173 
L 86.774026 173.411166 
L 87.335065 176.825625 
L 87.896104 182.023998 
L 89.018182 195.463891 
L 90.420779 212.447394 
L 91.542857 223.150876 
L 92.384416 229.11609 
L 93.225974 233.547622 
L 94.067532 236.752209 
L 94.909091 239.028515 
L 95.750649 240.634844 
L 96.592208 241.764925 
L 97.433766 242.572126 
L 98.555844 243.290535 
L 99.958442 243.839431 
L 101.641558 244.218815 
L 103.605195 244.460976 
L 106.971429 244.654704 
L 115.106494 244.783856 
L 253.963636 244.8 
L 253.963636 244.8 
" style="fill:none;stroke:#ff7f0e;stroke-linecap:square;stroke-width:1.5;"/>
   </g>
   <g id="line2d_13">
    <path clip-path="url(#p2e493a3b67)" d="M 57.6 244.8 
L 71.064935 244.695064 
L 75.272727 244.35604 
L 76.675325 244.105807 
L 78.358442 243.597271 
L 79.761039 242.895006 
L 80.883117 242.071661 
L 82.005195 240.893148 
L 82.846753 239.714635 
L 83.688312 238.197098 
L 84.52987 236.284032 
L 85.371429 233.878574 
L 86.212987 230.916147 
L 87.335065 226.040655 
L 88.457143 220.107729 
L 91.823377 201.025504 
L 92.384416 198.942926 
L 92.945455 197.554541 
L 93.225974 197.15094 
L 93.506494 196.94914 
L 93.787013 196.957212 
L 94.067532 197.167084 
L 94.628571 198.184157 
L 95.18961 199.935783 
L 96.031169 203.66505 
L 97.433766 211.599833 
L 99.397403 222.795708 
L 100.519481 228.074801 
L 101.641558 232.312605 
L 102.763636 235.58984 
L 103.885714 238.04373 
L 105.007792 239.868003 
L 106.12987 241.199885 
L 107.251948 242.176598 
L 108.374026 242.886934 
L 109.776623 243.508479 
L 111.45974 243.992799 
L 113.423377 244.331824 
L 115.667532 244.549768 
L 118.472727 244.686992 
L 125.485714 244.783856 
L 253.963636 244.8 
L 253.963636 244.8 
" style="fill:none;stroke:#2ca02c;stroke-linecap:square;stroke-width:1.5;"/>
   </g>
   <g id="line2d_14">
    <path clip-path="url(#p2e493a3b67)" d="M 57.6 244.8 
L 75.553247 244.695064 
L 80.602597 244.452904 
L 83.688312 244.089663 
L 85.932468 243.613415 
L 87.896104 242.943438 
L 89.298701 242.249246 
L 90.701299 241.320965 
L 92.103896 240.085948 
L 93.506494 238.479618 
L 94.909091 236.421256 
L 96.311688 233.870502 
L 97.714286 230.859643 
L 99.677922 226.137519 
L 101.361039 222.141875 
L 102.483117 219.905929 
L 103.324675 218.630552 
L 104.166234 217.791063 
L 104.727273 217.508543 
L 105.288312 217.460111 
L 105.849351 217.629623 
L 106.690909 218.315744 
L 107.532468 219.453897 
L 108.654545 221.536475 
L 110.057143 224.684557 
L 113.423377 232.457901 
L 114.825974 235.145879 
L 116.228571 237.365681 
L 117.631169 239.157667 
L 119.033766 240.546052 
L 120.436364 241.619629 
L 122.119481 242.572126 
L 124.083117 243.338967 
L 126.607792 243.952439 
L 128.571429 244.243031 
L 130.815584 244.460976 
L 133.901299 244.630488 
L 142.877922 244.783856 
L 253.963636 244.8 
L 253.963636 244.8 
" style="fill:none;stroke:#d62728;stroke-linecap:square;stroke-width:1.5;"/>
   </g>
   <g id="line2d_15">
    <path clip-path="url(#p2e493a3b67)" d="M 57.6 244.8 
L 84.52987 244.695064 
L 94.628571 244.299536 
L 97.714286 244.017015 
L 102.483117 243.234031 
L 106.12987 242.192742 
L 108.093506 241.417829 
L 110.618182 240.158596 
L 113.142857 238.600698 
L 117.911688 235.178167 
L 119.875325 233.86243 
L 121.838961 232.837285 
L 123.241558 232.361037 
L 124.644156 232.151164 
L 125.766234 232.183452 
L 127.168831 232.465973 
L 128.571429 233.006797 
L 129.974026 233.74135 
L 132.218182 235.210455 
L 137.828571 239.117307 
L 140.072727 240.408828 
L 141.755844 241.232173 
L 144.280519 242.216958 
L 146.524675 242.886934 
L 149.32987 243.500407 
L 151.574026 243.855575 
L 156.623377 244.339896 
L 163.636364 244.63856 
L 171.21039 244.743496 
L 175.698701 244.767712 
L 253.963636 244.8 
L 253.963636 244.8 
" style="fill:none;stroke:#9467bd;stroke-linecap:square;stroke-width:1.5;"/>
   </g>
   <g id="line2d_16">
    <path clip-path="url(#p2e493a3b67)" d="M 57.6 244.8 
L 106.690909 244.695064 
L 113.423377 244.606272 
L 119.314286 244.501336 
L 131.937662 244.033159 
L 140.072727 243.460047 
L 146.805195 242.781998 
L 151.012987 242.281534 
L 161.953247 241.127237 
L 165.319481 240.94158 
L 169.807792 240.909292 
L 174.576623 241.143381 
L 182.150649 241.902149 
L 197.018182 243.508479 
L 203.750649 243.984727 
L 211.885714 244.347968 
L 225.911688 244.646632 
L 241.901299 244.751568 
L 246.109091 244.767712 
L 253.963636 244.783856 
L 253.963636 244.783856 
" style="fill:none;stroke:#8c564b;stroke-linecap:square;stroke-width:1.5;"/>
   </g>
   <g id="line2d_17">
    <path clip-path="url(#p2e493a3b67)" d="M 57.6 244.8 
L 253.963636 244.695064 
L 253.963636 244.695064 
" style="fill:none;stroke:#e377c2;stroke-linecap:square;stroke-width:1.5;"/>
   </g>
   <g id="line2d_18">
    <path clip-path="url(#p2e493a3b67)" d="M 57.6 244.8 
L 253.963636 244.8 
L 253.963636 244.8 
" style="fill:none;stroke:#7f7f7f;stroke-linecap:square;stroke-width:1.5;"/>
   </g>
   <g id="line2d_19">
    <path clip-path="url(#p2e493a3b67)" d="M 57.6 244.8 
L 253.963636 244.8 
L 253.963636 244.8 
" style="fill:none;stroke:#bcbd22;stroke-linecap:square;stroke-width:1.5;"/>
   </g>
   <g id="line2d_20">
    <path clip-path="url(#p2e493a3b67)" d="M 57.6 244.8 
L 253.963636 244.8 
L 253.963636 244.8 
" style="fill:none;stroke:#17becf;stroke-linecap:square;stroke-width:1.5;"/>
   </g>
   <g id="line2d_21">
    <path clip-path="url(#p2e493a3b67)" d="M 57.6 244.8 
L 253.963636 244.8 
L 253.963636 244.8 
" style="fill:none;stroke:#1f77b4;stroke-linecap:square;stroke-width:1.5;"/>
   </g>
   <g id="patch_3">
    <path d="M 57.6 244.8 
L 57.6 43.2 
" style="fill:none;stroke:#000000;stroke-linecap:square;stroke-linejoin:miter;stroke-width:0.8;"/>
   </g>
   <g id="patch_4">
    <path d="M 253.963636 244.8 
L 253.963636 43.2 
" style="fill:none;stroke:#000000;stroke-linecap:square;stroke-linejoin:miter;stroke-width:0.8;"/>
   </g>
   <g id="patch_5">
    <path d="M 57.6 244.8 
L 253.963636 244.8 
" style="fill:none;stroke:#000000;stroke-linecap:square;stroke-linejoin:miter;stroke-width:0.8;"/>
   </g>
   <g id="patch_6">
    <path d="M 57.6 43.2 
L 253.963636 43.2 
" style="fill:none;stroke:#000000;stroke-linecap:square;stroke-linejoin:miter;stroke-width:0.8;"/>
   </g>
   <g id="text_13">
    <!-- 无症状感染者 -->
    <defs>
     <path d="M 43.703125 62.203125 
Q 22 62.203125 15.09375 61.703125 
L 15.09375 67.90625 
Q 22.203125 67.296875 48.796875 67.296875 
Q 75.40625 67.296875 82.203125 67.796875 
L 82.203125 61.59375 
Q 76.296875 62.203125 50.5 62.203125 
Q 50.40625 48.09375 48.796875 37.09375 
Q 83.703125 37.09375 89.59375 37.59375 
L 89.59375 31.40625 
Q 82.59375 32 60.296875 32 
L 60.296875 2 
Q 60.296875 -0.90625 61.046875 -2.25 
Q 61.796875 -3.59375 64.296875 -4.1875 
Q 66.796875 -4.796875 73.140625 -4.796875 
Q 79.5 -4.796875 82.453125 -4.046875 
Q 85.40625 -3.296875 86.75 -0.796875 
Q 88.09375 1.703125 88.5 7.59375 
Q 91.203125 4.5 95.703125 3.796875 
Q 93.296875 -3.40625 91.6875 -6.046875 
Q 90.09375 -8.703125 86.6875 -9.640625 
Q 83.296875 -10.59375 74.5 -10.59375 
Q 65.703125 -10.59375 61.390625 -10 
Q 57.09375 -9.40625 55.640625 -7.796875 
Q 54.203125 -6.203125 54.203125 -2.796875 
L 54.203125 32.09375 
L 47.90625 32.09375 
Q 45.296875 18 37.75 7.953125 
Q 30.203125 -2.09375 11.796875 -13.703125 
Q 9.203125 -9.5 5.296875 -8.5 
Q 22.203125 -1 30.703125 8.5 
Q 39.203125 18 42.09375 32.09375 
Q 17.203125 32.09375 8.59375 31.5 
L 8.59375 37.703125 
Q 17.796875 37.09375 42.90625 37.09375 
Q 43.90625 44.5 43.90625 51.046875 
Q 43.90625 57.59375 43.703125 62.203125 
z
" id="STXihei-26080"/>
     <path d="M 22 32.40625 
Q 22.09375 35.203125 22.09375 38.40625 
Q 22.09375 48.09375 21.09375 64.09375 
Q 23.296875 63.40625 55.203125 63.40625 
Q 51.90625 69.59375 48.203125 73.203125 
L 53.90625 76.796875 
Q 57.59375 71.09375 61.296875 63.40625 
Q 89 63.40625 92.296875 64.09375 
L 92.296875 58 
Q 88.296875 58.59375 67 58.59375 
L 27.90625 58.59375 
Q 28 51.5 28 45.59375 
Q 28 21.796875 25.140625 9.5 
Q 22.296875 -2.796875 14.59375 -14.796875 
Q 11.90625 -11.40625 7.09375 -10.90625 
Q 14.796875 -2.40625 17.9375 6.140625 
Q 21.09375 14.703125 21.796875 27 
Q 13.296875 20.59375 7.5 14.90625 
Q 6.203125 17.90625 2.703125 20.703125 
Q 12 24.703125 22 32.40625 
z
M 20.296875 40.40625 
L 15.203125 37.40625 
Q 12.5 44.296875 6.5 52 
L 11.296875 55.40625 
Q 16.59375 48.09375 20.296875 40.40625 
z
M 60.09375 41.296875 
Q 41 41.296875 32.796875 40.5 
L 32.796875 46.90625 
Q 41.296875 46.09375 61.34375 46.09375 
Q 81.40625 46.09375 89.90625 46.90625 
L 89.90625 40.5 
Q 82.796875 41.09375 65.796875 41.296875 
L 65.796875 22.59375 
Q 82 22.59375 87 23.5 
L 87 17.203125 
Q 82.59375 17.90625 65.796875 17.90625 
L 65.796875 -5.703125 
L 77.796875 -5.703125 
Q 85.296875 -5.703125 95.296875 -4.703125 
L 95.296875 -11.296875 
Q 84.40625 -10.40625 59.5 -10.40625 
Q 34.59375 -10.40625 25.90625 -11.296875 
L 25.90625 -4.703125 
Q 34 -5.59375 39.59375 -5.703125 
L 39.59375 16.703125 
Q 39.59375 24.59375 38.796875 27.796875 
Q 42.703125 27.296875 46.796875 27.296875 
Q 48.296875 27.296875 48.296875 26.6875 
Q 48.296875 26.09375 47.296875 25.703125 
Q 45.296875 25 45.296875 21.59375 
L 45.296875 -5.703125 
L 60.09375 -5.703125 
z
" id="STXihei-30151"/>
     <path d="M 24.703125 74.703125 
Q 28.5 74.203125 32.09375 74.09375 
Q 33.5 74.09375 33.5 73.09375 
Q 33.5 72.59375 33.09375 72.296875 
Q 31.703125 71.09375 31.703125 68.59375 
L 31.703125 1.59375 
Q 31.703125 -7 32.5 -14 
L 24.90625 -14 
Q 25.796875 -6.203125 25.796875 1.59375 
L 25.796875 59.796875 
Q 25.796875 69.40625 24.703125 74.703125 
z
M 59.09375 40 
Q 45 39.90625 37.40625 39 
L 37.40625 45.703125 
Q 45.296875 44.796875 59.59375 44.703125 
Q 60.203125 51.59375 60.203125 60.390625 
Q 60.203125 69.203125 59.09375 74.5 
Q 64.796875 73.59375 66.5 73.59375 
Q 68.203125 73.59375 68.203125 73.09375 
Q 68.203125 72.59375 67.59375 72 
Q 67 71.40625 66.5 69 
Q 66 66.59375 66 64.09375 
Q 65.796875 53.09375 65.203125 44.703125 
Q 83.296875 44.703125 92.203125 45.703125 
L 92.203125 39 
Q 83.59375 40 66.203125 40 
Q 68.59375 27.296875 77.25 13.640625 
Q 85.90625 0 95.796875 -7.09375 
Q 93.09375 -9.296875 90 -12.5 
Q 70.796875 6.90625 63.703125 32.40625 
Q 57.796875 4.59375 38 -13.09375 
Q 36.296875 -10.59375 33.09375 -8.59375 
Q 43.5 -1.5 50.296875 11.25 
Q 57.09375 24 59.09375 40 
z
M 88.40625 55.203125 
L 83.90625 50.703125 
Q 79.40625 57.296875 72.203125 63.203125 
L 76.09375 67.203125 
Q 82.90625 61.5 88.40625 55.203125 
z
M 22.09375 46.296875 
L 17.40625 42.703125 
Q 12.796875 50.703125 4.90625 59.09375 
L 8.90625 62.796875 
Q 16.703125 54.90625 22.09375 46.296875 
z
M 24.5 29 
Q 11.40625 11.90625 7.796875 5.796875 
Q 6.09375 9 2.40625 10.90625 
Q 12.703125 19.90625 20.40625 32.90625 
Q 21.703125 31.09375 24.5 29 
z
" id="STXihei-29366"/>
     <path d="M 82.40625 68 
L 77.703125 63.796875 
Q 74.5 68.90625 68.203125 72.09375 
L 72.40625 76.59375 
Q 78.796875 71.90625 82.40625 68 
z
M 56.59375 58.5 
L 19.203125 58.5 
Q 19.203125 40.703125 17.703125 30.84375 
Q 16.203125 21 11.5 11.203125 
Q 8.59375 13.40625 4.703125 14.203125 
Q 9.40625 20.296875 11.453125 28.25 
Q 13.5 36.203125 13.5 49 
Q 13.5 55.5 13 64 
Q 15.90625 63.296875 56.09375 63.296875 
Q 55.59375 68.796875 55.40625 76 
Q 58.5 74.90625 62.703125 74.90625 
Q 64.203125 74.90625 64.203125 74.046875 
Q 64.203125 73.203125 63.34375 72.59375 
Q 62.5 72 62.203125 71 
Q 61.90625 70 61.90625 68 
Q 61.90625 66 62 63.296875 
Q 84.40625 63.296875 87.90625 64 
L 87.90625 57.796875 
Q 80.296875 58.5 62.296875 58.5 
Q 63.5 46.59375 69.296875 34.90625 
Q 75.09375 42.90625 78.09375 51.59375 
Q 81.40625 49.09375 84.40625 48.09375 
Q 85.40625 47.796875 85.40625 47.140625 
Q 85.40625 46.5 83.796875 45.84375 
Q 82.203125 45.203125 79.796875 41.40625 
Q 75.59375 34.59375 72 30 
Q 75.703125 23.90625 78.703125 21.25 
Q 81.703125 18.59375 83.546875 18.59375 
Q 85.40625 18.59375 86.296875 20.84375 
Q 87.203125 23.09375 87.59375 27.703125 
Q 90 24.703125 93.59375 24.09375 
Q 92.40625 19.703125 90.453125 16.046875 
Q 88.5 12.40625 85.09375 12.40625 
Q 76.59375 12.40625 68.09375 25 
Q 62.796875 18.203125 55.90625 11.703125 
Q 53.90625 13.90625 50.09375 15.09375 
Q 57.203125 20.296875 65.296875 29.59375 
Q 58.90625 41.09375 56.59375 58.5 
z
M 23.5 51 
Q 29.09375 50.40625 38.796875 50.40625 
Q 48.5 50.40625 54 51 
L 54 45.203125 
Q 49.703125 45.796875 38.75 45.796875 
Q 27.796875 45.796875 23.5 45.203125 
z
M 52.40625 39 
Q 51.796875 33.59375 51.796875 28.4375 
Q 51.796875 23.296875 52.296875 18.796875 
Q 48.40625 19.203125 38.75 19.203125 
Q 29.09375 19.203125 24.90625 18.796875 
Q 25.59375 24.703125 25.59375 30 
Q 25.59375 35.296875 24.90625 39 
Q 30.40625 38.296875 38.59375 38.296875 
Q 46.796875 38.296875 52.40625 39 
z
M 46.40625 23.40625 
L 46.40625 34.09375 
L 31 34.09375 
L 31 23.40625 
z
M 59 4.09375 
L 54.59375 -0.203125 
Q 47.90625 7.09375 41.5 11.40625 
L 45.5 15.703125 
Q 52.703125 10.703125 59 4.09375 
z
M 74.5 -1.5 
Q 73.296875 -6.59375 71 -9.09375 
Q 68.703125 -11.59375 63.84375 -12.4375 
Q 59 -13.296875 48.140625 -13.296875 
Q 37.296875 -13.296875 34.140625 -12.640625 
Q 31 -12 29.84375 -10.09375 
Q 28.703125 -8.203125 28.703125 -4.40625 
L 28.703125 7.59375 
Q 28.703125 11.90625 28.296875 13.40625 
Q 31 12.5 35.40625 12.5 
Q 36.796875 12.5 36.796875 11.84375 
Q 36.796875 11.203125 35.75 10.25 
Q 34.703125 9.296875 34.703125 6.90625 
L 34.703125 -4 
Q 34.703125 -6.296875 37.046875 -7.1875 
Q 39.40625 -8.09375 48.59375 -8.09375 
Q 55.203125 -8.09375 59.890625 -7.34375 
Q 64.59375 -6.59375 66.296875 -4.6875 
Q 68 -2.796875 68.296875 2.703125 
Q 70.796875 -0.59375 74.5 -1.5 
z
M 23 9.296875 
Q 18.59375 -2.59375 12.5 -11.5 
L 6.296875 -8.296875 
Q 14.296875 0.09375 17.203125 11.40625 
z
M 93.90625 -5.90625 
L 88.5 -10.5 
Q 81.90625 -1 73.296875 5.90625 
L 77.703125 10.296875 
Q 86.5 3.40625 93.90625 -5.90625 
z
" id="STXihei-24863"/>
     <path d="M 61.5 56.40625 
Q 60.5 48.09375 55.640625 41.34375 
Q 50.796875 34.59375 40.90625 27.203125 
Q 39.09375 30.59375 34.90625 31.90625 
Q 53.703125 40.796875 56 56.09375 
Q 46.40625 55.703125 40.5 54.59375 
L 40.5 60.59375 
Q 43.5 60.40625 47.296875 60.40625 
Q 51.09375 60.40625 56.5 60.703125 
Q 56.703125 63.796875 56.703125 67.34375 
Q 56.703125 70.90625 55.796875 76.296875 
Q 58.40625 75.703125 63 75.703125 
Q 64.796875 75.703125 64.796875 74.890625 
Q 64.796875 74.09375 63.9375 73.1875 
Q 63.09375 72.296875 62.6875 70 
Q 62.296875 67.703125 61.90625 61 
Q 76 61.90625 81.59375 62.5 
L 79.796875 38 
Q 79.59375 35.09375 80.25 34.140625 
Q 80.90625 33.203125 83.59375 33.203125 
Q 86.296875 33.203125 87.75 34.640625 
Q 89.203125 36.09375 90 40.90625 
Q 91.796875 37.90625 95.296875 37.203125 
Q 93.796875 32.90625 92.4375 31.09375 
Q 91.09375 29.296875 88.890625 28.6875 
Q 86.703125 28.09375 81.953125 28.09375 
Q 77.203125 28.09375 75.703125 29.5 
Q 74.203125 30.90625 74.203125 34.5 
Q 74.203125 34.796875 74.40625 38 
L 75.59375 57.09375 
z
M 38.09375 63.59375 
L 34.796875 58.703125 
Q 27.59375 64.703125 17.5 69.703125 
L 20.40625 74.203125 
Q 29.703125 69.703125 38.09375 63.59375 
z
M 29.703125 51.703125 
L 26.703125 47.203125 
Q 20.40625 51.59375 9.90625 55.59375 
L 12.203125 60.296875 
Q 20.796875 56.90625 29.703125 51.703125 
z
M 38 42.296875 
Q 24.90625 34.59375 13 25.296875 
L 8.5 31.5 
Q 25.09375 38.203125 35 47.90625 
Q 35.796875 44.703125 38 42.296875 
z
M 54.203125 20.296875 
Q 81.296875 20.296875 94.796875 21.296875 
L 94.796875 14.796875 
Q 81.703125 15.59375 61.90625 15.5 
Q 77.203125 -0.40625 95.59375 -4.203125 
Q 92.40625 -6.5 91 -11.09375 
Q 67.796875 -0.5 56.703125 15.5 
L 54.203125 15.5 
L 54.203125 -6 
Q 54.203125 -11.796875 54.796875 -16.296875 
L 47.40625 -16.296875 
Q 48.203125 -11.203125 48.203125 -6 
L 48.203125 15.5 
L 46.296875 15.5 
Q 35.40625 -0.203125 11 -12.5 
Q 9.5 -9.5 5.296875 -6.296875 
Q 27.40625 -0.09375 40.40625 15.5 
Q 13.90625 15.5 6.796875 14.796875 
L 6.796875 21.296875 
Q 20.203125 20.296875 48.203125 20.296875 
Q 48 27.296875 47.59375 30.09375 
Q 51.40625 29.59375 54.296875 29.59375 
Q 57.203125 29.59375 57.203125 28.84375 
Q 57.203125 28.09375 55.703125 27.34375 
Q 54.203125 26.59375 54.203125 24.59375 
z
" id="STXihei-26579"/>
     <path d="M 45.703125 57.703125 
Q 27.796875 57.703125 17.796875 56.59375 
L 17.796875 63.5 
Q 26.5 62.5 45.703125 62.40625 
Q 45.703125 72.09375 45 76.59375 
Q 47.5 76 52.5 76 
Q 54.296875 76 54.296875 75.296875 
Q 54.296875 74.59375 53.046875 73.59375 
Q 51.796875 72.59375 51.796875 70.09375 
L 51.796875 62.40625 
Q 64.296875 62.5 74.796875 63.5 
L 74.796875 56.796875 
Q 81 63.203125 84.296875 70.09375 
Q 86.90625 66.90625 89.09375 65.796875 
Q 91.296875 64.703125 91.296875 63.59375 
Q 91.296875 62.5 89.390625 62.25 
Q 87.5 62 80.09375 54.75 
Q 72.703125 47.5 67.59375 42.90625 
Q 86.59375 43.40625 95.203125 44.09375 
L 95.203125 36.90625 
Q 82.203125 38 61.796875 38.09375 
Q 53.296875 31.296875 45.5 26.40625 
L 59.703125 26.40625 
Q 73.40625 26.40625 81.203125 27.296875 
Q 80.703125 24.40625 80.703125 19.59375 
L 80.703125 -5 
Q 80.703125 -9.5 81.296875 -15 
L 74.40625 -15 
L 74.40625 -9.203125 
L 35.40625 -9.203125 
L 35.40625 -16.203125 
L 28.796875 -16.203125 
Q 29.296875 -11.90625 29.296875 -6.203125 
L 29.296875 16.90625 
Q 19 11.296875 8.703125 6.796875 
Q 7.5 11.40625 3.296875 13.40625 
Q 14.703125 16.40625 29.203125 23.5 
Q 29.09375 25 28.703125 27.296875 
Q 31.5 26.90625 35.40625 26.796875 
Q 45.203125 32.09375 53.40625 38.203125 
L 32.5 38.203125 
Q 18.90625 38.203125 5.796875 36.90625 
L 5.796875 44.09375 
Q 22.5 42.90625 45.703125 42.796875 
z
M 74.59375 56.59375 
Q 64.203125 57.59375 51.796875 57.703125 
L 51.796875 42.796875 
L 59.203125 42.796875 
Q 69.796875 51.59375 74.59375 56.59375 
z
M 35.40625 12 
L 74.40625 12 
L 74.40625 21.5 
L 37.40625 21.5 
L 35.40625 20.296875 
z
M 74.40625 6.59375 
L 35.40625 6.59375 
L 35.40625 -4.703125 
L 74.40625 -4.703125 
z
" id="STXihei-32773"/>
    </defs>
    <g transform="translate(107.781818 37.2)scale(0.16 -0.16)">
     <use xlink:href="#STXihei-26080"/>
     <use x="99.999985" xlink:href="#STXihei-30151"/>
     <use x="199.999969" xlink:href="#STXihei-29366"/>
     <use x="299.999954" xlink:href="#STXihei-24863"/>
     <use x="399.999939" xlink:href="#STXihei-26579"/>
     <use x="499.999924" xlink:href="#STXihei-32773"/>
    </g>
   </g>
  </g>
  <g id="axes_2">
   <g id="patch_7">
    <path d="M 293.236364 244.8 
L 489.6 244.8 
L 489.6 43.2 
L 293.236364 43.2 
z
" style="fill:#ffffff;"/>
   </g>
   <g id="matplotlib.axis_3">
    <g id="xtick_5">
     <g id="line2d_22">
      <g>
       <use style="stroke:#000000;stroke-width:0.8;" x="293.236364" xlink:href="#ma08f1c91fb" y="244.8"/>
      </g>
     </g>
     <g id="text_14">
      <!-- 0 -->
      <g transform="translate(290.466051 259.159375)scale(0.1 -0.1)">
       <use xlink:href="#STXihei-48"/>
      </g>
     </g>
    </g>
    <g id="xtick_6">
     <g id="line2d_23">
      <g>
       <use style="stroke:#000000;stroke-width:0.8;" x="349.34026" xlink:href="#ma08f1c91fb" y="244.8"/>
      </g>
     </g>
     <g id="text_15">
      <!-- 200 -->
      <g transform="translate(341.029322 259.159375)scale(0.1 -0.1)">
       <use xlink:href="#STXihei-50"/>
       <use x="55.399994" xlink:href="#STXihei-48"/>
       <use x="110.799988" xlink:href="#STXihei-48"/>
      </g>
     </g>
    </g>
    <g id="xtick_7">
     <g id="line2d_24">
      <g>
       <use style="stroke:#000000;stroke-width:0.8;" x="405.444156" xlink:href="#ma08f1c91fb" y="244.8"/>
      </g>
     </g>
     <g id="text_16">
      <!-- 400 -->
      <g transform="translate(397.133218 259.159375)scale(0.1 -0.1)">
       <use xlink:href="#STXihei-52"/>
       <use x="55.399994" xlink:href="#STXihei-48"/>
       <use x="110.799988" xlink:href="#STXihei-48"/>
      </g>
     </g>
    </g>
    <g id="xtick_8">
     <g id="line2d_25">
      <g>
       <use style="stroke:#000000;stroke-width:0.8;" x="461.548052" xlink:href="#ma08f1c91fb" y="244.8"/>
      </g>
     </g>
     <g id="text_17">
      <!-- 600 -->
      <g transform="translate(453.237114 259.159375)scale(0.1 -0.1)">
       <use xlink:href="#STXihei-54"/>
       <use x="55.399994" xlink:href="#STXihei-48"/>
       <use x="110.799988" xlink:href="#STXihei-48"/>
      </g>
     </g>
    </g>
    <g id="text_18">
     <!-- 时间（天） -->
     <g transform="translate(356.418182 281.403125)scale(0.14 -0.14)">
      <use xlink:href="#STXihei-26102"/>
      <use x="99.999985" xlink:href="#STXihei-38388"/>
      <use x="199.999969" xlink:href="#STXihei-65288"/>
      <use x="299.999954" xlink:href="#STXihei-22825"/>
      <use x="399.999939" xlink:href="#STXihei-65289"/>
     </g>
    </g>
   </g>
   <g id="matplotlib.axis_4">
    <g id="ytick_7">
     <g id="line2d_26">
      <g>
       <use style="stroke:#000000;stroke-width:0.8;" x="293.236364" xlink:href="#m01ebaef9dd" y="244.8"/>
      </g>
     </g>
    </g>
    <g id="ytick_8">
     <g id="line2d_27">
      <g>
       <use style="stroke:#000000;stroke-width:0.8;" x="293.236364" xlink:href="#m01ebaef9dd" y="204.48"/>
      </g>
     </g>
    </g>
    <g id="ytick_9">
     <g id="line2d_28">
      <g>
       <use style="stroke:#000000;stroke-width:0.8;" x="293.236364" xlink:href="#m01ebaef9dd" y="164.16"/>
      </g>
     </g>
    </g>
    <g id="ytick_10">
     <g id="line2d_29">
      <g>
       <use style="stroke:#000000;stroke-width:0.8;" x="293.236364" xlink:href="#m01ebaef9dd" y="123.84"/>
      </g>
     </g>
    </g>
    <g id="ytick_11">
     <g id="line2d_30">
      <g>
       <use style="stroke:#000000;stroke-width:0.8;" x="293.236364" xlink:href="#m01ebaef9dd" y="83.52"/>
      </g>
     </g>
    </g>
    <g id="ytick_12">
     <g id="line2d_31">
      <g>
       <use style="stroke:#000000;stroke-width:0.8;" x="293.236364" xlink:href="#m01ebaef9dd" y="43.2"/>
      </g>
     </g>
    </g>
   </g>
   <g id="line2d_32">
    <path clip-path="url(#p7c405df10a)" d="M 293.236364 244.8 
L 301.090909 244.695064 
L 302.774026 244.525552 
L 304.457143 244.105807 
L 305.298701 243.677991 
L 306.14026 243.03223 
L 306.701299 242.394542 
L 307.542857 240.98194 
L 308.103896 239.609699 
L 308.664935 237.753138 
L 309.225974 235.242743 
L 309.787013 231.900932 
L 310.348052 227.412896 
L 310.909091 221.504187 
L 311.47013 213.746987 
L 312.031169 203.778058 
L 312.872727 183.88056 
L 313.714286 157.686896 
L 315.677922 89.034473 
L 316.238961 77.580294 
L 316.519481 74.932676 
L 316.8 74.609795 
L 317.080519 76.692373 
L 317.361039 81.099689 
L 317.922078 96.057119 
L 318.763636 128.207925 
L 320.166234 182.27423 
L 321.007792 205.618476 
L 321.849351 221.366962 
L 322.41039 228.470329 
L 322.971429 233.547622 
L 323.532468 237.131593 
L 324.093506 239.593555 
L 324.654545 241.304821 
L 325.215584 242.459118 
L 326.057143 243.524623 
L 326.898701 244.105807 
L 327.74026 244.428688 
L 328.581818 244.606272 
L 331.667532 244.783856 
L 489.6 244.8 
L 489.6 244.8 
" style="fill:none;stroke:#1f77b4;stroke-linecap:square;stroke-width:1.5;"/>
   </g>
   <g id="line2d_33">
    <path clip-path="url(#p7c405df10a)" d="M 293.236364 244.8 
L 302.493506 244.703136 
L 305.298701 244.452904 
L 306.701299 244.162311 
L 307.823377 243.758711 
L 308.664935 243.298607 
L 309.506494 242.644774 
L 310.348052 241.692277 
L 311.18961 240.33618 
L 312.031169 238.398898 
L 312.872727 235.654416 
L 313.714286 231.81214 
L 314.555844 226.444255 
L 315.397403 219.14716 
L 316.238961 209.404247 
L 317.080519 196.90878 
L 318.202597 176.002281 
L 320.446753 131.339864 
L 321.007792 124.163849 
L 321.568831 120.410365 
L 321.849351 119.974477 
L 322.12987 120.563734 
L 322.41039 122.105487 
L 322.971429 127.973836 
L 323.532468 136.909549 
L 324.654545 160.003562 
L 326.057143 189.200013 
L 327.179221 207.588046 
L 328.020779 217.839495 
L 328.862338 225.45947 
L 329.703896 230.964579 
L 330.545455 234.879503 
L 331.387013 237.640129 
L 332.228571 239.585483 
L 333.07013 240.965796 
L 333.911688 241.942509 
L 334.753247 242.644774 
L 335.875325 243.290535 
L 337.558442 243.887863 
L 341.485714 244.469048 
L 343.449351 244.606272 
L 347.096104 244.711208 
L 353.267532 244.783856 
L 489.6 244.8 
L 489.6 244.8 
" style="fill:none;stroke:#ff7f0e;stroke-linecap:square;stroke-width:1.5;"/>
   </g>
   <g id="line2d_34">
    <path clip-path="url(#p7c405df10a)" d="M 293.236364 244.8 
L 305.018182 244.695064 
L 308.103896 244.509408 
L 311.18961 243.976655 
L 312.592208 243.484263 
L 313.433766 243.080662 
L 314.555844 242.313822 
L 315.677922 241.224101 
L 316.519481 240.110164 
L 317.361039 238.665274 
L 318.202597 236.792569 
L 319.044156 234.395182 
L 319.885714 231.335892 
L 320.727273 227.501688 
L 321.568831 222.755348 
L 322.690909 214.820564 
L 323.812987 205.053435 
L 325.496104 187.948852 
L 326.898701 174.097287 
L 327.74026 167.631609 
L 328.301299 164.628822 
L 328.862338 162.909485 
L 329.142857 162.562388 
L 329.423377 162.57046 
L 329.703896 162.933701 
L 329.984416 163.635965 
L 330.545455 166.041423 
L 331.106494 169.601179 
L 331.948052 176.623825 
L 333.631169 193.494321 
L 335.314286 209.428463 
L 336.436364 218.057439 
L 337.558442 224.902502 
L 338.680519 230.149307 
L 339.802597 234.06423 
L 340.644156 236.324392 
L 341.766234 238.60877 
L 342.607792 239.916436 
L 343.72987 241.248317 
L 344.851948 242.208886 
L 345.974026 242.91115 
L 347.937662 243.710279 
L 349.901299 244.162311 
L 353.267532 244.549768 
L 358.316883 244.735424 
L 363.646753 244.783856 
L 489.6 244.8 
L 489.6 244.8 
" style="fill:none;stroke:#2ca02c;stroke-linecap:square;stroke-width:1.5;"/>
   </g>
   <g id="line2d_35">
    <path clip-path="url(#p7c405df10a)" d="M 293.236364 244.8 
L 308.945455 244.695064 
L 313.994805 244.452904 
L 317.080519 244.081591 
L 319.885714 243.411615 
L 321.849351 242.620558 
L 322.971429 241.982869 
L 324.374026 240.925436 
L 325.215584 240.126308 
L 326.337662 238.826715 
L 327.74026 236.703777 
L 329.142857 233.935078 
L 330.545455 230.399539 
L 331.667532 226.960864 
L 333.07013 221.948147 
L 335.314286 212.721842 
L 336.997403 205.852564 
L 338.119481 202.018361 
L 338.961039 199.822775 
L 339.522078 198.781486 
L 340.083117 198.087293 
L 340.644156 197.804773 
L 341.205195 197.909709 
L 341.766234 198.418245 
L 342.327273 199.28195 
L 343.168831 201.235376 
L 344.01039 203.834562 
L 345.412987 209.089439 
L 349.34026 224.571549 
L 350.742857 229.027297 
L 352.145455 232.700061 
L 353.548052 235.6302 
L 354.950649 237.890362 
L 356.072727 239.327179 
L 357.194805 240.473404 
L 358.316883 241.401685 
L 359.719481 242.289606 
L 361.683117 243.145238 
L 362.805195 243.508479 
L 365.32987 244.065447 
L 368.696104 244.444832 
L 372.062338 244.630488 
L 381.038961 244.783856 
L 489.6 244.8 
L 489.6 244.8 
" style="fill:none;stroke:#d62728;stroke-linecap:square;stroke-width:1.5;"/>
   </g>
   <g id="line2d_36">
    <path clip-path="url(#p7c405df10a)" d="M 293.236364 244.8 
L 316.519481 244.695064 
L 326.618182 244.299536 
L 331.387013 243.790999 
L 335.033766 243.064518 
L 336.997403 242.499478 
L 339.522078 241.514693 
L 342.607792 239.795355 
L 345.693506 237.349537 
L 347.937662 235.097447 
L 350.462338 232.118876 
L 355.511688 226.000295 
L 357.194805 224.458541 
L 358.316883 223.699773 
L 359.438961 223.223524 
L 360.561039 223.04594 
L 361.402597 223.118588 
L 362.524675 223.473756 
L 363.646753 224.111445 
L 364.768831 224.999366 
L 366.171429 226.387751 
L 368.415584 229.003081 
L 372.342857 233.797854 
L 374.306494 235.920792 
L 376.550649 237.987226 
L 378.233766 239.286819 
L 380.758442 240.828572 
L 382.441558 241.635773 
L 384.124675 242.297678 
L 387.21039 243.177527 
L 391.418182 243.912079 
L 399.833766 244.533624 
L 403.480519 244.646632 
L 411.896104 244.743496 
L 414.14026 244.775784 
L 489.6 244.8 
L 489.6 244.8 
" style="fill:none;stroke:#9467bd;stroke-linecap:square;stroke-width:1.5;"/>
   </g>
   <g id="line2d_37">
    <path clip-path="url(#p7c405df10a)" d="M 293.236364 244.8 
L 335.594805 244.695064 
L 341.766234 244.622416 
L 347.657143 244.51748 
L 360 244.057375 
L 361.963636 243.928223 
L 367.012987 243.540767 
L 377.111688 242.281534 
L 384.966234 240.8205 
L 396.187013 238.665274 
L 399.272727 238.302034 
L 400.955844 238.16481 
L 405.724675 238.12445 
L 409.651948 238.431186 
L 421.433766 240.554124 
L 423.397403 240.965796 
L 435.74026 242.999942 
L 450.607792 244.186527 
L 471.646753 244.686992 
L 489.6 244.775784 
L 489.6 244.775784 
" style="fill:none;stroke:#8c564b;stroke-linecap:square;stroke-width:1.5;"/>
   </g>
   <g id="line2d_38">
    <path clip-path="url(#p7c405df10a)" d="M 293.236364 244.8 
L 460.145455 244.695064 
L 464.072727 244.686992 
L 489.6 244.622416 
L 489.6 244.622416 
" style="fill:none;stroke:#e377c2;stroke-linecap:square;stroke-width:1.5;"/>
   </g>
   <g id="line2d_39">
    <path clip-path="url(#p7c405df10a)" d="M 293.236364 244.8 
L 489.6 244.8 
L 489.6 244.8 
" style="fill:none;stroke:#7f7f7f;stroke-linecap:square;stroke-width:1.5;"/>
   </g>
   <g id="line2d_40">
    <path clip-path="url(#p7c405df10a)" d="M 293.236364 244.8 
L 489.6 244.8 
L 489.6 244.8 
" style="fill:none;stroke:#bcbd22;stroke-linecap:square;stroke-width:1.5;"/>
   </g>
   <g id="line2d_41">
    <path clip-path="url(#p7c405df10a)" d="M 293.236364 244.8 
L 489.6 244.8 
L 489.6 244.8 
" style="fill:none;stroke:#17becf;stroke-linecap:square;stroke-width:1.5;"/>
   </g>
   <g id="line2d_42">
    <path clip-path="url(#p7c405df10a)" d="M 293.236364 244.8 
L 489.6 244.8 
L 489.6 244.8 
" style="fill:none;stroke:#1f77b4;stroke-linecap:square;stroke-width:1.5;"/>
   </g>
   <g id="patch_8">
    <path d="M 293.236364 244.8 
L 293.236364 43.2 
" style="fill:none;stroke:#000000;stroke-linecap:square;stroke-linejoin:miter;stroke-width:0.8;"/>
   </g>
   <g id="patch_9">
    <path d="M 489.6 244.8 
L 489.6 43.2 
" style="fill:none;stroke:#000000;stroke-linecap:square;stroke-linejoin:miter;stroke-width:0.8;"/>
   </g>
   <g id="patch_10">
    <path d="M 293.236364 244.8 
L 489.6 244.8 
" style="fill:none;stroke:#000000;stroke-linecap:square;stroke-linejoin:miter;stroke-width:0.8;"/>
   </g>
   <g id="patch_11">
    <path d="M 293.236364 43.2 
L 489.6 43.2 
" style="fill:none;stroke:#000000;stroke-linecap:square;stroke-linejoin:miter;stroke-width:0.8;"/>
   </g>
   <g id="text_19">
    <!-- 感染者 -->
    <g transform="translate(367.418182 37.2)scale(0.16 -0.16)">
     <use xlink:href="#STXihei-24863"/>
     <use x="99.999985" xlink:href="#STXihei-26579"/>
     <use x="199.999969" xlink:href="#STXihei-32773"/>
    </g>
   </g>
  </g>
  <g id="legend_1">
   <g id="line2d_43">
    <path d="M 514.06875 71.709375 
L 534.06875 71.709375 
" style="fill:none;stroke:#1f77b4;stroke-linecap:square;stroke-width:1.5;"/>
   </g>
   <g id="line2d_44"/>
   <g id="text_20">
    <!-- k=0.0 -->
    <defs>
     <path d="M 6.59375 73.59375 
L 13.5 73.59375 
L 13.5 31.703125 
L 38 53.09375 
L 48.09375 53.09375 
L 18.90625 27.796875 
L 49.796875 0 
L 40.09375 0 
L 13.5 23.90625 
L 13.5 0 
L 6.59375 0 
z
" id="STXihei-107"/>
     <path d="M 55 50 
L 55 43.296875 
L 5.59375 43.296875 
L 5.59375 50 
z
M 55 28.5 
L 55 21.796875 
L 5.59375 21.796875 
L 5.59375 28.5 
z
" id="STXihei-61"/>
     <path d="M 9.09375 4.703125 
Q 9.09375 7.203125 10.890625 8.953125 
Q 12.703125 10.703125 15.09375 10.703125 
Q 17.59375 10.703125 19.34375 8.953125 
Q 21.09375 7.203125 21.09375 4.703125 
Q 21.09375 2.09375 19.34375 0.34375 
Q 17.59375 -1.40625 15.09375 -1.40625 
Q 12.703125 -1.40625 10.890625 0.390625 
Q 9.09375 2.203125 9.09375 4.703125 
z
" id="STXihei-46"/>
    </defs>
    <g transform="translate(542.06875 75.209375)scale(0.1 -0.1)">
     <use xlink:href="#STXihei-107"/>
     <use x="50.199997" xlink:href="#STXihei-61"/>
     <use x="110.799988" xlink:href="#STXihei-48"/>
     <use x="166.199982" xlink:href="#STXihei-46"/>
     <use x="193.899979" xlink:href="#STXihei-48"/>
    </g>
   </g>
   <g id="line2d_45">
    <path d="M 514.06875 86.009375 
L 534.06875 86.009375 
" style="fill:none;stroke:#ff7f0e;stroke-linecap:square;stroke-width:1.5;"/>
   </g>
   <g id="line2d_46"/>
   <g id="text_21">
    <!-- k=0.1 -->
    <g transform="translate(542.06875 89.509375)scale(0.1 -0.1)">
     <use xlink:href="#STXihei-107"/>
     <use x="50.199997" xlink:href="#STXihei-61"/>
     <use x="110.799988" xlink:href="#STXihei-48"/>
     <use x="166.199982" xlink:href="#STXihei-46"/>
     <use x="193.899979" xlink:href="#STXihei-49"/>
    </g>
   </g>
   <g id="line2d_47">
    <path d="M 514.06875 100.309375 
L 534.06875 100.309375 
" style="fill:none;stroke:#2ca02c;stroke-linecap:square;stroke-width:1.5;"/>
   </g>
   <g id="line2d_48"/>
   <g id="text_22">
    <!-- k=0.2 -->
    <g transform="translate(542.06875 103.809375)scale(0.1 -0.1)">
     <use xlink:href="#STXihei-107"/>
     <use x="50.199997" xlink:href="#STXihei-61"/>
     <use x="110.799988" xlink:href="#STXihei-48"/>
     <use x="166.199982" xlink:href="#STXihei-46"/>
     <use x="193.899979" xlink:href="#STXihei-50"/>
    </g>
   </g>
   <g id="line2d_49">
    <path d="M 514.06875 114.609375 
L 534.06875 114.609375 
" style="fill:none;stroke:#d62728;stroke-linecap:square;stroke-width:1.5;"/>
   </g>
   <g id="line2d_50"/>
   <g id="text_23">
    <!-- k=0.3 -->
    <g transform="translate(542.06875 118.109375)scale(0.1 -0.1)">
     <use xlink:href="#STXihei-107"/>
     <use x="50.199997" xlink:href="#STXihei-61"/>
     <use x="110.799988" xlink:href="#STXihei-48"/>
     <use x="166.199982" xlink:href="#STXihei-46"/>
     <use x="193.899979" xlink:href="#STXihei-51"/>
    </g>
   </g>
   <g id="line2d_51">
    <path d="M 514.06875 128.909375 
L 534.06875 128.909375 
" style="fill:none;stroke:#9467bd;stroke-linecap:square;stroke-width:1.5;"/>
   </g>
   <g id="line2d_52"/>
   <g id="text_24">
    <!-- k=0.4 -->
    <g transform="translate(542.06875 132.409375)scale(0.1 -0.1)">
     <use xlink:href="#STXihei-107"/>
     <use x="50.199997" xlink:href="#STXihei-61"/>
     <use x="110.799988" xlink:href="#STXihei-48"/>
     <use x="166.199982" xlink:href="#STXihei-46"/>
     <use x="193.899979" xlink:href="#STXihei-52"/>
    </g>
   </g>
   <g id="line2d_53">
    <path d="M 514.06875 143.209375 
L 534.06875 143.209375 
" style="fill:none;stroke:#8c564b;stroke-linecap:square;stroke-width:1.5;"/>
   </g>
   <g id="line2d_54"/>
   <g id="text_25">
    <!-- k=0.5 -->
    <g transform="translate(542.06875 146.709375)scale(0.1 -0.1)">
     <use xlink:href="#STXihei-107"/>
     <use x="50.199997" xlink:href="#STXihei-61"/>
     <use x="110.799988" xlink:href="#STXihei-48"/>
     <use x="166.199982" xlink:href="#STXihei-46"/>
     <use x="193.899979" xlink:href="#STXihei-53"/>
    </g>
   </g>
   <g id="line2d_55">
    <path d="M 514.06875 157.509375 
L 534.06875 157.509375 
" style="fill:none;stroke:#e377c2;stroke-linecap:square;stroke-width:1.5;"/>
   </g>
   <g id="line2d_56"/>
   <g id="text_26">
    <!-- k=0.6 -->
    <g transform="translate(542.06875 161.009375)scale(0.1 -0.1)">
     <use xlink:href="#STXihei-107"/>
     <use x="50.199997" xlink:href="#STXihei-61"/>
     <use x="110.799988" xlink:href="#STXihei-48"/>
     <use x="166.199982" xlink:href="#STXihei-46"/>
     <use x="193.899979" xlink:href="#STXihei-54"/>
    </g>
   </g>
   <g id="line2d_57">
    <path d="M 514.06875 171.809375 
L 534.06875 171.809375 
" style="fill:none;stroke:#7f7f7f;stroke-linecap:square;stroke-width:1.5;"/>
   </g>
   <g id="line2d_58"/>
   <g id="text_27">
    <!-- k=0.7 -->
    <defs>
     <path d="M 7.203125 71.796875 
L 52.703125 71.796875 
L 14.296875 -1.796875 
L 8.40625 1.203125 
L 41.59375 65 
L 7.203125 65 
z
" id="STXihei-55"/>
    </defs>
    <g transform="translate(542.06875 175.309375)scale(0.1 -0.1)">
     <use xlink:href="#STXihei-107"/>
     <use x="50.199997" xlink:href="#STXihei-61"/>
     <use x="110.799988" xlink:href="#STXihei-48"/>
     <use x="166.199982" xlink:href="#STXihei-46"/>
     <use x="193.899979" xlink:href="#STXihei-55"/>
    </g>
   </g>
   <g id="line2d_59">
    <path d="M 514.06875 186.109375 
L 534.06875 186.109375 
" style="fill:none;stroke:#bcbd22;stroke-linecap:square;stroke-width:1.5;"/>
   </g>
   <g id="line2d_60"/>
   <g id="text_28">
    <!-- k=0.8 -->
    <defs>
     <path d="M 38.40625 39.40625 
Q 52 32.703125 52 20.59375 
Q 52 11 45.25 4.59375 
Q 38.5 -1.796875 27.59375 -1.796875 
Q 16.59375 -1.796875 10 4.59375 
Q 3.40625 11 3.40625 20 
Q 3.40625 32.59375 17.296875 39.40625 
Q 6.796875 45 6.796875 54.90625 
Q 6.796875 62.296875 12.9375 67.9375 
Q 19.09375 73.59375 28.09375 73.59375 
Q 36.5 73.59375 42.59375 68.09375 
Q 48.703125 62.59375 48.703125 54.703125 
Q 48.703125 45.09375 38.40625 39.40625 
z
M 41.5 55 
Q 41.5 59.796875 37.75 63.25 
Q 34 66.703125 27.703125 66.703125 
Q 21.90625 66.703125 18 63.25 
Q 14.09375 59.796875 14.09375 54.796875 
Q 14.09375 50 18.34375 46.140625 
Q 22.59375 42.296875 28 42.296875 
Q 33.40625 42.296875 37.453125 46.09375 
Q 41.5 49.90625 41.5 55 
z
M 44.796875 20.5 
Q 44.796875 26.59375 39.84375 31.1875 
Q 34.90625 35.796875 28.09375 35.796875 
Q 20.796875 35.796875 15.6875 31.046875 
Q 10.59375 26.296875 10.59375 19.796875 
Q 10.59375 13.40625 15.296875 9.203125 
Q 20 5 27.703125 5 
Q 35.203125 5 40 9.5 
Q 44.796875 14 44.796875 20.5 
z
" id="STXihei-56"/>
    </defs>
    <g transform="translate(542.06875 189.609375)scale(0.1 -0.1)">
     <use xlink:href="#STXihei-107"/>
     <use x="50.199997" xlink:href="#STXihei-61"/>
     <use x="110.799988" xlink:href="#STXihei-48"/>
     <use x="166.199982" xlink:href="#STXihei-46"/>
     <use x="193.899979" xlink:href="#STXihei-56"/>
    </g>
   </g>
   <g id="line2d_61">
    <path d="M 514.06875 200.409375 
L 534.06875 200.409375 
" style="fill:none;stroke:#17becf;stroke-linecap:square;stroke-width:1.5;"/>
   </g>
   <g id="line2d_62"/>
   <g id="text_29">
    <!-- k=0.9 -->
    <defs>
     <path d="M 19.203125 -1.796875 
L 13.296875 2 
L 32.703125 31.40625 
Q 28.90625 30.09375 25.203125 30.09375 
Q 16.59375 30.09375 10.75 36.296875 
Q 4.90625 42.5 4.90625 51.5 
Q 4.90625 61 11.40625 67.296875 
Q 17.90625 73.59375 27.296875 73.59375 
Q 36.796875 73.59375 42.9375 67.140625 
Q 49.09375 60.703125 49.09375 51.703125 
Q 49.09375 46.703125 47.046875 41.640625 
Q 45 36.59375 41 30.703125 
z
M 11.90625 51.5 
Q 11.90625 45.203125 16.296875 40.796875 
Q 20.703125 36.40625 27 36.40625 
Q 33.296875 36.40625 37.6875 40.84375 
Q 42.09375 45.296875 42.09375 51.5 
Q 42.09375 57.703125 37.6875 62.140625 
Q 33.296875 66.59375 27 66.59375 
Q 20.703125 66.59375 16.296875 62.1875 
Q 11.90625 57.796875 11.90625 51.5 
z
" id="STXihei-57"/>
    </defs>
    <g transform="translate(542.06875 203.909375)scale(0.1 -0.1)">
     <use xlink:href="#STXihei-107"/>
     <use x="50.199997" xlink:href="#STXihei-61"/>
     <use x="110.799988" xlink:href="#STXihei-48"/>
     <use x="166.199982" xlink:href="#STXihei-46"/>
     <use x="193.899979" xlink:href="#STXihei-57"/>
    </g>
   </g>
   <g id="line2d_63">
    <path d="M 514.06875 214.709375 
L 534.06875 214.709375 
" style="fill:none;stroke:#1f77b4;stroke-linecap:square;stroke-width:1.5;"/>
   </g>
   <g id="line2d_64"/>
   <g id="text_30">
    <!-- k=1.0 -->
    <g transform="translate(542.06875 218.209375)scale(0.1 -0.1)">
     <use xlink:href="#STXihei-107"/>
     <use x="50.199997" xlink:href="#STXihei-61"/>
     <use x="110.799988" xlink:href="#STXihei-49"/>
     <use x="166.199982" xlink:href="#STXihei-46"/>
     <use x="193.899979" xlink:href="#STXihei-48"/>
    </g>
   </g>
  </g>
 </g>
 <defs>
  <clipPath id="p2e493a3b67">
   <rect height="201.6" width="196.363636" x="57.6" y="43.2"/>
  </clipPath>
  <clipPath id="p7c405df10a">
   <rect height="201.6" width="196.363636" x="293.236364" y="43.2"/>
  </clipPath>
 </defs>
</svg>
