<?xml version="1.0" encoding="utf-8" standalone="no"?>
<!DOCTYPE svg PUBLIC "-//W3C//DTD SVG 1.1//EN"
  "http://www.w3.org/Graphics/SVG/1.1/DTD/svg11.dtd">
<!-- Created with matplotlib (https://matplotlib.org/) -->
<svg height="360pt" version="1.1" viewBox="0 0 648 360" width="648pt" xmlns="http://www.w3.org/2000/svg" xmlns:xlink="http://www.w3.org/1999/xlink">
 <defs>
  <style type="text/css">
*{stroke-linecap:butt;stroke-linejoin:round;}
  </style>
 </defs>
 <g id="figure_1">
  <g id="patch_1">
   <path d="M 0 360 
L 648 360 
L 648 0 
L 0 0 
z
" style="fill:#ffffff;"/>
  </g>
  <g id="axes_1">
   <g id="patch_2">
    <path d="M 64.8 306 
L 304.278261 306 
L 304.278261 36 
L 64.8 36 
z
" style="fill:#ffffff;"/>
   </g>
   <g id="matplotlib.axis_1">
    <g id="xtick_1">
     <g id="line2d_1">
      <defs>
       <path d="M 0 0 
L 0 3.5 
" id="m0b211cb9f5" style="stroke:#000000;stroke-width:0.8;"/>
      </defs>
      <g>
       <use style="stroke:#000000;stroke-width:0.8;" x="64.8" xlink:href="#m0b211cb9f5" y="306"/>
      </g>
     </g>
     <g id="text_1">
      <!-- 0 -->
      <defs>
       <path d="M 27.296875 -1.796875 
Q 15.703125 -1.796875 9.453125 7.75 
Q 3.203125 17.296875 3.203125 35.90625 
Q 3.203125 54.5 9.453125 64.046875 
Q 15.703125 73.59375 27.296875 73.59375 
Q 38.703125 73.59375 45.453125 63.84375 
Q 52.203125 54.09375 52.203125 35.90625 
Q 52.203125 17.703125 45.390625 7.953125 
Q 38.59375 -1.796875 27.296875 -1.796875 
z
M 27.5 66.796875 
Q 19.203125 66.796875 14.59375 58.796875 
Q 10 50.796875 10 35.703125 
Q 10 4.703125 27.5 4.703125 
Q 36 4.703125 40.75 12.84375 
Q 45.5 21 45.5 35.703125 
Q 45.5 50.796875 40.59375 58.796875 
Q 35.703125 66.796875 27.5 66.796875 
z
" id="STXihei-48"/>
      </defs>
      <g transform="translate(62.029687 320.359375)scale(0.1 -0.1)">
       <use xlink:href="#STXihei-48"/>
      </g>
     </g>
    </g>
    <g id="xtick_2">
     <g id="line2d_2">
      <g>
       <use style="stroke:#000000;stroke-width:0.8;" x="133.22236" xlink:href="#m0b211cb9f5" y="306"/>
      </g>
     </g>
     <g id="text_2">
      <!-- 200 -->
      <defs>
       <path d="M 11.59375 49.296875 
L 4.703125 49.296875 
Q 5.203125 60.296875 12 66.9375 
Q 18.796875 73.59375 28.59375 73.59375 
Q 38.09375 73.59375 44.4375 67.34375 
Q 50.796875 61.09375 50.796875 52.09375 
Q 50.796875 45.40625 47.25 39.703125 
Q 43.703125 34 36.5 26.203125 
L 18.59375 6.90625 
L 51.796875 6.90625 
L 51.796875 0 
L 3 0 
L 30.40625 29.59375 
Q 37.59375 37.40625 40.6875 41.90625 
Q 43.796875 46.40625 43.796875 52 
Q 43.796875 58 39.25 62.390625 
Q 34.703125 66.796875 28.203125 66.796875 
Q 21.203125 66.796875 16.75 62.25 
Q 12.296875 57.703125 11.59375 49.296875 
z
" id="STXihei-50"/>
      </defs>
      <g transform="translate(124.911423 320.359375)scale(0.1 -0.1)">
       <use xlink:href="#STXihei-50"/>
       <use x="55.399994" xlink:href="#STXihei-48"/>
       <use x="110.799988" xlink:href="#STXihei-48"/>
      </g>
     </g>
    </g>
    <g id="xtick_3">
     <g id="line2d_3">
      <g>
       <use style="stroke:#000000;stroke-width:0.8;" x="201.64472" xlink:href="#m0b211cb9f5" y="306"/>
      </g>
     </g>
     <g id="text_3">
      <!-- 400 -->
      <defs>
       <path d="M 42.59375 73.59375 
L 44 73.59375 
L 44 23.59375 
L 52.703125 23.59375 
L 52.703125 16.703125 
L 44 16.703125 
L 44 0 
L 36.90625 0 
L 36.90625 16.703125 
L 2.5 16.703125 
z
M 36.90625 23.59375 
L 36.90625 53.5 
L 15.703125 23.59375 
z
" id="STXihei-52"/>
      </defs>
      <g transform="translate(193.333783 320.359375)scale(0.1 -0.1)">
       <use xlink:href="#STXihei-52"/>
       <use x="55.399994" xlink:href="#STXihei-48"/>
       <use x="110.799988" xlink:href="#STXihei-48"/>
      </g>
     </g>
    </g>
    <g id="xtick_4">
     <g id="line2d_4">
      <g>
       <use style="stroke:#000000;stroke-width:0.8;" x="270.067081" xlink:href="#m0b211cb9f5" y="306"/>
      </g>
     </g>
     <g id="text_4">
      <!-- 600 -->
      <defs>
       <path d="M 36.703125 73.59375 
L 42.59375 69.796875 
L 23.203125 40.40625 
Q 27.296875 41.796875 31 41.796875 
Q 39 41.796875 45 35.4375 
Q 51 29.09375 51 20.09375 
Q 51 10.796875 44.453125 4.5 
Q 37.90625 -1.796875 28.5 -1.796875 
Q 19.203125 -1.796875 12.953125 4.59375 
Q 6.703125 11 6.703125 20.203125 
Q 6.703125 24.59375 8.390625 29.25 
Q 10.09375 33.90625 14.90625 41.09375 
z
M 43.90625 20.296875 
Q 43.90625 26.59375 39.5 31 
Q 35.09375 35.40625 28.796875 35.40625 
Q 22.5 35.40625 18.09375 31 
Q 13.703125 26.59375 13.703125 20.296875 
Q 13.703125 14 18.140625 9.59375 
Q 22.59375 5.203125 28.796875 5.203125 
Q 35 5.203125 39.453125 9.59375 
Q 43.90625 14 43.90625 20.296875 
z
" id="STXihei-54"/>
      </defs>
      <g transform="translate(261.756143 320.359375)scale(0.1 -0.1)">
       <use xlink:href="#STXihei-54"/>
       <use x="55.399994" xlink:href="#STXihei-48"/>
       <use x="110.799988" xlink:href="#STXihei-48"/>
      </g>
     </g>
    </g>
    <g id="text_5">
     <!-- 时间（天） -->
     <defs>
      <path d="M 74.59375 51.09375 
Q 74.59375 70.59375 73.5 76 
Q 76.09375 75.296875 81.296875 75.296875 
Q 83 75.296875 83 74.5 
Q 83 73.703125 81.84375 73.046875 
Q 80.703125 72.40625 80.703125 69.09375 
L 80.703125 51.09375 
Q 89.09375 51.203125 96 51.90625 
L 96 45.203125 
Q 90.59375 45.90625 80.703125 45.90625 
L 80.703125 -3.703125 
Q 80.703125 -8.40625 79.25 -10.90625 
Q 77.796875 -13.40625 73.296875 -14.59375 
Q 68.796875 -15.796875 59.5 -15.796875 
Q 59.5 -11.09375 55.90625 -7.296875 
Q 62.59375 -8.40625 66.640625 -8.40625 
Q 70.703125 -8.40625 72.640625 -6.796875 
Q 74.59375 -5.203125 74.59375 -0.296875 
L 74.59375 46 
L 61.796875 46 
Q 50.90625 46 42.90625 45.203125 
L 42.90625 51.90625 
Q 50.796875 51.09375 61.796875 51.09375 
z
M 15.09375 4.203125 
L 15.09375 -7.59375 
L 8.296875 -7.59375 
Q 9 -1.90625 9 6.703125 
L 9 56.59375 
Q 9 64.59375 8.40625 67.703125 
Q 11.59375 66.90625 24.75 66.90625 
Q 37.90625 66.90625 41.09375 67.703125 
Q 40.5 65.09375 40.5 56.59375 
L 40.5 8.09375 
Q 40.5 1.703125 41.203125 -5.09375 
L 34.296875 -5.09375 
L 34.296875 4.203125 
z
M 34.296875 37.296875 
L 34.296875 61.796875 
L 15.09375 61.796875 
L 15.09375 37.296875 
z
M 34.296875 8.90625 
L 34.296875 32.59375 
L 15.09375 32.59375 
L 15.09375 8.90625 
z
M 68.09375 16.796875 
L 62.296875 13 
Q 57.296875 23.40625 48.296875 32.90625 
L 53.40625 36.296875 
Q 62.796875 25.296875 68.09375 16.796875 
z
" id="STXihei-26102"/>
      <path d="M 34 62.59375 
L 29 57.796875 
Q 24.203125 64.90625 14.796875 71.40625 
L 18.59375 75.796875 
Q 27.796875 69.09375 34 62.59375 
z
M 87.90625 67.703125 
Q 87.203125 64.09375 87.203125 56.40625 
L 87.203125 -4.703125 
Q 87.203125 -9.796875 86.046875 -12.140625 
Q 84.90625 -14.5 81.84375 -15.34375 
Q 78.796875 -16.203125 72.09375 -16.40625 
Q 72.40625 -12.296875 69.40625 -8.90625 
Q 74 -9.703125 76.5 -9.703125 
Q 79 -9.703125 80.140625 -8.796875 
Q 81.296875 -7.90625 81.296875 -5 
L 81.296875 61.796875 
L 62.203125 61.796875 
Q 51.5 61.796875 43.796875 61.203125 
L 43.796875 67.59375 
Q 51.296875 67 66.6875 67 
Q 82.09375 67 87.90625 67.703125 
z
M 11.796875 58 
Q 14.296875 57.09375 15.1875 56.9375 
Q 16.09375 56.796875 18.4375 56.796875 
Q 20.796875 56.796875 20.796875 56.046875 
Q 20.796875 55.296875 19.296875 54.09375 
Q 18.90625 53.796875 18.5 51.796875 
Q 18.09375 49.796875 18.09375 47.5 
L 18.09375 -16.296875 
L 11.296875 -16.296875 
Q 12.296875 -7.296875 12.296875 -2.40625 
L 12.296875 45.40625 
Q 12.296875 51.90625 11.796875 58 
z
M 68.703125 2.59375 
Q 63.203125 3.296875 49.140625 3.296875 
Q 35.09375 3.296875 29.703125 2.59375 
Q 30 7.09375 30 8.796875 
L 30 41.5 
Q 30 44.5 29.703125 47.703125 
Q 35 47 49.09375 47 
Q 63.203125 47 68.703125 47.703125 
Q 68.40625 45.203125 68.40625 41.5 
L 68.40625 8.796875 
Q 68.40625 5.203125 68.703125 2.59375 
z
M 62.59375 27.296875 
L 62.59375 42.203125 
L 35.59375 42.203125 
L 35.59375 27.296875 
z
M 35.59375 22.59375 
L 35.59375 7.796875 
L 62.59375 7.796875 
L 62.59375 22.59375 
z
" id="STXihei-38388"/>
      <path d="M 90.40625 70.59375 
Q 81.703125 60.796875 77.5 51.6875 
Q 73.296875 42.59375 73.296875 33 
Q 73.296875 16.203125 77.34375 7.453125 
Q 81.40625 -1.296875 89.90625 -10.296875 
L 86 -14.203125 
Q 76.40625 -4.796875 71.65625 6.25 
Q 66.90625 17.296875 66.90625 32.90625 
Q 66.90625 43.203125 72.046875 54.34375 
Q 77.203125 65.5 86.796875 74.09375 
z
" id="STXihei-65288"/>
      <path d="M 47.90625 62.203125 
Q 25.90625 62.203125 15.203125 61.40625 
L 15.203125 67.90625 
Q 23.703125 67.09375 51.046875 67.09375 
Q 78.40625 67.09375 86.203125 67.90625 
L 86.203125 61.40625 
Q 78.40625 62.203125 53.796875 62.203125 
Q 54.203125 46.90625 52.296875 35.40625 
Q 84.40625 35.40625 92.796875 36.203125 
L 92.796875 29.59375 
Q 84.90625 30.40625 55 30.40625 
Q 60.203125 17.90625 70.84375 7.34375 
Q 81.5 -3.203125 94.09375 -8.203125 
Q 90.09375 -9.90625 87.796875 -14.59375 
Q 57.59375 6.09375 50.59375 28.09375 
Q 47 14.59375 37.953125 4.296875 
Q 28.90625 -6 11.703125 -15.90625 
Q 10.09375 -12.59375 5.796875 -10.203125 
Q 22.40625 -2.796875 31.75 6.953125 
Q 41.09375 16.703125 44.796875 30.40625 
Q 18.5 30.40625 8.09375 29.59375 
L 8.09375 36.203125 
Q 15.90625 35.40625 46 35.40625 
Q 48.40625 46.796875 47.90625 62.203125 
z
" id="STXihei-22825"/>
      <path d="M 13.203125 74.09375 
Q 22.796875 65.5 27.9375 54.34375 
Q 33.09375 43.203125 33.09375 32.90625 
Q 33.09375 17.296875 28.34375 6.25 
Q 23.59375 -4.796875 14 -14.203125 
L 10.09375 -10.296875 
Q 18.59375 -1.296875 22.640625 7.453125 
Q 26.703125 16.203125 26.703125 33 
Q 26.703125 42.59375 22.5 51.6875 
Q 18.296875 60.796875 9.59375 70.59375 
z
" id="STXihei-65289"/>
     </defs>
     <g transform="translate(149.53913 342.603125)scale(0.14 -0.14)">
      <use xlink:href="#STXihei-26102"/>
      <use x="99.999985" xlink:href="#STXihei-38388"/>
      <use x="199.999969" xlink:href="#STXihei-65288"/>
      <use x="299.999954" xlink:href="#STXihei-22825"/>
      <use x="399.999939" xlink:href="#STXihei-65289"/>
     </g>
    </g>
   </g>
   <g id="matplotlib.axis_2">
    <g id="ytick_1">
     <g id="line2d_5">
      <defs>
       <path d="M 0 0 
L -3.5 0 
" id="m3cb582d1c1" style="stroke:#000000;stroke-width:0.8;"/>
      </defs>
      <g>
       <use style="stroke:#000000;stroke-width:0.8;" x="64.8" xlink:href="#m3cb582d1c1" y="306"/>
      </g>
     </g>
     <g id="text_6">
      <!-- 0 -->
      <g transform="translate(52.259375 309.679688)scale(0.1 -0.1)">
       <use xlink:href="#STXihei-48"/>
      </g>
     </g>
    </g>
    <g id="ytick_2">
     <g id="line2d_6">
      <g>
       <use style="stroke:#000000;stroke-width:0.8;" x="64.8" xlink:href="#m3cb582d1c1" y="252"/>
      </g>
     </g>
     <g id="text_7">
      <!-- 1 -->
      <defs>
       <path d="M 18.5 71.796875 
L 32.59375 71.796875 
L 32.59375 0 
L 25.5 0 
L 25.5 64.796875 
L 14.203125 64.796875 
z
" id="STXihei-49"/>
      </defs>
      <g transform="translate(52.259375 255.679688)scale(0.1 -0.1)">
       <use xlink:href="#STXihei-49"/>
      </g>
     </g>
    </g>
    <g id="ytick_3">
     <g id="line2d_7">
      <g>
       <use style="stroke:#000000;stroke-width:0.8;" x="64.8" xlink:href="#m3cb582d1c1" y="198"/>
      </g>
     </g>
     <g id="text_8">
      <!-- 2 -->
      <g transform="translate(52.259375 201.679688)scale(0.1 -0.1)">
       <use xlink:href="#STXihei-50"/>
      </g>
     </g>
    </g>
    <g id="ytick_4">
     <g id="line2d_8">
      <g>
       <use style="stroke:#000000;stroke-width:0.8;" x="64.8" xlink:href="#m3cb582d1c1" y="144"/>
      </g>
     </g>
     <g id="text_9">
      <!-- 3 -->
      <defs>
       <path d="M 13.203125 55.203125 
L 5.90625 55.203125 
Q 7.90625 64.09375 13.546875 68.84375 
Q 19.203125 73.59375 27 73.59375 
Q 35.5 73.59375 41.546875 68.1875 
Q 47.59375 62.796875 47.59375 55.09375 
Q 47.59375 45.796875 38.40625 40.40625 
Q 44.703125 37.796875 48.140625 32.640625 
Q 51.59375 27.5 51.59375 21.40625 
Q 51.59375 11.90625 44.640625 5.046875 
Q 37.703125 -1.796875 27.09375 -1.796875 
Q 17.703125 -1.796875 11.59375 3.546875 
Q 5.5 8.90625 3.5 19.203125 
L 10.5 19.203125 
Q 12.40625 12.09375 16.34375 8.640625 
Q 20.296875 5.203125 27.203125 5.203125 
Q 34.703125 5.203125 39.59375 9.796875 
Q 44.5 14.40625 44.5 20.796875 
Q 44.5 28 39.09375 32.140625 
Q 33.703125 36.296875 23.40625 36.5 
L 23.40625 43.09375 
Q 30.796875 43.09375 35.4375 46.5 
Q 40.09375 49.90625 40.09375 55.09375 
Q 40.09375 60 36.34375 63.34375 
Q 32.59375 66.703125 27 66.703125 
Q 22 66.703125 18.75 63.84375 
Q 15.5 61 13.203125 55.203125 
z
" id="STXihei-51"/>
      </defs>
      <g transform="translate(52.259375 147.679688)scale(0.1 -0.1)">
       <use xlink:href="#STXihei-51"/>
      </g>
     </g>
    </g>
    <g id="ytick_5">
     <g id="line2d_9">
      <g>
       <use style="stroke:#000000;stroke-width:0.8;" x="64.8" xlink:href="#m3cb582d1c1" y="90"/>
      </g>
     </g>
     <g id="text_10">
      <!-- 4 -->
      <g transform="translate(52.259375 93.679688)scale(0.1 -0.1)">
       <use xlink:href="#STXihei-52"/>
      </g>
     </g>
    </g>
    <g id="ytick_6">
     <g id="line2d_10">
      <g>
       <use style="stroke:#000000;stroke-width:0.8;" x="64.8" xlink:href="#m3cb582d1c1" y="36"/>
      </g>
     </g>
     <g id="text_11">
      <!-- 5 -->
      <defs>
       <path d="M 49.203125 71.796875 
L 49.203125 65 
L 23.59375 65 
L 20 45.40625 
Q 24.796875 46.796875 29 46.796875 
Q 38.40625 46.796875 44.703125 40.140625 
Q 51 33.5 51 23.296875 
Q 51 12.703125 44.140625 5.453125 
Q 37.296875 -1.796875 26 -1.796875 
Q 17.40625 -1.796875 11.34375 3.34375 
Q 5.296875 8.5 4.09375 17.40625 
L 11.40625 17.40625 
Q 12.703125 11.40625 16.796875 8.203125 
Q 20.90625 5 26.296875 5 
Q 33.40625 5 38.546875 10.296875 
Q 43.703125 15.59375 43.703125 23.5 
Q 43.703125 30.703125 39.203125 35.34375 
Q 34.703125 40 27 40 
Q 20.203125 40 11.40625 36.203125 
L 18.09375 71.796875 
z
" id="STXihei-53"/>
      </defs>
      <g transform="translate(52.259375 39.679688)scale(0.1 -0.1)">
       <use xlink:href="#STXihei-53"/>
      </g>
     </g>
    </g>
    <g id="text_12">
     <!-- 每日新增病例（%） -->
     <defs>
      <path d="M 27 60.09375 
Q 20.296875 49 12.296875 39.90625 
Q 10 43.40625 5.703125 44.5 
Q 12.90625 49.59375 19.09375 58.59375 
Q 25.296875 67.59375 28.40625 76.90625 
Q 31 74.703125 35.796875 73.703125 
Q 36.90625 73.5 36.90625 72.796875 
Q 36.90625 72.09375 35.40625 71.546875 
Q 33.90625 71 30.09375 65.203125 
L 75.40625 65.203125 
Q 83.40625 65.203125 90 65.90625 
L 90 59.5 
Q 84.5 60.09375 75.296875 60.09375 
z
M 21.5 28.59375 
L 23 51 
Q 33.203125 50.5 53 50.5 
Q 72.796875 50.5 82.40625 51.09375 
L 81.203125 28.5 
Q 90.703125 28.59375 95.09375 29.203125 
L 95.09375 23 
Q 90.296875 23.59375 80.90625 23.5 
L 79.90625 4.796875 
Q 86.796875 5.40625 89.09375 6.09375 
L 89.09375 -1.5 
Q 86.296875 -0.90625 79.5 -0.59375 
Q 79 -9.203125 75.953125 -12.140625 
Q 72.90625 -15.09375 61.296875 -16.203125 
Q 61.203125 -12.5 58.203125 -8.5 
Q 62.09375 -8.796875 64.40625 -8.796875 
Q 69.703125 -8.796875 71.453125 -6.75 
Q 73.203125 -4.703125 73.59375 -0.296875 
L 42.703125 -0.296875 
Q 29.203125 -0.296875 19.5 -1.296875 
L 21.203125 23.5 
Q 10.703125 23.59375 6.296875 23.09375 
L 6.296875 29.203125 
Q 11.90625 28.59375 21.5 28.59375 
z
M 27.296875 28.5 
L 75.296875 28.5 
L 76.296875 45.59375 
L 28.5 45.59375 
z
M 59.203125 33.703125 
L 55.203125 29.5 
Q 49.09375 35.703125 41.296875 40.796875 
L 44.90625 44.90625 
Q 51.703125 40.59375 59.203125 33.703125 
z
M 75.09375 23.5 
L 27 23.5 
L 25.703125 4.5 
L 74 4.5 
z
M 59.40625 10.703125 
L 55.40625 6.09375 
Q 49.703125 11.90625 40.09375 17.90625 
L 43.296875 22.09375 
Q 51.59375 17 59.40625 10.703125 
z
" id="STXihei-27599"/>
      <path d="M 26.40625 -2.09375 
L 26.40625 -12.90625 
L 18.296875 -12.90625 
Q 19.90625 -5.203125 19.90625 2.296875 
L 19.90625 58 
Q 19.90625 63.296875 19.09375 67.59375 
Q 33.296875 67.09375 50.640625 67.09375 
Q 68 67.09375 82.09375 67.59375 
Q 80.40625 63.5 80.40625 58.09375 
L 80.40625 5.703125 
Q 80.40625 -6.703125 81.5 -11.40625 
L 73.796875 -11.40625 
L 73.796875 -2.09375 
z
M 26.40625 34.703125 
L 73.796875 34.703125 
L 73.796875 61.90625 
L 26.40625 61.90625 
z
M 73.796875 29.90625 
L 26.40625 29.90625 
L 26.40625 3 
L 73.796875 3 
z
" id="STXihei-26085"/>
      <path d="M 36.203125 67.90625 
L 32.5 63.40625 
Q 27.59375 68.203125 20.5 71.703125 
L 23.5 75.796875 
Q 30.703125 72.5 36.203125 67.90625 
z
M 65.5 41.296875 
L 79.40625 41.296875 
Q 92.203125 41.296875 97.203125 42 
L 97.203125 36 
Q 92.5 36.703125 83.5 36.703125 
L 83.5 0.09375 
Q 83.5 -8.09375 84.203125 -15.796875 
L 77.203125 -15.796875 
Q 77.796875 -9.796875 77.796875 0.09375 
L 77.796875 36.703125 
L 65.5 36.703125 
Q 65.40625 13.59375 61.953125 3.34375 
Q 58.5 -6.90625 50.296875 -16.296875 
Q 46.90625 -14.203125 42.703125 -13.90625 
Q 52 -6.59375 56.046875 4.546875 
Q 60.09375 15.703125 60.09375 34.390625 
Q 60.09375 53.09375 58.59375 66 
Q 76.5 66 89 74.703125 
Q 90.703125 71 91.796875 69.953125 
Q 92.90625 68.90625 92.90625 68.203125 
Q 92.90625 67.5 91.796875 67.5 
L 90.59375 67.703125 
Q 89.296875 67.703125 82 65.5 
Q 74.703125 63.296875 65.5 61.40625 
z
M 55.5 57.296875 
Q 47.40625 58.203125 31.90625 58.203125 
Q 16.40625 58.203125 8.296875 57.296875 
L 8.296875 63.5 
Q 16.40625 62.59375 32.40625 62.59375 
Q 48.40625 62.59375 55.5 63.5 
z
M 34 39.59375 
Q 39 48.296875 41.703125 56.40625 
Q 45.09375 54.796875 47.140625 54.140625 
Q 49.203125 53.5 49.203125 52.640625 
Q 49.203125 51.796875 48.203125 51.203125 
Q 44.703125 49.203125 39 39.59375 
Q 49.09375 39.59375 56.59375 40.296875 
L 56.59375 34.59375 
Q 49.59375 35.296875 35.09375 35.296875 
L 35.09375 23.5 
Q 48.796875 23.703125 55.40625 24.5 
L 55.40625 18.09375 
Q 48.796875 18.90625 35.09375 19.09375 
L 35.09375 -7.703125 
Q 35.09375 -12.40625 31.6875 -13.34375 
Q 28.296875 -14.296875 20.5 -14.296875 
Q 20.703125 -13.59375 20.703125 -12.90625 
Q 20.703125 -10 17.59375 -7.203125 
Q 22.703125 -8.203125 26.09375 -8.203125 
Q 29.5 -8.203125 29.5 -5.296875 
L 29.5 19.09375 
Q 17.203125 19.09375 9.203125 18.09375 
L 9.203125 24.5 
Q 17.203125 23.5 29.5 23.5 
L 29.5 35.296875 
Q 13.296875 35.296875 6.203125 34.59375 
L 6.203125 40.296875 
Q 13.5 39.59375 34 39.59375 
z
M 28.5 44.40625 
L 24.703125 40.296875 
Q 20.59375 46.5 14.203125 51.296875 
L 18 54.59375 
Q 24.203125 50 28.5 44.40625 
z
M 17.90625 15.90625 
Q 20 13.796875 21.890625 13.390625 
Q 23.796875 13 23.796875 11.75 
Q 23.796875 10.5 22.296875 9.90625 
Q 21.5 9.59375 20.046875 7.890625 
Q 18.59375 6.203125 16.140625 1.703125 
Q 13.703125 -2.796875 11.09375 -6.59375 
Q 8.703125 -3.796875 6 -3.296875 
Q 13.203125 5 17.90625 15.90625 
z
M 52.703125 2 
L 48.09375 -1.59375 
Q 44.09375 5.703125 39 10.90625 
L 43.203125 14.09375 
Q 49.90625 7.296875 52.703125 2 
z
" id="STXihei-26032"/>
      <path d="M 70 59.40625 
Q 76.59375 68.59375 79.5 75.59375 
Q 81.796875 73.296875 85.703125 71.796875 
Q 87 71.296875 87 70.546875 
Q 87 69.796875 85.546875 69.4375 
Q 84.09375 69.09375 82.046875 67.1875 
Q 80 65.296875 75.59375 59.5 
Q 85.40625 59.59375 93.09375 60.203125 
Q 92.40625 54.5 92.40625 43.59375 
Q 92.40625 32.703125 93.09375 27.703125 
Q 85.90625 28.5 67 28.5 
Q 48.09375 28.5 37 27.703125 
Q 37.703125 34.703125 37.703125 43.796875 
Q 37.703125 52.90625 37 60.203125 
Q 46.5 59.40625 55.703125 59.40625 
z
M 62.203125 32.703125 
L 62.203125 55.203125 
L 43.296875 55.203125 
L 43.296875 32.703125 
z
M 59.5 39.09375 
L 54.796875 36.09375 
Q 51 43.796875 45.703125 48.59375 
L 49.90625 51.90625 
Q 55.40625 46 59.5 39.09375 
z
M 67.796875 55.203125 
L 67.796875 32.703125 
L 86.796875 32.703125 
L 86.796875 55.203125 
z
M 78.203125 52.703125 
Q 80.5 50.59375 82.75 50.140625 
Q 85 49.703125 85 49.046875 
Q 85 48.40625 83.59375 47.796875 
Q 81.5 46.90625 74.203125 35.40625 
L 69.703125 37.703125 
Q 75.5 44.40625 78.203125 52.703125 
z
M 59.796875 64.09375 
L 55.40625 60.203125 
Q 50.5 66.703125 43.5 70.90625 
L 47.296875 75.09375 
Q 53.703125 70.796875 59.796875 64.09375 
z
M 18.796875 40.296875 
Q 10.09375 40.296875 5.5 39.296875 
L 5.5 46.09375 
Q 10.09375 45.09375 18.796875 45.09375 
Q 18.796875 67.59375 18 74.40625 
Q 21.09375 73.59375 25.59375 73.59375 
Q 27.296875 73.59375 27.296875 72.84375 
Q 27.296875 72.09375 26 71.296875 
Q 24.703125 70.5 24.703125 68.59375 
L 24.703125 45.203125 
Q 31 45.40625 34.90625 46.09375 
L 34.90625 39.296875 
Q 31 40.09375 24.703125 40.203125 
L 24.703125 7.703125 
Q 30.59375 9.703125 36.59375 12.296875 
Q 36.40625 11.40625 36.40625 9.75 
Q 36.40625 8.09375 37 5.796875 
Q 22.203125 2 6.703125 -4.203125 
Q 6.296875 -0.40625 3.296875 3 
Q 11.5 4.09375 18.796875 6 
z
M 48.796875 -9.90625 
L 48.796875 -15.296875 
L 42.203125 -15.296875 
Q 42.90625 -10.59375 42.90625 -5.59375 
L 42.90625 10.796875 
Q 42.90625 18.40625 42.203125 21.796875 
Q 49.09375 21 66.296875 21 
Q 83.5 21 88.59375 21.796875 
Q 88 17.90625 88 10.796875 
L 88 -4.203125 
Q 88 -8.5 88.59375 -14.703125 
L 82 -14.703125 
L 82 -9.90625 
z
M 48.796875 7.90625 
L 82 7.90625 
L 82 16.5 
L 48.796875 16.5 
z
M 82 3.40625 
L 48.796875 3.40625 
L 48.796875 -5.40625 
L 82 -5.40625 
z
" id="STXihei-22686"/>
      <path d="M 19.59375 31.5 
Q 19.703125 43.5 18 64.59375 
Q 24.203125 63.90625 53 63.90625 
Q 50.796875 68 47 71.59375 
L 52.59375 75 
Q 56.09375 70.5 59.203125 63.90625 
Q 88.59375 63.90625 92.90625 64.59375 
L 92.90625 58.40625 
Q 84.59375 59.09375 64.296875 59.09375 
L 24.59375 59.09375 
Q 25.203125 43.59375 25.203125 34.203125 
Q 25.203125 15.90625 22.75 6.15625 
Q 20.296875 -3.59375 13.703125 -14.59375 
Q 11.5 -11.796875 7.296875 -11 
Q 13.40625 -2.796875 16.203125 5.640625 
Q 19 14.09375 19.5 25.59375 
Q 11.296875 19.703125 7.203125 16.203125 
Q 6.09375 19.40625 3.59375 22.09375 
Q 11.40625 25.203125 19.59375 31.5 
z
M 17.59375 41.59375 
L 12.40625 38.203125 
Q 8.796875 47 3.703125 53.5 
L 8.40625 57.09375 
Q 13.5 50.796875 17.59375 41.59375 
z
M 59.40625 45.09375 
Q 37.09375 44.90625 28.09375 44 
L 28.09375 50.90625 
Q 38.59375 49.796875 61.84375 49.796875 
Q 85.09375 49.796875 95.09375 50.90625 
L 95.09375 44 
Q 83.90625 45.09375 65.09375 45.09375 
Q 65.203125 38.703125 64.90625 32.703125 
Q 81.09375 32.703125 90.90625 33.40625 
Q 90.59375 30 90.59375 25.203125 
L 90.59375 -5.5 
Q 90.59375 -10.703125 87.59375 -12.453125 
Q 84.59375 -14.203125 74.796875 -14.796875 
Q 74.5 -10.796875 71.59375 -7.296875 
Q 76.5 -8.09375 79.296875 -8.09375 
Q 82.09375 -8.09375 83.390625 -7.25 
Q 84.703125 -6.40625 84.703125 -3.703125 
L 84.703125 28.09375 
L 64.5 28.09375 
Q 63.90625 23.203125 62.90625 19.703125 
Q 76.5 10.40625 82.59375 4.90625 
L 77.40625 -0.203125 
Q 72.203125 6.703125 61.296875 14.59375 
Q 57.703125 5 45.09375 -3.40625 
Q 43.203125 -0.5 39.40625 1.296875 
Q 49.90625 5.796875 53.84375 12.5 
Q 57.796875 19.203125 58.796875 28.09375 
L 38.5 28.09375 
L 38.5 -14.90625 
L 31.90625 -14.90625 
Q 32.59375 -8.203125 32.59375 -1.59375 
L 32.59375 25.5 
Q 32.59375 31 32.203125 33.5 
Q 43.90625 32.703125 59.09375 32.703125 
Q 59.5 37.796875 59.40625 45.09375 
z
" id="STXihei-30149"/>
      <path d="M 16.203125 45.203125 
Q 12.703125 37.703125 8.09375 30.703125 
Q 5.90625 33.5 2.203125 34.296875 
Q 15.703125 51.296875 21.90625 76.203125 
Q 24.90625 74.40625 27.34375 74.25 
Q 29.796875 74.09375 29.796875 73.4375 
Q 29.796875 72.796875 28.75 72.09375 
Q 27.703125 71.40625 26.34375 68.84375 
Q 25 66.296875 21.796875 58.296875 
L 21.796875 -15.59375 
L 15.09375 -15.59375 
Q 16.203125 -6.59375 16.203125 3.90625 
z
M 83.40625 73.296875 
Q 85.703125 72.703125 87.34375 72.640625 
Q 89 72.59375 90.5 72.59375 
Q 92 72.59375 92 71.75 
Q 92 70.90625 90.890625 70.296875 
Q 89.796875 69.703125 89.796875 67.703125 
L 89.796875 -5.09375 
Q 89.796875 -9.09375 88.546875 -11.046875 
Q 87.296875 -13 83.390625 -14.046875 
Q 79.5 -15.09375 70.796875 -15.703125 
Q 70.796875 -12.296875 70.09375 -10.890625 
Q 69.40625 -9.5 68 -8.09375 
Q 73.09375 -8.5 76.203125 -8.5 
Q 81.296875 -8.5 82.75 -7.453125 
Q 84.203125 -6.40625 84.203125 -3.703125 
L 84.203125 56.90625 
Q 84.203125 67.09375 83.40625 73.296875 
z
M 40.59375 61.703125 
Q 34.59375 61.703125 28.59375 61 
L 28.59375 67.40625 
Q 36.40625 66.59375 47.453125 66.59375 
Q 58.5 66.59375 66.40625 67.40625 
L 66.40625 61 
Q 58.59375 61.796875 46.203125 61.796875 
Q 45.5 53 42.90625 44.59375 
L 55.09375 44.59375 
Q 59 44.59375 63.09375 45.203125 
Q 60.59375 21.703125 54.84375 9.390625 
Q 49.09375 -2.90625 33 -14.5 
Q 31.296875 -10.90625 27.09375 -10 
Q 43.09375 -1.296875 49.703125 12.203125 
Q 42.5 19.59375 35.796875 23.90625 
L 39.203125 28.5 
Q 45.5 23.703125 52 17.40625 
Q 55.296875 26.296875 57 39.796875 
L 41.296875 39.796875 
Q 37.40625 29.703125 30.90625 21.40625 
Q 28.5 24.296875 25.203125 24.796875 
Q 32.09375 31.796875 35.59375 40.296875 
Q 39.09375 48.796875 40.59375 61.703125 
z
M 68.796875 55.703125 
Q 71 54.90625 76.09375 54.90625 
Q 77.203125 54.90625 77.203125 54.25 
Q 77.203125 53.59375 76.140625 52.9375 
Q 75.09375 52.296875 75.09375 50.296875 
L 75.09375 24.40625 
Q 75.09375 19.796875 75.796875 8.5 
L 68.90625 8.5 
Q 69.59375 17.296875 69.59375 24.40625 
L 69.59375 42.40625 
Q 69.59375 50 68.796875 55.703125 
z
" id="STXihei-20363"/>
      <path d="M 67.40625 75 
L 15.09375 -5 
L 8.59375 -5 
L 56.296875 67.90625 
Q 50.5 66.5 44.453125 66.09375 
Q 38.40625 65.703125 35.59375 65.796875 
L 33 65.90625 
Q 36 61.703125 36 57 
Q 36 49.796875 31.140625 44.75 
Q 26.296875 39.703125 19 39.703125 
Q 12 39.703125 7.09375 44.59375 
Q 2.203125 49.5 2.203125 56.59375 
Q 2.203125 63.703125 7.25 68.59375 
Q 12.296875 73.5 18.90625 73.5 
Q 21.59375 73.5 25 72.796875 
Q 31.59375 71.40625 38.90625 71.40625 
Q 50.5 71.40625 61.703125 75 
z
M 29.90625 56.703125 
Q 29.90625 61.203125 26.75 64.296875 
Q 23.59375 67.40625 19.09375 67.40625 
Q 14.703125 67.40625 11.546875 64.25 
Q 8.40625 61.09375 8.40625 56.703125 
Q 8.40625 52.296875 11.546875 49.140625 
Q 14.703125 46 19.09375 46 
Q 23.59375 46 26.75 49.09375 
Q 29.90625 52.203125 29.90625 56.703125 
z
M 41.5 14.796875 
Q 41.5 21.703125 46.453125 26.703125 
Q 51.40625 31.703125 58.296875 31.703125 
Q 65.296875 31.703125 70.25 26.75 
Q 75.203125 21.796875 75.203125 14.796875 
Q 75.203125 7.796875 70.25 2.84375 
Q 65.296875 -2.09375 58.296875 -2.09375 
Q 51.40625 -2.09375 46.453125 2.84375 
Q 41.5 7.796875 41.5 14.796875 
z
M 69.09375 14.796875 
Q 69.09375 19.203125 65.9375 22.34375 
Q 62.796875 25.5 58.296875 25.5 
Q 53.90625 25.5 50.796875 22.34375 
Q 47.703125 19.203125 47.703125 14.796875 
Q 47.703125 10.40625 50.796875 7.25 
Q 53.90625 4.09375 58.296875 4.09375 
Q 62.796875 4.09375 65.9375 7.1875 
Q 69.09375 10.296875 69.09375 14.796875 
z
" id="STXihei-37"/>
     </defs>
     <g transform="translate(34.5425 232.425)rotate(-90)scale(0.14 -0.14)">
      <use xlink:href="#STXihei-27599"/>
      <use x="99.999985" xlink:href="#STXihei-26085"/>
      <use x="199.999969" xlink:href="#STXihei-26032"/>
      <use x="299.999954" xlink:href="#STXihei-22686"/>
      <use x="399.999939" xlink:href="#STXihei-30149"/>
      <use x="499.999924" xlink:href="#STXihei-20363"/>
      <use x="599.999908" xlink:href="#STXihei-65288"/>
      <use x="699.999893" xlink:href="#STXihei-37"/>
      <use x="777.499878" xlink:href="#STXihei-65289"/>
     </g>
    </g>
   </g>
   <g id="line2d_11">
    <path clip-path="url(#p5a9c36113b)" d="M 64.8 306 
L 74.721242 305.902703 
L 77.800248 305.600003 
L 79.168696 305.25406 
L 80.537143 304.627038 
L 81.221366 304.129745 
L 82.247702 303.027051 
L 82.931925 301.956789 
L 83.616149 300.508152 
L 84.300373 298.551411 
L 84.984596 295.946026 
L 85.66882 292.454163 
L 86.353043 287.848794 
L 87.037267 281.805599 
L 87.721491 274.032688 
L 88.405714 264.238172 
L 89.43205 245.427512 
L 90.800497 214.162898 
L 91.826832 190.984705 
L 92.511056 179.438851 
L 92.853168 175.698341 
L 93.19528 173.633492 
L 93.537391 173.384846 
L 93.879503 175.006454 
L 94.221615 178.444265 
L 94.905839 190.098225 
L 95.932174 215.146674 
L 97.300621 249.816666 
L 98.326957 270.097585 
L 99.01118 280.162369 
L 99.695404 287.740687 
L 100.379627 293.275778 
L 101.063851 297.232503 
L 101.748075 300.021669 
L 102.432298 301.945978 
L 103.116522 303.275697 
L 103.800745 304.172988 
L 104.827081 305.005413 
L 105.853416 305.459464 
L 106.879752 305.70811 
L 108.248199 305.870271 
L 110.30087 305.956757 
L 112.35354 305.989189 
L 304.278261 306 
L 304.278261 306 
" style="fill:none;stroke:#1f77b4;stroke-linecap:square;stroke-width:1.5;"/>
   </g>
   <g id="line2d_12">
    <path clip-path="url(#p5a9c36113b)" d="M 64.8 306 
L 76.773913 305.902703 
L 80.879255 305.567571 
L 82.931925 305.091899 
L 84.300373 304.50812 
L 85.326708 303.859477 
L 86.353043 302.908133 
L 87.379379 301.578414 
L 88.063602 300.378423 
L 88.747826 298.875733 
L 89.774161 295.881162 
L 90.800497 291.697412 
L 91.826832 286.010971 
L 92.853168 278.421842 
L 93.879503 268.68138 
L 94.905839 256.767962 
L 97.984845 217.589897 
L 98.669068 212.000753 
L 99.01118 210.17374 
L 99.353292 209.071046 
L 99.695404 208.735914 
L 100.037516 209.189964 
L 100.379627 210.389955 
L 100.721739 212.346696 
L 101.405963 218.195298 
L 102.432298 230.519523 
L 105.169193 266.648964 
L 106.195528 277.005638 
L 107.221863 284.994763 
L 108.248199 290.92985 
L 109.274534 295.221708 
L 109.958758 297.373042 
L 110.985093 299.783834 
L 112.011429 301.491928 
L 113.037764 302.691918 
L 114.064099 303.545966 
L 115.432547 304.324338 
L 117.143106 304.908117 
L 118.853665 305.286492 
L 122.959006 305.70811 
L 127.064348 305.870271 
L 137.327702 305.978379 
L 141.090932 305.989189 
L 304.278261 306 
L 304.278261 306 
" style="fill:none;stroke:#ff7f0e;stroke-linecap:square;stroke-width:1.5;"/>
   </g>
   <g id="line2d_13">
    <path clip-path="url(#p5a9c36113b)" d="M 64.8 306 
L 79.852919 305.902703 
L 86.695155 305.362167 
L 88.747826 304.886495 
L 90.800497 304.06488 
L 92.168944 303.210833 
L 93.19528 302.345975 
L 94.221615 301.22166 
L 95.24795 299.762212 
L 96.274286 297.891957 
L 97.300621 295.513597 
L 98.326957 292.519027 
L 99.353292 288.821759 
L 100.379627 284.324498 
L 101.748075 277.059691 
L 103.458634 266.270588 
L 105.853416 250.908549 
L 106.879752 245.870752 
L 107.563975 243.524825 
L 108.248199 242.184295 
L 108.590311 241.914027 
L 108.932422 241.924837 
L 109.274534 242.205916 
L 109.616646 242.757263 
L 110.30087 244.627518 
L 110.985093 247.405875 
L 112.011429 252.876101 
L 113.721988 263.784122 
L 115.774658 276.529966 
L 117.143106 283.600179 
L 118.169441 288.000144 
L 119.195776 291.621737 
L 120.222112 294.583875 
L 121.248447 296.951424 
L 122.274783 298.854111 
L 123.301118 300.356802 
L 124.327453 301.545982 
L 125.353789 302.486515 
L 126.722236 303.437858 
L 128.090683 304.129745 
L 129.801242 304.735145 
L 131.853913 305.210817 
L 135.275031 305.643246 
L 141.090932 305.913514 
L 304.278261 306 
L 304.278261 306 
" style="fill:none;stroke:#2ca02c;stroke-linecap:square;stroke-width:1.5;"/>
   </g>
   <g id="line2d_14">
    <path clip-path="url(#p5a9c36113b)" d="M 64.8 306 
L 84.984596 305.902703 
L 88.063602 305.816218 
L 92.511056 305.567571 
L 96.274286 305.113521 
L 99.01118 304.50812 
L 100.721739 303.935152 
L 102.090186 303.351373 
L 104.142857 302.129761 
L 105.511304 301.037878 
L 106.879752 299.686537 
L 108.248199 298.000064 
L 109.616646 295.956837 
L 110.985093 293.481181 
L 112.35354 290.616339 
L 114.406211 285.578542 
L 118.853665 274.075931 
L 119.88 272.032704 
L 120.906335 270.508392 
L 121.590559 269.827317 
L 122.274783 269.448941 
L 122.959006 269.384077 
L 123.64323 269.611102 
L 124.327453 270.162449 
L 125.011677 270.984064 
L 126.038012 272.681348 
L 127.064348 274.843493 
L 128.774907 279.059675 
L 132.538137 288.68122 
L 134.248696 292.389298 
L 135.617143 294.929818 
L 137.327702 297.546014 
L 138.696149 299.232487 
L 139.722484 300.302748 
L 141.433043 301.740575 
L 143.143602 302.832458 
L 144.854161 303.654073 
L 147.248944 304.464877 
L 149.985839 305.048656 
L 152.038509 305.351357 
L 157.170186 305.740543 
L 167.43354 305.956757 
L 304.278261 306 
L 304.278261 306 
" style="fill:none;stroke:#d62728;stroke-linecap:square;stroke-width:1.5;"/>
   </g>
   <g id="line2d_15">
    <path clip-path="url(#p5a9c36113b)" d="M 64.8 306 
L 94.905839 305.891893 
L 110.30087 305.308114 
L 118.169441 304.20542 
L 121.248447 303.437858 
L 124.327453 302.378407 
L 127.064348 301.135174 
L 129.801242 299.567619 
L 132.196025 297.956821 
L 136.98559 294.194689 
L 139.722484 292.075787 
L 141.775155 290.702825 
L 143.485714 289.827157 
L 144.854161 289.340674 
L 146.56472 289.059595 
L 147.933168 289.102838 
L 149.643727 289.481213 
L 151.012174 290.03256 
L 153.064845 291.189308 
L 155.459627 292.897402 
L 164.354534 299.513565 
L 167.091429 301.048688 
L 169.486211 302.140571 
L 171.880994 303.027051 
L 174.96 303.891909 
L 177.354783 304.400013 
L 180.433789 304.875685 
L 184.881242 305.329735 
L 188.644472 305.578382 
L 203.013168 305.924325 
L 304.278261 306 
L 304.278261 306 
" style="fill:none;stroke:#9467bd;stroke-linecap:square;stroke-width:1.5;"/>
   </g>
   <g id="line2d_16">
    <path clip-path="url(#p5a9c36113b)" d="M 64.8 306 
L 119.88 305.891893 
L 124.327453 305.859461 
L 132.538137 305.751353 
L 157.170186 304.875685 
L 175.986335 302.983808 
L 191.723478 301.102742 
L 198.565714 300.767609 
L 204.039503 300.875717 
L 207.118509 301.07031 
L 215.671304 301.989221 
L 233.80323 304.183798 
L 239.277019 304.637849 
L 243.724472 304.95136 
L 251.935155 305.362167 
L 268.356522 305.772975 
L 279.988323 305.881082 
L 284.777888 305.924325 
L 304.278261 305.978379 
L 304.278261 305.978379 
" style="fill:none;stroke:#8c564b;stroke-linecap:square;stroke-width:1.5;"/>
   </g>
   <g id="line2d_17">
    <path clip-path="url(#p5a9c36113b)" d="M 64.8 306 
L 284.093665 305.891893 
L 287.856894 305.881082 
L 304.278261 305.859461 
L 304.278261 305.859461 
" style="fill:none;stroke:#e377c2;stroke-linecap:square;stroke-width:1.5;"/>
   </g>
   <g id="line2d_18">
    <path clip-path="url(#p5a9c36113b)" d="M 64.8 306 
L 304.278261 306 
L 304.278261 306 
" style="fill:none;stroke:#7f7f7f;stroke-linecap:square;stroke-width:1.5;"/>
   </g>
   <g id="line2d_19">
    <path clip-path="url(#p5a9c36113b)" d="M 64.8 306 
L 304.278261 306 
L 304.278261 306 
" style="fill:none;stroke:#bcbd22;stroke-linecap:square;stroke-width:1.5;"/>
   </g>
   <g id="line2d_20">
    <path clip-path="url(#p5a9c36113b)" d="M 64.8 306 
L 304.278261 306 
L 304.278261 306 
" style="fill:none;stroke:#17becf;stroke-linecap:square;stroke-width:1.5;"/>
   </g>
   <g id="line2d_21">
    <path clip-path="url(#p5a9c36113b)" d="M 64.8 306 
L 304.278261 306 
L 304.278261 306 
" style="fill:none;stroke:#1f77b4;stroke-linecap:square;stroke-width:1.5;"/>
   </g>
   <g id="patch_3">
    <path d="M 64.8 306 
L 64.8 36 
" style="fill:none;stroke:#000000;stroke-linecap:square;stroke-linejoin:miter;stroke-width:0.8;"/>
   </g>
   <g id="patch_4">
    <path d="M 304.278261 306 
L 304.278261 36 
" style="fill:none;stroke:#000000;stroke-linecap:square;stroke-linejoin:miter;stroke-width:0.8;"/>
   </g>
   <g id="patch_5">
    <path d="M 64.8 306 
L 304.278261 306 
" style="fill:none;stroke:#000000;stroke-linecap:square;stroke-linejoin:miter;stroke-width:0.8;"/>
   </g>
   <g id="patch_6">
    <path d="M 64.8 36 
L 304.278261 36 
" style="fill:none;stroke:#000000;stroke-linecap:square;stroke-linejoin:miter;stroke-width:0.8;"/>
   </g>
   <g id="text_13">
    <!-- 无症状感染者 -->
    <defs>
     <path d="M 43.703125 62.203125 
Q 22 62.203125 15.09375 61.703125 
L 15.09375 67.90625 
Q 22.203125 67.296875 48.796875 67.296875 
Q 75.40625 67.296875 82.203125 67.796875 
L 82.203125 61.59375 
Q 76.296875 62.203125 50.5 62.203125 
Q 50.40625 48.09375 48.796875 37.09375 
Q 83.703125 37.09375 89.59375 37.59375 
L 89.59375 31.40625 
Q 82.59375 32 60.296875 32 
L 60.296875 2 
Q 60.296875 -0.90625 61.046875 -2.25 
Q 61.796875 -3.59375 64.296875 -4.1875 
Q 66.796875 -4.796875 73.140625 -4.796875 
Q 79.5 -4.796875 82.453125 -4.046875 
Q 85.40625 -3.296875 86.75 -0.796875 
Q 88.09375 1.703125 88.5 7.59375 
Q 91.203125 4.5 95.703125 3.796875 
Q 93.296875 -3.40625 91.6875 -6.046875 
Q 90.09375 -8.703125 86.6875 -9.640625 
Q 83.296875 -10.59375 74.5 -10.59375 
Q 65.703125 -10.59375 61.390625 -10 
Q 57.09375 -9.40625 55.640625 -7.796875 
Q 54.203125 -6.203125 54.203125 -2.796875 
L 54.203125 32.09375 
L 47.90625 32.09375 
Q 45.296875 18 37.75 7.953125 
Q 30.203125 -2.09375 11.796875 -13.703125 
Q 9.203125 -9.5 5.296875 -8.5 
Q 22.203125 -1 30.703125 8.5 
Q 39.203125 18 42.09375 32.09375 
Q 17.203125 32.09375 8.59375 31.5 
L 8.59375 37.703125 
Q 17.796875 37.09375 42.90625 37.09375 
Q 43.90625 44.5 43.90625 51.046875 
Q 43.90625 57.59375 43.703125 62.203125 
z
" id="STXihei-26080"/>
     <path d="M 22 32.40625 
Q 22.09375 35.203125 22.09375 38.40625 
Q 22.09375 48.09375 21.09375 64.09375 
Q 23.296875 63.40625 55.203125 63.40625 
Q 51.90625 69.59375 48.203125 73.203125 
L 53.90625 76.796875 
Q 57.59375 71.09375 61.296875 63.40625 
Q 89 63.40625 92.296875 64.09375 
L 92.296875 58 
Q 88.296875 58.59375 67 58.59375 
L 27.90625 58.59375 
Q 28 51.5 28 45.59375 
Q 28 21.796875 25.140625 9.5 
Q 22.296875 -2.796875 14.59375 -14.796875 
Q 11.90625 -11.40625 7.09375 -10.90625 
Q 14.796875 -2.40625 17.9375 6.140625 
Q 21.09375 14.703125 21.796875 27 
Q 13.296875 20.59375 7.5 14.90625 
Q 6.203125 17.90625 2.703125 20.703125 
Q 12 24.703125 22 32.40625 
z
M 20.296875 40.40625 
L 15.203125 37.40625 
Q 12.5 44.296875 6.5 52 
L 11.296875 55.40625 
Q 16.59375 48.09375 20.296875 40.40625 
z
M 60.09375 41.296875 
Q 41 41.296875 32.796875 40.5 
L 32.796875 46.90625 
Q 41.296875 46.09375 61.34375 46.09375 
Q 81.40625 46.09375 89.90625 46.90625 
L 89.90625 40.5 
Q 82.796875 41.09375 65.796875 41.296875 
L 65.796875 22.59375 
Q 82 22.59375 87 23.5 
L 87 17.203125 
Q 82.59375 17.90625 65.796875 17.90625 
L 65.796875 -5.703125 
L 77.796875 -5.703125 
Q 85.296875 -5.703125 95.296875 -4.703125 
L 95.296875 -11.296875 
Q 84.40625 -10.40625 59.5 -10.40625 
Q 34.59375 -10.40625 25.90625 -11.296875 
L 25.90625 -4.703125 
Q 34 -5.59375 39.59375 -5.703125 
L 39.59375 16.703125 
Q 39.59375 24.59375 38.796875 27.796875 
Q 42.703125 27.296875 46.796875 27.296875 
Q 48.296875 27.296875 48.296875 26.6875 
Q 48.296875 26.09375 47.296875 25.703125 
Q 45.296875 25 45.296875 21.59375 
L 45.296875 -5.703125 
L 60.09375 -5.703125 
z
" id="STXihei-30151"/>
     <path d="M 24.703125 74.703125 
Q 28.5 74.203125 32.09375 74.09375 
Q 33.5 74.09375 33.5 73.09375 
Q 33.5 72.59375 33.09375 72.296875 
Q 31.703125 71.09375 31.703125 68.59375 
L 31.703125 1.59375 
Q 31.703125 -7 32.5 -14 
L 24.90625 -14 
Q 25.796875 -6.203125 25.796875 1.59375 
L 25.796875 59.796875 
Q 25.796875 69.40625 24.703125 74.703125 
z
M 59.09375 40 
Q 45 39.90625 37.40625 39 
L 37.40625 45.703125 
Q 45.296875 44.796875 59.59375 44.703125 
Q 60.203125 51.59375 60.203125 60.390625 
Q 60.203125 69.203125 59.09375 74.5 
Q 64.796875 73.59375 66.5 73.59375 
Q 68.203125 73.59375 68.203125 73.09375 
Q 68.203125 72.59375 67.59375 72 
Q 67 71.40625 66.5 69 
Q 66 66.59375 66 64.09375 
Q 65.796875 53.09375 65.203125 44.703125 
Q 83.296875 44.703125 92.203125 45.703125 
L 92.203125 39 
Q 83.59375 40 66.203125 40 
Q 68.59375 27.296875 77.25 13.640625 
Q 85.90625 0 95.796875 -7.09375 
Q 93.09375 -9.296875 90 -12.5 
Q 70.796875 6.90625 63.703125 32.40625 
Q 57.796875 4.59375 38 -13.09375 
Q 36.296875 -10.59375 33.09375 -8.59375 
Q 43.5 -1.5 50.296875 11.25 
Q 57.09375 24 59.09375 40 
z
M 88.40625 55.203125 
L 83.90625 50.703125 
Q 79.40625 57.296875 72.203125 63.203125 
L 76.09375 67.203125 
Q 82.90625 61.5 88.40625 55.203125 
z
M 22.09375 46.296875 
L 17.40625 42.703125 
Q 12.796875 50.703125 4.90625 59.09375 
L 8.90625 62.796875 
Q 16.703125 54.90625 22.09375 46.296875 
z
M 24.5 29 
Q 11.40625 11.90625 7.796875 5.796875 
Q 6.09375 9 2.40625 10.90625 
Q 12.703125 19.90625 20.40625 32.90625 
Q 21.703125 31.09375 24.5 29 
z
" id="STXihei-29366"/>
     <path d="M 82.40625 68 
L 77.703125 63.796875 
Q 74.5 68.90625 68.203125 72.09375 
L 72.40625 76.59375 
Q 78.796875 71.90625 82.40625 68 
z
M 56.59375 58.5 
L 19.203125 58.5 
Q 19.203125 40.703125 17.703125 30.84375 
Q 16.203125 21 11.5 11.203125 
Q 8.59375 13.40625 4.703125 14.203125 
Q 9.40625 20.296875 11.453125 28.25 
Q 13.5 36.203125 13.5 49 
Q 13.5 55.5 13 64 
Q 15.90625 63.296875 56.09375 63.296875 
Q 55.59375 68.796875 55.40625 76 
Q 58.5 74.90625 62.703125 74.90625 
Q 64.203125 74.90625 64.203125 74.046875 
Q 64.203125 73.203125 63.34375 72.59375 
Q 62.5 72 62.203125 71 
Q 61.90625 70 61.90625 68 
Q 61.90625 66 62 63.296875 
Q 84.40625 63.296875 87.90625 64 
L 87.90625 57.796875 
Q 80.296875 58.5 62.296875 58.5 
Q 63.5 46.59375 69.296875 34.90625 
Q 75.09375 42.90625 78.09375 51.59375 
Q 81.40625 49.09375 84.40625 48.09375 
Q 85.40625 47.796875 85.40625 47.140625 
Q 85.40625 46.5 83.796875 45.84375 
Q 82.203125 45.203125 79.796875 41.40625 
Q 75.59375 34.59375 72 30 
Q 75.703125 23.90625 78.703125 21.25 
Q 81.703125 18.59375 83.546875 18.59375 
Q 85.40625 18.59375 86.296875 20.84375 
Q 87.203125 23.09375 87.59375 27.703125 
Q 90 24.703125 93.59375 24.09375 
Q 92.40625 19.703125 90.453125 16.046875 
Q 88.5 12.40625 85.09375 12.40625 
Q 76.59375 12.40625 68.09375 25 
Q 62.796875 18.203125 55.90625 11.703125 
Q 53.90625 13.90625 50.09375 15.09375 
Q 57.203125 20.296875 65.296875 29.59375 
Q 58.90625 41.09375 56.59375 58.5 
z
M 23.5 51 
Q 29.09375 50.40625 38.796875 50.40625 
Q 48.5 50.40625 54 51 
L 54 45.203125 
Q 49.703125 45.796875 38.75 45.796875 
Q 27.796875 45.796875 23.5 45.203125 
z
M 52.40625 39 
Q 51.796875 33.59375 51.796875 28.4375 
Q 51.796875 23.296875 52.296875 18.796875 
Q 48.40625 19.203125 38.75 19.203125 
Q 29.09375 19.203125 24.90625 18.796875 
Q 25.59375 24.703125 25.59375 30 
Q 25.59375 35.296875 24.90625 39 
Q 30.40625 38.296875 38.59375 38.296875 
Q 46.796875 38.296875 52.40625 39 
z
M 46.40625 23.40625 
L 46.40625 34.09375 
L 31 34.09375 
L 31 23.40625 
z
M 59 4.09375 
L 54.59375 -0.203125 
Q 47.90625 7.09375 41.5 11.40625 
L 45.5 15.703125 
Q 52.703125 10.703125 59 4.09375 
z
M 74.5 -1.5 
Q 73.296875 -6.59375 71 -9.09375 
Q 68.703125 -11.59375 63.84375 -12.4375 
Q 59 -13.296875 48.140625 -13.296875 
Q 37.296875 -13.296875 34.140625 -12.640625 
Q 31 -12 29.84375 -10.09375 
Q 28.703125 -8.203125 28.703125 -4.40625 
L 28.703125 7.59375 
Q 28.703125 11.90625 28.296875 13.40625 
Q 31 12.5 35.40625 12.5 
Q 36.796875 12.5 36.796875 11.84375 
Q 36.796875 11.203125 35.75 10.25 
Q 34.703125 9.296875 34.703125 6.90625 
L 34.703125 -4 
Q 34.703125 -6.296875 37.046875 -7.1875 
Q 39.40625 -8.09375 48.59375 -8.09375 
Q 55.203125 -8.09375 59.890625 -7.34375 
Q 64.59375 -6.59375 66.296875 -4.6875 
Q 68 -2.796875 68.296875 2.703125 
Q 70.796875 -0.59375 74.5 -1.5 
z
M 23 9.296875 
Q 18.59375 -2.59375 12.5 -11.5 
L 6.296875 -8.296875 
Q 14.296875 0.09375 17.203125 11.40625 
z
M 93.90625 -5.90625 
L 88.5 -10.5 
Q 81.90625 -1 73.296875 5.90625 
L 77.703125 10.296875 
Q 86.5 3.40625 93.90625 -5.90625 
z
" id="STXihei-24863"/>
     <path d="M 61.5 56.40625 
Q 60.5 48.09375 55.640625 41.34375 
Q 50.796875 34.59375 40.90625 27.203125 
Q 39.09375 30.59375 34.90625 31.90625 
Q 53.703125 40.796875 56 56.09375 
Q 46.40625 55.703125 40.5 54.59375 
L 40.5 60.59375 
Q 43.5 60.40625 47.296875 60.40625 
Q 51.09375 60.40625 56.5 60.703125 
Q 56.703125 63.796875 56.703125 67.34375 
Q 56.703125 70.90625 55.796875 76.296875 
Q 58.40625 75.703125 63 75.703125 
Q 64.796875 75.703125 64.796875 74.890625 
Q 64.796875 74.09375 63.9375 73.1875 
Q 63.09375 72.296875 62.6875 70 
Q 62.296875 67.703125 61.90625 61 
Q 76 61.90625 81.59375 62.5 
L 79.796875 38 
Q 79.59375 35.09375 80.25 34.140625 
Q 80.90625 33.203125 83.59375 33.203125 
Q 86.296875 33.203125 87.75 34.640625 
Q 89.203125 36.09375 90 40.90625 
Q 91.796875 37.90625 95.296875 37.203125 
Q 93.796875 32.90625 92.4375 31.09375 
Q 91.09375 29.296875 88.890625 28.6875 
Q 86.703125 28.09375 81.953125 28.09375 
Q 77.203125 28.09375 75.703125 29.5 
Q 74.203125 30.90625 74.203125 34.5 
Q 74.203125 34.796875 74.40625 38 
L 75.59375 57.09375 
z
M 38.09375 63.59375 
L 34.796875 58.703125 
Q 27.59375 64.703125 17.5 69.703125 
L 20.40625 74.203125 
Q 29.703125 69.703125 38.09375 63.59375 
z
M 29.703125 51.703125 
L 26.703125 47.203125 
Q 20.40625 51.59375 9.90625 55.59375 
L 12.203125 60.296875 
Q 20.796875 56.90625 29.703125 51.703125 
z
M 38 42.296875 
Q 24.90625 34.59375 13 25.296875 
L 8.5 31.5 
Q 25.09375 38.203125 35 47.90625 
Q 35.796875 44.703125 38 42.296875 
z
M 54.203125 20.296875 
Q 81.296875 20.296875 94.796875 21.296875 
L 94.796875 14.796875 
Q 81.703125 15.59375 61.90625 15.5 
Q 77.203125 -0.40625 95.59375 -4.203125 
Q 92.40625 -6.5 91 -11.09375 
Q 67.796875 -0.5 56.703125 15.5 
L 54.203125 15.5 
L 54.203125 -6 
Q 54.203125 -11.796875 54.796875 -16.296875 
L 47.40625 -16.296875 
Q 48.203125 -11.203125 48.203125 -6 
L 48.203125 15.5 
L 46.296875 15.5 
Q 35.40625 -0.203125 11 -12.5 
Q 9.5 -9.5 5.296875 -6.296875 
Q 27.40625 -0.09375 40.40625 15.5 
Q 13.90625 15.5 6.796875 14.796875 
L 6.796875 21.296875 
Q 20.203125 20.296875 48.203125 20.296875 
Q 48 27.296875 47.59375 30.09375 
Q 51.40625 29.59375 54.296875 29.59375 
Q 57.203125 29.59375 57.203125 28.84375 
Q 57.203125 28.09375 55.703125 27.34375 
Q 54.203125 26.59375 54.203125 24.59375 
z
" id="STXihei-26579"/>
     <path d="M 45.703125 57.703125 
Q 27.796875 57.703125 17.796875 56.59375 
L 17.796875 63.5 
Q 26.5 62.5 45.703125 62.40625 
Q 45.703125 72.09375 45 76.59375 
Q 47.5 76 52.5 76 
Q 54.296875 76 54.296875 75.296875 
Q 54.296875 74.59375 53.046875 73.59375 
Q 51.796875 72.59375 51.796875 70.09375 
L 51.796875 62.40625 
Q 64.296875 62.5 74.796875 63.5 
L 74.796875 56.796875 
Q 81 63.203125 84.296875 70.09375 
Q 86.90625 66.90625 89.09375 65.796875 
Q 91.296875 64.703125 91.296875 63.59375 
Q 91.296875 62.5 89.390625 62.25 
Q 87.5 62 80.09375 54.75 
Q 72.703125 47.5 67.59375 42.90625 
Q 86.59375 43.40625 95.203125 44.09375 
L 95.203125 36.90625 
Q 82.203125 38 61.796875 38.09375 
Q 53.296875 31.296875 45.5 26.40625 
L 59.703125 26.40625 
Q 73.40625 26.40625 81.203125 27.296875 
Q 80.703125 24.40625 80.703125 19.59375 
L 80.703125 -5 
Q 80.703125 -9.5 81.296875 -15 
L 74.40625 -15 
L 74.40625 -9.203125 
L 35.40625 -9.203125 
L 35.40625 -16.203125 
L 28.796875 -16.203125 
Q 29.296875 -11.90625 29.296875 -6.203125 
L 29.296875 16.90625 
Q 19 11.296875 8.703125 6.796875 
Q 7.5 11.40625 3.296875 13.40625 
Q 14.703125 16.40625 29.203125 23.5 
Q 29.09375 25 28.703125 27.296875 
Q 31.5 26.90625 35.40625 26.796875 
Q 45.203125 32.09375 53.40625 38.203125 
L 32.5 38.203125 
Q 18.90625 38.203125 5.796875 36.90625 
L 5.796875 44.09375 
Q 22.5 42.90625 45.703125 42.796875 
z
M 74.59375 56.59375 
Q 64.203125 57.59375 51.796875 57.703125 
L 51.796875 42.796875 
L 59.203125 42.796875 
Q 69.796875 51.59375 74.59375 56.59375 
z
M 35.40625 12 
L 74.40625 12 
L 74.40625 21.5 
L 37.40625 21.5 
L 35.40625 20.296875 
z
M 74.40625 6.59375 
L 35.40625 6.59375 
L 35.40625 -4.703125 
L 74.40625 -4.703125 
z
" id="STXihei-32773"/>
    </defs>
    <g transform="translate(136.53913 30)scale(0.16 -0.16)">
     <use xlink:href="#STXihei-26080"/>
     <use x="99.999985" xlink:href="#STXihei-30151"/>
     <use x="199.999969" xlink:href="#STXihei-29366"/>
     <use x="299.999954" xlink:href="#STXihei-24863"/>
     <use x="399.999939" xlink:href="#STXihei-26579"/>
     <use x="499.999924" xlink:href="#STXihei-32773"/>
    </g>
   </g>
  </g>
  <g id="axes_2">
   <g id="patch_7">
    <path d="M 376.121739 306 
L 615.6 306 
L 615.6 36 
L 376.121739 36 
z
" style="fill:#ffffff;"/>
   </g>
   <g id="matplotlib.axis_3">
    <g id="xtick_5">
     <g id="line2d_22">
      <g>
       <use style="stroke:#000000;stroke-width:0.8;" x="376.121739" xlink:href="#m0b211cb9f5" y="306"/>
      </g>
     </g>
     <g id="text_14">
      <!-- 0 -->
      <g transform="translate(373.351427 320.359375)scale(0.1 -0.1)">
       <use xlink:href="#STXihei-48"/>
      </g>
     </g>
    </g>
    <g id="xtick_6">
     <g id="line2d_23">
      <g>
       <use style="stroke:#000000;stroke-width:0.8;" x="444.544099" xlink:href="#m0b211cb9f5" y="306"/>
      </g>
     </g>
     <g id="text_15">
      <!-- 200 -->
      <g transform="translate(436.233162 320.359375)scale(0.1 -0.1)">
       <use xlink:href="#STXihei-50"/>
       <use x="55.399994" xlink:href="#STXihei-48"/>
       <use x="110.799988" xlink:href="#STXihei-48"/>
      </g>
     </g>
    </g>
    <g id="xtick_7">
     <g id="line2d_24">
      <g>
       <use style="stroke:#000000;stroke-width:0.8;" x="512.96646" xlink:href="#m0b211cb9f5" y="306"/>
      </g>
     </g>
     <g id="text_16">
      <!-- 400 -->
      <g transform="translate(504.655522 320.359375)scale(0.1 -0.1)">
       <use xlink:href="#STXihei-52"/>
       <use x="55.399994" xlink:href="#STXihei-48"/>
       <use x="110.799988" xlink:href="#STXihei-48"/>
      </g>
     </g>
    </g>
    <g id="xtick_8">
     <g id="line2d_25">
      <g>
       <use style="stroke:#000000;stroke-width:0.8;" x="581.38882" xlink:href="#m0b211cb9f5" y="306"/>
      </g>
     </g>
     <g id="text_17">
      <!-- 600 -->
      <g transform="translate(573.077882 320.359375)scale(0.1 -0.1)">
       <use xlink:href="#STXihei-54"/>
       <use x="55.399994" xlink:href="#STXihei-48"/>
       <use x="110.799988" xlink:href="#STXihei-48"/>
      </g>
     </g>
    </g>
    <g id="text_18">
     <!-- 时间（天） -->
     <g transform="translate(460.86087 342.603125)scale(0.14 -0.14)">
      <use xlink:href="#STXihei-26102"/>
      <use x="99.999985" xlink:href="#STXihei-38388"/>
      <use x="199.999969" xlink:href="#STXihei-65288"/>
      <use x="299.999954" xlink:href="#STXihei-22825"/>
      <use x="399.999939" xlink:href="#STXihei-65289"/>
     </g>
    </g>
   </g>
   <g id="matplotlib.axis_4">
    <g id="ytick_7">
     <g id="line2d_26">
      <g>
       <use style="stroke:#000000;stroke-width:0.8;" x="376.121739" xlink:href="#m3cb582d1c1" y="306"/>
      </g>
     </g>
    </g>
    <g id="ytick_8">
     <g id="line2d_27">
      <g>
       <use style="stroke:#000000;stroke-width:0.8;" x="376.121739" xlink:href="#m3cb582d1c1" y="252"/>
      </g>
     </g>
    </g>
    <g id="ytick_9">
     <g id="line2d_28">
      <g>
       <use style="stroke:#000000;stroke-width:0.8;" x="376.121739" xlink:href="#m3cb582d1c1" y="198"/>
      </g>
     </g>
    </g>
    <g id="ytick_10">
     <g id="line2d_29">
      <g>
       <use style="stroke:#000000;stroke-width:0.8;" x="376.121739" xlink:href="#m3cb582d1c1" y="144"/>
      </g>
     </g>
    </g>
    <g id="ytick_11">
     <g id="line2d_30">
      <g>
       <use style="stroke:#000000;stroke-width:0.8;" x="376.121739" xlink:href="#m3cb582d1c1" y="90"/>
      </g>
     </g>
    </g>
    <g id="ytick_12">
     <g id="line2d_31">
      <g>
       <use style="stroke:#000000;stroke-width:0.8;" x="376.121739" xlink:href="#m3cb582d1c1" y="36"/>
      </g>
     </g>
    </g>
    <g id="text_19">
     <!-- 每日新增病例（%） -->
     <g transform="translate(358.404864 232.425)rotate(-90)scale(0.14 -0.14)">
      <use xlink:href="#STXihei-27599"/>
      <use x="99.999985" xlink:href="#STXihei-26085"/>
      <use x="199.999969" xlink:href="#STXihei-26032"/>
      <use x="299.999954" xlink:href="#STXihei-22686"/>
      <use x="399.999939" xlink:href="#STXihei-30149"/>
      <use x="499.999924" xlink:href="#STXihei-20363"/>
      <use x="599.999908" xlink:href="#STXihei-65288"/>
      <use x="699.999893" xlink:href="#STXihei-37"/>
      <use x="777.499878" xlink:href="#STXihei-65289"/>
     </g>
    </g>
   </g>
   <g id="line2d_32">
    <path clip-path="url(#p3a2ba89aa6)" d="M 376.121739 306 
L 385.016646 305.891893 
L 387.75354 305.632435 
L 389.806211 305.070278 
L 390.832547 304.497309 
L 391.858882 303.632451 
L 392.543106 302.778404 
L 393.227329 301.610846 
L 393.911553 300.03248 
L 394.595776 297.902768 
L 395.28 295.016304 
L 395.964224 291.124443 
L 396.648447 285.913674 
L 397.332671 279.016432 
L 398.016894 269.946235 
L 398.701118 258.151735 
L 399.385342 243.103206 
L 400.411677 213.611551 
L 401.438012 176.022662 
L 403.490683 97.385454 
L 404.174907 82.045037 
L 404.517019 78.499119 
L 404.85913 78.06669 
L 405.201242 80.855857 
L 405.543354 86.758512 
L 406.227578 106.790784 
L 407.253913 149.849899 
L 408.62236 209.438611 
L 409.648696 244.292386 
L 410.332919 261.589545 
L 411.017143 274.616468 
L 411.701366 284.129905 
L 412.38559 290.92985 
L 413.069814 295.729812 
L 413.754037 299.027083 
L 414.438261 301.318956 
L 415.122484 302.86489 
L 415.806708 303.891909 
L 416.490932 304.605417 
L 417.517267 305.25406 
L 418.885714 305.664868 
L 420.254161 305.859461 
L 424.017391 305.989189 
L 615.6 306 
L 615.6 306 
" style="fill:none;stroke:#1f77b4;stroke-linecap:square;stroke-width:1.5;"/>
   </g>
   <g id="line2d_33">
    <path clip-path="url(#p3a2ba89aa6)" d="M 376.121739 306 
L 386.727205 305.891893 
L 389.464099 305.718921 
L 392.543106 305.145953 
L 393.911553 304.605417 
L 394.937888 303.989205 
L 395.964224 303.113537 
L 396.648447 302.313543 
L 397.332671 301.297335 
L 398.016894 300.021669 
L 398.701118 298.400061 
L 399.385342 296.346023 
L 400.069565 293.751449 
L 400.753789 290.519043 
L 401.438012 286.454211 
L 402.122236 281.416413 
L 402.80646 275.221868 
L 403.832795 263.340882 
L 404.85913 247.859925 
L 405.885466 228.595214 
L 407.253913 198.152215 
L 408.964472 160.206573 
L 409.648696 148.747205 
L 410.332919 141.298616 
L 410.675031 139.406739 
L 411.017143 138.82296 
L 411.359255 139.612143 
L 411.701366 141.676992 
L 412.043478 145.028316 
L 412.727702 155.08229 
L 413.754037 176.260498 
L 416.490932 238.357298 
L 417.517267 256.162561 
L 418.543602 269.892181 
L 419.569938 280.097505 
L 420.596273 287.470419 
L 421.280497 291.167686 
L 422.306832 295.319004 
L 423.333168 298.248711 
L 424.359503 300.313559 
L 425.385839 301.783818 
L 426.412174 302.821647 
L 427.438509 303.589208 
L 428.806957 304.291906 
L 430.517516 304.843253 
L 431.885963 305.167574 
L 437.01764 305.718921 
L 441.122981 305.870271 
L 452.754783 305.978379 
L 456.860124 306 
L 615.6 306 
L 615.6 306 
" style="fill:none;stroke:#ff7f0e;stroke-linecap:square;stroke-width:1.5;"/>
   </g>
   <g id="line2d_34">
    <path clip-path="url(#p3a2ba89aa6)" d="M 376.121739 306 
L 389.464099 305.891893 
L 393.569441 305.664868 
L 396.306335 305.297303 
L 397.674783 304.972981 
L 398.701118 304.670281 
L 400.069565 304.086502 
L 401.780124 302.951376 
L 402.80646 301.989221 
L 403.832795 300.756799 
L 404.85913 299.124379 
L 405.885466 297.005477 
L 406.911801 294.302796 
L 407.938137 290.800122 
L 408.964472 286.389346 
L 409.990807 280.865066 
L 411.017143 274.043499 
L 412.043478 265.84897 
L 413.411925 252.767994 
L 415.122484 233.795173 
L 417.175155 211.308866 
L 418.201491 202.649476 
L 418.885714 198.627887 
L 419.227826 197.244114 
L 419.569938 196.325203 
L 419.91205 195.860341 
L 420.254161 195.871152 
L 420.596273 196.357635 
L 420.938385 197.298168 
L 421.622609 200.519764 
L 422.306832 205.287293 
L 423.333168 214.692623 
L 425.043727 233.438419 
L 427.096398 255.351757 
L 428.464845 267.503011 
L 429.49118 275.059707 
L 430.517516 281.286684 
L 431.543851 286.378536 
L 432.570186 290.443368 
L 433.596522 293.719017 
L 434.622857 296.29197 
L 435.649193 298.346007 
L 436.675528 299.956805 
L 437.701863 301.243281 
L 439.070311 302.529758 
L 440.438758 303.470291 
L 442.491429 304.421634 
L 444.201988 304.929738 
L 445.912547 305.275681 
L 448.649441 305.610814 
L 452.070559 305.837839 
L 459.93913 305.978379 
L 615.6 306 
L 615.6 306 
" style="fill:none;stroke:#2ca02c;stroke-linecap:square;stroke-width:1.5;"/>
   </g>
   <g id="line2d_35">
    <path clip-path="url(#p3a2ba89aa6)" d="M 376.121739 306 
L 393.911553 305.891893 
L 401.095901 305.55676 
L 403.490683 305.297303 
L 405.885466 304.908117 
L 408.62236 304.140555 
L 410.675031 303.264887 
L 412.38559 302.227057 
L 413.754037 301.135174 
L 415.122484 299.740591 
L 416.14882 298.475736 
L 417.175155 296.951424 
L 418.543602 294.475768 
L 419.91205 291.448765 
L 421.280497 287.729876 
L 422.306832 284.486659 
L 423.67528 279.556969 
L 425.72795 270.908389 
L 430.175404 251.135574 
L 431.201739 247.622089 
L 432.228075 244.995083 
L 432.912298 243.827525 
L 433.596522 243.178881 
L 433.938634 243.059963 
L 434.280745 243.070774 
L 434.622857 243.200503 
L 434.964969 243.45996 
L 435.649193 244.400493 
L 436.333416 245.816698 
L 437.01764 247.654521 
L 438.043975 251.135574 
L 439.412422 256.670665 
L 444.544099 278.908325 
L 445.912547 283.773151 
L 447.280994 287.946091 
L 448.649441 291.470387 
L 450.017888 294.367661 
L 451.044224 296.216295 
L 452.754783 298.670329 
L 454.12323 300.205452 
L 455.491677 301.448685 
L 457.202236 302.637865 
L 459.254907 303.654073 
L 461.649689 304.475688 
L 463.360248 304.886495 
L 467.807702 305.502707 
L 475.334161 305.870271 
L 486.623851 305.978379 
L 490.729193 306 
L 615.6 306 
L 615.6 306 
" style="fill:none;stroke:#d62728;stroke-linecap:square;stroke-width:1.5;"/>
   </g>
   <g id="line2d_36">
    <path clip-path="url(#p3a2ba89aa6)" d="M 376.121739 306 
L 402.464348 305.891893 
L 416.833043 305.329735 
L 422.306832 304.702713 
L 425.385839 304.108123 
L 430.175404 302.659486 
L 431.885963 301.935168 
L 434.622857 300.432477 
L 436.675528 299.016272 
L 438.386087 297.64331 
L 441.465093 294.573064 
L 443.175652 292.583891 
L 445.228323 289.946075 
L 452.070559 280.821823 
L 453.781118 279.038054 
L 455.491677 277.740767 
L 456.860124 277.102934 
L 457.88646 276.88672 
L 458.912795 276.89753 
L 459.93913 277.146177 
L 461.307578 277.816442 
L 462.676025 278.854271 
L 463.70236 279.816426 
L 465.412919 281.751546 
L 467.807702 284.843413 
L 471.913043 290.389314 
L 474.99205 294.108203 
L 477.386832 296.573048 
L 480.123727 298.864922 
L 481.834286 300.054102 
L 483.544845 301.08112 
L 486.623851 302.518947 
L 489.360745 303.45948 
L 493.808199 304.475688 
L 495.518758 304.767577 
L 500.992547 305.362167 
L 508.861118 305.751353 
L 517.071801 305.902703 
L 615.6 306 
L 615.6 306 
" style="fill:none;stroke:#9467bd;stroke-linecap:square;stroke-width:1.5;"/>
   </g>
   <g id="line2d_37">
    <path clip-path="url(#p3a2ba89aa6)" d="M 376.121739 306 
L 424.017391 305.891893 
L 428.806957 305.84865 
L 437.01764 305.740543 
L 457.544348 305.005413 
L 459.597019 304.843253 
L 462.333913 304.65947 
L 464.044472 304.497309 
L 467.46559 304.172988 
L 470.202484 303.848666 
L 472.939379 303.491912 
L 475.676273 303.059483 
L 477.386832 302.789215 
L 479.439503 302.432461 
L 483.544845 301.632467 
L 487.650186 300.745988 
L 500.992547 297.902768 
L 503.729441 297.481149 
L 509.887453 297.005477 
L 514.334907 297.113585 
L 517.756025 297.437906 
L 519.808696 297.718985 
L 529.729938 299.708158 
L 534.177391 300.724367 
L 536.230062 301.145985 
L 537.598509 301.448685 
L 548.203975 303.351373 
L 557.783106 304.454066 
L 564.28323 304.96217 
L 568.730683 305.200006 
L 570.09913 305.275681 
L 574.204472 305.437842 
L 577.62559 305.54595 
L 588.231056 305.772975 
L 598.49441 305.881082 
L 602.599752 305.902703 
L 615.6 305.967568 
L 615.6 305.967568 
" style="fill:none;stroke:#8c564b;stroke-linecap:square;stroke-width:1.5;"/>
   </g>
   <g id="line2d_38">
    <path clip-path="url(#p3a2ba89aa6)" d="M 376.121739 306 
L 562.914783 305.891893 
L 567.020124 305.870271 
L 615.6 305.762164 
L 615.6 305.762164 
" style="fill:none;stroke:#e377c2;stroke-linecap:square;stroke-width:1.5;"/>
   </g>
   <g id="line2d_39">
    <path clip-path="url(#p3a2ba89aa6)" d="M 376.121739 306 
L 615.6 306 
L 615.6 306 
" style="fill:none;stroke:#7f7f7f;stroke-linecap:square;stroke-width:1.5;"/>
   </g>
   <g id="line2d_40">
    <path clip-path="url(#p3a2ba89aa6)" d="M 376.121739 306 
L 615.6 306 
L 615.6 306 
" style="fill:none;stroke:#bcbd22;stroke-linecap:square;stroke-width:1.5;"/>
   </g>
   <g id="line2d_41">
    <path clip-path="url(#p3a2ba89aa6)" d="M 376.121739 306 
L 615.6 306 
L 615.6 306 
" style="fill:none;stroke:#17becf;stroke-linecap:square;stroke-width:1.5;"/>
   </g>
   <g id="line2d_42">
    <path clip-path="url(#p3a2ba89aa6)" d="M 376.121739 306 
L 615.6 306 
L 615.6 306 
" style="fill:none;stroke:#1f77b4;stroke-linecap:square;stroke-width:1.5;"/>
   </g>
   <g id="patch_8">
    <path d="M 376.121739 306 
L 376.121739 36 
" style="fill:none;stroke:#000000;stroke-linecap:square;stroke-linejoin:miter;stroke-width:0.8;"/>
   </g>
   <g id="patch_9">
    <path d="M 615.6 306 
L 615.6 36 
" style="fill:none;stroke:#000000;stroke-linecap:square;stroke-linejoin:miter;stroke-width:0.8;"/>
   </g>
   <g id="patch_10">
    <path d="M 376.121739 306 
L 615.6 306 
" style="fill:none;stroke:#000000;stroke-linecap:square;stroke-linejoin:miter;stroke-width:0.8;"/>
   </g>
   <g id="patch_11">
    <path d="M 376.121739 36 
L 615.6 36 
" style="fill:none;stroke:#000000;stroke-linecap:square;stroke-linejoin:miter;stroke-width:0.8;"/>
   </g>
   <g id="text_20">
    <!-- 感染者 -->
    <g transform="translate(465.86087 30)scale(0.2 -0.2)">
     <use xlink:href="#STXihei-24863"/>
     <use x="99.999985" xlink:href="#STXihei-26579"/>
     <use x="199.999969" xlink:href="#STXihei-32773"/>
    </g>
   </g>
   <g id="legend_1">
    <g id="patch_12">
     <path d="M 538.8825 234.36 
L 607.2 234.36 
Q 609.6 234.36 609.6 231.96 
L 609.6 44.4 
Q 609.6 42 607.2 42 
L 538.8825 42 
Q 536.4825 42 536.4825 44.4 
L 536.4825 231.96 
Q 536.4825 234.36 538.8825 234.36 
z
" style="fill:#ffffff;opacity:0.8;stroke:#cccccc;stroke-linejoin:miter;"/>
    </g>
    <g id="line2d_43">
     <path d="M 541.2825 51.43125 
L 565.2825 51.43125 
" style="fill:none;stroke:#1f77b4;stroke-linecap:square;stroke-width:1.5;"/>
    </g>
    <g id="line2d_44"/>
    <g id="text_21">
     <!-- k=0.0 -->
     <defs>
      <path d="M 6.59375 73.59375 
L 13.5 73.59375 
L 13.5 31.703125 
L 38 53.09375 
L 48.09375 53.09375 
L 18.90625 27.796875 
L 49.796875 0 
L 40.09375 0 
L 13.5 23.90625 
L 13.5 0 
L 6.59375 0 
z
" id="STXihei-107"/>
      <path d="M 55 50 
L 55 43.296875 
L 5.59375 43.296875 
L 5.59375 50 
z
M 55 28.5 
L 55 21.796875 
L 5.59375 21.796875 
L 5.59375 28.5 
z
" id="STXihei-61"/>
      <path d="M 9.09375 4.703125 
Q 9.09375 7.203125 10.890625 8.953125 
Q 12.703125 10.703125 15.09375 10.703125 
Q 17.59375 10.703125 19.34375 8.953125 
Q 21.09375 7.203125 21.09375 4.703125 
Q 21.09375 2.09375 19.34375 0.34375 
Q 17.59375 -1.40625 15.09375 -1.40625 
Q 12.703125 -1.40625 10.890625 0.390625 
Q 9.09375 2.203125 9.09375 4.703125 
z
" id="STXihei-46"/>
     </defs>
     <g transform="translate(574.8825 55.63125)scale(0.12 -0.12)">
      <use xlink:href="#STXihei-107"/>
      <use x="50.199997" xlink:href="#STXihei-61"/>
      <use x="110.799988" xlink:href="#STXihei-48"/>
      <use x="166.199982" xlink:href="#STXihei-46"/>
      <use x="193.899979" xlink:href="#STXihei-48"/>
     </g>
    </g>
    <g id="line2d_45">
     <path d="M 541.2825 68.59125 
L 565.2825 68.59125 
" style="fill:none;stroke:#ff7f0e;stroke-linecap:square;stroke-width:1.5;"/>
    </g>
    <g id="line2d_46"/>
    <g id="text_22">
     <!-- k=0.1 -->
     <g transform="translate(574.8825 72.79125)scale(0.12 -0.12)">
      <use xlink:href="#STXihei-107"/>
      <use x="50.199997" xlink:href="#STXihei-61"/>
      <use x="110.799988" xlink:href="#STXihei-48"/>
      <use x="166.199982" xlink:href="#STXihei-46"/>
      <use x="193.899979" xlink:href="#STXihei-49"/>
     </g>
    </g>
    <g id="line2d_47">
     <path d="M 541.2825 85.75125 
L 565.2825 85.75125 
" style="fill:none;stroke:#2ca02c;stroke-linecap:square;stroke-width:1.5;"/>
    </g>
    <g id="line2d_48"/>
    <g id="text_23">
     <!-- k=0.2 -->
     <g transform="translate(574.8825 89.95125)scale(0.12 -0.12)">
      <use xlink:href="#STXihei-107"/>
      <use x="50.199997" xlink:href="#STXihei-61"/>
      <use x="110.799988" xlink:href="#STXihei-48"/>
      <use x="166.199982" xlink:href="#STXihei-46"/>
      <use x="193.899979" xlink:href="#STXihei-50"/>
     </g>
    </g>
    <g id="line2d_49">
     <path d="M 541.2825 102.91125 
L 565.2825 102.91125 
" style="fill:none;stroke:#d62728;stroke-linecap:square;stroke-width:1.5;"/>
    </g>
    <g id="line2d_50"/>
    <g id="text_24">
     <!-- k=0.3 -->
     <g transform="translate(574.8825 107.11125)scale(0.12 -0.12)">
      <use xlink:href="#STXihei-107"/>
      <use x="50.199997" xlink:href="#STXihei-61"/>
      <use x="110.799988" xlink:href="#STXihei-48"/>
      <use x="166.199982" xlink:href="#STXihei-46"/>
      <use x="193.899979" xlink:href="#STXihei-51"/>
     </g>
    </g>
    <g id="line2d_51">
     <path d="M 541.2825 120.07125 
L 565.2825 120.07125 
" style="fill:none;stroke:#9467bd;stroke-linecap:square;stroke-width:1.5;"/>
    </g>
    <g id="line2d_52"/>
    <g id="text_25">
     <!-- k=0.4 -->
     <g transform="translate(574.8825 124.27125)scale(0.12 -0.12)">
      <use xlink:href="#STXihei-107"/>
      <use x="50.199997" xlink:href="#STXihei-61"/>
      <use x="110.799988" xlink:href="#STXihei-48"/>
      <use x="166.199982" xlink:href="#STXihei-46"/>
      <use x="193.899979" xlink:href="#STXihei-52"/>
     </g>
    </g>
    <g id="line2d_53">
     <path d="M 541.2825 137.23125 
L 565.2825 137.23125 
" style="fill:none;stroke:#8c564b;stroke-linecap:square;stroke-width:1.5;"/>
    </g>
    <g id="line2d_54"/>
    <g id="text_26">
     <!-- k=0.5 -->
     <g transform="translate(574.8825 141.43125)scale(0.12 -0.12)">
      <use xlink:href="#STXihei-107"/>
      <use x="50.199997" xlink:href="#STXihei-61"/>
      <use x="110.799988" xlink:href="#STXihei-48"/>
      <use x="166.199982" xlink:href="#STXihei-46"/>
      <use x="193.899979" xlink:href="#STXihei-53"/>
     </g>
    </g>
    <g id="line2d_55">
     <path d="M 541.2825 154.39125 
L 565.2825 154.39125 
" style="fill:none;stroke:#e377c2;stroke-linecap:square;stroke-width:1.5;"/>
    </g>
    <g id="line2d_56"/>
    <g id="text_27">
     <!-- k=0.6 -->
     <g transform="translate(574.8825 158.59125)scale(0.12 -0.12)">
      <use xlink:href="#STXihei-107"/>
      <use x="50.199997" xlink:href="#STXihei-61"/>
      <use x="110.799988" xlink:href="#STXihei-48"/>
      <use x="166.199982" xlink:href="#STXihei-46"/>
      <use x="193.899979" xlink:href="#STXihei-54"/>
     </g>
    </g>
    <g id="line2d_57">
     <path d="M 541.2825 171.55125 
L 565.2825 171.55125 
" style="fill:none;stroke:#7f7f7f;stroke-linecap:square;stroke-width:1.5;"/>
    </g>
    <g id="line2d_58"/>
    <g id="text_28">
     <!-- k=0.7 -->
     <defs>
      <path d="M 7.203125 71.796875 
L 52.703125 71.796875 
L 14.296875 -1.796875 
L 8.40625 1.203125 
L 41.59375 65 
L 7.203125 65 
z
" id="STXihei-55"/>
     </defs>
     <g transform="translate(574.8825 175.75125)scale(0.12 -0.12)">
      <use xlink:href="#STXihei-107"/>
      <use x="50.199997" xlink:href="#STXihei-61"/>
      <use x="110.799988" xlink:href="#STXihei-48"/>
      <use x="166.199982" xlink:href="#STXihei-46"/>
      <use x="193.899979" xlink:href="#STXihei-55"/>
     </g>
    </g>
    <g id="line2d_59">
     <path d="M 541.2825 188.71125 
L 565.2825 188.71125 
" style="fill:none;stroke:#bcbd22;stroke-linecap:square;stroke-width:1.5;"/>
    </g>
    <g id="line2d_60"/>
    <g id="text_29">
     <!-- k=0.8 -->
     <defs>
      <path d="M 38.40625 39.40625 
Q 52 32.703125 52 20.59375 
Q 52 11 45.25 4.59375 
Q 38.5 -1.796875 27.59375 -1.796875 
Q 16.59375 -1.796875 10 4.59375 
Q 3.40625 11 3.40625 20 
Q 3.40625 32.59375 17.296875 39.40625 
Q 6.796875 45 6.796875 54.90625 
Q 6.796875 62.296875 12.9375 67.9375 
Q 19.09375 73.59375 28.09375 73.59375 
Q 36.5 73.59375 42.59375 68.09375 
Q 48.703125 62.59375 48.703125 54.703125 
Q 48.703125 45.09375 38.40625 39.40625 
z
M 41.5 55 
Q 41.5 59.796875 37.75 63.25 
Q 34 66.703125 27.703125 66.703125 
Q 21.90625 66.703125 18 63.25 
Q 14.09375 59.796875 14.09375 54.796875 
Q 14.09375 50 18.34375 46.140625 
Q 22.59375 42.296875 28 42.296875 
Q 33.40625 42.296875 37.453125 46.09375 
Q 41.5 49.90625 41.5 55 
z
M 44.796875 20.5 
Q 44.796875 26.59375 39.84375 31.1875 
Q 34.90625 35.796875 28.09375 35.796875 
Q 20.796875 35.796875 15.6875 31.046875 
Q 10.59375 26.296875 10.59375 19.796875 
Q 10.59375 13.40625 15.296875 9.203125 
Q 20 5 27.703125 5 
Q 35.203125 5 40 9.5 
Q 44.796875 14 44.796875 20.5 
z
" id="STXihei-56"/>
     </defs>
     <g transform="translate(574.8825 192.91125)scale(0.12 -0.12)">
      <use xlink:href="#STXihei-107"/>
      <use x="50.199997" xlink:href="#STXihei-61"/>
      <use x="110.799988" xlink:href="#STXihei-48"/>
      <use x="166.199982" xlink:href="#STXihei-46"/>
      <use x="193.899979" xlink:href="#STXihei-56"/>
     </g>
    </g>
    <g id="line2d_61">
     <path d="M 541.2825 205.87125 
L 565.2825 205.87125 
" style="fill:none;stroke:#17becf;stroke-linecap:square;stroke-width:1.5;"/>
    </g>
    <g id="line2d_62"/>
    <g id="text_30">
     <!-- k=0.9 -->
     <defs>
      <path d="M 19.203125 -1.796875 
L 13.296875 2 
L 32.703125 31.40625 
Q 28.90625 30.09375 25.203125 30.09375 
Q 16.59375 30.09375 10.75 36.296875 
Q 4.90625 42.5 4.90625 51.5 
Q 4.90625 61 11.40625 67.296875 
Q 17.90625 73.59375 27.296875 73.59375 
Q 36.796875 73.59375 42.9375 67.140625 
Q 49.09375 60.703125 49.09375 51.703125 
Q 49.09375 46.703125 47.046875 41.640625 
Q 45 36.59375 41 30.703125 
z
M 11.90625 51.5 
Q 11.90625 45.203125 16.296875 40.796875 
Q 20.703125 36.40625 27 36.40625 
Q 33.296875 36.40625 37.6875 40.84375 
Q 42.09375 45.296875 42.09375 51.5 
Q 42.09375 57.703125 37.6875 62.140625 
Q 33.296875 66.59375 27 66.59375 
Q 20.703125 66.59375 16.296875 62.1875 
Q 11.90625 57.796875 11.90625 51.5 
z
" id="STXihei-57"/>
     </defs>
     <g transform="translate(574.8825 210.07125)scale(0.12 -0.12)">
      <use xlink:href="#STXihei-107"/>
      <use x="50.199997" xlink:href="#STXihei-61"/>
      <use x="110.799988" xlink:href="#STXihei-48"/>
      <use x="166.199982" xlink:href="#STXihei-46"/>
      <use x="193.899979" xlink:href="#STXihei-57"/>
     </g>
    </g>
    <g id="line2d_63">
     <path d="M 541.2825 223.03125 
L 565.2825 223.03125 
" style="fill:none;stroke:#1f77b4;stroke-linecap:square;stroke-width:1.5;"/>
    </g>
    <g id="line2d_64"/>
    <g id="text_31">
     <!-- k=1.0 -->
     <g transform="translate(574.8825 227.23125)scale(0.12 -0.12)">
      <use xlink:href="#STXihei-107"/>
      <use x="50.199997" xlink:href="#STXihei-61"/>
      <use x="110.799988" xlink:href="#STXihei-49"/>
      <use x="166.199982" xlink:href="#STXihei-46"/>
      <use x="193.899979" xlink:href="#STXihei-48"/>
     </g>
    </g>
   </g>
  </g>
 </g>
 <defs>
  <clipPath id="p5a9c36113b">
   <rect height="270" width="239.478261" x="64.8" y="36"/>
  </clipPath>
  <clipPath id="p3a2ba89aa6">
   <rect height="270" width="239.478261" x="376.121739" y="36"/>
  </clipPath>
 </defs>
</svg>
