<?xml version="1.0" encoding="utf-8" standalone="no"?>
<!DOCTYPE svg PUBLIC "-//W3C//DTD SVG 1.1//EN"
  "http://www.w3.org/Graphics/SVG/1.1/DTD/svg11.dtd">
<!-- Created with matplotlib (https://matplotlib.org/) -->
<svg height="360pt" version="1.1" viewBox="0 0 576 360" width="576pt" xmlns="http://www.w3.org/2000/svg" xmlns:xlink="http://www.w3.org/1999/xlink">
 <defs>
  <style type="text/css">
*{stroke-linecap:butt;stroke-linejoin:round;}
  </style>
 </defs>
 <g id="figure_1">
  <g id="patch_1">
   <path d="M 0 360 
L 576 360 
L 576 0 
L 0 0 
z
" style="fill:#ffffff;"/>
  </g>
  <g id="axes_1">
   <g id="patch_2">
    <path d="M 69.12 306 
L 518.4 306 
L 518.4 36 
L 69.12 36 
z
" style="fill:#ffffff;"/>
   </g>
   <g id="matplotlib.axis_1">
    <g id="xtick_1">
     <g id="line2d_1">
      <defs>
       <path d="M 0 0 
L 0 3.5 
" id="md9c40c58f6" style="stroke:#000000;stroke-width:0.8;"/>
      </defs>
      <g>
       <use style="stroke:#000000;stroke-width:0.8;" x="89.541818" xlink:href="#md9c40c58f6" y="306"/>
      </g>
     </g>
     <g id="text_1">
      <!-- 0 -->
      <defs>
       <path d="M 27.296875 -1.796875 
Q 15.703125 -1.796875 9.453125 7.75 
Q 3.203125 17.296875 3.203125 35.90625 
Q 3.203125 54.5 9.453125 64.046875 
Q 15.703125 73.59375 27.296875 73.59375 
Q 38.703125 73.59375 45.453125 63.84375 
Q 52.203125 54.09375 52.203125 35.90625 
Q 52.203125 17.703125 45.390625 7.953125 
Q 38.59375 -1.796875 27.296875 -1.796875 
z
M 27.5 66.796875 
Q 19.203125 66.796875 14.59375 58.796875 
Q 10 50.796875 10 35.703125 
Q 10 4.703125 27.5 4.703125 
Q 36 4.703125 40.75 12.84375 
Q 45.5 21 45.5 35.703125 
Q 45.5 50.796875 40.59375 58.796875 
Q 35.703125 66.796875 27.5 66.796875 
z
" id="STXihei-48"/>
      </defs>
      <g transform="translate(86.771506 320.359375)scale(0.1 -0.1)">
       <use xlink:href="#STXihei-48"/>
      </g>
     </g>
    </g>
    <g id="xtick_2">
     <g id="line2d_2">
      <g>
       <use style="stroke:#000000;stroke-width:0.8;" x="147.973344" xlink:href="#md9c40c58f6" y="306"/>
      </g>
     </g>
     <g id="text_2">
      <!-- 100 -->
      <defs>
       <path d="M 18.5 71.796875 
L 32.59375 71.796875 
L 32.59375 0 
L 25.5 0 
L 25.5 64.796875 
L 14.203125 64.796875 
z
" id="STXihei-49"/>
      </defs>
      <g transform="translate(139.662406 320.359375)scale(0.1 -0.1)">
       <use xlink:href="#STXihei-49"/>
       <use x="55.399994" xlink:href="#STXihei-48"/>
       <use x="110.799988" xlink:href="#STXihei-48"/>
      </g>
     </g>
    </g>
    <g id="xtick_3">
     <g id="line2d_3">
      <g>
       <use style="stroke:#000000;stroke-width:0.8;" x="206.404869" xlink:href="#md9c40c58f6" y="306"/>
      </g>
     </g>
     <g id="text_3">
      <!-- 200 -->
      <defs>
       <path d="M 11.59375 49.296875 
L 4.703125 49.296875 
Q 5.203125 60.296875 12 66.9375 
Q 18.796875 73.59375 28.59375 73.59375 
Q 38.09375 73.59375 44.4375 67.34375 
Q 50.796875 61.09375 50.796875 52.09375 
Q 50.796875 45.40625 47.25 39.703125 
Q 43.703125 34 36.5 26.203125 
L 18.59375 6.90625 
L 51.796875 6.90625 
L 51.796875 0 
L 3 0 
L 30.40625 29.59375 
Q 37.59375 37.40625 40.6875 41.90625 
Q 43.796875 46.40625 43.796875 52 
Q 43.796875 58 39.25 62.390625 
Q 34.703125 66.796875 28.203125 66.796875 
Q 21.203125 66.796875 16.75 62.25 
Q 12.296875 57.703125 11.59375 49.296875 
z
" id="STXihei-50"/>
      </defs>
      <g transform="translate(198.093932 320.359375)scale(0.1 -0.1)">
       <use xlink:href="#STXihei-50"/>
       <use x="55.399994" xlink:href="#STXihei-48"/>
       <use x="110.799988" xlink:href="#STXihei-48"/>
      </g>
     </g>
    </g>
    <g id="xtick_4">
     <g id="line2d_4">
      <g>
       <use style="stroke:#000000;stroke-width:0.8;" x="264.836395" xlink:href="#md9c40c58f6" y="306"/>
      </g>
     </g>
     <g id="text_4">
      <!-- 300 -->
      <defs>
       <path d="M 13.203125 55.203125 
L 5.90625 55.203125 
Q 7.90625 64.09375 13.546875 68.84375 
Q 19.203125 73.59375 27 73.59375 
Q 35.5 73.59375 41.546875 68.1875 
Q 47.59375 62.796875 47.59375 55.09375 
Q 47.59375 45.796875 38.40625 40.40625 
Q 44.703125 37.796875 48.140625 32.640625 
Q 51.59375 27.5 51.59375 21.40625 
Q 51.59375 11.90625 44.640625 5.046875 
Q 37.703125 -1.796875 27.09375 -1.796875 
Q 17.703125 -1.796875 11.59375 3.546875 
Q 5.5 8.90625 3.5 19.203125 
L 10.5 19.203125 
Q 12.40625 12.09375 16.34375 8.640625 
Q 20.296875 5.203125 27.203125 5.203125 
Q 34.703125 5.203125 39.59375 9.796875 
Q 44.5 14.40625 44.5 20.796875 
Q 44.5 28 39.09375 32.140625 
Q 33.703125 36.296875 23.40625 36.5 
L 23.40625 43.09375 
Q 30.796875 43.09375 35.4375 46.5 
Q 40.09375 49.90625 40.09375 55.09375 
Q 40.09375 60 36.34375 63.34375 
Q 32.59375 66.703125 27 66.703125 
Q 22 66.703125 18.75 63.84375 
Q 15.5 61 13.203125 55.203125 
z
" id="STXihei-51"/>
      </defs>
      <g transform="translate(256.525457 320.359375)scale(0.1 -0.1)">
       <use xlink:href="#STXihei-51"/>
       <use x="55.399994" xlink:href="#STXihei-48"/>
       <use x="110.799988" xlink:href="#STXihei-48"/>
      </g>
     </g>
    </g>
    <g id="xtick_5">
     <g id="line2d_5">
      <g>
       <use style="stroke:#000000;stroke-width:0.8;" x="323.26792" xlink:href="#md9c40c58f6" y="306"/>
      </g>
     </g>
     <g id="text_5">
      <!-- 400 -->
      <defs>
       <path d="M 42.59375 73.59375 
L 44 73.59375 
L 44 23.59375 
L 52.703125 23.59375 
L 52.703125 16.703125 
L 44 16.703125 
L 44 0 
L 36.90625 0 
L 36.90625 16.703125 
L 2.5 16.703125 
z
M 36.90625 23.59375 
L 36.90625 53.5 
L 15.703125 23.59375 
z
" id="STXihei-52"/>
      </defs>
      <g transform="translate(314.956983 320.359375)scale(0.1 -0.1)">
       <use xlink:href="#STXihei-52"/>
       <use x="55.399994" xlink:href="#STXihei-48"/>
       <use x="110.799988" xlink:href="#STXihei-48"/>
      </g>
     </g>
    </g>
    <g id="xtick_6">
     <g id="line2d_6">
      <g>
       <use style="stroke:#000000;stroke-width:0.8;" x="381.699446" xlink:href="#md9c40c58f6" y="306"/>
      </g>
     </g>
     <g id="text_6">
      <!-- 500 -->
      <defs>
       <path d="M 49.203125 71.796875 
L 49.203125 65 
L 23.59375 65 
L 20 45.40625 
Q 24.796875 46.796875 29 46.796875 
Q 38.40625 46.796875 44.703125 40.140625 
Q 51 33.5 51 23.296875 
Q 51 12.703125 44.140625 5.453125 
Q 37.296875 -1.796875 26 -1.796875 
Q 17.40625 -1.796875 11.34375 3.34375 
Q 5.296875 8.5 4.09375 17.40625 
L 11.40625 17.40625 
Q 12.703125 11.40625 16.796875 8.203125 
Q 20.90625 5 26.296875 5 
Q 33.40625 5 38.546875 10.296875 
Q 43.703125 15.59375 43.703125 23.5 
Q 43.703125 30.703125 39.203125 35.34375 
Q 34.703125 40 27 40 
Q 20.203125 40 11.40625 36.203125 
L 18.09375 71.796875 
z
" id="STXihei-53"/>
      </defs>
      <g transform="translate(373.388508 320.359375)scale(0.1 -0.1)">
       <use xlink:href="#STXihei-53"/>
       <use x="55.399994" xlink:href="#STXihei-48"/>
       <use x="110.799988" xlink:href="#STXihei-48"/>
      </g>
     </g>
    </g>
    <g id="xtick_7">
     <g id="line2d_7">
      <g>
       <use style="stroke:#000000;stroke-width:0.8;" x="440.130972" xlink:href="#md9c40c58f6" y="306"/>
      </g>
     </g>
     <g id="text_7">
      <!-- 600 -->
      <defs>
       <path d="M 36.703125 73.59375 
L 42.59375 69.796875 
L 23.203125 40.40625 
Q 27.296875 41.796875 31 41.796875 
Q 39 41.796875 45 35.4375 
Q 51 29.09375 51 20.09375 
Q 51 10.796875 44.453125 4.5 
Q 37.90625 -1.796875 28.5 -1.796875 
Q 19.203125 -1.796875 12.953125 4.59375 
Q 6.703125 11 6.703125 20.203125 
Q 6.703125 24.59375 8.390625 29.25 
Q 10.09375 33.90625 14.90625 41.09375 
z
M 43.90625 20.296875 
Q 43.90625 26.59375 39.5 31 
Q 35.09375 35.40625 28.796875 35.40625 
Q 22.5 35.40625 18.09375 31 
Q 13.703125 26.59375 13.703125 20.296875 
Q 13.703125 14 18.140625 9.59375 
Q 22.59375 5.203125 28.796875 5.203125 
Q 35 5.203125 39.453125 9.59375 
Q 43.90625 14 43.90625 20.296875 
z
" id="STXihei-54"/>
      </defs>
      <g transform="translate(431.820034 320.359375)scale(0.1 -0.1)">
       <use xlink:href="#STXihei-54"/>
       <use x="55.399994" xlink:href="#STXihei-48"/>
       <use x="110.799988" xlink:href="#STXihei-48"/>
      </g>
     </g>
    </g>
    <g id="xtick_8">
     <g id="line2d_8">
      <g>
       <use style="stroke:#000000;stroke-width:0.8;" x="498.562497" xlink:href="#md9c40c58f6" y="306"/>
      </g>
     </g>
     <g id="text_8">
      <!-- 700 -->
      <defs>
       <path d="M 7.203125 71.796875 
L 52.703125 71.796875 
L 14.296875 -1.796875 
L 8.40625 1.203125 
L 41.59375 65 
L 7.203125 65 
z
" id="STXihei-55"/>
      </defs>
      <g transform="translate(490.25156 320.359375)scale(0.1 -0.1)">
       <use xlink:href="#STXihei-55"/>
       <use x="55.399994" xlink:href="#STXihei-48"/>
       <use x="110.799988" xlink:href="#STXihei-48"/>
      </g>
     </g>
    </g>
    <g id="text_9">
     <!-- 时间（天） -->
     <defs>
      <path d="M 74.59375 51.09375 
Q 74.59375 70.59375 73.5 76 
Q 76.09375 75.296875 81.296875 75.296875 
Q 83 75.296875 83 74.5 
Q 83 73.703125 81.84375 73.046875 
Q 80.703125 72.40625 80.703125 69.09375 
L 80.703125 51.09375 
Q 89.09375 51.203125 96 51.90625 
L 96 45.203125 
Q 90.59375 45.90625 80.703125 45.90625 
L 80.703125 -3.703125 
Q 80.703125 -8.40625 79.25 -10.90625 
Q 77.796875 -13.40625 73.296875 -14.59375 
Q 68.796875 -15.796875 59.5 -15.796875 
Q 59.5 -11.09375 55.90625 -7.296875 
Q 62.59375 -8.40625 66.640625 -8.40625 
Q 70.703125 -8.40625 72.640625 -6.796875 
Q 74.59375 -5.203125 74.59375 -0.296875 
L 74.59375 46 
L 61.796875 46 
Q 50.90625 46 42.90625 45.203125 
L 42.90625 51.90625 
Q 50.796875 51.09375 61.796875 51.09375 
z
M 15.09375 4.203125 
L 15.09375 -7.59375 
L 8.296875 -7.59375 
Q 9 -1.90625 9 6.703125 
L 9 56.59375 
Q 9 64.59375 8.40625 67.703125 
Q 11.59375 66.90625 24.75 66.90625 
Q 37.90625 66.90625 41.09375 67.703125 
Q 40.5 65.09375 40.5 56.59375 
L 40.5 8.09375 
Q 40.5 1.703125 41.203125 -5.09375 
L 34.296875 -5.09375 
L 34.296875 4.203125 
z
M 34.296875 37.296875 
L 34.296875 61.796875 
L 15.09375 61.796875 
L 15.09375 37.296875 
z
M 34.296875 8.90625 
L 34.296875 32.59375 
L 15.09375 32.59375 
L 15.09375 8.90625 
z
M 68.09375 16.796875 
L 62.296875 13 
Q 57.296875 23.40625 48.296875 32.90625 
L 53.40625 36.296875 
Q 62.796875 25.296875 68.09375 16.796875 
z
" id="STXihei-26102"/>
      <path d="M 34 62.59375 
L 29 57.796875 
Q 24.203125 64.90625 14.796875 71.40625 
L 18.59375 75.796875 
Q 27.796875 69.09375 34 62.59375 
z
M 87.90625 67.703125 
Q 87.203125 64.09375 87.203125 56.40625 
L 87.203125 -4.703125 
Q 87.203125 -9.796875 86.046875 -12.140625 
Q 84.90625 -14.5 81.84375 -15.34375 
Q 78.796875 -16.203125 72.09375 -16.40625 
Q 72.40625 -12.296875 69.40625 -8.90625 
Q 74 -9.703125 76.5 -9.703125 
Q 79 -9.703125 80.140625 -8.796875 
Q 81.296875 -7.90625 81.296875 -5 
L 81.296875 61.796875 
L 62.203125 61.796875 
Q 51.5 61.796875 43.796875 61.203125 
L 43.796875 67.59375 
Q 51.296875 67 66.6875 67 
Q 82.09375 67 87.90625 67.703125 
z
M 11.796875 58 
Q 14.296875 57.09375 15.1875 56.9375 
Q 16.09375 56.796875 18.4375 56.796875 
Q 20.796875 56.796875 20.796875 56.046875 
Q 20.796875 55.296875 19.296875 54.09375 
Q 18.90625 53.796875 18.5 51.796875 
Q 18.09375 49.796875 18.09375 47.5 
L 18.09375 -16.296875 
L 11.296875 -16.296875 
Q 12.296875 -7.296875 12.296875 -2.40625 
L 12.296875 45.40625 
Q 12.296875 51.90625 11.796875 58 
z
M 68.703125 2.59375 
Q 63.203125 3.296875 49.140625 3.296875 
Q 35.09375 3.296875 29.703125 2.59375 
Q 30 7.09375 30 8.796875 
L 30 41.5 
Q 30 44.5 29.703125 47.703125 
Q 35 47 49.09375 47 
Q 63.203125 47 68.703125 47.703125 
Q 68.40625 45.203125 68.40625 41.5 
L 68.40625 8.796875 
Q 68.40625 5.203125 68.703125 2.59375 
z
M 62.59375 27.296875 
L 62.59375 42.203125 
L 35.59375 42.203125 
L 35.59375 27.296875 
z
M 35.59375 22.59375 
L 35.59375 7.796875 
L 62.59375 7.796875 
L 62.59375 22.59375 
z
" id="STXihei-38388"/>
      <path d="M 90.40625 70.59375 
Q 81.703125 60.796875 77.5 51.6875 
Q 73.296875 42.59375 73.296875 33 
Q 73.296875 16.203125 77.34375 7.453125 
Q 81.40625 -1.296875 89.90625 -10.296875 
L 86 -14.203125 
Q 76.40625 -4.796875 71.65625 6.25 
Q 66.90625 17.296875 66.90625 32.90625 
Q 66.90625 43.203125 72.046875 54.34375 
Q 77.203125 65.5 86.796875 74.09375 
z
" id="STXihei-65288"/>
      <path d="M 47.90625 62.203125 
Q 25.90625 62.203125 15.203125 61.40625 
L 15.203125 67.90625 
Q 23.703125 67.09375 51.046875 67.09375 
Q 78.40625 67.09375 86.203125 67.90625 
L 86.203125 61.40625 
Q 78.40625 62.203125 53.796875 62.203125 
Q 54.203125 46.90625 52.296875 35.40625 
Q 84.40625 35.40625 92.796875 36.203125 
L 92.796875 29.59375 
Q 84.90625 30.40625 55 30.40625 
Q 60.203125 17.90625 70.84375 7.34375 
Q 81.5 -3.203125 94.09375 -8.203125 
Q 90.09375 -9.90625 87.796875 -14.59375 
Q 57.59375 6.09375 50.59375 28.09375 
Q 47 14.59375 37.953125 4.296875 
Q 28.90625 -6 11.703125 -15.90625 
Q 10.09375 -12.59375 5.796875 -10.203125 
Q 22.40625 -2.796875 31.75 6.953125 
Q 41.09375 16.703125 44.796875 30.40625 
Q 18.5 30.40625 8.09375 29.59375 
L 8.09375 36.203125 
Q 15.90625 35.40625 46 35.40625 
Q 48.40625 46.796875 47.90625 62.203125 
z
" id="STXihei-22825"/>
      <path d="M 13.203125 74.09375 
Q 22.796875 65.5 27.9375 54.34375 
Q 33.09375 43.203125 33.09375 32.90625 
Q 33.09375 17.296875 28.34375 6.25 
Q 23.59375 -4.796875 14 -14.203125 
L 10.09375 -10.296875 
Q 18.59375 -1.296875 22.640625 7.453125 
Q 26.703125 16.203125 26.703125 33 
Q 26.703125 42.59375 22.5 51.6875 
Q 18.296875 60.796875 9.59375 70.59375 
z
" id="STXihei-65289"/>
     </defs>
     <g transform="translate(243.76 347.01875)scale(0.2 -0.2)">
      <use xlink:href="#STXihei-26102"/>
      <use x="99.999985" xlink:href="#STXihei-38388"/>
      <use x="199.999969" xlink:href="#STXihei-65288"/>
      <use x="299.999954" xlink:href="#STXihei-22825"/>
      <use x="399.999939" xlink:href="#STXihei-65289"/>
     </g>
    </g>
   </g>
   <g id="matplotlib.axis_2">
    <g id="ytick_1">
     <g id="line2d_9">
      <defs>
       <path d="M 0 0 
L -3.5 0 
" id="m0cb25d1012" style="stroke:#000000;stroke-width:0.8;"/>
      </defs>
      <g>
       <use style="stroke:#000000;stroke-width:0.8;" x="69.12" xlink:href="#m0cb25d1012" y="293.727273"/>
      </g>
     </g>
     <g id="text_10">
      <!-- 0.0 -->
      <defs>
       <path d="M 9.09375 4.703125 
Q 9.09375 7.203125 10.890625 8.953125 
Q 12.703125 10.703125 15.09375 10.703125 
Q 17.59375 10.703125 19.34375 8.953125 
Q 21.09375 7.203125 21.09375 4.703125 
Q 21.09375 2.09375 19.34375 0.34375 
Q 17.59375 -1.40625 15.09375 -1.40625 
Q 12.703125 -1.40625 10.890625 0.390625 
Q 9.09375 2.203125 9.09375 4.703125 
z
" id="STXihei-46"/>
      </defs>
      <g transform="translate(48.268438 297.40696)scale(0.1 -0.1)">
       <use xlink:href="#STXihei-48"/>
       <use x="55.399994" xlink:href="#STXihei-46"/>
       <use x="83.099991" xlink:href="#STXihei-48"/>
      </g>
     </g>
    </g>
    <g id="ytick_2">
     <g id="line2d_10">
      <g>
       <use style="stroke:#000000;stroke-width:0.8;" x="69.12" xlink:href="#m0cb25d1012" y="244.635872"/>
      </g>
     </g>
     <g id="text_11">
      <!-- 0.2 -->
      <g transform="translate(48.268438 248.31556)scale(0.1 -0.1)">
       <use xlink:href="#STXihei-48"/>
       <use x="55.399994" xlink:href="#STXihei-46"/>
       <use x="83.099991" xlink:href="#STXihei-50"/>
      </g>
     </g>
    </g>
    <g id="ytick_3">
     <g id="line2d_11">
      <g>
       <use style="stroke:#000000;stroke-width:0.8;" x="69.12" xlink:href="#m0cb25d1012" y="195.544472"/>
      </g>
     </g>
     <g id="text_12">
      <!-- 0.4 -->
      <g transform="translate(48.268438 199.224159)scale(0.1 -0.1)">
       <use xlink:href="#STXihei-48"/>
       <use x="55.399994" xlink:href="#STXihei-46"/>
       <use x="83.099991" xlink:href="#STXihei-52"/>
      </g>
     </g>
    </g>
    <g id="ytick_4">
     <g id="line2d_12">
      <g>
       <use style="stroke:#000000;stroke-width:0.8;" x="69.12" xlink:href="#m0cb25d1012" y="146.453071"/>
      </g>
     </g>
     <g id="text_13">
      <!-- 0.6 -->
      <g transform="translate(48.268438 150.132759)scale(0.1 -0.1)">
       <use xlink:href="#STXihei-48"/>
       <use x="55.399994" xlink:href="#STXihei-46"/>
       <use x="83.099991" xlink:href="#STXihei-54"/>
      </g>
     </g>
    </g>
    <g id="ytick_5">
     <g id="line2d_13">
      <g>
       <use style="stroke:#000000;stroke-width:0.8;" x="69.12" xlink:href="#m0cb25d1012" y="97.361671"/>
      </g>
     </g>
     <g id="text_14">
      <!-- 0.8 -->
      <defs>
       <path d="M 38.40625 39.40625 
Q 52 32.703125 52 20.59375 
Q 52 11 45.25 4.59375 
Q 38.5 -1.796875 27.59375 -1.796875 
Q 16.59375 -1.796875 10 4.59375 
Q 3.40625 11 3.40625 20 
Q 3.40625 32.59375 17.296875 39.40625 
Q 6.796875 45 6.796875 54.90625 
Q 6.796875 62.296875 12.9375 67.9375 
Q 19.09375 73.59375 28.09375 73.59375 
Q 36.5 73.59375 42.59375 68.09375 
Q 48.703125 62.59375 48.703125 54.703125 
Q 48.703125 45.09375 38.40625 39.40625 
z
M 41.5 55 
Q 41.5 59.796875 37.75 63.25 
Q 34 66.703125 27.703125 66.703125 
Q 21.90625 66.703125 18 63.25 
Q 14.09375 59.796875 14.09375 54.796875 
Q 14.09375 50 18.34375 46.140625 
Q 22.59375 42.296875 28 42.296875 
Q 33.40625 42.296875 37.453125 46.09375 
Q 41.5 49.90625 41.5 55 
z
M 44.796875 20.5 
Q 44.796875 26.59375 39.84375 31.1875 
Q 34.90625 35.796875 28.09375 35.796875 
Q 20.796875 35.796875 15.6875 31.046875 
Q 10.59375 26.296875 10.59375 19.796875 
Q 10.59375 13.40625 15.296875 9.203125 
Q 20 5 27.703125 5 
Q 35.203125 5 40 9.5 
Q 44.796875 14 44.796875 20.5 
z
" id="STXihei-56"/>
      </defs>
      <g transform="translate(48.268438 101.041358)scale(0.1 -0.1)">
       <use xlink:href="#STXihei-48"/>
       <use x="55.399994" xlink:href="#STXihei-46"/>
       <use x="83.099991" xlink:href="#STXihei-56"/>
      </g>
     </g>
    </g>
    <g id="ytick_6">
     <g id="line2d_14">
      <g>
       <use style="stroke:#000000;stroke-width:0.8;" x="69.12" xlink:href="#m0cb25d1012" y="48.27027"/>
      </g>
     </g>
     <g id="text_15">
      <!-- 1.0 -->
      <g transform="translate(48.268438 51.949958)scale(0.1 -0.1)">
       <use xlink:href="#STXihei-49"/>
       <use x="55.399994" xlink:href="#STXihei-46"/>
       <use x="83.099991" xlink:href="#STXihei-48"/>
      </g>
     </g>
    </g>
    <g id="text_16">
     <!-- 数量（%） -->
     <defs>
      <path d="M 24.09375 49.296875 
Q 13.296875 49.296875 7.203125 48.59375 
L 7.203125 54.5 
Q 16.5 53.796875 28.703125 53.796875 
L 28.703125 64.5 
Q 28.703125 70 27.703125 74.90625 
Q 31.703125 74.5 34.140625 74.5 
Q 36.59375 74.5 36.59375 73.796875 
Q 36.59375 73.09375 35.796875 72.796875 
Q 34.40625 72.296875 34.40625 69.203125 
L 34.40625 53.796875 
Q 43.90625 53.90625 56 54.5 
L 56 48.59375 
Q 48.40625 49.296875 34.40625 49.296875 
Q 42.59375 43 50.203125 35.5 
L 45.796875 30.90625 
Q 40.5 37.5 34.40625 43.90625 
Q 34.59375 36 35.09375 30.5 
L 28 30.5 
Q 28.703125 37.59375 28.703125 47.90625 
Q 21.203125 34.703125 9.796875 25.40625 
Q 8.40625 27.59375 5.296875 29.40625 
Q 17.296875 38.09375 24.09375 49.296875 
z
M 74.203125 12.40625 
Q 79.90625 23.796875 80.90625 48.796875 
L 64.59375 48.796875 
Q 60.796875 36.90625 55.90625 28.703125 
Q 54.90625 29.09375 53.09375 30.09375 
Q 51.296875 31.09375 50.09375 31.5 
Q 55.40625 37.90625 59.203125 50.046875 
Q 63 62.203125 63.703125 74.703125 
Q 67.796875 73 72 73 
Q 73.296875 73 73.296875 71.84375 
Q 73.296875 70.703125 72.046875 69.953125 
Q 70.796875 69.203125 69.84375 67.296875 
Q 68.90625 65.40625 66.09375 53.90625 
L 83.09375 53.90625 
Q 91.40625 53.90625 95.40625 54.703125 
L 95.40625 48.09375 
Q 92.40625 48.703125 86.59375 48.703125 
Q 84.59375 19.203125 77.40625 7.09375 
Q 85.09375 -3.703125 96.703125 -8 
Q 93.796875 -10.59375 91.90625 -14.203125 
Q 82 -7.09375 74.296875 2.59375 
Q 66.09375 -7.703125 50.90625 -16.296875 
Q 49.203125 -13.90625 45.296875 -10.703125 
Q 52.203125 -8.703125 59.296875 -3.796875 
Q 66.40625 1.09375 70.90625 7 
Q 64.203125 17.09375 60.796875 32.703125 
L 66.40625 34.203125 
Q 66.796875 24.90625 74.203125 12.40625 
z
M 47.296875 71.703125 
Q 50 69.40625 51.703125 68.546875 
Q 53.40625 67.703125 53.40625 66.796875 
Q 53.40625 65.90625 52.25 65.59375 
Q 51.09375 65.296875 49.25 63.34375 
Q 47.40625 61.40625 43.203125 55.59375 
Q 41.59375 56.703125 38.59375 57.703125 
Q 44.59375 64.09375 47.296875 71.703125 
z
M 23.796875 59.203125 
L 18.703125 56.203125 
Q 14.796875 63.203125 10.796875 67.90625 
L 15.09375 70.5 
Q 20 65 23.796875 59.203125 
z
M 41.5 1.40625 
Q 47.5 -1 52.5 -3.5 
Q 50.40625 -5.296875 48.5 -8.5 
Q 43 -5.09375 37.296875 -2.59375 
Q 29.703125 -8.90625 11.703125 -14.203125 
Q 11 -10.796875 8.203125 -7.703125 
Q 23 -6 31.59375 -0.203125 
Q 23.09375 3 14.703125 4.703125 
Q 18.90625 10.5 21.796875 15.703125 
Q 12.90625 15.59375 7.296875 14.90625 
L 7.296875 20.90625 
Q 12.703125 20.5 24.09375 20.296875 
Q 25.90625 23.90625 27.90625 29.90625 
Q 31.203125 28.296875 33.34375 27.84375 
Q 35.5 27.40625 35.5 26.546875 
Q 35.5 25.703125 34.046875 25 
Q 32.59375 24.296875 30.09375 20.296875 
L 44.296875 20.296875 
Q 49.296875 20.296875 52.203125 21 
Q 47.203125 7.796875 41.5 1.40625 
z
M 27.59375 15.703125 
L 23.203125 7.5 
Q 29.703125 5.796875 36 3.40625 
Q 40.796875 8.203125 43.5 15.703125 
z
" id="STXihei-25968"/>
      <path d="M 81.203125 46.796875 
Q 78.296875 47.296875 50 47.296875 
Q 21.703125 47.296875 18.796875 46.796875 
Q 19.296875 53.59375 19.296875 58.75 
Q 19.296875 63.90625 18.796875 70.09375 
Q 21.796875 69.40625 49.390625 69.40625 
Q 77 69.40625 81.09375 70.09375 
Q 80.90625 62.796875 80.90625 57.796875 
Q 80.90625 52.796875 81.203125 46.796875 
z
M 75.09375 59.703125 
L 75.09375 65.5 
L 25.09375 65.5 
L 25.09375 59.703125 
z
M 25.09375 56.09375 
L 25.09375 50.90625 
L 75.09375 50.90625 
L 75.09375 56.09375 
z
M 94.5 38.203125 
Q 77.203125 39 47.75 39 
Q 18.296875 39 4.703125 38.203125 
L 4.703125 44 
Q 23.5 43.296875 49.546875 43.296875 
Q 75.59375 43.296875 94.5 44 
z
M 52.90625 -0.40625 
L 52.90625 -9 
Q 75.90625 -9 92.40625 -8 
L 92.40625 -14.203125 
Q 78.40625 -13.09375 49.703125 -13.09375 
Q 21 -13.09375 7.296875 -14.203125 
L 7.296875 -8 
Q 23.90625 -9 47.203125 -9 
L 47.203125 -0.40625 
Q 26.59375 -0.40625 14.5 -1.59375 
L 14.5 4.90625 
Q 28.40625 3.703125 47.203125 3.703125 
L 47.203125 10.09375 
Q 23.59375 10 18.09375 9.203125 
Q 18.5 15.296875 18.5 20.546875 
Q 18.5 25.796875 18.09375 35.5 
Q 23.296875 34.296875 49.1875 34.296875 
Q 75.09375 34.296875 82 35.5 
Q 81.59375 25.90625 81.59375 20.296875 
Q 81.59375 14.703125 82.09375 9.203125 
Q 77.90625 10.09375 52.90625 10.09375 
L 52.90625 3.703125 
Q 73.5 3.796875 84.90625 4.90625 
L 84.90625 -1.59375 
Q 73.5 -0.5 52.90625 -0.40625 
z
M 75.59375 23.90625 
L 75.59375 30.09375 
L 52.90625 30.09375 
L 52.90625 23.90625 
z
M 47.203125 23.90625 
L 47.203125 30.09375 
L 24.296875 30.09375 
L 24.296875 23.90625 
z
M 52.90625 20.296875 
L 52.90625 14.40625 
L 75.59375 14.40625 
L 75.59375 20.296875 
z
M 24.296875 20.296875 
L 24.296875 14.40625 
L 47.203125 14.40625 
L 47.203125 20.296875 
z
" id="STXihei-37327"/>
      <path d="M 67.40625 75 
L 15.09375 -5 
L 8.59375 -5 
L 56.296875 67.90625 
Q 50.5 66.5 44.453125 66.09375 
Q 38.40625 65.703125 35.59375 65.796875 
L 33 65.90625 
Q 36 61.703125 36 57 
Q 36 49.796875 31.140625 44.75 
Q 26.296875 39.703125 19 39.703125 
Q 12 39.703125 7.09375 44.59375 
Q 2.203125 49.5 2.203125 56.59375 
Q 2.203125 63.703125 7.25 68.59375 
Q 12.296875 73.5 18.90625 73.5 
Q 21.59375 73.5 25 72.796875 
Q 31.59375 71.40625 38.90625 71.40625 
Q 50.5 71.40625 61.703125 75 
z
M 29.90625 56.703125 
Q 29.90625 61.203125 26.75 64.296875 
Q 23.59375 67.40625 19.09375 67.40625 
Q 14.703125 67.40625 11.546875 64.25 
Q 8.40625 61.09375 8.40625 56.703125 
Q 8.40625 52.296875 11.546875 49.140625 
Q 14.703125 46 19.09375 46 
Q 23.59375 46 26.75 49.09375 
Q 29.90625 52.203125 29.90625 56.703125 
z
M 41.5 14.796875 
Q 41.5 21.703125 46.453125 26.703125 
Q 51.40625 31.703125 58.296875 31.703125 
Q 65.296875 31.703125 70.25 26.75 
Q 75.203125 21.796875 75.203125 14.796875 
Q 75.203125 7.796875 70.25 2.84375 
Q 65.296875 -2.09375 58.296875 -2.09375 
Q 51.40625 -2.09375 46.453125 2.84375 
Q 41.5 7.796875 41.5 14.796875 
z
M 69.09375 14.796875 
Q 69.09375 19.203125 65.9375 22.34375 
Q 62.796875 25.5 58.296875 25.5 
Q 53.90625 25.5 50.796875 22.34375 
Q 47.703125 19.203125 47.703125 14.796875 
Q 47.703125 10.40625 50.796875 7.25 
Q 53.90625 4.09375 58.296875 4.09375 
Q 62.796875 4.09375 65.9375 7.1875 
Q 69.09375 10.296875 69.09375 14.796875 
z
" id="STXihei-37"/>
     </defs>
     <g transform="translate(29.387188 218.75)rotate(-90)scale(0.2 -0.2)">
      <use xlink:href="#STXihei-25968"/>
      <use x="99.999985" xlink:href="#STXihei-37327"/>
      <use x="199.999969" xlink:href="#STXihei-65288"/>
      <use x="299.999954" xlink:href="#STXihei-37"/>
      <use x="377.499939" xlink:href="#STXihei-65289"/>
     </g>
    </g>
   </g>
   <g id="line2d_15">
    <path clip-path="url(#p2ffae05d07)" d="M 89.541818 48.272727 
L 174.26753 48.557091 
L 194.134249 48.894837 
L 208.157815 49.343629 
L 219.259805 49.910618 
L 228.608849 50.605798 
L 236.789263 51.440232 
L 243.801046 52.374677 
L 250.228513 53.452885 
L 256.071666 54.653831 
L 261.330503 55.943627 
L 266.589341 57.457522 
L 271.848178 59.219368 
L 276.5227 61.010212 
L 281.197222 63.023548 
L 285.871744 65.264378 
L 290.546266 67.730648 
L 295.805103 70.761234 
L 301.648256 74.411114 
L 308.075724 78.696002 
L 318.593398 86.022709 
L 328.526758 92.843323 
L 334.954226 96.979523 
L 340.213063 100.118487 
L 345.4719 102.997898 
L 350.146422 105.32295 
L 354.820944 107.422138 
L 359.495466 109.298137 
L 364.754304 111.152657 
L 370.013141 112.754026 
L 375.271978 114.124805 
L 381.115131 115.407274 
L 386.958283 116.469198 
L 393.385751 117.421087 
L 400.981849 118.305609 
L 409.162263 119.02712 
L 418.511307 119.629091 
L 429.613297 120.121544 
L 443.636863 120.51327 
L 462.334951 120.798411 
L 490.382083 120.979679 
L 497.978182 121.003571 
L 497.978182 121.003571 
" style="fill:none;stroke:#1f77b4;stroke-linecap:square;stroke-width:1.5;"/>
   </g>
   <g id="line2d_16">
    <path clip-path="url(#p2ffae05d07)" d="M 89.541818 293.727273 
L 270.095232 293.551489 
L 330.279703 293.357744 
L 487.460507 293.724776 
L 497.978182 293.725597 
L 497.978182 293.725597 
" style="fill:none;stroke:#ff7f0e;stroke-linecap:square;stroke-width:1.5;"/>
   </g>
   <g id="line2d_17">
    <path clip-path="url(#p2ffae05d07)" d="M 89.541818 293.727273 
L 166.671432 293.708221 
L 224.518642 293.556521 
L 252.565774 293.268392 
L 275.354069 292.812735 
L 312.165931 292.01951 
L 325.605181 292.014036 
L 340.213063 292.242749 
L 399.228904 293.430162 
L 429.028982 293.625843 
L 482.20167 293.713558 
L 497.978182 293.719744 
L 497.978182 293.719744 
" style="fill:none;stroke:#2ca02c;stroke-linecap:square;stroke-width:1.5;"/>
   </g>
   <g id="line2d_18">
    <path clip-path="url(#p2ffae05d07)" d="M 89.541818 293.727273 
L 307.491409 293.616196 
L 365.338619 293.664978 
L 470.515365 293.7257 
L 497.978182 293.726717 
L 497.978182 293.726717 
" style="fill:none;stroke:#d62728;stroke-linecap:square;stroke-width:1.5;"/>
   </g>
   <g id="line2d_19">
    <path clip-path="url(#p2ffae05d07)" d="M 89.541818 293.727273 
L 242.0481 293.61628 
L 281.197222 293.353066 
L 321.514975 293.085694 
L 344.887585 293.202741 
L 408.577948 293.642816 
L 471.683995 293.71916 
L 497.978182 293.72428 
L 497.978182 293.72428 
" style="fill:none;stroke:#9467bd;stroke-linecap:square;stroke-width:1.5;"/>
   </g>
   <g id="line2d_20">
    <path clip-path="url(#p2ffae05d07)" d="M 89.541818 293.724816 
L 132.196832 293.727106 
L 497.978182 293.727007 
L 497.978182 293.727007 
" style="fill:none;stroke:#8c564b;stroke-linecap:square;stroke-width:1.5;"/>
   </g>
   <g id="line2d_21">
    <path clip-path="url(#p2ffae05d07)" d="M 89.541818 293.727273 
L 275.354069 293.617494 
L 338.460117 293.537665 
L 457.660429 293.722845 
L 497.978182 293.726314 
L 497.978182 293.726314 
" style="fill:none;stroke:#e377c2;stroke-linecap:square;stroke-width:1.5;"/>
   </g>
   <g id="line2d_22">
    <path clip-path="url(#p2ffae05d07)" d="M 89.541818 293.727273 
L 184.20089 293.369817 
L 202.314663 293.0028 
L 215.753913 292.511899 
L 226.271588 291.913127 
L 235.036317 291.20342 
L 242.632415 290.37876 
L 249.644198 289.395746 
L 256.071666 288.263675 
L 261.914819 287.005466 
L 267.173656 285.657335 
L 272.432493 284.079101 
L 277.69133 282.247913 
L 282.365853 280.392583 
L 287.040375 278.313832 
L 291.714897 276.008844 
L 296.973734 273.151389 
L 302.232571 270.03352 
L 308.075724 266.306908 
L 315.671822 261.163399 
L 334.954226 247.922164 
L 340.797378 244.240471 
L 346.056215 241.170268 
L 351.315053 238.36356 
L 355.989575 236.1036 
L 360.664097 234.067851 
L 365.338619 232.252142 
L 370.597456 230.460424 
L 375.856293 228.915738 
L 381.115131 227.595214 
L 386.958283 226.361177 
L 393.385751 225.248747 
L 400.397534 224.280357 
L 407.993632 223.465393 
L 416.758361 222.761288 
L 426.691721 222.191773 
L 438.962341 221.722868 
L 454.154538 221.37331 
L 475.189887 221.12552 
L 497.978182 221.007948 
L 497.978182 221.007948 
" style="fill:none;stroke:#7f7f7f;stroke-linecap:square;stroke-width:1.5;"/>
   </g>
   <g id="patch_3">
    <path d="M 69.12 306 
L 69.12 36 
" style="fill:none;stroke:#000000;stroke-linecap:square;stroke-linejoin:miter;stroke-width:0.8;"/>
   </g>
   <g id="patch_4">
    <path d="M 518.4 306 
L 518.4 36 
" style="fill:none;stroke:#000000;stroke-linecap:square;stroke-linejoin:miter;stroke-width:0.8;"/>
   </g>
   <g id="patch_5">
    <path d="M 69.12 306 
L 518.4 306 
" style="fill:none;stroke:#000000;stroke-linecap:square;stroke-linejoin:miter;stroke-width:0.8;"/>
   </g>
   <g id="patch_6">
    <path d="M 69.12 36 
L 518.4 36 
" style="fill:none;stroke:#000000;stroke-linecap:square;stroke-linejoin:miter;stroke-width:0.8;"/>
   </g>
   <g id="text_17">
    <!-- SEAIQ模型 -->
    <defs>
     <path d="M 1.296875 13.40625 
L 7.40625 17 
Q 13.796875 5.203125 22.296875 5.203125 
Q 27.796875 5.203125 31.6875 8.703125 
Q 35.59375 12.203125 35.59375 17.40625 
Q 35.59375 21.5 32.296875 25.703125 
Q 29 29.90625 20.796875 36 
Q 13.703125 41.40625 11.046875 44.25 
Q 8.40625 47.09375 7.15625 50.34375 
Q 5.90625 53.59375 5.90625 56.90625 
Q 5.90625 63.90625 10.84375 68.75 
Q 15.796875 73.59375 23.296875 73.59375 
Q 29.203125 73.59375 33.59375 70.640625 
Q 38 67.703125 42.09375 61.90625 
L 36.296875 57.40625 
Q 33.5 61.203125 30.5 63.703125 
Q 27.5 66.203125 23.09375 66.203125 
Q 18.796875 66.203125 16.046875 63.59375 
Q 13.296875 61 13.296875 57.09375 
Q 13.296875 53 15.75 50.046875 
Q 18.203125 47.09375 27.09375 40.59375 
Q 35.5 34.296875 39.453125 28.890625 
Q 43.40625 23.5 43.40625 17.5 
Q 43.40625 9.703125 37.34375 3.953125 
Q 31.296875 -1.796875 23.296875 -1.796875 
Q 9.203125 -1.796875 1.296875 13.40625 
z
" id="STXihei-83"/>
     <path d="M 8.796875 71.796875 
L 50 71.796875 
L 50 64.703125 
L 16 64.703125 
L 16 42.296875 
L 49.703125 42.296875 
L 49.703125 35.296875 
L 16 35.296875 
L 16 7.09375 
L 49.703125 7.09375 
L 49.703125 0 
L 8.796875 0 
z
" id="STXihei-69"/>
     <path d="M 38.09375 74.703125 
L 71.59375 0 
L 63.90625 0 
L 52.59375 24.5 
L 21.59375 24.5 
L 10.40625 0 
L 2.40625 0 
L 36.296875 74.703125 
z
M 37.203125 58.796875 
L 24.90625 31.796875 
L 49.40625 31.796875 
z
" id="STXihei-65"/>
     <path d="M 7.703125 71.796875 
L 14.90625 71.796875 
L 14.90625 0 
L 7.703125 0 
z
" id="STXihei-73"/>
     <path d="M 69 7.796875 
L 79.59375 -5.703125 
L 70.796875 -5.703125 
L 63.5 3.59375 
Q 54.59375 -1.796875 44.09375 -1.796875 
Q 27.796875 -1.796875 16.75 9.046875 
Q 5.703125 19.90625 5.703125 35.59375 
Q 5.703125 51.703125 16.390625 62.640625 
Q 27.09375 73.59375 43.5 73.59375 
Q 53.796875 73.59375 62.546875 68.59375 
Q 71.296875 63.59375 76.296875 54.890625 
Q 81.296875 46.203125 81.296875 35.90625 
Q 81.296875 19.40625 69 7.796875 
z
M 64.59375 13.40625 
Q 73.90625 22.59375 73.90625 35.90625 
Q 73.90625 48.796875 64.90625 57.6875 
Q 55.90625 66.59375 43.5 66.59375 
Q 30.90625 66.59375 22.046875 57.59375 
Q 13.203125 48.59375 13.203125 35.59375 
Q 13.203125 22.5 22.203125 13.84375 
Q 31.203125 5.203125 43.59375 5.203125 
Q 51.90625 5.203125 59 9.296875 
L 43 29.59375 
L 51.703125 29.59375 
z
" id="STXihei-81"/>
     <path d="M 26.90625 53.90625 
Q 34.59375 53.90625 39.5 54.703125 
L 39.5 48.203125 
Q 34.59375 49 26.90625 49 
L 26.90625 40.5 
Q 33.40625 35.296875 40.09375 28.5 
L 35 24.203125 
Q 31.703125 30.296875 26.90625 34.796875 
L 26.90625 2.59375 
Q 26.90625 -7.09375 27.703125 -16.203125 
L 20.203125 -16.203125 
Q 21 -5.703125 21 2.59375 
L 21 32.703125 
Q 15.90625 16.90625 8.90625 6.40625 
Q 6.703125 9.703125 2.5 10.5 
Q 8.5 16.796875 13.59375 27.59375 
Q 18.703125 38.40625 20.90625 49 
Q 11.09375 49 5.296875 48.203125 
L 5.296875 54.703125 
Q 11.09375 53.90625 21 53.90625 
Q 21 68.40625 20 75.203125 
Q 23.90625 74.296875 27.796875 74.296875 
Q 29.5 74.296875 29.5 73.640625 
Q 29.5 73 28.203125 71.5 
Q 26.90625 70 26.90625 65.40625 
z
M 78.90625 65 
Q 88.40625 65 94.703125 65.796875 
L 94.703125 59.5 
Q 88.40625 60.296875 78.90625 60.296875 
L 78.90625 52.90625 
L 73.09375 52.90625 
L 73.09375 60.296875 
L 59.09375 60.296875 
L 59.09375 52.796875 
L 53.59375 52.796875 
L 53.59375 60.296875 
Q 45 60.296875 38.796875 59.5 
L 38.796875 65.796875 
Q 45 65 53.59375 65 
Q 53.5 71.59375 53 74.90625 
Q 56.90625 74.296875 59.796875 74.296875 
Q 60.796875 74.296875 60.796875 73.640625 
Q 60.796875 73 60.203125 72.59375 
Q 59.09375 72 59.09375 69.5 
L 59.09375 65 
L 73.09375 65 
Q 73.09375 71.90625 72.5 74.796875 
Q 76.296875 74.203125 79.59375 74.203125 
Q 80.59375 74.203125 80.59375 73.703125 
Q 80.59375 73.203125 80 72.796875 
Q 78.90625 72.09375 78.90625 69.703125 
z
M 69.09375 9.09375 
Q 77.59375 -3.5 97 -10 
Q 94.296875 -11.59375 92.5 -15.796875 
Q 74.203125 -6.40625 66.09375 6 
Q 63.5 -1.5 57 -6.796875 
Q 50.5 -12.09375 37.90625 -16.796875 
Q 36.59375 -13.203125 32.90625 -11 
Q 45.40625 -8.09375 52.203125 -3.296875 
Q 59 1.5 61.5 9.09375 
Q 43.296875 9.09375 36.59375 8.09375 
L 36.59375 14.59375 
Q 44.09375 13.59375 62.5 13.59375 
Q 63.203125 17.5 63.09375 21.90625 
Q 51.40625 21.90625 44 21.59375 
Q 44.40625 30.703125 44.40625 37.890625 
Q 44.40625 45.09375 44 50.703125 
Q 50.703125 50.203125 58.703125 50.203125 
L 75.59375 50.203125 
Q 82.703125 50.203125 88.90625 50.703125 
Q 88.703125 43.40625 88.703125 37.046875 
Q 88.703125 30.703125 88.90625 21.5 
Q 82.296875 21.90625 68.59375 21.90625 
Q 68.40625 17.09375 67.90625 13.59375 
Q 90.203125 13.59375 96.796875 14.59375 
L 96.796875 8.09375 
Q 89.5 9.09375 69.09375 9.09375 
z
M 49.796875 38.296875 
L 83.09375 38.296875 
L 83.09375 45.703125 
L 49.796875 45.703125 
z
M 83.09375 33.703125 
L 49.796875 33.703125 
L 49.796875 26.40625 
L 83.09375 26.40625 
z
" id="STXihei-27169"/>
     <path d="M 81.59375 74 
Q 83.90625 73.40625 85.546875 73.34375 
Q 87.203125 73.296875 88.703125 73.296875 
Q 90.203125 73.296875 90.203125 72.4375 
Q 90.203125 71.59375 89.09375 71 
Q 88 70.40625 88 68.40625 
L 88 30.203125 
Q 88 26.09375 87.046875 24 
Q 86.09375 21.90625 83 20.796875 
Q 79.90625 19.703125 73.5 19.59375 
Q 74 23.40625 71.203125 26.5 
Q 75.40625 25.703125 77.796875 25.703125 
Q 80.203125 25.703125 81.296875 26.703125 
Q 82.40625 27.703125 82.40625 30.796875 
L 82.40625 57.59375 
Q 82.40625 67.796875 81.59375 74 
z
M 24.90625 64 
Q 17.09375 63.703125 13.40625 63.296875 
L 13.40625 69 
Q 22 68.203125 36.09375 68.203125 
Q 50.203125 68.203125 58.796875 69 
L 58.796875 63.296875 
Q 54.40625 63.796875 48.40625 63.90625 
L 48.40625 48 
Q 55.703125 48.09375 61.796875 48.703125 
L 61.796875 42.703125 
Q 57.203125 43.296875 48.40625 43.40625 
Q 48.40625 31.09375 49.296875 24.09375 
L 42 24.09375 
Q 42.90625 31.09375 42.90625 43.40625 
L 29.703125 43.40625 
Q 28.796875 35.59375 25.890625 29.9375 
Q 23 24.296875 16.59375 18.40625 
Q 14 21.09375 10.203125 22.59375 
Q 16.90625 26.703125 20 31.453125 
Q 23.09375 36.203125 24.09375 43.296875 
Q 15.703125 43.296875 9.796875 42.703125 
L 9.796875 48.703125 
Q 16.296875 48.09375 24.703125 48 
Q 25.09375 52.09375 25.09375 56.1875 
Q 25.09375 60.296875 24.90625 64 
z
M 42.90625 64 
L 30.296875 64.09375 
Q 30.5 60.203125 30.5 56.203125 
Q 30.5 52.203125 30.203125 48 
L 42.90625 48 
z
M 65.09375 67.40625 
Q 67.40625 66.59375 72.09375 66.59375 
Q 73.203125 66.59375 73.203125 65.9375 
Q 73.203125 65.296875 72.140625 64.640625 
Q 71.09375 64 71.09375 62 
L 71.09375 46 
Q 71.09375 40.09375 71.796875 31.703125 
L 65.203125 31.703125 
Q 65.90625 38 65.90625 46 
L 65.90625 56.296875 
Q 65.90625 63.296875 65.09375 67.40625 
z
M 47.296875 7.296875 
Q 28.203125 7.203125 17.40625 6.203125 
L 17.40625 12.90625 
Q 28.203125 11.90625 47.296875 11.796875 
Q 47.203125 19.40625 46.59375 22.703125 
Q 51 22.09375 53.453125 22.09375 
Q 55.90625 22.09375 55.90625 21.390625 
Q 55.90625 20.703125 54.59375 19.703125 
Q 53.296875 18.703125 53.296875 16.203125 
L 53.296875 11.796875 
Q 73.59375 11.796875 84.203125 12.90625 
L 84.203125 6.203125 
Q 73.203125 7.296875 53.296875 7.296875 
L 53.296875 -5.90625 
Q 79.09375 -5.796875 93.59375 -4.59375 
L 93.59375 -11.90625 
Q 77.796875 -10.703125 50.09375 -10.703125 
Q 22.40625 -10.703125 6.59375 -11.90625 
L 6.59375 -4.59375 
Q 23.09375 -5.90625 47.296875 -5.90625 
z
" id="STXihei-22411"/>
    </defs>
    <g transform="translate(240.181406 30)scale(0.22 -0.22)">
     <use xlink:href="#STXihei-83"/>
     <use x="49.799988" xlink:href="#STXihei-69"/>
     <use x="103.399979" xlink:href="#STXihei-65"/>
     <use x="177.399963" xlink:href="#STXihei-73"/>
     <use x="199.999954" xlink:href="#STXihei-81"/>
     <use x="287.099945" xlink:href="#STXihei-27169"/>
     <use x="387.09993" xlink:href="#STXihei-22411"/>
    </g>
   </g>
   <g id="legend_1">
    <g id="patch_7">
     <path d="M 77.52 241.575937 
L 235.92 241.575937 
Q 238.32 241.575937 238.32 239.175937 
L 238.32 102.824062 
Q 238.32 100.424062 235.92 100.424062 
L 77.52 100.424062 
Q 75.12 100.424062 75.12 102.824062 
L 75.12 239.175937 
Q 75.12 241.575937 77.52 241.575937 
z
" style="fill:#ffffff;opacity:0.8;stroke:#cccccc;stroke-linejoin:miter;"/>
    </g>
    <g id="line2d_23">
     <path d="M 79.92 109.855312 
L 103.92 109.855312 
" style="fill:none;stroke:#1f77b4;stroke-linecap:square;stroke-width:1.5;"/>
    </g>
    <g id="line2d_24"/>
    <g id="text_18">
     <!-- 易感染者 -->
     <defs>
      <path d="M 70.296875 22.796875 
Q 61.703125 1 38.40625 -16.203125 
Q 36 -13.203125 31.09375 -12 
Q 43 -5.90625 51.59375 3.140625 
Q 60.203125 12.203125 63.90625 22.796875 
L 50.296875 22.796875 
Q 41.296875 6.40625 19.40625 -8.796875 
Q 17.703125 -5.296875 13.296875 -4.203125 
Q 36.40625 7.40625 44.09375 22.796875 
L 28.59375 22.796875 
Q 21.90625 15.5 12.5 9 
Q 10.59375 12.40625 6.203125 13.40625 
Q 14.90625 17.59375 22.046875 23.9375 
Q 29.203125 30.296875 32.796875 37 
Q 25.5 36.90625 21.296875 36.59375 
Q 22.09375 39.203125 22.09375 43.203125 
L 22.09375 63.40625 
Q 22.09375 67.40625 21.296875 70.203125 
Q 26.703125 69.703125 49.59375 69.703125 
Q 72.5 69.703125 78.59375 70.203125 
Q 77.59375 67.90625 77.59375 63.40625 
L 77.59375 43.203125 
Q 77.59375 38.703125 78.59375 36.59375 
Q 71.703125 37.09375 39.5 37.09375 
Q 36.5 32.5 32.59375 27.5 
L 67.59375 27.5 
Q 81.703125 27.5 87.796875 28.203125 
L 84.796875 -0.203125 
Q 84.203125 -6.296875 82.796875 -9.046875 
Q 81.40625 -11.796875 77.953125 -13.09375 
Q 74.5 -14.40625 66.703125 -15.5 
Q 66.40625 -11.90625 63.203125 -8.203125 
Q 66.5 -8.40625 68.59375 -8.40625 
Q 74.5 -8.40625 76.34375 -6.796875 
Q 78.203125 -5.203125 78.703125 -0.09375 
L 81 22.796875 
z
M 28.203125 55.296875 
L 71.59375 55.296875 
L 71.59375 65.09375 
L 28.203125 65.09375 
z
M 71.59375 50.59375 
L 28.203125 50.59375 
L 28.203125 41.203125 
L 71.59375 41.203125 
z
" id="STXihei-26131"/>
      <path d="M 82.40625 68 
L 77.703125 63.796875 
Q 74.5 68.90625 68.203125 72.09375 
L 72.40625 76.59375 
Q 78.796875 71.90625 82.40625 68 
z
M 56.59375 58.5 
L 19.203125 58.5 
Q 19.203125 40.703125 17.703125 30.84375 
Q 16.203125 21 11.5 11.203125 
Q 8.59375 13.40625 4.703125 14.203125 
Q 9.40625 20.296875 11.453125 28.25 
Q 13.5 36.203125 13.5 49 
Q 13.5 55.5 13 64 
Q 15.90625 63.296875 56.09375 63.296875 
Q 55.59375 68.796875 55.40625 76 
Q 58.5 74.90625 62.703125 74.90625 
Q 64.203125 74.90625 64.203125 74.046875 
Q 64.203125 73.203125 63.34375 72.59375 
Q 62.5 72 62.203125 71 
Q 61.90625 70 61.90625 68 
Q 61.90625 66 62 63.296875 
Q 84.40625 63.296875 87.90625 64 
L 87.90625 57.796875 
Q 80.296875 58.5 62.296875 58.5 
Q 63.5 46.59375 69.296875 34.90625 
Q 75.09375 42.90625 78.09375 51.59375 
Q 81.40625 49.09375 84.40625 48.09375 
Q 85.40625 47.796875 85.40625 47.140625 
Q 85.40625 46.5 83.796875 45.84375 
Q 82.203125 45.203125 79.796875 41.40625 
Q 75.59375 34.59375 72 30 
Q 75.703125 23.90625 78.703125 21.25 
Q 81.703125 18.59375 83.546875 18.59375 
Q 85.40625 18.59375 86.296875 20.84375 
Q 87.203125 23.09375 87.59375 27.703125 
Q 90 24.703125 93.59375 24.09375 
Q 92.40625 19.703125 90.453125 16.046875 
Q 88.5 12.40625 85.09375 12.40625 
Q 76.59375 12.40625 68.09375 25 
Q 62.796875 18.203125 55.90625 11.703125 
Q 53.90625 13.90625 50.09375 15.09375 
Q 57.203125 20.296875 65.296875 29.59375 
Q 58.90625 41.09375 56.59375 58.5 
z
M 23.5 51 
Q 29.09375 50.40625 38.796875 50.40625 
Q 48.5 50.40625 54 51 
L 54 45.203125 
Q 49.703125 45.796875 38.75 45.796875 
Q 27.796875 45.796875 23.5 45.203125 
z
M 52.40625 39 
Q 51.796875 33.59375 51.796875 28.4375 
Q 51.796875 23.296875 52.296875 18.796875 
Q 48.40625 19.203125 38.75 19.203125 
Q 29.09375 19.203125 24.90625 18.796875 
Q 25.59375 24.703125 25.59375 30 
Q 25.59375 35.296875 24.90625 39 
Q 30.40625 38.296875 38.59375 38.296875 
Q 46.796875 38.296875 52.40625 39 
z
M 46.40625 23.40625 
L 46.40625 34.09375 
L 31 34.09375 
L 31 23.40625 
z
M 59 4.09375 
L 54.59375 -0.203125 
Q 47.90625 7.09375 41.5 11.40625 
L 45.5 15.703125 
Q 52.703125 10.703125 59 4.09375 
z
M 74.5 -1.5 
Q 73.296875 -6.59375 71 -9.09375 
Q 68.703125 -11.59375 63.84375 -12.4375 
Q 59 -13.296875 48.140625 -13.296875 
Q 37.296875 -13.296875 34.140625 -12.640625 
Q 31 -12 29.84375 -10.09375 
Q 28.703125 -8.203125 28.703125 -4.40625 
L 28.703125 7.59375 
Q 28.703125 11.90625 28.296875 13.40625 
Q 31 12.5 35.40625 12.5 
Q 36.796875 12.5 36.796875 11.84375 
Q 36.796875 11.203125 35.75 10.25 
Q 34.703125 9.296875 34.703125 6.90625 
L 34.703125 -4 
Q 34.703125 -6.296875 37.046875 -7.1875 
Q 39.40625 -8.09375 48.59375 -8.09375 
Q 55.203125 -8.09375 59.890625 -7.34375 
Q 64.59375 -6.59375 66.296875 -4.6875 
Q 68 -2.796875 68.296875 2.703125 
Q 70.796875 -0.59375 74.5 -1.5 
z
M 23 9.296875 
Q 18.59375 -2.59375 12.5 -11.5 
L 6.296875 -8.296875 
Q 14.296875 0.09375 17.203125 11.40625 
z
M 93.90625 -5.90625 
L 88.5 -10.5 
Q 81.90625 -1 73.296875 5.90625 
L 77.703125 10.296875 
Q 86.5 3.40625 93.90625 -5.90625 
z
" id="STXihei-24863"/>
      <path d="M 61.5 56.40625 
Q 60.5 48.09375 55.640625 41.34375 
Q 50.796875 34.59375 40.90625 27.203125 
Q 39.09375 30.59375 34.90625 31.90625 
Q 53.703125 40.796875 56 56.09375 
Q 46.40625 55.703125 40.5 54.59375 
L 40.5 60.59375 
Q 43.5 60.40625 47.296875 60.40625 
Q 51.09375 60.40625 56.5 60.703125 
Q 56.703125 63.796875 56.703125 67.34375 
Q 56.703125 70.90625 55.796875 76.296875 
Q 58.40625 75.703125 63 75.703125 
Q 64.796875 75.703125 64.796875 74.890625 
Q 64.796875 74.09375 63.9375 73.1875 
Q 63.09375 72.296875 62.6875 70 
Q 62.296875 67.703125 61.90625 61 
Q 76 61.90625 81.59375 62.5 
L 79.796875 38 
Q 79.59375 35.09375 80.25 34.140625 
Q 80.90625 33.203125 83.59375 33.203125 
Q 86.296875 33.203125 87.75 34.640625 
Q 89.203125 36.09375 90 40.90625 
Q 91.796875 37.90625 95.296875 37.203125 
Q 93.796875 32.90625 92.4375 31.09375 
Q 91.09375 29.296875 88.890625 28.6875 
Q 86.703125 28.09375 81.953125 28.09375 
Q 77.203125 28.09375 75.703125 29.5 
Q 74.203125 30.90625 74.203125 34.5 
Q 74.203125 34.796875 74.40625 38 
L 75.59375 57.09375 
z
M 38.09375 63.59375 
L 34.796875 58.703125 
Q 27.59375 64.703125 17.5 69.703125 
L 20.40625 74.203125 
Q 29.703125 69.703125 38.09375 63.59375 
z
M 29.703125 51.703125 
L 26.703125 47.203125 
Q 20.40625 51.59375 9.90625 55.59375 
L 12.203125 60.296875 
Q 20.796875 56.90625 29.703125 51.703125 
z
M 38 42.296875 
Q 24.90625 34.59375 13 25.296875 
L 8.5 31.5 
Q 25.09375 38.203125 35 47.90625 
Q 35.796875 44.703125 38 42.296875 
z
M 54.203125 20.296875 
Q 81.296875 20.296875 94.796875 21.296875 
L 94.796875 14.796875 
Q 81.703125 15.59375 61.90625 15.5 
Q 77.203125 -0.40625 95.59375 -4.203125 
Q 92.40625 -6.5 91 -11.09375 
Q 67.796875 -0.5 56.703125 15.5 
L 54.203125 15.5 
L 54.203125 -6 
Q 54.203125 -11.796875 54.796875 -16.296875 
L 47.40625 -16.296875 
Q 48.203125 -11.203125 48.203125 -6 
L 48.203125 15.5 
L 46.296875 15.5 
Q 35.40625 -0.203125 11 -12.5 
Q 9.5 -9.5 5.296875 -6.296875 
Q 27.40625 -0.09375 40.40625 15.5 
Q 13.90625 15.5 6.796875 14.796875 
L 6.796875 21.296875 
Q 20.203125 20.296875 48.203125 20.296875 
Q 48 27.296875 47.59375 30.09375 
Q 51.40625 29.59375 54.296875 29.59375 
Q 57.203125 29.59375 57.203125 28.84375 
Q 57.203125 28.09375 55.703125 27.34375 
Q 54.203125 26.59375 54.203125 24.59375 
z
" id="STXihei-26579"/>
      <path d="M 45.703125 57.703125 
Q 27.796875 57.703125 17.796875 56.59375 
L 17.796875 63.5 
Q 26.5 62.5 45.703125 62.40625 
Q 45.703125 72.09375 45 76.59375 
Q 47.5 76 52.5 76 
Q 54.296875 76 54.296875 75.296875 
Q 54.296875 74.59375 53.046875 73.59375 
Q 51.796875 72.59375 51.796875 70.09375 
L 51.796875 62.40625 
Q 64.296875 62.5 74.796875 63.5 
L 74.796875 56.796875 
Q 81 63.203125 84.296875 70.09375 
Q 86.90625 66.90625 89.09375 65.796875 
Q 91.296875 64.703125 91.296875 63.59375 
Q 91.296875 62.5 89.390625 62.25 
Q 87.5 62 80.09375 54.75 
Q 72.703125 47.5 67.59375 42.90625 
Q 86.59375 43.40625 95.203125 44.09375 
L 95.203125 36.90625 
Q 82.203125 38 61.796875 38.09375 
Q 53.296875 31.296875 45.5 26.40625 
L 59.703125 26.40625 
Q 73.40625 26.40625 81.203125 27.296875 
Q 80.703125 24.40625 80.703125 19.59375 
L 80.703125 -5 
Q 80.703125 -9.5 81.296875 -15 
L 74.40625 -15 
L 74.40625 -9.203125 
L 35.40625 -9.203125 
L 35.40625 -16.203125 
L 28.796875 -16.203125 
Q 29.296875 -11.90625 29.296875 -6.203125 
L 29.296875 16.90625 
Q 19 11.296875 8.703125 6.796875 
Q 7.5 11.40625 3.296875 13.40625 
Q 14.703125 16.40625 29.203125 23.5 
Q 29.09375 25 28.703125 27.296875 
Q 31.5 26.90625 35.40625 26.796875 
Q 45.203125 32.09375 53.40625 38.203125 
L 32.5 38.203125 
Q 18.90625 38.203125 5.796875 36.90625 
L 5.796875 44.09375 
Q 22.5 42.90625 45.703125 42.796875 
z
M 74.59375 56.59375 
Q 64.203125 57.59375 51.796875 57.703125 
L 51.796875 42.796875 
L 59.203125 42.796875 
Q 69.796875 51.59375 74.59375 56.59375 
z
M 35.40625 12 
L 74.40625 12 
L 74.40625 21.5 
L 37.40625 21.5 
L 35.40625 20.296875 
z
M 74.40625 6.59375 
L 35.40625 6.59375 
L 35.40625 -4.703125 
L 74.40625 -4.703125 
z
" id="STXihei-32773"/>
     </defs>
     <g transform="translate(113.52 114.055312)scale(0.12 -0.12)">
      <use xlink:href="#STXihei-26131"/>
      <use x="99.999985" xlink:href="#STXihei-24863"/>
      <use x="199.999969" xlink:href="#STXihei-26579"/>
      <use x="299.999954" xlink:href="#STXihei-32773"/>
     </g>
    </g>
    <g id="line2d_25">
     <path d="M 79.92 127.026562 
L 103.92 127.026562 
" style="fill:none;stroke:#ff7f0e;stroke-linecap:square;stroke-width:1.5;"/>
    </g>
    <g id="line2d_26"/>
    <g id="text_19">
     <!-- 未接种的暴露者 -->
     <defs>
      <path d="M 46.703125 57.5 
Q 46.703125 68.296875 45.796875 74 
Q 49.40625 73 53.90625 73 
Q 55.5 73 55.5 72.390625 
Q 55.5 71.796875 54.453125 71.140625 
Q 53.40625 70.5 53.09375 68.796875 
Q 52.796875 67.09375 52.796875 63.203125 
L 52.796875 57.5 
Q 75.203125 57.5 81.703125 58.09375 
L 81.703125 51.90625 
Q 75.59375 52.5 52.796875 52.5 
L 52.796875 36.296875 
Q 80 36.296875 91.09375 36.90625 
L 91.09375 30.796875 
Q 80.203125 31.40625 60.09375 31.40625 
Q 75.5 7.40625 94.09375 -0.40625 
Q 91.203125 -3 88.90625 -6.59375 
Q 69.203125 4.5 54.796875 31.40625 
L 52.796875 31.40625 
L 52.796875 3.59375 
Q 52.796875 -5.296875 53.796875 -15.296875 
L 45.796875 -15.296875 
Q 46.703125 -5.59375 46.703125 3.59375 
L 46.703125 31.40625 
L 43.296875 31.40625 
Q 36 17.296875 28.5 8.5 
Q 21 -0.296875 9.296875 -8.796875 
Q 7.796875 -5.09375 3.5 -3.40625 
Q 14.703125 3.40625 22.59375 11.40625 
Q 30.5 19.40625 37.796875 31.40625 
Q 19 31.40625 7.40625 30.796875 
L 7.40625 36.90625 
Q 15.703125 36.296875 46.703125 36.296875 
L 46.703125 52.5 
Q 23.5 52.5 16.796875 51.90625 
L 16.796875 58.09375 
Q 23.203125 57.5 46.703125 57.5 
z
" id="STXihei-26410"/>
      <path d="M 60.59375 63.90625 
Q 58.296875 67.703125 54.203125 72 
L 59.5 75.5 
Q 64.203125 68.90625 66.703125 63.90625 
Q 83.296875 63.90625 90 64.703125 
L 90 58.5 
Q 82.703125 59.296875 64.25 59.296875 
Q 45.796875 59.296875 38.40625 58.5 
L 38.40625 64.703125 
Q 46.296875 63.90625 60.59375 63.90625 
z
M 18.703125 26.796875 
L 18.703125 49.90625 
Q 11.40625 49.796875 6.09375 48.90625 
L 6.09375 56 
Q 11.40625 55.09375 18.703125 55.09375 
Q 18.5 69.203125 17.40625 75.09375 
Q 21 74.296875 25.09375 74.296875 
Q 27.203125 74.296875 27.203125 73.5 
Q 27.203125 72.703125 25.40625 71.09375 
Q 24.59375 70.40625 24.59375 64.703125 
L 24.59375 55.09375 
Q 31.59375 55.203125 35.703125 56 
L 35.703125 48.90625 
Q 31 49.796875 24.59375 49.796875 
L 24.59375 29.59375 
Q 28.59375 31.59375 34.09375 35 
Q 34.40625 32 36 29.203125 
L 24.59375 23.796875 
L 24.59375 -5.40625 
Q 24.59375 -9.5 23.4375 -11.546875 
Q 22.296875 -13.59375 19.140625 -14.546875 
Q 16 -15.5 9.59375 -15.796875 
Q 9.59375 -11.40625 6.796875 -7.703125 
Q 11.796875 -8.703125 14.1875 -8.703125 
Q 16.59375 -8.703125 17.640625 -7.703125 
Q 18.703125 -6.703125 18.703125 -3.296875 
L 18.703125 20.796875 
Q 12.203125 17.40625 7.703125 14.59375 
Q 6.90625 18.203125 4 21.203125 
Q 12.09375 23.796875 18.703125 26.796875 
z
M 67.40625 40.203125 
Q 75.09375 50 77 57.40625 
Q 80.09375 55.09375 83 54.203125 
Q 84.09375 53.90625 84.09375 53 
Q 84.09375 52.09375 82.1875 51.296875 
Q 80.296875 50.5 73.296875 40.203125 
Q 87.90625 40.5 93.796875 41.09375 
L 93.796875 34.796875 
Q 87.90625 35.703125 64.75 35.703125 
Q 41.59375 35.703125 35.703125 34.796875 
L 35.703125 41.09375 
Q 46.59375 40.203125 59.296875 40.203125 
z
M 59.5 44.703125 
L 55.09375 41.296875 
Q 50.703125 48.09375 45 52.796875 
L 48.703125 56.40625 
Q 53.40625 52 59.5 44.703125 
z
M 49.09375 17.296875 
Q 37.796875 17.296875 32.796875 16.703125 
L 32.796875 22.5 
Q 40.703125 21.90625 51.796875 21.90625 
Q 55.796875 29.40625 56.796875 33.796875 
Q 59.59375 31.203125 63.296875 30.5 
Q 64.796875 30.203125 64.796875 29.453125 
Q 64.796875 28.703125 62.796875 27.546875 
Q 60.796875 26.40625 57.796875 21.90625 
L 74.703125 21.90625 
Q 90.796875 21.90625 95.5 22.5 
L 95.5 16.703125 
Q 92.59375 17.09375 81.703125 17.296875 
Q 78 7.09375 71.09375 1.09375 
Q 82.203125 -3.40625 92.203125 -7.796875 
Q 89.5 -9.90625 87.703125 -13.5 
Q 79.40625 -7.703125 66.5 -2.40625 
Q 56.59375 -9.296875 35.40625 -14.203125 
Q 34.59375 -10.203125 31.40625 -7.796875 
Q 49.203125 -5.796875 59.90625 0.09375 
Q 49.796875 3.59375 40.90625 5.5 
Q 44.90625 10.203125 49.09375 17.296875 
z
M 75.5 17.296875 
L 54.90625 17.296875 
L 49.796875 8.5 
Q 55.5 6.796875 65 3.40625 
Q 72.40625 9 75.5 17.296875 
z
" id="STXihei-25509"/>
      <path d="M 53 18 
L 53 9.40625 
L 46.40625 9.40625 
Q 47 17.796875 47 22.796875 
L 47 43.59375 
Q 47 48.59375 46.40625 53.90625 
Q 51.90625 52.90625 66.203125 52.796875 
L 66.203125 61.5 
Q 66.203125 70.203125 65.296875 75.203125 
Q 68.40625 74.203125 72.796875 74.203125 
Q 74.5 74.203125 74.5 72.90625 
Q 74.5 72 73.296875 71.203125 
Q 72.09375 70.40625 72.09375 67.296875 
L 72.09375 52.796875 
Q 85.703125 52.90625 92.296875 53.90625 
Q 91.796875 46.796875 91.796875 41.59375 
L 91.796875 25.59375 
Q 91.796875 21.5 92.296875 11.296875 
L 85.703125 11.296875 
L 85.703125 18 
L 72.09375 18 
L 72.09375 2.703125 
Q 72.09375 -9 73 -15.90625 
L 65.296875 -15.90625 
Q 66.203125 -9 66.203125 2.703125 
L 66.203125 18 
z
M 66.203125 48.40625 
L 53 48.40625 
L 53 22.703125 
L 66.203125 22.703125 
z
M 85.703125 22.703125 
L 85.703125 48.40625 
L 72.09375 48.40625 
L 72.09375 22.703125 
z
M 23.703125 63 
Q 16.40625 61.703125 8.203125 61.09375 
Q 8.296875 64.296875 5.40625 67.296875 
Q 9.09375 67.09375 12 67.09375 
Q 20.09375 67.09375 28.140625 68.84375 
Q 36.203125 70.59375 39.40625 72.90625 
Q 41.59375 69.796875 43.5 68.09375 
Q 44.40625 67.296875 44.40625 66.5 
Q 44.40625 65.703125 42.90625 65.703125 
Q 42.40625 65.703125 41.703125 65.796875 
Q 41 65.90625 39.796875 65.90625 
Q 36.296875 65.90625 29.40625 64.09375 
L 29.40625 46.59375 
Q 36.90625 46.703125 43.796875 47.203125 
L 43.796875 41.296875 
Q 36.296875 41.796875 29.40625 41.796875 
L 29.40625 34.09375 
Q 35.90625 29.5 44.296875 22.09375 
L 39.09375 17.5 
Q 35.703125 22.796875 29.40625 28.296875 
L 29.40625 1 
Q 29.40625 -7.703125 30.09375 -16.203125 
L 22.90625 -16.203125 
Q 23.703125 -6.5 23.703125 1 
L 23.703125 28.40625 
Q 18.296875 14.59375 9.203125 2 
Q 6.59375 4.796875 3 5.59375 
Q 16.09375 18.203125 23.703125 41.203125 
L 23.703125 41.90625 
Q 13.5 41.90625 5.40625 41.296875 
L 5.40625 47.203125 
Q 13.5 46.59375 23.703125 46.59375 
z
" id="STXihei-31181"/>
      <path d="M 19.90625 55.703125 
Q 23.296875 66.09375 23.703125 75.296875 
Q 27.59375 74 31.59375 73.203125 
Q 32.703125 73 32.703125 72.34375 
Q 32.703125 71.703125 31.90625 70.90625 
Q 29.203125 68.203125 25.5 55.703125 
Q 36.40625 55.703125 44 56.5 
Q 43.296875 52.59375 43.296875 47.40625 
L 43.296875 -0.40625 
Q 43.296875 -8.5 44 -15 
L 37.203125 -15 
L 37.203125 -5.796875 
L 16 -5.796875 
L 16 -15.796875 
L 9 -15.796875 
Q 9.796875 -8.203125 9.796875 -1.203125 
L 9.796875 47.40625 
Q 9.796875 52 9.09375 56.5 
Q 13.40625 55.796875 19.90625 55.703125 
z
M 16 27.203125 
L 37.203125 27.203125 
L 37.203125 50.5 
L 16 50.5 
z
M 37.203125 22.203125 
L 16 22.203125 
L 16 -1 
L 37.203125 -1 
z
M 60.59375 51.90625 
Q 56.09375 41.203125 51.203125 33.40625 
Q 48.203125 35.40625 45 36.296875 
Q 51.59375 45.703125 54.546875 54.09375 
Q 57.5 62.5 60 74.5 
Q 63.90625 72.59375 67.296875 72.203125 
Q 68.703125 72 68.703125 71.296875 
Q 68.703125 70.59375 67.34375 69.546875 
Q 66 68.5 62.40625 57.296875 
L 78.296875 57.296875 
Q 84.09375 57.296875 89.40625 58.09375 
Q 88.796875 53.703125 88.703125 48.203125 
L 87.703125 -2.796875 
Q 87.59375 -9.90625 82 -12.296875 
Q 76.40625 -14.703125 65.703125 -14.703125 
Q 65.40625 -10.90625 62.703125 -6.90625 
Q 67.09375 -7.09375 71 -7.09375 
Q 74.90625 -7.09375 77.296875 -6.046875 
Q 79.703125 -5 80.453125 -2.390625 
Q 81.203125 0.203125 81.296875 6 
L 81.796875 51.90625 
z
M 73 13.703125 
L 67.40625 10.40625 
Q 61.5 24.703125 56.09375 32.703125 
L 61.59375 36.40625 
Q 67.296875 27.09375 73 13.703125 
z
" id="STXihei-30340"/>
      <path d="M 68.40625 34.796875 
L 68.40625 28.203125 
Q 82.90625 28.40625 92.90625 29 
L 92.90625 23.203125 
Q 84.203125 23.90625 69.90625 24.09375 
Q 80.296875 13.296875 96.203125 10.703125 
Q 93.703125 7.796875 92.703125 4.203125 
Q 81.90625 8.203125 75.796875 12.453125 
Q 69.703125 16.703125 63.90625 24.09375 
L 36.40625 24.09375 
Q 29.296875 13.59375 8.09375 4.5 
Q 6.703125 7.703125 3.296875 10.203125 
Q 21.703125 14.90625 31 24.09375 
Q 15.5 23.90625 6.59375 23.203125 
L 6.59375 29 
Q 14.90625 28.203125 31.296875 28.203125 
L 31.296875 34.796875 
Q 21.5 34.703125 12.90625 34 
L 12.90625 39.703125 
Q 21.703125 39 31.296875 38.90625 
L 31.296875 45.5 
Q 21.40625 45.40625 16.09375 45 
Q 16.90625 48.40625 16.90625 51.203125 
L 16.90625 65.203125 
Q 16.90625 67.796875 16.09375 71.40625 
Q 25.59375 70.703125 49.84375 70.703125 
Q 74.09375 70.703125 83.5 71.40625 
Q 82.90625 68.90625 82.90625 65.203125 
L 82.90625 51.203125 
Q 82.90625 47.5 83.5 45 
Q 78.203125 45.40625 68.40625 45.5 
L 68.40625 38.90625 
Q 78 39 86.296875 39.703125 
L 86.296875 34 
Q 78.59375 34.796875 68.40625 34.796875 
z
M 77.296875 60.40625 
L 77.296875 66.59375 
L 22.59375 66.59375 
L 22.59375 60.40625 
z
M 22.59375 56.296875 
L 22.59375 49.90625 
L 77.296875 49.90625 
L 77.296875 56.296875 
z
M 36.703125 38.90625 
L 63 38.90625 
L 63 45.59375 
L 36.703125 45.59375 
z
M 63 34.796875 
L 36.703125 34.796875 
L 36.703125 28.203125 
L 63 28.203125 
z
M 60.90625 5 
Q 66 10.5 67.796875 15.40625 
Q 71.09375 12.59375 73.90625 11.59375 
Q 75.09375 11.203125 75.09375 10.546875 
Q 75.09375 9.90625 73.546875 9.703125 
Q 72 9.5 70.296875 8.296875 
Q 68.59375 7.09375 64.796875 3.296875 
L 85.09375 -6.09375 
L 81.5 -12.09375 
Q 68.203125 -3.59375 52.90625 4.203125 
L 52.90625 -7.203125 
Q 52.90625 -10.296875 51.953125 -11.9375 
Q 51 -13.59375 48.25 -14.5 
Q 45.5 -15.40625 40 -15.703125 
Q 39.59375 -12 36.796875 -8.703125 
Q 40.59375 -9.296875 42.84375 -9.296875 
Q 45.09375 -9.296875 46.140625 -8.390625 
Q 47.203125 -7.5 47.203125 -4.703125 
L 47.203125 3.09375 
Q 35.09375 -1.59375 17.703125 -10.09375 
L 13.90625 -3.90625 
Q 23.703125 -1.703125 36 3.203125 
Q 30 6.59375 24.40625 9.09375 
L 28.203125 13.5 
Q 39.09375 6.203125 40.5 5.09375 
Q 43.5 6.40625 47.203125 8.203125 
L 47.203125 11.59375 
Q 47.203125 16.90625 46.203125 21.59375 
Q 48.90625 20.90625 53.40625 20.90625 
Q 55 20.90625 55 20.34375 
Q 55 19.796875 53.953125 18.84375 
Q 52.90625 17.90625 52.90625 15.40625 
L 52.90625 8.5 
Q 58.90625 6 60.90625 5 
z
" id="STXihei-26292"/>
      <path d="M 47.09375 65.09375 
Q 28.09375 65.09375 12.296875 64.5 
L 12.296875 70.09375 
Q 29.203125 69.5 49.703125 69.5 
Q 70.203125 69.5 87.09375 70.09375 
L 87.09375 64.5 
Q 71.59375 65.09375 53.09375 65.09375 
L 53.09375 59.703125 
Q 81 59.703125 91 60.203125 
L 91 44.5 
L 85 44.5 
L 85 55.296875 
L 53.09375 55.296875 
L 53.09375 47.296875 
Q 53.09375 41.796875 53.40625 36.40625 
L 46.703125 36.40625 
Q 47.09375 41.40625 47.09375 47.203125 
L 47.09375 55.296875 
L 14.796875 55.296875 
L 14.796875 44.703125 
L 8.796875 44.703125 
L 8.796875 60.203125 
Q 19.5 59.703125 47.09375 59.703125 
z
M 41.296875 47.40625 
Q 36.796875 47.59375 30.6875 47.59375 
Q 24.59375 47.59375 20.09375 47.40625 
L 20.09375 51.203125 
Q 24.59375 51 30.6875 51 
Q 36.796875 51 41.296875 51.203125 
z
M 79.09375 47.203125 
Q 74.59375 47.40625 68.5 47.40625 
Q 62.40625 47.40625 57.90625 47.203125 
L 57.90625 50.703125 
Q 62.40625 50.5 68.5 50.5 
Q 74.59375 50.5 79.09375 50.703125 
z
M 41.296875 39.703125 
Q 36.796875 39.90625 30.6875 39.90625 
Q 24.59375 39.90625 20.09375 39.703125 
L 20.09375 43.5 
Q 24.59375 43.296875 30.6875 43.296875 
Q 36.796875 43.296875 41.296875 43.5 
z
M 79.09375 39.40625 
Q 74.59375 39.59375 68.5 39.59375 
Q 62.40625 39.59375 57.90625 39.40625 
L 57.90625 43.203125 
Q 62.40625 43 68.5 43 
Q 74.59375 43 79.09375 43.203125 
z
M 30.203125 10.09375 
Q 38.703125 10.09375 40 10.59375 
L 40 8.90625 
Q 53.796875 11.203125 64.5 16.59375 
Q 59.796875 19.59375 54.296875 24.203125 
Q 51.203125 20.203125 47.59375 16.703125 
Q 46.703125 18.703125 42.90625 20 
Q 52.40625 24.90625 57.703125 38.59375 
Q 60.296875 37 63.296875 36.703125 
Q 64.40625 36.59375 64.40625 35.75 
Q 64.40625 34.90625 63.25 34.40625 
Q 62.09375 33.90625 60.296875 31.90625 
L 71.203125 31.90625 
Q 81.59375 31.90625 88.09375 33.09375 
Q 80.796875 22.59375 72.796875 16.703125 
Q 84.90625 11.09375 97.203125 9.796875 
Q 94.796875 7.40625 93.90625 4.09375 
Q 79.296875 7.703125 68.703125 14 
Q 58.90625 8.203125 42.703125 3.796875 
Q 42 6.90625 40 8.296875 
L 40 5.40625 
Q 39.40625 5.796875 30.203125 5.796875 
L 30.203125 -4.5 
L 44.40625 -1.796875 
Q 44.203125 -2.5 44.203125 -3.796875 
Q 44.203125 -5.09375 44.703125 -6.40625 
Q 23.90625 -10 8 -14.40625 
Q 7.59375 -11.296875 5.796875 -8.09375 
Q 8.40625 -8.40625 13.09375 -7.703125 
L 13.09375 2.40625 
Q 13.09375 7.5 12.296875 10.203125 
Q 13.5 9.796875 18.59375 9.796875 
Q 19.796875 9.796875 19.796875 9.34375 
Q 19.796875 8.90625 19.203125 8.5 
Q 18 7.59375 18 5.203125 
L 18 -6.796875 
L 25.203125 -5.40625 
L 25.203125 17.796875 
Q 16.90625 17.703125 13.296875 17 
Q 13.796875 20.40625 13.796875 25.90625 
Q 13.796875 31.40625 13.296875 35.5 
Q 17.90625 34.796875 27.84375 34.796875 
Q 37.796875 34.796875 42 35.5 
Q 41.5 31.5 41.5 25.953125 
Q 41.5 20.40625 42 17 
Q 38.90625 17.703125 30.203125 17.796875 
z
M 36.796875 21.796875 
L 36.796875 30.90625 
L 18.40625 30.90625 
L 18.40625 21.796875 
z
M 68.40625 19 
Q 74.09375 23 77.703125 28.296875 
L 57.5 28.296875 
Q 57.203125 27.796875 56.5 27 
Q 62.09375 22.40625 68.40625 19 
z
M 56.296875 -11.5 
L 56.296875 -16.5 
L 50.5 -16.5 
Q 51.09375 -11.90625 51.09375 -8.703125 
L 51.09375 0.90625 
Q 51.09375 3.90625 50.5 6 
Q 54.90625 5.296875 68.34375 5.296875 
Q 81.796875 5.296875 86.09375 6 
Q 85.5 4.09375 85.5 0.90625 
L 85.5 -7.59375 
Q 85.5 -11.59375 86.09375 -15.203125 
L 80.203125 -15.203125 
L 80.203125 -11.5 
z
M 80.203125 -7.09375 
L 80.203125 1.40625 
L 56.296875 1.40625 
L 56.296875 -7.09375 
z
" id="STXihei-38706"/>
     </defs>
     <g transform="translate(113.52 131.226562)scale(0.12 -0.12)">
      <use xlink:href="#STXihei-26410"/>
      <use x="99.999985" xlink:href="#STXihei-25509"/>
      <use x="199.999969" xlink:href="#STXihei-31181"/>
      <use x="299.999954" xlink:href="#STXihei-30340"/>
      <use x="399.999939" xlink:href="#STXihei-26292"/>
      <use x="499.999924" xlink:href="#STXihei-38706"/>
      <use x="599.999908" xlink:href="#STXihei-32773"/>
     </g>
    </g>
    <g id="line2d_27">
     <path d="M 79.92 144.197812 
L 103.92 144.197812 
" style="fill:none;stroke:#2ca02c;stroke-linecap:square;stroke-width:1.5;"/>
    </g>
    <g id="line2d_28"/>
    <g id="text_20">
     <!-- 已接种的暴露者 -->
     <defs>
      <path d="M 75.09375 35.40625 
L 75.09375 61.203125 
Q 25.59375 61.203125 13.40625 60.203125 
L 13.40625 67.5 
Q 23 66.296875 47.09375 66.296875 
Q 71.203125 66.296875 82.09375 67.5 
Q 81.5 64 81.5 58.40625 
L 81.5 30.703125 
Q 81.5 25 82.203125 20.203125 
L 75.09375 20.203125 
L 75.09375 30.40625 
L 22 30.40625 
L 22 2.09375 
Q 22 -1.703125 23.390625 -3.25 
Q 24.796875 -4.796875 28.703125 -5.09375 
Q 35.203125 -5.59375 47.09375 -5.59375 
Q 53.40625 -5.59375 63.75 -5.296875 
Q 74.09375 -5 78.140625 -3.890625 
Q 82.203125 -2.796875 83.84375 -0.1875 
Q 85.5 2.40625 86 7.703125 
Q 89.59375 5.59375 93 5.296875 
Q 91.59375 -0.703125 89.640625 -3.953125 
Q 87.703125 -7.203125 83.796875 -8.953125 
Q 79.90625 -10.703125 73.75 -11.140625 
Q 67.59375 -11.59375 55.640625 -11.59375 
Q 43.703125 -11.59375 34.546875 -11.390625 
Q 25.40625 -11.203125 22.59375 -10.75 
Q 19.796875 -10.296875 18.25 -9 
Q 16.703125 -7.703125 16.140625 -5.453125 
Q 15.59375 -3.203125 15.59375 0.703125 
L 15.59375 31.203125 
Q 15.59375 40.40625 15.09375 45.203125 
Q 18.5 44.296875 21.453125 44.1875 
Q 24.40625 44.09375 24.40625 42.796875 
Q 24.40625 42 23 41.296875 
Q 22.09375 40.796875 22 35.40625 
z
" id="STXihei-24050"/>
     </defs>
     <g transform="translate(113.52 148.397812)scale(0.12 -0.12)">
      <use xlink:href="#STXihei-24050"/>
      <use x="99.999985" xlink:href="#STXihei-25509"/>
      <use x="199.999969" xlink:href="#STXihei-31181"/>
      <use x="299.999954" xlink:href="#STXihei-30340"/>
      <use x="399.999939" xlink:href="#STXihei-26292"/>
      <use x="499.999924" xlink:href="#STXihei-38706"/>
      <use x="599.999908" xlink:href="#STXihei-32773"/>
     </g>
    </g>
    <g id="line2d_29">
     <path d="M 79.92 161.369062 
L 103.92 161.369062 
" style="fill:none;stroke:#d62728;stroke-linecap:square;stroke-width:1.5;"/>
    </g>
    <g id="line2d_30"/>
    <g id="text_21">
     <!-- 未接种的无症状感染者 -->
     <defs>
      <path d="M 43.703125 62.203125 
Q 22 62.203125 15.09375 61.703125 
L 15.09375 67.90625 
Q 22.203125 67.296875 48.796875 67.296875 
Q 75.40625 67.296875 82.203125 67.796875 
L 82.203125 61.59375 
Q 76.296875 62.203125 50.5 62.203125 
Q 50.40625 48.09375 48.796875 37.09375 
Q 83.703125 37.09375 89.59375 37.59375 
L 89.59375 31.40625 
Q 82.59375 32 60.296875 32 
L 60.296875 2 
Q 60.296875 -0.90625 61.046875 -2.25 
Q 61.796875 -3.59375 64.296875 -4.1875 
Q 66.796875 -4.796875 73.140625 -4.796875 
Q 79.5 -4.796875 82.453125 -4.046875 
Q 85.40625 -3.296875 86.75 -0.796875 
Q 88.09375 1.703125 88.5 7.59375 
Q 91.203125 4.5 95.703125 3.796875 
Q 93.296875 -3.40625 91.6875 -6.046875 
Q 90.09375 -8.703125 86.6875 -9.640625 
Q 83.296875 -10.59375 74.5 -10.59375 
Q 65.703125 -10.59375 61.390625 -10 
Q 57.09375 -9.40625 55.640625 -7.796875 
Q 54.203125 -6.203125 54.203125 -2.796875 
L 54.203125 32.09375 
L 47.90625 32.09375 
Q 45.296875 18 37.75 7.953125 
Q 30.203125 -2.09375 11.796875 -13.703125 
Q 9.203125 -9.5 5.296875 -8.5 
Q 22.203125 -1 30.703125 8.5 
Q 39.203125 18 42.09375 32.09375 
Q 17.203125 32.09375 8.59375 31.5 
L 8.59375 37.703125 
Q 17.796875 37.09375 42.90625 37.09375 
Q 43.90625 44.5 43.90625 51.046875 
Q 43.90625 57.59375 43.703125 62.203125 
z
" id="STXihei-26080"/>
      <path d="M 22 32.40625 
Q 22.09375 35.203125 22.09375 38.40625 
Q 22.09375 48.09375 21.09375 64.09375 
Q 23.296875 63.40625 55.203125 63.40625 
Q 51.90625 69.59375 48.203125 73.203125 
L 53.90625 76.796875 
Q 57.59375 71.09375 61.296875 63.40625 
Q 89 63.40625 92.296875 64.09375 
L 92.296875 58 
Q 88.296875 58.59375 67 58.59375 
L 27.90625 58.59375 
Q 28 51.5 28 45.59375 
Q 28 21.796875 25.140625 9.5 
Q 22.296875 -2.796875 14.59375 -14.796875 
Q 11.90625 -11.40625 7.09375 -10.90625 
Q 14.796875 -2.40625 17.9375 6.140625 
Q 21.09375 14.703125 21.796875 27 
Q 13.296875 20.59375 7.5 14.90625 
Q 6.203125 17.90625 2.703125 20.703125 
Q 12 24.703125 22 32.40625 
z
M 20.296875 40.40625 
L 15.203125 37.40625 
Q 12.5 44.296875 6.5 52 
L 11.296875 55.40625 
Q 16.59375 48.09375 20.296875 40.40625 
z
M 60.09375 41.296875 
Q 41 41.296875 32.796875 40.5 
L 32.796875 46.90625 
Q 41.296875 46.09375 61.34375 46.09375 
Q 81.40625 46.09375 89.90625 46.90625 
L 89.90625 40.5 
Q 82.796875 41.09375 65.796875 41.296875 
L 65.796875 22.59375 
Q 82 22.59375 87 23.5 
L 87 17.203125 
Q 82.59375 17.90625 65.796875 17.90625 
L 65.796875 -5.703125 
L 77.796875 -5.703125 
Q 85.296875 -5.703125 95.296875 -4.703125 
L 95.296875 -11.296875 
Q 84.40625 -10.40625 59.5 -10.40625 
Q 34.59375 -10.40625 25.90625 -11.296875 
L 25.90625 -4.703125 
Q 34 -5.59375 39.59375 -5.703125 
L 39.59375 16.703125 
Q 39.59375 24.59375 38.796875 27.796875 
Q 42.703125 27.296875 46.796875 27.296875 
Q 48.296875 27.296875 48.296875 26.6875 
Q 48.296875 26.09375 47.296875 25.703125 
Q 45.296875 25 45.296875 21.59375 
L 45.296875 -5.703125 
L 60.09375 -5.703125 
z
" id="STXihei-30151"/>
      <path d="M 24.703125 74.703125 
Q 28.5 74.203125 32.09375 74.09375 
Q 33.5 74.09375 33.5 73.09375 
Q 33.5 72.59375 33.09375 72.296875 
Q 31.703125 71.09375 31.703125 68.59375 
L 31.703125 1.59375 
Q 31.703125 -7 32.5 -14 
L 24.90625 -14 
Q 25.796875 -6.203125 25.796875 1.59375 
L 25.796875 59.796875 
Q 25.796875 69.40625 24.703125 74.703125 
z
M 59.09375 40 
Q 45 39.90625 37.40625 39 
L 37.40625 45.703125 
Q 45.296875 44.796875 59.59375 44.703125 
Q 60.203125 51.59375 60.203125 60.390625 
Q 60.203125 69.203125 59.09375 74.5 
Q 64.796875 73.59375 66.5 73.59375 
Q 68.203125 73.59375 68.203125 73.09375 
Q 68.203125 72.59375 67.59375 72 
Q 67 71.40625 66.5 69 
Q 66 66.59375 66 64.09375 
Q 65.796875 53.09375 65.203125 44.703125 
Q 83.296875 44.703125 92.203125 45.703125 
L 92.203125 39 
Q 83.59375 40 66.203125 40 
Q 68.59375 27.296875 77.25 13.640625 
Q 85.90625 0 95.796875 -7.09375 
Q 93.09375 -9.296875 90 -12.5 
Q 70.796875 6.90625 63.703125 32.40625 
Q 57.796875 4.59375 38 -13.09375 
Q 36.296875 -10.59375 33.09375 -8.59375 
Q 43.5 -1.5 50.296875 11.25 
Q 57.09375 24 59.09375 40 
z
M 88.40625 55.203125 
L 83.90625 50.703125 
Q 79.40625 57.296875 72.203125 63.203125 
L 76.09375 67.203125 
Q 82.90625 61.5 88.40625 55.203125 
z
M 22.09375 46.296875 
L 17.40625 42.703125 
Q 12.796875 50.703125 4.90625 59.09375 
L 8.90625 62.796875 
Q 16.703125 54.90625 22.09375 46.296875 
z
M 24.5 29 
Q 11.40625 11.90625 7.796875 5.796875 
Q 6.09375 9 2.40625 10.90625 
Q 12.703125 19.90625 20.40625 32.90625 
Q 21.703125 31.09375 24.5 29 
z
" id="STXihei-29366"/>
     </defs>
     <g transform="translate(113.52 165.569062)scale(0.12 -0.12)">
      <use xlink:href="#STXihei-26410"/>
      <use x="99.999985" xlink:href="#STXihei-25509"/>
      <use x="199.999969" xlink:href="#STXihei-31181"/>
      <use x="299.999954" xlink:href="#STXihei-30340"/>
      <use x="399.999939" xlink:href="#STXihei-26080"/>
      <use x="499.999924" xlink:href="#STXihei-30151"/>
      <use x="599.999908" xlink:href="#STXihei-29366"/>
      <use x="699.999893" xlink:href="#STXihei-24863"/>
      <use x="799.999878" xlink:href="#STXihei-26579"/>
      <use x="899.999863" xlink:href="#STXihei-32773"/>
     </g>
    </g>
    <g id="line2d_31">
     <path d="M 79.92 178.540312 
L 103.92 178.540312 
" style="fill:none;stroke:#9467bd;stroke-linecap:square;stroke-width:1.5;"/>
    </g>
    <g id="line2d_32"/>
    <g id="text_22">
     <!-- 已接种的无症状感染者 -->
     <g transform="translate(113.52 182.740312)scale(0.12 -0.12)">
      <use xlink:href="#STXihei-24050"/>
      <use x="99.999985" xlink:href="#STXihei-25509"/>
      <use x="199.999969" xlink:href="#STXihei-31181"/>
      <use x="299.999954" xlink:href="#STXihei-30340"/>
      <use x="399.999939" xlink:href="#STXihei-26080"/>
      <use x="499.999924" xlink:href="#STXihei-30151"/>
      <use x="599.999908" xlink:href="#STXihei-29366"/>
      <use x="699.999893" xlink:href="#STXihei-24863"/>
      <use x="799.999878" xlink:href="#STXihei-26579"/>
      <use x="899.999863" xlink:href="#STXihei-32773"/>
     </g>
    </g>
    <g id="line2d_33">
     <path d="M 79.92 195.807187 
L 103.92 195.807187 
" style="fill:none;stroke:#8c564b;stroke-linecap:square;stroke-width:1.5;"/>
    </g>
    <g id="line2d_34"/>
    <g id="text_23">
     <!-- 未接种的有症状感染者 -->
     <defs>
      <path d="M 36.40625 57.59375 
Q 22.296875 57.5 6.796875 56.796875 
L 6.796875 63.296875 
Q 19.5 62.59375 38.59375 62.5 
Q 40.796875 67.796875 43.296875 77.59375 
Q 46 76.09375 50 75.59375 
Q 51.703125 75.40625 51.703125 74.34375 
Q 51.703125 73.296875 50.453125 72.390625 
Q 49.203125 71.5 44.90625 62.5 
Q 77.796875 62.5 92.203125 63.296875 
L 92.203125 56.796875 
Q 79.5 57.59375 42.59375 57.59375 
Q 39.09375 49.796875 35.796875 44.59375 
L 56.40625 44.59375 
Q 72.203125 44.40625 82.296875 45.09375 
Q 81.40625 38.90625 81.40625 33.90625 
L 81.40625 -5.09375 
Q 81.40625 -9.203125 80.453125 -11.046875 
Q 79.5 -12.90625 76.34375 -13.796875 
Q 73.203125 -14.703125 66.203125 -15.09375 
Q 66.203125 -12.703125 65.75 -11.296875 
Q 65.296875 -9.90625 63.59375 -7.703125 
Q 67.90625 -8.40625 70.40625 -8.40625 
Q 72.90625 -8.40625 74.046875 -7.34375 
Q 75.203125 -6.296875 75.203125 -3 
L 75.203125 7.40625 
L 33.5 7.40625 
L 33.5 -16.203125 
L 26.703125 -16.203125 
Q 27.296875 -9.796875 27.296875 -1.90625 
L 27.296875 33 
Q 20.203125 24.90625 8.796875 16.09375 
Q 8.09375 19.703125 3.5 21.5 
Q 16.09375 29.5 23.59375 37.796875 
Q 31.09375 46.09375 36.40625 57.59375 
z
M 33.5 28 
L 75.203125 28 
L 75.203125 39.703125 
L 33.5 39.703125 
z
M 75.203125 23.296875 
L 33.5 23.296875 
L 33.5 12.203125 
L 75.203125 12.203125 
z
" id="STXihei-26377"/>
     </defs>
     <g transform="translate(113.52 200.007187)scale(0.12 -0.12)">
      <use xlink:href="#STXihei-26410"/>
      <use x="99.999985" xlink:href="#STXihei-25509"/>
      <use x="199.999969" xlink:href="#STXihei-31181"/>
      <use x="299.999954" xlink:href="#STXihei-30340"/>
      <use x="399.999939" xlink:href="#STXihei-26377"/>
      <use x="499.999924" xlink:href="#STXihei-30151"/>
      <use x="599.999908" xlink:href="#STXihei-29366"/>
      <use x="699.999893" xlink:href="#STXihei-24863"/>
      <use x="799.999878" xlink:href="#STXihei-26579"/>
      <use x="899.999863" xlink:href="#STXihei-32773"/>
     </g>
    </g>
    <g id="line2d_35">
     <path d="M 79.92 213.074062 
L 103.92 213.074062 
" style="fill:none;stroke:#e377c2;stroke-linecap:square;stroke-width:1.5;"/>
    </g>
    <g id="line2d_36"/>
    <g id="text_24">
     <!-- 已接种的有症状感染者 -->
     <g transform="translate(113.52 217.274062)scale(0.12 -0.12)">
      <use xlink:href="#STXihei-24050"/>
      <use x="99.999985" xlink:href="#STXihei-25509"/>
      <use x="199.999969" xlink:href="#STXihei-31181"/>
      <use x="299.999954" xlink:href="#STXihei-30340"/>
      <use x="399.999939" xlink:href="#STXihei-26377"/>
      <use x="499.999924" xlink:href="#STXihei-30151"/>
      <use x="599.999908" xlink:href="#STXihei-29366"/>
      <use x="699.999893" xlink:href="#STXihei-24863"/>
      <use x="799.999878" xlink:href="#STXihei-26579"/>
      <use x="899.999863" xlink:href="#STXihei-32773"/>
     </g>
    </g>
    <g id="line2d_37">
     <path d="M 79.92 230.247187 
L 103.92 230.247187 
" style="fill:none;stroke:#7f7f7f;stroke-linecap:square;stroke-width:1.5;"/>
    </g>
    <g id="line2d_38"/>
    <g id="text_25">
     <!-- 隔离者 -->
     <defs>
      <path d="M 26.703125 38.703125 
Q 31.796875 34.90625 34.59375 29.34375 
Q 37.40625 23.796875 37.40625 17.09375 
Q 37.40625 10.40625 33.40625 6.90625 
Q 29.40625 3.40625 21.296875 2.296875 
Q 20.703125 6.296875 18.296875 9.796875 
Q 25.296875 9.5 28.4375 11.453125 
Q 31.59375 13.40625 31.59375 18.15625 
Q 31.59375 22.90625 28.6875 28.15625 
Q 25.796875 33.40625 20.40625 38 
Q 26.5 51.796875 30 64.203125 
L 16.40625 64.203125 
L 16.40625 5.59375 
Q 16.40625 -8.796875 17.09375 -15.90625 
L 9.59375 -15.90625 
Q 10.59375 -7.59375 10.59375 5.59375 
L 10.59375 56.40625 
Q 10.59375 63.203125 9.90625 69.5 
Q 16 69.09375 23.59375 69.09375 
Q 31.203125 69.09375 37.796875 69.59375 
Q 33.59375 54.796875 26.703125 38.703125 
z
M 93.703125 61.59375 
Q 87.203125 62.5 78.59375 62.5 
L 55 62.5 
Q 46.90625 62.5 40.5 61.59375 
L 40.5 68.203125 
Q 45.796875 67.296875 67.09375 67.296875 
Q 88.40625 67.296875 93.703125 68.203125 
z
M 85.296875 55.59375 
Q 84.90625 51.09375 84.90625 45.75 
Q 84.90625 40.40625 85.296875 36.796875 
Q 82.5 37.203125 76.203125 37.203125 
L 55.703125 37.203125 
Q 49.296875 37.203125 46.59375 36.796875 
Q 47.09375 40.59375 47.09375 46.140625 
Q 47.09375 51.703125 46.59375 55.59375 
Q 48 55.296875 55.703125 55.296875 
L 76.203125 55.296875 
Q 82 55.296875 85.296875 55.59375 
z
M 79.296875 50.59375 
L 52.703125 50.59375 
L 52.703125 41.796875 
L 79.296875 41.796875 
z
M 92.90625 30.796875 
Q 92.296875 27.09375 92.296875 20.40625 
L 92.296875 -2 
Q 92.296875 -6.796875 91.390625 -8.890625 
Q 90.5 -11 87.34375 -12.09375 
Q 84.203125 -13.203125 76.796875 -14.09375 
Q 76.59375 -9.703125 73.796875 -6.296875 
Q 78.59375 -7 81.546875 -7 
Q 84.5 -7 85.453125 -5.84375 
Q 86.40625 -4.703125 86.40625 -1.59375 
L 86.40625 25.296875 
L 46.5 25.296875 
L 46.5 -14.59375 
L 40.09375 -14.59375 
Q 40.703125 -7.40625 40.703125 -1.5 
L 40.703125 20.40625 
Q 40.703125 25.59375 40.203125 30.796875 
Q 47.796875 30 66.546875 30 
Q 85.296875 30 92.90625 30.796875 
z
M 66.40625 10.703125 
Q 72.203125 18.59375 74 24.90625 
Q 76.40625 23.09375 79.203125 22.203125 
Q 80.703125 21.703125 80.703125 21.046875 
Q 80.703125 20.40625 78.796875 19.59375 
Q 76.90625 18.796875 71.40625 10.703125 
Q 79.296875 10.796875 83.203125 11.59375 
L 83.203125 5.40625 
Q 78.59375 6.296875 68.5 6.40625 
L 68.5 -1.203125 
Q 68.59375 -8.5 69.5 -12 
L 62.59375 -12 
Q 63.296875 -6.796875 63.296875 -1.59375 
L 63.296875 6.40625 
Q 53.59375 6.296875 49.09375 5.5 
L 49.09375 11.59375 
Q 53.90625 10.703125 66.40625 10.703125 
z
M 64.90625 14.59375 
L 60.5 11.5 
Q 57.5 17 52.796875 20.90625 
L 56.796875 24.296875 
Q 61.203125 20 64.90625 14.59375 
z
" id="STXihei-38548"/>
      <path d="M 54.09375 64.796875 
Q 79.5 64.796875 92.90625 65.796875 
L 92.90625 59.203125 
Q 78.59375 60.203125 50.390625 60.203125 
Q 22.203125 60.203125 7.90625 59.203125 
L 7.90625 65.796875 
Q 21.796875 64.796875 48 64.796875 
Q 45.40625 69.09375 40.59375 73.296875 
L 46.296875 76.90625 
Q 50.296875 72.40625 54.09375 64.796875 
z
M 46.90625 45.40625 
Q 37.203125 49.5 30.59375 51 
L 33 55.296875 
Q 43.296875 52.09375 52.796875 48.40625 
Q 61.703125 53.203125 66.5 57.703125 
Q 69 54.90625 71.59375 53.59375 
Q 72.40625 53.203125 72.40625 52.546875 
Q 72.40625 51.90625 70.40625 51.703125 
Q 68.40625 51.5 65.84375 50.34375 
Q 63.296875 49.203125 58.296875 46.203125 
Q 65.203125 43.5 72.203125 40 
L 68.59375 35.59375 
Q 60.796875 40.203125 52.796875 43.09375 
Q 44.5 39 33.296875 34.59375 
Q 32.40625 37.90625 29 39.59375 
Q 36.40625 40.796875 46.90625 45.40625 
z
M 40.796875 16 
L 20.40625 16 
L 20.40625 -15.203125 
L 13.59375 -15.203125 
Q 14.40625 -10.90625 14.40625 -5.59375 
L 14.40625 13.09375 
Q 14.40625 17.796875 13.59375 21.203125 
Q 27.296875 20.59375 43.09375 20.59375 
Q 45 24.40625 46.703125 28.796875 
Q 25.09375 28.796875 18 28.09375 
Q 18.5 30.796875 18.5 35 
L 18.5 48.59375 
Q 18.5 53.40625 18 54.59375 
Q 20.5 54.296875 22.59375 54.296875 
L 25.796875 54.40625 
Q 26.59375 54.40625 26.59375 53.953125 
Q 26.59375 53.5 25.796875 52.5 
Q 24.09375 50.5 24.09375 33.296875 
L 76.09375 33.296875 
L 76.09375 48.59375 
Q 76.09375 53.703125 75.296875 54.796875 
Q 78.40625 54.296875 80.203125 54.296875 
L 83.296875 54.5 
Q 84.09375 54.5 84.09375 54.09375 
Q 84.09375 53.703125 83 52.59375 
Q 82.40625 52 82.203125 47.25 
Q 82 42.5 82 28.09375 
Q 74.90625 28.796875 50 28.796875 
Q 51.796875 27.796875 53.046875 27.5 
Q 54.296875 27.203125 54.296875 26.796875 
Q 54.296875 26.40625 53.25 25.796875 
Q 52.203125 25.203125 51.453125 24.203125 
Q 50.703125 23.203125 49.203125 20.59375 
Q 71.203125 20.59375 87.59375 21.296875 
Q 87.09375 17.59375 87.09375 13.09375 
L 87.09375 -8 
Q 87.09375 -13.296875 83.09375 -14.390625 
Q 79.09375 -15.5 70.203125 -15.5 
Q 70.296875 -14.40625 70.296875 -13.59375 
Q 70.296875 -10.5 67.90625 -7.90625 
Q 73.09375 -8.90625 75.84375 -8.90625 
Q 78.59375 -8.90625 79.796875 -8.15625 
Q 81 -7.40625 81 -5.203125 
L 81 16 
L 46.59375 16 
Q 44 11.703125 38.796875 4.796875 
L 60.40625 6.296875 
Q 58.703125 8.796875 56.296875 11.703125 
L 60.90625 14.296875 
Q 66.703125 7.59375 72 -1.90625 
L 66.703125 -4.90625 
Q 65.203125 -1.296875 63.09375 2.09375 
L 42.203125 -0.296875 
Q 35.40625 -1 31.296875 -2.5 
Q 31.296875 0.09375 28.703125 3.59375 
Q 36.09375 7.296875 40.796875 16 
z
" id="STXihei-31163"/>
     </defs>
     <g transform="translate(113.52 234.447187)scale(0.12 -0.12)">
      <use xlink:href="#STXihei-38548"/>
      <use x="99.999985" xlink:href="#STXihei-31163"/>
      <use x="199.999969" xlink:href="#STXihei-32773"/>
     </g>
    </g>
   </g>
  </g>
  <g id="axes_2">
   <g id="patch_8">
    <path d="M 368.4 210.6 
L 512.4 210.6 
L 512.4 131.4 
L 368.4 131.4 
z
" style="fill:#ffffff;"/>
   </g>
   <g id="matplotlib.axis_3">
    <g id="xtick_9">
     <g id="line2d_39">
      <g>
       <use style="stroke:#000000;stroke-width:0.8;" x="374.945455" xlink:href="#md9c40c58f6" y="210.6"/>
      </g>
     </g>
     <g id="text_26">
      <!-- 200 -->
      <g transform="translate(364.97233 226.43125)scale(0.12 -0.12)">
       <use xlink:href="#STXihei-50"/>
       <use x="55.399994" xlink:href="#STXihei-48"/>
       <use x="110.799988" xlink:href="#STXihei-48"/>
      </g>
     </g>
    </g>
    <g id="xtick_10">
     <g id="line2d_40">
      <g>
       <use style="stroke:#000000;stroke-width:0.8;" x="440.564046" xlink:href="#md9c40c58f6" y="210.6"/>
      </g>
     </g>
     <g id="text_27">
      <!-- 400 -->
      <g transform="translate(430.590921 226.43125)scale(0.12 -0.12)">
       <use xlink:href="#STXihei-52"/>
       <use x="55.399994" xlink:href="#STXihei-48"/>
       <use x="110.799988" xlink:href="#STXihei-48"/>
      </g>
     </g>
    </g>
    <g id="xtick_11">
     <g id="line2d_41">
      <g>
       <use style="stroke:#000000;stroke-width:0.8;" x="506.182638" xlink:href="#md9c40c58f6" y="210.6"/>
      </g>
     </g>
     <g id="text_28">
      <!-- 600 -->
      <g transform="translate(496.209513 226.43125)scale(0.12 -0.12)">
       <use xlink:href="#STXihei-54"/>
       <use x="55.399994" xlink:href="#STXihei-48"/>
       <use x="110.799988" xlink:href="#STXihei-48"/>
      </g>
     </g>
    </g>
   </g>
   <g id="matplotlib.axis_4">
    <g id="ytick_7">
     <g id="line2d_42">
      <g>
       <use style="stroke:#000000;stroke-width:0.8;" x="368.4" xlink:href="#m0cb25d1012" y="207.100632"/>
      </g>
     </g>
     <g id="text_29">
      <!-- 0.000 -->
      <g transform="translate(331.480625 211.516257)scale(0.12 -0.12)">
       <use xlink:href="#STXihei-48"/>
       <use x="55.399994" xlink:href="#STXihei-46"/>
       <use x="83.099991" xlink:href="#STXihei-48"/>
       <use x="138.499985" xlink:href="#STXihei-48"/>
       <use x="193.899979" xlink:href="#STXihei-48"/>
      </g>
     </g>
    </g>
    <g id="ytick_8">
     <g id="line2d_43">
      <g>
       <use style="stroke:#000000;stroke-width:0.8;" x="368.4" xlink:href="#m0cb25d1012" y="156.224138"/>
      </g>
     </g>
     <g id="text_30">
      <!-- 0.005 -->
      <g transform="translate(331.480625 160.639763)scale(0.12 -0.12)">
       <use xlink:href="#STXihei-48"/>
       <use x="55.399994" xlink:href="#STXihei-46"/>
       <use x="83.099991" xlink:href="#STXihei-48"/>
       <use x="138.499985" xlink:href="#STXihei-48"/>
       <use x="193.899979" xlink:href="#STXihei-53"/>
      </g>
     </g>
    </g>
   </g>
   <g id="line2d_44"/>
   <g id="line2d_45">
    <path clip-path="url(#pd179af4437)" d="M 374.945455 206.300059 
L 382.491593 205.776937 
L 388.397266 205.15359 
L 393.646753 204.380111 
L 398.240055 203.488073 
L 402.505263 202.447125 
L 406.770472 201.181487 
L 411.03568 199.691566 
L 416.285167 197.602948 
L 426.784142 193.331801 
L 430.065072 192.285149 
L 433.017908 191.588671 
L 435.642652 191.208552 
L 438.267396 191.078179 
L 440.564046 191.175551 
L 443.18879 191.521244 
L 445.813534 192.095904 
L 448.76637 192.97246 
L 452.375393 194.287192 
L 458.281066 196.720688 
L 465.171018 199.493766 
L 469.76432 201.100411 
L 474.029528 202.365031 
L 478.294737 203.409034 
L 482.888038 204.307591 
L 487.809433 205.048273 
L 493.387013 205.665712 
L 499.948872 206.166223 
L 505.854545 206.468729 
L 505.854545 206.468729 
" style="fill:none;stroke:#ff7f0e;stroke-linecap:square;stroke-width:1.5;"/>
   </g>
   <g id="line2d_46">
    <path clip-path="url(#pd179af4437)" d="M 374.945455 203.497851 
L 378.554477 202.51333 
L 381.835407 201.396603 
L 384.788243 200.172725 
L 387.74108 198.703175 
L 390.365824 197.157234 
L 392.990567 195.353603 
L 395.615311 193.259688 
L 397.911962 191.164958 
L 400.208612 188.803778 
L 402.505263 186.160055 
L 405.130007 182.777279 
L 407.754751 179.004402 
L 410.379494 174.85324 
L 413.332331 169.776224 
L 417.269446 162.505272 
L 424.487491 149.004725 
L 427.112235 144.62215 
L 429.080793 141.723995 
L 430.721258 139.633747 
L 432.361722 137.888784 
L 433.674094 136.76839 
L 434.986466 135.911797 
L 436.298838 135.332044 
L 437.61121 135.038093 
L 438.923582 135.03463 
L 440.235954 135.321044 
L 441.548325 135.892649 
L 442.860697 136.740074 
L 444.173069 137.849876 
L 445.813534 139.579357 
L 447.453999 141.650864 
L 449.422556 144.523148 
L 451.719207 148.297043 
L 454.672044 153.601397 
L 465.171018 172.869938 
L 468.123855 177.643225 
L 470.748599 181.502067 
L 473.373342 184.980178 
L 475.998086 188.07817 
L 478.62283 190.810506 
L 481.247573 193.200002 
L 483.872317 195.274972 
L 486.497061 197.066381 
L 489.121805 198.604987 
L 492.074641 200.071278 
L 495.027478 201.295767 
L 498.308407 202.416773 
L 501.91743 203.40822 
L 505.854545 204.257071 
L 505.854545 204.257071 
" style="fill:none;stroke:#2ca02c;stroke-linecap:square;stroke-width:1.5;"/>
   </g>
   <g id="line2d_47">
    <path clip-path="url(#pd179af4437)" d="M 374.945455 206.870645 
L 387.74108 206.563454 
L 397.255776 206.117944 
L 405.130007 205.531672 
L 412.676145 204.751267 
L 425.143677 203.177011 
L 431.705537 202.496015 
L 436.298838 202.227731 
L 440.564046 202.183731 
L 445.157348 202.365234 
L 450.078742 202.78304 
L 457.296787 203.644521 
L 470.092413 205.180276 
L 477.638551 205.842735 
L 485.840875 206.335912 
L 495.683664 206.692808 
L 505.854545 206.891831 
L 505.854545 206.891831 
" style="fill:none;stroke:#d62728;stroke-linecap:square;stroke-width:1.5;"/>
   </g>
   <g id="line2d_48">
    <path clip-path="url(#pd179af4437)" d="M 374.945455 205.859031 
L 380.851128 205.257481 
L 386.100615 204.494391 
L 390.365824 203.663466 
L 394.302939 202.685056 
L 397.911962 201.575255 
L 401.520984 200.231189 
L 404.801914 198.785473 
L 408.082843 197.116085 
L 411.691866 195.026244 
L 415.628982 192.482542 
L 422.190841 187.917444 
L 426.456049 185.071439 
L 429.408886 183.350514 
L 431.705537 182.235416 
L 434.002187 181.367619 
L 435.970745 180.850812 
L 437.939303 180.562565 
L 439.907861 180.512657 
L 441.876418 180.702716 
L 443.844976 181.125207 
L 445.813534 181.765258 
L 448.110185 182.757112 
L 450.734928 184.159438 
L 454.015858 186.205278 
L 459.265345 189.808059 
L 465.171018 193.792385 
L 469.108134 196.179436 
L 472.717157 198.106718 
L 476.326179 199.768568 
L 479.935202 201.172524 
L 483.544224 202.339567 
L 487.48134 203.375015 
L 491.746548 204.260127 
L 496.33985 204.990216 
L 501.589337 205.604804 
L 505.854545 205.972904 
L 505.854545 205.972904 
" style="fill:none;stroke:#9467bd;stroke-linecap:square;stroke-width:1.5;"/>
   </g>
   <g id="line2d_49">
    <path clip-path="url(#pd179af4437)" d="M 374.945455 206.981666 
L 392.006288 206.735587 
L 403.817635 206.351394 
L 414.972796 205.755751 
L 433.017908 204.730489 
L 439.579768 204.637598 
L 446.141627 204.784675 
L 454.343951 205.217962 
L 474.357621 206.36382 
L 485.840875 206.731105 
L 500.276965 206.954981 
L 505.854545 207 
L 505.854545 207 
" style="fill:none;stroke:#8c564b;stroke-linecap:square;stroke-width:1.5;"/>
   </g>
   <g id="line2d_50">
    <path clip-path="url(#pd179af4437)" d="M 374.945455 206.672437 
L 384.788243 206.276633 
L 392.334381 205.758603 
L 398.568148 205.123238 
L 404.473821 204.29985 
L 410.051401 203.302291 
L 416.61326 201.885706 
L 428.424607 199.263168 
L 432.361722 198.646951 
L 435.970745 198.311037 
L 439.251675 198.229757 
L 442.532604 198.370316 
L 446.141627 198.763269 
L 450.078742 199.424505 
L 455.656323 200.62129 
L 467.795762 203.310643 
L 473.701435 204.347314 
L 479.607109 205.14972 
L 485.840875 205.770214 
L 493.05892 206.26054 
L 501.91743 206.630066 
L 505.854545 206.738031 
L 505.854545 206.738031 
" style="fill:none;stroke:#e377c2;stroke-linecap:square;stroke-width:1.5;"/>
   </g>
   <g id="patch_9">
    <path d="M 368.4 210.6 
L 368.4 131.4 
" style="fill:none;stroke:#000000;stroke-linecap:square;stroke-linejoin:miter;stroke-width:0.8;"/>
   </g>
   <g id="patch_10">
    <path d="M 512.4 210.6 
L 512.4 131.4 
" style="fill:none;stroke:#000000;stroke-linecap:square;stroke-linejoin:miter;stroke-width:0.8;"/>
   </g>
   <g id="patch_11">
    <path d="M 368.4 210.6 
L 512.4 210.6 
" style="fill:none;stroke:#000000;stroke-linecap:square;stroke-linejoin:miter;stroke-width:0.8;"/>
   </g>
   <g id="patch_12">
    <path d="M 368.4 131.4 
L 512.4 131.4 
" style="fill:none;stroke:#000000;stroke-linecap:square;stroke-linejoin:miter;stroke-width:0.8;"/>
   </g>
  </g>
 </g>
 <defs>
  <clipPath id="p2ffae05d07">
   <rect height="270" width="449.28" x="69.12" y="36"/>
  </clipPath>
  <clipPath id="pd179af4437">
   <rect height="79.2" width="144" x="368.4" y="131.4"/>
  </clipPath>
 </defs>
</svg>
