<?xml version="1.0" encoding="utf-8" standalone="no"?>
<!DOCTYPE svg PUBLIC "-//W3C//DTD SVG 1.1//EN"
  "http://www.w3.org/Graphics/SVG/1.1/DTD/svg11.dtd">
<!-- Created with matplotlib (https://matplotlib.org/) -->
<svg height="288pt" version="1.1" viewBox="0 0 504 288" width="504pt" xmlns="http://www.w3.org/2000/svg" xmlns:xlink="http://www.w3.org/1999/xlink">
 <defs>
  <style type="text/css">
*{stroke-linecap:butt;stroke-linejoin:round;}
  </style>
 </defs>
 <g id="figure_1">
  <g id="patch_1">
   <path d="M 0 288 
L 504 288 
L 504 0 
L 0 0 
z
" style="fill:#ffffff;"/>
  </g>
  <g id="axes_1">
   <g id="patch_2">
    <path d="M 60.48 239.04 
L 247.68 239.04 
L 247.68 57.6 
L 60.48 57.6 
z
" style="fill:#ffffff;"/>
   </g>
   <g id="matplotlib.axis_1">
    <g id="xtick_1">
     <g id="line2d_1">
      <defs>
       <path d="M 0 0 
L 0 3.5 
" id="mdbd3857d31" style="stroke:#000000;stroke-width:0.8;"/>
      </defs>
      <g>
       <use style="stroke:#000000;stroke-width:0.8;" x="60.48" xlink:href="#mdbd3857d31" y="239.04"/>
      </g>
     </g>
     <g id="text_1">
      <!-- 0 -->
      <defs>
       <path d="M 27.296875 -1.796875 
Q 15.703125 -1.796875 9.453125 7.75 
Q 3.203125 17.296875 3.203125 35.90625 
Q 3.203125 54.5 9.453125 64.046875 
Q 15.703125 73.59375 27.296875 73.59375 
Q 38.703125 73.59375 45.453125 63.84375 
Q 52.203125 54.09375 52.203125 35.90625 
Q 52.203125 17.703125 45.390625 7.953125 
Q 38.59375 -1.796875 27.296875 -1.796875 
z
M 27.5 66.796875 
Q 19.203125 66.796875 14.59375 58.796875 
Q 10 50.796875 10 35.703125 
Q 10 4.703125 27.5 4.703125 
Q 36 4.703125 40.75 12.84375 
Q 45.5 21 45.5 35.703125 
Q 45.5 50.796875 40.59375 58.796875 
Q 35.703125 66.796875 27.5 66.796875 
z
" id="STXihei-48"/>
      </defs>
      <g transform="translate(57.709687 253.399375)scale(0.1 -0.1)">
       <use xlink:href="#STXihei-48"/>
      </g>
     </g>
    </g>
    <g id="xtick_2">
     <g id="line2d_2">
      <g>
       <use style="stroke:#000000;stroke-width:0.8;" x="113.965714" xlink:href="#mdbd3857d31" y="239.04"/>
      </g>
     </g>
     <g id="text_2">
      <!-- 200 -->
      <defs>
       <path d="M 11.59375 49.296875 
L 4.703125 49.296875 
Q 5.203125 60.296875 12 66.9375 
Q 18.796875 73.59375 28.59375 73.59375 
Q 38.09375 73.59375 44.4375 67.34375 
Q 50.796875 61.09375 50.796875 52.09375 
Q 50.796875 45.40625 47.25 39.703125 
Q 43.703125 34 36.5 26.203125 
L 18.59375 6.90625 
L 51.796875 6.90625 
L 51.796875 0 
L 3 0 
L 30.40625 29.59375 
Q 37.59375 37.40625 40.6875 41.90625 
Q 43.796875 46.40625 43.796875 52 
Q 43.796875 58 39.25 62.390625 
Q 34.703125 66.796875 28.203125 66.796875 
Q 21.203125 66.796875 16.75 62.25 
Q 12.296875 57.703125 11.59375 49.296875 
z
" id="STXihei-50"/>
      </defs>
      <g transform="translate(105.654777 253.399375)scale(0.1 -0.1)">
       <use xlink:href="#STXihei-50"/>
       <use x="55.399994" xlink:href="#STXihei-48"/>
       <use x="110.799988" xlink:href="#STXihei-48"/>
      </g>
     </g>
    </g>
    <g id="xtick_3">
     <g id="line2d_3">
      <g>
       <use style="stroke:#000000;stroke-width:0.8;" x="167.451429" xlink:href="#mdbd3857d31" y="239.04"/>
      </g>
     </g>
     <g id="text_3">
      <!-- 400 -->
      <defs>
       <path d="M 42.59375 73.59375 
L 44 73.59375 
L 44 23.59375 
L 52.703125 23.59375 
L 52.703125 16.703125 
L 44 16.703125 
L 44 0 
L 36.90625 0 
L 36.90625 16.703125 
L 2.5 16.703125 
z
M 36.90625 23.59375 
L 36.90625 53.5 
L 15.703125 23.59375 
z
" id="STXihei-52"/>
      </defs>
      <g transform="translate(159.140491 253.399375)scale(0.1 -0.1)">
       <use xlink:href="#STXihei-52"/>
       <use x="55.399994" xlink:href="#STXihei-48"/>
       <use x="110.799988" xlink:href="#STXihei-48"/>
      </g>
     </g>
    </g>
    <g id="xtick_4">
     <g id="line2d_4">
      <g>
       <use style="stroke:#000000;stroke-width:0.8;" x="220.937143" xlink:href="#mdbd3857d31" y="239.04"/>
      </g>
     </g>
     <g id="text_4">
      <!-- 600 -->
      <defs>
       <path d="M 36.703125 73.59375 
L 42.59375 69.796875 
L 23.203125 40.40625 
Q 27.296875 41.796875 31 41.796875 
Q 39 41.796875 45 35.4375 
Q 51 29.09375 51 20.09375 
Q 51 10.796875 44.453125 4.5 
Q 37.90625 -1.796875 28.5 -1.796875 
Q 19.203125 -1.796875 12.953125 4.59375 
Q 6.703125 11 6.703125 20.203125 
Q 6.703125 24.59375 8.390625 29.25 
Q 10.09375 33.90625 14.90625 41.09375 
z
M 43.90625 20.296875 
Q 43.90625 26.59375 39.5 31 
Q 35.09375 35.40625 28.796875 35.40625 
Q 22.5 35.40625 18.09375 31 
Q 13.703125 26.59375 13.703125 20.296875 
Q 13.703125 14 18.140625 9.59375 
Q 22.59375 5.203125 28.796875 5.203125 
Q 35 5.203125 39.453125 9.59375 
Q 43.90625 14 43.90625 20.296875 
z
" id="STXihei-54"/>
      </defs>
      <g transform="translate(212.626205 253.399375)scale(0.1 -0.1)">
       <use xlink:href="#STXihei-54"/>
       <use x="55.399994" xlink:href="#STXihei-48"/>
       <use x="110.799988" xlink:href="#STXihei-48"/>
      </g>
     </g>
    </g>
    <g id="text_5">
     <!-- 时间（天） -->
     <defs>
      <path d="M 74.59375 51.09375 
Q 74.59375 70.59375 73.5 76 
Q 76.09375 75.296875 81.296875 75.296875 
Q 83 75.296875 83 74.5 
Q 83 73.703125 81.84375 73.046875 
Q 80.703125 72.40625 80.703125 69.09375 
L 80.703125 51.09375 
Q 89.09375 51.203125 96 51.90625 
L 96 45.203125 
Q 90.59375 45.90625 80.703125 45.90625 
L 80.703125 -3.703125 
Q 80.703125 -8.40625 79.25 -10.90625 
Q 77.796875 -13.40625 73.296875 -14.59375 
Q 68.796875 -15.796875 59.5 -15.796875 
Q 59.5 -11.09375 55.90625 -7.296875 
Q 62.59375 -8.40625 66.640625 -8.40625 
Q 70.703125 -8.40625 72.640625 -6.796875 
Q 74.59375 -5.203125 74.59375 -0.296875 
L 74.59375 46 
L 61.796875 46 
Q 50.90625 46 42.90625 45.203125 
L 42.90625 51.90625 
Q 50.796875 51.09375 61.796875 51.09375 
z
M 15.09375 4.203125 
L 15.09375 -7.59375 
L 8.296875 -7.59375 
Q 9 -1.90625 9 6.703125 
L 9 56.59375 
Q 9 64.59375 8.40625 67.703125 
Q 11.59375 66.90625 24.75 66.90625 
Q 37.90625 66.90625 41.09375 67.703125 
Q 40.5 65.09375 40.5 56.59375 
L 40.5 8.09375 
Q 40.5 1.703125 41.203125 -5.09375 
L 34.296875 -5.09375 
L 34.296875 4.203125 
z
M 34.296875 37.296875 
L 34.296875 61.796875 
L 15.09375 61.796875 
L 15.09375 37.296875 
z
M 34.296875 8.90625 
L 34.296875 32.59375 
L 15.09375 32.59375 
L 15.09375 8.90625 
z
M 68.09375 16.796875 
L 62.296875 13 
Q 57.296875 23.40625 48.296875 32.90625 
L 53.40625 36.296875 
Q 62.796875 25.296875 68.09375 16.796875 
z
" id="STXihei-26102"/>
      <path d="M 34 62.59375 
L 29 57.796875 
Q 24.203125 64.90625 14.796875 71.40625 
L 18.59375 75.796875 
Q 27.796875 69.09375 34 62.59375 
z
M 87.90625 67.703125 
Q 87.203125 64.09375 87.203125 56.40625 
L 87.203125 -4.703125 
Q 87.203125 -9.796875 86.046875 -12.140625 
Q 84.90625 -14.5 81.84375 -15.34375 
Q 78.796875 -16.203125 72.09375 -16.40625 
Q 72.40625 -12.296875 69.40625 -8.90625 
Q 74 -9.703125 76.5 -9.703125 
Q 79 -9.703125 80.140625 -8.796875 
Q 81.296875 -7.90625 81.296875 -5 
L 81.296875 61.796875 
L 62.203125 61.796875 
Q 51.5 61.796875 43.796875 61.203125 
L 43.796875 67.59375 
Q 51.296875 67 66.6875 67 
Q 82.09375 67 87.90625 67.703125 
z
M 11.796875 58 
Q 14.296875 57.09375 15.1875 56.9375 
Q 16.09375 56.796875 18.4375 56.796875 
Q 20.796875 56.796875 20.796875 56.046875 
Q 20.796875 55.296875 19.296875 54.09375 
Q 18.90625 53.796875 18.5 51.796875 
Q 18.09375 49.796875 18.09375 47.5 
L 18.09375 -16.296875 
L 11.296875 -16.296875 
Q 12.296875 -7.296875 12.296875 -2.40625 
L 12.296875 45.40625 
Q 12.296875 51.90625 11.796875 58 
z
M 68.703125 2.59375 
Q 63.203125 3.296875 49.140625 3.296875 
Q 35.09375 3.296875 29.703125 2.59375 
Q 30 7.09375 30 8.796875 
L 30 41.5 
Q 30 44.5 29.703125 47.703125 
Q 35 47 49.09375 47 
Q 63.203125 47 68.703125 47.703125 
Q 68.40625 45.203125 68.40625 41.5 
L 68.40625 8.796875 
Q 68.40625 5.203125 68.703125 2.59375 
z
M 62.59375 27.296875 
L 62.59375 42.203125 
L 35.59375 42.203125 
L 35.59375 27.296875 
z
M 35.59375 22.59375 
L 35.59375 7.796875 
L 62.59375 7.796875 
L 62.59375 22.59375 
z
" id="STXihei-38388"/>
      <path d="M 90.40625 70.59375 
Q 81.703125 60.796875 77.5 51.6875 
Q 73.296875 42.59375 73.296875 33 
Q 73.296875 16.203125 77.34375 7.453125 
Q 81.40625 -1.296875 89.90625 -10.296875 
L 86 -14.203125 
Q 76.40625 -4.796875 71.65625 6.25 
Q 66.90625 17.296875 66.90625 32.90625 
Q 66.90625 43.203125 72.046875 54.34375 
Q 77.203125 65.5 86.796875 74.09375 
z
" id="STXihei-65288"/>
      <path d="M 47.90625 62.203125 
Q 25.90625 62.203125 15.203125 61.40625 
L 15.203125 67.90625 
Q 23.703125 67.09375 51.046875 67.09375 
Q 78.40625 67.09375 86.203125 67.90625 
L 86.203125 61.40625 
Q 78.40625 62.203125 53.796875 62.203125 
Q 54.203125 46.90625 52.296875 35.40625 
Q 84.40625 35.40625 92.796875 36.203125 
L 92.796875 29.59375 
Q 84.90625 30.40625 55 30.40625 
Q 60.203125 17.90625 70.84375 7.34375 
Q 81.5 -3.203125 94.09375 -8.203125 
Q 90.09375 -9.90625 87.796875 -14.59375 
Q 57.59375 6.09375 50.59375 28.09375 
Q 47 14.59375 37.953125 4.296875 
Q 28.90625 -6 11.703125 -15.90625 
Q 10.09375 -12.59375 5.796875 -10.203125 
Q 22.40625 -2.796875 31.75 6.953125 
Q 41.09375 16.703125 44.796875 30.40625 
Q 18.5 30.40625 8.09375 29.59375 
L 8.09375 36.203125 
Q 15.90625 35.40625 46 35.40625 
Q 48.40625 46.796875 47.90625 62.203125 
z
" id="STXihei-22825"/>
      <path d="M 13.203125 74.09375 
Q 22.796875 65.5 27.9375 54.34375 
Q 33.09375 43.203125 33.09375 32.90625 
Q 33.09375 17.296875 28.34375 6.25 
Q 23.59375 -4.796875 14 -14.203125 
L 10.09375 -10.296875 
Q 18.59375 -1.296875 22.640625 7.453125 
Q 26.703125 16.203125 26.703125 33 
Q 26.703125 42.59375 22.5 51.6875 
Q 18.296875 60.796875 9.59375 70.59375 
z
" id="STXihei-65289"/>
     </defs>
     <g transform="translate(119.08 275.643125)scale(0.14 -0.14)">
      <use xlink:href="#STXihei-26102"/>
      <use x="99.999985" xlink:href="#STXihei-38388"/>
      <use x="199.999969" xlink:href="#STXihei-65288"/>
      <use x="299.999954" xlink:href="#STXihei-22825"/>
      <use x="399.999939" xlink:href="#STXihei-65289"/>
     </g>
    </g>
   </g>
   <g id="matplotlib.axis_2">
    <g id="ytick_1">
     <g id="line2d_5">
      <defs>
       <path d="M 0 0 
L -3.5 0 
" id="m37e10209b5" style="stroke:#000000;stroke-width:0.8;"/>
      </defs>
      <g>
       <use style="stroke:#000000;stroke-width:0.8;" x="60.48" xlink:href="#m37e10209b5" y="239.04"/>
      </g>
     </g>
     <g id="text_6">
      <!-- 0 -->
      <g transform="translate(47.939375 242.719687)scale(0.1 -0.1)">
       <use xlink:href="#STXihei-48"/>
      </g>
     </g>
    </g>
    <g id="ytick_2">
     <g id="line2d_6">
      <g>
       <use style="stroke:#000000;stroke-width:0.8;" x="60.48" xlink:href="#m37e10209b5" y="202.752"/>
      </g>
     </g>
     <g id="text_7">
      <!-- 1 -->
      <defs>
       <path d="M 18.5 71.796875 
L 32.59375 71.796875 
L 32.59375 0 
L 25.5 0 
L 25.5 64.796875 
L 14.203125 64.796875 
z
" id="STXihei-49"/>
      </defs>
      <g transform="translate(47.939375 206.431687)scale(0.1 -0.1)">
       <use xlink:href="#STXihei-49"/>
      </g>
     </g>
    </g>
    <g id="ytick_3">
     <g id="line2d_7">
      <g>
       <use style="stroke:#000000;stroke-width:0.8;" x="60.48" xlink:href="#m37e10209b5" y="166.464"/>
      </g>
     </g>
     <g id="text_8">
      <!-- 2 -->
      <g transform="translate(47.939375 170.143687)scale(0.1 -0.1)">
       <use xlink:href="#STXihei-50"/>
      </g>
     </g>
    </g>
    <g id="ytick_4">
     <g id="line2d_8">
      <g>
       <use style="stroke:#000000;stroke-width:0.8;" x="60.48" xlink:href="#m37e10209b5" y="130.176"/>
      </g>
     </g>
     <g id="text_9">
      <!-- 3 -->
      <defs>
       <path d="M 13.203125 55.203125 
L 5.90625 55.203125 
Q 7.90625 64.09375 13.546875 68.84375 
Q 19.203125 73.59375 27 73.59375 
Q 35.5 73.59375 41.546875 68.1875 
Q 47.59375 62.796875 47.59375 55.09375 
Q 47.59375 45.796875 38.40625 40.40625 
Q 44.703125 37.796875 48.140625 32.640625 
Q 51.59375 27.5 51.59375 21.40625 
Q 51.59375 11.90625 44.640625 5.046875 
Q 37.703125 -1.796875 27.09375 -1.796875 
Q 17.703125 -1.796875 11.59375 3.546875 
Q 5.5 8.90625 3.5 19.203125 
L 10.5 19.203125 
Q 12.40625 12.09375 16.34375 8.640625 
Q 20.296875 5.203125 27.203125 5.203125 
Q 34.703125 5.203125 39.59375 9.796875 
Q 44.5 14.40625 44.5 20.796875 
Q 44.5 28 39.09375 32.140625 
Q 33.703125 36.296875 23.40625 36.5 
L 23.40625 43.09375 
Q 30.796875 43.09375 35.4375 46.5 
Q 40.09375 49.90625 40.09375 55.09375 
Q 40.09375 60 36.34375 63.34375 
Q 32.59375 66.703125 27 66.703125 
Q 22 66.703125 18.75 63.84375 
Q 15.5 61 13.203125 55.203125 
z
" id="STXihei-51"/>
      </defs>
      <g transform="translate(47.939375 133.855687)scale(0.1 -0.1)">
       <use xlink:href="#STXihei-51"/>
      </g>
     </g>
    </g>
    <g id="ytick_5">
     <g id="line2d_9">
      <g>
       <use style="stroke:#000000;stroke-width:0.8;" x="60.48" xlink:href="#m37e10209b5" y="93.888"/>
      </g>
     </g>
     <g id="text_10">
      <!-- 4 -->
      <g transform="translate(47.939375 97.567687)scale(0.1 -0.1)">
       <use xlink:href="#STXihei-52"/>
      </g>
     </g>
    </g>
    <g id="ytick_6">
     <g id="line2d_10">
      <g>
       <use style="stroke:#000000;stroke-width:0.8;" x="60.48" xlink:href="#m37e10209b5" y="57.6"/>
      </g>
     </g>
     <g id="text_11">
      <!-- 5 -->
      <defs>
       <path d="M 49.203125 71.796875 
L 49.203125 65 
L 23.59375 65 
L 20 45.40625 
Q 24.796875 46.796875 29 46.796875 
Q 38.40625 46.796875 44.703125 40.140625 
Q 51 33.5 51 23.296875 
Q 51 12.703125 44.140625 5.453125 
Q 37.296875 -1.796875 26 -1.796875 
Q 17.40625 -1.796875 11.34375 3.34375 
Q 5.296875 8.5 4.09375 17.40625 
L 11.40625 17.40625 
Q 12.703125 11.40625 16.796875 8.203125 
Q 20.90625 5 26.296875 5 
Q 33.40625 5 38.546875 10.296875 
Q 43.703125 15.59375 43.703125 23.5 
Q 43.703125 30.703125 39.203125 35.34375 
Q 34.703125 40 27 40 
Q 20.203125 40 11.40625 36.203125 
L 18.09375 71.796875 
z
" id="STXihei-53"/>
      </defs>
      <g transform="translate(47.939375 61.279687)scale(0.1 -0.1)">
       <use xlink:href="#STXihei-53"/>
      </g>
     </g>
    </g>
    <g id="text_12">
     <!-- 数量（%） -->
     <defs>
      <path d="M 24.09375 49.296875 
Q 13.296875 49.296875 7.203125 48.59375 
L 7.203125 54.5 
Q 16.5 53.796875 28.703125 53.796875 
L 28.703125 64.5 
Q 28.703125 70 27.703125 74.90625 
Q 31.703125 74.5 34.140625 74.5 
Q 36.59375 74.5 36.59375 73.796875 
Q 36.59375 73.09375 35.796875 72.796875 
Q 34.40625 72.296875 34.40625 69.203125 
L 34.40625 53.796875 
Q 43.90625 53.90625 56 54.5 
L 56 48.59375 
Q 48.40625 49.296875 34.40625 49.296875 
Q 42.59375 43 50.203125 35.5 
L 45.796875 30.90625 
Q 40.5 37.5 34.40625 43.90625 
Q 34.59375 36 35.09375 30.5 
L 28 30.5 
Q 28.703125 37.59375 28.703125 47.90625 
Q 21.203125 34.703125 9.796875 25.40625 
Q 8.40625 27.59375 5.296875 29.40625 
Q 17.296875 38.09375 24.09375 49.296875 
z
M 74.203125 12.40625 
Q 79.90625 23.796875 80.90625 48.796875 
L 64.59375 48.796875 
Q 60.796875 36.90625 55.90625 28.703125 
Q 54.90625 29.09375 53.09375 30.09375 
Q 51.296875 31.09375 50.09375 31.5 
Q 55.40625 37.90625 59.203125 50.046875 
Q 63 62.203125 63.703125 74.703125 
Q 67.796875 73 72 73 
Q 73.296875 73 73.296875 71.84375 
Q 73.296875 70.703125 72.046875 69.953125 
Q 70.796875 69.203125 69.84375 67.296875 
Q 68.90625 65.40625 66.09375 53.90625 
L 83.09375 53.90625 
Q 91.40625 53.90625 95.40625 54.703125 
L 95.40625 48.09375 
Q 92.40625 48.703125 86.59375 48.703125 
Q 84.59375 19.203125 77.40625 7.09375 
Q 85.09375 -3.703125 96.703125 -8 
Q 93.796875 -10.59375 91.90625 -14.203125 
Q 82 -7.09375 74.296875 2.59375 
Q 66.09375 -7.703125 50.90625 -16.296875 
Q 49.203125 -13.90625 45.296875 -10.703125 
Q 52.203125 -8.703125 59.296875 -3.796875 
Q 66.40625 1.09375 70.90625 7 
Q 64.203125 17.09375 60.796875 32.703125 
L 66.40625 34.203125 
Q 66.796875 24.90625 74.203125 12.40625 
z
M 47.296875 71.703125 
Q 50 69.40625 51.703125 68.546875 
Q 53.40625 67.703125 53.40625 66.796875 
Q 53.40625 65.90625 52.25 65.59375 
Q 51.09375 65.296875 49.25 63.34375 
Q 47.40625 61.40625 43.203125 55.59375 
Q 41.59375 56.703125 38.59375 57.703125 
Q 44.59375 64.09375 47.296875 71.703125 
z
M 23.796875 59.203125 
L 18.703125 56.203125 
Q 14.796875 63.203125 10.796875 67.90625 
L 15.09375 70.5 
Q 20 65 23.796875 59.203125 
z
M 41.5 1.40625 
Q 47.5 -1 52.5 -3.5 
Q 50.40625 -5.296875 48.5 -8.5 
Q 43 -5.09375 37.296875 -2.59375 
Q 29.703125 -8.90625 11.703125 -14.203125 
Q 11 -10.796875 8.203125 -7.703125 
Q 23 -6 31.59375 -0.203125 
Q 23.09375 3 14.703125 4.703125 
Q 18.90625 10.5 21.796875 15.703125 
Q 12.90625 15.59375 7.296875 14.90625 
L 7.296875 20.90625 
Q 12.703125 20.5 24.09375 20.296875 
Q 25.90625 23.90625 27.90625 29.90625 
Q 31.203125 28.296875 33.34375 27.84375 
Q 35.5 27.40625 35.5 26.546875 
Q 35.5 25.703125 34.046875 25 
Q 32.59375 24.296875 30.09375 20.296875 
L 44.296875 20.296875 
Q 49.296875 20.296875 52.203125 21 
Q 47.203125 7.796875 41.5 1.40625 
z
M 27.59375 15.703125 
L 23.203125 7.5 
Q 29.703125 5.796875 36 3.40625 
Q 40.796875 8.203125 43.5 15.703125 
z
" id="STXihei-25968"/>
      <path d="M 81.203125 46.796875 
Q 78.296875 47.296875 50 47.296875 
Q 21.703125 47.296875 18.796875 46.796875 
Q 19.296875 53.59375 19.296875 58.75 
Q 19.296875 63.90625 18.796875 70.09375 
Q 21.796875 69.40625 49.390625 69.40625 
Q 77 69.40625 81.09375 70.09375 
Q 80.90625 62.796875 80.90625 57.796875 
Q 80.90625 52.796875 81.203125 46.796875 
z
M 75.09375 59.703125 
L 75.09375 65.5 
L 25.09375 65.5 
L 25.09375 59.703125 
z
M 25.09375 56.09375 
L 25.09375 50.90625 
L 75.09375 50.90625 
L 75.09375 56.09375 
z
M 94.5 38.203125 
Q 77.203125 39 47.75 39 
Q 18.296875 39 4.703125 38.203125 
L 4.703125 44 
Q 23.5 43.296875 49.546875 43.296875 
Q 75.59375 43.296875 94.5 44 
z
M 52.90625 -0.40625 
L 52.90625 -9 
Q 75.90625 -9 92.40625 -8 
L 92.40625 -14.203125 
Q 78.40625 -13.09375 49.703125 -13.09375 
Q 21 -13.09375 7.296875 -14.203125 
L 7.296875 -8 
Q 23.90625 -9 47.203125 -9 
L 47.203125 -0.40625 
Q 26.59375 -0.40625 14.5 -1.59375 
L 14.5 4.90625 
Q 28.40625 3.703125 47.203125 3.703125 
L 47.203125 10.09375 
Q 23.59375 10 18.09375 9.203125 
Q 18.5 15.296875 18.5 20.546875 
Q 18.5 25.796875 18.09375 35.5 
Q 23.296875 34.296875 49.1875 34.296875 
Q 75.09375 34.296875 82 35.5 
Q 81.59375 25.90625 81.59375 20.296875 
Q 81.59375 14.703125 82.09375 9.203125 
Q 77.90625 10.09375 52.90625 10.09375 
L 52.90625 3.703125 
Q 73.5 3.796875 84.90625 4.90625 
L 84.90625 -1.59375 
Q 73.5 -0.5 52.90625 -0.40625 
z
M 75.59375 23.90625 
L 75.59375 30.09375 
L 52.90625 30.09375 
L 52.90625 23.90625 
z
M 47.203125 23.90625 
L 47.203125 30.09375 
L 24.296875 30.09375 
L 24.296875 23.90625 
z
M 52.90625 20.296875 
L 52.90625 14.40625 
L 75.59375 14.40625 
L 75.59375 20.296875 
z
M 24.296875 20.296875 
L 24.296875 14.40625 
L 47.203125 14.40625 
L 47.203125 20.296875 
z
" id="STXihei-37327"/>
      <path d="M 67.40625 75 
L 15.09375 -5 
L 8.59375 -5 
L 56.296875 67.90625 
Q 50.5 66.5 44.453125 66.09375 
Q 38.40625 65.703125 35.59375 65.796875 
L 33 65.90625 
Q 36 61.703125 36 57 
Q 36 49.796875 31.140625 44.75 
Q 26.296875 39.703125 19 39.703125 
Q 12 39.703125 7.09375 44.59375 
Q 2.203125 49.5 2.203125 56.59375 
Q 2.203125 63.703125 7.25 68.59375 
Q 12.296875 73.5 18.90625 73.5 
Q 21.59375 73.5 25 72.796875 
Q 31.59375 71.40625 38.90625 71.40625 
Q 50.5 71.40625 61.703125 75 
z
M 29.90625 56.703125 
Q 29.90625 61.203125 26.75 64.296875 
Q 23.59375 67.40625 19.09375 67.40625 
Q 14.703125 67.40625 11.546875 64.25 
Q 8.40625 61.09375 8.40625 56.703125 
Q 8.40625 52.296875 11.546875 49.140625 
Q 14.703125 46 19.09375 46 
Q 23.59375 46 26.75 49.09375 
Q 29.90625 52.203125 29.90625 56.703125 
z
M 41.5 14.796875 
Q 41.5 21.703125 46.453125 26.703125 
Q 51.40625 31.703125 58.296875 31.703125 
Q 65.296875 31.703125 70.25 26.75 
Q 75.203125 21.796875 75.203125 14.796875 
Q 75.203125 7.796875 70.25 2.84375 
Q 65.296875 -2.09375 58.296875 -2.09375 
Q 51.40625 -2.09375 46.453125 2.84375 
Q 41.5 7.796875 41.5 14.796875 
z
M 69.09375 14.796875 
Q 69.09375 19.203125 65.9375 22.34375 
Q 62.796875 25.5 58.296875 25.5 
Q 53.90625 25.5 50.796875 22.34375 
Q 47.703125 19.203125 47.703125 14.796875 
Q 47.703125 10.40625 50.796875 7.25 
Q 53.90625 4.09375 58.296875 4.09375 
Q 62.796875 4.09375 65.9375 7.1875 
Q 69.09375 10.296875 69.09375 14.796875 
z
" id="STXihei-37"/>
     </defs>
     <g transform="translate(30.2225 181.745)rotate(-90)scale(0.14 -0.14)">
      <use xlink:href="#STXihei-25968"/>
      <use x="99.999985" xlink:href="#STXihei-37327"/>
      <use x="199.999969" xlink:href="#STXihei-65288"/>
      <use x="299.999954" xlink:href="#STXihei-37"/>
      <use x="377.499939" xlink:href="#STXihei-65289"/>
     </g>
    </g>
   </g>
   <g id="line2d_11">
    <path clip-path="url(#pec74367878)" d="M 60.48 239.003676 
L 62.084571 239.031137 
L 97.117714 238.86361 
L 108.349714 238.588202 
L 115.837714 238.200116 
L 121.721143 237.68337 
L 126.534857 237.047845 
L 130.813714 236.262301 
L 134.557714 235.360593 
L 138.301714 234.225177 
L 142.045714 232.838906 
L 146.057143 231.091212 
L 151.940571 228.2251 
L 156.486857 226.100435 
L 159.428571 224.972428 
L 161.835429 224.287938 
L 163.974857 223.904284 
L 166.114286 223.756663 
L 168.253714 223.854084 
L 170.393143 224.189718 
L 172.532571 224.742497 
L 174.939429 225.582309 
L 178.148571 226.962041 
L 184.032 229.812824 
L 188.845714 232.033457 
L 192.589714 233.529644 
L 196.333714 234.781588 
L 200.077714 235.793358 
L 204.089143 236.639853 
L 208.635429 237.35333 
L 213.716571 237.913446 
L 219.867429 238.354783 
L 227.622857 238.676905 
L 238.32 238.889982 
L 247.68 238.971057 
L 247.68 238.971057 
" style="fill:none;stroke:#1f77b4;stroke-linecap:square;stroke-width:1.5;"/>
   </g>
   <g id="line2d_12">
    <path clip-path="url(#pec74367878)" d="M 60.48 239.032735 
L 66.898286 239.031936 
L 78.932571 238.902332 
L 83.478857 238.638111 
L 86.153143 238.286204 
L 88.292571 237.794885 
L 89.897143 237.228085 
L 91.501714 236.407307 
L 92.838857 235.451694 
L 93.908571 234.449805 
L 94.978286 233.178463 
L 96.048 231.571706 
L 97.117714 229.551291 
L 98.187429 227.027569 
L 99.257143 223.901668 
L 100.326857 220.071226 
L 101.396571 215.441147 
L 102.466286 209.940817 
L 103.803429 201.816148 
L 105.408 190.459439 
L 108.884571 164.783432 
L 109.954286 158.825782 
L 110.756571 155.642925 
L 111.291429 154.248591 
L 111.826286 153.484188 
L 112.093714 153.345503 
L 112.361143 153.370348 
L 112.628571 153.558289 
L 113.163429 154.415318 
L 113.698286 155.888112 
L 114.500571 159.148267 
L 115.302857 163.477947 
L 116.372571 170.47025 
L 119.046857 190.243311 
L 120.918857 202.988687 
L 122.256 210.678921 
L 123.593143 217.061054 
L 124.930286 222.203447 
L 126 225.524699 
L 127.069714 228.23992 
L 128.139429 230.441012 
L 129.209143 232.213261 
L 130.278857 233.632659 
L 131.616 235.009485 
L 132.953143 236.042105 
L 134.290286 236.813627 
L 135.894857 237.484532 
L 137.766857 238.017842 
L 140.173714 238.445085 
L 143.382857 238.751297 
L 147.929143 238.936477 
L 156.486857 239.024962 
L 192.054857 239.04 
L 247.68 239.04 
L 247.68 239.04 
" style="fill:none;stroke:#ff7f0e;stroke-linecap:square;stroke-width:1.5;"/>
   </g>
   <g id="line2d_13">
    <path clip-path="url(#pec74367878)" d="M 60.48 239.032735 
L 66.363429 239.023509 
L 72.514286 238.880465 
L 75.188571 238.613628 
L 76.793143 238.271238 
L 78.130286 237.784496 
L 79.2 237.182389 
L 80.269714 236.294121 
L 81.072 235.361974 
L 81.874286 234.118384 
L 82.676571 232.463243 
L 83.478857 230.267601 
L 84.281143 227.366836 
L 85.083429 223.556881 
L 85.885714 218.590659 
L 86.688 212.182591 
L 87.490286 204.02523 
L 88.292571 193.825223 
L 89.362286 176.701929 
L 90.432 155.642271 
L 93.641143 88.442446 
L 94.176 81.63416 
L 94.710857 77.436627 
L 94.978286 76.408149 
L 95.245714 76.116975 
L 95.513143 76.564633 
L 95.780571 77.738625 
L 96.315429 82.154538 
L 96.850286 89.03322 
L 97.652571 102.926727 
L 99.257143 136.930163 
L 100.861714 169.408644 
L 101.931429 187.075637 
L 103.001143 201.072377 
L 104.070857 211.723746 
L 104.873143 217.859601 
L 105.675429 222.696001 
L 106.477714 226.47479 
L 107.28 229.407375 
L 108.082286 231.671597 
L 108.884571 233.413117 
L 109.686857 234.748461 
L 110.756571 236.053874 
L 111.826286 236.964735 
L 112.896 237.59888 
L 114.233143 238.127322 
L 115.837714 238.51272 
L 117.977143 238.786531 
L 121.186286 238.955583 
L 127.872 239.0315 
L 171.730286 239.04 
L 247.68 239.04 
L 247.68 239.04 
" style="fill:none;stroke:#2ca02c;stroke-linecap:square;stroke-width:1.5;"/>
   </g>
   <g id="patch_3">
    <path d="M 60.48 239.04 
L 60.48 57.6 
" style="fill:none;stroke:#000000;stroke-linecap:square;stroke-linejoin:miter;stroke-width:0.8;"/>
   </g>
   <g id="patch_4">
    <path d="M 247.68 239.04 
L 247.68 57.6 
" style="fill:none;stroke:#000000;stroke-linecap:square;stroke-linejoin:miter;stroke-width:0.8;"/>
   </g>
   <g id="patch_5">
    <path d="M 60.48 239.04 
L 247.68 239.04 
" style="fill:none;stroke:#000000;stroke-linecap:square;stroke-linejoin:miter;stroke-width:0.8;"/>
   </g>
   <g id="patch_6">
    <path d="M 60.48 57.6 
L 247.68 57.6 
" style="fill:none;stroke:#000000;stroke-linecap:square;stroke-linejoin:miter;stroke-width:0.8;"/>
   </g>
   <g id="text_13">
    <!-- 感染者 -->
    <defs>
     <path d="M 82.40625 68 
L 77.703125 63.796875 
Q 74.5 68.90625 68.203125 72.09375 
L 72.40625 76.59375 
Q 78.796875 71.90625 82.40625 68 
z
M 56.59375 58.5 
L 19.203125 58.5 
Q 19.203125 40.703125 17.703125 30.84375 
Q 16.203125 21 11.5 11.203125 
Q 8.59375 13.40625 4.703125 14.203125 
Q 9.40625 20.296875 11.453125 28.25 
Q 13.5 36.203125 13.5 49 
Q 13.5 55.5 13 64 
Q 15.90625 63.296875 56.09375 63.296875 
Q 55.59375 68.796875 55.40625 76 
Q 58.5 74.90625 62.703125 74.90625 
Q 64.203125 74.90625 64.203125 74.046875 
Q 64.203125 73.203125 63.34375 72.59375 
Q 62.5 72 62.203125 71 
Q 61.90625 70 61.90625 68 
Q 61.90625 66 62 63.296875 
Q 84.40625 63.296875 87.90625 64 
L 87.90625 57.796875 
Q 80.296875 58.5 62.296875 58.5 
Q 63.5 46.59375 69.296875 34.90625 
Q 75.09375 42.90625 78.09375 51.59375 
Q 81.40625 49.09375 84.40625 48.09375 
Q 85.40625 47.796875 85.40625 47.140625 
Q 85.40625 46.5 83.796875 45.84375 
Q 82.203125 45.203125 79.796875 41.40625 
Q 75.59375 34.59375 72 30 
Q 75.703125 23.90625 78.703125 21.25 
Q 81.703125 18.59375 83.546875 18.59375 
Q 85.40625 18.59375 86.296875 20.84375 
Q 87.203125 23.09375 87.59375 27.703125 
Q 90 24.703125 93.59375 24.09375 
Q 92.40625 19.703125 90.453125 16.046875 
Q 88.5 12.40625 85.09375 12.40625 
Q 76.59375 12.40625 68.09375 25 
Q 62.796875 18.203125 55.90625 11.703125 
Q 53.90625 13.90625 50.09375 15.09375 
Q 57.203125 20.296875 65.296875 29.59375 
Q 58.90625 41.09375 56.59375 58.5 
z
M 23.5 51 
Q 29.09375 50.40625 38.796875 50.40625 
Q 48.5 50.40625 54 51 
L 54 45.203125 
Q 49.703125 45.796875 38.75 45.796875 
Q 27.796875 45.796875 23.5 45.203125 
z
M 52.40625 39 
Q 51.796875 33.59375 51.796875 28.4375 
Q 51.796875 23.296875 52.296875 18.796875 
Q 48.40625 19.203125 38.75 19.203125 
Q 29.09375 19.203125 24.90625 18.796875 
Q 25.59375 24.703125 25.59375 30 
Q 25.59375 35.296875 24.90625 39 
Q 30.40625 38.296875 38.59375 38.296875 
Q 46.796875 38.296875 52.40625 39 
z
M 46.40625 23.40625 
L 46.40625 34.09375 
L 31 34.09375 
L 31 23.40625 
z
M 59 4.09375 
L 54.59375 -0.203125 
Q 47.90625 7.09375 41.5 11.40625 
L 45.5 15.703125 
Q 52.703125 10.703125 59 4.09375 
z
M 74.5 -1.5 
Q 73.296875 -6.59375 71 -9.09375 
Q 68.703125 -11.59375 63.84375 -12.4375 
Q 59 -13.296875 48.140625 -13.296875 
Q 37.296875 -13.296875 34.140625 -12.640625 
Q 31 -12 29.84375 -10.09375 
Q 28.703125 -8.203125 28.703125 -4.40625 
L 28.703125 7.59375 
Q 28.703125 11.90625 28.296875 13.40625 
Q 31 12.5 35.40625 12.5 
Q 36.796875 12.5 36.796875 11.84375 
Q 36.796875 11.203125 35.75 10.25 
Q 34.703125 9.296875 34.703125 6.90625 
L 34.703125 -4 
Q 34.703125 -6.296875 37.046875 -7.1875 
Q 39.40625 -8.09375 48.59375 -8.09375 
Q 55.203125 -8.09375 59.890625 -7.34375 
Q 64.59375 -6.59375 66.296875 -4.6875 
Q 68 -2.796875 68.296875 2.703125 
Q 70.796875 -0.59375 74.5 -1.5 
z
M 23 9.296875 
Q 18.59375 -2.59375 12.5 -11.5 
L 6.296875 -8.296875 
Q 14.296875 0.09375 17.203125 11.40625 
z
M 93.90625 -5.90625 
L 88.5 -10.5 
Q 81.90625 -1 73.296875 5.90625 
L 77.703125 10.296875 
Q 86.5 3.40625 93.90625 -5.90625 
z
" id="STXihei-24863"/>
     <path d="M 61.5 56.40625 
Q 60.5 48.09375 55.640625 41.34375 
Q 50.796875 34.59375 40.90625 27.203125 
Q 39.09375 30.59375 34.90625 31.90625 
Q 53.703125 40.796875 56 56.09375 
Q 46.40625 55.703125 40.5 54.59375 
L 40.5 60.59375 
Q 43.5 60.40625 47.296875 60.40625 
Q 51.09375 60.40625 56.5 60.703125 
Q 56.703125 63.796875 56.703125 67.34375 
Q 56.703125 70.90625 55.796875 76.296875 
Q 58.40625 75.703125 63 75.703125 
Q 64.796875 75.703125 64.796875 74.890625 
Q 64.796875 74.09375 63.9375 73.1875 
Q 63.09375 72.296875 62.6875 70 
Q 62.296875 67.703125 61.90625 61 
Q 76 61.90625 81.59375 62.5 
L 79.796875 38 
Q 79.59375 35.09375 80.25 34.140625 
Q 80.90625 33.203125 83.59375 33.203125 
Q 86.296875 33.203125 87.75 34.640625 
Q 89.203125 36.09375 90 40.90625 
Q 91.796875 37.90625 95.296875 37.203125 
Q 93.796875 32.90625 92.4375 31.09375 
Q 91.09375 29.296875 88.890625 28.6875 
Q 86.703125 28.09375 81.953125 28.09375 
Q 77.203125 28.09375 75.703125 29.5 
Q 74.203125 30.90625 74.203125 34.5 
Q 74.203125 34.796875 74.40625 38 
L 75.59375 57.09375 
z
M 38.09375 63.59375 
L 34.796875 58.703125 
Q 27.59375 64.703125 17.5 69.703125 
L 20.40625 74.203125 
Q 29.703125 69.703125 38.09375 63.59375 
z
M 29.703125 51.703125 
L 26.703125 47.203125 
Q 20.40625 51.59375 9.90625 55.59375 
L 12.203125 60.296875 
Q 20.796875 56.90625 29.703125 51.703125 
z
M 38 42.296875 
Q 24.90625 34.59375 13 25.296875 
L 8.5 31.5 
Q 25.09375 38.203125 35 47.90625 
Q 35.796875 44.703125 38 42.296875 
z
M 54.203125 20.296875 
Q 81.296875 20.296875 94.796875 21.296875 
L 94.796875 14.796875 
Q 81.703125 15.59375 61.90625 15.5 
Q 77.203125 -0.40625 95.59375 -4.203125 
Q 92.40625 -6.5 91 -11.09375 
Q 67.796875 -0.5 56.703125 15.5 
L 54.203125 15.5 
L 54.203125 -6 
Q 54.203125 -11.796875 54.796875 -16.296875 
L 47.40625 -16.296875 
Q 48.203125 -11.203125 48.203125 -6 
L 48.203125 15.5 
L 46.296875 15.5 
Q 35.40625 -0.203125 11 -12.5 
Q 9.5 -9.5 5.296875 -6.296875 
Q 27.40625 -0.09375 40.40625 15.5 
Q 13.90625 15.5 6.796875 14.796875 
L 6.796875 21.296875 
Q 20.203125 20.296875 48.203125 20.296875 
Q 48 27.296875 47.59375 30.09375 
Q 51.40625 29.59375 54.296875 29.59375 
Q 57.203125 29.59375 57.203125 28.84375 
Q 57.203125 28.09375 55.703125 27.34375 
Q 54.203125 26.59375 54.203125 24.59375 
z
" id="STXihei-26579"/>
     <path d="M 45.703125 57.703125 
Q 27.796875 57.703125 17.796875 56.59375 
L 17.796875 63.5 
Q 26.5 62.5 45.703125 62.40625 
Q 45.703125 72.09375 45 76.59375 
Q 47.5 76 52.5 76 
Q 54.296875 76 54.296875 75.296875 
Q 54.296875 74.59375 53.046875 73.59375 
Q 51.796875 72.59375 51.796875 70.09375 
L 51.796875 62.40625 
Q 64.296875 62.5 74.796875 63.5 
L 74.796875 56.796875 
Q 81 63.203125 84.296875 70.09375 
Q 86.90625 66.90625 89.09375 65.796875 
Q 91.296875 64.703125 91.296875 63.59375 
Q 91.296875 62.5 89.390625 62.25 
Q 87.5 62 80.09375 54.75 
Q 72.703125 47.5 67.59375 42.90625 
Q 86.59375 43.40625 95.203125 44.09375 
L 95.203125 36.90625 
Q 82.203125 38 61.796875 38.09375 
Q 53.296875 31.296875 45.5 26.40625 
L 59.703125 26.40625 
Q 73.40625 26.40625 81.203125 27.296875 
Q 80.703125 24.40625 80.703125 19.59375 
L 80.703125 -5 
Q 80.703125 -9.5 81.296875 -15 
L 74.40625 -15 
L 74.40625 -9.203125 
L 35.40625 -9.203125 
L 35.40625 -16.203125 
L 28.796875 -16.203125 
Q 29.296875 -11.90625 29.296875 -6.203125 
L 29.296875 16.90625 
Q 19 11.296875 8.703125 6.796875 
Q 7.5 11.40625 3.296875 13.40625 
Q 14.703125 16.40625 29.203125 23.5 
Q 29.09375 25 28.703125 27.296875 
Q 31.5 26.90625 35.40625 26.796875 
Q 45.203125 32.09375 53.40625 38.203125 
L 32.5 38.203125 
Q 18.90625 38.203125 5.796875 36.90625 
L 5.796875 44.09375 
Q 22.5 42.90625 45.703125 42.796875 
z
M 74.59375 56.59375 
Q 64.203125 57.59375 51.796875 57.703125 
L 51.796875 42.796875 
L 59.203125 42.796875 
Q 69.796875 51.59375 74.59375 56.59375 
z
M 35.40625 12 
L 74.40625 12 
L 74.40625 21.5 
L 37.40625 21.5 
L 35.40625 20.296875 
z
M 74.40625 6.59375 
L 35.40625 6.59375 
L 35.40625 -4.703125 
L 74.40625 -4.703125 
z
" id="STXihei-32773"/>
    </defs>
    <g transform="translate(130.08 51.6)scale(0.16 -0.16)">
     <use xlink:href="#STXihei-24863"/>
     <use x="99.999985" xlink:href="#STXihei-26579"/>
     <use x="199.999969" xlink:href="#STXihei-32773"/>
    </g>
   </g>
  </g>
  <g id="axes_2">
   <g id="patch_7">
    <path d="M 266.4 239.04 
L 453.6 239.04 
L 453.6 57.6 
L 266.4 57.6 
z
" style="fill:#ffffff;"/>
   </g>
   <g id="matplotlib.axis_3">
    <g id="xtick_5">
     <g id="line2d_14">
      <g>
       <use style="stroke:#000000;stroke-width:0.8;" x="266.4" xlink:href="#mdbd3857d31" y="239.04"/>
      </g>
     </g>
     <g id="text_14">
      <!-- 0 -->
      <g transform="translate(263.629687 253.399375)scale(0.1 -0.1)">
       <use xlink:href="#STXihei-48"/>
      </g>
     </g>
    </g>
    <g id="xtick_6">
     <g id="line2d_15">
      <g>
       <use style="stroke:#000000;stroke-width:0.8;" x="319.885714" xlink:href="#mdbd3857d31" y="239.04"/>
      </g>
     </g>
     <g id="text_15">
      <!-- 200 -->
      <g transform="translate(311.574777 253.399375)scale(0.1 -0.1)">
       <use xlink:href="#STXihei-50"/>
       <use x="55.399994" xlink:href="#STXihei-48"/>
       <use x="110.799988" xlink:href="#STXihei-48"/>
      </g>
     </g>
    </g>
    <g id="xtick_7">
     <g id="line2d_16">
      <g>
       <use style="stroke:#000000;stroke-width:0.8;" x="373.371429" xlink:href="#mdbd3857d31" y="239.04"/>
      </g>
     </g>
     <g id="text_16">
      <!-- 400 -->
      <g transform="translate(365.060491 253.399375)scale(0.1 -0.1)">
       <use xlink:href="#STXihei-52"/>
       <use x="55.399994" xlink:href="#STXihei-48"/>
       <use x="110.799988" xlink:href="#STXihei-48"/>
      </g>
     </g>
    </g>
    <g id="xtick_8">
     <g id="line2d_17">
      <g>
       <use style="stroke:#000000;stroke-width:0.8;" x="426.857143" xlink:href="#mdbd3857d31" y="239.04"/>
      </g>
     </g>
     <g id="text_17">
      <!-- 600 -->
      <g transform="translate(418.546205 253.399375)scale(0.1 -0.1)">
       <use xlink:href="#STXihei-54"/>
       <use x="55.399994" xlink:href="#STXihei-48"/>
       <use x="110.799988" xlink:href="#STXihei-48"/>
      </g>
     </g>
    </g>
    <g id="text_18">
     <!-- 时间（天） -->
     <g transform="translate(325 275.643125)scale(0.14 -0.14)">
      <use xlink:href="#STXihei-26102"/>
      <use x="99.999985" xlink:href="#STXihei-38388"/>
      <use x="199.999969" xlink:href="#STXihei-65288"/>
      <use x="299.999954" xlink:href="#STXihei-22825"/>
      <use x="399.999939" xlink:href="#STXihei-65289"/>
     </g>
    </g>
   </g>
   <g id="matplotlib.axis_4">
    <g id="ytick_7">
     <g id="line2d_18">
      <g>
       <use style="stroke:#000000;stroke-width:0.8;" x="266.4" xlink:href="#m37e10209b5" y="239.04"/>
      </g>
     </g>
    </g>
    <g id="ytick_8">
     <g id="line2d_19">
      <g>
       <use style="stroke:#000000;stroke-width:0.8;" x="266.4" xlink:href="#m37e10209b5" y="202.752"/>
      </g>
     </g>
    </g>
    <g id="ytick_9">
     <g id="line2d_20">
      <g>
       <use style="stroke:#000000;stroke-width:0.8;" x="266.4" xlink:href="#m37e10209b5" y="166.464"/>
      </g>
     </g>
    </g>
    <g id="ytick_10">
     <g id="line2d_21">
      <g>
       <use style="stroke:#000000;stroke-width:0.8;" x="266.4" xlink:href="#m37e10209b5" y="130.176"/>
      </g>
     </g>
    </g>
    <g id="ytick_11">
     <g id="line2d_22">
      <g>
       <use style="stroke:#000000;stroke-width:0.8;" x="266.4" xlink:href="#m37e10209b5" y="93.888"/>
      </g>
     </g>
    </g>
    <g id="ytick_12">
     <g id="line2d_23">
      <g>
       <use style="stroke:#000000;stroke-width:0.8;" x="266.4" xlink:href="#m37e10209b5" y="57.6"/>
      </g>
     </g>
    </g>
   </g>
   <g id="line2d_24">
    <path clip-path="url(#p174085cbf1)" d="M 266.4 239.04 
L 301.165714 238.930156 
L 315.072 238.687947 
L 323.629714 238.32616 
L 330.048 237.839927 
L 335.396571 237.211884 
L 339.942857 236.459395 
L 344.221714 235.525432 
L 348.500571 234.351439 
L 353.046857 232.861355 
L 364.546286 228.928479 
L 367.488 228.256484 
L 369.894857 227.917872 
L 372.301714 227.797712 
L 374.708571 227.905449 
L 377.115429 228.231639 
L 379.789714 228.818708 
L 382.998857 229.762043 
L 388.08 231.537634 
L 395.033143 233.934076 
L 399.312 235.169166 
L 403.590857 236.168948 
L 407.869714 236.944902 
L 412.683429 237.590598 
L 418.299429 238.109088 
L 424.985143 238.496883 
L 434.077714 238.781954 
L 447.716571 238.956455 
L 453.6 238.988783 
L 453.6 238.988783 
" style="fill:none;stroke:#1f77b4;stroke-linecap:square;stroke-width:1.5;"/>
   </g>
   <g id="line2d_25">
    <path clip-path="url(#p174085cbf1)" d="M 266.4 239.04 
L 285.387429 238.93437 
L 290.201143 238.711776 
L 293.142857 238.384642 
L 295.282286 237.958416 
L 297.154286 237.366334 
L 298.758857 236.612247 
L 300.096 235.737492 
L 301.433143 234.560157 
L 302.502857 233.338144 
L 303.572571 231.805415 
L 304.642286 229.896805 
L 305.712 227.542281 
L 306.781714 224.671738 
L 307.851429 221.224224 
L 309.188571 216.049647 
L 310.525714 209.942851 
L 312.397714 200.251381 
L 314.537143 189.222242 
L 315.606857 184.682973 
L 316.409143 182.072074 
L 317.211429 180.318785 
L 317.746286 179.682679 
L 318.281143 179.494738 
L 318.816 179.758742 
L 319.350857 180.464808 
L 319.885714 181.590127 
L 320.688 183.987077 
L 321.757714 188.26089 
L 323.094857 194.728021 
L 326.571429 212.180121 
L 327.908571 217.791094 
L 329.245714 222.500142 
L 330.582857 226.326806 
L 331.92 229.362188 
L 332.989714 231.301528 
L 334.059429 232.875521 
L 335.396571 234.419801 
L 336.733714 235.589435 
L 338.070857 236.469639 
L 339.675429 237.23949 
L 341.547429 237.854238 
L 343.686857 238.305964 
L 346.361143 238.637675 
L 350.105143 238.867025 
L 356.523429 238.999317 
L 372.836571 239.038983 
L 453.6 239.04 
L 453.6 239.04 
" style="fill:none;stroke:#ff7f0e;stroke-linecap:square;stroke-width:1.5;"/>
   </g>
   <g id="line2d_26">
    <path clip-path="url(#p174085cbf1)" d="M 266.4 239.04 
L 278.434286 238.937712 
L 281.643429 238.707127 
L 283.515429 238.378103 
L 284.852571 237.95936 
L 285.922286 237.442106 
L 286.992 236.679955 
L 287.794286 235.881553 
L 288.596571 234.818566 
L 289.398857 233.407813 
L 290.201143 231.542937 
L 291.003429 229.091574 
L 291.805714 225.892807 
L 292.608 221.759495 
L 293.410286 216.487643 
L 294.212571 209.87863 
L 295.282286 198.736814 
L 296.352 184.938767 
L 299.828571 136.945637 
L 300.363429 132.824894 
L 300.898286 130.493399 
L 301.165714 130.048575 
L 301.433143 130.094416 
L 301.700571 130.626999 
L 301.968 131.634337 
L 302.502857 134.98443 
L 303.037714 139.901905 
L 303.84 149.50133 
L 305.979429 179.886166 
L 307.316571 196.849708 
L 308.386286 207.78869 
L 309.456 216.32927 
L 310.525714 222.763201 
L 311.328 226.446094 
L 312.130286 229.337705 
L 312.932571 231.590231 
L 313.734857 233.334366 
L 314.537143 234.678719 
L 315.606857 235.998879 
L 316.676571 236.923326 
L 317.746286 237.568659 
L 319.083429 238.107271 
L 320.688 238.500879 
L 322.827429 238.780719 
L 326.036571 238.953621 
L 332.454857 239.03041 
L 372.836571 239.04 
L 453.6 239.04 
L 453.6 239.04 
" style="fill:none;stroke:#2ca02c;stroke-linecap:square;stroke-width:1.5;"/>
   </g>
   <g id="patch_8">
    <path d="M 266.4 239.04 
L 266.4 57.6 
" style="fill:none;stroke:#000000;stroke-linecap:square;stroke-linejoin:miter;stroke-width:0.8;"/>
   </g>
   <g id="patch_9">
    <path d="M 453.6 239.04 
L 453.6 57.6 
" style="fill:none;stroke:#000000;stroke-linecap:square;stroke-linejoin:miter;stroke-width:0.8;"/>
   </g>
   <g id="patch_10">
    <path d="M 266.4 239.04 
L 453.6 239.04 
" style="fill:none;stroke:#000000;stroke-linecap:square;stroke-linejoin:miter;stroke-width:0.8;"/>
   </g>
   <g id="patch_11">
    <path d="M 266.4 57.6 
L 453.6 57.6 
" style="fill:none;stroke:#000000;stroke-linecap:square;stroke-linejoin:miter;stroke-width:0.8;"/>
   </g>
   <g id="text_19">
    <!-- 无症状感染者 -->
    <defs>
     <path d="M 43.703125 62.203125 
Q 22 62.203125 15.09375 61.703125 
L 15.09375 67.90625 
Q 22.203125 67.296875 48.796875 67.296875 
Q 75.40625 67.296875 82.203125 67.796875 
L 82.203125 61.59375 
Q 76.296875 62.203125 50.5 62.203125 
Q 50.40625 48.09375 48.796875 37.09375 
Q 83.703125 37.09375 89.59375 37.59375 
L 89.59375 31.40625 
Q 82.59375 32 60.296875 32 
L 60.296875 2 
Q 60.296875 -0.90625 61.046875 -2.25 
Q 61.796875 -3.59375 64.296875 -4.1875 
Q 66.796875 -4.796875 73.140625 -4.796875 
Q 79.5 -4.796875 82.453125 -4.046875 
Q 85.40625 -3.296875 86.75 -0.796875 
Q 88.09375 1.703125 88.5 7.59375 
Q 91.203125 4.5 95.703125 3.796875 
Q 93.296875 -3.40625 91.6875 -6.046875 
Q 90.09375 -8.703125 86.6875 -9.640625 
Q 83.296875 -10.59375 74.5 -10.59375 
Q 65.703125 -10.59375 61.390625 -10 
Q 57.09375 -9.40625 55.640625 -7.796875 
Q 54.203125 -6.203125 54.203125 -2.796875 
L 54.203125 32.09375 
L 47.90625 32.09375 
Q 45.296875 18 37.75 7.953125 
Q 30.203125 -2.09375 11.796875 -13.703125 
Q 9.203125 -9.5 5.296875 -8.5 
Q 22.203125 -1 30.703125 8.5 
Q 39.203125 18 42.09375 32.09375 
Q 17.203125 32.09375 8.59375 31.5 
L 8.59375 37.703125 
Q 17.796875 37.09375 42.90625 37.09375 
Q 43.90625 44.5 43.90625 51.046875 
Q 43.90625 57.59375 43.703125 62.203125 
z
" id="STXihei-26080"/>
     <path d="M 22 32.40625 
Q 22.09375 35.203125 22.09375 38.40625 
Q 22.09375 48.09375 21.09375 64.09375 
Q 23.296875 63.40625 55.203125 63.40625 
Q 51.90625 69.59375 48.203125 73.203125 
L 53.90625 76.796875 
Q 57.59375 71.09375 61.296875 63.40625 
Q 89 63.40625 92.296875 64.09375 
L 92.296875 58 
Q 88.296875 58.59375 67 58.59375 
L 27.90625 58.59375 
Q 28 51.5 28 45.59375 
Q 28 21.796875 25.140625 9.5 
Q 22.296875 -2.796875 14.59375 -14.796875 
Q 11.90625 -11.40625 7.09375 -10.90625 
Q 14.796875 -2.40625 17.9375 6.140625 
Q 21.09375 14.703125 21.796875 27 
Q 13.296875 20.59375 7.5 14.90625 
Q 6.203125 17.90625 2.703125 20.703125 
Q 12 24.703125 22 32.40625 
z
M 20.296875 40.40625 
L 15.203125 37.40625 
Q 12.5 44.296875 6.5 52 
L 11.296875 55.40625 
Q 16.59375 48.09375 20.296875 40.40625 
z
M 60.09375 41.296875 
Q 41 41.296875 32.796875 40.5 
L 32.796875 46.90625 
Q 41.296875 46.09375 61.34375 46.09375 
Q 81.40625 46.09375 89.90625 46.90625 
L 89.90625 40.5 
Q 82.796875 41.09375 65.796875 41.296875 
L 65.796875 22.59375 
Q 82 22.59375 87 23.5 
L 87 17.203125 
Q 82.59375 17.90625 65.796875 17.90625 
L 65.796875 -5.703125 
L 77.796875 -5.703125 
Q 85.296875 -5.703125 95.296875 -4.703125 
L 95.296875 -11.296875 
Q 84.40625 -10.40625 59.5 -10.40625 
Q 34.59375 -10.40625 25.90625 -11.296875 
L 25.90625 -4.703125 
Q 34 -5.59375 39.59375 -5.703125 
L 39.59375 16.703125 
Q 39.59375 24.59375 38.796875 27.796875 
Q 42.703125 27.296875 46.796875 27.296875 
Q 48.296875 27.296875 48.296875 26.6875 
Q 48.296875 26.09375 47.296875 25.703125 
Q 45.296875 25 45.296875 21.59375 
L 45.296875 -5.703125 
L 60.09375 -5.703125 
z
" id="STXihei-30151"/>
     <path d="M 24.703125 74.703125 
Q 28.5 74.203125 32.09375 74.09375 
Q 33.5 74.09375 33.5 73.09375 
Q 33.5 72.59375 33.09375 72.296875 
Q 31.703125 71.09375 31.703125 68.59375 
L 31.703125 1.59375 
Q 31.703125 -7 32.5 -14 
L 24.90625 -14 
Q 25.796875 -6.203125 25.796875 1.59375 
L 25.796875 59.796875 
Q 25.796875 69.40625 24.703125 74.703125 
z
M 59.09375 40 
Q 45 39.90625 37.40625 39 
L 37.40625 45.703125 
Q 45.296875 44.796875 59.59375 44.703125 
Q 60.203125 51.59375 60.203125 60.390625 
Q 60.203125 69.203125 59.09375 74.5 
Q 64.796875 73.59375 66.5 73.59375 
Q 68.203125 73.59375 68.203125 73.09375 
Q 68.203125 72.59375 67.59375 72 
Q 67 71.40625 66.5 69 
Q 66 66.59375 66 64.09375 
Q 65.796875 53.09375 65.203125 44.703125 
Q 83.296875 44.703125 92.203125 45.703125 
L 92.203125 39 
Q 83.59375 40 66.203125 40 
Q 68.59375 27.296875 77.25 13.640625 
Q 85.90625 0 95.796875 -7.09375 
Q 93.09375 -9.296875 90 -12.5 
Q 70.796875 6.90625 63.703125 32.40625 
Q 57.796875 4.59375 38 -13.09375 
Q 36.296875 -10.59375 33.09375 -8.59375 
Q 43.5 -1.5 50.296875 11.25 
Q 57.09375 24 59.09375 40 
z
M 88.40625 55.203125 
L 83.90625 50.703125 
Q 79.40625 57.296875 72.203125 63.203125 
L 76.09375 67.203125 
Q 82.90625 61.5 88.40625 55.203125 
z
M 22.09375 46.296875 
L 17.40625 42.703125 
Q 12.796875 50.703125 4.90625 59.09375 
L 8.90625 62.796875 
Q 16.703125 54.90625 22.09375 46.296875 
z
M 24.5 29 
Q 11.40625 11.90625 7.796875 5.796875 
Q 6.09375 9 2.40625 10.90625 
Q 12.703125 19.90625 20.40625 32.90625 
Q 21.703125 31.09375 24.5 29 
z
" id="STXihei-29366"/>
    </defs>
    <g transform="translate(312 51.6)scale(0.16 -0.16)">
     <use xlink:href="#STXihei-26080"/>
     <use x="99.999985" xlink:href="#STXihei-30151"/>
     <use x="199.999969" xlink:href="#STXihei-29366"/>
     <use x="299.999954" xlink:href="#STXihei-24863"/>
     <use x="399.999939" xlink:href="#STXihei-26579"/>
     <use x="499.999924" xlink:href="#STXihei-32773"/>
    </g>
   </g>
  </g>
  <g id="legend_1">
   <g id="line2d_27">
    <path d="M 120.48375 15.43125 
L 144.48375 15.43125 
" style="fill:none;stroke:#1f77b4;stroke-linecap:square;stroke-width:1.5;"/>
   </g>
   <g id="line2d_28"/>
   <g id="text_20">
    <!-- p = 0.1 -->
    <defs>
     <path d="M 7.703125 53.09375 
L 14.5 53.09375 
L 14.5 43.40625 
Q 22.59375 54.5 35.59375 54.5 
Q 46.796875 54.5 54.890625 46.25 
Q 63 38 63 26.5 
Q 63 14.796875 55 6.5 
Q 47 -1.796875 35.796875 -1.796875 
Q 23.59375 -1.796875 14.5 9.09375 
L 14.5 -19.40625 
L 7.703125 -19.40625 
z
M 56.203125 26.296875 
Q 56.203125 35.203125 50.046875 41.546875 
Q 43.90625 47.90625 35.09375 47.90625 
Q 26.09375 47.90625 20.046875 41.65625 
Q 14 35.40625 14 26.296875 
Q 14 17 20.203125 10.75 
Q 26.40625 4.5 35.203125 4.5 
Q 43.703125 4.5 49.953125 10.84375 
Q 56.203125 17.203125 56.203125 26.296875 
z
" id="STXihei-112"/>
     <path id="STXihei-32"/>
     <path d="M 55 50 
L 55 43.296875 
L 5.59375 43.296875 
L 5.59375 50 
z
M 55 28.5 
L 55 21.796875 
L 5.59375 21.796875 
L 5.59375 28.5 
z
" id="STXihei-61"/>
     <path d="M 9.09375 4.703125 
Q 9.09375 7.203125 10.890625 8.953125 
Q 12.703125 10.703125 15.09375 10.703125 
Q 17.59375 10.703125 19.34375 8.953125 
Q 21.09375 7.203125 21.09375 4.703125 
Q 21.09375 2.09375 19.34375 0.34375 
Q 17.59375 -1.40625 15.09375 -1.40625 
Q 12.703125 -1.40625 10.890625 0.390625 
Q 9.09375 2.203125 9.09375 4.703125 
z
" id="STXihei-46"/>
    </defs>
    <g transform="translate(154.08375 19.63125)scale(0.12 -0.12)">
     <use xlink:href="#STXihei-112"/>
     <use x="68.199982" xlink:href="#STXihei-32"/>
     <use x="93.199966" xlink:href="#STXihei-61"/>
     <use x="153.799957" xlink:href="#STXihei-32"/>
     <use x="178.799942" xlink:href="#STXihei-48"/>
     <use x="234.199936" xlink:href="#STXihei-46"/>
     <use x="261.899933" xlink:href="#STXihei-49"/>
    </g>
   </g>
   <g id="line2d_29">
    <path d="M 216.16125 15.43125 
L 240.16125 15.43125 
" style="fill:none;stroke:#ff7f0e;stroke-linecap:square;stroke-width:1.5;"/>
   </g>
   <g id="line2d_30"/>
   <g id="text_21">
    <!-- p = 0.5 -->
    <g transform="translate(249.76125 19.63125)scale(0.12 -0.12)">
     <use xlink:href="#STXihei-112"/>
     <use x="68.199982" xlink:href="#STXihei-32"/>
     <use x="93.199966" xlink:href="#STXihei-61"/>
     <use x="153.799957" xlink:href="#STXihei-32"/>
     <use x="178.799942" xlink:href="#STXihei-48"/>
     <use x="234.199936" xlink:href="#STXihei-46"/>
     <use x="261.899933" xlink:href="#STXihei-53"/>
    </g>
   </g>
   <g id="line2d_31">
    <path d="M 311.83875 15.43125 
L 335.83875 15.43125 
" style="fill:none;stroke:#2ca02c;stroke-linecap:square;stroke-width:1.5;"/>
   </g>
   <g id="line2d_32"/>
   <g id="text_22">
    <!-- p = 0.9 -->
    <defs>
     <path d="M 19.203125 -1.796875 
L 13.296875 2 
L 32.703125 31.40625 
Q 28.90625 30.09375 25.203125 30.09375 
Q 16.59375 30.09375 10.75 36.296875 
Q 4.90625 42.5 4.90625 51.5 
Q 4.90625 61 11.40625 67.296875 
Q 17.90625 73.59375 27.296875 73.59375 
Q 36.796875 73.59375 42.9375 67.140625 
Q 49.09375 60.703125 49.09375 51.703125 
Q 49.09375 46.703125 47.046875 41.640625 
Q 45 36.59375 41 30.703125 
z
M 11.90625 51.5 
Q 11.90625 45.203125 16.296875 40.796875 
Q 20.703125 36.40625 27 36.40625 
Q 33.296875 36.40625 37.6875 40.84375 
Q 42.09375 45.296875 42.09375 51.5 
Q 42.09375 57.703125 37.6875 62.140625 
Q 33.296875 66.59375 27 66.59375 
Q 20.703125 66.59375 16.296875 62.1875 
Q 11.90625 57.796875 11.90625 51.5 
z
" id="STXihei-57"/>
    </defs>
    <g transform="translate(345.43875 19.63125)scale(0.12 -0.12)">
     <use xlink:href="#STXihei-112"/>
     <use x="68.199982" xlink:href="#STXihei-32"/>
     <use x="93.199966" xlink:href="#STXihei-61"/>
     <use x="153.799957" xlink:href="#STXihei-32"/>
     <use x="178.799942" xlink:href="#STXihei-48"/>
     <use x="234.199936" xlink:href="#STXihei-46"/>
     <use x="261.899933" xlink:href="#STXihei-57"/>
    </g>
   </g>
  </g>
 </g>
 <defs>
  <clipPath id="pec74367878">
   <rect height="181.44" width="187.2" x="60.48" y="57.6"/>
  </clipPath>
  <clipPath id="p174085cbf1">
   <rect height="181.44" width="187.2" x="266.4" y="57.6"/>
  </clipPath>
 </defs>
</svg>
