<?xml version="1.0" encoding="utf-8" standalone="no"?>
<!DOCTYPE svg PUBLIC "-//W3C//DTD SVG 1.1//EN"
  "http://www.w3.org/Graphics/SVG/1.1/DTD/svg11.dtd">
<!-- Created with matplotlib (https://matplotlib.org/) -->
<svg height="360pt" version="1.1" viewBox="0 0 576 360" width="576pt" xmlns="http://www.w3.org/2000/svg" xmlns:xlink="http://www.w3.org/1999/xlink">
 <defs>
  <style type="text/css">
*{stroke-linecap:butt;stroke-linejoin:round;}
  </style>
 </defs>
 <g id="figure_1">
  <g id="patch_1">
   <path d="M 0 360 
L 576 360 
L 576 0 
L 0 0 
z
" style="fill:#ffffff;"/>
  </g>
  <g id="axes_1">
   <g id="patch_2">
    <path d="M 80.64 288 
L 547.2 288 
L 547.2 36 
L 80.64 36 
z
" style="fill:#ffffff;"/>
   </g>
   <g id="patch_3">
    <path clip-path="url(#p2d282e8d8a)" d="M 101.847273 288 
L 120.90999 288 
L 120.90999 260.015174 
L 101.847273 260.015174 
z
" style="fill:#db8231;"/>
   </g>
   <g id="patch_4">
    <path clip-path="url(#p2d282e8d8a)" d="M 125.675669 288 
L 144.738386 288 
L 144.738386 270.928033 
L 125.675669 270.928033 
z
" style="fill:#db8231;"/>
   </g>
   <g id="patch_5">
    <path clip-path="url(#p2d282e8d8a)" d="M 149.504065 288 
L 168.566782 288 
L 168.566782 273.095548 
L 149.504065 273.095548 
z
" style="fill:#db8231;"/>
   </g>
   <g id="patch_6">
    <path clip-path="url(#p2d282e8d8a)" d="M 173.332462 288 
L 192.395179 288 
L 192.395179 256.266472 
L 173.332462 256.266472 
z
" style="fill:#db8231;"/>
   </g>
   <g id="patch_7">
    <path clip-path="url(#p2d282e8d8a)" d="M 197.160858 288 
L 216.223575 288 
L 216.223575 196.24035 
L 197.160858 196.24035 
z
" style="fill:#db8231;"/>
   </g>
   <g id="patch_8">
    <path clip-path="url(#p2d282e8d8a)" d="M 220.989254 288 
L 240.051971 288 
L 240.051971 192.228845 
L 220.989254 192.228845 
z
" style="fill:#db8231;"/>
   </g>
   <g id="patch_9">
    <path clip-path="url(#p2d282e8d8a)" d="M 244.817651 288 
L 263.880368 288 
L 263.880368 211.987553 
L 244.817651 211.987553 
z
" style="fill:#db8231;"/>
   </g>
   <g id="patch_10">
    <path clip-path="url(#p2d282e8d8a)" d="M 268.646047 288 
L 287.708764 288 
L 287.708764 218.593131 
L 268.646047 218.593131 
z
" style="fill:#db8231;"/>
   </g>
   <g id="patch_11">
    <path clip-path="url(#p2d282e8d8a)" d="M 292.474443 288 
L 311.53716 288 
L 311.53716 220.001656 
L 292.474443 220.001656 
z
" style="fill:#db8231;"/>
   </g>
   <g id="patch_12">
    <path clip-path="url(#p2d282e8d8a)" d="M 316.30284 288 
L 335.365557 288 
L 335.365557 221.895962 
L 316.30284 221.895962 
z
" style="fill:#db8231;"/>
   </g>
   <g id="patch_13">
    <path clip-path="url(#p2d282e8d8a)" d="M 340.131236 288 
L 359.193953 288 
L 359.193953 213.926823 
L 340.131236 213.926823 
z
" style="fill:#db8231;"/>
   </g>
   <g id="patch_14">
    <path clip-path="url(#p2d282e8d8a)" d="M 363.959632 288 
L 383.022349 288 
L 383.022349 214.503346 
L 363.959632 214.503346 
z
" style="fill:#db8231;"/>
   </g>
   <g id="patch_15">
    <path clip-path="url(#p2d282e8d8a)" d="M 387.788029 288 
L 406.850746 288 
L 406.850746 257.03651 
L 387.788029 257.03651 
z
" style="fill:#db8231;"/>
   </g>
   <g id="patch_16">
    <path clip-path="url(#p2d282e8d8a)" d="M 411.616425 288 
L 430.679142 288 
L 430.679142 269.848001 
L 411.616425 269.848001 
z
" style="fill:#db8231;"/>
   </g>
   <g id="patch_17">
    <path clip-path="url(#p2d282e8d8a)" d="M 435.444821 288 
L 454.507538 288 
L 454.507538 273.305123 
L 435.444821 273.305123 
z
" style="fill:#db8231;"/>
   </g>
   <g id="patch_18">
    <path clip-path="url(#p2d282e8d8a)" d="M 459.273218 288 
L 478.335935 288 
L 478.335935 272.187621 
L 459.273218 272.187621 
z
" style="fill:#db8231;"/>
   </g>
   <g id="patch_19">
    <path clip-path="url(#p2d282e8d8a)" d="M 483.101614 288 
L 502.164331 288 
L 502.164331 278.277313 
L 483.101614 278.277313 
z
" style="fill:#db8231;"/>
   </g>
   <g id="patch_20">
    <path clip-path="url(#p2d282e8d8a)" d="M 506.93001 288 
L 525.992727 288 
L 525.992727 277.950233 
L 506.93001 277.950233 
z
" style="fill:#db8231;"/>
   </g>
   <g id="patch_21">
    <path clip-path="url(#p2d282e8d8a)" d="M 101.847273 260.015174 
L 120.90999 260.015174 
L 120.90999 210.996164 
L 101.847273 210.996164 
z
" style="fill:#4c92c3;"/>
   </g>
   <g id="patch_22">
    <path clip-path="url(#p2d282e8d8a)" d="M 125.675669 270.928033 
L 144.738386 270.928033 
L 144.738386 227.530021 
L 125.675669 227.530021 
z
" style="fill:#4c92c3;"/>
   </g>
   <g id="patch_23">
    <path clip-path="url(#p2d282e8d8a)" d="M 149.504065 273.095548 
L 168.566782 273.095548 
L 168.566782 233.422428 
L 149.504065 233.422428 
z
" style="fill:#4c92c3;"/>
   </g>
   <g id="patch_24">
    <path clip-path="url(#p2d282e8d8a)" d="M 173.332462 256.266472 
L 192.395179 256.266472 
L 192.395179 182.065126 
L 173.332462 182.065126 
z
" style="fill:#4c92c3;"/>
   </g>
   <g id="patch_25">
    <path clip-path="url(#p2d282e8d8a)" d="M 197.160858 196.24035 
L 216.223575 196.24035 
L 216.223575 59.065394 
L 197.160858 59.065394 
z
" style="fill:#4c92c3;"/>
   </g>
   <g id="patch_26">
    <path clip-path="url(#p2d282e8d8a)" d="M 220.989254 192.228845 
L 240.051971 192.228845 
L 240.051971 48 
L 220.989254 48 
z
" style="fill:#4c92c3;"/>
   </g>
   <g id="patch_27">
    <path clip-path="url(#p2d282e8d8a)" d="M 244.817651 211.987553 
L 263.880368 211.987553 
L 263.880368 89.722188 
L 244.817651 89.722188 
z
" style="fill:#4c92c3;"/>
   </g>
   <g id="patch_28">
    <path clip-path="url(#p2d282e8d8a)" d="M 268.646047 218.593131 
L 287.708764 218.593131 
L 287.708764 105.58801 
L 268.646047 105.58801 
z
" style="fill:#4c92c3;"/>
   </g>
   <g id="patch_29">
    <path clip-path="url(#p2d282e8d8a)" d="M 292.474443 220.001656 
L 311.53716 220.001656 
L 311.53716 108.898207 
L 292.474443 108.898207 
z
" style="fill:#4c92c3;"/>
   </g>
   <g id="patch_30">
    <path clip-path="url(#p2d282e8d8a)" d="M 316.30284 221.895962 
L 335.365557 221.895962 
L 335.365557 117.008832 
L 316.30284 117.008832 
z
" style="fill:#4c92c3;"/>
   </g>
   <g id="patch_31">
    <path clip-path="url(#p2d282e8d8a)" d="M 340.131236 213.926823 
L 359.193953 213.926823 
L 359.193953 120.969935 
L 340.131236 120.969935 
z
" style="fill:#4c92c3;"/>
   </g>
   <g id="patch_32">
    <path clip-path="url(#p2d282e8d8a)" d="M 363.959632 214.503346 
L 383.022349 214.503346 
L 383.022349 128.836471 
L 363.959632 128.836471 
z
" style="fill:#4c92c3;"/>
   </g>
   <g id="patch_33">
    <path clip-path="url(#p2d282e8d8a)" d="M 387.788029 257.03651 
L 406.850746 257.03651 
L 406.850746 182.604693 
L 387.788029 182.604693 
z
" style="fill:#4c92c3;"/>
   </g>
   <g id="patch_34">
    <path clip-path="url(#p2d282e8d8a)" d="M 411.616425 269.848001 
L 430.679142 269.848001 
L 430.679142 227.628513 
L 411.616425 227.628513 
z
" style="fill:#4c92c3;"/>
   </g>
   <g id="patch_35">
    <path clip-path="url(#p2d282e8d8a)" d="M 435.444821 273.305123 
L 454.507538 273.305123 
L 454.507538 242.059773 
L 435.444821 242.059773 
z
" style="fill:#4c92c3;"/>
   </g>
   <g id="patch_36">
    <path clip-path="url(#p2d282e8d8a)" d="M 459.273218 272.187621 
L 478.335935 272.187621 
L 478.335935 241.901329 
L 459.273218 241.901329 
z
" style="fill:#4c92c3;"/>
   </g>
   <g id="patch_37">
    <path clip-path="url(#p2d282e8d8a)" d="M 483.101614 278.277313 
L 502.164331 278.277313 
L 502.164331 259.985369 
L 483.101614 259.985369 
z
" style="fill:#4c92c3;"/>
   </g>
   <g id="patch_38">
    <path clip-path="url(#p2d282e8d8a)" d="M 506.93001 277.950233 
L 525.992727 277.950233 
L 525.992727 258.709251 
L 506.93001 258.709251 
z
" style="fill:#4c92c3;"/>
   </g>
   <g id="matplotlib.axis_1">
    <g id="xtick_1">
     <g id="line2d_1">
      <defs>
       <path d="M 0 0 
L 0 3.5 
" id="mce6147bd2c" style="stroke:#000000;stroke-width:0.8;"/>
      </defs>
      <g>
       <use style="stroke:#000000;stroke-width:0.8;" x="111.378631" xlink:href="#mce6147bd2c" y="288"/>
      </g>
     </g>
     <g id="text_1">
      <!-- 0-4 -->
      <defs>
       <path d="M 27.296875 -1.796875 
Q 15.703125 -1.796875 9.453125 7.75 
Q 3.203125 17.296875 3.203125 35.90625 
Q 3.203125 54.5 9.453125 64.046875 
Q 15.703125 73.59375 27.296875 73.59375 
Q 38.703125 73.59375 45.453125 63.84375 
Q 52.203125 54.09375 52.203125 35.90625 
Q 52.203125 17.703125 45.390625 7.953125 
Q 38.59375 -1.796875 27.296875 -1.796875 
z
M 27.5 66.796875 
Q 19.203125 66.796875 14.59375 58.796875 
Q 10 50.796875 10 35.703125 
Q 10 4.703125 27.5 4.703125 
Q 36 4.703125 40.75 12.84375 
Q 45.5 21 45.5 35.703125 
Q 45.5 50.796875 40.59375 58.796875 
Q 35.703125 66.796875 27.5 66.796875 
z
" id="STXihei-48"/>
       <path d="M 3.203125 30 
L 30 30 
L 30 24 
L 3.203125 24 
z
" id="STXihei-45"/>
       <path d="M 42.59375 73.59375 
L 44 73.59375 
L 44 23.59375 
L 52.703125 23.59375 
L 52.703125 16.703125 
L 44 16.703125 
L 44 0 
L 36.90625 0 
L 36.90625 16.703125 
L 2.5 16.703125 
z
M 36.90625 23.59375 
L 36.90625 53.5 
L 15.703125 23.59375 
z
" id="STXihei-52"/>
      </defs>
      <g transform="translate(110.124628 311.151806)rotate(-60)scale(0.1 -0.1)">
       <use xlink:href="#STXihei-48"/>
       <use x="55.399994" xlink:href="#STXihei-45"/>
       <use x="88.599991" xlink:href="#STXihei-52"/>
      </g>
     </g>
    </g>
    <g id="xtick_2">
     <g id="line2d_2">
      <g>
       <use style="stroke:#000000;stroke-width:0.8;" x="135.207028" xlink:href="#mce6147bd2c" y="288"/>
      </g>
     </g>
     <g id="text_2">
      <!-- 5-9 -->
      <defs>
       <path d="M 49.203125 71.796875 
L 49.203125 65 
L 23.59375 65 
L 20 45.40625 
Q 24.796875 46.796875 29 46.796875 
Q 38.40625 46.796875 44.703125 40.140625 
Q 51 33.5 51 23.296875 
Q 51 12.703125 44.140625 5.453125 
Q 37.296875 -1.796875 26 -1.796875 
Q 17.40625 -1.796875 11.34375 3.34375 
Q 5.296875 8.5 4.09375 17.40625 
L 11.40625 17.40625 
Q 12.703125 11.40625 16.796875 8.203125 
Q 20.90625 5 26.296875 5 
Q 33.40625 5 38.546875 10.296875 
Q 43.703125 15.59375 43.703125 23.5 
Q 43.703125 30.703125 39.203125 35.34375 
Q 34.703125 40 27 40 
Q 20.203125 40 11.40625 36.203125 
L 18.09375 71.796875 
z
" id="STXihei-53"/>
       <path d="M 19.203125 -1.796875 
L 13.296875 2 
L 32.703125 31.40625 
Q 28.90625 30.09375 25.203125 30.09375 
Q 16.59375 30.09375 10.75 36.296875 
Q 4.90625 42.5 4.90625 51.5 
Q 4.90625 61 11.40625 67.296875 
Q 17.90625 73.59375 27.296875 73.59375 
Q 36.796875 73.59375 42.9375 67.140625 
Q 49.09375 60.703125 49.09375 51.703125 
Q 49.09375 46.703125 47.046875 41.640625 
Q 45 36.59375 41 30.703125 
z
M 11.90625 51.5 
Q 11.90625 45.203125 16.296875 40.796875 
Q 20.703125 36.40625 27 36.40625 
Q 33.296875 36.40625 37.6875 40.84375 
Q 42.09375 45.296875 42.09375 51.5 
Q 42.09375 57.703125 37.6875 62.140625 
Q 33.296875 66.59375 27 66.59375 
Q 20.703125 66.59375 16.296875 62.1875 
Q 11.90625 57.796875 11.90625 51.5 
z
" id="STXihei-57"/>
      </defs>
      <g transform="translate(133.953025 311.151806)rotate(-60)scale(0.1 -0.1)">
       <use xlink:href="#STXihei-53"/>
       <use x="55.399994" xlink:href="#STXihei-45"/>
       <use x="88.599991" xlink:href="#STXihei-57"/>
      </g>
     </g>
    </g>
    <g id="xtick_3">
     <g id="line2d_3">
      <g>
       <use style="stroke:#000000;stroke-width:0.8;" x="159.035424" xlink:href="#mce6147bd2c" y="288"/>
      </g>
     </g>
     <g id="text_3">
      <!-- 10-14 -->
      <defs>
       <path d="M 18.5 71.796875 
L 32.59375 71.796875 
L 32.59375 0 
L 25.5 0 
L 25.5 64.796875 
L 14.203125 64.796875 
z
" id="STXihei-49"/>
      </defs>
      <g transform="translate(155.011108 320.74845)rotate(-60)scale(0.1 -0.1)">
       <use xlink:href="#STXihei-49"/>
       <use x="55.399994" xlink:href="#STXihei-48"/>
       <use x="110.799988" xlink:href="#STXihei-45"/>
       <use x="143.999985" xlink:href="#STXihei-49"/>
       <use x="199.399979" xlink:href="#STXihei-52"/>
      </g>
     </g>
    </g>
    <g id="xtick_4">
     <g id="line2d_4">
      <g>
       <use style="stroke:#000000;stroke-width:0.8;" x="182.86382" xlink:href="#mce6147bd2c" y="288"/>
      </g>
     </g>
     <g id="text_4">
      <!-- 15-19 -->
      <g transform="translate(178.839505 320.74845)rotate(-60)scale(0.1 -0.1)">
       <use xlink:href="#STXihei-49"/>
       <use x="55.399994" xlink:href="#STXihei-53"/>
       <use x="110.799988" xlink:href="#STXihei-45"/>
       <use x="143.999985" xlink:href="#STXihei-49"/>
       <use x="199.399979" xlink:href="#STXihei-57"/>
      </g>
     </g>
    </g>
    <g id="xtick_5">
     <g id="line2d_5">
      <g>
       <use style="stroke:#000000;stroke-width:0.8;" x="206.692217" xlink:href="#mce6147bd2c" y="288"/>
      </g>
     </g>
     <g id="text_5">
      <!-- 20-24 -->
      <defs>
       <path d="M 11.59375 49.296875 
L 4.703125 49.296875 
Q 5.203125 60.296875 12 66.9375 
Q 18.796875 73.59375 28.59375 73.59375 
Q 38.09375 73.59375 44.4375 67.34375 
Q 50.796875 61.09375 50.796875 52.09375 
Q 50.796875 45.40625 47.25 39.703125 
Q 43.703125 34 36.5 26.203125 
L 18.59375 6.90625 
L 51.796875 6.90625 
L 51.796875 0 
L 3 0 
L 30.40625 29.59375 
Q 37.59375 37.40625 40.6875 41.90625 
Q 43.796875 46.40625 43.796875 52 
Q 43.796875 58 39.25 62.390625 
Q 34.703125 66.796875 28.203125 66.796875 
Q 21.203125 66.796875 16.75 62.25 
Q 12.296875 57.703125 11.59375 49.296875 
z
" id="STXihei-50"/>
      </defs>
      <g transform="translate(202.667901 320.74845)rotate(-60)scale(0.1 -0.1)">
       <use xlink:href="#STXihei-50"/>
       <use x="55.399994" xlink:href="#STXihei-48"/>
       <use x="110.799988" xlink:href="#STXihei-45"/>
       <use x="143.999985" xlink:href="#STXihei-50"/>
       <use x="199.399979" xlink:href="#STXihei-52"/>
      </g>
     </g>
    </g>
    <g id="xtick_6">
     <g id="line2d_6">
      <g>
       <use style="stroke:#000000;stroke-width:0.8;" x="230.520613" xlink:href="#mce6147bd2c" y="288"/>
      </g>
     </g>
     <g id="text_6">
      <!-- 25-29 -->
      <g transform="translate(226.496297 320.74845)rotate(-60)scale(0.1 -0.1)">
       <use xlink:href="#STXihei-50"/>
       <use x="55.399994" xlink:href="#STXihei-53"/>
       <use x="110.799988" xlink:href="#STXihei-45"/>
       <use x="143.999985" xlink:href="#STXihei-50"/>
       <use x="199.399979" xlink:href="#STXihei-57"/>
      </g>
     </g>
    </g>
    <g id="xtick_7">
     <g id="line2d_7">
      <g>
       <use style="stroke:#000000;stroke-width:0.8;" x="254.349009" xlink:href="#mce6147bd2c" y="288"/>
      </g>
     </g>
     <g id="text_7">
      <!-- 30-34 -->
      <defs>
       <path d="M 13.203125 55.203125 
L 5.90625 55.203125 
Q 7.90625 64.09375 13.546875 68.84375 
Q 19.203125 73.59375 27 73.59375 
Q 35.5 73.59375 41.546875 68.1875 
Q 47.59375 62.796875 47.59375 55.09375 
Q 47.59375 45.796875 38.40625 40.40625 
Q 44.703125 37.796875 48.140625 32.640625 
Q 51.59375 27.5 51.59375 21.40625 
Q 51.59375 11.90625 44.640625 5.046875 
Q 37.703125 -1.796875 27.09375 -1.796875 
Q 17.703125 -1.796875 11.59375 3.546875 
Q 5.5 8.90625 3.5 19.203125 
L 10.5 19.203125 
Q 12.40625 12.09375 16.34375 8.640625 
Q 20.296875 5.203125 27.203125 5.203125 
Q 34.703125 5.203125 39.59375 9.796875 
Q 44.5 14.40625 44.5 20.796875 
Q 44.5 28 39.09375 32.140625 
Q 33.703125 36.296875 23.40625 36.5 
L 23.40625 43.09375 
Q 30.796875 43.09375 35.4375 46.5 
Q 40.09375 49.90625 40.09375 55.09375 
Q 40.09375 60 36.34375 63.34375 
Q 32.59375 66.703125 27 66.703125 
Q 22 66.703125 18.75 63.84375 
Q 15.5 61 13.203125 55.203125 
z
" id="STXihei-51"/>
      </defs>
      <g transform="translate(250.324694 320.74845)rotate(-60)scale(0.1 -0.1)">
       <use xlink:href="#STXihei-51"/>
       <use x="55.399994" xlink:href="#STXihei-48"/>
       <use x="110.799988" xlink:href="#STXihei-45"/>
       <use x="143.999985" xlink:href="#STXihei-51"/>
       <use x="199.399979" xlink:href="#STXihei-52"/>
      </g>
     </g>
    </g>
    <g id="xtick_8">
     <g id="line2d_8">
      <g>
       <use style="stroke:#000000;stroke-width:0.8;" x="278.177406" xlink:href="#mce6147bd2c" y="288"/>
      </g>
     </g>
     <g id="text_8">
      <!-- 35-39 -->
      <g transform="translate(274.15309 320.74845)rotate(-60)scale(0.1 -0.1)">
       <use xlink:href="#STXihei-51"/>
       <use x="55.399994" xlink:href="#STXihei-53"/>
       <use x="110.799988" xlink:href="#STXihei-45"/>
       <use x="143.999985" xlink:href="#STXihei-51"/>
       <use x="199.399979" xlink:href="#STXihei-57"/>
      </g>
     </g>
    </g>
    <g id="xtick_9">
     <g id="line2d_9">
      <g>
       <use style="stroke:#000000;stroke-width:0.8;" x="302.005802" xlink:href="#mce6147bd2c" y="288"/>
      </g>
     </g>
     <g id="text_9">
      <!-- 40-44 -->
      <g transform="translate(297.981486 320.74845)rotate(-60)scale(0.1 -0.1)">
       <use xlink:href="#STXihei-52"/>
       <use x="55.399994" xlink:href="#STXihei-48"/>
       <use x="110.799988" xlink:href="#STXihei-45"/>
       <use x="143.999985" xlink:href="#STXihei-52"/>
       <use x="199.399979" xlink:href="#STXihei-52"/>
      </g>
     </g>
    </g>
    <g id="xtick_10">
     <g id="line2d_10">
      <g>
       <use style="stroke:#000000;stroke-width:0.8;" x="325.834198" xlink:href="#mce6147bd2c" y="288"/>
      </g>
     </g>
     <g id="text_10">
      <!-- 45-49 -->
      <g transform="translate(321.809883 320.74845)rotate(-60)scale(0.1 -0.1)">
       <use xlink:href="#STXihei-52"/>
       <use x="55.399994" xlink:href="#STXihei-53"/>
       <use x="110.799988" xlink:href="#STXihei-45"/>
       <use x="143.999985" xlink:href="#STXihei-52"/>
       <use x="199.399979" xlink:href="#STXihei-57"/>
      </g>
     </g>
    </g>
    <g id="xtick_11">
     <g id="line2d_11">
      <g>
       <use style="stroke:#000000;stroke-width:0.8;" x="349.662594" xlink:href="#mce6147bd2c" y="288"/>
      </g>
     </g>
     <g id="text_11">
      <!-- 50-54 -->
      <g transform="translate(345.638279 320.74845)rotate(-60)scale(0.1 -0.1)">
       <use xlink:href="#STXihei-53"/>
       <use x="55.399994" xlink:href="#STXihei-48"/>
       <use x="110.799988" xlink:href="#STXihei-45"/>
       <use x="143.999985" xlink:href="#STXihei-53"/>
       <use x="199.399979" xlink:href="#STXihei-52"/>
      </g>
     </g>
    </g>
    <g id="xtick_12">
     <g id="line2d_12">
      <g>
       <use style="stroke:#000000;stroke-width:0.8;" x="373.490991" xlink:href="#mce6147bd2c" y="288"/>
      </g>
     </g>
     <g id="text_12">
      <!-- 55-59 -->
      <g transform="translate(369.466675 320.74845)rotate(-60)scale(0.1 -0.1)">
       <use xlink:href="#STXihei-53"/>
       <use x="55.399994" xlink:href="#STXihei-53"/>
       <use x="110.799988" xlink:href="#STXihei-45"/>
       <use x="143.999985" xlink:href="#STXihei-53"/>
       <use x="199.399979" xlink:href="#STXihei-57"/>
      </g>
     </g>
    </g>
    <g id="xtick_13">
     <g id="line2d_13">
      <g>
       <use style="stroke:#000000;stroke-width:0.8;" x="397.319387" xlink:href="#mce6147bd2c" y="288"/>
      </g>
     </g>
     <g id="text_13">
      <!-- 60-64 -->
      <defs>
       <path d="M 36.703125 73.59375 
L 42.59375 69.796875 
L 23.203125 40.40625 
Q 27.296875 41.796875 31 41.796875 
Q 39 41.796875 45 35.4375 
Q 51 29.09375 51 20.09375 
Q 51 10.796875 44.453125 4.5 
Q 37.90625 -1.796875 28.5 -1.796875 
Q 19.203125 -1.796875 12.953125 4.59375 
Q 6.703125 11 6.703125 20.203125 
Q 6.703125 24.59375 8.390625 29.25 
Q 10.09375 33.90625 14.90625 41.09375 
z
M 43.90625 20.296875 
Q 43.90625 26.59375 39.5 31 
Q 35.09375 35.40625 28.796875 35.40625 
Q 22.5 35.40625 18.09375 31 
Q 13.703125 26.59375 13.703125 20.296875 
Q 13.703125 14 18.140625 9.59375 
Q 22.59375 5.203125 28.796875 5.203125 
Q 35 5.203125 39.453125 9.59375 
Q 43.90625 14 43.90625 20.296875 
z
" id="STXihei-54"/>
      </defs>
      <g transform="translate(393.295072 320.74845)rotate(-60)scale(0.1 -0.1)">
       <use xlink:href="#STXihei-54"/>
       <use x="55.399994" xlink:href="#STXihei-48"/>
       <use x="110.799988" xlink:href="#STXihei-45"/>
       <use x="143.999985" xlink:href="#STXihei-54"/>
       <use x="199.399979" xlink:href="#STXihei-52"/>
      </g>
     </g>
    </g>
    <g id="xtick_14">
     <g id="line2d_14">
      <g>
       <use style="stroke:#000000;stroke-width:0.8;" x="421.147783" xlink:href="#mce6147bd2c" y="288"/>
      </g>
     </g>
     <g id="text_14">
      <!-- 65-69 -->
      <g transform="translate(417.123468 320.74845)rotate(-60)scale(0.1 -0.1)">
       <use xlink:href="#STXihei-54"/>
       <use x="55.399994" xlink:href="#STXihei-53"/>
       <use x="110.799988" xlink:href="#STXihei-45"/>
       <use x="143.999985" xlink:href="#STXihei-54"/>
       <use x="199.399979" xlink:href="#STXihei-57"/>
      </g>
     </g>
    </g>
    <g id="xtick_15">
     <g id="line2d_15">
      <g>
       <use style="stroke:#000000;stroke-width:0.8;" x="444.97618" xlink:href="#mce6147bd2c" y="288"/>
      </g>
     </g>
     <g id="text_15">
      <!-- 70-74 -->
      <defs>
       <path d="M 7.203125 71.796875 
L 52.703125 71.796875 
L 14.296875 -1.796875 
L 8.40625 1.203125 
L 41.59375 65 
L 7.203125 65 
z
" id="STXihei-55"/>
      </defs>
      <g transform="translate(440.951864 320.74845)rotate(-60)scale(0.1 -0.1)">
       <use xlink:href="#STXihei-55"/>
       <use x="55.399994" xlink:href="#STXihei-48"/>
       <use x="110.799988" xlink:href="#STXihei-45"/>
       <use x="143.999985" xlink:href="#STXihei-55"/>
       <use x="199.399979" xlink:href="#STXihei-52"/>
      </g>
     </g>
    </g>
    <g id="xtick_16">
     <g id="line2d_16">
      <g>
       <use style="stroke:#000000;stroke-width:0.8;" x="468.804576" xlink:href="#mce6147bd2c" y="288"/>
      </g>
     </g>
     <g id="text_16">
      <!-- 75-79 -->
      <g transform="translate(464.780261 320.74845)rotate(-60)scale(0.1 -0.1)">
       <use xlink:href="#STXihei-55"/>
       <use x="55.399994" xlink:href="#STXihei-53"/>
       <use x="110.799988" xlink:href="#STXihei-45"/>
       <use x="143.999985" xlink:href="#STXihei-55"/>
       <use x="199.399979" xlink:href="#STXihei-57"/>
      </g>
     </g>
    </g>
    <g id="xtick_17">
     <g id="line2d_17">
      <g>
       <use style="stroke:#000000;stroke-width:0.8;" x="492.632972" xlink:href="#mce6147bd2c" y="288"/>
      </g>
     </g>
     <g id="text_17">
      <!-- 80-84 -->
      <defs>
       <path d="M 38.40625 39.40625 
Q 52 32.703125 52 20.59375 
Q 52 11 45.25 4.59375 
Q 38.5 -1.796875 27.59375 -1.796875 
Q 16.59375 -1.796875 10 4.59375 
Q 3.40625 11 3.40625 20 
Q 3.40625 32.59375 17.296875 39.40625 
Q 6.796875 45 6.796875 54.90625 
Q 6.796875 62.296875 12.9375 67.9375 
Q 19.09375 73.59375 28.09375 73.59375 
Q 36.5 73.59375 42.59375 68.09375 
Q 48.703125 62.59375 48.703125 54.703125 
Q 48.703125 45.09375 38.40625 39.40625 
z
M 41.5 55 
Q 41.5 59.796875 37.75 63.25 
Q 34 66.703125 27.703125 66.703125 
Q 21.90625 66.703125 18 63.25 
Q 14.09375 59.796875 14.09375 54.796875 
Q 14.09375 50 18.34375 46.140625 
Q 22.59375 42.296875 28 42.296875 
Q 33.40625 42.296875 37.453125 46.09375 
Q 41.5 49.90625 41.5 55 
z
M 44.796875 20.5 
Q 44.796875 26.59375 39.84375 31.1875 
Q 34.90625 35.796875 28.09375 35.796875 
Q 20.796875 35.796875 15.6875 31.046875 
Q 10.59375 26.296875 10.59375 19.796875 
Q 10.59375 13.40625 15.296875 9.203125 
Q 20 5 27.703125 5 
Q 35.203125 5 40 9.5 
Q 44.796875 14 44.796875 20.5 
z
" id="STXihei-56"/>
      </defs>
      <g transform="translate(488.608657 320.74845)rotate(-60)scale(0.1 -0.1)">
       <use xlink:href="#STXihei-56"/>
       <use x="55.399994" xlink:href="#STXihei-48"/>
       <use x="110.799988" xlink:href="#STXihei-45"/>
       <use x="143.999985" xlink:href="#STXihei-56"/>
       <use x="199.399979" xlink:href="#STXihei-52"/>
      </g>
     </g>
    </g>
    <g id="xtick_18">
     <g id="line2d_18">
      <g>
       <use style="stroke:#000000;stroke-width:0.8;" x="516.461369" xlink:href="#mce6147bd2c" y="288"/>
      </g>
     </g>
     <g id="text_18">
      <!-- 85+ -->
      <defs>
       <path d="M 27 39.296875 
L 27 60.40625 
L 33.59375 60.40625 
L 33.59375 39.296875 
L 55 39.296875 
L 55 32.59375 
L 33.59375 32.59375 
L 33.59375 11.40625 
L 27 11.40625 
L 27 32.59375 
L 5.59375 32.59375 
L 5.59375 39.296875 
z
" id="STXihei-43"/>
      </defs>
      <g transform="translate(514.5226 313.523904)rotate(-60)scale(0.1 -0.1)">
       <use xlink:href="#STXihei-56"/>
       <use x="55.399994" xlink:href="#STXihei-53"/>
       <use x="110.799988" xlink:href="#STXihei-43"/>
      </g>
     </g>
    </g>
    <g id="text_19">
     <!-- 年龄组 -->
     <defs>
      <path d="M 30.59375 64.09375 
Q 65.09375 64.09375 74.296875 64.34375 
Q 83.5 64.59375 89.5 65.59375 
L 89.5 58.40625 
Q 87.796875 59 57.296875 59 
L 57.296875 44.5 
Q 76.703125 44.5 82.90625 45.09375 
L 82.90625 39 
Q 77.703125 39.40625 57.296875 39.40625 
L 57.296875 19.40625 
Q 79.90625 19.40625 94.203125 20.203125 
L 94.203125 13.59375 
Q 79.703125 14.40625 57.296875 14.40625 
L 57.296875 0.59375 
Q 57.296875 -7.296875 58.203125 -16.296875 
L 50 -16.296875 
Q 50.90625 -7.296875 50.90625 0.59375 
L 50.90625 14.40625 
Q 17.296875 14.40625 5.703125 13.59375 
L 5.703125 20.203125 
Q 12.59375 19.703125 23 19.59375 
L 23 32.5 
Q 23 40.59375 22.296875 45.09375 
Q 30.796875 44.5 50.90625 44.5 
L 50.90625 59 
L 27.203125 59 
Q 20.203125 49 14.296875 42.703125 
Q 11.703125 45.5 8.40625 46.90625 
Q 23.296875 59.296875 30.09375 76.90625 
Q 32.296875 74.296875 36.296875 73 
Q 37.296875 72.703125 37.296875 71.640625 
Q 37.296875 70.59375 36.34375 70.5 
Q 35.40625 70.40625 34.453125 69.40625 
Q 33.5 68.40625 30.59375 64.09375 
z
M 50.90625 39.40625 
L 29.5 39.40625 
L 29.5 19.40625 
L 50.90625 19.40625 
z
" id="STXihei-24180"/>
      <path d="M 69.5 65 
Q 67 57.296875 61.640625 48.390625 
Q 56.296875 39.5 50.203125 33 
Q 48.09375 35.90625 44.203125 37 
Q 52.5 42.40625 58.890625 53.90625 
Q 65.296875 65.40625 66.796875 77.203125 
Q 70.09375 75.40625 73.59375 75.09375 
Q 75.203125 74.90625 75.203125 74.25 
Q 75.203125 73.59375 73.890625 73.046875 
Q 72.59375 72.5 71.703125 71.09375 
Q 75.59375 61.59375 82.796875 52.34375 
Q 90 43.09375 97.703125 38.09375 
Q 94.296875 35.59375 92.796875 32.703125 
Q 79.90625 44.40625 69.5 65 
z
M 33.203125 57.40625 
L 33.203125 45.90625 
Q 42.40625 45.90625 46.90625 46.796875 
L 46.90625 40.5 
Q 42.796875 41.40625 25.1875 41.40625 
Q 7.59375 41.40625 3.90625 40.5 
L 3.90625 46.796875 
Q 7.90625 45.90625 13.703125 45.90625 
L 13.703125 58.5 
Q 13.703125 64.796875 12.796875 68.203125 
Q 15.40625 67.40625 20.703125 67.40625 
Q 21.703125 67.40625 21.703125 67 
Q 21.703125 66.59375 20.5 65.75 
Q 19.296875 64.90625 19.296875 62.5 
L 19.296875 45.90625 
L 27.703125 45.90625 
L 27.703125 66 
Q 27.703125 71.703125 26.796875 76 
Q 29.59375 75.703125 34.703125 75.703125 
Q 35.703125 75.703125 35.703125 75.25 
Q 35.703125 74.796875 34.796875 74.09375 
Q 33.203125 72.703125 33.203125 70.90625 
L 33.203125 62.09375 
Q 46 62.09375 49.09375 62.703125 
L 49.09375 56.90625 
Q 46.703125 57.40625 33.203125 57.40625 
z
M 78.5 33.296875 
L 74 29.796875 
Q 68.796875 37.90625 62.40625 42.703125 
L 66.203125 46.59375 
Q 72.796875 40.703125 78.5 33.296875 
z
M 27 21.5 
Q 23.09375 10.09375 18.703125 2.796875 
Q 16.59375 4.59375 14.296875 5.09375 
L 14.296875 -1.5 
L 40.703125 0.5 
L 40.703125 22.59375 
Q 40.703125 29 39.703125 33.296875 
Q 43.5 32.59375 47.296875 32.59375 
Q 48.796875 32.59375 48.796875 32 
Q 48.796875 31.40625 48 30.796875 
Q 47.203125 30.203125 46.84375 29.59375 
Q 46.5 29 46.5 27.5 
L 46.5 -2.703125 
Q 46.5 -9.09375 47.09375 -13.40625 
L 40.703125 -13.40625 
L 40.703125 -4.5 
L 19.40625 -6.203125 
Q 12.5 -6.703125 7.59375 -7.703125 
Q 8.796875 -2.796875 8.796875 2.40625 
L 8.796875 23.296875 
Q 8.796875 30.703125 7.90625 34.59375 
Q 10.5 34 12.90625 34 
L 15.203125 34.09375 
Q 16.203125 34.09375 16.203125 33.59375 
Q 16.203125 33.09375 15.25 32.390625 
Q 14.296875 31.703125 14.296875 28.59375 
L 14.296875 6.90625 
Q 19 13.296875 21.640625 20.5 
Q 24.296875 27.703125 26.09375 38.59375 
Q 29 37 32.40625 36.203125 
Q 33.59375 35.90625 33.59375 35.09375 
Q 33.59375 34.296875 32.1875 33.546875 
Q 30.796875 32.796875 28.296875 25.5 
Q 35.40625 17.09375 39.703125 10.296875 
L 35.296875 7.203125 
Q 31.703125 14.90625 27 21.5 
z
M 66.59375 1.09375 
L 81.40625 20.90625 
L 72.796875 21 
Q 59.796875 21.09375 51 20.09375 
L 51 27.09375 
Q 60.09375 26.09375 71.796875 26.09375 
Q 83.5 26.09375 90.5 27.09375 
L 90.5 21 
Q 87.796875 20.203125 82.6875 13.796875 
Q 77.59375 7.40625 70.703125 -2.40625 
L 82.59375 -13 
L 77.796875 -17.40625 
Q 70.296875 -7.90625 55.5 3.203125 
L 58.90625 7.203125 
Q 63.703125 3.59375 66.59375 1.09375 
z
" id="STXihei-40836"/>
      <path d="M 25.40625 40.203125 
L 14.203125 39 
Q 8.796875 38.5 6.5 37.703125 
Q 5.296875 42.796875 4 44.5 
Q 8.40625 47.203125 13.84375 56.296875 
Q 19.296875 65.40625 22.703125 76.09375 
Q 25.40625 74.40625 29.90625 73.09375 
Q 31.5 72.59375 31.5 71.5 
Q 31.5 70.40625 29.84375 69.703125 
Q 28.203125 69 24.796875 64.203125 
Q 21.40625 59.40625 12.90625 44.40625 
L 28.5 45.09375 
Q 32.5 51.90625 34.5 58.90625 
Q 38.40625 56.296875 41.40625 55.203125 
Q 42.59375 54.796875 42.59375 53.84375 
Q 42.59375 52.90625 41.1875 52.25 
Q 39.796875 51.59375 35.09375 45.25 
Q 30.40625 38.90625 17.296875 18.59375 
Q 26.796875 19.40625 40.203125 23.09375 
Q 39.90625 22.40625 39.90625 21.15625 
Q 39.90625 19.90625 40.5 17.09375 
L 20.59375 13.703125 
Q 14.09375 12.59375 9.59375 10.796875 
Q 8.59375 15.703125 6.59375 18.296875 
Q 13.59375 21.40625 25.40625 40.203125 
z
M 47.40625 -5.90625 
L 47.40625 55 
Q 47.40625 64 46.59375 69.5 
Q 51.59375 68.59375 67.59375 68.59375 
Q 83.59375 68.59375 88.59375 69.5 
Q 87.703125 63.40625 87.703125 55 
L 87.703125 -5.796875 
Q 93.09375 -5.40625 96.203125 -5 
L 96.203125 -11.796875 
Q 90.09375 -10.90625 66 -10.90625 
Q 41.90625 -10.90625 36.296875 -11.796875 
L 36.296875 -5 
Q 41.90625 -5.796875 47.40625 -5.90625 
z
M 53.90625 44.203125 
L 81.203125 44.203125 
L 81.203125 63.40625 
L 53.90625 63.40625 
z
M 81.203125 39.40625 
L 53.90625 39.40625 
L 53.90625 18.203125 
L 81.203125 18.203125 
z
M 81.203125 13.40625 
L 53.90625 13.40625 
L 53.90625 -5.90625 
L 81.203125 -5.90625 
z
M 41.5 6.09375 
Q 41.296875 3.09375 41.703125 0.203125 
Q 16.59375 -5.5 6.796875 -8.59375 
Q 6.203125 -4.90625 4.40625 -1.203125 
Q 20.703125 -0.5 41.5 6.09375 
z
" id="STXihei-32452"/>
     </defs>
     <g transform="translate(283.92 346.759388)scale(0.2 -0.2)">
      <use xlink:href="#STXihei-24180"/>
      <use x="99.999985" xlink:href="#STXihei-40836"/>
      <use x="199.999969" xlink:href="#STXihei-32452"/>
     </g>
    </g>
   </g>
   <g id="matplotlib.axis_2">
    <g id="ytick_1">
     <g id="line2d_19">
      <defs>
       <path d="M 0 0 
L -3.5 0 
" id="m88c174dfc4" style="stroke:#000000;stroke-width:0.8;"/>
      </defs>
      <g>
       <use style="stroke:#000000;stroke-width:0.8;" x="80.64" xlink:href="#m88c174dfc4" y="288"/>
      </g>
     </g>
     <g id="text_20">
      <!-- 0 -->
      <g transform="translate(68.099375 291.679688)scale(0.1 -0.1)">
       <use xlink:href="#STXihei-48"/>
      </g>
     </g>
    </g>
    <g id="ytick_2">
     <g id="line2d_20">
      <g>
       <use style="stroke:#000000;stroke-width:0.8;" x="80.64" xlink:href="#m88c174dfc4" y="245.177268"/>
      </g>
     </g>
     <g id="text_21">
      <!-- 10000 -->
      <g transform="translate(45.936875 248.856956)scale(0.1 -0.1)">
       <use xlink:href="#STXihei-49"/>
       <use x="55.399994" xlink:href="#STXihei-48"/>
       <use x="110.799988" xlink:href="#STXihei-48"/>
       <use x="166.199982" xlink:href="#STXihei-48"/>
       <use x="221.599976" xlink:href="#STXihei-48"/>
      </g>
     </g>
    </g>
    <g id="ytick_3">
     <g id="line2d_21">
      <g>
       <use style="stroke:#000000;stroke-width:0.8;" x="80.64" xlink:href="#m88c174dfc4" y="202.354537"/>
      </g>
     </g>
     <g id="text_22">
      <!-- 20000 -->
      <g transform="translate(45.936875 206.034224)scale(0.1 -0.1)">
       <use xlink:href="#STXihei-50"/>
       <use x="55.399994" xlink:href="#STXihei-48"/>
       <use x="110.799988" xlink:href="#STXihei-48"/>
       <use x="166.199982" xlink:href="#STXihei-48"/>
       <use x="221.599976" xlink:href="#STXihei-48"/>
      </g>
     </g>
    </g>
    <g id="ytick_4">
     <g id="line2d_22">
      <g>
       <use style="stroke:#000000;stroke-width:0.8;" x="80.64" xlink:href="#m88c174dfc4" y="159.531805"/>
      </g>
     </g>
     <g id="text_23">
      <!-- 30000 -->
      <g transform="translate(45.936875 163.211492)scale(0.1 -0.1)">
       <use xlink:href="#STXihei-51"/>
       <use x="55.399994" xlink:href="#STXihei-48"/>
       <use x="110.799988" xlink:href="#STXihei-48"/>
       <use x="166.199982" xlink:href="#STXihei-48"/>
       <use x="221.599976" xlink:href="#STXihei-48"/>
      </g>
     </g>
    </g>
    <g id="ytick_5">
     <g id="line2d_23">
      <g>
       <use style="stroke:#000000;stroke-width:0.8;" x="80.64" xlink:href="#m88c174dfc4" y="116.709073"/>
      </g>
     </g>
     <g id="text_24">
      <!-- 40000 -->
      <g transform="translate(45.936875 120.388761)scale(0.1 -0.1)">
       <use xlink:href="#STXihei-52"/>
       <use x="55.399994" xlink:href="#STXihei-48"/>
       <use x="110.799988" xlink:href="#STXihei-48"/>
       <use x="166.199982" xlink:href="#STXihei-48"/>
       <use x="221.599976" xlink:href="#STXihei-48"/>
      </g>
     </g>
    </g>
    <g id="ytick_6">
     <g id="line2d_24">
      <g>
       <use style="stroke:#000000;stroke-width:0.8;" x="80.64" xlink:href="#m88c174dfc4" y="73.886341"/>
      </g>
     </g>
     <g id="text_25">
      <!-- 50000 -->
      <g transform="translate(45.936875 77.566029)scale(0.1 -0.1)">
       <use xlink:href="#STXihei-53"/>
       <use x="55.399994" xlink:href="#STXihei-48"/>
       <use x="110.799988" xlink:href="#STXihei-48"/>
       <use x="166.199982" xlink:href="#STXihei-48"/>
       <use x="221.599976" xlink:href="#STXihei-48"/>
      </g>
     </g>
    </g>
    <g id="text_26">
     <!-- 数量 -->
     <defs>
      <path d="M 24.09375 49.296875 
Q 13.296875 49.296875 7.203125 48.59375 
L 7.203125 54.5 
Q 16.5 53.796875 28.703125 53.796875 
L 28.703125 64.5 
Q 28.703125 70 27.703125 74.90625 
Q 31.703125 74.5 34.140625 74.5 
Q 36.59375 74.5 36.59375 73.796875 
Q 36.59375 73.09375 35.796875 72.796875 
Q 34.40625 72.296875 34.40625 69.203125 
L 34.40625 53.796875 
Q 43.90625 53.90625 56 54.5 
L 56 48.59375 
Q 48.40625 49.296875 34.40625 49.296875 
Q 42.59375 43 50.203125 35.5 
L 45.796875 30.90625 
Q 40.5 37.5 34.40625 43.90625 
Q 34.59375 36 35.09375 30.5 
L 28 30.5 
Q 28.703125 37.59375 28.703125 47.90625 
Q 21.203125 34.703125 9.796875 25.40625 
Q 8.40625 27.59375 5.296875 29.40625 
Q 17.296875 38.09375 24.09375 49.296875 
z
M 74.203125 12.40625 
Q 79.90625 23.796875 80.90625 48.796875 
L 64.59375 48.796875 
Q 60.796875 36.90625 55.90625 28.703125 
Q 54.90625 29.09375 53.09375 30.09375 
Q 51.296875 31.09375 50.09375 31.5 
Q 55.40625 37.90625 59.203125 50.046875 
Q 63 62.203125 63.703125 74.703125 
Q 67.796875 73 72 73 
Q 73.296875 73 73.296875 71.84375 
Q 73.296875 70.703125 72.046875 69.953125 
Q 70.796875 69.203125 69.84375 67.296875 
Q 68.90625 65.40625 66.09375 53.90625 
L 83.09375 53.90625 
Q 91.40625 53.90625 95.40625 54.703125 
L 95.40625 48.09375 
Q 92.40625 48.703125 86.59375 48.703125 
Q 84.59375 19.203125 77.40625 7.09375 
Q 85.09375 -3.703125 96.703125 -8 
Q 93.796875 -10.59375 91.90625 -14.203125 
Q 82 -7.09375 74.296875 2.59375 
Q 66.09375 -7.703125 50.90625 -16.296875 
Q 49.203125 -13.90625 45.296875 -10.703125 
Q 52.203125 -8.703125 59.296875 -3.796875 
Q 66.40625 1.09375 70.90625 7 
Q 64.203125 17.09375 60.796875 32.703125 
L 66.40625 34.203125 
Q 66.796875 24.90625 74.203125 12.40625 
z
M 47.296875 71.703125 
Q 50 69.40625 51.703125 68.546875 
Q 53.40625 67.703125 53.40625 66.796875 
Q 53.40625 65.90625 52.25 65.59375 
Q 51.09375 65.296875 49.25 63.34375 
Q 47.40625 61.40625 43.203125 55.59375 
Q 41.59375 56.703125 38.59375 57.703125 
Q 44.59375 64.09375 47.296875 71.703125 
z
M 23.796875 59.203125 
L 18.703125 56.203125 
Q 14.796875 63.203125 10.796875 67.90625 
L 15.09375 70.5 
Q 20 65 23.796875 59.203125 
z
M 41.5 1.40625 
Q 47.5 -1 52.5 -3.5 
Q 50.40625 -5.296875 48.5 -8.5 
Q 43 -5.09375 37.296875 -2.59375 
Q 29.703125 -8.90625 11.703125 -14.203125 
Q 11 -10.796875 8.203125 -7.703125 
Q 23 -6 31.59375 -0.203125 
Q 23.09375 3 14.703125 4.703125 
Q 18.90625 10.5 21.796875 15.703125 
Q 12.90625 15.59375 7.296875 14.90625 
L 7.296875 20.90625 
Q 12.703125 20.5 24.09375 20.296875 
Q 25.90625 23.90625 27.90625 29.90625 
Q 31.203125 28.296875 33.34375 27.84375 
Q 35.5 27.40625 35.5 26.546875 
Q 35.5 25.703125 34.046875 25 
Q 32.59375 24.296875 30.09375 20.296875 
L 44.296875 20.296875 
Q 49.296875 20.296875 52.203125 21 
Q 47.203125 7.796875 41.5 1.40625 
z
M 27.59375 15.703125 
L 23.203125 7.5 
Q 29.703125 5.796875 36 3.40625 
Q 40.796875 8.203125 43.5 15.703125 
z
" id="STXihei-25968"/>
      <path d="M 81.203125 46.796875 
Q 78.296875 47.296875 50 47.296875 
Q 21.703125 47.296875 18.796875 46.796875 
Q 19.296875 53.59375 19.296875 58.75 
Q 19.296875 63.90625 18.796875 70.09375 
Q 21.796875 69.40625 49.390625 69.40625 
Q 77 69.40625 81.09375 70.09375 
Q 80.90625 62.796875 80.90625 57.796875 
Q 80.90625 52.796875 81.203125 46.796875 
z
M 75.09375 59.703125 
L 75.09375 65.5 
L 25.09375 65.5 
L 25.09375 59.703125 
z
M 25.09375 56.09375 
L 25.09375 50.90625 
L 75.09375 50.90625 
L 75.09375 56.09375 
z
M 94.5 38.203125 
Q 77.203125 39 47.75 39 
Q 18.296875 39 4.703125 38.203125 
L 4.703125 44 
Q 23.5 43.296875 49.546875 43.296875 
Q 75.59375 43.296875 94.5 44 
z
M 52.90625 -0.40625 
L 52.90625 -9 
Q 75.90625 -9 92.40625 -8 
L 92.40625 -14.203125 
Q 78.40625 -13.09375 49.703125 -13.09375 
Q 21 -13.09375 7.296875 -14.203125 
L 7.296875 -8 
Q 23.90625 -9 47.203125 -9 
L 47.203125 -0.40625 
Q 26.59375 -0.40625 14.5 -1.59375 
L 14.5 4.90625 
Q 28.40625 3.703125 47.203125 3.703125 
L 47.203125 10.09375 
Q 23.59375 10 18.09375 9.203125 
Q 18.5 15.296875 18.5 20.546875 
Q 18.5 25.796875 18.09375 35.5 
Q 23.296875 34.296875 49.1875 34.296875 
Q 75.09375 34.296875 82 35.5 
Q 81.59375 25.90625 81.59375 20.296875 
Q 81.59375 14.703125 82.09375 9.203125 
Q 77.90625 10.09375 52.90625 10.09375 
L 52.90625 3.703125 
Q 73.5 3.796875 84.90625 4.90625 
L 84.90625 -1.59375 
Q 73.5 -0.5 52.90625 -0.40625 
z
M 75.59375 23.90625 
L 75.59375 30.09375 
L 52.90625 30.09375 
L 52.90625 23.90625 
z
M 47.203125 23.90625 
L 47.203125 30.09375 
L 24.296875 30.09375 
L 24.296875 23.90625 
z
M 52.90625 20.296875 
L 52.90625 14.40625 
L 75.59375 14.40625 
L 75.59375 20.296875 
z
M 24.296875 20.296875 
L 24.296875 14.40625 
L 47.203125 14.40625 
L 47.203125 20.296875 
z
" id="STXihei-37327"/>
     </defs>
     <g transform="translate(27.055625 182)rotate(-90)scale(0.2 -0.2)">
      <use xlink:href="#STXihei-25968"/>
      <use x="99.999985" xlink:href="#STXihei-37327"/>
     </g>
    </g>
   </g>
   <g id="patch_39">
    <path d="M 80.64 288 
L 80.64 36 
" style="fill:none;stroke:#000000;stroke-linecap:square;stroke-linejoin:miter;stroke-width:0.8;"/>
   </g>
   <g id="patch_40">
    <path d="M 547.2 288 
L 547.2 36 
" style="fill:none;stroke:#000000;stroke-linecap:square;stroke-linejoin:miter;stroke-width:0.8;"/>
   </g>
   <g id="patch_41">
    <path d="M 80.64 288 
L 547.2 288 
" style="fill:none;stroke:#000000;stroke-linecap:square;stroke-linejoin:miter;stroke-width:0.8;"/>
   </g>
   <g id="patch_42">
    <path d="M 80.64 36 
L 547.2 36 
" style="fill:none;stroke:#000000;stroke-linecap:square;stroke-linejoin:miter;stroke-width:0.8;"/>
   </g>
   <g id="legend_1">
    <g id="patch_43">
     <path d="M 428.4 79.955625 
L 538.8 79.955625 
Q 541.2 79.955625 541.2 77.555625 
L 541.2 44.4 
Q 541.2 42 538.8 42 
L 428.4 42 
Q 426 42 426 44.4 
L 426 77.555625 
Q 426 79.955625 428.4 79.955625 
z
" style="fill:#ffffff;opacity:0.8;stroke:#cccccc;stroke-linejoin:miter;"/>
    </g>
    <g id="patch_44">
     <path d="M 430.8 55.666875 
L 454.8 55.666875 
L 454.8 47.266875 
L 430.8 47.266875 
z
" style="fill:#db8231;"/>
    </g>
    <g id="text_27">
     <!-- 最终易感染者 -->
     <defs>
      <path d="M 79.703125 44.5 
Q 71.59375 44.90625 47.9375 44.90625 
Q 24.296875 44.90625 20.703125 44.59375 
Q 21.203125 52.203125 21.203125 57.84375 
Q 21.203125 63.5 20.59375 70.203125 
Q 25.90625 69.90625 48.703125 69.90625 
Q 71.5 69.90625 79.703125 70.203125 
Q 79.40625 64.796875 79.40625 58.09375 
Q 79.40625 51.40625 79.703125 44.5 
z
M 27.203125 59.09375 
L 73.5 59.09375 
L 73.5 65.40625 
L 27.203125 65.40625 
z
M 73.5 54.796875 
L 27.203125 54.796875 
L 27.203125 49.09375 
L 73.5 49.09375 
z
M 17.5 35.5 
Q 14.203125 35.5 5.296875 34.796875 
L 5.296875 41.09375 
Q 14.296875 40.09375 50.140625 40.09375 
Q 86 40.09375 94.796875 41.09375 
L 94.796875 34.796875 
Q 88.796875 35.59375 46.296875 35.59375 
L 46.296875 4.59375 
L 54.59375 6.40625 
Q 54.5 4.796875 54.5 3.296875 
Q 54.5 1.796875 54.59375 0.5 
Q 51.703125 0.09375 46.296875 -0.796875 
Q 46.296875 -9.796875 47.296875 -16.703125 
L 40.203125 -16.703125 
Q 40.703125 -11.296875 40.703125 -1.59375 
Q 15.90625 -5.703125 8.40625 -7.703125 
Q 8.09375 -4.703125 6.296875 -1.09375 
Q 11.59375 -0.796875 17.5 -0.203125 
z
M 40.703125 35.59375 
L 23.296875 35.59375 
L 23.296875 27.09375 
L 40.703125 27.09375 
z
M 40.703125 22.796875 
L 23.296875 22.796875 
L 23.296875 14.703125 
L 40.703125 14.703125 
z
M 23.296875 10.296875 
L 23.296875 0.59375 
Q 33.703125 2.203125 40.703125 3.5 
L 40.703125 10.296875 
z
M 54.59375 24.203125 
L 51.703125 24 
L 51.703125 29.703125 
Q 57.5 28.90625 69.59375 28.90625 
Q 81.703125 28.90625 87.40625 29.703125 
Q 83.09375 13.296875 74.90625 2 
Q 82.40625 -4.703125 95.59375 -10 
Q 92.59375 -11.59375 90.796875 -15.796875 
Q 77.296875 -8 71.40625 -2 
Q 65 -8.796875 53.796875 -16 
Q 52 -12.09375 48.203125 -10.796875 
Q 59.296875 -6.703125 67.40625 1.703125 
Q 61.296875 8 54.59375 24.203125 
z
M 60 24.40625 
Q 64.59375 12.59375 71.203125 5.703125 
Q 77.703125 13.703125 79.90625 24.59375 
Q 64.59375 24.59375 60 24.40625 
z
" id="STXihei-26368"/>
      <path d="M 64.90625 38.90625 
Q 72.90625 46.90625 78.40625 58 
L 51.703125 58 
Q 47.5 48.09375 42.09375 40.5 
Q 39.90625 43.203125 36.5 44.09375 
Q 47.90625 56.203125 51.296875 75.40625 
Q 54.90625 73.09375 58.296875 73 
Q 59.5 72.90625 59.5 72.25 
Q 59.5 71.59375 58.296875 70.84375 
Q 57.09375 70.09375 56 68.046875 
Q 54.90625 66 53.796875 63.203125 
L 70.59375 63.203125 
Q 82 63.203125 87.5 64.40625 
Q 81.203125 48.203125 68.90625 35.203125 
Q 78.09375 27.40625 95.703125 22.59375 
Q 93.296875 20.09375 91.90625 15.796875 
Q 75.296875 22.5 65.09375 31.59375 
Q 56.59375 23.90625 40.09375 15.40625 
Q 38.59375 18.90625 35.40625 21.5 
Q 51.703125 27.40625 61 35.5 
Q 55.203125 41.5 49.90625 50.5 
L 54.40625 53.296875 
Q 59.40625 44.703125 64.90625 38.90625 
z
M 23.203125 37 
L 15 36.59375 
Q 9.40625 36.296875 6.796875 35.40625 
Q 6.703125 38.5 5.09375 41.796875 
Q 11.59375 43.09375 21.703125 74.203125 
Q 25.203125 71.703125 27.59375 71.296875 
Q 30 70.90625 30 70.09375 
Q 30 69.296875 28.703125 68.59375 
Q 25.59375 66.90625 13.40625 41.796875 
L 26 42 
Q 31.09375 51.296875 32.796875 57.40625 
Q 36.09375 54.796875 38.09375 54.046875 
Q 40.09375 53.296875 40.09375 52.5 
Q 40.09375 51.703125 39.140625 51.390625 
Q 38.203125 51.09375 36.640625 49 
Q 35.09375 46.90625 29.296875 37.296875 
L 16.296875 15.703125 
L 36.59375 19.296875 
Q 35.5 17.09375 35.5 15.59375 
Q 35.5 14.09375 35.59375 13.296875 
L 18.703125 10.59375 
Q 14 9.796875 9.59375 8.09375 
Q 9.40625 11.296875 7.203125 14.90625 
Q 9.5 15.09375 13.046875 20.1875 
Q 16.59375 25.296875 23.203125 37 
z
M 79.296875 9.703125 
L 76 4.203125 
Q 68.40625 10.203125 54 15.90625 
L 56.90625 20.90625 
Q 70 15.09375 79.296875 9.703125 
z
M 80.5 -10.203125 
L 76.796875 -15.5 
Q 64.5 -7 45.90625 -0.09375 
L 48.796875 5 
Q 66.59375 -1.90625 80.5 -10.203125 
z
M 37.703125 4.296875 
Q 37.40625 2.703125 37.40625 1.046875 
Q 37.40625 -0.59375 37.703125 -2.59375 
Q 23.203125 -4.796875 7.296875 -11.09375 
Q 7 -7.59375 4.703125 -3.296875 
Q 19.59375 -2.296875 37.703125 4.296875 
z
" id="STXihei-32456"/>
      <path d="M 70.296875 22.796875 
Q 61.703125 1 38.40625 -16.203125 
Q 36 -13.203125 31.09375 -12 
Q 43 -5.90625 51.59375 3.140625 
Q 60.203125 12.203125 63.90625 22.796875 
L 50.296875 22.796875 
Q 41.296875 6.40625 19.40625 -8.796875 
Q 17.703125 -5.296875 13.296875 -4.203125 
Q 36.40625 7.40625 44.09375 22.796875 
L 28.59375 22.796875 
Q 21.90625 15.5 12.5 9 
Q 10.59375 12.40625 6.203125 13.40625 
Q 14.90625 17.59375 22.046875 23.9375 
Q 29.203125 30.296875 32.796875 37 
Q 25.5 36.90625 21.296875 36.59375 
Q 22.09375 39.203125 22.09375 43.203125 
L 22.09375 63.40625 
Q 22.09375 67.40625 21.296875 70.203125 
Q 26.703125 69.703125 49.59375 69.703125 
Q 72.5 69.703125 78.59375 70.203125 
Q 77.59375 67.90625 77.59375 63.40625 
L 77.59375 43.203125 
Q 77.59375 38.703125 78.59375 36.59375 
Q 71.703125 37.09375 39.5 37.09375 
Q 36.5 32.5 32.59375 27.5 
L 67.59375 27.5 
Q 81.703125 27.5 87.796875 28.203125 
L 84.796875 -0.203125 
Q 84.203125 -6.296875 82.796875 -9.046875 
Q 81.40625 -11.796875 77.953125 -13.09375 
Q 74.5 -14.40625 66.703125 -15.5 
Q 66.40625 -11.90625 63.203125 -8.203125 
Q 66.5 -8.40625 68.59375 -8.40625 
Q 74.5 -8.40625 76.34375 -6.796875 
Q 78.203125 -5.203125 78.703125 -0.09375 
L 81 22.796875 
z
M 28.203125 55.296875 
L 71.59375 55.296875 
L 71.59375 65.09375 
L 28.203125 65.09375 
z
M 71.59375 50.59375 
L 28.203125 50.59375 
L 28.203125 41.203125 
L 71.59375 41.203125 
z
" id="STXihei-26131"/>
      <path d="M 82.40625 68 
L 77.703125 63.796875 
Q 74.5 68.90625 68.203125 72.09375 
L 72.40625 76.59375 
Q 78.796875 71.90625 82.40625 68 
z
M 56.59375 58.5 
L 19.203125 58.5 
Q 19.203125 40.703125 17.703125 30.84375 
Q 16.203125 21 11.5 11.203125 
Q 8.59375 13.40625 4.703125 14.203125 
Q 9.40625 20.296875 11.453125 28.25 
Q 13.5 36.203125 13.5 49 
Q 13.5 55.5 13 64 
Q 15.90625 63.296875 56.09375 63.296875 
Q 55.59375 68.796875 55.40625 76 
Q 58.5 74.90625 62.703125 74.90625 
Q 64.203125 74.90625 64.203125 74.046875 
Q 64.203125 73.203125 63.34375 72.59375 
Q 62.5 72 62.203125 71 
Q 61.90625 70 61.90625 68 
Q 61.90625 66 62 63.296875 
Q 84.40625 63.296875 87.90625 64 
L 87.90625 57.796875 
Q 80.296875 58.5 62.296875 58.5 
Q 63.5 46.59375 69.296875 34.90625 
Q 75.09375 42.90625 78.09375 51.59375 
Q 81.40625 49.09375 84.40625 48.09375 
Q 85.40625 47.796875 85.40625 47.140625 
Q 85.40625 46.5 83.796875 45.84375 
Q 82.203125 45.203125 79.796875 41.40625 
Q 75.59375 34.59375 72 30 
Q 75.703125 23.90625 78.703125 21.25 
Q 81.703125 18.59375 83.546875 18.59375 
Q 85.40625 18.59375 86.296875 20.84375 
Q 87.203125 23.09375 87.59375 27.703125 
Q 90 24.703125 93.59375 24.09375 
Q 92.40625 19.703125 90.453125 16.046875 
Q 88.5 12.40625 85.09375 12.40625 
Q 76.59375 12.40625 68.09375 25 
Q 62.796875 18.203125 55.90625 11.703125 
Q 53.90625 13.90625 50.09375 15.09375 
Q 57.203125 20.296875 65.296875 29.59375 
Q 58.90625 41.09375 56.59375 58.5 
z
M 23.5 51 
Q 29.09375 50.40625 38.796875 50.40625 
Q 48.5 50.40625 54 51 
L 54 45.203125 
Q 49.703125 45.796875 38.75 45.796875 
Q 27.796875 45.796875 23.5 45.203125 
z
M 52.40625 39 
Q 51.796875 33.59375 51.796875 28.4375 
Q 51.796875 23.296875 52.296875 18.796875 
Q 48.40625 19.203125 38.75 19.203125 
Q 29.09375 19.203125 24.90625 18.796875 
Q 25.59375 24.703125 25.59375 30 
Q 25.59375 35.296875 24.90625 39 
Q 30.40625 38.296875 38.59375 38.296875 
Q 46.796875 38.296875 52.40625 39 
z
M 46.40625 23.40625 
L 46.40625 34.09375 
L 31 34.09375 
L 31 23.40625 
z
M 59 4.09375 
L 54.59375 -0.203125 
Q 47.90625 7.09375 41.5 11.40625 
L 45.5 15.703125 
Q 52.703125 10.703125 59 4.09375 
z
M 74.5 -1.5 
Q 73.296875 -6.59375 71 -9.09375 
Q 68.703125 -11.59375 63.84375 -12.4375 
Q 59 -13.296875 48.140625 -13.296875 
Q 37.296875 -13.296875 34.140625 -12.640625 
Q 31 -12 29.84375 -10.09375 
Q 28.703125 -8.203125 28.703125 -4.40625 
L 28.703125 7.59375 
Q 28.703125 11.90625 28.296875 13.40625 
Q 31 12.5 35.40625 12.5 
Q 36.796875 12.5 36.796875 11.84375 
Q 36.796875 11.203125 35.75 10.25 
Q 34.703125 9.296875 34.703125 6.90625 
L 34.703125 -4 
Q 34.703125 -6.296875 37.046875 -7.1875 
Q 39.40625 -8.09375 48.59375 -8.09375 
Q 55.203125 -8.09375 59.890625 -7.34375 
Q 64.59375 -6.59375 66.296875 -4.6875 
Q 68 -2.796875 68.296875 2.703125 
Q 70.796875 -0.59375 74.5 -1.5 
z
M 23 9.296875 
Q 18.59375 -2.59375 12.5 -11.5 
L 6.296875 -8.296875 
Q 14.296875 0.09375 17.203125 11.40625 
z
M 93.90625 -5.90625 
L 88.5 -10.5 
Q 81.90625 -1 73.296875 5.90625 
L 77.703125 10.296875 
Q 86.5 3.40625 93.90625 -5.90625 
z
" id="STXihei-24863"/>
      <path d="M 61.5 56.40625 
Q 60.5 48.09375 55.640625 41.34375 
Q 50.796875 34.59375 40.90625 27.203125 
Q 39.09375 30.59375 34.90625 31.90625 
Q 53.703125 40.796875 56 56.09375 
Q 46.40625 55.703125 40.5 54.59375 
L 40.5 60.59375 
Q 43.5 60.40625 47.296875 60.40625 
Q 51.09375 60.40625 56.5 60.703125 
Q 56.703125 63.796875 56.703125 67.34375 
Q 56.703125 70.90625 55.796875 76.296875 
Q 58.40625 75.703125 63 75.703125 
Q 64.796875 75.703125 64.796875 74.890625 
Q 64.796875 74.09375 63.9375 73.1875 
Q 63.09375 72.296875 62.6875 70 
Q 62.296875 67.703125 61.90625 61 
Q 76 61.90625 81.59375 62.5 
L 79.796875 38 
Q 79.59375 35.09375 80.25 34.140625 
Q 80.90625 33.203125 83.59375 33.203125 
Q 86.296875 33.203125 87.75 34.640625 
Q 89.203125 36.09375 90 40.90625 
Q 91.796875 37.90625 95.296875 37.203125 
Q 93.796875 32.90625 92.4375 31.09375 
Q 91.09375 29.296875 88.890625 28.6875 
Q 86.703125 28.09375 81.953125 28.09375 
Q 77.203125 28.09375 75.703125 29.5 
Q 74.203125 30.90625 74.203125 34.5 
Q 74.203125 34.796875 74.40625 38 
L 75.59375 57.09375 
z
M 38.09375 63.59375 
L 34.796875 58.703125 
Q 27.59375 64.703125 17.5 69.703125 
L 20.40625 74.203125 
Q 29.703125 69.703125 38.09375 63.59375 
z
M 29.703125 51.703125 
L 26.703125 47.203125 
Q 20.40625 51.59375 9.90625 55.59375 
L 12.203125 60.296875 
Q 20.796875 56.90625 29.703125 51.703125 
z
M 38 42.296875 
Q 24.90625 34.59375 13 25.296875 
L 8.5 31.5 
Q 25.09375 38.203125 35 47.90625 
Q 35.796875 44.703125 38 42.296875 
z
M 54.203125 20.296875 
Q 81.296875 20.296875 94.796875 21.296875 
L 94.796875 14.796875 
Q 81.703125 15.59375 61.90625 15.5 
Q 77.203125 -0.40625 95.59375 -4.203125 
Q 92.40625 -6.5 91 -11.09375 
Q 67.796875 -0.5 56.703125 15.5 
L 54.203125 15.5 
L 54.203125 -6 
Q 54.203125 -11.796875 54.796875 -16.296875 
L 47.40625 -16.296875 
Q 48.203125 -11.203125 48.203125 -6 
L 48.203125 15.5 
L 46.296875 15.5 
Q 35.40625 -0.203125 11 -12.5 
Q 9.5 -9.5 5.296875 -6.296875 
Q 27.40625 -0.09375 40.40625 15.5 
Q 13.90625 15.5 6.796875 14.796875 
L 6.796875 21.296875 
Q 20.203125 20.296875 48.203125 20.296875 
Q 48 27.296875 47.59375 30.09375 
Q 51.40625 29.59375 54.296875 29.59375 
Q 57.203125 29.59375 57.203125 28.84375 
Q 57.203125 28.09375 55.703125 27.34375 
Q 54.203125 26.59375 54.203125 24.59375 
z
" id="STXihei-26579"/>
      <path d="M 45.703125 57.703125 
Q 27.796875 57.703125 17.796875 56.59375 
L 17.796875 63.5 
Q 26.5 62.5 45.703125 62.40625 
Q 45.703125 72.09375 45 76.59375 
Q 47.5 76 52.5 76 
Q 54.296875 76 54.296875 75.296875 
Q 54.296875 74.59375 53.046875 73.59375 
Q 51.796875 72.59375 51.796875 70.09375 
L 51.796875 62.40625 
Q 64.296875 62.5 74.796875 63.5 
L 74.796875 56.796875 
Q 81 63.203125 84.296875 70.09375 
Q 86.90625 66.90625 89.09375 65.796875 
Q 91.296875 64.703125 91.296875 63.59375 
Q 91.296875 62.5 89.390625 62.25 
Q 87.5 62 80.09375 54.75 
Q 72.703125 47.5 67.59375 42.90625 
Q 86.59375 43.40625 95.203125 44.09375 
L 95.203125 36.90625 
Q 82.203125 38 61.796875 38.09375 
Q 53.296875 31.296875 45.5 26.40625 
L 59.703125 26.40625 
Q 73.40625 26.40625 81.203125 27.296875 
Q 80.703125 24.40625 80.703125 19.59375 
L 80.703125 -5 
Q 80.703125 -9.5 81.296875 -15 
L 74.40625 -15 
L 74.40625 -9.203125 
L 35.40625 -9.203125 
L 35.40625 -16.203125 
L 28.796875 -16.203125 
Q 29.296875 -11.90625 29.296875 -6.203125 
L 29.296875 16.90625 
Q 19 11.296875 8.703125 6.796875 
Q 7.5 11.40625 3.296875 13.40625 
Q 14.703125 16.40625 29.203125 23.5 
Q 29.09375 25 28.703125 27.296875 
Q 31.5 26.90625 35.40625 26.796875 
Q 45.203125 32.09375 53.40625 38.203125 
L 32.5 38.203125 
Q 18.90625 38.203125 5.796875 36.90625 
L 5.796875 44.09375 
Q 22.5 42.90625 45.703125 42.796875 
z
M 74.59375 56.59375 
Q 64.203125 57.59375 51.796875 57.703125 
L 51.796875 42.796875 
L 59.203125 42.796875 
Q 69.796875 51.59375 74.59375 56.59375 
z
M 35.40625 12 
L 74.40625 12 
L 74.40625 21.5 
L 37.40625 21.5 
L 35.40625 20.296875 
z
M 74.40625 6.59375 
L 35.40625 6.59375 
L 35.40625 -4.703125 
L 74.40625 -4.703125 
z
" id="STXihei-32773"/>
     </defs>
     <g transform="translate(464.4 55.666875)scale(0.12 -0.12)">
      <use xlink:href="#STXihei-26368"/>
      <use x="99.999985" xlink:href="#STXihei-32456"/>
      <use x="199.999969" xlink:href="#STXihei-26131"/>
      <use x="299.999954" xlink:href="#STXihei-24863"/>
      <use x="399.999939" xlink:href="#STXihei-26579"/>
      <use x="499.999924" xlink:href="#STXihei-32773"/>
     </g>
    </g>
    <g id="patch_45">
     <path d="M 430.8 72.826875 
L 454.8 72.826875 
L 454.8 64.426875 
L 430.8 64.426875 
z
" style="fill:#4c92c3;"/>
    </g>
    <g id="text_28">
     <!-- 初始易感染者 -->
     <defs>
      <path d="M 34.5 63.5 
L 30.203125 58.09375 
Q 23.40625 65.09375 13.296875 70.703125 
L 17 75.796875 
Q 26.703125 69.796875 34.5 63.5 
z
M 60 60.703125 
Q 51 60.703125 44.203125 60.09375 
L 44.203125 66.296875 
Q 52 65.703125 69.84375 65.703125 
Q 87.703125 65.703125 94.296875 66.40625 
Q 93.40625 63.09375 93 55.296875 
L 90.203125 0.90625 
Q 89.90625 -4.40625 88.453125 -7.046875 
Q 87 -9.703125 82.890625 -11.09375 
Q 78.796875 -12.5 70.296875 -13.203125 
Q 70 -9.59375 67.09375 -5.296875 
Q 71.703125 -5.59375 75.5 -5.59375 
Q 79.296875 -5.59375 81.5 -4.59375 
Q 83.703125 -3.59375 83.90625 0.59375 
L 87.09375 60.703125 
L 66 60.703125 
Q 65.90625 35.40625 64.046875 22.296875 
Q 62.203125 9.203125 56.75 0.75 
Q 51.296875 -7.703125 39.59375 -16.09375 
Q 37.90625 -12.90625 33.5 -10.703125 
Q 44.796875 -4 50.046875 2.453125 
Q 55.296875 8.90625 57.59375 20.703125 
Q 59.90625 32.5 60 60.703125 
z
M 27.203125 32.796875 
L 27.203125 30.40625 
Q 30.203125 28.296875 33.5 25.59375 
Q 39 32.90625 41.90625 39.59375 
Q 45 37.09375 47 36.546875 
Q 49 36 49 35.34375 
Q 49 34.703125 47.59375 34 
Q 45.09375 32.796875 37.09375 22.796875 
Q 44.296875 17 47.203125 14.40625 
L 42.09375 9.203125 
Q 36.296875 17 27.203125 24.09375 
L 27.203125 0.40625 
Q 27.203125 -8.09375 27.90625 -16.296875 
L 20.5 -16.296875 
Q 21.203125 -7.90625 21.203125 0.40625 
L 21.203125 25.796875 
Q 16.40625 20.703125 8.203125 13.59375 
Q 6.59375 16.90625 3 19.59375 
Q 12 24.296875 19.84375 32.59375 
Q 27.703125 40.90625 32.09375 50.59375 
Q 9.796875 50.59375 4.703125 49.296875 
L 4.703125 56.203125 
Q 11.59375 55.296875 24.046875 55.296875 
Q 36.5 55.296875 41.296875 56.09375 
Q 38.09375 46.59375 27.203125 32.796875 
z
" id="STXihei-21021"/>
      <path d="M 30.296875 10.40625 
Q 36.203125 5.59375 42.203125 -0.40625 
Q 39.296875 -2.5 37.203125 -5.40625 
Q 32.703125 0.203125 27.5 5.203125 
Q 20.796875 -5.796875 9.90625 -15.40625 
Q 7.796875 -13 3.796875 -11.40625 
Q 15.796875 -2.703125 22.703125 9.40625 
Q 17.09375 14 9 19.09375 
Q 14.203125 33.796875 17.203125 48.796875 
Q 9.40625 48.796875 6 48 
L 6 54.203125 
Q 10.296875 53.40625 18.296875 53.40625 
Q 21.40625 66.703125 21.40625 76.5 
Q 25.296875 74.90625 28.140625 74.65625 
Q 31 74.40625 31 73.296875 
Q 31 72.203125 30 71.296875 
Q 29 70.40625 28.046875 67.453125 
Q 27.09375 64.5 24.203125 53.40625 
Q 36.5 53.5 39.796875 54.203125 
Q 38.203125 27.90625 30.296875 10.40625 
z
M 23 48.796875 
L 15.796875 20.703125 
Q 21.09375 17.296875 25.203125 14.296875 
Q 31.5 27.703125 33.59375 48.796875 
z
M 86.296875 39.703125 
Q 50.296875 38.5 43.59375 36.40625 
Q 42.796875 40 41 42.90625 
Q 45.796875 44 53.4375 55.140625 
Q 61.09375 66.296875 63.59375 75.703125 
Q 67.703125 73.09375 71.09375 72.09375 
Q 72.59375 71.59375 72.59375 70.546875 
Q 72.59375 69.5 71 69.140625 
Q 69.40625 68.796875 68.34375 67.59375 
Q 67.296875 66.40625 65.59375 63.703125 
Q 58.90625 53 51.703125 43.40625 
L 82.90625 44.296875 
Q 79.90625 48.296875 73.5 55 
L 77.703125 58.59375 
Q 87.40625 49.40625 96.703125 36.203125 
L 91.296875 32.296875 
Q 88.40625 36.796875 86.296875 39.703125 
z
M 53.59375 -4.90625 
L 53.59375 -14.203125 
L 46.796875 -14.203125 
Q 47.296875 -10.296875 47.296875 -3.296875 
L 47.296875 21.40625 
Q 47.296875 24.703125 46.796875 27.09375 
Q 55 26.5 67.296875 26.5 
Q 79.59375 26.5 87.703125 27.09375 
Q 87.296875 25.203125 87.296875 21.40625 
L 87.296875 -2.796875 
Q 87.296875 -9.796875 87.59375 -12.703125 
L 80.90625 -12.703125 
L 80.90625 -4.90625 
z
M 80.90625 -0.09375 
L 80.90625 21.40625 
L 53.59375 21.40625 
L 53.59375 -0.09375 
z
" id="STXihei-22987"/>
     </defs>
     <g transform="translate(464.4 72.826875)scale(0.12 -0.12)">
      <use xlink:href="#STXihei-21021"/>
      <use x="99.999985" xlink:href="#STXihei-22987"/>
      <use x="199.999969" xlink:href="#STXihei-26131"/>
      <use x="299.999954" xlink:href="#STXihei-24863"/>
      <use x="399.999939" xlink:href="#STXihei-26579"/>
      <use x="499.999924" xlink:href="#STXihei-32773"/>
     </g>
    </g>
   </g>
  </g>
 </g>
 <defs>
  <clipPath id="p2d282e8d8a">
   <rect height="252" width="466.56" x="80.64" y="36"/>
  </clipPath>
 </defs>
</svg>
