<?xml version="1.0" encoding="utf-8" standalone="no"?>
<!DOCTYPE svg PUBLIC "-//W3C//DTD SVG 1.1//EN"
  "http://www.w3.org/Graphics/SVG/1.1/DTD/svg11.dtd">
<!-- Created with matplotlib (https://matplotlib.org/) -->
<svg height="360pt" version="1.1" viewBox="0 0 576 360" width="576pt" xmlns="http://www.w3.org/2000/svg" xmlns:xlink="http://www.w3.org/1999/xlink">
 <defs>
  <style type="text/css">
*{stroke-linecap:butt;stroke-linejoin:round;}
  </style>
 </defs>
 <g id="figure_1">
  <g id="patch_1">
   <path d="M 0 360 
L 576 360 
L 576 0 
L 0 0 
z
" style="fill:#ffffff;"/>
  </g>
  <g id="axes_1">
   <g id="patch_2">
    <path d="M 69.12 306 
L 518.4 306 
L 518.4 36 
L 69.12 36 
z
" style="fill:#ffffff;"/>
   </g>
   <g id="matplotlib.axis_1">
    <g id="xtick_1">
     <g id="line2d_1">
      <defs>
       <path d="M 0 0 
L 0 3.5 
" id="m5e80797e1e" style="stroke:#000000;stroke-width:0.8;"/>
      </defs>
      <g>
       <use style="stroke:#000000;stroke-width:0.8;" x="89.541818" xlink:href="#m5e80797e1e" y="306"/>
      </g>
     </g>
     <g id="text_1">
      <!-- 0 -->
      <defs>
       <path d="M 27.296875 -1.796875 
Q 15.703125 -1.796875 9.453125 7.75 
Q 3.203125 17.296875 3.203125 35.90625 
Q 3.203125 54.5 9.453125 64.046875 
Q 15.703125 73.59375 27.296875 73.59375 
Q 38.703125 73.59375 45.453125 63.84375 
Q 52.203125 54.09375 52.203125 35.90625 
Q 52.203125 17.703125 45.390625 7.953125 
Q 38.59375 -1.796875 27.296875 -1.796875 
z
M 27.5 66.796875 
Q 19.203125 66.796875 14.59375 58.796875 
Q 10 50.796875 10 35.703125 
Q 10 4.703125 27.5 4.703125 
Q 36 4.703125 40.75 12.84375 
Q 45.5 21 45.5 35.703125 
Q 45.5 50.796875 40.59375 58.796875 
Q 35.703125 66.796875 27.5 66.796875 
z
" id="STXihei-48"/>
      </defs>
      <g transform="translate(86.771506 320.359375)scale(0.1 -0.1)">
       <use xlink:href="#STXihei-48"/>
      </g>
     </g>
    </g>
    <g id="xtick_2">
     <g id="line2d_2">
      <g>
       <use style="stroke:#000000;stroke-width:0.8;" x="157.842213" xlink:href="#m5e80797e1e" y="306"/>
      </g>
     </g>
     <g id="text_2">
      <!-- 50 -->
      <defs>
       <path d="M 49.203125 71.796875 
L 49.203125 65 
L 23.59375 65 
L 20 45.40625 
Q 24.796875 46.796875 29 46.796875 
Q 38.40625 46.796875 44.703125 40.140625 
Q 51 33.5 51 23.296875 
Q 51 12.703125 44.140625 5.453125 
Q 37.296875 -1.796875 26 -1.796875 
Q 17.40625 -1.796875 11.34375 3.34375 
Q 5.296875 8.5 4.09375 17.40625 
L 11.40625 17.40625 
Q 12.703125 11.40625 16.796875 8.203125 
Q 20.90625 5 26.296875 5 
Q 33.40625 5 38.546875 10.296875 
Q 43.703125 15.59375 43.703125 23.5 
Q 43.703125 30.703125 39.203125 35.34375 
Q 34.703125 40 27 40 
Q 20.203125 40 11.40625 36.203125 
L 18.09375 71.796875 
z
" id="STXihei-53"/>
      </defs>
      <g transform="translate(152.301588 320.359375)scale(0.1 -0.1)">
       <use xlink:href="#STXihei-53"/>
       <use x="55.399994" xlink:href="#STXihei-48"/>
      </g>
     </g>
    </g>
    <g id="xtick_3">
     <g id="line2d_3">
      <g>
       <use style="stroke:#000000;stroke-width:0.8;" x="226.142609" xlink:href="#m5e80797e1e" y="306"/>
      </g>
     </g>
     <g id="text_3">
      <!-- 100 -->
      <defs>
       <path d="M 18.5 71.796875 
L 32.59375 71.796875 
L 32.59375 0 
L 25.5 0 
L 25.5 64.796875 
L 14.203125 64.796875 
z
" id="STXihei-49"/>
      </defs>
      <g transform="translate(217.831671 320.359375)scale(0.1 -0.1)">
       <use xlink:href="#STXihei-49"/>
       <use x="55.399994" xlink:href="#STXihei-48"/>
       <use x="110.799988" xlink:href="#STXihei-48"/>
      </g>
     </g>
    </g>
    <g id="xtick_4">
     <g id="line2d_4">
      <g>
       <use style="stroke:#000000;stroke-width:0.8;" x="294.443004" xlink:href="#m5e80797e1e" y="306"/>
      </g>
     </g>
     <g id="text_4">
      <!-- 150 -->
      <g transform="translate(286.132066 320.359375)scale(0.1 -0.1)">
       <use xlink:href="#STXihei-49"/>
       <use x="55.399994" xlink:href="#STXihei-53"/>
       <use x="110.799988" xlink:href="#STXihei-48"/>
      </g>
     </g>
    </g>
    <g id="xtick_5">
     <g id="line2d_5">
      <g>
       <use style="stroke:#000000;stroke-width:0.8;" x="362.743399" xlink:href="#m5e80797e1e" y="306"/>
      </g>
     </g>
     <g id="text_5">
      <!-- 200 -->
      <defs>
       <path d="M 11.59375 49.296875 
L 4.703125 49.296875 
Q 5.203125 60.296875 12 66.9375 
Q 18.796875 73.59375 28.59375 73.59375 
Q 38.09375 73.59375 44.4375 67.34375 
Q 50.796875 61.09375 50.796875 52.09375 
Q 50.796875 45.40625 47.25 39.703125 
Q 43.703125 34 36.5 26.203125 
L 18.59375 6.90625 
L 51.796875 6.90625 
L 51.796875 0 
L 3 0 
L 30.40625 29.59375 
Q 37.59375 37.40625 40.6875 41.90625 
Q 43.796875 46.40625 43.796875 52 
Q 43.796875 58 39.25 62.390625 
Q 34.703125 66.796875 28.203125 66.796875 
Q 21.203125 66.796875 16.75 62.25 
Q 12.296875 57.703125 11.59375 49.296875 
z
" id="STXihei-50"/>
      </defs>
      <g transform="translate(354.432462 320.359375)scale(0.1 -0.1)">
       <use xlink:href="#STXihei-50"/>
       <use x="55.399994" xlink:href="#STXihei-48"/>
       <use x="110.799988" xlink:href="#STXihei-48"/>
      </g>
     </g>
    </g>
    <g id="xtick_6">
     <g id="line2d_6">
      <g>
       <use style="stroke:#000000;stroke-width:0.8;" x="431.043794" xlink:href="#m5e80797e1e" y="306"/>
      </g>
     </g>
     <g id="text_6">
      <!-- 250 -->
      <g transform="translate(422.732857 320.359375)scale(0.1 -0.1)">
       <use xlink:href="#STXihei-50"/>
       <use x="55.399994" xlink:href="#STXihei-53"/>
       <use x="110.799988" xlink:href="#STXihei-48"/>
      </g>
     </g>
    </g>
    <g id="xtick_7">
     <g id="line2d_7">
      <g>
       <use style="stroke:#000000;stroke-width:0.8;" x="499.34419" xlink:href="#m5e80797e1e" y="306"/>
      </g>
     </g>
     <g id="text_7">
      <!-- 300 -->
      <defs>
       <path d="M 13.203125 55.203125 
L 5.90625 55.203125 
Q 7.90625 64.09375 13.546875 68.84375 
Q 19.203125 73.59375 27 73.59375 
Q 35.5 73.59375 41.546875 68.1875 
Q 47.59375 62.796875 47.59375 55.09375 
Q 47.59375 45.796875 38.40625 40.40625 
Q 44.703125 37.796875 48.140625 32.640625 
Q 51.59375 27.5 51.59375 21.40625 
Q 51.59375 11.90625 44.640625 5.046875 
Q 37.703125 -1.796875 27.09375 -1.796875 
Q 17.703125 -1.796875 11.59375 3.546875 
Q 5.5 8.90625 3.5 19.203125 
L 10.5 19.203125 
Q 12.40625 12.09375 16.34375 8.640625 
Q 20.296875 5.203125 27.203125 5.203125 
Q 34.703125 5.203125 39.59375 9.796875 
Q 44.5 14.40625 44.5 20.796875 
Q 44.5 28 39.09375 32.140625 
Q 33.703125 36.296875 23.40625 36.5 
L 23.40625 43.09375 
Q 30.796875 43.09375 35.4375 46.5 
Q 40.09375 49.90625 40.09375 55.09375 
Q 40.09375 60 36.34375 63.34375 
Q 32.59375 66.703125 27 66.703125 
Q 22 66.703125 18.75 63.84375 
Q 15.5 61 13.203125 55.203125 
z
" id="STXihei-51"/>
      </defs>
      <g transform="translate(491.033252 320.359375)scale(0.1 -0.1)">
       <use xlink:href="#STXihei-51"/>
       <use x="55.399994" xlink:href="#STXihei-48"/>
       <use x="110.799988" xlink:href="#STXihei-48"/>
      </g>
     </g>
    </g>
    <g id="text_8">
     <!-- 时间（天） -->
     <defs>
      <path d="M 74.59375 51.09375 
Q 74.59375 70.59375 73.5 76 
Q 76.09375 75.296875 81.296875 75.296875 
Q 83 75.296875 83 74.5 
Q 83 73.703125 81.84375 73.046875 
Q 80.703125 72.40625 80.703125 69.09375 
L 80.703125 51.09375 
Q 89.09375 51.203125 96 51.90625 
L 96 45.203125 
Q 90.59375 45.90625 80.703125 45.90625 
L 80.703125 -3.703125 
Q 80.703125 -8.40625 79.25 -10.90625 
Q 77.796875 -13.40625 73.296875 -14.59375 
Q 68.796875 -15.796875 59.5 -15.796875 
Q 59.5 -11.09375 55.90625 -7.296875 
Q 62.59375 -8.40625 66.640625 -8.40625 
Q 70.703125 -8.40625 72.640625 -6.796875 
Q 74.59375 -5.203125 74.59375 -0.296875 
L 74.59375 46 
L 61.796875 46 
Q 50.90625 46 42.90625 45.203125 
L 42.90625 51.90625 
Q 50.796875 51.09375 61.796875 51.09375 
z
M 15.09375 4.203125 
L 15.09375 -7.59375 
L 8.296875 -7.59375 
Q 9 -1.90625 9 6.703125 
L 9 56.59375 
Q 9 64.59375 8.40625 67.703125 
Q 11.59375 66.90625 24.75 66.90625 
Q 37.90625 66.90625 41.09375 67.703125 
Q 40.5 65.09375 40.5 56.59375 
L 40.5 8.09375 
Q 40.5 1.703125 41.203125 -5.09375 
L 34.296875 -5.09375 
L 34.296875 4.203125 
z
M 34.296875 37.296875 
L 34.296875 61.796875 
L 15.09375 61.796875 
L 15.09375 37.296875 
z
M 34.296875 8.90625 
L 34.296875 32.59375 
L 15.09375 32.59375 
L 15.09375 8.90625 
z
M 68.09375 16.796875 
L 62.296875 13 
Q 57.296875 23.40625 48.296875 32.90625 
L 53.40625 36.296875 
Q 62.796875 25.296875 68.09375 16.796875 
z
" id="STXihei-26102"/>
      <path d="M 34 62.59375 
L 29 57.796875 
Q 24.203125 64.90625 14.796875 71.40625 
L 18.59375 75.796875 
Q 27.796875 69.09375 34 62.59375 
z
M 87.90625 67.703125 
Q 87.203125 64.09375 87.203125 56.40625 
L 87.203125 -4.703125 
Q 87.203125 -9.796875 86.046875 -12.140625 
Q 84.90625 -14.5 81.84375 -15.34375 
Q 78.796875 -16.203125 72.09375 -16.40625 
Q 72.40625 -12.296875 69.40625 -8.90625 
Q 74 -9.703125 76.5 -9.703125 
Q 79 -9.703125 80.140625 -8.796875 
Q 81.296875 -7.90625 81.296875 -5 
L 81.296875 61.796875 
L 62.203125 61.796875 
Q 51.5 61.796875 43.796875 61.203125 
L 43.796875 67.59375 
Q 51.296875 67 66.6875 67 
Q 82.09375 67 87.90625 67.703125 
z
M 11.796875 58 
Q 14.296875 57.09375 15.1875 56.9375 
Q 16.09375 56.796875 18.4375 56.796875 
Q 20.796875 56.796875 20.796875 56.046875 
Q 20.796875 55.296875 19.296875 54.09375 
Q 18.90625 53.796875 18.5 51.796875 
Q 18.09375 49.796875 18.09375 47.5 
L 18.09375 -16.296875 
L 11.296875 -16.296875 
Q 12.296875 -7.296875 12.296875 -2.40625 
L 12.296875 45.40625 
Q 12.296875 51.90625 11.796875 58 
z
M 68.703125 2.59375 
Q 63.203125 3.296875 49.140625 3.296875 
Q 35.09375 3.296875 29.703125 2.59375 
Q 30 7.09375 30 8.796875 
L 30 41.5 
Q 30 44.5 29.703125 47.703125 
Q 35 47 49.09375 47 
Q 63.203125 47 68.703125 47.703125 
Q 68.40625 45.203125 68.40625 41.5 
L 68.40625 8.796875 
Q 68.40625 5.203125 68.703125 2.59375 
z
M 62.59375 27.296875 
L 62.59375 42.203125 
L 35.59375 42.203125 
L 35.59375 27.296875 
z
M 35.59375 22.59375 
L 35.59375 7.796875 
L 62.59375 7.796875 
L 62.59375 22.59375 
z
" id="STXihei-38388"/>
      <path d="M 90.40625 70.59375 
Q 81.703125 60.796875 77.5 51.6875 
Q 73.296875 42.59375 73.296875 33 
Q 73.296875 16.203125 77.34375 7.453125 
Q 81.40625 -1.296875 89.90625 -10.296875 
L 86 -14.203125 
Q 76.40625 -4.796875 71.65625 6.25 
Q 66.90625 17.296875 66.90625 32.90625 
Q 66.90625 43.203125 72.046875 54.34375 
Q 77.203125 65.5 86.796875 74.09375 
z
" id="STXihei-65288"/>
      <path d="M 47.90625 62.203125 
Q 25.90625 62.203125 15.203125 61.40625 
L 15.203125 67.90625 
Q 23.703125 67.09375 51.046875 67.09375 
Q 78.40625 67.09375 86.203125 67.90625 
L 86.203125 61.40625 
Q 78.40625 62.203125 53.796875 62.203125 
Q 54.203125 46.90625 52.296875 35.40625 
Q 84.40625 35.40625 92.796875 36.203125 
L 92.796875 29.59375 
Q 84.90625 30.40625 55 30.40625 
Q 60.203125 17.90625 70.84375 7.34375 
Q 81.5 -3.203125 94.09375 -8.203125 
Q 90.09375 -9.90625 87.796875 -14.59375 
Q 57.59375 6.09375 50.59375 28.09375 
Q 47 14.59375 37.953125 4.296875 
Q 28.90625 -6 11.703125 -15.90625 
Q 10.09375 -12.59375 5.796875 -10.203125 
Q 22.40625 -2.796875 31.75 6.953125 
Q 41.09375 16.703125 44.796875 30.40625 
Q 18.5 30.40625 8.09375 29.59375 
L 8.09375 36.203125 
Q 15.90625 35.40625 46 35.40625 
Q 48.40625 46.796875 47.90625 62.203125 
z
" id="STXihei-22825"/>
      <path d="M 13.203125 74.09375 
Q 22.796875 65.5 27.9375 54.34375 
Q 33.09375 43.203125 33.09375 32.90625 
Q 33.09375 17.296875 28.34375 6.25 
Q 23.59375 -4.796875 14 -14.203125 
L 10.09375 -10.296875 
Q 18.59375 -1.296875 22.640625 7.453125 
Q 26.703125 16.203125 26.703125 33 
Q 26.703125 42.59375 22.5 51.6875 
Q 18.296875 60.796875 9.59375 70.59375 
z
" id="STXihei-65289"/>
     </defs>
     <g transform="translate(243.76 347.01875)scale(0.2 -0.2)">
      <use xlink:href="#STXihei-26102"/>
      <use x="99.999985" xlink:href="#STXihei-38388"/>
      <use x="199.999969" xlink:href="#STXihei-65288"/>
      <use x="299.999954" xlink:href="#STXihei-22825"/>
      <use x="399.999939" xlink:href="#STXihei-65289"/>
     </g>
    </g>
   </g>
   <g id="matplotlib.axis_2">
    <g id="ytick_1">
     <g id="line2d_8">
      <defs>
       <path d="M 0 0 
L -3.5 0 
" id="ma882a6c258" style="stroke:#000000;stroke-width:0.8;"/>
      </defs>
      <g>
       <use style="stroke:#000000;stroke-width:0.8;" x="69.12" xlink:href="#ma882a6c258" y="293.727273"/>
      </g>
     </g>
     <g id="text_9">
      <!-- 0.0 -->
      <defs>
       <path d="M 9.09375 4.703125 
Q 9.09375 7.203125 10.890625 8.953125 
Q 12.703125 10.703125 15.09375 10.703125 
Q 17.59375 10.703125 19.34375 8.953125 
Q 21.09375 7.203125 21.09375 4.703125 
Q 21.09375 2.09375 19.34375 0.34375 
Q 17.59375 -1.40625 15.09375 -1.40625 
Q 12.703125 -1.40625 10.890625 0.390625 
Q 9.09375 2.203125 9.09375 4.703125 
z
" id="STXihei-46"/>
      </defs>
      <g transform="translate(48.268438 297.40696)scale(0.1 -0.1)">
       <use xlink:href="#STXihei-48"/>
       <use x="55.399994" xlink:href="#STXihei-46"/>
       <use x="83.099991" xlink:href="#STXihei-48"/>
      </g>
     </g>
    </g>
    <g id="ytick_2">
     <g id="line2d_9">
      <g>
       <use style="stroke:#000000;stroke-width:0.8;" x="69.12" xlink:href="#ma882a6c258" y="244.635872"/>
      </g>
     </g>
     <g id="text_10">
      <!-- 0.2 -->
      <g transform="translate(48.268438 248.31556)scale(0.1 -0.1)">
       <use xlink:href="#STXihei-48"/>
       <use x="55.399994" xlink:href="#STXihei-46"/>
       <use x="83.099991" xlink:href="#STXihei-50"/>
      </g>
     </g>
    </g>
    <g id="ytick_3">
     <g id="line2d_10">
      <g>
       <use style="stroke:#000000;stroke-width:0.8;" x="69.12" xlink:href="#ma882a6c258" y="195.544472"/>
      </g>
     </g>
     <g id="text_11">
      <!-- 0.4 -->
      <defs>
       <path d="M 42.59375 73.59375 
L 44 73.59375 
L 44 23.59375 
L 52.703125 23.59375 
L 52.703125 16.703125 
L 44 16.703125 
L 44 0 
L 36.90625 0 
L 36.90625 16.703125 
L 2.5 16.703125 
z
M 36.90625 23.59375 
L 36.90625 53.5 
L 15.703125 23.59375 
z
" id="STXihei-52"/>
      </defs>
      <g transform="translate(48.268438 199.224159)scale(0.1 -0.1)">
       <use xlink:href="#STXihei-48"/>
       <use x="55.399994" xlink:href="#STXihei-46"/>
       <use x="83.099991" xlink:href="#STXihei-52"/>
      </g>
     </g>
    </g>
    <g id="ytick_4">
     <g id="line2d_11">
      <g>
       <use style="stroke:#000000;stroke-width:0.8;" x="69.12" xlink:href="#ma882a6c258" y="146.453071"/>
      </g>
     </g>
     <g id="text_12">
      <!-- 0.6 -->
      <defs>
       <path d="M 36.703125 73.59375 
L 42.59375 69.796875 
L 23.203125 40.40625 
Q 27.296875 41.796875 31 41.796875 
Q 39 41.796875 45 35.4375 
Q 51 29.09375 51 20.09375 
Q 51 10.796875 44.453125 4.5 
Q 37.90625 -1.796875 28.5 -1.796875 
Q 19.203125 -1.796875 12.953125 4.59375 
Q 6.703125 11 6.703125 20.203125 
Q 6.703125 24.59375 8.390625 29.25 
Q 10.09375 33.90625 14.90625 41.09375 
z
M 43.90625 20.296875 
Q 43.90625 26.59375 39.5 31 
Q 35.09375 35.40625 28.796875 35.40625 
Q 22.5 35.40625 18.09375 31 
Q 13.703125 26.59375 13.703125 20.296875 
Q 13.703125 14 18.140625 9.59375 
Q 22.59375 5.203125 28.796875 5.203125 
Q 35 5.203125 39.453125 9.59375 
Q 43.90625 14 43.90625 20.296875 
z
" id="STXihei-54"/>
      </defs>
      <g transform="translate(48.268438 150.132759)scale(0.1 -0.1)">
       <use xlink:href="#STXihei-48"/>
       <use x="55.399994" xlink:href="#STXihei-46"/>
       <use x="83.099991" xlink:href="#STXihei-54"/>
      </g>
     </g>
    </g>
    <g id="ytick_5">
     <g id="line2d_12">
      <g>
       <use style="stroke:#000000;stroke-width:0.8;" x="69.12" xlink:href="#ma882a6c258" y="97.361671"/>
      </g>
     </g>
     <g id="text_13">
      <!-- 0.8 -->
      <defs>
       <path d="M 38.40625 39.40625 
Q 52 32.703125 52 20.59375 
Q 52 11 45.25 4.59375 
Q 38.5 -1.796875 27.59375 -1.796875 
Q 16.59375 -1.796875 10 4.59375 
Q 3.40625 11 3.40625 20 
Q 3.40625 32.59375 17.296875 39.40625 
Q 6.796875 45 6.796875 54.90625 
Q 6.796875 62.296875 12.9375 67.9375 
Q 19.09375 73.59375 28.09375 73.59375 
Q 36.5 73.59375 42.59375 68.09375 
Q 48.703125 62.59375 48.703125 54.703125 
Q 48.703125 45.09375 38.40625 39.40625 
z
M 41.5 55 
Q 41.5 59.796875 37.75 63.25 
Q 34 66.703125 27.703125 66.703125 
Q 21.90625 66.703125 18 63.25 
Q 14.09375 59.796875 14.09375 54.796875 
Q 14.09375 50 18.34375 46.140625 
Q 22.59375 42.296875 28 42.296875 
Q 33.40625 42.296875 37.453125 46.09375 
Q 41.5 49.90625 41.5 55 
z
M 44.796875 20.5 
Q 44.796875 26.59375 39.84375 31.1875 
Q 34.90625 35.796875 28.09375 35.796875 
Q 20.796875 35.796875 15.6875 31.046875 
Q 10.59375 26.296875 10.59375 19.796875 
Q 10.59375 13.40625 15.296875 9.203125 
Q 20 5 27.703125 5 
Q 35.203125 5 40 9.5 
Q 44.796875 14 44.796875 20.5 
z
" id="STXihei-56"/>
      </defs>
      <g transform="translate(48.268438 101.041358)scale(0.1 -0.1)">
       <use xlink:href="#STXihei-48"/>
       <use x="55.399994" xlink:href="#STXihei-46"/>
       <use x="83.099991" xlink:href="#STXihei-56"/>
      </g>
     </g>
    </g>
    <g id="ytick_6">
     <g id="line2d_13">
      <g>
       <use style="stroke:#000000;stroke-width:0.8;" x="69.12" xlink:href="#ma882a6c258" y="48.27027"/>
      </g>
     </g>
     <g id="text_14">
      <!-- 1.0 -->
      <g transform="translate(48.268438 51.949958)scale(0.1 -0.1)">
       <use xlink:href="#STXihei-49"/>
       <use x="55.399994" xlink:href="#STXihei-46"/>
       <use x="83.099991" xlink:href="#STXihei-48"/>
      </g>
     </g>
    </g>
    <g id="text_15">
     <!-- 数量（%） -->
     <defs>
      <path d="M 24.09375 49.296875 
Q 13.296875 49.296875 7.203125 48.59375 
L 7.203125 54.5 
Q 16.5 53.796875 28.703125 53.796875 
L 28.703125 64.5 
Q 28.703125 70 27.703125 74.90625 
Q 31.703125 74.5 34.140625 74.5 
Q 36.59375 74.5 36.59375 73.796875 
Q 36.59375 73.09375 35.796875 72.796875 
Q 34.40625 72.296875 34.40625 69.203125 
L 34.40625 53.796875 
Q 43.90625 53.90625 56 54.5 
L 56 48.59375 
Q 48.40625 49.296875 34.40625 49.296875 
Q 42.59375 43 50.203125 35.5 
L 45.796875 30.90625 
Q 40.5 37.5 34.40625 43.90625 
Q 34.59375 36 35.09375 30.5 
L 28 30.5 
Q 28.703125 37.59375 28.703125 47.90625 
Q 21.203125 34.703125 9.796875 25.40625 
Q 8.40625 27.59375 5.296875 29.40625 
Q 17.296875 38.09375 24.09375 49.296875 
z
M 74.203125 12.40625 
Q 79.90625 23.796875 80.90625 48.796875 
L 64.59375 48.796875 
Q 60.796875 36.90625 55.90625 28.703125 
Q 54.90625 29.09375 53.09375 30.09375 
Q 51.296875 31.09375 50.09375 31.5 
Q 55.40625 37.90625 59.203125 50.046875 
Q 63 62.203125 63.703125 74.703125 
Q 67.796875 73 72 73 
Q 73.296875 73 73.296875 71.84375 
Q 73.296875 70.703125 72.046875 69.953125 
Q 70.796875 69.203125 69.84375 67.296875 
Q 68.90625 65.40625 66.09375 53.90625 
L 83.09375 53.90625 
Q 91.40625 53.90625 95.40625 54.703125 
L 95.40625 48.09375 
Q 92.40625 48.703125 86.59375 48.703125 
Q 84.59375 19.203125 77.40625 7.09375 
Q 85.09375 -3.703125 96.703125 -8 
Q 93.796875 -10.59375 91.90625 -14.203125 
Q 82 -7.09375 74.296875 2.59375 
Q 66.09375 -7.703125 50.90625 -16.296875 
Q 49.203125 -13.90625 45.296875 -10.703125 
Q 52.203125 -8.703125 59.296875 -3.796875 
Q 66.40625 1.09375 70.90625 7 
Q 64.203125 17.09375 60.796875 32.703125 
L 66.40625 34.203125 
Q 66.796875 24.90625 74.203125 12.40625 
z
M 47.296875 71.703125 
Q 50 69.40625 51.703125 68.546875 
Q 53.40625 67.703125 53.40625 66.796875 
Q 53.40625 65.90625 52.25 65.59375 
Q 51.09375 65.296875 49.25 63.34375 
Q 47.40625 61.40625 43.203125 55.59375 
Q 41.59375 56.703125 38.59375 57.703125 
Q 44.59375 64.09375 47.296875 71.703125 
z
M 23.796875 59.203125 
L 18.703125 56.203125 
Q 14.796875 63.203125 10.796875 67.90625 
L 15.09375 70.5 
Q 20 65 23.796875 59.203125 
z
M 41.5 1.40625 
Q 47.5 -1 52.5 -3.5 
Q 50.40625 -5.296875 48.5 -8.5 
Q 43 -5.09375 37.296875 -2.59375 
Q 29.703125 -8.90625 11.703125 -14.203125 
Q 11 -10.796875 8.203125 -7.703125 
Q 23 -6 31.59375 -0.203125 
Q 23.09375 3 14.703125 4.703125 
Q 18.90625 10.5 21.796875 15.703125 
Q 12.90625 15.59375 7.296875 14.90625 
L 7.296875 20.90625 
Q 12.703125 20.5 24.09375 20.296875 
Q 25.90625 23.90625 27.90625 29.90625 
Q 31.203125 28.296875 33.34375 27.84375 
Q 35.5 27.40625 35.5 26.546875 
Q 35.5 25.703125 34.046875 25 
Q 32.59375 24.296875 30.09375 20.296875 
L 44.296875 20.296875 
Q 49.296875 20.296875 52.203125 21 
Q 47.203125 7.796875 41.5 1.40625 
z
M 27.59375 15.703125 
L 23.203125 7.5 
Q 29.703125 5.796875 36 3.40625 
Q 40.796875 8.203125 43.5 15.703125 
z
" id="STXihei-25968"/>
      <path d="M 81.203125 46.796875 
Q 78.296875 47.296875 50 47.296875 
Q 21.703125 47.296875 18.796875 46.796875 
Q 19.296875 53.59375 19.296875 58.75 
Q 19.296875 63.90625 18.796875 70.09375 
Q 21.796875 69.40625 49.390625 69.40625 
Q 77 69.40625 81.09375 70.09375 
Q 80.90625 62.796875 80.90625 57.796875 
Q 80.90625 52.796875 81.203125 46.796875 
z
M 75.09375 59.703125 
L 75.09375 65.5 
L 25.09375 65.5 
L 25.09375 59.703125 
z
M 25.09375 56.09375 
L 25.09375 50.90625 
L 75.09375 50.90625 
L 75.09375 56.09375 
z
M 94.5 38.203125 
Q 77.203125 39 47.75 39 
Q 18.296875 39 4.703125 38.203125 
L 4.703125 44 
Q 23.5 43.296875 49.546875 43.296875 
Q 75.59375 43.296875 94.5 44 
z
M 52.90625 -0.40625 
L 52.90625 -9 
Q 75.90625 -9 92.40625 -8 
L 92.40625 -14.203125 
Q 78.40625 -13.09375 49.703125 -13.09375 
Q 21 -13.09375 7.296875 -14.203125 
L 7.296875 -8 
Q 23.90625 -9 47.203125 -9 
L 47.203125 -0.40625 
Q 26.59375 -0.40625 14.5 -1.59375 
L 14.5 4.90625 
Q 28.40625 3.703125 47.203125 3.703125 
L 47.203125 10.09375 
Q 23.59375 10 18.09375 9.203125 
Q 18.5 15.296875 18.5 20.546875 
Q 18.5 25.796875 18.09375 35.5 
Q 23.296875 34.296875 49.1875 34.296875 
Q 75.09375 34.296875 82 35.5 
Q 81.59375 25.90625 81.59375 20.296875 
Q 81.59375 14.703125 82.09375 9.203125 
Q 77.90625 10.09375 52.90625 10.09375 
L 52.90625 3.703125 
Q 73.5 3.796875 84.90625 4.90625 
L 84.90625 -1.59375 
Q 73.5 -0.5 52.90625 -0.40625 
z
M 75.59375 23.90625 
L 75.59375 30.09375 
L 52.90625 30.09375 
L 52.90625 23.90625 
z
M 47.203125 23.90625 
L 47.203125 30.09375 
L 24.296875 30.09375 
L 24.296875 23.90625 
z
M 52.90625 20.296875 
L 52.90625 14.40625 
L 75.59375 14.40625 
L 75.59375 20.296875 
z
M 24.296875 20.296875 
L 24.296875 14.40625 
L 47.203125 14.40625 
L 47.203125 20.296875 
z
" id="STXihei-37327"/>
      <path d="M 67.40625 75 
L 15.09375 -5 
L 8.59375 -5 
L 56.296875 67.90625 
Q 50.5 66.5 44.453125 66.09375 
Q 38.40625 65.703125 35.59375 65.796875 
L 33 65.90625 
Q 36 61.703125 36 57 
Q 36 49.796875 31.140625 44.75 
Q 26.296875 39.703125 19 39.703125 
Q 12 39.703125 7.09375 44.59375 
Q 2.203125 49.5 2.203125 56.59375 
Q 2.203125 63.703125 7.25 68.59375 
Q 12.296875 73.5 18.90625 73.5 
Q 21.59375 73.5 25 72.796875 
Q 31.59375 71.40625 38.90625 71.40625 
Q 50.5 71.40625 61.703125 75 
z
M 29.90625 56.703125 
Q 29.90625 61.203125 26.75 64.296875 
Q 23.59375 67.40625 19.09375 67.40625 
Q 14.703125 67.40625 11.546875 64.25 
Q 8.40625 61.09375 8.40625 56.703125 
Q 8.40625 52.296875 11.546875 49.140625 
Q 14.703125 46 19.09375 46 
Q 23.59375 46 26.75 49.09375 
Q 29.90625 52.203125 29.90625 56.703125 
z
M 41.5 14.796875 
Q 41.5 21.703125 46.453125 26.703125 
Q 51.40625 31.703125 58.296875 31.703125 
Q 65.296875 31.703125 70.25 26.75 
Q 75.203125 21.796875 75.203125 14.796875 
Q 75.203125 7.796875 70.25 2.84375 
Q 65.296875 -2.09375 58.296875 -2.09375 
Q 51.40625 -2.09375 46.453125 2.84375 
Q 41.5 7.796875 41.5 14.796875 
z
M 69.09375 14.796875 
Q 69.09375 19.203125 65.9375 22.34375 
Q 62.796875 25.5 58.296875 25.5 
Q 53.90625 25.5 50.796875 22.34375 
Q 47.703125 19.203125 47.703125 14.796875 
Q 47.703125 10.40625 50.796875 7.25 
Q 53.90625 4.09375 58.296875 4.09375 
Q 62.796875 4.09375 65.9375 7.1875 
Q 69.09375 10.296875 69.09375 14.796875 
z
" id="STXihei-37"/>
     </defs>
     <g transform="translate(29.387188 218.75)rotate(-90)scale(0.2 -0.2)">
      <use xlink:href="#STXihei-25968"/>
      <use x="99.999985" xlink:href="#STXihei-37327"/>
      <use x="199.999969" xlink:href="#STXihei-65288"/>
      <use x="299.999954" xlink:href="#STXihei-37"/>
      <use x="377.499939" xlink:href="#STXihei-65289"/>
     </g>
    </g>
   </g>
   <g id="line2d_14">
    <path clip-path="url(#p2252e11873)" d="M 89.541818 48.272727 
L 166.038261 48.46971 
L 185.162372 48.754792 
L 198.822451 49.180277 
L 208.384506 49.682278 
L 216.580553 50.324628 
L 223.410593 51.073907 
L 228.874625 51.861123 
L 234.338656 52.862653 
L 239.802688 54.1327 
L 243.900711 55.300324 
L 247.998735 56.687471 
L 252.096759 58.329858 
L 256.194783 60.266687 
L 260.292806 62.539975 
L 263.024822 64.263973 
L 265.756838 66.169908 
L 268.488854 68.270438 
L 271.22087 70.577489 
L 273.952885 73.101799 
L 276.684901 75.852394 
L 279.416917 78.836017 
L 282.148933 82.056495 
L 286.246957 87.330904 
L 290.34498 93.12122 
L 294.443004 99.3865 
L 298.541028 106.05988 
L 304.005059 115.430478 
L 320.397154 144.022929 
L 324.495178 150.621964 
L 328.593202 156.798674 
L 332.691225 162.492302 
L 336.789249 167.667988 
L 339.521265 170.824255 
L 342.253281 173.74658 
L 344.985296 176.439922 
L 347.717312 178.911873 
L 350.449328 181.17207 
L 353.181344 183.231597 
L 357.279368 185.97117 
L 361.377391 188.329081 
L 365.475415 190.348152 
L 369.573439 192.069664 
L 373.671462 193.532178 
L 377.769486 194.770917 
L 381.86751 195.81748 
L 387.331542 196.961757 
L 392.795573 197.870408 
L 399.625613 198.745314 
L 406.455652 199.397364 
L 414.6517 199.963144 
L 425.579763 200.462231 
L 439.239842 200.82804 
L 458.363953 201.080507 
L 488.416126 201.22038 
L 497.978182 201.237756 
L 497.978182 201.237756 
" style="fill:none;stroke:#1f77b4;stroke-linecap:square;stroke-width:1.5;"/>
   </g>
   <g id="line2d_15">
    <path clip-path="url(#p2252e11873)" d="M 89.541818 293.727273 
L 204.286482 293.530511 
L 224.776601 293.229793 
L 238.43668 292.817128 
L 249.364743 292.274567 
L 258.926798 291.580178 
L 267.122846 290.786004 
L 276.684901 289.619893 
L 291.710988 287.476749 
L 299.907036 286.419121 
L 305.371067 285.890952 
L 310.835099 285.571423 
L 316.29913 285.496593 
L 321.763162 285.673768 
L 327.227194 286.079965 
L 334.057233 286.836266 
L 344.985296 288.33937 
L 357.279368 289.999295 
L 366.841423 291.058452 
L 376.403478 291.870792 
L 385.965534 292.461251 
L 396.893597 292.923001 
L 410.553676 293.277999 
L 429.677787 293.531498 
L 459.72996 293.675012 
L 497.978182 293.717622 
L 497.978182 293.717622 
" style="fill:none;stroke:#ff7f0e;stroke-linecap:square;stroke-width:1.5;"/>
   </g>
   <g id="line2d_16">
    <path clip-path="url(#p2252e11873)" d="M 89.541818 293.727273 
L 213.848538 293.575277 
L 235.704664 293.323419 
L 250.730751 292.958279 
L 264.39083 292.399796 
L 276.684901 291.673583 
L 305.371067 289.809113 
L 313.567115 289.614753 
L 320.397154 289.666945 
L 328.593202 289.969707 
L 339.521265 290.646451 
L 362.743399 292.18097 
L 375.03747 292.748268 
L 388.697549 293.161375 
L 406.455652 293.45941 
L 432.409802 293.640413 
L 482.952095 293.717897 
L 497.978182 293.722447 
L 497.978182 293.722447 
" style="fill:none;stroke:#2ca02c;stroke-linecap:square;stroke-width:1.5;"/>
   </g>
   <g id="line2d_17">
    <path clip-path="url(#p2252e11873)" d="M 89.541818 293.727273 
L 220.678577 293.621469 
L 246.632727 293.393331 
L 264.39083 293.032008 
L 280.782925 292.469806 
L 312.201107 291.277057 
L 321.763162 291.216393 
L 331.325217 291.380349 
L 344.985296 291.882478 
L 370.939447 292.892431 
L 387.331542 293.282692 
L 407.82166 293.537474 
L 439.239842 293.678604 
L 497.978182 293.723617 
L 497.978182 293.723617 
" style="fill:none;stroke:#d62728;stroke-linecap:square;stroke-width:1.5;"/>
   </g>
   <g id="line2d_18">
    <path clip-path="url(#p2252e11873)" d="M 89.541818 293.727273 
L 232.972648 293.617086 
L 260.292806 293.37283 
L 280.782925 292.972795 
L 314.933123 292.23271 
L 327.227194 292.261776 
L 342.253281 292.551614 
L 377.769486 293.338977 
L 400.991621 293.575268 
L 437.873834 293.69627 
L 497.978182 293.725081 
L 497.978182 293.725081 
" style="fill:none;stroke:#9467bd;stroke-linecap:square;stroke-width:1.5;"/>
   </g>
   <g id="line2d_19">
    <path clip-path="url(#p2252e11873)" d="M 89.541818 293.724816 
L 181.064348 293.717818 
L 241.168696 293.583661 
L 267.122846 293.309876 
L 293.076996 292.783698 
L 312.201107 292.478685 
L 325.861186 292.507477 
L 342.253281 292.791295 
L 375.03747 293.399184 
L 400.991621 293.612948 
L 444.703874 293.710088 
L 497.978182 293.725636 
L 497.978182 293.725636 
" style="fill:none;stroke:#8c564b;stroke-linecap:square;stroke-width:1.5;"/>
   </g>
   <g id="line2d_20">
    <path clip-path="url(#p2252e11873)" d="M 89.541818 293.727273 
L 256.194783 293.618771 
L 294.443004 293.337994 
L 320.397154 293.223321 
L 344.985296 293.376594 
L 388.697549 293.650978 
L 447.435889 293.721174 
L 497.978182 293.726619 
L 497.978182 293.726619 
" style="fill:none;stroke:#e377c2;stroke-linecap:square;stroke-width:1.5;"/>
   </g>
   <g id="line2d_21">
    <path clip-path="url(#p2252e11873)" d="M 89.541818 293.727273 
L 175.600316 293.527086 
L 194.724427 293.241016 
L 208.384506 292.81419 
L 217.946561 292.310823 
L 226.142609 291.667062 
L 232.972648 290.916609 
L 238.43668 290.1287 
L 243.900711 289.127087 
L 249.364743 287.858195 
L 253.462767 286.692851 
L 257.560791 285.309905 
L 261.658814 283.674545 
L 265.756838 281.748777 
L 269.854862 279.492188 
L 272.586877 277.783437 
L 275.318893 275.896859 
L 278.050909 273.820599 
L 280.782925 271.543597 
L 283.514941 269.056039 
L 286.246957 266.349842 
L 288.978972 263.419173 
L 291.710988 260.261004 
L 295.809012 255.098915 
L 299.907036 249.444221 
L 304.005059 243.33668 
L 308.103083 236.839277 
L 313.567115 227.719509 
L 331.325217 197.537645 
L 335.423241 191.127578 
L 339.521265 185.117905 
L 343.619289 179.562961 
L 347.717312 174.494857 
L 351.815336 169.925379 
L 354.547352 167.153973 
L 357.279368 164.596906 
L 360.011383 162.246887 
L 362.743399 160.094946 
L 366.841423 157.215909 
L 370.939447 154.721928 
L 375.03747 152.573845 
L 379.135494 150.73278 
L 383.233518 149.16148 
L 387.331542 147.825236 
L 391.429565 146.69234 
L 396.893597 145.449403 
L 402.357628 144.459161 
L 407.82166 143.672619 
L 414.6517 142.915064 
L 422.847747 142.256036 
L 432.409802 141.731956 
L 444.703874 141.311891 
L 461.095968 141.010697 
L 485.684111 140.822578 
L 497.978182 140.782406 
L 497.978182 140.782406 
" style="fill:none;stroke:#7f7f7f;stroke-linecap:square;stroke-width:1.5;"/>
   </g>
   <g id="patch_3">
    <path d="M 69.12 306 
L 69.12 36 
" style="fill:none;stroke:#000000;stroke-linecap:square;stroke-linejoin:miter;stroke-width:0.8;"/>
   </g>
   <g id="patch_4">
    <path d="M 518.4 306 
L 518.4 36 
" style="fill:none;stroke:#000000;stroke-linecap:square;stroke-linejoin:miter;stroke-width:0.8;"/>
   </g>
   <g id="patch_5">
    <path d="M 69.12 306 
L 518.4 306 
" style="fill:none;stroke:#000000;stroke-linecap:square;stroke-linejoin:miter;stroke-width:0.8;"/>
   </g>
   <g id="patch_6">
    <path d="M 69.12 36 
L 518.4 36 
" style="fill:none;stroke:#000000;stroke-linecap:square;stroke-linejoin:miter;stroke-width:0.8;"/>
   </g>
   <g id="text_16">
    <!-- SEAIQ模型 -->
    <defs>
     <path d="M 1.296875 13.40625 
L 7.40625 17 
Q 13.796875 5.203125 22.296875 5.203125 
Q 27.796875 5.203125 31.6875 8.703125 
Q 35.59375 12.203125 35.59375 17.40625 
Q 35.59375 21.5 32.296875 25.703125 
Q 29 29.90625 20.796875 36 
Q 13.703125 41.40625 11.046875 44.25 
Q 8.40625 47.09375 7.15625 50.34375 
Q 5.90625 53.59375 5.90625 56.90625 
Q 5.90625 63.90625 10.84375 68.75 
Q 15.796875 73.59375 23.296875 73.59375 
Q 29.203125 73.59375 33.59375 70.640625 
Q 38 67.703125 42.09375 61.90625 
L 36.296875 57.40625 
Q 33.5 61.203125 30.5 63.703125 
Q 27.5 66.203125 23.09375 66.203125 
Q 18.796875 66.203125 16.046875 63.59375 
Q 13.296875 61 13.296875 57.09375 
Q 13.296875 53 15.75 50.046875 
Q 18.203125 47.09375 27.09375 40.59375 
Q 35.5 34.296875 39.453125 28.890625 
Q 43.40625 23.5 43.40625 17.5 
Q 43.40625 9.703125 37.34375 3.953125 
Q 31.296875 -1.796875 23.296875 -1.796875 
Q 9.203125 -1.796875 1.296875 13.40625 
z
" id="STXihei-83"/>
     <path d="M 8.796875 71.796875 
L 50 71.796875 
L 50 64.703125 
L 16 64.703125 
L 16 42.296875 
L 49.703125 42.296875 
L 49.703125 35.296875 
L 16 35.296875 
L 16 7.09375 
L 49.703125 7.09375 
L 49.703125 0 
L 8.796875 0 
z
" id="STXihei-69"/>
     <path d="M 38.09375 74.703125 
L 71.59375 0 
L 63.90625 0 
L 52.59375 24.5 
L 21.59375 24.5 
L 10.40625 0 
L 2.40625 0 
L 36.296875 74.703125 
z
M 37.203125 58.796875 
L 24.90625 31.796875 
L 49.40625 31.796875 
z
" id="STXihei-65"/>
     <path d="M 7.703125 71.796875 
L 14.90625 71.796875 
L 14.90625 0 
L 7.703125 0 
z
" id="STXihei-73"/>
     <path d="M 69 7.796875 
L 79.59375 -5.703125 
L 70.796875 -5.703125 
L 63.5 3.59375 
Q 54.59375 -1.796875 44.09375 -1.796875 
Q 27.796875 -1.796875 16.75 9.046875 
Q 5.703125 19.90625 5.703125 35.59375 
Q 5.703125 51.703125 16.390625 62.640625 
Q 27.09375 73.59375 43.5 73.59375 
Q 53.796875 73.59375 62.546875 68.59375 
Q 71.296875 63.59375 76.296875 54.890625 
Q 81.296875 46.203125 81.296875 35.90625 
Q 81.296875 19.40625 69 7.796875 
z
M 64.59375 13.40625 
Q 73.90625 22.59375 73.90625 35.90625 
Q 73.90625 48.796875 64.90625 57.6875 
Q 55.90625 66.59375 43.5 66.59375 
Q 30.90625 66.59375 22.046875 57.59375 
Q 13.203125 48.59375 13.203125 35.59375 
Q 13.203125 22.5 22.203125 13.84375 
Q 31.203125 5.203125 43.59375 5.203125 
Q 51.90625 5.203125 59 9.296875 
L 43 29.59375 
L 51.703125 29.59375 
z
" id="STXihei-81"/>
     <path d="M 26.90625 53.90625 
Q 34.59375 53.90625 39.5 54.703125 
L 39.5 48.203125 
Q 34.59375 49 26.90625 49 
L 26.90625 40.5 
Q 33.40625 35.296875 40.09375 28.5 
L 35 24.203125 
Q 31.703125 30.296875 26.90625 34.796875 
L 26.90625 2.59375 
Q 26.90625 -7.09375 27.703125 -16.203125 
L 20.203125 -16.203125 
Q 21 -5.703125 21 2.59375 
L 21 32.703125 
Q 15.90625 16.90625 8.90625 6.40625 
Q 6.703125 9.703125 2.5 10.5 
Q 8.5 16.796875 13.59375 27.59375 
Q 18.703125 38.40625 20.90625 49 
Q 11.09375 49 5.296875 48.203125 
L 5.296875 54.703125 
Q 11.09375 53.90625 21 53.90625 
Q 21 68.40625 20 75.203125 
Q 23.90625 74.296875 27.796875 74.296875 
Q 29.5 74.296875 29.5 73.640625 
Q 29.5 73 28.203125 71.5 
Q 26.90625 70 26.90625 65.40625 
z
M 78.90625 65 
Q 88.40625 65 94.703125 65.796875 
L 94.703125 59.5 
Q 88.40625 60.296875 78.90625 60.296875 
L 78.90625 52.90625 
L 73.09375 52.90625 
L 73.09375 60.296875 
L 59.09375 60.296875 
L 59.09375 52.796875 
L 53.59375 52.796875 
L 53.59375 60.296875 
Q 45 60.296875 38.796875 59.5 
L 38.796875 65.796875 
Q 45 65 53.59375 65 
Q 53.5 71.59375 53 74.90625 
Q 56.90625 74.296875 59.796875 74.296875 
Q 60.796875 74.296875 60.796875 73.640625 
Q 60.796875 73 60.203125 72.59375 
Q 59.09375 72 59.09375 69.5 
L 59.09375 65 
L 73.09375 65 
Q 73.09375 71.90625 72.5 74.796875 
Q 76.296875 74.203125 79.59375 74.203125 
Q 80.59375 74.203125 80.59375 73.703125 
Q 80.59375 73.203125 80 72.796875 
Q 78.90625 72.09375 78.90625 69.703125 
z
M 69.09375 9.09375 
Q 77.59375 -3.5 97 -10 
Q 94.296875 -11.59375 92.5 -15.796875 
Q 74.203125 -6.40625 66.09375 6 
Q 63.5 -1.5 57 -6.796875 
Q 50.5 -12.09375 37.90625 -16.796875 
Q 36.59375 -13.203125 32.90625 -11 
Q 45.40625 -8.09375 52.203125 -3.296875 
Q 59 1.5 61.5 9.09375 
Q 43.296875 9.09375 36.59375 8.09375 
L 36.59375 14.59375 
Q 44.09375 13.59375 62.5 13.59375 
Q 63.203125 17.5 63.09375 21.90625 
Q 51.40625 21.90625 44 21.59375 
Q 44.40625 30.703125 44.40625 37.890625 
Q 44.40625 45.09375 44 50.703125 
Q 50.703125 50.203125 58.703125 50.203125 
L 75.59375 50.203125 
Q 82.703125 50.203125 88.90625 50.703125 
Q 88.703125 43.40625 88.703125 37.046875 
Q 88.703125 30.703125 88.90625 21.5 
Q 82.296875 21.90625 68.59375 21.90625 
Q 68.40625 17.09375 67.90625 13.59375 
Q 90.203125 13.59375 96.796875 14.59375 
L 96.796875 8.09375 
Q 89.5 9.09375 69.09375 9.09375 
z
M 49.796875 38.296875 
L 83.09375 38.296875 
L 83.09375 45.703125 
L 49.796875 45.703125 
z
M 83.09375 33.703125 
L 49.796875 33.703125 
L 49.796875 26.40625 
L 83.09375 26.40625 
z
" id="STXihei-27169"/>
     <path d="M 81.59375 74 
Q 83.90625 73.40625 85.546875 73.34375 
Q 87.203125 73.296875 88.703125 73.296875 
Q 90.203125 73.296875 90.203125 72.4375 
Q 90.203125 71.59375 89.09375 71 
Q 88 70.40625 88 68.40625 
L 88 30.203125 
Q 88 26.09375 87.046875 24 
Q 86.09375 21.90625 83 20.796875 
Q 79.90625 19.703125 73.5 19.59375 
Q 74 23.40625 71.203125 26.5 
Q 75.40625 25.703125 77.796875 25.703125 
Q 80.203125 25.703125 81.296875 26.703125 
Q 82.40625 27.703125 82.40625 30.796875 
L 82.40625 57.59375 
Q 82.40625 67.796875 81.59375 74 
z
M 24.90625 64 
Q 17.09375 63.703125 13.40625 63.296875 
L 13.40625 69 
Q 22 68.203125 36.09375 68.203125 
Q 50.203125 68.203125 58.796875 69 
L 58.796875 63.296875 
Q 54.40625 63.796875 48.40625 63.90625 
L 48.40625 48 
Q 55.703125 48.09375 61.796875 48.703125 
L 61.796875 42.703125 
Q 57.203125 43.296875 48.40625 43.40625 
Q 48.40625 31.09375 49.296875 24.09375 
L 42 24.09375 
Q 42.90625 31.09375 42.90625 43.40625 
L 29.703125 43.40625 
Q 28.796875 35.59375 25.890625 29.9375 
Q 23 24.296875 16.59375 18.40625 
Q 14 21.09375 10.203125 22.59375 
Q 16.90625 26.703125 20 31.453125 
Q 23.09375 36.203125 24.09375 43.296875 
Q 15.703125 43.296875 9.796875 42.703125 
L 9.796875 48.703125 
Q 16.296875 48.09375 24.703125 48 
Q 25.09375 52.09375 25.09375 56.1875 
Q 25.09375 60.296875 24.90625 64 
z
M 42.90625 64 
L 30.296875 64.09375 
Q 30.5 60.203125 30.5 56.203125 
Q 30.5 52.203125 30.203125 48 
L 42.90625 48 
z
M 65.09375 67.40625 
Q 67.40625 66.59375 72.09375 66.59375 
Q 73.203125 66.59375 73.203125 65.9375 
Q 73.203125 65.296875 72.140625 64.640625 
Q 71.09375 64 71.09375 62 
L 71.09375 46 
Q 71.09375 40.09375 71.796875 31.703125 
L 65.203125 31.703125 
Q 65.90625 38 65.90625 46 
L 65.90625 56.296875 
Q 65.90625 63.296875 65.09375 67.40625 
z
M 47.296875 7.296875 
Q 28.203125 7.203125 17.40625 6.203125 
L 17.40625 12.90625 
Q 28.203125 11.90625 47.296875 11.796875 
Q 47.203125 19.40625 46.59375 22.703125 
Q 51 22.09375 53.453125 22.09375 
Q 55.90625 22.09375 55.90625 21.390625 
Q 55.90625 20.703125 54.59375 19.703125 
Q 53.296875 18.703125 53.296875 16.203125 
L 53.296875 11.796875 
Q 73.59375 11.796875 84.203125 12.90625 
L 84.203125 6.203125 
Q 73.203125 7.296875 53.296875 7.296875 
L 53.296875 -5.90625 
Q 79.09375 -5.796875 93.59375 -4.59375 
L 93.59375 -11.90625 
Q 77.796875 -10.703125 50.09375 -10.703125 
Q 22.40625 -10.703125 6.59375 -11.90625 
L 6.59375 -4.59375 
Q 23.09375 -5.90625 47.296875 -5.90625 
z
" id="STXihei-22411"/>
    </defs>
    <g transform="translate(240.181406 30)scale(0.22 -0.22)">
     <use xlink:href="#STXihei-83"/>
     <use x="49.799988" xlink:href="#STXihei-69"/>
     <use x="103.399979" xlink:href="#STXihei-65"/>
     <use x="177.399963" xlink:href="#STXihei-73"/>
     <use x="199.999954" xlink:href="#STXihei-81"/>
     <use x="287.099945" xlink:href="#STXihei-27169"/>
     <use x="387.09993" xlink:href="#STXihei-22411"/>
    </g>
   </g>
   <g id="legend_1">
    <g id="patch_7">
     <path d="M 77.52 241.575937 
L 235.92 241.575937 
Q 238.32 241.575937 238.32 239.175937 
L 238.32 102.824062 
Q 238.32 100.424062 235.92 100.424062 
L 77.52 100.424062 
Q 75.12 100.424062 75.12 102.824062 
L 75.12 239.175937 
Q 75.12 241.575937 77.52 241.575937 
z
" style="fill:#ffffff;opacity:0.8;stroke:#cccccc;stroke-linejoin:miter;"/>
    </g>
    <g id="line2d_22">
     <path d="M 79.92 109.855312 
L 103.92 109.855312 
" style="fill:none;stroke:#1f77b4;stroke-linecap:square;stroke-width:1.5;"/>
    </g>
    <g id="line2d_23"/>
    <g id="text_17">
     <!-- 易感染者 -->
     <defs>
      <path d="M 70.296875 22.796875 
Q 61.703125 1 38.40625 -16.203125 
Q 36 -13.203125 31.09375 -12 
Q 43 -5.90625 51.59375 3.140625 
Q 60.203125 12.203125 63.90625 22.796875 
L 50.296875 22.796875 
Q 41.296875 6.40625 19.40625 -8.796875 
Q 17.703125 -5.296875 13.296875 -4.203125 
Q 36.40625 7.40625 44.09375 22.796875 
L 28.59375 22.796875 
Q 21.90625 15.5 12.5 9 
Q 10.59375 12.40625 6.203125 13.40625 
Q 14.90625 17.59375 22.046875 23.9375 
Q 29.203125 30.296875 32.796875 37 
Q 25.5 36.90625 21.296875 36.59375 
Q 22.09375 39.203125 22.09375 43.203125 
L 22.09375 63.40625 
Q 22.09375 67.40625 21.296875 70.203125 
Q 26.703125 69.703125 49.59375 69.703125 
Q 72.5 69.703125 78.59375 70.203125 
Q 77.59375 67.90625 77.59375 63.40625 
L 77.59375 43.203125 
Q 77.59375 38.703125 78.59375 36.59375 
Q 71.703125 37.09375 39.5 37.09375 
Q 36.5 32.5 32.59375 27.5 
L 67.59375 27.5 
Q 81.703125 27.5 87.796875 28.203125 
L 84.796875 -0.203125 
Q 84.203125 -6.296875 82.796875 -9.046875 
Q 81.40625 -11.796875 77.953125 -13.09375 
Q 74.5 -14.40625 66.703125 -15.5 
Q 66.40625 -11.90625 63.203125 -8.203125 
Q 66.5 -8.40625 68.59375 -8.40625 
Q 74.5 -8.40625 76.34375 -6.796875 
Q 78.203125 -5.203125 78.703125 -0.09375 
L 81 22.796875 
z
M 28.203125 55.296875 
L 71.59375 55.296875 
L 71.59375 65.09375 
L 28.203125 65.09375 
z
M 71.59375 50.59375 
L 28.203125 50.59375 
L 28.203125 41.203125 
L 71.59375 41.203125 
z
" id="STXihei-26131"/>
      <path d="M 82.40625 68 
L 77.703125 63.796875 
Q 74.5 68.90625 68.203125 72.09375 
L 72.40625 76.59375 
Q 78.796875 71.90625 82.40625 68 
z
M 56.59375 58.5 
L 19.203125 58.5 
Q 19.203125 40.703125 17.703125 30.84375 
Q 16.203125 21 11.5 11.203125 
Q 8.59375 13.40625 4.703125 14.203125 
Q 9.40625 20.296875 11.453125 28.25 
Q 13.5 36.203125 13.5 49 
Q 13.5 55.5 13 64 
Q 15.90625 63.296875 56.09375 63.296875 
Q 55.59375 68.796875 55.40625 76 
Q 58.5 74.90625 62.703125 74.90625 
Q 64.203125 74.90625 64.203125 74.046875 
Q 64.203125 73.203125 63.34375 72.59375 
Q 62.5 72 62.203125 71 
Q 61.90625 70 61.90625 68 
Q 61.90625 66 62 63.296875 
Q 84.40625 63.296875 87.90625 64 
L 87.90625 57.796875 
Q 80.296875 58.5 62.296875 58.5 
Q 63.5 46.59375 69.296875 34.90625 
Q 75.09375 42.90625 78.09375 51.59375 
Q 81.40625 49.09375 84.40625 48.09375 
Q 85.40625 47.796875 85.40625 47.140625 
Q 85.40625 46.5 83.796875 45.84375 
Q 82.203125 45.203125 79.796875 41.40625 
Q 75.59375 34.59375 72 30 
Q 75.703125 23.90625 78.703125 21.25 
Q 81.703125 18.59375 83.546875 18.59375 
Q 85.40625 18.59375 86.296875 20.84375 
Q 87.203125 23.09375 87.59375 27.703125 
Q 90 24.703125 93.59375 24.09375 
Q 92.40625 19.703125 90.453125 16.046875 
Q 88.5 12.40625 85.09375 12.40625 
Q 76.59375 12.40625 68.09375 25 
Q 62.796875 18.203125 55.90625 11.703125 
Q 53.90625 13.90625 50.09375 15.09375 
Q 57.203125 20.296875 65.296875 29.59375 
Q 58.90625 41.09375 56.59375 58.5 
z
M 23.5 51 
Q 29.09375 50.40625 38.796875 50.40625 
Q 48.5 50.40625 54 51 
L 54 45.203125 
Q 49.703125 45.796875 38.75 45.796875 
Q 27.796875 45.796875 23.5 45.203125 
z
M 52.40625 39 
Q 51.796875 33.59375 51.796875 28.4375 
Q 51.796875 23.296875 52.296875 18.796875 
Q 48.40625 19.203125 38.75 19.203125 
Q 29.09375 19.203125 24.90625 18.796875 
Q 25.59375 24.703125 25.59375 30 
Q 25.59375 35.296875 24.90625 39 
Q 30.40625 38.296875 38.59375 38.296875 
Q 46.796875 38.296875 52.40625 39 
z
M 46.40625 23.40625 
L 46.40625 34.09375 
L 31 34.09375 
L 31 23.40625 
z
M 59 4.09375 
L 54.59375 -0.203125 
Q 47.90625 7.09375 41.5 11.40625 
L 45.5 15.703125 
Q 52.703125 10.703125 59 4.09375 
z
M 74.5 -1.5 
Q 73.296875 -6.59375 71 -9.09375 
Q 68.703125 -11.59375 63.84375 -12.4375 
Q 59 -13.296875 48.140625 -13.296875 
Q 37.296875 -13.296875 34.140625 -12.640625 
Q 31 -12 29.84375 -10.09375 
Q 28.703125 -8.203125 28.703125 -4.40625 
L 28.703125 7.59375 
Q 28.703125 11.90625 28.296875 13.40625 
Q 31 12.5 35.40625 12.5 
Q 36.796875 12.5 36.796875 11.84375 
Q 36.796875 11.203125 35.75 10.25 
Q 34.703125 9.296875 34.703125 6.90625 
L 34.703125 -4 
Q 34.703125 -6.296875 37.046875 -7.1875 
Q 39.40625 -8.09375 48.59375 -8.09375 
Q 55.203125 -8.09375 59.890625 -7.34375 
Q 64.59375 -6.59375 66.296875 -4.6875 
Q 68 -2.796875 68.296875 2.703125 
Q 70.796875 -0.59375 74.5 -1.5 
z
M 23 9.296875 
Q 18.59375 -2.59375 12.5 -11.5 
L 6.296875 -8.296875 
Q 14.296875 0.09375 17.203125 11.40625 
z
M 93.90625 -5.90625 
L 88.5 -10.5 
Q 81.90625 -1 73.296875 5.90625 
L 77.703125 10.296875 
Q 86.5 3.40625 93.90625 -5.90625 
z
" id="STXihei-24863"/>
      <path d="M 61.5 56.40625 
Q 60.5 48.09375 55.640625 41.34375 
Q 50.796875 34.59375 40.90625 27.203125 
Q 39.09375 30.59375 34.90625 31.90625 
Q 53.703125 40.796875 56 56.09375 
Q 46.40625 55.703125 40.5 54.59375 
L 40.5 60.59375 
Q 43.5 60.40625 47.296875 60.40625 
Q 51.09375 60.40625 56.5 60.703125 
Q 56.703125 63.796875 56.703125 67.34375 
Q 56.703125 70.90625 55.796875 76.296875 
Q 58.40625 75.703125 63 75.703125 
Q 64.796875 75.703125 64.796875 74.890625 
Q 64.796875 74.09375 63.9375 73.1875 
Q 63.09375 72.296875 62.6875 70 
Q 62.296875 67.703125 61.90625 61 
Q 76 61.90625 81.59375 62.5 
L 79.796875 38 
Q 79.59375 35.09375 80.25 34.140625 
Q 80.90625 33.203125 83.59375 33.203125 
Q 86.296875 33.203125 87.75 34.640625 
Q 89.203125 36.09375 90 40.90625 
Q 91.796875 37.90625 95.296875 37.203125 
Q 93.796875 32.90625 92.4375 31.09375 
Q 91.09375 29.296875 88.890625 28.6875 
Q 86.703125 28.09375 81.953125 28.09375 
Q 77.203125 28.09375 75.703125 29.5 
Q 74.203125 30.90625 74.203125 34.5 
Q 74.203125 34.796875 74.40625 38 
L 75.59375 57.09375 
z
M 38.09375 63.59375 
L 34.796875 58.703125 
Q 27.59375 64.703125 17.5 69.703125 
L 20.40625 74.203125 
Q 29.703125 69.703125 38.09375 63.59375 
z
M 29.703125 51.703125 
L 26.703125 47.203125 
Q 20.40625 51.59375 9.90625 55.59375 
L 12.203125 60.296875 
Q 20.796875 56.90625 29.703125 51.703125 
z
M 38 42.296875 
Q 24.90625 34.59375 13 25.296875 
L 8.5 31.5 
Q 25.09375 38.203125 35 47.90625 
Q 35.796875 44.703125 38 42.296875 
z
M 54.203125 20.296875 
Q 81.296875 20.296875 94.796875 21.296875 
L 94.796875 14.796875 
Q 81.703125 15.59375 61.90625 15.5 
Q 77.203125 -0.40625 95.59375 -4.203125 
Q 92.40625 -6.5 91 -11.09375 
Q 67.796875 -0.5 56.703125 15.5 
L 54.203125 15.5 
L 54.203125 -6 
Q 54.203125 -11.796875 54.796875 -16.296875 
L 47.40625 -16.296875 
Q 48.203125 -11.203125 48.203125 -6 
L 48.203125 15.5 
L 46.296875 15.5 
Q 35.40625 -0.203125 11 -12.5 
Q 9.5 -9.5 5.296875 -6.296875 
Q 27.40625 -0.09375 40.40625 15.5 
Q 13.90625 15.5 6.796875 14.796875 
L 6.796875 21.296875 
Q 20.203125 20.296875 48.203125 20.296875 
Q 48 27.296875 47.59375 30.09375 
Q 51.40625 29.59375 54.296875 29.59375 
Q 57.203125 29.59375 57.203125 28.84375 
Q 57.203125 28.09375 55.703125 27.34375 
Q 54.203125 26.59375 54.203125 24.59375 
z
" id="STXihei-26579"/>
      <path d="M 45.703125 57.703125 
Q 27.796875 57.703125 17.796875 56.59375 
L 17.796875 63.5 
Q 26.5 62.5 45.703125 62.40625 
Q 45.703125 72.09375 45 76.59375 
Q 47.5 76 52.5 76 
Q 54.296875 76 54.296875 75.296875 
Q 54.296875 74.59375 53.046875 73.59375 
Q 51.796875 72.59375 51.796875 70.09375 
L 51.796875 62.40625 
Q 64.296875 62.5 74.796875 63.5 
L 74.796875 56.796875 
Q 81 63.203125 84.296875 70.09375 
Q 86.90625 66.90625 89.09375 65.796875 
Q 91.296875 64.703125 91.296875 63.59375 
Q 91.296875 62.5 89.390625 62.25 
Q 87.5 62 80.09375 54.75 
Q 72.703125 47.5 67.59375 42.90625 
Q 86.59375 43.40625 95.203125 44.09375 
L 95.203125 36.90625 
Q 82.203125 38 61.796875 38.09375 
Q 53.296875 31.296875 45.5 26.40625 
L 59.703125 26.40625 
Q 73.40625 26.40625 81.203125 27.296875 
Q 80.703125 24.40625 80.703125 19.59375 
L 80.703125 -5 
Q 80.703125 -9.5 81.296875 -15 
L 74.40625 -15 
L 74.40625 -9.203125 
L 35.40625 -9.203125 
L 35.40625 -16.203125 
L 28.796875 -16.203125 
Q 29.296875 -11.90625 29.296875 -6.203125 
L 29.296875 16.90625 
Q 19 11.296875 8.703125 6.796875 
Q 7.5 11.40625 3.296875 13.40625 
Q 14.703125 16.40625 29.203125 23.5 
Q 29.09375 25 28.703125 27.296875 
Q 31.5 26.90625 35.40625 26.796875 
Q 45.203125 32.09375 53.40625 38.203125 
L 32.5 38.203125 
Q 18.90625 38.203125 5.796875 36.90625 
L 5.796875 44.09375 
Q 22.5 42.90625 45.703125 42.796875 
z
M 74.59375 56.59375 
Q 64.203125 57.59375 51.796875 57.703125 
L 51.796875 42.796875 
L 59.203125 42.796875 
Q 69.796875 51.59375 74.59375 56.59375 
z
M 35.40625 12 
L 74.40625 12 
L 74.40625 21.5 
L 37.40625 21.5 
L 35.40625 20.296875 
z
M 74.40625 6.59375 
L 35.40625 6.59375 
L 35.40625 -4.703125 
L 74.40625 -4.703125 
z
" id="STXihei-32773"/>
     </defs>
     <g transform="translate(113.52 114.055312)scale(0.12 -0.12)">
      <use xlink:href="#STXihei-26131"/>
      <use x="99.999985" xlink:href="#STXihei-24863"/>
      <use x="199.999969" xlink:href="#STXihei-26579"/>
      <use x="299.999954" xlink:href="#STXihei-32773"/>
     </g>
    </g>
    <g id="line2d_24">
     <path d="M 79.92 127.026562 
L 103.92 127.026562 
" style="fill:none;stroke:#ff7f0e;stroke-linecap:square;stroke-width:1.5;"/>
    </g>
    <g id="line2d_25"/>
    <g id="text_18">
     <!-- 未接种的暴露者 -->
     <defs>
      <path d="M 46.703125 57.5 
Q 46.703125 68.296875 45.796875 74 
Q 49.40625 73 53.90625 73 
Q 55.5 73 55.5 72.390625 
Q 55.5 71.796875 54.453125 71.140625 
Q 53.40625 70.5 53.09375 68.796875 
Q 52.796875 67.09375 52.796875 63.203125 
L 52.796875 57.5 
Q 75.203125 57.5 81.703125 58.09375 
L 81.703125 51.90625 
Q 75.59375 52.5 52.796875 52.5 
L 52.796875 36.296875 
Q 80 36.296875 91.09375 36.90625 
L 91.09375 30.796875 
Q 80.203125 31.40625 60.09375 31.40625 
Q 75.5 7.40625 94.09375 -0.40625 
Q 91.203125 -3 88.90625 -6.59375 
Q 69.203125 4.5 54.796875 31.40625 
L 52.796875 31.40625 
L 52.796875 3.59375 
Q 52.796875 -5.296875 53.796875 -15.296875 
L 45.796875 -15.296875 
Q 46.703125 -5.59375 46.703125 3.59375 
L 46.703125 31.40625 
L 43.296875 31.40625 
Q 36 17.296875 28.5 8.5 
Q 21 -0.296875 9.296875 -8.796875 
Q 7.796875 -5.09375 3.5 -3.40625 
Q 14.703125 3.40625 22.59375 11.40625 
Q 30.5 19.40625 37.796875 31.40625 
Q 19 31.40625 7.40625 30.796875 
L 7.40625 36.90625 
Q 15.703125 36.296875 46.703125 36.296875 
L 46.703125 52.5 
Q 23.5 52.5 16.796875 51.90625 
L 16.796875 58.09375 
Q 23.203125 57.5 46.703125 57.5 
z
" id="STXihei-26410"/>
      <path d="M 60.59375 63.90625 
Q 58.296875 67.703125 54.203125 72 
L 59.5 75.5 
Q 64.203125 68.90625 66.703125 63.90625 
Q 83.296875 63.90625 90 64.703125 
L 90 58.5 
Q 82.703125 59.296875 64.25 59.296875 
Q 45.796875 59.296875 38.40625 58.5 
L 38.40625 64.703125 
Q 46.296875 63.90625 60.59375 63.90625 
z
M 18.703125 26.796875 
L 18.703125 49.90625 
Q 11.40625 49.796875 6.09375 48.90625 
L 6.09375 56 
Q 11.40625 55.09375 18.703125 55.09375 
Q 18.5 69.203125 17.40625 75.09375 
Q 21 74.296875 25.09375 74.296875 
Q 27.203125 74.296875 27.203125 73.5 
Q 27.203125 72.703125 25.40625 71.09375 
Q 24.59375 70.40625 24.59375 64.703125 
L 24.59375 55.09375 
Q 31.59375 55.203125 35.703125 56 
L 35.703125 48.90625 
Q 31 49.796875 24.59375 49.796875 
L 24.59375 29.59375 
Q 28.59375 31.59375 34.09375 35 
Q 34.40625 32 36 29.203125 
L 24.59375 23.796875 
L 24.59375 -5.40625 
Q 24.59375 -9.5 23.4375 -11.546875 
Q 22.296875 -13.59375 19.140625 -14.546875 
Q 16 -15.5 9.59375 -15.796875 
Q 9.59375 -11.40625 6.796875 -7.703125 
Q 11.796875 -8.703125 14.1875 -8.703125 
Q 16.59375 -8.703125 17.640625 -7.703125 
Q 18.703125 -6.703125 18.703125 -3.296875 
L 18.703125 20.796875 
Q 12.203125 17.40625 7.703125 14.59375 
Q 6.90625 18.203125 4 21.203125 
Q 12.09375 23.796875 18.703125 26.796875 
z
M 67.40625 40.203125 
Q 75.09375 50 77 57.40625 
Q 80.09375 55.09375 83 54.203125 
Q 84.09375 53.90625 84.09375 53 
Q 84.09375 52.09375 82.1875 51.296875 
Q 80.296875 50.5 73.296875 40.203125 
Q 87.90625 40.5 93.796875 41.09375 
L 93.796875 34.796875 
Q 87.90625 35.703125 64.75 35.703125 
Q 41.59375 35.703125 35.703125 34.796875 
L 35.703125 41.09375 
Q 46.59375 40.203125 59.296875 40.203125 
z
M 59.5 44.703125 
L 55.09375 41.296875 
Q 50.703125 48.09375 45 52.796875 
L 48.703125 56.40625 
Q 53.40625 52 59.5 44.703125 
z
M 49.09375 17.296875 
Q 37.796875 17.296875 32.796875 16.703125 
L 32.796875 22.5 
Q 40.703125 21.90625 51.796875 21.90625 
Q 55.796875 29.40625 56.796875 33.796875 
Q 59.59375 31.203125 63.296875 30.5 
Q 64.796875 30.203125 64.796875 29.453125 
Q 64.796875 28.703125 62.796875 27.546875 
Q 60.796875 26.40625 57.796875 21.90625 
L 74.703125 21.90625 
Q 90.796875 21.90625 95.5 22.5 
L 95.5 16.703125 
Q 92.59375 17.09375 81.703125 17.296875 
Q 78 7.09375 71.09375 1.09375 
Q 82.203125 -3.40625 92.203125 -7.796875 
Q 89.5 -9.90625 87.703125 -13.5 
Q 79.40625 -7.703125 66.5 -2.40625 
Q 56.59375 -9.296875 35.40625 -14.203125 
Q 34.59375 -10.203125 31.40625 -7.796875 
Q 49.203125 -5.796875 59.90625 0.09375 
Q 49.796875 3.59375 40.90625 5.5 
Q 44.90625 10.203125 49.09375 17.296875 
z
M 75.5 17.296875 
L 54.90625 17.296875 
L 49.796875 8.5 
Q 55.5 6.796875 65 3.40625 
Q 72.40625 9 75.5 17.296875 
z
" id="STXihei-25509"/>
      <path d="M 53 18 
L 53 9.40625 
L 46.40625 9.40625 
Q 47 17.796875 47 22.796875 
L 47 43.59375 
Q 47 48.59375 46.40625 53.90625 
Q 51.90625 52.90625 66.203125 52.796875 
L 66.203125 61.5 
Q 66.203125 70.203125 65.296875 75.203125 
Q 68.40625 74.203125 72.796875 74.203125 
Q 74.5 74.203125 74.5 72.90625 
Q 74.5 72 73.296875 71.203125 
Q 72.09375 70.40625 72.09375 67.296875 
L 72.09375 52.796875 
Q 85.703125 52.90625 92.296875 53.90625 
Q 91.796875 46.796875 91.796875 41.59375 
L 91.796875 25.59375 
Q 91.796875 21.5 92.296875 11.296875 
L 85.703125 11.296875 
L 85.703125 18 
L 72.09375 18 
L 72.09375 2.703125 
Q 72.09375 -9 73 -15.90625 
L 65.296875 -15.90625 
Q 66.203125 -9 66.203125 2.703125 
L 66.203125 18 
z
M 66.203125 48.40625 
L 53 48.40625 
L 53 22.703125 
L 66.203125 22.703125 
z
M 85.703125 22.703125 
L 85.703125 48.40625 
L 72.09375 48.40625 
L 72.09375 22.703125 
z
M 23.703125 63 
Q 16.40625 61.703125 8.203125 61.09375 
Q 8.296875 64.296875 5.40625 67.296875 
Q 9.09375 67.09375 12 67.09375 
Q 20.09375 67.09375 28.140625 68.84375 
Q 36.203125 70.59375 39.40625 72.90625 
Q 41.59375 69.796875 43.5 68.09375 
Q 44.40625 67.296875 44.40625 66.5 
Q 44.40625 65.703125 42.90625 65.703125 
Q 42.40625 65.703125 41.703125 65.796875 
Q 41 65.90625 39.796875 65.90625 
Q 36.296875 65.90625 29.40625 64.09375 
L 29.40625 46.59375 
Q 36.90625 46.703125 43.796875 47.203125 
L 43.796875 41.296875 
Q 36.296875 41.796875 29.40625 41.796875 
L 29.40625 34.09375 
Q 35.90625 29.5 44.296875 22.09375 
L 39.09375 17.5 
Q 35.703125 22.796875 29.40625 28.296875 
L 29.40625 1 
Q 29.40625 -7.703125 30.09375 -16.203125 
L 22.90625 -16.203125 
Q 23.703125 -6.5 23.703125 1 
L 23.703125 28.40625 
Q 18.296875 14.59375 9.203125 2 
Q 6.59375 4.796875 3 5.59375 
Q 16.09375 18.203125 23.703125 41.203125 
L 23.703125 41.90625 
Q 13.5 41.90625 5.40625 41.296875 
L 5.40625 47.203125 
Q 13.5 46.59375 23.703125 46.59375 
z
" id="STXihei-31181"/>
      <path d="M 19.90625 55.703125 
Q 23.296875 66.09375 23.703125 75.296875 
Q 27.59375 74 31.59375 73.203125 
Q 32.703125 73 32.703125 72.34375 
Q 32.703125 71.703125 31.90625 70.90625 
Q 29.203125 68.203125 25.5 55.703125 
Q 36.40625 55.703125 44 56.5 
Q 43.296875 52.59375 43.296875 47.40625 
L 43.296875 -0.40625 
Q 43.296875 -8.5 44 -15 
L 37.203125 -15 
L 37.203125 -5.796875 
L 16 -5.796875 
L 16 -15.796875 
L 9 -15.796875 
Q 9.796875 -8.203125 9.796875 -1.203125 
L 9.796875 47.40625 
Q 9.796875 52 9.09375 56.5 
Q 13.40625 55.796875 19.90625 55.703125 
z
M 16 27.203125 
L 37.203125 27.203125 
L 37.203125 50.5 
L 16 50.5 
z
M 37.203125 22.203125 
L 16 22.203125 
L 16 -1 
L 37.203125 -1 
z
M 60.59375 51.90625 
Q 56.09375 41.203125 51.203125 33.40625 
Q 48.203125 35.40625 45 36.296875 
Q 51.59375 45.703125 54.546875 54.09375 
Q 57.5 62.5 60 74.5 
Q 63.90625 72.59375 67.296875 72.203125 
Q 68.703125 72 68.703125 71.296875 
Q 68.703125 70.59375 67.34375 69.546875 
Q 66 68.5 62.40625 57.296875 
L 78.296875 57.296875 
Q 84.09375 57.296875 89.40625 58.09375 
Q 88.796875 53.703125 88.703125 48.203125 
L 87.703125 -2.796875 
Q 87.59375 -9.90625 82 -12.296875 
Q 76.40625 -14.703125 65.703125 -14.703125 
Q 65.40625 -10.90625 62.703125 -6.90625 
Q 67.09375 -7.09375 71 -7.09375 
Q 74.90625 -7.09375 77.296875 -6.046875 
Q 79.703125 -5 80.453125 -2.390625 
Q 81.203125 0.203125 81.296875 6 
L 81.796875 51.90625 
z
M 73 13.703125 
L 67.40625 10.40625 
Q 61.5 24.703125 56.09375 32.703125 
L 61.59375 36.40625 
Q 67.296875 27.09375 73 13.703125 
z
" id="STXihei-30340"/>
      <path d="M 68.40625 34.796875 
L 68.40625 28.203125 
Q 82.90625 28.40625 92.90625 29 
L 92.90625 23.203125 
Q 84.203125 23.90625 69.90625 24.09375 
Q 80.296875 13.296875 96.203125 10.703125 
Q 93.703125 7.796875 92.703125 4.203125 
Q 81.90625 8.203125 75.796875 12.453125 
Q 69.703125 16.703125 63.90625 24.09375 
L 36.40625 24.09375 
Q 29.296875 13.59375 8.09375 4.5 
Q 6.703125 7.703125 3.296875 10.203125 
Q 21.703125 14.90625 31 24.09375 
Q 15.5 23.90625 6.59375 23.203125 
L 6.59375 29 
Q 14.90625 28.203125 31.296875 28.203125 
L 31.296875 34.796875 
Q 21.5 34.703125 12.90625 34 
L 12.90625 39.703125 
Q 21.703125 39 31.296875 38.90625 
L 31.296875 45.5 
Q 21.40625 45.40625 16.09375 45 
Q 16.90625 48.40625 16.90625 51.203125 
L 16.90625 65.203125 
Q 16.90625 67.796875 16.09375 71.40625 
Q 25.59375 70.703125 49.84375 70.703125 
Q 74.09375 70.703125 83.5 71.40625 
Q 82.90625 68.90625 82.90625 65.203125 
L 82.90625 51.203125 
Q 82.90625 47.5 83.5 45 
Q 78.203125 45.40625 68.40625 45.5 
L 68.40625 38.90625 
Q 78 39 86.296875 39.703125 
L 86.296875 34 
Q 78.59375 34.796875 68.40625 34.796875 
z
M 77.296875 60.40625 
L 77.296875 66.59375 
L 22.59375 66.59375 
L 22.59375 60.40625 
z
M 22.59375 56.296875 
L 22.59375 49.90625 
L 77.296875 49.90625 
L 77.296875 56.296875 
z
M 36.703125 38.90625 
L 63 38.90625 
L 63 45.59375 
L 36.703125 45.59375 
z
M 63 34.796875 
L 36.703125 34.796875 
L 36.703125 28.203125 
L 63 28.203125 
z
M 60.90625 5 
Q 66 10.5 67.796875 15.40625 
Q 71.09375 12.59375 73.90625 11.59375 
Q 75.09375 11.203125 75.09375 10.546875 
Q 75.09375 9.90625 73.546875 9.703125 
Q 72 9.5 70.296875 8.296875 
Q 68.59375 7.09375 64.796875 3.296875 
L 85.09375 -6.09375 
L 81.5 -12.09375 
Q 68.203125 -3.59375 52.90625 4.203125 
L 52.90625 -7.203125 
Q 52.90625 -10.296875 51.953125 -11.9375 
Q 51 -13.59375 48.25 -14.5 
Q 45.5 -15.40625 40 -15.703125 
Q 39.59375 -12 36.796875 -8.703125 
Q 40.59375 -9.296875 42.84375 -9.296875 
Q 45.09375 -9.296875 46.140625 -8.390625 
Q 47.203125 -7.5 47.203125 -4.703125 
L 47.203125 3.09375 
Q 35.09375 -1.59375 17.703125 -10.09375 
L 13.90625 -3.90625 
Q 23.703125 -1.703125 36 3.203125 
Q 30 6.59375 24.40625 9.09375 
L 28.203125 13.5 
Q 39.09375 6.203125 40.5 5.09375 
Q 43.5 6.40625 47.203125 8.203125 
L 47.203125 11.59375 
Q 47.203125 16.90625 46.203125 21.59375 
Q 48.90625 20.90625 53.40625 20.90625 
Q 55 20.90625 55 20.34375 
Q 55 19.796875 53.953125 18.84375 
Q 52.90625 17.90625 52.90625 15.40625 
L 52.90625 8.5 
Q 58.90625 6 60.90625 5 
z
" id="STXihei-26292"/>
      <path d="M 47.09375 65.09375 
Q 28.09375 65.09375 12.296875 64.5 
L 12.296875 70.09375 
Q 29.203125 69.5 49.703125 69.5 
Q 70.203125 69.5 87.09375 70.09375 
L 87.09375 64.5 
Q 71.59375 65.09375 53.09375 65.09375 
L 53.09375 59.703125 
Q 81 59.703125 91 60.203125 
L 91 44.5 
L 85 44.5 
L 85 55.296875 
L 53.09375 55.296875 
L 53.09375 47.296875 
Q 53.09375 41.796875 53.40625 36.40625 
L 46.703125 36.40625 
Q 47.09375 41.40625 47.09375 47.203125 
L 47.09375 55.296875 
L 14.796875 55.296875 
L 14.796875 44.703125 
L 8.796875 44.703125 
L 8.796875 60.203125 
Q 19.5 59.703125 47.09375 59.703125 
z
M 41.296875 47.40625 
Q 36.796875 47.59375 30.6875 47.59375 
Q 24.59375 47.59375 20.09375 47.40625 
L 20.09375 51.203125 
Q 24.59375 51 30.6875 51 
Q 36.796875 51 41.296875 51.203125 
z
M 79.09375 47.203125 
Q 74.59375 47.40625 68.5 47.40625 
Q 62.40625 47.40625 57.90625 47.203125 
L 57.90625 50.703125 
Q 62.40625 50.5 68.5 50.5 
Q 74.59375 50.5 79.09375 50.703125 
z
M 41.296875 39.703125 
Q 36.796875 39.90625 30.6875 39.90625 
Q 24.59375 39.90625 20.09375 39.703125 
L 20.09375 43.5 
Q 24.59375 43.296875 30.6875 43.296875 
Q 36.796875 43.296875 41.296875 43.5 
z
M 79.09375 39.40625 
Q 74.59375 39.59375 68.5 39.59375 
Q 62.40625 39.59375 57.90625 39.40625 
L 57.90625 43.203125 
Q 62.40625 43 68.5 43 
Q 74.59375 43 79.09375 43.203125 
z
M 30.203125 10.09375 
Q 38.703125 10.09375 40 10.59375 
L 40 8.90625 
Q 53.796875 11.203125 64.5 16.59375 
Q 59.796875 19.59375 54.296875 24.203125 
Q 51.203125 20.203125 47.59375 16.703125 
Q 46.703125 18.703125 42.90625 20 
Q 52.40625 24.90625 57.703125 38.59375 
Q 60.296875 37 63.296875 36.703125 
Q 64.40625 36.59375 64.40625 35.75 
Q 64.40625 34.90625 63.25 34.40625 
Q 62.09375 33.90625 60.296875 31.90625 
L 71.203125 31.90625 
Q 81.59375 31.90625 88.09375 33.09375 
Q 80.796875 22.59375 72.796875 16.703125 
Q 84.90625 11.09375 97.203125 9.796875 
Q 94.796875 7.40625 93.90625 4.09375 
Q 79.296875 7.703125 68.703125 14 
Q 58.90625 8.203125 42.703125 3.796875 
Q 42 6.90625 40 8.296875 
L 40 5.40625 
Q 39.40625 5.796875 30.203125 5.796875 
L 30.203125 -4.5 
L 44.40625 -1.796875 
Q 44.203125 -2.5 44.203125 -3.796875 
Q 44.203125 -5.09375 44.703125 -6.40625 
Q 23.90625 -10 8 -14.40625 
Q 7.59375 -11.296875 5.796875 -8.09375 
Q 8.40625 -8.40625 13.09375 -7.703125 
L 13.09375 2.40625 
Q 13.09375 7.5 12.296875 10.203125 
Q 13.5 9.796875 18.59375 9.796875 
Q 19.796875 9.796875 19.796875 9.34375 
Q 19.796875 8.90625 19.203125 8.5 
Q 18 7.59375 18 5.203125 
L 18 -6.796875 
L 25.203125 -5.40625 
L 25.203125 17.796875 
Q 16.90625 17.703125 13.296875 17 
Q 13.796875 20.40625 13.796875 25.90625 
Q 13.796875 31.40625 13.296875 35.5 
Q 17.90625 34.796875 27.84375 34.796875 
Q 37.796875 34.796875 42 35.5 
Q 41.5 31.5 41.5 25.953125 
Q 41.5 20.40625 42 17 
Q 38.90625 17.703125 30.203125 17.796875 
z
M 36.796875 21.796875 
L 36.796875 30.90625 
L 18.40625 30.90625 
L 18.40625 21.796875 
z
M 68.40625 19 
Q 74.09375 23 77.703125 28.296875 
L 57.5 28.296875 
Q 57.203125 27.796875 56.5 27 
Q 62.09375 22.40625 68.40625 19 
z
M 56.296875 -11.5 
L 56.296875 -16.5 
L 50.5 -16.5 
Q 51.09375 -11.90625 51.09375 -8.703125 
L 51.09375 0.90625 
Q 51.09375 3.90625 50.5 6 
Q 54.90625 5.296875 68.34375 5.296875 
Q 81.796875 5.296875 86.09375 6 
Q 85.5 4.09375 85.5 0.90625 
L 85.5 -7.59375 
Q 85.5 -11.59375 86.09375 -15.203125 
L 80.203125 -15.203125 
L 80.203125 -11.5 
z
M 80.203125 -7.09375 
L 80.203125 1.40625 
L 56.296875 1.40625 
L 56.296875 -7.09375 
z
" id="STXihei-38706"/>
     </defs>
     <g transform="translate(113.52 131.226562)scale(0.12 -0.12)">
      <use xlink:href="#STXihei-26410"/>
      <use x="99.999985" xlink:href="#STXihei-25509"/>
      <use x="199.999969" xlink:href="#STXihei-31181"/>
      <use x="299.999954" xlink:href="#STXihei-30340"/>
      <use x="399.999939" xlink:href="#STXihei-26292"/>
      <use x="499.999924" xlink:href="#STXihei-38706"/>
      <use x="599.999908" xlink:href="#STXihei-32773"/>
     </g>
    </g>
    <g id="line2d_26">
     <path d="M 79.92 144.197812 
L 103.92 144.197812 
" style="fill:none;stroke:#2ca02c;stroke-linecap:square;stroke-width:1.5;"/>
    </g>
    <g id="line2d_27"/>
    <g id="text_19">
     <!-- 已接种的暴露者 -->
     <defs>
      <path d="M 75.09375 35.40625 
L 75.09375 61.203125 
Q 25.59375 61.203125 13.40625 60.203125 
L 13.40625 67.5 
Q 23 66.296875 47.09375 66.296875 
Q 71.203125 66.296875 82.09375 67.5 
Q 81.5 64 81.5 58.40625 
L 81.5 30.703125 
Q 81.5 25 82.203125 20.203125 
L 75.09375 20.203125 
L 75.09375 30.40625 
L 22 30.40625 
L 22 2.09375 
Q 22 -1.703125 23.390625 -3.25 
Q 24.796875 -4.796875 28.703125 -5.09375 
Q 35.203125 -5.59375 47.09375 -5.59375 
Q 53.40625 -5.59375 63.75 -5.296875 
Q 74.09375 -5 78.140625 -3.890625 
Q 82.203125 -2.796875 83.84375 -0.1875 
Q 85.5 2.40625 86 7.703125 
Q 89.59375 5.59375 93 5.296875 
Q 91.59375 -0.703125 89.640625 -3.953125 
Q 87.703125 -7.203125 83.796875 -8.953125 
Q 79.90625 -10.703125 73.75 -11.140625 
Q 67.59375 -11.59375 55.640625 -11.59375 
Q 43.703125 -11.59375 34.546875 -11.390625 
Q 25.40625 -11.203125 22.59375 -10.75 
Q 19.796875 -10.296875 18.25 -9 
Q 16.703125 -7.703125 16.140625 -5.453125 
Q 15.59375 -3.203125 15.59375 0.703125 
L 15.59375 31.203125 
Q 15.59375 40.40625 15.09375 45.203125 
Q 18.5 44.296875 21.453125 44.1875 
Q 24.40625 44.09375 24.40625 42.796875 
Q 24.40625 42 23 41.296875 
Q 22.09375 40.796875 22 35.40625 
z
" id="STXihei-24050"/>
     </defs>
     <g transform="translate(113.52 148.397812)scale(0.12 -0.12)">
      <use xlink:href="#STXihei-24050"/>
      <use x="99.999985" xlink:href="#STXihei-25509"/>
      <use x="199.999969" xlink:href="#STXihei-31181"/>
      <use x="299.999954" xlink:href="#STXihei-30340"/>
      <use x="399.999939" xlink:href="#STXihei-26292"/>
      <use x="499.999924" xlink:href="#STXihei-38706"/>
      <use x="599.999908" xlink:href="#STXihei-32773"/>
     </g>
    </g>
    <g id="line2d_28">
     <path d="M 79.92 161.369062 
L 103.92 161.369062 
" style="fill:none;stroke:#d62728;stroke-linecap:square;stroke-width:1.5;"/>
    </g>
    <g id="line2d_29"/>
    <g id="text_20">
     <!-- 未接种的无症状感染者 -->
     <defs>
      <path d="M 43.703125 62.203125 
Q 22 62.203125 15.09375 61.703125 
L 15.09375 67.90625 
Q 22.203125 67.296875 48.796875 67.296875 
Q 75.40625 67.296875 82.203125 67.796875 
L 82.203125 61.59375 
Q 76.296875 62.203125 50.5 62.203125 
Q 50.40625 48.09375 48.796875 37.09375 
Q 83.703125 37.09375 89.59375 37.59375 
L 89.59375 31.40625 
Q 82.59375 32 60.296875 32 
L 60.296875 2 
Q 60.296875 -0.90625 61.046875 -2.25 
Q 61.796875 -3.59375 64.296875 -4.1875 
Q 66.796875 -4.796875 73.140625 -4.796875 
Q 79.5 -4.796875 82.453125 -4.046875 
Q 85.40625 -3.296875 86.75 -0.796875 
Q 88.09375 1.703125 88.5 7.59375 
Q 91.203125 4.5 95.703125 3.796875 
Q 93.296875 -3.40625 91.6875 -6.046875 
Q 90.09375 -8.703125 86.6875 -9.640625 
Q 83.296875 -10.59375 74.5 -10.59375 
Q 65.703125 -10.59375 61.390625 -10 
Q 57.09375 -9.40625 55.640625 -7.796875 
Q 54.203125 -6.203125 54.203125 -2.796875 
L 54.203125 32.09375 
L 47.90625 32.09375 
Q 45.296875 18 37.75 7.953125 
Q 30.203125 -2.09375 11.796875 -13.703125 
Q 9.203125 -9.5 5.296875 -8.5 
Q 22.203125 -1 30.703125 8.5 
Q 39.203125 18 42.09375 32.09375 
Q 17.203125 32.09375 8.59375 31.5 
L 8.59375 37.703125 
Q 17.796875 37.09375 42.90625 37.09375 
Q 43.90625 44.5 43.90625 51.046875 
Q 43.90625 57.59375 43.703125 62.203125 
z
" id="STXihei-26080"/>
      <path d="M 22 32.40625 
Q 22.09375 35.203125 22.09375 38.40625 
Q 22.09375 48.09375 21.09375 64.09375 
Q 23.296875 63.40625 55.203125 63.40625 
Q 51.90625 69.59375 48.203125 73.203125 
L 53.90625 76.796875 
Q 57.59375 71.09375 61.296875 63.40625 
Q 89 63.40625 92.296875 64.09375 
L 92.296875 58 
Q 88.296875 58.59375 67 58.59375 
L 27.90625 58.59375 
Q 28 51.5 28 45.59375 
Q 28 21.796875 25.140625 9.5 
Q 22.296875 -2.796875 14.59375 -14.796875 
Q 11.90625 -11.40625 7.09375 -10.90625 
Q 14.796875 -2.40625 17.9375 6.140625 
Q 21.09375 14.703125 21.796875 27 
Q 13.296875 20.59375 7.5 14.90625 
Q 6.203125 17.90625 2.703125 20.703125 
Q 12 24.703125 22 32.40625 
z
M 20.296875 40.40625 
L 15.203125 37.40625 
Q 12.5 44.296875 6.5 52 
L 11.296875 55.40625 
Q 16.59375 48.09375 20.296875 40.40625 
z
M 60.09375 41.296875 
Q 41 41.296875 32.796875 40.5 
L 32.796875 46.90625 
Q 41.296875 46.09375 61.34375 46.09375 
Q 81.40625 46.09375 89.90625 46.90625 
L 89.90625 40.5 
Q 82.796875 41.09375 65.796875 41.296875 
L 65.796875 22.59375 
Q 82 22.59375 87 23.5 
L 87 17.203125 
Q 82.59375 17.90625 65.796875 17.90625 
L 65.796875 -5.703125 
L 77.796875 -5.703125 
Q 85.296875 -5.703125 95.296875 -4.703125 
L 95.296875 -11.296875 
Q 84.40625 -10.40625 59.5 -10.40625 
Q 34.59375 -10.40625 25.90625 -11.296875 
L 25.90625 -4.703125 
Q 34 -5.59375 39.59375 -5.703125 
L 39.59375 16.703125 
Q 39.59375 24.59375 38.796875 27.796875 
Q 42.703125 27.296875 46.796875 27.296875 
Q 48.296875 27.296875 48.296875 26.6875 
Q 48.296875 26.09375 47.296875 25.703125 
Q 45.296875 25 45.296875 21.59375 
L 45.296875 -5.703125 
L 60.09375 -5.703125 
z
" id="STXihei-30151"/>
      <path d="M 24.703125 74.703125 
Q 28.5 74.203125 32.09375 74.09375 
Q 33.5 74.09375 33.5 73.09375 
Q 33.5 72.59375 33.09375 72.296875 
Q 31.703125 71.09375 31.703125 68.59375 
L 31.703125 1.59375 
Q 31.703125 -7 32.5 -14 
L 24.90625 -14 
Q 25.796875 -6.203125 25.796875 1.59375 
L 25.796875 59.796875 
Q 25.796875 69.40625 24.703125 74.703125 
z
M 59.09375 40 
Q 45 39.90625 37.40625 39 
L 37.40625 45.703125 
Q 45.296875 44.796875 59.59375 44.703125 
Q 60.203125 51.59375 60.203125 60.390625 
Q 60.203125 69.203125 59.09375 74.5 
Q 64.796875 73.59375 66.5 73.59375 
Q 68.203125 73.59375 68.203125 73.09375 
Q 68.203125 72.59375 67.59375 72 
Q 67 71.40625 66.5 69 
Q 66 66.59375 66 64.09375 
Q 65.796875 53.09375 65.203125 44.703125 
Q 83.296875 44.703125 92.203125 45.703125 
L 92.203125 39 
Q 83.59375 40 66.203125 40 
Q 68.59375 27.296875 77.25 13.640625 
Q 85.90625 0 95.796875 -7.09375 
Q 93.09375 -9.296875 90 -12.5 
Q 70.796875 6.90625 63.703125 32.40625 
Q 57.796875 4.59375 38 -13.09375 
Q 36.296875 -10.59375 33.09375 -8.59375 
Q 43.5 -1.5 50.296875 11.25 
Q 57.09375 24 59.09375 40 
z
M 88.40625 55.203125 
L 83.90625 50.703125 
Q 79.40625 57.296875 72.203125 63.203125 
L 76.09375 67.203125 
Q 82.90625 61.5 88.40625 55.203125 
z
M 22.09375 46.296875 
L 17.40625 42.703125 
Q 12.796875 50.703125 4.90625 59.09375 
L 8.90625 62.796875 
Q 16.703125 54.90625 22.09375 46.296875 
z
M 24.5 29 
Q 11.40625 11.90625 7.796875 5.796875 
Q 6.09375 9 2.40625 10.90625 
Q 12.703125 19.90625 20.40625 32.90625 
Q 21.703125 31.09375 24.5 29 
z
" id="STXihei-29366"/>
     </defs>
     <g transform="translate(113.52 165.569062)scale(0.12 -0.12)">
      <use xlink:href="#STXihei-26410"/>
      <use x="99.999985" xlink:href="#STXihei-25509"/>
      <use x="199.999969" xlink:href="#STXihei-31181"/>
      <use x="299.999954" xlink:href="#STXihei-30340"/>
      <use x="399.999939" xlink:href="#STXihei-26080"/>
      <use x="499.999924" xlink:href="#STXihei-30151"/>
      <use x="599.999908" xlink:href="#STXihei-29366"/>
      <use x="699.999893" xlink:href="#STXihei-24863"/>
      <use x="799.999878" xlink:href="#STXihei-26579"/>
      <use x="899.999863" xlink:href="#STXihei-32773"/>
     </g>
    </g>
    <g id="line2d_30">
     <path d="M 79.92 178.540312 
L 103.92 178.540312 
" style="fill:none;stroke:#9467bd;stroke-linecap:square;stroke-width:1.5;"/>
    </g>
    <g id="line2d_31"/>
    <g id="text_21">
     <!-- 已接种的无症状感染者 -->
     <g transform="translate(113.52 182.740312)scale(0.12 -0.12)">
      <use xlink:href="#STXihei-24050"/>
      <use x="99.999985" xlink:href="#STXihei-25509"/>
      <use x="199.999969" xlink:href="#STXihei-31181"/>
      <use x="299.999954" xlink:href="#STXihei-30340"/>
      <use x="399.999939" xlink:href="#STXihei-26080"/>
      <use x="499.999924" xlink:href="#STXihei-30151"/>
      <use x="599.999908" xlink:href="#STXihei-29366"/>
      <use x="699.999893" xlink:href="#STXihei-24863"/>
      <use x="799.999878" xlink:href="#STXihei-26579"/>
      <use x="899.999863" xlink:href="#STXihei-32773"/>
     </g>
    </g>
    <g id="line2d_32">
     <path d="M 79.92 195.807187 
L 103.92 195.807187 
" style="fill:none;stroke:#8c564b;stroke-linecap:square;stroke-width:1.5;"/>
    </g>
    <g id="line2d_33"/>
    <g id="text_22">
     <!-- 未接种的有症状感染者 -->
     <defs>
      <path d="M 36.40625 57.59375 
Q 22.296875 57.5 6.796875 56.796875 
L 6.796875 63.296875 
Q 19.5 62.59375 38.59375 62.5 
Q 40.796875 67.796875 43.296875 77.59375 
Q 46 76.09375 50 75.59375 
Q 51.703125 75.40625 51.703125 74.34375 
Q 51.703125 73.296875 50.453125 72.390625 
Q 49.203125 71.5 44.90625 62.5 
Q 77.796875 62.5 92.203125 63.296875 
L 92.203125 56.796875 
Q 79.5 57.59375 42.59375 57.59375 
Q 39.09375 49.796875 35.796875 44.59375 
L 56.40625 44.59375 
Q 72.203125 44.40625 82.296875 45.09375 
Q 81.40625 38.90625 81.40625 33.90625 
L 81.40625 -5.09375 
Q 81.40625 -9.203125 80.453125 -11.046875 
Q 79.5 -12.90625 76.34375 -13.796875 
Q 73.203125 -14.703125 66.203125 -15.09375 
Q 66.203125 -12.703125 65.75 -11.296875 
Q 65.296875 -9.90625 63.59375 -7.703125 
Q 67.90625 -8.40625 70.40625 -8.40625 
Q 72.90625 -8.40625 74.046875 -7.34375 
Q 75.203125 -6.296875 75.203125 -3 
L 75.203125 7.40625 
L 33.5 7.40625 
L 33.5 -16.203125 
L 26.703125 -16.203125 
Q 27.296875 -9.796875 27.296875 -1.90625 
L 27.296875 33 
Q 20.203125 24.90625 8.796875 16.09375 
Q 8.09375 19.703125 3.5 21.5 
Q 16.09375 29.5 23.59375 37.796875 
Q 31.09375 46.09375 36.40625 57.59375 
z
M 33.5 28 
L 75.203125 28 
L 75.203125 39.703125 
L 33.5 39.703125 
z
M 75.203125 23.296875 
L 33.5 23.296875 
L 33.5 12.203125 
L 75.203125 12.203125 
z
" id="STXihei-26377"/>
     </defs>
     <g transform="translate(113.52 200.007187)scale(0.12 -0.12)">
      <use xlink:href="#STXihei-26410"/>
      <use x="99.999985" xlink:href="#STXihei-25509"/>
      <use x="199.999969" xlink:href="#STXihei-31181"/>
      <use x="299.999954" xlink:href="#STXihei-30340"/>
      <use x="399.999939" xlink:href="#STXihei-26377"/>
      <use x="499.999924" xlink:href="#STXihei-30151"/>
      <use x="599.999908" xlink:href="#STXihei-29366"/>
      <use x="699.999893" xlink:href="#STXihei-24863"/>
      <use x="799.999878" xlink:href="#STXihei-26579"/>
      <use x="899.999863" xlink:href="#STXihei-32773"/>
     </g>
    </g>
    <g id="line2d_34">
     <path d="M 79.92 213.074062 
L 103.92 213.074062 
" style="fill:none;stroke:#e377c2;stroke-linecap:square;stroke-width:1.5;"/>
    </g>
    <g id="line2d_35"/>
    <g id="text_23">
     <!-- 已接种的有症状感染者 -->
     <g transform="translate(113.52 217.274062)scale(0.12 -0.12)">
      <use xlink:href="#STXihei-24050"/>
      <use x="99.999985" xlink:href="#STXihei-25509"/>
      <use x="199.999969" xlink:href="#STXihei-31181"/>
      <use x="299.999954" xlink:href="#STXihei-30340"/>
      <use x="399.999939" xlink:href="#STXihei-26377"/>
      <use x="499.999924" xlink:href="#STXihei-30151"/>
      <use x="599.999908" xlink:href="#STXihei-29366"/>
      <use x="699.999893" xlink:href="#STXihei-24863"/>
      <use x="799.999878" xlink:href="#STXihei-26579"/>
      <use x="899.999863" xlink:href="#STXihei-32773"/>
     </g>
    </g>
    <g id="line2d_36">
     <path d="M 79.92 230.247187 
L 103.92 230.247187 
" style="fill:none;stroke:#7f7f7f;stroke-linecap:square;stroke-width:1.5;"/>
    </g>
    <g id="line2d_37"/>
    <g id="text_24">
     <!-- 隔离者 -->
     <defs>
      <path d="M 26.703125 38.703125 
Q 31.796875 34.90625 34.59375 29.34375 
Q 37.40625 23.796875 37.40625 17.09375 
Q 37.40625 10.40625 33.40625 6.90625 
Q 29.40625 3.40625 21.296875 2.296875 
Q 20.703125 6.296875 18.296875 9.796875 
Q 25.296875 9.5 28.4375 11.453125 
Q 31.59375 13.40625 31.59375 18.15625 
Q 31.59375 22.90625 28.6875 28.15625 
Q 25.796875 33.40625 20.40625 38 
Q 26.5 51.796875 30 64.203125 
L 16.40625 64.203125 
L 16.40625 5.59375 
Q 16.40625 -8.796875 17.09375 -15.90625 
L 9.59375 -15.90625 
Q 10.59375 -7.59375 10.59375 5.59375 
L 10.59375 56.40625 
Q 10.59375 63.203125 9.90625 69.5 
Q 16 69.09375 23.59375 69.09375 
Q 31.203125 69.09375 37.796875 69.59375 
Q 33.59375 54.796875 26.703125 38.703125 
z
M 93.703125 61.59375 
Q 87.203125 62.5 78.59375 62.5 
L 55 62.5 
Q 46.90625 62.5 40.5 61.59375 
L 40.5 68.203125 
Q 45.796875 67.296875 67.09375 67.296875 
Q 88.40625 67.296875 93.703125 68.203125 
z
M 85.296875 55.59375 
Q 84.90625 51.09375 84.90625 45.75 
Q 84.90625 40.40625 85.296875 36.796875 
Q 82.5 37.203125 76.203125 37.203125 
L 55.703125 37.203125 
Q 49.296875 37.203125 46.59375 36.796875 
Q 47.09375 40.59375 47.09375 46.140625 
Q 47.09375 51.703125 46.59375 55.59375 
Q 48 55.296875 55.703125 55.296875 
L 76.203125 55.296875 
Q 82 55.296875 85.296875 55.59375 
z
M 79.296875 50.59375 
L 52.703125 50.59375 
L 52.703125 41.796875 
L 79.296875 41.796875 
z
M 92.90625 30.796875 
Q 92.296875 27.09375 92.296875 20.40625 
L 92.296875 -2 
Q 92.296875 -6.796875 91.390625 -8.890625 
Q 90.5 -11 87.34375 -12.09375 
Q 84.203125 -13.203125 76.796875 -14.09375 
Q 76.59375 -9.703125 73.796875 -6.296875 
Q 78.59375 -7 81.546875 -7 
Q 84.5 -7 85.453125 -5.84375 
Q 86.40625 -4.703125 86.40625 -1.59375 
L 86.40625 25.296875 
L 46.5 25.296875 
L 46.5 -14.59375 
L 40.09375 -14.59375 
Q 40.703125 -7.40625 40.703125 -1.5 
L 40.703125 20.40625 
Q 40.703125 25.59375 40.203125 30.796875 
Q 47.796875 30 66.546875 30 
Q 85.296875 30 92.90625 30.796875 
z
M 66.40625 10.703125 
Q 72.203125 18.59375 74 24.90625 
Q 76.40625 23.09375 79.203125 22.203125 
Q 80.703125 21.703125 80.703125 21.046875 
Q 80.703125 20.40625 78.796875 19.59375 
Q 76.90625 18.796875 71.40625 10.703125 
Q 79.296875 10.796875 83.203125 11.59375 
L 83.203125 5.40625 
Q 78.59375 6.296875 68.5 6.40625 
L 68.5 -1.203125 
Q 68.59375 -8.5 69.5 -12 
L 62.59375 -12 
Q 63.296875 -6.796875 63.296875 -1.59375 
L 63.296875 6.40625 
Q 53.59375 6.296875 49.09375 5.5 
L 49.09375 11.59375 
Q 53.90625 10.703125 66.40625 10.703125 
z
M 64.90625 14.59375 
L 60.5 11.5 
Q 57.5 17 52.796875 20.90625 
L 56.796875 24.296875 
Q 61.203125 20 64.90625 14.59375 
z
" id="STXihei-38548"/>
      <path d="M 54.09375 64.796875 
Q 79.5 64.796875 92.90625 65.796875 
L 92.90625 59.203125 
Q 78.59375 60.203125 50.390625 60.203125 
Q 22.203125 60.203125 7.90625 59.203125 
L 7.90625 65.796875 
Q 21.796875 64.796875 48 64.796875 
Q 45.40625 69.09375 40.59375 73.296875 
L 46.296875 76.90625 
Q 50.296875 72.40625 54.09375 64.796875 
z
M 46.90625 45.40625 
Q 37.203125 49.5 30.59375 51 
L 33 55.296875 
Q 43.296875 52.09375 52.796875 48.40625 
Q 61.703125 53.203125 66.5 57.703125 
Q 69 54.90625 71.59375 53.59375 
Q 72.40625 53.203125 72.40625 52.546875 
Q 72.40625 51.90625 70.40625 51.703125 
Q 68.40625 51.5 65.84375 50.34375 
Q 63.296875 49.203125 58.296875 46.203125 
Q 65.203125 43.5 72.203125 40 
L 68.59375 35.59375 
Q 60.796875 40.203125 52.796875 43.09375 
Q 44.5 39 33.296875 34.59375 
Q 32.40625 37.90625 29 39.59375 
Q 36.40625 40.796875 46.90625 45.40625 
z
M 40.796875 16 
L 20.40625 16 
L 20.40625 -15.203125 
L 13.59375 -15.203125 
Q 14.40625 -10.90625 14.40625 -5.59375 
L 14.40625 13.09375 
Q 14.40625 17.796875 13.59375 21.203125 
Q 27.296875 20.59375 43.09375 20.59375 
Q 45 24.40625 46.703125 28.796875 
Q 25.09375 28.796875 18 28.09375 
Q 18.5 30.796875 18.5 35 
L 18.5 48.59375 
Q 18.5 53.40625 18 54.59375 
Q 20.5 54.296875 22.59375 54.296875 
L 25.796875 54.40625 
Q 26.59375 54.40625 26.59375 53.953125 
Q 26.59375 53.5 25.796875 52.5 
Q 24.09375 50.5 24.09375 33.296875 
L 76.09375 33.296875 
L 76.09375 48.59375 
Q 76.09375 53.703125 75.296875 54.796875 
Q 78.40625 54.296875 80.203125 54.296875 
L 83.296875 54.5 
Q 84.09375 54.5 84.09375 54.09375 
Q 84.09375 53.703125 83 52.59375 
Q 82.40625 52 82.203125 47.25 
Q 82 42.5 82 28.09375 
Q 74.90625 28.796875 50 28.796875 
Q 51.796875 27.796875 53.046875 27.5 
Q 54.296875 27.203125 54.296875 26.796875 
Q 54.296875 26.40625 53.25 25.796875 
Q 52.203125 25.203125 51.453125 24.203125 
Q 50.703125 23.203125 49.203125 20.59375 
Q 71.203125 20.59375 87.59375 21.296875 
Q 87.09375 17.59375 87.09375 13.09375 
L 87.09375 -8 
Q 87.09375 -13.296875 83.09375 -14.390625 
Q 79.09375 -15.5 70.203125 -15.5 
Q 70.296875 -14.40625 70.296875 -13.59375 
Q 70.296875 -10.5 67.90625 -7.90625 
Q 73.09375 -8.90625 75.84375 -8.90625 
Q 78.59375 -8.90625 79.796875 -8.15625 
Q 81 -7.40625 81 -5.203125 
L 81 16 
L 46.59375 16 
Q 44 11.703125 38.796875 4.796875 
L 60.40625 6.296875 
Q 58.703125 8.796875 56.296875 11.703125 
L 60.90625 14.296875 
Q 66.703125 7.59375 72 -1.90625 
L 66.703125 -4.90625 
Q 65.203125 -1.296875 63.09375 2.09375 
L 42.203125 -0.296875 
Q 35.40625 -1 31.296875 -2.5 
Q 31.296875 0.09375 28.703125 3.59375 
Q 36.09375 7.296875 40.796875 16 
z
" id="STXihei-31163"/>
     </defs>
     <g transform="translate(113.52 234.447187)scale(0.12 -0.12)">
      <use xlink:href="#STXihei-38548"/>
      <use x="99.999985" xlink:href="#STXihei-31163"/>
      <use x="199.999969" xlink:href="#STXihei-32773"/>
     </g>
    </g>
   </g>
  </g>
  <g id="axes_2">
   <g id="patch_8">
    <path d="M 354 135.6 
L 512.4 135.6 
L 512.4 42 
L 354 42 
z
" style="fill:#ffffff;"/>
   </g>
   <g id="matplotlib.axis_3">
    <g id="xtick_8">
     <g id="line2d_38">
      <g>
       <use style="stroke:#000000;stroke-width:0.8;" x="378.24142" xlink:href="#m5e80797e1e" y="135.6"/>
      </g>
     </g>
     <g id="text_25">
      <!-- 100 -->
      <g transform="translate(368.268295 151.43125)scale(0.12 -0.12)">
       <use xlink:href="#STXihei-49"/>
       <use x="55.399994" xlink:href="#STXihei-48"/>
       <use x="110.799988" xlink:href="#STXihei-48"/>
      </g>
     </g>
    </g>
    <g id="xtick_9">
     <g id="line2d_39">
      <g>
       <use style="stroke:#000000;stroke-width:0.8;" x="420.84497" xlink:href="#m5e80797e1e" y="135.6"/>
      </g>
     </g>
     <g id="text_26">
      <!-- 150 -->
      <g transform="translate(410.871845 151.43125)scale(0.12 -0.12)">
       <use xlink:href="#STXihei-49"/>
       <use x="55.399994" xlink:href="#STXihei-53"/>
       <use x="110.799988" xlink:href="#STXihei-48"/>
      </g>
     </g>
    </g>
    <g id="xtick_10">
     <g id="line2d_40">
      <g>
       <use style="stroke:#000000;stroke-width:0.8;" x="463.448521" xlink:href="#m5e80797e1e" y="135.6"/>
      </g>
     </g>
     <g id="text_27">
      <!-- 200 -->
      <g transform="translate(453.475396 151.43125)scale(0.12 -0.12)">
       <use xlink:href="#STXihei-50"/>
       <use x="55.399994" xlink:href="#STXihei-48"/>
       <use x="110.799988" xlink:href="#STXihei-48"/>
      </g>
     </g>
    </g>
    <g id="xtick_11">
     <g id="line2d_41">
      <g>
       <use style="stroke:#000000;stroke-width:0.8;" x="506.052071" xlink:href="#m5e80797e1e" y="135.6"/>
      </g>
     </g>
     <g id="text_28">
      <!-- 250 -->
      <g transform="translate(496.078946 151.43125)scale(0.12 -0.12)">
       <use xlink:href="#STXihei-50"/>
       <use x="55.399994" xlink:href="#STXihei-53"/>
       <use x="110.799988" xlink:href="#STXihei-48"/>
      </g>
     </g>
    </g>
   </g>
   <g id="matplotlib.axis_4">
    <g id="ytick_7">
     <g id="line2d_42">
      <g>
       <use style="stroke:#000000;stroke-width:0.8;" x="354" xlink:href="#ma882a6c258" y="131.433887"/>
      </g>
     </g>
     <g id="text_29">
      <!-- 0.00 -->
      <g transform="translate(323.729375 135.849512)scale(0.12 -0.12)">
       <use xlink:href="#STXihei-48"/>
       <use x="55.399994" xlink:href="#STXihei-46"/>
       <use x="83.099991" xlink:href="#STXihei-48"/>
       <use x="138.499985" xlink:href="#STXihei-48"/>
      </g>
     </g>
    </g>
    <g id="ytick_8">
     <g id="line2d_43">
      <g>
       <use style="stroke:#000000;stroke-width:0.8;" x="354" xlink:href="#ma882a6c258" y="80.661035"/>
      </g>
     </g>
     <g id="text_30">
      <!-- 0.02 -->
      <g transform="translate(323.729375 85.07666)scale(0.12 -0.12)">
       <use xlink:href="#STXihei-48"/>
       <use x="55.399994" xlink:href="#STXihei-46"/>
       <use x="83.099991" xlink:href="#STXihei-48"/>
       <use x="138.499985" xlink:href="#STXihei-50"/>
      </g>
     </g>
    </g>
   </g>
   <g id="line2d_44"/>
   <g id="line2d_45">
    <path clip-path="url(#pa45d6da73d)" d="M 361.2 129.848557 
L 366.312426 129.128899 
L 370.572781 128.289807 
L 373.981065 127.408786 
L 377.389349 126.288692 
L 379.945562 125.256217 
L 382.501775 124.026243 
L 385.057988 122.565328 
L 387.614201 120.836219 
L 390.170414 118.798511 
L 392.726627 116.409258 
L 395.28284 113.625058 
L 397.839053 110.404438 
L 400.395266 106.711823 
L 402.951479 102.522461 
L 405.507692 97.829389 
L 408.063905 92.650955 
L 411.472189 85.087894 
L 415.732544 74.944535 
L 419.992899 64.814289 
L 422.549112 59.212446 
L 424.253254 55.849216 
L 425.957396 52.881087 
L 427.661538 50.38663 
L 429.36568 48.434965 
L 430.217751 47.680748 
L 431.069822 47.081897 
L 431.921893 46.642683 
L 432.773964 46.366306 
L 433.626036 46.254545 
L 434.478107 46.307961 
L 435.330178 46.525891 
L 436.182249 46.906303 
L 437.03432 47.445945 
L 437.886391 48.140394 
L 439.590533 49.970743 
L 441.294675 52.341496 
L 442.998817 55.184346 
L 444.702959 58.422043 
L 447.259172 63.840108 
L 450.667456 71.687018 
L 456.631953 85.5636 
L 460.040237 92.877221 
L 462.59645 97.882042 
L 465.152663 102.42366 
L 467.708876 106.488454 
L 470.265089 110.08476 
L 472.821302 113.236056 
L 475.377515 115.975177 
L 477.933728 118.340034 
L 480.489941 120.37022 
L 483.046154 122.10492 
L 485.602367 123.581285 
L 488.15858 124.833672 
L 491.566864 126.208289 
L 494.975148 127.303734 
L 498.383432 128.173981 
L 502.643787 129.01226 
L 505.2 129.409088 
L 505.2 129.409088 
" style="fill:none;stroke:#ff7f0e;stroke-linecap:square;stroke-width:1.5;"/>
   </g>
   <g id="line2d_46">
    <path clip-path="url(#pa45d6da73d)" d="M 361.2 130.641197 
L 368.016568 130.128745 
L 373.128994 129.541635 
L 377.389349 128.861315 
L 381.649704 127.947004 
L 385.057988 126.999608 
L 388.466272 125.813647 
L 391.874556 124.340636 
L 394.430769 123.016791 
L 396.986982 121.48137 
L 399.543195 119.715413 
L 402.099408 117.704438 
L 404.655621 115.441532 
L 407.211834 112.931219 
L 410.620118 109.236723 
L 414.880473 104.21884 
L 420.84497 97.160402 
L 423.401183 94.460264 
L 425.957396 92.157512 
L 427.661538 90.910258 
L 429.36568 89.934452 
L 431.069822 89.257892 
L 432.773964 88.900096 
L 434.478107 88.870924 
L 436.182249 89.17007 
L 437.886391 89.787166 
L 439.590533 90.70229 
L 441.294675 91.887691 
L 442.998817 93.309117 
L 445.55503 95.798745 
L 448.963314 99.570442 
L 458.336095 110.368557 
L 461.744379 113.848833 
L 464.300592 116.19824 
L 466.856805 118.31015 
L 469.413018 120.185376 
L 471.969231 121.833524 
L 474.525444 123.26979 
L 477.933728 124.886935 
L 481.342012 126.206663 
L 484.750296 127.274816 
L 488.15858 128.13378 
L 492.418935 128.969975 
L 497.531361 129.704422 
L 503.495858 130.293159 
L 505.2 130.421488 
L 505.2 130.421488 
" style="fill:none;stroke:#2ca02c;stroke-linecap:square;stroke-width:1.5;"/>
   </g>
   <g id="line2d_47">
    <path clip-path="url(#pa45d6da73d)" d="M 361.2 131.029639 
L 369.72071 130.679365 
L 376.537278 130.196035 
L 381.649704 129.646534 
L 386.76213 128.866194 
L 391.022485 127.98009 
L 394.430769 127.076452 
L 397.839053 125.966218 
L 401.247337 124.619656 
L 404.655621 123.013081 
L 408.063905 121.13572 
L 411.472189 118.998958 
L 415.732544 116.03403 
L 424.253254 109.931832 
L 426.809467 108.360174 
L 429.36568 107.055032 
L 431.069822 106.371154 
L 432.773964 105.858703 
L 434.478107 105.531808 
L 436.182249 105.399566 
L 437.886391 105.465077 
L 439.590533 105.725546 
L 441.294675 106.172384 
L 442.998817 106.791818 
L 445.55503 108.004258 
L 448.111243 109.490127 
L 451.519527 111.756489 
L 462.59645 119.419978 
L 466.004734 121.444167 
L 469.413018 123.219373 
L 472.821302 124.740615 
L 476.229586 126.02065 
L 479.63787 127.082094 
L 483.898225 128.143284 
L 488.15858 128.959912 
L 493.271006 129.686786 
L 499.235503 130.27593 
L 505.2 130.669403 
L 505.2 130.669403 
" style="fill:none;stroke:#d62728;stroke-linecap:square;stroke-width:1.5;"/>
   </g>
   <g id="line2d_48">
    <path clip-path="url(#pa45d6da73d)" d="M 361.2 131.191358 
L 372.276923 130.888503 
L 379.945562 130.48461 
L 385.910059 129.982883 
L 391.022485 129.361619 
L 396.134911 128.503011 
L 400.395266 127.56151 
L 404.655621 126.381393 
L 408.915976 124.948431 
L 413.176331 123.280869 
L 420.84497 119.951386 
L 425.105325 118.203624 
L 428.513609 117.046836 
L 431.069822 116.396247 
L 433.626036 115.976346 
L 436.182249 115.813304 
L 438.738462 115.916374 
L 441.294675 116.276965 
L 443.850888 116.870022 
L 447.259172 117.9552 
L 451.519527 119.627438 
L 463.448521 124.542455 
L 467.708876 125.991782 
L 471.969231 127.203765 
L 476.229586 128.185924 
L 480.489941 128.96347 
L 485.602367 129.671387 
L 491.566864 130.256058 
L 498.383432 130.696848 
L 505.2 130.975207 
L 505.2 130.975207 
" style="fill:none;stroke:#9467bd;stroke-linecap:square;stroke-width:1.5;"/>
   </g>
   <g id="line2d_49">
    <path clip-path="url(#pa45d6da73d)" d="M 361.2 131.212806 
L 373.128994 130.905528 
L 381.649704 130.458538 
L 387.614201 129.948577 
L 392.726627 129.322638 
L 397.839053 128.467892 
L 402.099408 127.544941 
L 406.359763 126.410413 
L 410.620118 125.068578 
L 416.584615 122.932628 
L 423.401183 120.492755 
L 426.809467 119.486505 
L 429.36568 118.907832 
L 431.921893 118.520355 
L 434.478107 118.348725 
L 437.03432 118.403563 
L 439.590533 118.679838 
L 442.146746 119.157831 
L 445.55503 120.053032 
L 449.815385 121.451943 
L 462.59645 125.866401 
L 466.856805 127.054497 
L 471.11716 128.040621 
L 476.229586 128.972923 
L 481.342012 129.670574 
L 487.306509 130.251484 
L 494.123077 130.692121 
L 503.495858 131.047071 
L 505.2 131.090576 
L 505.2 131.090576 
" style="fill:none;stroke:#8c564b;stroke-linecap:square;stroke-width:1.5;"/>
   </g>
   <g id="line2d_50">
    <path clip-path="url(#pa45d6da73d)" d="M 361.2 131.345455 
L 378.24142 131.128185 
L 388.466272 130.803475 
L 396.986982 130.311709 
L 403.80355 129.707116 
L 410.620118 128.887743 
L 429.36568 126.423475 
L 433.626036 126.212711 
L 437.886391 126.24905 
L 442.146746 126.523444 
L 447.259172 127.09419 
L 469.413018 129.9284 
L 477.081657 130.502042 
L 485.602367 130.903241 
L 496.67929 131.185209 
L 505.2 131.296563 
L 505.2 131.296563 
" style="fill:none;stroke:#e377c2;stroke-linecap:square;stroke-width:1.5;"/>
   </g>
   <g id="patch_9">
    <path d="M 354 135.6 
L 354 42 
" style="fill:none;stroke:#000000;stroke-linecap:square;stroke-linejoin:miter;stroke-width:0.8;"/>
   </g>
   <g id="patch_10">
    <path d="M 512.4 135.6 
L 512.4 42 
" style="fill:none;stroke:#000000;stroke-linecap:square;stroke-linejoin:miter;stroke-width:0.8;"/>
   </g>
   <g id="patch_11">
    <path d="M 354 135.6 
L 512.4 135.6 
" style="fill:none;stroke:#000000;stroke-linecap:square;stroke-linejoin:miter;stroke-width:0.8;"/>
   </g>
   <g id="patch_12">
    <path d="M 354 42 
L 512.4 42 
" style="fill:none;stroke:#000000;stroke-linecap:square;stroke-linejoin:miter;stroke-width:0.8;"/>
   </g>
  </g>
 </g>
 <defs>
  <clipPath id="p2252e11873">
   <rect height="270" width="449.28" x="69.12" y="36"/>
  </clipPath>
  <clipPath id="pa45d6da73d">
   <rect height="93.6" width="158.4" x="354" y="42"/>
  </clipPath>
 </defs>
</svg>
