<?xml version="1.0" encoding="utf-8" standalone="no"?>
<!DOCTYPE svg PUBLIC "-//W3C//DTD SVG 1.1//EN"
  "http://www.w3.org/Graphics/SVG/1.1/DTD/svg11.dtd">
<!-- Created with matplotlib (https://matplotlib.org/) -->
<svg height="360pt" version="1.1" viewBox="0 0 576 360" width="576pt" xmlns="http://www.w3.org/2000/svg" xmlns:xlink="http://www.w3.org/1999/xlink">
 <defs>
  <style type="text/css">
*{stroke-linecap:butt;stroke-linejoin:round;}
  </style>
 </defs>
 <g id="figure_1">
  <g id="patch_1">
   <path d="M 0 360 
L 576 360 
L 576 0 
L 0 0 
z
" style="fill:#ffffff;"/>
  </g>
  <g id="axes_1">
   <g id="patch_2">
    <path d="M 69.12 306 
L 518.4 306 
L 518.4 36 
L 69.12 36 
z
" style="fill:#ffffff;"/>
   </g>
   <g id="matplotlib.axis_1">
    <g id="xtick_1">
     <g id="line2d_1">
      <defs>
       <path d="M 0 0 
L 0 3.5 
" id="m2d68639849" style="stroke:#000000;stroke-width:0.8;"/>
      </defs>
      <g>
       <use style="stroke:#000000;stroke-width:0.8;" x="89.541818" xlink:href="#m2d68639849" y="306"/>
      </g>
     </g>
     <g id="text_1">
      <!-- 0 -->
      <defs>
       <path d="M 3.125 29.296875 
Q 3.90625 50 6.4375 56.046875 
Q 8.984375 62.109375 13.671875 66.015625 
Q 18.359375 69.921875 25.1875 69.921875 
Q 32.03125 69.921875 37.109375 64.25 
Q 42.1875 58.59375 43.75 50 
Q 45.3125 41.40625 44.71875 30.265625 
Q 44.140625 19.140625 40.8125 12.109375 
Q 37.5 5.078125 30.859375 2.34375 
Q 24.21875 -0.390625 17.578125 2.921875 
Q 10.9375 6.25 8.203125 11.71875 
Q 5.46875 17.1875 4.296875 23.234375 
Q 3.125 29.296875 3.90625 50 
z
M 12.890625 52.734375 
Q 10.546875 31.25 12.5 22.84375 
Q 14.453125 14.453125 18.9375 10.9375 
Q 23.4375 7.421875 28.125 9.5625 
Q 32.8125 11.71875 34.953125 18.15625 
Q 37.109375 24.609375 37.109375 32.21875 
Q 37.109375 39.84375 36.515625 46.09375 
Q 35.9375 52.34375 33 57.421875 
Q 30.078125 62.5 25.1875 62.6875 
Q 20.3125 62.890625 16.59375 57.8125 
Q 12.890625 52.734375 10.546875 31.25 
z
" id="SimHei-48"/>
      </defs>
      <g transform="translate(87.041818 319.875)scale(0.1 -0.1)">
       <use xlink:href="#SimHei-48"/>
      </g>
     </g>
    </g>
    <g id="xtick_2">
     <g id="line2d_2">
      <g>
       <use style="stroke:#000000;stroke-width:0.8;" x="171.392793" xlink:href="#m2d68639849" y="306"/>
      </g>
     </g>
     <g id="text_2">
      <!-- 100 -->
      <defs>
       <path d="M 21.875 56.25 
Q 16.796875 51.171875 8.984375 46.484375 
L 8.984375 53.90625 
Q 18.75 60.546875 25 69.53125 
L 29.6875 69.53125 
L 29.6875 2.34375 
L 21.875 2.34375 
z
" id="SimHei-49"/>
      </defs>
      <g transform="translate(163.892793 319.875)scale(0.1 -0.1)">
       <use xlink:href="#SimHei-49"/>
       <use x="50" xlink:href="#SimHei-48"/>
       <use x="100" xlink:href="#SimHei-48"/>
      </g>
     </g>
    </g>
    <g id="xtick_3">
     <g id="line2d_3">
      <g>
       <use style="stroke:#000000;stroke-width:0.8;" x="253.243768" xlink:href="#m2d68639849" y="306"/>
      </g>
     </g>
     <g id="text_3">
      <!-- 200 -->
      <defs>
       <path d="M 4.6875 3.90625 
Q 5.078125 9.765625 10.15625 14.453125 
Q 15.234375 19.140625 23.046875 29.09375 
Q 30.859375 39.0625 33.203125 44.53125 
Q 35.546875 50 34.953125 53.90625 
Q 34.375 57.8125 31.25 60.34375 
Q 28.125 62.890625 24.015625 62.5 
Q 19.921875 62.109375 16.203125 59.375 
Q 12.5 56.640625 10.546875 51.171875 
L 3.125 52.34375 
Q 6.25 61.328125 11.125 65.421875 
Q 16.015625 69.53125 22.65625 69.921875 
Q 26.5625 70.3125 29.6875 69.71875 
Q 32.8125 69.140625 36.125 66.984375 
Q 39.453125 64.84375 41.59375 60.546875 
Q 43.75 56.25 43.15625 50.1875 
Q 42.578125 44.140625 37.109375 35.734375 
Q 31.640625 27.34375 16.015625 9.375 
L 44.140625 9.375 
L 44.140625 2.34375 
L 4.6875 2.34375 
z
" id="SimHei-50"/>
      </defs>
      <g transform="translate(245.743768 319.875)scale(0.1 -0.1)">
       <use xlink:href="#SimHei-50"/>
       <use x="50" xlink:href="#SimHei-48"/>
       <use x="100" xlink:href="#SimHei-48"/>
      </g>
     </g>
    </g>
    <g id="xtick_4">
     <g id="line2d_4">
      <g>
       <use style="stroke:#000000;stroke-width:0.8;" x="335.094742" xlink:href="#m2d68639849" y="306"/>
      </g>
     </g>
     <g id="text_4">
      <!-- 300 -->
      <defs>
       <path d="M 3.90625 19.140625 
L 10.9375 20.3125 
Q 12.5 15.234375 16.015625 11.90625 
Q 19.53125 8.59375 24.796875 8.78125 
Q 30.078125 8.984375 33.203125 13.078125 
Q 36.328125 17.1875 35.9375 22.453125 
Q 35.546875 27.734375 31.828125 30.65625 
Q 28.125 33.59375 19.921875 34.765625 
L 19.921875 39.84375 
Q 28.125 40.625 31.828125 44.140625 
Q 35.546875 47.65625 35.15625 53.3125 
Q 34.765625 58.984375 30.078125 61.515625 
Q 25.390625 64.0625 20.109375 62.109375 
Q 14.84375 60.15625 11.71875 51.171875 
L 4.6875 52.34375 
Q 7.03125 59.375 11.125 64.0625 
Q 15.234375 68.75 22.265625 69.53125 
Q 29.296875 70.3125 34.5625 67.765625 
Q 39.84375 65.234375 41.984375 59.953125 
Q 44.140625 54.6875 42.578125 48.4375 
Q 41.015625 42.1875 33.59375 37.5 
Q 39.0625 35.15625 41.984375 30.46875 
Q 44.921875 25.78125 43.9375 18.15625 
Q 42.96875 10.546875 37.109375 5.859375 
Q 31.25 1.171875 23.828125 1.359375 
Q 16.40625 1.5625 10.9375 6.046875 
Q 5.46875 10.546875 3.90625 19.140625 
z
" id="SimHei-51"/>
      </defs>
      <g transform="translate(327.594742 319.875)scale(0.1 -0.1)">
       <use xlink:href="#SimHei-51"/>
       <use x="50" xlink:href="#SimHei-48"/>
       <use x="100" xlink:href="#SimHei-48"/>
      </g>
     </g>
    </g>
    <g id="xtick_5">
     <g id="line2d_5">
      <g>
       <use style="stroke:#000000;stroke-width:0.8;" x="416.945717" xlink:href="#m2d68639849" y="306"/>
      </g>
     </g>
     <g id="text_5">
      <!-- 400 -->
      <defs>
       <path d="M 31.25 17.1875 
L 1.171875 17.1875 
L 1.171875 23.828125 
L 32.8125 69.53125 
L 38.671875 69.53125 
L 38.671875 23.828125 
L 48.046875 23.828125 
L 48.046875 17.1875 
L 38.671875 17.1875 
L 38.671875 2.34375 
L 31.25 2.34375 
z
M 31.25 23.828125 
L 31.25 54.6875 
L 9.375 23.828125 
z
" id="SimHei-52"/>
      </defs>
      <g transform="translate(409.445717 319.875)scale(0.1 -0.1)">
       <use xlink:href="#SimHei-52"/>
       <use x="50" xlink:href="#SimHei-48"/>
       <use x="100" xlink:href="#SimHei-48"/>
      </g>
     </g>
    </g>
    <g id="xtick_6">
     <g id="line2d_6">
      <g>
       <use style="stroke:#000000;stroke-width:0.8;" x="498.796692" xlink:href="#m2d68639849" y="306"/>
      </g>
     </g>
     <g id="text_6">
      <!-- 500 -->
      <defs>
       <path d="M 8.59375 20.703125 
Q 11.328125 10.15625 17.96875 8.984375 
Q 24.609375 7.8125 28.703125 10.34375 
Q 32.8125 12.890625 34.5625 16.984375 
Q 36.328125 21.09375 36.125 26.171875 
Q 35.9375 31.25 33.390625 34.765625 
Q 30.859375 38.28125 26.953125 39.453125 
Q 23.046875 40.625 18.15625 39.453125 
Q 13.28125 38.28125 10.15625 33.984375 
L 3.515625 34.765625 
Q 4.296875 37.109375 10.9375 68.359375 
L 41.796875 68.359375 
L 41.796875 61.328125 
L 16.796875 61.328125 
Q 14.84375 50.78125 12.890625 44.53125 
Q 18.75 47.265625 23.828125 47.0625 
Q 28.90625 46.875 33.59375 44.71875 
Q 38.28125 42.578125 40.421875 38.859375 
Q 42.578125 35.15625 43.546875 31.4375 
Q 44.53125 27.734375 44.328125 23.4375 
Q 44.140625 19.140625 42.578125 14.640625 
Q 41.015625 10.15625 37.890625 7.21875 
Q 34.765625 4.296875 30.265625 2.53125 
Q 25.78125 0.78125 19.921875 1.171875 
Q 14.0625 1.5625 8.78125 5.46875 
Q 3.515625 9.375 1.5625 18.75 
z
" id="SimHei-53"/>
      </defs>
      <g transform="translate(491.296692 319.875)scale(0.1 -0.1)">
       <use xlink:href="#SimHei-53"/>
       <use x="50" xlink:href="#SimHei-48"/>
       <use x="100" xlink:href="#SimHei-48"/>
      </g>
     </g>
    </g>
    <g id="text_7">
     <!-- 时间（天） -->
     <defs>
      <path d="M 39.453125 71.484375 
Q 39.0625 57.421875 39.0625 37.5 
Q 39.0625 17.578125 39.453125 6.25 
L 31.25 6.25 
L 31.25 13.671875 
L 15.625 13.671875 
L 15.625 0.78125 
L 7.421875 0.78125 
Q 7.8125 18.75 7.8125 36.71875 
Q 7.8125 55.078125 7.421875 71.484375 
L 39.453125 71.484375 
z
M 76.171875 59.765625 
Q 76.171875 71.484375 75.78125 81.640625 
L 84.375 81.640625 
Q 83.984375 71.484375 83.984375 59.765625 
Q 89.84375 59.765625 96.484375 60.15625 
L 96.484375 52.734375 
Q 89.84375 53.125 83.984375 53.125 
L 83.984375 0.78125 
Q 83.984375 -5.078125 79.296875 -6.640625 
Q 74.609375 -8.203125 67.1875 -8.984375 
Q 67.1875 -4.296875 62.890625 0 
Q 70.3125 -0.78125 73.234375 -0.390625 
Q 76.171875 0 76.171875 4.6875 
L 76.171875 53.125 
Q 56.640625 53.125 43.359375 52.734375 
L 43.359375 60.15625 
Q 55.859375 59.765625 76.171875 59.765625 
z
M 31.25 20.3125 
L 31.25 39.84375 
L 15.625 39.84375 
L 15.625 20.3125 
z
M 31.25 46.484375 
L 31.25 64.84375 
L 15.625 64.84375 
L 15.625 46.484375 
z
M 55.46875 42.578125 
Q 60.546875 34.375 65.234375 25 
Q 61.328125 23.828125 57.03125 21.484375 
Q 53.90625 30.859375 48.046875 39.0625 
Q 51.5625 40.625 55.46875 42.578125 
z
" id="SimHei-26102"/>
      <path d="M 69.53125 55.46875 
Q 69.140625 48.046875 69.140625 42.578125 
L 69.140625 21.875 
Q 69.140625 16.796875 69.53125 9.765625 
L 30.078125 9.765625 
Q 30.46875 16.796875 30.46875 22.265625 
L 30.46875 42.578125 
Q 30.46875 48.046875 30.078125 55.46875 
L 69.53125 55.46875 
z
M 90.625 76.171875 
Q 90.234375 68.75 90.234375 61.328125 
L 90.234375 3.90625 
Q 90.625 -5.078125 85.34375 -7.03125 
Q 80.078125 -8.984375 73.828125 -9.765625 
Q 73.4375 -5.078125 70.703125 -0.390625 
Q 78.125 -0.78125 80.265625 0.390625 
Q 82.421875 1.5625 82.421875 5.46875 
L 82.421875 69.53125 
L 58.984375 69.53125 
Q 49.609375 69.53125 41.40625 69.140625 
L 41.40625 76.5625 
Q 49.609375 76.171875 58.984375 76.171875 
z
M 8.59375 -8.203125 
Q 9.375 -0.390625 9.375 8.203125 
L 9.375 49.21875 
Q 9.375 57.421875 8.59375 62.890625 
L 17.578125 62.890625 
Q 17.1875 57.03125 17.1875 51.5625 
L 17.1875 7.8125 
Q 17.1875 0 17.578125 -8.203125 
z
M 61.71875 16.015625 
L 61.71875 30.46875 
L 37.890625 30.46875 
L 37.890625 16.015625 
z
M 61.71875 36.71875 
L 61.71875 49.21875 
L 37.890625 49.21875 
L 37.890625 36.71875 
z
M 23.828125 82.8125 
Q 27.34375 78.125 34.765625 67.96875 
Q 30.46875 66.015625 26.5625 63.671875 
Q 22.65625 71.484375 16.796875 78.515625 
Q 21.09375 81.640625 23.828125 82.8125 
z
" id="SimHei-38388"/>
      <path d="M 84.765625 79.6875 
L 89.0625 74.609375 
Q 66.796875 58.203125 67.578125 36.71875 
Q 67.96875 16.015625 88.671875 0.78125 
L 84.375 -4.296875 
Q 60.546875 12.890625 61.328125 39.0625 
Q 61.328125 60.546875 84.765625 79.6875 
z
" id="SimHei-65288"/>
      <path d="M 69.921875 76.5625 
Q 76.953125 76.5625 83.984375 76.953125 
L 83.984375 68.75 
Q 76.953125 69.140625 69.921875 69.140625 
L 53.90625 69.140625 
L 53.90625 48.046875 
L 78.90625 48.046875 
Q 86.328125 48.046875 92.1875 48.4375 
L 92.1875 40.234375 
Q 86.71875 40.625 79.296875 40.625 
L 55.078125 40.625 
Q 60.546875 25.78125 70.703125 15.234375 
Q 80.859375 4.6875 96.875 0.78125 
Q 91.40625 -3.515625 90.234375 -7.03125 
Q 78.125 -2.734375 67.96875 6.4375 
Q 57.8125 15.625 50.390625 32.8125 
Q 45.703125 16.796875 35.546875 7.21875 
Q 25.390625 -2.34375 10.15625 -8.984375 
Q 8.59375 -5.078125 3.515625 -1.5625 
Q 14.84375 1.5625 27.34375 11.515625 
Q 39.84375 21.484375 44.921875 40.625 
L 23.4375 40.625 
Q 14.84375 40.625 8.984375 40.234375 
L 8.984375 48.4375 
Q 15.234375 48.046875 23.4375 48.046875 
L 46.09375 48.046875 
L 46.09375 69.140625 
L 29.6875 69.140625 
Q 21.484375 69.140625 15.625 68.75 
L 15.625 76.953125 
Q 21.875 76.5625 29.6875 76.5625 
z
" id="SimHei-22825"/>
      <path d="M 15.625 79.6875 
Q 39.0625 60.546875 39.0625 39.0625 
Q 39.84375 12.890625 16.015625 -4.296875 
L 11.71875 0.78125 
Q 32.421875 16.015625 32.8125 36.71875 
Q 33.59375 58.203125 11.328125 74.609375 
L 15.625 79.6875 
z
" id="SimHei-65289"/>
     </defs>
     <g transform="translate(256.26 343.136719)scale(0.15 -0.15)">
      <use xlink:href="#SimHei-26102"/>
      <use x="100" xlink:href="#SimHei-38388"/>
      <use x="200" xlink:href="#SimHei-65288"/>
      <use x="300" xlink:href="#SimHei-22825"/>
      <use x="400" xlink:href="#SimHei-65289"/>
     </g>
    </g>
   </g>
   <g id="matplotlib.axis_2">
    <g id="ytick_1">
     <g id="line2d_7">
      <defs>
       <path d="M 0 0 
L -3.5 0 
" id="m34edaeb820" style="stroke:#000000;stroke-width:0.8;"/>
      </defs>
      <g>
       <use style="stroke:#000000;stroke-width:0.8;" x="69.12" xlink:href="#m34edaeb820" y="293.727273"/>
      </g>
     </g>
     <g id="text_8">
      <!-- 0.0 -->
      <defs>
       <path d="M 16.796875 1.953125 
L 7.8125 1.953125 
L 7.8125 10.546875 
L 16.796875 10.546875 
z
" id="SimHei-46"/>
      </defs>
      <g transform="translate(47.12 297.164773)scale(0.1 -0.1)">
       <use xlink:href="#SimHei-48"/>
       <use x="50" xlink:href="#SimHei-46"/>
       <use x="100" xlink:href="#SimHei-48"/>
      </g>
     </g>
    </g>
    <g id="ytick_2">
     <g id="line2d_8">
      <g>
       <use style="stroke:#000000;stroke-width:0.8;" x="69.12" xlink:href="#m34edaeb820" y="244.635872"/>
      </g>
     </g>
     <g id="text_9">
      <!-- 0.2 -->
      <g transform="translate(47.12 248.073372)scale(0.1 -0.1)">
       <use xlink:href="#SimHei-48"/>
       <use x="50" xlink:href="#SimHei-46"/>
       <use x="100" xlink:href="#SimHei-50"/>
      </g>
     </g>
    </g>
    <g id="ytick_3">
     <g id="line2d_9">
      <g>
       <use style="stroke:#000000;stroke-width:0.8;" x="69.12" xlink:href="#m34edaeb820" y="195.544472"/>
      </g>
     </g>
     <g id="text_10">
      <!-- 0.4 -->
      <g transform="translate(47.12 198.981972)scale(0.1 -0.1)">
       <use xlink:href="#SimHei-48"/>
       <use x="50" xlink:href="#SimHei-46"/>
       <use x="100" xlink:href="#SimHei-52"/>
      </g>
     </g>
    </g>
    <g id="ytick_4">
     <g id="line2d_10">
      <g>
       <use style="stroke:#000000;stroke-width:0.8;" x="69.12" xlink:href="#m34edaeb820" y="146.453071"/>
      </g>
     </g>
     <g id="text_11">
      <!-- 0.6 -->
      <defs>
       <path d="M 3.515625 19.53125 
Q 4.296875 30.859375 6.046875 34.765625 
Q 7.8125 38.671875 11.328125 44.53125 
L 27.34375 69.53125 
L 36.328125 69.53125 
L 19.921875 43.75 
Q 30.46875 46.484375 36.71875 42.96875 
Q 42.96875 39.453125 45.109375 34.953125 
Q 47.265625 30.46875 47.453125 25.1875 
Q 47.65625 19.921875 45.890625 14.84375 
Q 44.140625 9.765625 39.640625 5.65625 
Q 35.15625 1.5625 27.140625 1.171875 
Q 19.140625 0.78125 13.46875 4.09375 
Q 7.8125 7.421875 5.65625 13.46875 
Q 3.515625 19.53125 4.296875 30.859375 
z
M 12.5 16.015625 
Q 19.53125 8.59375 25.390625 8.203125 
Q 31.25 7.8125 35.15625 12.109375 
Q 39.0625 16.40625 39.0625 24.609375 
Q 39.0625 32.8125 34.171875 35.9375 
Q 29.296875 39.0625 23.234375 38.28125 
Q 17.1875 37.5 14.453125 32.421875 
Q 11.71875 27.34375 12.109375 21.671875 
Q 12.5 16.015625 19.53125 8.59375 
z
" id="SimHei-54"/>
      </defs>
      <g transform="translate(47.12 149.890571)scale(0.1 -0.1)">
       <use xlink:href="#SimHei-48"/>
       <use x="50" xlink:href="#SimHei-46"/>
       <use x="100" xlink:href="#SimHei-54"/>
      </g>
     </g>
    </g>
    <g id="ytick_5">
     <g id="line2d_11">
      <g>
       <use style="stroke:#000000;stroke-width:0.8;" x="69.12" xlink:href="#m34edaeb820" y="97.361671"/>
      </g>
     </g>
     <g id="text_12">
      <!-- 0.8 -->
      <defs>
       <path d="M 2.734375 16.796875 
Q 2.734375 26.171875 5.078125 30.65625 
Q 7.421875 35.15625 12.890625 37.890625 
Q 8.203125 40.625 6.640625 43.9375 
Q 5.078125 47.265625 4.875 51.5625 
Q 4.6875 55.859375 6.046875 58.984375 
Q 7.421875 62.109375 10.15625 64.84375 
Q 12.890625 67.578125 16.203125 68.546875 
Q 19.53125 69.53125 23.4375 69.53125 
Q 27.34375 69.53125 30.46875 68.75 
Q 33.59375 67.96875 37.109375 65.421875 
Q 40.625 62.890625 42.1875 58.203125 
Q 43.75 53.515625 41.984375 47.265625 
Q 40.234375 41.015625 32.8125 37.5 
Q 39.453125 35.546875 42.1875 31.4375 
Q 44.921875 27.34375 44.921875 21.484375 
Q 44.921875 15.625 43.15625 12.109375 
Q 41.40625 8.59375 39.25 6.25 
Q 37.109375 3.90625 33.390625 2.53125 
Q 29.6875 1.171875 24.015625 1.171875 
Q 18.359375 1.171875 14.25 2.53125 
Q 10.15625 3.90625 7.421875 6.640625 
Q 4.6875 9.375 3.703125 13.078125 
Q 2.734375 16.796875 2.734375 26.171875 
z
M 10.9375 26.5625 
Q 10.546875 17.1875 12.296875 13.671875 
Q 14.0625 10.15625 18.75 9.171875 
Q 23.4375 8.203125 28.515625 9.375 
Q 33.59375 10.546875 35.546875 14.84375 
Q 37.5 19.140625 36.90625 23.4375 
Q 36.328125 27.734375 32.03125 30.65625 
Q 27.734375 33.59375 22.65625 33.203125 
Q 17.578125 32.8125 14.25 29.6875 
Q 10.9375 26.5625 10.546875 17.1875 
z
M 12.109375 56.25 
Q 12.109375 48.4375 14.84375 44.921875 
Q 17.578125 41.40625 23.4375 41.40625 
Q 29.296875 41.40625 32.21875 44.921875 
Q 35.15625 48.4375 34.953125 53.3125 
Q 34.765625 58.203125 31.4375 60.546875 
Q 28.125 62.890625 22.453125 62.5 
Q 16.796875 62.109375 14.453125 59.171875 
Q 12.109375 56.25 12.109375 48.4375 
z
" id="SimHei-56"/>
      </defs>
      <g transform="translate(47.12 100.799171)scale(0.1 -0.1)">
       <use xlink:href="#SimHei-48"/>
       <use x="50" xlink:href="#SimHei-46"/>
       <use x="100" xlink:href="#SimHei-56"/>
      </g>
     </g>
    </g>
    <g id="ytick_6">
     <g id="line2d_12">
      <g>
       <use style="stroke:#000000;stroke-width:0.8;" x="69.12" xlink:href="#m34edaeb820" y="48.27027"/>
      </g>
     </g>
     <g id="text_13">
      <!-- 1.0 -->
      <g transform="translate(47.12 51.70777)scale(0.1 -0.1)">
       <use xlink:href="#SimHei-49"/>
       <use x="50" xlink:href="#SimHei-46"/>
       <use x="100" xlink:href="#SimHei-48"/>
      </g>
     </g>
    </g>
    <g id="text_14">
     <!-- 数量（%） -->
     <defs>
      <path d="M 70.703125 76.953125 
Q 69.921875 75 68.75 71.671875 
Q 67.578125 68.359375 65.234375 59.765625 
L 83.203125 59.765625 
Q 87.109375 59.765625 92.578125 60.15625 
L 92.578125 53.125 
Q 88.28125 53.515625 85.9375 53.515625 
Q 85.9375 47.265625 83.78125 33.78125 
Q 81.640625 20.3125 76.171875 10.546875 
Q 80.078125 5.859375 84.953125 2.140625 
Q 89.84375 -1.5625 94.140625 -3.125 
Q 89.453125 -6.640625 87.890625 -9.765625 
Q 83.203125 -7.03125 79.296875 -3.515625 
Q 75.390625 0 71.484375 5.078125 
Q 67.1875 0.390625 62.296875 -2.921875 
Q 57.421875 -6.25 50 -10.15625 
Q 48.046875 -6.640625 44.53125 -4.6875 
Q 50.390625 -2.34375 57.03125 1.953125 
Q 63.671875 6.25 67.1875 10.546875 
Q 64.453125 16.015625 61.90625 22.265625 
Q 59.375 28.515625 57.421875 38.671875 
Q 56.25 35.546875 53.515625 30.46875 
Q 50.78125 32.03125 46.875 33.59375 
Q 53.125 44.53125 57.03125 57.421875 
Q 60.9375 70.3125 62.109375 79.6875 
Q 66.796875 77.734375 70.703125 76.953125 
z
M 32.8125 35.15625 
Q 31.25 33.59375 29.296875 30.078125 
L 50.78125 30.078125 
Q 48.4375 20.3125 42.578125 10.546875 
Q 48.828125 8.203125 52.34375 6.25 
Q 50.390625 3.515625 48.828125 0.390625 
Q 45.3125 2.734375 38.28125 5.078125 
Q 30.46875 -3.515625 11.328125 -10.15625 
Q 9.375 -5.859375 6.25 -4.296875 
Q 24.609375 0 31.25 7.421875 
Q 20.3125 10.15625 13.28125 12.109375 
Q 15.625 15.625 19.53125 23.828125 
Q 15.625 23.828125 6.640625 23.4375 
L 6.640625 30.46875 
Q 14.0625 30.078125 21.875 30.078125 
Q 23.4375 33.59375 24.21875 37.890625 
Q 28.515625 36.328125 32.8125 35.15625 
z
M 27.734375 61.71875 
Q 27.734375 71.09375 27.34375 79.6875 
L 35.15625 79.6875 
Q 34.765625 71.484375 34.765625 61.71875 
Q 48.046875 61.71875 53.515625 62.109375 
L 53.515625 55.078125 
Q 48.046875 55.46875 34.765625 55.46875 
Q 34.765625 44.140625 35.15625 37.890625 
L 27.34375 37.890625 
Q 27.734375 43.359375 27.734375 51.5625 
Q 25.78125 48.4375 20.3125 43.546875 
Q 14.84375 38.671875 10.15625 35.9375 
Q 8.203125 39.453125 4.296875 41.015625 
Q 7.8125 42.1875 13.671875 46.484375 
Q 19.53125 50.78125 22.65625 55.46875 
Q 14.84375 55.46875 7.8125 55.078125 
L 7.8125 62.109375 
Q 14.453125 61.71875 27.734375 61.71875 
z
M 62.109375 49.609375 
Q 65.625 26.5625 71.875 17.578125 
Q 75.78125 26.5625 77.140625 35.734375 
Q 78.515625 44.921875 78.90625 53.515625 
L 63.671875 53.515625 
L 62.109375 49.609375 
z
M 22.65625 15.625 
Q 27.34375 14.453125 35.546875 12.5 
Q 38.671875 16.40625 41.40625 23.828125 
L 26.953125 23.828125 
Q 25 19.921875 22.65625 15.625 
z
M 51.953125 75.390625 
Q 50 72.265625 48.828125 69.53125 
Q 47.65625 66.796875 45.703125 62.890625 
Q 42.578125 64.453125 39.453125 65.234375 
Q 42.578125 70.3125 45.3125 78.125 
Q 49.21875 76.171875 51.953125 75.390625 
z
M 40.234375 52.734375 
Q 45.3125 47.65625 50 42.578125 
Q 47.65625 40.625 44.921875 37.890625 
Q 39.453125 44.53125 35.9375 48.4375 
Q 38.28125 50.390625 40.234375 52.734375 
z
M 14.453125 78.125 
Q 19.921875 72.65625 23.4375 67.1875 
L 17.578125 63.671875 
Q 14.84375 69.140625 9.375 73.828125 
Q 12.890625 76.171875 14.453125 78.125 
z
" id="SimHei-25968"/>
      <path d="M 82.03125 39.0625 
Q 81.640625 34.375 81.640625 26.5625 
Q 81.640625 19.140625 82.03125 14.84375 
L 53.515625 14.84375 
L 53.515625 9.765625 
L 71.484375 9.765625 
Q 78.125 9.765625 83.984375 10.15625 
L 83.984375 4.296875 
Q 78.515625 4.6875 71.484375 4.6875 
L 53.515625 4.6875 
L 53.515625 -1.171875 
L 80.078125 -1.171875 
Q 86.328125 -1.171875 92.578125 -0.78125 
L 92.578125 -6.640625 
Q 86.328125 -6.25 80.078125 -6.25 
L 19.921875 -6.25 
Q 14.0625 -6.25 7.421875 -6.640625 
L 7.421875 -0.78125 
Q 14.453125 -0.78125 19.921875 -1.171875 
L 46.484375 -1.171875 
L 46.484375 4.6875 
L 26.953125 4.6875 
Q 21.09375 4.6875 15.234375 3.90625 
L 15.234375 10.15625 
Q 21.484375 9.765625 26.953125 9.765625 
L 46.484375 9.765625 
L 46.484375 14.84375 
L 17.96875 14.84375 
Q 18.359375 21.484375 18.359375 27.734375 
Q 18.359375 33.984375 17.96875 39.0625 
L 82.03125 39.0625 
z
M 81.25 77.34375 
Q 80.859375 71.484375 80.859375 66.40625 
Q 80.859375 61.328125 81.25 53.125 
L 18.75 53.125 
Q 19.140625 61.328125 19.140625 66.40625 
Q 19.140625 71.484375 18.75 77.34375 
L 81.25 77.34375 
z
M 76.5625 48.4375 
Q 85.9375 48.828125 93.75 49.21875 
L 93.75 42.96875 
Q 85.9375 43.359375 76.953125 43.359375 
L 25.78125 43.359375 
Q 15.234375 43.359375 5.078125 42.96875 
L 5.078125 49.21875 
Q 15.234375 48.828125 25.78125 48.4375 
z
M 73.828125 57.8125 
L 73.828125 62.890625 
L 26.171875 62.890625 
L 26.171875 57.8125 
z
M 73.828125 67.96875 
L 73.828125 72.65625 
L 26.171875 72.65625 
L 26.171875 67.96875 
z
M 74.21875 29.296875 
L 74.21875 33.984375 
L 53.515625 33.984375 
L 53.515625 29.296875 
z
M 46.484375 29.296875 
L 46.484375 33.984375 
L 25.78125 33.984375 
L 25.78125 29.296875 
z
M 46.484375 19.921875 
L 46.484375 24.21875 
L 25.78125 24.21875 
L 25.78125 19.921875 
z
M 74.21875 19.921875 
L 74.21875 24.21875 
L 53.515625 24.21875 
L 53.515625 19.921875 
z
" id="SimHei-37327"/>
      <path d="M 21.875 51.953125 
Q 21.875 40.625 18.546875 37.5 
Q 15.234375 34.375 12.109375 34.375 
Q 8.984375 34.375 5.65625 37.5 
Q 2.34375 40.625 2.34375 51.953125 
Q 2.34375 63.28125 5.65625 66.40625 
Q 8.984375 69.53125 12.109375 69.53125 
Q 15.234375 69.53125 18.546875 66.40625 
Q 21.875 63.28125 21.875 51.953125 
z
M 41.015625 68.359375 
L 10.9375 1.171875 
L 7.8125 2.34375 
L 37.890625 69.53125 
z
M 46.484375 18.75 
Q 46.484375 7.421875 43.15625 4.296875 
Q 39.84375 1.171875 36.71875 1.171875 
Q 33.59375 1.171875 30.265625 4.296875 
Q 26.953125 7.421875 26.953125 18.75 
Q 26.953125 30.078125 30.265625 33.203125 
Q 33.59375 36.328125 36.71875 36.328125 
Q 39.84375 36.328125 43.15625 33.203125 
Q 46.484375 30.078125 46.484375 18.75 
z
M 15.625 51.953125 
Q 15.625 58.984375 14.84375 61.328125 
Q 14.0625 63.671875 12.109375 63.671875 
Q 10.15625 63.671875 9.375 61.328125 
Q 8.59375 58.984375 8.59375 51.953125 
Q 8.59375 44.921875 9.375 42.578125 
Q 10.15625 40.234375 12.109375 40.234375 
Q 14.0625 40.234375 14.84375 42.578125 
Q 15.625 44.921875 15.625 51.953125 
z
M 40.234375 18.75 
Q 40.234375 25.78125 39.453125 28.125 
Q 38.671875 30.46875 36.71875 30.46875 
Q 34.765625 30.46875 33.984375 28.125 
Q 33.203125 25.78125 33.203125 18.75 
Q 33.203125 11.71875 33.984375 9.375 
Q 34.765625 7.03125 36.71875 7.03125 
Q 38.671875 7.03125 39.453125 9.375 
Q 40.234375 11.71875 40.234375 18.75 
z
" id="SimHei-37"/>
     </defs>
     <g transform="translate(30.245 204.75)rotate(-90)scale(0.15 -0.15)">
      <use xlink:href="#SimHei-25968"/>
      <use x="100" xlink:href="#SimHei-37327"/>
      <use x="200" xlink:href="#SimHei-65288"/>
      <use x="300" xlink:href="#SimHei-37"/>
      <use x="350" xlink:href="#SimHei-65289"/>
     </g>
    </g>
   </g>
   <g id="line2d_13">
    <path clip-path="url(#p49c95cd1ac)" d="M 89.541818 48.272727 
L 158.296637 48.445882 
L 177.122361 48.727534 
L 189.400007 49.120257 
L 198.403615 49.60673 
L 205.770202 50.202387 
L 212.31828 50.94689 
L 218.047848 51.824042 
L 222.958907 52.793822 
L 227.051456 53.793122 
L 231.144004 55.002131 
L 235.236553 56.459618 
L 238.510592 57.833577 
L 241.784631 59.418489 
L 245.05867 61.239869 
L 248.332709 63.323922 
L 251.606748 65.696703 
L 254.880787 68.38293 
L 258.154826 71.404508 
L 261.428865 74.778746 
L 264.702904 78.51635 
L 267.976943 82.619327 
L 271.250982 87.078957 
L 274.525021 91.874171 
L 278.61757 98.28639 
L 283.528628 106.463031 
L 291.713726 120.666764 
L 298.261804 131.852934 
L 302.354352 138.476515 
L 306.446901 144.678227 
L 309.72094 149.280497 
L 312.994979 153.534358 
L 316.269018 157.426543 
L 319.543057 160.955194 
L 322.817096 164.127903 
L 326.091135 166.959614 
L 329.365174 169.470542 
L 332.639213 171.684291 
L 335.913252 173.626266 
L 339.187291 175.322421 
L 342.46133 176.798272 
L 346.553879 178.370359 
L 350.646427 179.680499 
L 354.738976 180.768432 
L 359.650035 181.829624 
L 364.561093 182.6728 
L 370.290661 183.437833 
L 376.838739 184.090051 
L 385.023837 184.662465 
L 394.845954 185.106869 
L 407.1236 185.43197 
L 425.130814 185.662339 
L 455.415675 185.787189 
L 497.978182 185.818826 
L 497.978182 185.818826 
" style="fill:none;stroke:#1f77b4;stroke-linecap:square;stroke-width:1.5;"/>
   </g>
   <g id="line2d_14">
    <path clip-path="url(#p49c95cd1ac)" d="M 89.541818 293.727273 
L 221.321887 293.593435 
L 245.05867 293.33141 
L 265.521414 292.878799 
L 286.802667 292.423766 
L 298.261804 292.409531 
L 311.35796 292.631516 
L 350.646427 293.4554 
L 375.20172 293.640324 
L 421.038266 293.71799 
L 497.978182 293.727066 
L 497.978182 293.727066 
" style="fill:none;stroke:#ff7f0e;stroke-linecap:square;stroke-width:1.5;"/>
   </g>
   <g id="line2d_15">
    <path clip-path="url(#p49c95cd1ac)" d="M 89.541818 293.727273 
L 198.403615 293.531376 
L 216.410829 293.252078 
L 229.506985 292.839802 
L 240.147612 292.287118 
L 249.969729 291.543853 
L 259.791846 290.562972 
L 282.710118 288.112583 
L 288.439687 287.792342 
L 294.169255 287.706445 
L 299.898823 287.868003 
L 305.628391 288.250461 
L 312.994979 288.972433 
L 338.368781 291.665342 
L 348.190898 292.364243 
L 358.831525 292.882151 
L 371.109171 293.25165 
L 387.479366 293.510918 
L 412.853168 293.664781 
L 468.511831 293.723263 
L 497.978182 293.726339 
L 497.978182 293.726339 
" style="fill:none;stroke:#2ca02c;stroke-linecap:square;stroke-width:1.5;"/>
   </g>
   <g id="line2d_16">
    <path clip-path="url(#p49c95cd1ac)" d="M 89.541818 293.727273 
L 235.236553 293.620275 
L 264.702904 293.366098 
L 297.443294 293.063881 
L 315.450508 293.180559 
L 364.561093 293.638147 
L 411.216149 293.717808 
L 497.978182 293.72714 
L 497.978182 293.72714 
" style="fill:none;stroke:#d62728;stroke-linecap:square;stroke-width:1.5;"/>
   </g>
   <g id="line2d_17">
    <path clip-path="url(#p49c95cd1ac)" d="M 89.541818 293.727273 
L 195.948085 293.620427 
L 219.684868 293.382373 
L 234.418043 293.031915 
L 246.69569 292.520469 
L 257.336316 291.861416 
L 270.432472 290.801724 
L 284.347138 289.696184 
L 291.713726 289.339785 
L 298.261804 289.25119 
L 304.809882 289.395977 
L 312.176469 289.798857 
L 322.817096 290.641748 
L 340.005801 291.998571 
L 351.464937 292.647487 
L 363.742583 293.102647 
L 378.475759 293.414122 
L 399.757012 293.615327 
L 437.408461 293.709681 
L 497.978182 293.726388 
L 497.978182 293.726388 
" style="fill:none;stroke:#9467bd;stroke-linecap:square;stroke-width:1.5;"/>
   </g>
   <g id="line2d_18">
    <path clip-path="url(#p49c95cd1ac)" d="M 89.541818 293.724816 
L 183.670439 293.722575 
L 254.062277 293.595887 
L 307.265411 293.421203 
L 396.482973 293.718644 
L 497.978182 293.727214 
L 497.978182 293.727214 
" style="fill:none;stroke:#8c564b;stroke-linecap:square;stroke-width:1.5;"/>
   </g>
   <g id="line2d_19">
    <path clip-path="url(#p49c95cd1ac)" d="M 89.541818 293.727273 
L 231.144004 293.618565 
L 259.791846 293.360171 
L 296.624784 292.976323 
L 312.994979 293.10508 
L 360.468544 293.618919 
L 402.212541 293.712599 
L 497.978182 293.727145 
L 497.978182 293.727145 
" style="fill:none;stroke:#e377c2;stroke-linecap:square;stroke-width:1.5;"/>
   </g>
   <g id="line2d_20">
    <path clip-path="url(#p49c95cd1ac)" d="M 89.541818 293.727273 
L 168.118754 293.527405 
L 185.307459 293.24882 
L 197.585105 292.838219 
L 206.588712 292.329909 
L 213.9553 291.707976 
L 220.503378 290.931356 
L 226.232946 290.017364 
L 231.144004 289.008113 
L 235.236553 287.969507 
L 239.329102 286.714777 
L 243.421651 285.204813 
L 246.69569 283.78398 
L 249.969729 282.148075 
L 253.243768 280.272101 
L 256.517807 278.130706 
L 259.791846 275.699148 
L 263.065884 272.954489 
L 266.339923 269.877117 
L 269.613962 266.452496 
L 272.888001 262.673068 
L 276.16204 258.540161 
L 279.436079 254.065704 
L 283.528628 248.029795 
L 287.621177 241.572215 
L 292.532235 233.412975 
L 308.083921 207.184328 
L 312.176469 200.837367 
L 316.269018 194.932009 
L 319.543057 190.569228 
L 322.817096 186.548994 
L 326.091135 182.879002 
L 329.365174 179.55727 
L 332.639213 176.573928 
L 335.913252 173.913048 
L 339.187291 171.554424 
L 342.46133 169.475162 
L 345.735369 167.651015 
L 349.009408 166.057459 
L 352.283447 164.670498 
L 356.375996 163.192574 
L 360.468544 161.96039 
L 364.561093 160.936766 
L 369.472152 159.937889 
L 375.20172 159.028556 
L 381.749798 158.251011 
L 389.116385 157.623742 
L 398.119993 157.106542 
L 408.760619 156.726733 
L 423.493795 156.441529 
L 445.593558 156.264054 
L 488.974575 156.18484 
L 497.978182 156.181061 
L 497.978182 156.181061 
" style="fill:none;stroke:#7f7f7f;stroke-linecap:square;stroke-width:1.5;"/>
   </g>
   <g id="patch_3">
    <path d="M 69.12 306 
L 69.12 36 
" style="fill:none;stroke:#000000;stroke-linecap:square;stroke-linejoin:miter;stroke-width:0.8;"/>
   </g>
   <g id="patch_4">
    <path d="M 518.4 306 
L 518.4 36 
" style="fill:none;stroke:#000000;stroke-linecap:square;stroke-linejoin:miter;stroke-width:0.8;"/>
   </g>
   <g id="patch_5">
    <path d="M 69.12 306 
L 518.4 306 
" style="fill:none;stroke:#000000;stroke-linecap:square;stroke-linejoin:miter;stroke-width:0.8;"/>
   </g>
   <g id="patch_6">
    <path d="M 69.12 36 
L 518.4 36 
" style="fill:none;stroke:#000000;stroke-linecap:square;stroke-linejoin:miter;stroke-width:0.8;"/>
   </g>
   <g id="text_15">
    <!-- SEAIQ模型 -->
    <defs>
     <path d="M 45.3125 20.703125 
Q 45.3125 11.71875 39.640625 6.4375 
Q 33.984375 1.171875 24.21875 1.171875 
Q 14.453125 1.171875 8.984375 6.640625 
Q 3.515625 12.109375 3.515625 20.3125 
L 3.515625 23.046875 
L 12.5 23.046875 
L 12.5 20.703125 
Q 12.5 14.84375 16.015625 11.71875 
Q 19.53125 8.59375 24.21875 8.59375 
Q 30.46875 8.59375 33.390625 11.90625 
Q 36.328125 15.234375 36.328125 19.921875 
Q 36.328125 23.828125 32.8125 27.140625 
Q 29.296875 30.46875 22.65625 33.203125 
Q 13.28125 36.71875 9.171875 41.015625 
Q 5.078125 45.3125 5.078125 51.171875 
Q 5.078125 59.375 10.734375 64.453125 
Q 16.40625 69.53125 24.21875 69.53125 
Q 34.375 69.53125 38.859375 63.46875 
Q 43.359375 57.421875 43.359375 50.390625 
L 34.375 50.390625 
Q 34.765625 54.6875 32.03125 58.203125 
Q 29.296875 61.71875 24.21875 61.71875 
Q 19.53125 61.71875 16.796875 59.171875 
Q 14.0625 56.640625 14.0625 52.34375 
Q 14.0625 48.828125 16.203125 46.28125 
Q 18.359375 43.75 27.34375 40.234375 
Q 35.9375 36.71875 40.625 31.828125 
Q 45.3125 26.953125 45.3125 20.703125 
z
" id="SimHei-83"/>
     <path d="M 45.3125 1.953125 
L 5.46875 1.953125 
L 5.46875 68.75 
L 43.359375 68.75 
L 43.359375 61.328125 
L 14.453125 61.328125 
L 14.453125 40.625 
L 41.015625 40.625 
L 41.015625 33.203125 
L 14.453125 33.203125 
L 14.453125 9.375 
L 45.3125 9.375 
z
" id="SimHei-69"/>
     <path d="M 48.046875 1.953125 
L 38.671875 1.953125 
L 33.203125 22.65625 
L 16.015625 22.65625 
L 10.546875 1.953125 
L 1.171875 1.953125 
L 20.703125 69.53125 
L 28.515625 69.53125 
z
M 31.25 30.078125 
L 25 53.90625 
L 24.21875 53.90625 
L 17.96875 30.078125 
z
" id="SimHei-65"/>
     <path d="M 28.90625 1.953125 
L 19.921875 1.953125 
L 19.921875 68.75 
L 28.90625 68.75 
z
" id="SimHei-73"/>
     <path d="M 46.09375 35.546875 
Q 46.09375 26.171875 44.71875 19.71875 
Q 43.359375 13.28125 40.234375 9.375 
L 43.359375 3.515625 
L 37.109375 -3.125 
L 33.59375 3.515625 
Q 32.03125 2.34375 29.6875 1.75 
Q 27.34375 1.171875 24.609375 1.171875 
Q 14.453125 1.171875 8.59375 9.171875 
Q 2.734375 17.1875 2.734375 35.546875 
Q 2.734375 53.90625 8.59375 61.71875 
Q 14.453125 69.53125 24.609375 69.53125 
Q 34.765625 69.53125 40.421875 61.71875 
Q 46.09375 53.90625 46.09375 35.546875 
z
M 36.71875 35.546875 
Q 36.71875 51.953125 33.203125 57.03125 
Q 29.6875 62.109375 24.609375 62.109375 
Q 19.53125 62.109375 15.8125 57.03125 
Q 12.109375 51.953125 12.109375 35.546875 
Q 12.109375 19.140625 15.8125 13.859375 
Q 19.53125 8.59375 24.609375 8.59375 
Q 26.5625 8.59375 28.125 9.171875 
Q 29.6875 9.765625 30.46875 10.546875 
L 24.21875 22.65625 
L 29.6875 29.296875 
L 35.15625 18.75 
Q 35.9375 22.65625 36.328125 25.78125 
Q 36.71875 28.90625 36.71875 35.546875 
z
" id="SimHei-81"/>
     <path d="M 89.0625 57.421875 
Q 88.671875 53.125 88.671875 42.578125 
Q 88.671875 32.03125 89.0625 26.953125 
L 68.359375 26.953125 
Q 67.96875 22.65625 67.578125 18.75 
L 81.640625 18.75 
Q 89.84375 18.75 94.140625 19.140625 
L 94.140625 12.890625 
Q 89.453125 13.28125 81.640625 13.28125 
L 73.4375 13.28125 
Q 79.296875 5.859375 84.953125 2.140625 
Q 90.625 -1.5625 96.875 -3.125 
Q 93.359375 -5.859375 91.40625 -9.765625 
Q 82.421875 -6.25 75.96875 0.390625 
Q 69.53125 7.03125 67.1875 12.109375 
L 66.015625 12.109375 
Q 62.5 4.296875 55.265625 -0.96875 
Q 48.046875 -6.25 38.671875 -9.765625 
Q 36.71875 -5.859375 33.203125 -3.125 
Q 43.359375 -1.171875 50 3.125 
Q 56.640625 7.421875 58.984375 13.28125 
L 51.953125 13.28125 
Q 43.75 13.28125 37.5 12.890625 
L 37.5 19.140625 
Q 43.75 18.75 52.34375 18.75 
L 60.546875 18.75 
Q 61.328125 23.046875 61.328125 26.953125 
L 42.96875 26.953125 
Q 43.359375 32.421875 43.359375 42.1875 
Q 43.359375 52.34375 42.96875 57.421875 
L 89.0625 57.421875 
z
M 33.984375 25.78125 
Q 31.640625 30.859375 26.171875 39.453125 
L 26.171875 4.6875 
Q 26.171875 -4.6875 26.5625 -8.59375 
L 18.359375 -8.59375 
Q 18.75 -4.296875 18.75 3.90625 
L 18.75 34.765625 
Q 17.578125 31.25 15.03125 26.75 
Q 12.5 22.265625 9.375 16.40625 
Q 7.03125 19.921875 3.125 22.265625 
Q 9.375 28.515625 13.28125 37.890625 
Q 17.1875 47.265625 18.359375 53.515625 
L 14.84375 53.515625 
Q 10.9375 53.515625 6.25 53.125 
L 6.25 59.765625 
Q 10.546875 59.375 12.890625 59.375 
L 18.75 59.375 
L 18.75 67.96875 
Q 18.75 74.609375 18.359375 80.46875 
L 26.5625 80.46875 
Q 26.171875 75.390625 26.171875 69.140625 
L 26.171875 59.375 
Q 32.421875 59.375 37.109375 59.765625 
L 37.109375 53.125 
Q 32.03125 53.515625 26.171875 53.515625 
L 26.171875 40.234375 
Q 28.90625 41.796875 31.25 43.359375 
Q 33.59375 39.453125 35.734375 36.328125 
Q 37.890625 33.203125 39.84375 30.078125 
Q 36.328125 27.734375 33.984375 25.78125 
z
M 52.734375 67.1875 
L 49.609375 67.1875 
Q 42.1875 67.1875 37.890625 66.796875 
L 37.890625 73.046875 
Q 42.1875 72.65625 49.21875 72.65625 
L 52.734375 72.65625 
Q 52.734375 78.125 52.34375 81.640625 
L 59.765625 81.640625 
Q 59.375 78.125 59.375 72.65625 
L 71.09375 72.65625 
Q 71.09375 77.734375 70.703125 81.25 
L 78.515625 81.25 
Q 78.125 76.953125 78.125 72.65625 
L 83.984375 72.65625 
Q 88.28125 72.65625 92.96875 73.046875 
L 92.96875 66.796875 
Q 88.28125 67.1875 83.984375 67.1875 
L 78.125 67.1875 
L 78.125 60.15625 
L 71.09375 60.15625 
L 71.09375 67.1875 
L 59.375 67.1875 
L 59.375 60.546875 
L 52.734375 60.546875 
z
M 82.421875 32.421875 
L 82.421875 39.453125 
L 50 39.453125 
L 50 32.421875 
z
M 82.421875 44.921875 
L 82.421875 51.953125 
L 50 51.953125 
L 50 44.921875 
z
" id="SimHei-27169"/>
     <path d="M 41.015625 27.734375 
Q 41.40625 36.328125 41.40625 42.1875 
L 41.40625 46.875 
L 28.515625 46.875 
Q 26.953125 37.109375 22.265625 31.25 
Q 17.578125 25.390625 12.109375 22.265625 
Q 10.15625 25.78125 5.859375 29.6875 
Q 13.28125 32.421875 16.59375 36.90625 
Q 19.921875 41.40625 21.09375 46.875 
Q 14.0625 46.875 5.859375 46.484375 
L 5.859375 53.90625 
Q 14.453125 53.515625 21.875 53.515625 
Q 22.265625 61.71875 22.265625 69.921875 
Q 16.796875 69.921875 10.9375 69.53125 
L 10.9375 76.5625 
Q 16.40625 76.171875 23.828125 76.171875 
L 46.875 76.171875 
Q 51.171875 76.171875 57.03125 76.5625 
L 57.03125 69.53125 
Q 51.953125 69.921875 48.828125 69.921875 
L 48.828125 53.515625 
Q 53.90625 53.515625 59.765625 53.90625 
L 59.765625 46.484375 
Q 53.90625 46.875 48.828125 46.875 
L 48.828125 41.796875 
Q 48.828125 34.765625 49.21875 27.734375 
z
M 46.875 18.359375 
Q 46.875 21.484375 46.484375 26.953125 
L 54.6875 26.953125 
Q 54.296875 21.484375 54.296875 18.359375 
L 71.09375 18.359375 
Q 78.90625 18.359375 85.15625 18.75 
L 85.15625 11.328125 
Q 77.734375 11.71875 71.09375 11.71875 
L 54.296875 11.71875 
L 54.296875 -0.78125 
L 82.421875 -0.78125 
Q 89.0625 -0.78125 95.3125 -0.390625 
L 95.3125 -7.8125 
Q 89.453125 -7.421875 82.8125 -7.421875 
L 19.53125 -7.421875 
Q 12.109375 -7.421875 6.25 -7.8125 
L 6.25 -0.390625 
Q 12.109375 -0.78125 19.53125 -0.78125 
L 46.875 -0.78125 
L 46.875 11.71875 
L 31.640625 11.71875 
Q 23.4375 11.71875 15.234375 11.328125 
L 16.40625 18.75 
Q 23.4375 18.359375 31.640625 18.359375 
z
M 90.234375 81.25 
Q 89.84375 74.609375 89.84375 67.578125 
L 89.84375 37.5 
Q 90.234375 30.46875 87.6875 27.734375 
Q 85.15625 25 76.5625 23.828125 
Q 75.390625 27.734375 73.046875 32.8125 
Q 80.859375 32.421875 81.828125 33.59375 
Q 82.8125 34.765625 82.8125 39.453125 
L 82.8125 67.578125 
Q 82.8125 74.609375 82.421875 81.25 
L 90.234375 81.25 
z
M 71.875 74.21875 
Q 71.484375 69.53125 71.484375 62.109375 
L 71.484375 50 
Q 71.484375 44.140625 71.875 37.890625 
L 64.0625 37.890625 
Q 64.453125 44.140625 64.453125 50 
L 64.453125 62.109375 
Q 64.453125 69.53125 64.0625 74.21875 
L 71.875 74.21875 
z
M 41.40625 53.515625 
L 41.40625 69.921875 
L 29.296875 69.921875 
Q 28.90625 58.59375 28.90625 53.515625 
z
" id="SimHei-22411"/>
    </defs>
    <g transform="translate(244.26 30)scale(0.22 -0.22)">
     <use xlink:href="#SimHei-83"/>
     <use x="50" xlink:href="#SimHei-69"/>
     <use x="100" xlink:href="#SimHei-65"/>
     <use x="150" xlink:href="#SimHei-73"/>
     <use x="200" xlink:href="#SimHei-81"/>
     <use x="250" xlink:href="#SimHei-27169"/>
     <use x="350" xlink:href="#SimHei-22411"/>
    </g>
   </g>
   <g id="legend_1">
    <g id="patch_7">
     <path d="M 77.52 241.448438 
L 235.92 241.448438 
Q 238.32 241.448438 238.32 239.048437 
L 238.32 102.951562 
Q 238.32 100.551562 235.92 100.551562 
L 77.52 100.551562 
Q 75.12 100.551562 75.12 102.951562 
L 75.12 239.048437 
Q 75.12 241.448438 77.52 241.448438 
z
" style="fill:#ffffff;opacity:0.8;stroke:#cccccc;stroke-linejoin:miter;"/>
    </g>
    <g id="line2d_21">
     <path d="M 79.92 110.620312 
L 103.92 110.620312 
" style="fill:none;stroke:#1f77b4;stroke-linecap:square;stroke-width:1.5;"/>
    </g>
    <g id="line2d_22"/>
    <g id="text_16">
     <!-- 易感染者 -->
     <defs>
      <path d="M 81.25 78.125 
Q 80.859375 71.09375 80.859375 65.625 
L 80.859375 56.25 
Q 80.859375 51.953125 81.25 44.53125 
L 40.625 44.53125 
Q 38.671875 41.015625 34.375 36.328125 
L 88.28125 36.328125 
L 87.109375 23.828125 
L 84.375 0.78125 
Q 83.203125 -5.078125 77.140625 -6.828125 
Q 71.09375 -8.59375 65.234375 -8.984375 
Q 63.28125 -3.125 60.9375 -0.390625 
Q 65.234375 -0.78125 70.5 -0.1875 
Q 75.78125 0.390625 76.953125 5.078125 
L 80.078125 30.46875 
L 69.921875 30.46875 
Q 60.9375 10.9375 49.609375 2.734375 
Q 38.28125 -5.46875 23.828125 -9.375 
Q 23.046875 -6.640625 18.359375 -3.515625 
Q 25.390625 -2.34375 33.78125 1.359375 
Q 42.1875 5.078125 49.40625 12.296875 
Q 56.640625 19.53125 61.71875 30.46875 
L 49.609375 30.46875 
Q 40.234375 13.671875 16.796875 4.296875 
Q 14.84375 7.8125 10.546875 9.375 
Q 17.578125 11.328125 26.953125 16.59375 
Q 36.328125 21.875 41.796875 30.46875 
L 28.90625 30.46875 
Q 17.96875 22.265625 11.328125 19.140625 
Q 10.15625 22.265625 5.859375 25 
Q 12.109375 27.34375 19.921875 32.8125 
Q 27.734375 38.28125 31.640625 44.53125 
L 19.140625 44.53125 
Q 19.53125 51.171875 19.53125 57.03125 
L 19.53125 65.625 
Q 19.53125 70.703125 19.140625 78.125 
L 81.25 78.125 
z
M 73.4375 50.390625 
L 73.4375 58.203125 
L 26.953125 58.203125 
L 26.953125 50.390625 
z
M 73.4375 64.453125 
L 73.4375 71.875 
L 26.953125 71.875 
L 26.953125 64.453125 
z
" id="SimHei-26131"/>
      <path d="M 95.703125 29.6875 
Q 92.1875 18.75 89.453125 17.375 
Q 86.71875 16.015625 81.828125 17.765625 
Q 76.953125 19.53125 69.140625 26.5625 
Q 64.453125 21.484375 58.203125 17.1875 
Q 55.46875 20.3125 52.34375 21.875 
Q 60.546875 26.5625 65.234375 32.03125 
Q 60.9375 39.0625 58.78125 47.453125 
Q 56.640625 55.859375 55.859375 63.28125 
L 20.703125 63.28125 
Q 20.703125 45.703125 20.109375 39.453125 
Q 19.53125 33.203125 17.578125 27.734375 
Q 15.625 22.265625 11.71875 16.015625 
Q 7.03125 19.140625 4.296875 19.921875 
Q 8.984375 25.78125 11.125 31.4375 
Q 13.28125 37.109375 13.671875 44.53125 
Q 14.0625 51.953125 13.671875 69.53125 
L 55.078125 69.53125 
Q 55.078125 72.65625 54.6875 80.859375 
Q 58.203125 80.078125 62.890625 79.6875 
Q 62.109375 75 62.5 69.53125 
L 79.6875 69.53125 
Q 85.15625 69.53125 92.578125 69.921875 
L 92.578125 62.890625 
Q 85.15625 63.28125 80.078125 63.28125 
L 62.890625 63.28125 
Q 64.453125 46.875 69.53125 38.671875 
Q 71.875 42.578125 73.828125 48.234375 
Q 75.78125 53.90625 76.953125 58.984375 
Q 80.859375 57.421875 85.15625 56.25 
Q 83.59375 54.6875 81.046875 47.65625 
Q 78.515625 40.625 73.828125 32.03125 
Q 78.125 28.125 81.4375 26.171875 
Q 84.765625 24.21875 85.734375 25.390625 
Q 86.71875 26.5625 88.28125 33.59375 
Q 91.40625 30.859375 95.703125 29.6875 
z
M 51.953125 25 
L 24.609375 25 
L 24.609375 44.921875 
L 51.953125 44.921875 
z
M 76.171875 2.734375 
Q 73.4375 -5.078125 71.484375 -6.4375 
Q 69.53125 -7.8125 66.40625 -7.8125 
L 36.71875 -7.8125 
Q 31.640625 -7.421875 30.65625 -3.125 
Q 29.6875 1.171875 29.6875 5.078125 
Q 29.6875 8.984375 29.296875 14.453125 
L 37.5 14.453125 
Q 37.109375 7.8125 37.109375 5.078125 
Q 37.109375 2.734375 37.5 0.390625 
Q 37.890625 -1.953125 42.578125 -1.5625 
L 60.546875 -1.5625 
Q 64.453125 -1.5625 65.8125 -0.1875 
Q 67.1875 1.171875 67.96875 7.03125 
Q 71.09375 4.6875 76.171875 2.734375 
z
M 51.5625 51.171875 
L 25 51.171875 
L 25 57.03125 
L 51.5625 57.03125 
z
M 83.59375 14.0625 
Q 92.1875 3.515625 94.921875 -0.78125 
Q 91.015625 -3.125 87.890625 -5.46875 
Q 83.984375 1.953125 77.34375 9.375 
Q 80.078125 11.328125 83.59375 14.0625 
z
M 7.421875 -2.734375 
Q 10.9375 1.5625 15.234375 14.453125 
Q 18.359375 12.890625 22.65625 11.328125 
Q 17.578125 -0.390625 14.84375 -5.859375 
Q 11.71875 -4.296875 7.421875 -2.734375 
z
M 45.703125 30.46875 
L 45.703125 39.453125 
L 30.859375 39.453125 
L 30.859375 30.46875 
z
M 42.578125 16.40625 
Q 44.921875 18.359375 48.4375 20.703125 
Q 55.078125 12.109375 57.03125 8.59375 
Q 53.90625 6.640625 51.171875 3.90625 
Q 48.828125 8.203125 42.578125 16.40625 
z
M 76.5625 70.3125 
Q 74.21875 72.265625 67.96875 76.5625 
Q 70.3125 79.296875 71.875 81.640625 
Q 74.609375 80.078125 81.25 75 
Q 78.90625 73.046875 76.5625 70.3125 
z
" id="SimHei-24863"/>
      <path d="M 91.015625 -7.03125 
Q 74.21875 -2.34375 66.40625 3.90625 
Q 58.59375 10.15625 53.90625 17.96875 
Q 53.90625 -4.6875 54.296875 -9.375 
L 46.09375 -9.375 
Q 46.484375 -4.296875 46.484375 16.796875 
Q 40.625 8.59375 31.4375 2.34375 
Q 22.265625 -3.90625 9.765625 -8.984375 
Q 8.59375 -5.078125 3.125 -1.5625 
Q 16.796875 1.5625 25.96875 7.609375 
Q 35.15625 13.671875 38.671875 19.140625 
L 19.140625 19.140625 
Q 13.671875 19.140625 6.25 18.75 
L 6.25 25.78125 
Q 13.671875 25.390625 19.140625 25.390625 
L 46.484375 25.390625 
Q 46.484375 28.515625 46.09375 33.59375 
L 54.296875 33.59375 
Q 53.90625 28.90625 53.90625 25.390625 
L 82.8125 25.390625 
Q 87.890625 25.390625 93.75 25.78125 
L 93.75 18.75 
Q 87.890625 19.140625 82.8125 19.140625 
L 61.71875 19.140625 
Q 67.96875 10.546875 78.125 6.25 
Q 88.28125 1.953125 96.484375 1.171875 
Q 91.40625 -3.90625 91.015625 -7.03125 
z
M 28.515625 35.9375 
Q 39.84375 40.234375 45.703125 47.0625 
Q 51.5625 53.90625 53.125 62.5 
Q 47.265625 62.5 40.234375 62.109375 
L 40.234375 69.140625 
Q 47.65625 68.75 53.515625 68.75 
Q 53.90625 76.953125 53.515625 82.03125 
Q 58.203125 80.859375 62.5 80.859375 
Q 61.328125 78.515625 60.9375 68.75 
L 80.078125 68.75 
Q 79.6875 64.84375 79.296875 60.15625 
L 78.125 44.53125 
Q 78.515625 40.625 80.859375 40.625 
L 85.15625 40.625 
Q 87.109375 40.625 87.6875 42.1875 
Q 88.28125 43.75 88.671875 50 
Q 91.796875 47.265625 96.875 46.875 
Q 95.3125 36.328125 92.375 35.34375 
Q 89.453125 34.375 84.171875 34.171875 
Q 78.90625 33.984375 74.796875 34.953125 
Q 70.703125 35.9375 71.09375 42.1875 
L 72.265625 62.5 
L 60.546875 62.5 
Q 59.375 53.515625 54.296875 45.890625 
Q 49.21875 38.28125 35.546875 30.078125 
Q 33.984375 32.8125 28.515625 35.9375 
z
M 33.984375 45.703125 
Q 19.140625 33.984375 13.28125 29.296875 
Q 10.9375 33.203125 7.8125 35.9375 
Q 17.1875 40.625 31.25 52.734375 
Q 32.03125 49.609375 33.984375 45.703125 
z
M 10.546875 64.84375 
Q 21.484375 59.765625 27.34375 56.25 
Q 24.609375 52.734375 23.046875 49.609375 
Q 19.140625 53.125 7.03125 58.59375 
Q 9.375 61.328125 10.546875 64.84375 
z
M 28.90625 64.84375 
Q 23.046875 69.921875 14.0625 74.609375 
Q 16.015625 76.953125 18.359375 80.078125 
Q 27.34375 75 33.984375 71.09375 
Q 30.46875 67.578125 28.90625 64.84375 
z
" id="SimHei-26579"/>
      <path d="M 88.28125 67.578125 
Q 85.15625 64.84375 81.046875 60.546875 
Q 76.953125 56.25 69.53125 48.828125 
L 80.46875 48.828125 
Q 87.109375 48.828125 94.140625 49.21875 
L 94.140625 42.1875 
Q 87.109375 42.578125 80.078125 42.578125 
L 61.71875 42.578125 
Q 55.46875 37.890625 47.65625 32.421875 
L 80.859375 32.421875 
Q 80.46875 25.390625 80.46875 19.53125 
L 80.46875 5.859375 
Q 80.46875 -1.171875 80.859375 -9.375 
L 73.046875 -9.375 
L 73.046875 -3.515625 
L 35.546875 -3.515625 
L 35.546875 -9.375 
L 27.34375 -9.375 
Q 27.734375 -3.125 27.734375 2.34375 
L 27.734375 20.3125 
Q 19.921875 16.015625 10.15625 11.71875 
Q 6.25 17.1875 4.6875 18.359375 
Q 7.421875 19.140625 15.03125 22.0625 
Q 22.65625 25 27.734375 28.515625 
L 27.734375 32.421875 
L 35.15625 32.421875 
Q 43.75 37.109375 50.390625 42.578125 
L 22.65625 42.578125 
Q 14.453125 42.578125 7.421875 42.1875 
L 7.421875 49.21875 
Q 15.234375 48.828125 22.65625 48.828125 
L 43.359375 48.828125 
L 43.359375 60.9375 
L 31.640625 60.9375 
Q 25 60.9375 19.53125 60.546875 
L 19.53125 67.578125 
Q 25 67.1875 31.640625 67.1875 
L 43.359375 67.1875 
Q 43.359375 73.046875 42.96875 80.46875 
L 51.5625 80.46875 
Q 51.171875 75 51.171875 67.1875 
L 57.03125 67.1875 
Q 62.109375 67.1875 68.75 67.578125 
L 68.75 60.546875 
Q 62.109375 60.9375 57.03125 60.9375 
L 51.171875 60.9375 
L 51.171875 48.828125 
L 58.984375 48.828125 
Q 64.453125 53.125 69.921875 58.984375 
Q 75.390625 64.84375 81.25 73.828125 
Q 85.546875 69.53125 88.28125 67.578125 
z
M 73.046875 2.734375 
L 73.046875 11.71875 
L 35.546875 11.71875 
L 35.546875 2.734375 
z
M 73.046875 17.96875 
L 73.046875 26.171875 
L 35.546875 26.171875 
L 35.546875 17.96875 
z
" id="SimHei-32773"/>
     </defs>
     <g transform="translate(113.52 114.820312)scale(0.12 -0.12)">
      <use xlink:href="#SimHei-26131"/>
      <use x="100" xlink:href="#SimHei-24863"/>
      <use x="200" xlink:href="#SimHei-26579"/>
      <use x="300" xlink:href="#SimHei-32773"/>
     </g>
    </g>
    <g id="line2d_23">
     <path d="M 79.92 127.823437 
L 103.92 127.823437 
" style="fill:none;stroke:#ff7f0e;stroke-linecap:square;stroke-width:1.5;"/>
    </g>
    <g id="line2d_24"/>
    <g id="text_17">
     <!-- 未接种的暴露者 -->
     <defs>
      <path d="M 44.921875 64.84375 
Q 44.921875 76.5625 44.53125 81.640625 
L 53.125 81.640625 
Q 52.734375 76.953125 52.734375 64.84375 
L 69.921875 64.84375 
Q 77.34375 64.84375 83.984375 65.234375 
L 83.984375 58.203125 
Q 77.34375 58.59375 69.921875 58.59375 
L 52.734375 58.59375 
L 52.734375 42.96875 
L 75.78125 42.96875 
Q 84.375 42.96875 91.796875 43.359375 
L 91.796875 36.328125 
Q 84.375 36.71875 76.171875 36.71875 
L 57.421875 36.71875 
Q 64.453125 26.171875 72.84375 18.546875 
Q 81.25 10.9375 96.484375 6.640625 
Q 91.40625 4.296875 89.453125 -1.5625 
Q 78.90625 2.34375 69.71875 10.15625 
Q 60.546875 17.96875 52.734375 32.03125 
L 52.734375 4.6875 
Q 52.734375 -2.734375 53.125 -8.984375 
L 44.140625 -8.984375 
Q 44.921875 -2.734375 44.921875 4.6875 
L 44.921875 33.203125 
Q 35.546875 17.96875 26.5625 10.15625 
Q 17.578125 2.34375 10.546875 -2.34375 
Q 8.984375 1.171875 3.515625 4.6875 
Q 10.15625 7.03125 20.5 15.625 
Q 30.859375 24.21875 38.671875 36.71875 
L 19.140625 36.71875 
Q 10.546875 36.71875 5.859375 36.328125 
L 5.859375 43.359375 
Q 11.71875 42.96875 19.921875 42.96875 
L 44.921875 42.96875 
L 44.921875 58.59375 
L 28.515625 58.59375 
Q 19.140625 58.59375 13.28125 58.203125 
L 13.28125 65.234375 
Q 19.140625 64.84375 27.734375 64.84375 
z
" id="SimHei-26410"/>
      <path d="M 66.015625 35.546875 
Q 64.84375 34.375 62.5 29.6875 
L 87.5 29.6875 
Q 94.53125 30.078125 96.09375 30.078125 
L 96.09375 23.046875 
Q 93.359375 23.4375 88.28125 23.4375 
L 81.640625 23.4375 
Q 78.125 14.453125 73.4375 7.8125 
Q 85.546875 1.953125 94.53125 -2.734375 
Q 93.359375 -3.90625 88.671875 -9.765625 
Q 82.421875 -5.078125 68.359375 2.34375 
Q 62.890625 -2.34375 55.65625 -5.265625 
Q 48.4375 -8.203125 38.28125 -10.15625 
Q 37.890625 -7.03125 34.765625 -3.125 
Q 41.015625 -2.34375 48.046875 -0.578125 
Q 55.078125 1.171875 61.328125 5.46875 
Q 57.8125 7.03125 44.921875 12.5 
Q 47.265625 16.015625 51.171875 23.4375 
L 44.921875 23.4375 
Q 38.671875 23.4375 35.9375 23.046875 
L 35.9375 30.46875 
Q 37.890625 30.078125 44.53125 29.6875 
L 53.90625 29.6875 
Q 56.640625 36.328125 57.03125 39.0625 
Q 63.671875 36.328125 66.015625 35.546875 
z
M 18.359375 61.71875 
L 18.359375 73.4375 
Q 18.359375 75.78125 17.578125 80.078125 
L 26.171875 80.078125 
Q 25.390625 75.78125 25.390625 73.4375 
L 25.390625 61.71875 
Q 29.296875 61.71875 35.15625 62.109375 
L 35.15625 54.6875 
Q 29.296875 55.078125 25.390625 55.078125 
L 25.390625 36.71875 
Q 27.34375 37.890625 34.375 41.015625 
Q 34.375 35.9375 34.765625 33.59375 
Q 27.734375 30.46875 25.390625 29.296875 
L 25.390625 1.171875 
Q 25.390625 -4.296875 22.265625 -6.640625 
Q 19.140625 -8.984375 10.15625 -9.765625 
Q 10.15625 -7.03125 7.03125 -0.390625 
Q 14.84375 -1.5625 16.40625 -0.390625 
Q 17.96875 0.78125 18.359375 4.296875 
L 18.359375 26.5625 
Q 15.234375 25.390625 7.03125 20.703125 
Q 5.078125 26.5625 3.515625 29.296875 
Q 13.28125 31.640625 18.359375 33.984375 
L 18.359375 55.078125 
L 15.625 55.078125 
Q 10.15625 55.078125 4.6875 54.6875 
L 4.6875 62.5 
Q 10.546875 61.71875 15.625 61.71875 
z
M 74.609375 64.0625 
Q 81.25 60.546875 83.59375 59.765625 
Q 81.25 57.8125 76.953125 46.09375 
L 84.765625 46.09375 
Q 91.015625 46.484375 92.96875 46.875 
L 92.96875 39.453125 
Q 90.234375 39.84375 85.546875 39.84375 
L 47.265625 39.84375 
Q 44.53125 39.84375 38.28125 39.453125 
L 38.28125 46.875 
Q 44.140625 46.484375 46.484375 46.09375 
L 69.53125 46.09375 
Q 73.4375 56.640625 74.609375 64.0625 
z
M 61.71875 71.484375 
Q 60.15625 78.125 58.984375 80.46875 
Q 64.453125 81.640625 67.1875 82.421875 
L 70.3125 71.484375 
L 83.59375 71.484375 
Q 89.0625 71.875 92.96875 71.875 
L 92.96875 64.84375 
Q 88.671875 65.234375 83.984375 65.234375 
L 49.609375 65.234375 
Q 43.359375 65.234375 39.0625 64.84375 
L 39.0625 71.875 
Q 42.96875 71.484375 48.4375 71.484375 
z
M 54.296875 15.625 
Q 63.28125 12.5 67.1875 10.15625 
Q 72.265625 17.578125 74.21875 23.4375 
L 59.375 23.4375 
Q 55.859375 18.359375 54.296875 15.625 
z
M 53.515625 61.71875 
Q 58.203125 53.90625 60.15625 50 
Q 53.90625 48.046875 52.34375 46.875 
Q 49.21875 54.296875 46.484375 57.8125 
Q 50.78125 59.765625 53.515625 61.71875 
z
" id="SimHei-25509"/>
      <path d="M 66.015625 62.5 
Q 66.015625 77.734375 65.625 82.421875 
L 73.828125 82.421875 
Q 73.4375 78.125 73.4375 62.5 
L 93.75 62.5 
Q 93.359375 58.203125 93.359375 50.78125 
L 93.359375 24.21875 
Q 93.359375 19.921875 93.75 14.453125 
L 85.9375 14.453125 
L 85.9375 22.265625 
L 73.4375 22.265625 
L 73.4375 5.859375 
Q 73.4375 -4.296875 73.828125 -10.9375 
L 65.625 -10.9375 
Q 66.015625 -4.296875 66.015625 5.859375 
L 66.015625 22.265625 
L 53.515625 22.265625 
L 53.515625 12.890625 
L 45.703125 12.890625 
Q 46.09375 17.578125 46.09375 23.4375 
L 46.09375 50 
Q 46.09375 58.203125 45.703125 62.5 
L 66.015625 62.5 
z
M 5.46875 50.78125 
Q 11.328125 50.390625 19.140625 50.390625 
L 22.265625 50.390625 
L 22.265625 67.578125 
Q 18.359375 66.40625 8.984375 64.453125 
Q 7.421875 67.96875 5.46875 71.484375 
Q 14.0625 71.875 22.0625 74.015625 
Q 30.078125 76.171875 36.71875 79.6875 
Q 39.0625 76.5625 42.578125 72.265625 
Q 38.671875 71.875 35.9375 71.09375 
Q 33.203125 70.3125 29.6875 69.53125 
L 29.6875 50.390625 
Q 34.765625 50.390625 42.1875 50.78125 
L 42.1875 43.75 
Q 34.765625 44.140625 29.6875 44.140625 
L 29.6875 3.515625 
Q 29.6875 -1.953125 30.078125 -10.15625 
L 21.875 -10.15625 
Q 22.265625 -1.953125 22.265625 3.515625 
L 22.265625 29.296875 
Q 19.140625 21.484375 16.59375 16.796875 
Q 14.0625 12.109375 9.765625 5.46875 
Q 6.640625 9.765625 3.90625 13.28125 
Q 9.375 19.140625 13.859375 26.953125 
Q 18.359375 34.765625 20.3125 44.140625 
L 14.453125 44.140625 
Q 8.984375 44.140625 5.46875 43.75 
z
M 66.015625 28.515625 
L 66.015625 56.25 
L 53.515625 56.25 
L 53.515625 28.515625 
z
M 85.9375 28.515625 
L 85.9375 56.25 
L 73.4375 56.25 
L 73.4375 28.515625 
z
M 37.109375 38.671875 
Q 38.28125 35.9375 40.234375 33.203125 
Q 42.1875 30.46875 44.53125 25.390625 
Q 41.015625 23.828125 37.890625 21.484375 
Q 35.9375 25.78125 34.5625 28.703125 
Q 33.203125 31.640625 30.859375 34.765625 
Q 33.203125 36.328125 37.109375 38.671875 
z
" id="SimHei-31181"/>
      <path d="M 32.8125 77.734375 
Q 30.859375 74.21875 27.34375 61.71875 
L 44.921875 61.71875 
Q 44.53125 55.078125 44.53125 44.921875 
L 44.53125 10.546875 
Q 44.53125 4.6875 44.921875 -6.25 
L 37.109375 -6.25 
L 37.109375 1.5625 
L 17.1875 1.5625 
L 17.1875 -7.03125 
L 9.375 -7.03125 
Q 9.765625 5.46875 9.765625 8.59375 
L 9.765625 44.53125 
Q 9.765625 55.078125 9.375 61.71875 
L 20.703125 61.71875 
Q 22.65625 70.703125 23.828125 80.46875 
Q 29.296875 78.515625 32.8125 77.734375 
z
M 91.015625 48.046875 
Q 90.625 24.21875 89.0625 2.734375 
Q 88.28125 -4.296875 81.640625 -6.640625 
Q 75 -8.984375 66.796875 -9.765625 
Q 66.40625 -5.46875 63.28125 -0.78125 
Q 71.09375 -1.171875 75.578125 -0.390625 
Q 80.078125 0.390625 81.25 3.125 
Q 82.421875 5.859375 83 19.140625 
Q 83.59375 32.421875 83.984375 56.25 
L 61.328125 56.25 
Q 58.203125 48.828125 52.34375 38.671875 
Q 49.609375 41.40625 45.703125 42.96875 
Q 49.21875 47.65625 52.34375 54.296875 
Q 55.46875 60.9375 57.8125 68.75 
Q 60.15625 76.5625 60.546875 80.859375 
Q 66.015625 78.515625 69.921875 77.34375 
Q 67.96875 74.21875 66.59375 70.5 
Q 65.234375 66.796875 63.671875 63.28125 
L 91.40625 63.28125 
Q 91.015625 55.078125 91.015625 48.046875 
z
M 37.109375 8.203125 
L 37.109375 28.90625 
L 17.1875 28.90625 
L 17.1875 8.203125 
z
M 37.109375 35.546875 
L 37.109375 55.078125 
L 17.1875 55.078125 
L 17.1875 35.546875 
z
M 67.96875 32.03125 
Q 70.3125 27.34375 73.4375 19.921875 
Q 70.703125 18.75 66.015625 16.015625 
Q 63.28125 23.4375 60.9375 28.703125 
Q 58.59375 33.984375 56.25 37.5 
Q 58.984375 39.0625 63.28125 41.40625 
z
" id="SimHei-30340"/>
      <path d="M 81.25 78.515625 
Q 80.859375 73.046875 80.859375 65.234375 
Q 80.859375 57.8125 81.25 52.734375 
L 66.796875 52.734375 
L 66.796875 46.484375 
L 76.5625 46.484375 
Q 81.640625 46.484375 86.328125 46.875 
L 86.328125 41.015625 
Q 81.640625 41.40625 76.5625 41.40625 
L 66.796875 41.40625 
L 66.796875 35.15625 
L 79.6875 35.15625 
Q 85.9375 35.15625 92.96875 35.546875 
L 92.96875 29.296875 
Q 85.9375 29.6875 79.6875 29.6875 
L 69.140625 29.6875 
Q 71.484375 26.5625 78.3125 23.234375 
Q 85.15625 19.921875 94.140625 17.96875 
Q 91.40625 15.234375 89.84375 11.328125 
Q 81.640625 14.0625 73.625 18.9375 
Q 65.625 23.828125 61.328125 29.6875 
L 39.0625 29.6875 
Q 35.15625 24.609375 28.125 20.109375 
Q 21.09375 15.625 8.984375 11.328125 
Q 7.03125 14.84375 4.296875 17.578125 
Q 10.9375 18.359375 19.140625 22.0625 
Q 27.34375 25.78125 30.46875 29.6875 
L 19.921875 29.6875 
Q 14.0625 29.6875 7.8125 29.296875 
L 7.8125 35.546875 
Q 14.0625 35.15625 19.921875 35.15625 
L 33.203125 35.15625 
L 33.203125 41.40625 
L 24.609375 41.40625 
Q 19.53125 41.40625 13.28125 41.015625 
L 13.28125 46.875 
Q 19.53125 46.484375 24.609375 46.484375 
L 33.203125 46.484375 
L 33.203125 52.734375 
L 19.140625 52.734375 
Q 19.53125 58.59375 19.53125 65.625 
Q 19.53125 73.046875 19.140625 78.515625 
L 81.25 78.515625 
z
M 32.421875 21.09375 
Q 36.328125 16.015625 39.453125 11.328125 
L 46.875 14.453125 
Q 46.875 20.703125 46.484375 26.5625 
L 53.90625 26.5625 
Q 53.515625 21.484375 53.515625 16.015625 
Q 58.59375 13.671875 60.9375 12.890625 
Q 62.890625 14.84375 66.796875 22.265625 
Q 69.921875 19.53125 73.828125 17.578125 
Q 69.53125 14.0625 66.40625 9.765625 
Q 74.609375 5.859375 86.71875 -0.390625 
Q 84.375 -3.125 82.421875 -7.03125 
Q 73.828125 -1.5625 67.375 2.34375 
Q 60.9375 6.25 53.515625 9.375 
L 53.515625 -0.390625 
Q 53.515625 -5.078125 50.96875 -6.828125 
Q 48.4375 -8.59375 41.40625 -9.765625 
Q 40.234375 -5.46875 37.890625 -1.953125 
Q 42.578125 -2.34375 44.71875 -1.75 
Q 46.875 -1.171875 46.875 1.953125 
L 46.875 8.203125 
Q 22.265625 -1.5625 17.1875 -4.6875 
Q 15.625 -0.78125 12.890625 1.953125 
Q 21.875 4.296875 33.203125 8.984375 
Q 30.859375 12.890625 26.5625 16.796875 
Q 29.6875 18.359375 32.421875 21.09375 
z
M 74.21875 67.96875 
L 74.21875 73.4375 
L 26.171875 73.4375 
L 26.171875 67.96875 
z
M 74.21875 57.8125 
L 74.21875 62.890625 
L 26.171875 62.890625 
L 26.171875 57.8125 
z
M 60.15625 46.484375 
L 60.15625 52.734375 
L 39.84375 52.734375 
L 39.84375 46.484375 
z
M 60.15625 35.15625 
L 60.15625 41.40625 
L 39.84375 41.40625 
L 39.84375 35.15625 
z
" id="SimHei-26292"/>
      <path d="M 77.734375 -9.375 
L 77.734375 -6.25 
L 58.984375 -6.25 
L 58.984375 -9.765625 
L 52.34375 -9.765625 
Q 52.734375 -5.078125 52.734375 2.734375 
Q 52.734375 6.640625 52.34375 9.765625 
Q 50.390625 8.984375 47.265625 8.203125 
Q 46.875 11.328125 43.75 14.84375 
Q 49.609375 15.625 53.703125 16.984375 
Q 57.8125 18.359375 62.890625 21.09375 
Q 60.546875 22.65625 58.59375 24.796875 
Q 56.640625 26.953125 54.296875 29.296875 
Q 52.34375 25.78125 49.21875 21.09375 
Q 47.65625 23.4375 42.96875 25.390625 
Q 47.65625 29.6875 50.390625 34.5625 
Q 53.125 39.453125 55.46875 43.75 
Q 58.984375 41.796875 62.890625 40.625 
Q 60.546875 39.0625 59.375 37.5 
L 85.9375 37.5 
Q 82.421875 31.25 79.875 27.734375 
Q 77.34375 24.21875 73.046875 21.09375 
Q 77.34375 19.53125 80.859375 18.75 
Q 84.375 17.96875 93.359375 17.578125 
Q 91.015625 14.0625 90.234375 10.15625 
Q 81.640625 12.109375 77.140625 13.46875 
Q 72.65625 14.84375 68.359375 17.1875 
Q 65.234375 15.234375 62.109375 13.859375 
Q 58.984375 12.5 56.640625 11.328125 
Q 55.859375 10.9375 54.296875 10.546875 
L 84.375 10.546875 
Q 83.984375 4.296875 83.984375 -0.78125 
Q 83.984375 -6.25 84.375 -9.375 
z
M 46.875 66.796875 
L 46.875 72.265625 
L 27.34375 72.265625 
Q 22.265625 72.265625 16.40625 71.875 
L 16.40625 78.125 
Q 21.875 77.734375 27.34375 77.734375 
L 71.875 77.734375 
Q 77.734375 77.734375 83.984375 78.125 
L 83.984375 71.875 
Q 77.734375 72.265625 71.875 72.265625 
L 53.125 72.265625 
L 53.125 66.796875 
L 90.234375 66.796875 
Q 89.84375 63.28125 90.03125 59.375 
Q 90.234375 55.46875 90.234375 52.34375 
L 83.203125 52.34375 
L 83.203125 60.9375 
L 53.125 60.9375 
L 53.125 43.359375 
L 46.484375 43.359375 
Q 46.875 46.875 46.875 52.734375 
L 46.875 60.9375 
L 16.015625 60.9375 
L 16.015625 52.34375 
L 8.59375 52.34375 
Q 8.984375 62.5 8.59375 66.796875 
z
M 41.796875 8.203125 
Q 38.28125 8.59375 34.375 8.59375 
L 32.03125 8.59375 
L 32.03125 0.78125 
Q 41.40625 2.34375 44.53125 2.734375 
L 43.75 -2.734375 
Q 35.15625 -3.90625 30.859375 -4.6875 
Q 26.5625 -5.46875 21.28125 -6.640625 
Q 16.015625 -7.8125 10.546875 -9.375 
Q 9.375 -5.859375 7.421875 -1.953125 
Q 10.9375 -1.5625 12.890625 -1.171875 
L 12.890625 13.28125 
L 19.53125 13.28125 
Q 19.140625 10.15625 19.140625 7.03125 
L 19.140625 -0.78125 
L 25.390625 0 
L 25.390625 19.921875 
L 12.890625 19.921875 
L 12.890625 39.0625 
L 41.796875 39.0625 
Q 41.40625 33.203125 41.40625 29.296875 
Q 41.40625 25.390625 41.796875 20.3125 
L 32.03125 20.3125 
L 32.03125 14.0625 
L 34.765625 14.0625 
Q 38.671875 14.0625 41.796875 14.453125 
z
M 77.734375 -1.171875 
L 77.734375 5.859375 
L 58.984375 5.859375 
L 58.984375 -1.171875 
z
M 35.15625 25.78125 
L 35.15625 33.59375 
L 19.140625 33.59375 
L 19.140625 25.78125 
z
M 39.84375 42.96875 
L 21.09375 42.96875 
L 21.09375 48.4375 
L 39.84375 48.4375 
z
M 77.34375 43.359375 
L 58.984375 43.359375 
L 58.984375 48.828125 
L 77.34375 48.828125 
z
M 39.84375 52.734375 
L 20.703125 52.734375 
L 20.703125 57.8125 
L 39.84375 57.8125 
z
M 77.734375 52.734375 
L 58.984375 52.734375 
L 58.984375 57.8125 
L 77.734375 57.8125 
z
M 67.96875 23.828125 
Q 70.3125 26.171875 72.0625 28.125 
Q 73.828125 30.078125 75.390625 32.03125 
L 59.375 32.03125 
Q 62.5 27.734375 67.96875 23.828125 
z
" id="SimHei-38706"/>
     </defs>
     <g transform="translate(113.52 132.023438)scale(0.12 -0.12)">
      <use xlink:href="#SimHei-26410"/>
      <use x="100" xlink:href="#SimHei-25509"/>
      <use x="200" xlink:href="#SimHei-31181"/>
      <use x="300" xlink:href="#SimHei-30340"/>
      <use x="400" xlink:href="#SimHei-26292"/>
      <use x="500" xlink:href="#SimHei-38706"/>
      <use x="600" xlink:href="#SimHei-32773"/>
     </g>
    </g>
    <g id="line2d_25">
     <path d="M 79.92 145.026563 
L 103.92 145.026563 
" style="fill:none;stroke:#2ca02c;stroke-linecap:square;stroke-width:1.5;"/>
    </g>
    <g id="line2d_26"/>
    <g id="text_18">
     <!-- 已接种的暴露者 -->
     <defs>
      <path d="M 82.421875 73.828125 
Q 82.03125 66.796875 82.03125 60.15625 
L 82.03125 45.703125 
Q 82.03125 37.5 82.421875 29.6875 
L 73.828125 29.6875 
L 73.828125 35.546875 
L 22.265625 35.546875 
L 22.265625 9.375 
Q 21.484375 0 32.03125 0.390625 
L 70.703125 0.390625 
Q 77.34375 0 79.875 2.34375 
Q 82.421875 4.6875 83.59375 15.625 
Q 87.890625 12.890625 93.359375 11.328125 
Q 91.015625 0.78125 88.078125 -2.921875 
Q 85.15625 -6.640625 79.6875 -7.03125 
L 27.34375 -7.03125 
Q 13.28125 -7.421875 14.0625 5.078125 
L 14.0625 38.671875 
Q 14.0625 42.578125 13.671875 53.125 
L 23.046875 53.125 
Q 22.65625 47.65625 22.65625 42.1875 
L 73.828125 42.1875 
L 73.828125 66.796875 
L 30.46875 66.796875 
Q 21.484375 66.796875 10.15625 66.40625 
L 10.15625 74.21875 
Q 21.484375 73.828125 30.078125 73.828125 
z
" id="SimHei-24050"/>
     </defs>
     <g transform="translate(113.52 149.226562)scale(0.12 -0.12)">
      <use xlink:href="#SimHei-24050"/>
      <use x="100" xlink:href="#SimHei-25509"/>
      <use x="200" xlink:href="#SimHei-31181"/>
      <use x="300" xlink:href="#SimHei-30340"/>
      <use x="400" xlink:href="#SimHei-26292"/>
      <use x="500" xlink:href="#SimHei-38706"/>
      <use x="600" xlink:href="#SimHei-32773"/>
     </g>
    </g>
    <g id="line2d_27">
     <path d="M 79.92 162.229688 
L 103.92 162.229688 
" style="fill:none;stroke:#d62728;stroke-linecap:square;stroke-width:1.5;"/>
    </g>
    <g id="line2d_28"/>
    <g id="text_19">
     <!-- 未接种的无症状感染者 -->
     <defs>
      <path d="M 67.96875 73.828125 
Q 76.171875 73.828125 82.8125 74.21875 
L 82.8125 66.796875 
Q 76.953125 67.1875 67.96875 67.1875 
L 49.609375 67.1875 
Q 49.609375 54.296875 48.828125 43.75 
L 78.90625 43.75 
Q 85.9375 43.75 91.796875 44.140625 
L 91.796875 36.71875 
Q 85.9375 37.109375 79.296875 37.109375 
L 61.71875 37.109375 
L 61.71875 6.640625 
Q 61.71875 1.5625 67.578125 1.5625 
L 80.859375 1.5625 
Q 85.15625 1.5625 85.546875 13.28125 
Q 89.453125 10.9375 94.140625 9.765625 
Q 92.1875 -5.46875 85.15625 -5.46875 
L 63.671875 -5.46875 
Q 54.6875 -5.078125 54.6875 4.6875 
L 54.6875 37.109375 
L 48.046875 37.109375 
Q 44.921875 22.265625 40.421875 14.640625 
Q 35.9375 7.03125 30.078125 1.75 
Q 24.21875 -3.515625 12.5 -10.15625 
Q 10.546875 -5.859375 5.859375 -3.515625 
Q 15.234375 0.78125 21.09375 5.265625 
Q 26.953125 9.765625 32.21875 16.40625 
Q 37.5 23.046875 40.625 37.109375 
L 23.4375 37.109375 
Q 13.671875 37.109375 9.375 36.71875 
L 9.375 44.140625 
Q 13.671875 43.75 23.4375 43.75 
L 41.40625 43.75 
Q 41.796875 55.46875 41.796875 67.1875 
L 31.25 67.1875 
Q 23.4375 67.1875 16.796875 66.796875 
L 16.796875 74.21875 
Q 23.4375 73.828125 31.25 73.828125 
z
" id="SimHei-26080"/>
      <path d="M 77.734375 52.734375 
Q 85.15625 52.734375 93.359375 53.125 
L 93.359375 46.09375 
Q 85.546875 46.484375 77.734375 46.484375 
L 68.359375 46.484375 
L 68.359375 30.078125 
L 77.734375 30.078125 
Q 82.8125 30.078125 91.015625 30.46875 
L 91.015625 23.046875 
Q 83.203125 23.4375 77.734375 23.4375 
L 68.359375 23.4375 
L 68.359375 1.5625 
L 79.6875 1.5625 
Q 86.71875 1.5625 95.703125 1.953125 
L 95.703125 -5.078125 
Q 86.328125 -4.6875 80.078125 -4.6875 
L 44.53125 -4.6875 
Q 37.109375 -4.6875 28.125 -5.078125 
L 28.125 1.953125 
Q 33.59375 1.5625 40.234375 1.5625 
L 40.234375 22.65625 
Q 40.234375 26.953125 39.84375 34.375 
L 48.046875 34.375 
Q 47.65625 28.125 47.65625 22.65625 
L 47.65625 1.5625 
L 60.15625 1.5625 
L 60.15625 46.484375 
L 49.21875 46.484375 
Q 42.578125 46.484375 35.15625 46.09375 
L 35.15625 53.125 
Q 42.578125 52.734375 49.21875 52.734375 
z
M 60.9375 82.421875 
Q 62.5 76.171875 64.453125 69.921875 
L 79.296875 69.921875 
Q 85.546875 69.921875 95.3125 70.3125 
L 95.3125 62.890625 
Q 85.546875 63.28125 79.296875 63.28125 
L 28.90625 63.28125 
L 28.90625 46.09375 
Q 28.90625 36.328125 28.515625 25.96875 
Q 28.125 15.625 25.78125 7.609375 
Q 23.4375 -0.390625 16.796875 -10.9375 
Q 13.671875 -8.59375 8.59375 -6.25 
Q 13.28125 -1.953125 16.40625 4.09375 
Q 19.53125 10.15625 20.5 16.59375 
Q 21.484375 23.046875 21.484375 27.734375 
Q 15.625 23.828125 8.203125 18.75 
Q 6.25 22.65625 3.90625 26.953125 
Q 7.421875 28.125 21.484375 34.375 
L 21.484375 53.90625 
Q 21.484375 62.5 21.09375 69.921875 
L 54.6875 69.921875 
Q 53.515625 75.78125 51.953125 80.46875 
Q 56.25 81.25 60.9375 82.421875 
z
M 8.59375 61.328125 
Q 14.453125 55.078125 20.3125 48.046875 
Q 17.96875 46.484375 14.453125 42.96875 
Q 9.375 50 3.515625 56.25 
Q 6.640625 58.984375 8.59375 61.328125 
z
" id="SimHei-30151"/>
      <path d="M 34.765625 -4.296875 
Q 41.796875 0.390625 46.484375 7.421875 
Q 51.171875 14.453125 53.90625 21.09375 
Q 56.640625 27.734375 57.8125 33.984375 
Q 58.984375 40.234375 59.375 44.921875 
L 50.390625 44.921875 
Q 44.53125 44.921875 39.0625 44.53125 
L 39.0625 51.953125 
Q 44.53125 51.5625 50 51.5625 
L 59.765625 51.5625 
Q 59.765625 62.109375 59.5625 68.359375 
Q 59.375 74.609375 58.984375 79.296875 
L 69.140625 79.296875 
Q 67.96875 74.21875 67.765625 68.9375 
Q 67.578125 63.671875 67.578125 51.5625 
L 83.59375 51.5625 
Q 87.890625 51.5625 93.359375 51.953125 
L 93.359375 44.53125 
Q 87.890625 44.921875 83.59375 44.921875 
L 68.359375 44.921875 
Q 73.046875 22.65625 78.3125 15.03125 
Q 83.59375 7.421875 87.890625 4.09375 
Q 92.1875 0.78125 95.703125 -1.171875 
Q 90.234375 -3.515625 87.890625 -8.203125 
Q 81.640625 -3.125 77.921875 1.75 
Q 74.21875 6.640625 71.671875 11.328125 
Q 69.140625 16.015625 67.375 20.890625 
Q 65.625 25.78125 64.453125 31.25 
Q 62.5 21.875 59.5625 15.234375 
Q 56.640625 8.59375 53.515625 3.703125 
Q 50.390625 -1.171875 42.96875 -9.765625 
Q 39.453125 -6.25 34.765625 -4.296875 
z
M 34.765625 81.25 
Q 34.375 75.390625 34.375 66.40625 
L 34.375 12.109375 
Q 34.375 0.78125 34.765625 -9.765625 
L 26.171875 -9.765625 
Q 26.5625 1.171875 26.5625 12.109375 
L 26.5625 30.46875 
Q 23.828125 27.34375 18.75 21.09375 
Q 13.671875 14.84375 10.9375 11.71875 
Q 7.8125 15.625 4.296875 17.96875 
Q 8.984375 21.484375 14.25 26.75 
Q 19.53125 32.03125 26.5625 40.625 
L 26.5625 66.40625 
Q 26.5625 75.390625 26.171875 81.25 
L 34.765625 81.25 
z
M 9.765625 67.578125 
Q 12.5 64.453125 15.625 60.546875 
Q 18.75 56.640625 21.484375 52.734375 
Q 18.359375 50.390625 16.40625 48.046875 
Q 13.28125 52.34375 3.90625 63.28125 
Q 6.25 65.234375 9.765625 67.578125 
z
M 85.546875 57.03125 
Q 82.03125 62.109375 73.4375 69.921875 
Q 76.5625 72.265625 78.515625 74.21875 
Q 82.03125 71.484375 84.765625 68.546875 
Q 87.5 65.625 91.015625 62.109375 
Q 87.890625 59.375 85.546875 57.03125 
z
" id="SimHei-29366"/>
     </defs>
     <g transform="translate(113.52 166.429688)scale(0.12 -0.12)">
      <use xlink:href="#SimHei-26410"/>
      <use x="100" xlink:href="#SimHei-25509"/>
      <use x="200" xlink:href="#SimHei-31181"/>
      <use x="300" xlink:href="#SimHei-30340"/>
      <use x="400" xlink:href="#SimHei-26080"/>
      <use x="500" xlink:href="#SimHei-30151"/>
      <use x="600" xlink:href="#SimHei-29366"/>
      <use x="700" xlink:href="#SimHei-24863"/>
      <use x="800" xlink:href="#SimHei-26579"/>
      <use x="900" xlink:href="#SimHei-32773"/>
     </g>
    </g>
    <g id="line2d_29">
     <path d="M 79.92 179.432813 
L 103.92 179.432813 
" style="fill:none;stroke:#9467bd;stroke-linecap:square;stroke-width:1.5;"/>
    </g>
    <g id="line2d_30"/>
    <g id="text_20">
     <!-- 已接种的无症状感染者 -->
     <g transform="translate(113.52 183.632812)scale(0.12 -0.12)">
      <use xlink:href="#SimHei-24050"/>
      <use x="100" xlink:href="#SimHei-25509"/>
      <use x="200" xlink:href="#SimHei-31181"/>
      <use x="300" xlink:href="#SimHei-30340"/>
      <use x="400" xlink:href="#SimHei-26080"/>
      <use x="500" xlink:href="#SimHei-30151"/>
      <use x="600" xlink:href="#SimHei-29366"/>
      <use x="700" xlink:href="#SimHei-24863"/>
      <use x="800" xlink:href="#SimHei-26579"/>
      <use x="900" xlink:href="#SimHei-32773"/>
     </g>
    </g>
    <g id="line2d_31">
     <path d="M 79.92 196.635938 
L 103.92 196.635938 
" style="fill:none;stroke:#8c564b;stroke-linecap:square;stroke-width:1.5;"/>
    </g>
    <g id="line2d_32"/>
    <g id="text_21">
     <!-- 未接种的有症状感染者 -->
     <defs>
      <path d="M 4.296875 25.390625 
Q 13.28125 30.859375 21.875 39.640625 
Q 30.46875 48.4375 37.5 61.328125 
L 23.4375 61.328125 
Q 17.96875 61.328125 9.765625 60.9375 
L 9.765625 68.359375 
Q 19.921875 67.96875 25 67.96875 
L 39.84375 67.96875 
Q 42.96875 77.34375 43.359375 81.640625 
Q 49.21875 80.078125 52.734375 79.296875 
Q 51.5625 78.125 48.828125 67.96875 
L 80.46875 67.96875 
Q 87.109375 67.96875 94.140625 68.359375 
L 94.140625 60.9375 
Q 87.109375 61.328125 81.640625 61.328125 
L 46.484375 61.328125 
Q 43.75 56.25 40.625 51.171875 
L 85.546875 51.171875 
Q 85.15625 41.40625 85.15625 33.59375 
L 85.15625 1.953125 
Q 85.15625 -3.515625 82.03125 -6.046875 
Q 78.90625 -8.59375 68.75 -9.375 
Q 68.359375 -5.078125 66.015625 0 
Q 71.875 -0.78125 74.609375 -0.390625 
Q 77.34375 0 77.34375 3.90625 
L 77.34375 11.71875 
L 36.71875 11.71875 
L 36.71875 -8.984375 
L 28.125 -8.984375 
Q 28.515625 0.78125 28.515625 7.8125 
L 28.515625 35.546875 
Q 20.3125 26.171875 11.328125 19.140625 
Q 9.765625 21.875 4.296875 25.390625 
z
M 77.34375 33.984375 
L 77.34375 44.921875 
L 36.71875 44.921875 
L 36.71875 33.984375 
z
M 77.34375 17.96875 
L 77.34375 27.734375 
L 36.71875 27.734375 
L 36.71875 17.96875 
z
" id="SimHei-26377"/>
     </defs>
     <g transform="translate(113.52 200.835938)scale(0.12 -0.12)">
      <use xlink:href="#SimHei-26410"/>
      <use x="100" xlink:href="#SimHei-25509"/>
      <use x="200" xlink:href="#SimHei-31181"/>
      <use x="300" xlink:href="#SimHei-30340"/>
      <use x="400" xlink:href="#SimHei-26377"/>
      <use x="500" xlink:href="#SimHei-30151"/>
      <use x="600" xlink:href="#SimHei-29366"/>
      <use x="700" xlink:href="#SimHei-24863"/>
      <use x="800" xlink:href="#SimHei-26579"/>
      <use x="900" xlink:href="#SimHei-32773"/>
     </g>
    </g>
    <g id="line2d_33">
     <path d="M 79.92 213.839063 
L 103.92 213.839063 
" style="fill:none;stroke:#e377c2;stroke-linecap:square;stroke-width:1.5;"/>
    </g>
    <g id="line2d_34"/>
    <g id="text_22">
     <!-- 已接种的有症状感染者 -->
     <g transform="translate(113.52 218.039062)scale(0.12 -0.12)">
      <use xlink:href="#SimHei-24050"/>
      <use x="100" xlink:href="#SimHei-25509"/>
      <use x="200" xlink:href="#SimHei-31181"/>
      <use x="300" xlink:href="#SimHei-30340"/>
      <use x="400" xlink:href="#SimHei-26377"/>
      <use x="500" xlink:href="#SimHei-30151"/>
      <use x="600" xlink:href="#SimHei-29366"/>
      <use x="700" xlink:href="#SimHei-24863"/>
      <use x="800" xlink:href="#SimHei-26579"/>
      <use x="900" xlink:href="#SimHei-32773"/>
     </g>
    </g>
    <g id="line2d_35">
     <path d="M 79.92 230.948438 
L 103.92 230.948438 
" style="fill:none;stroke:#7f7f7f;stroke-linecap:square;stroke-width:1.5;"/>
    </g>
    <g id="line2d_36"/>
    <g id="text_23">
     <!-- 隔离者 -->
     <defs>
      <path d="M 14.0625 71.484375 
L 14.0625 -7.421875 
L 6.25 -7.421875 
Q 6.640625 2.734375 6.640625 13.28125 
L 6.640625 60.9375 
Q 6.640625 69.921875 6.25 77.34375 
L 36.328125 77.34375 
Q 34.765625 73.828125 32.21875 65.421875 
Q 29.6875 57.03125 27.34375 48.828125 
Q 33.59375 39.0625 35.34375 33.203125 
Q 37.109375 27.34375 35.9375 22.453125 
Q 34.765625 17.578125 30.078125 15.234375 
Q 25.390625 12.890625 20.703125 12.109375 
Q 19.921875 15.625 17.1875 20.703125 
Q 23.046875 20.703125 25.96875 22.0625 
Q 28.90625 23.4375 28.703125 28.3125 
Q 28.515625 33.203125 25.78125 38.28125 
Q 23.046875 43.359375 19.140625 48.046875 
Q 24.609375 63.28125 26.5625 71.484375 
z
M 94.140625 37.890625 
Q 93.75 32.8125 93.75 25 
L 93.75 2.734375 
Q 93.75 -3.125 90.03125 -4.875 
Q 86.328125 -6.640625 78.90625 -7.421875 
Q 78.90625 -3.125 76.171875 1.171875 
Q 82.421875 0.78125 84.171875 1.171875 
Q 85.9375 1.5625 86.328125 4.6875 
L 86.328125 32.03125 
L 46.484375 32.03125 
L 46.484375 -6.640625 
L 38.671875 -6.640625 
Q 39.0625 -1.171875 39.0625 15.234375 
Q 39.0625 32.03125 38.671875 37.890625 
L 94.140625 37.890625 
z
M 87.109375 64.84375 
Q 86.71875 60.15625 86.71875 55.46875 
Q 86.71875 50.78125 87.109375 44.921875 
L 44.140625 44.921875 
Q 44.53125 50.78125 44.53125 55.46875 
Q 44.53125 60.15625 44.140625 64.84375 
L 87.109375 64.84375 
z
M 80.078125 28.515625 
Q 78.515625 25.78125 77.140625 23.046875 
Q 75.78125 20.3125 74.609375 17.578125 
Q 77.734375 17.578125 82.8125 17.96875 
L 82.8125 10.9375 
Q 78.515625 11.328125 73.828125 11.328125 
L 69.140625 11.328125 
Q 69.140625 1.953125 69.53125 -2.734375 
L 61.328125 -2.734375 
Q 61.71875 1.953125 61.71875 11.328125 
L 60.15625 11.328125 
Q 54.6875 11.328125 50.390625 10.9375 
L 50.390625 17.96875 
Q 56.25 17.578125 60.546875 17.578125 
L 68.359375 17.578125 
Q 69.140625 20.3125 70.3125 23.4375 
Q 71.484375 26.5625 71.875 31.25 
L 80.078125 28.515625 
z
M 82.03125 77.34375 
Q 89.0625 77.34375 94.140625 77.734375 
L 94.140625 70.703125 
Q 89.0625 71.09375 82.421875 71.09375 
L 56.25 71.09375 
Q 46.484375 71.09375 39.84375 70.703125 
L 39.84375 77.734375 
Q 46.875 77.34375 56.25 77.34375 
z
M 79.296875 50.78125 
L 79.296875 58.984375 
L 52.34375 58.984375 
L 52.34375 50.78125 
z
M 57.8125 17.96875 
Q 55.078125 23.046875 52.34375 26.953125 
Q 54.6875 28.125 58.59375 30.46875 
L 64.0625 21.09375 
Q 60.9375 19.140625 57.8125 17.96875 
z
" id="SimHei-38548"/>
      <path d="M 46.875 35.546875 
Q 49.21875 33.984375 53.515625 32.03125 
Q 51.171875 29.6875 49.21875 26.953125 
L 91.015625 26.953125 
L 91.015625 0 
Q 91.015625 -7.421875 87.6875 -8.390625 
Q 84.375 -9.375 75.78125 -10.15625 
Q 74.609375 -5.46875 72.65625 -1.5625 
Q 81.640625 -1.953125 82.8125 -1.359375 
Q 83.984375 -0.78125 83.984375 2.734375 
L 83.984375 21.09375 
L 46.09375 21.09375 
Q 44.140625 17.96875 41.796875 15.03125 
Q 39.453125 12.109375 36.71875 8.203125 
Q 41.40625 8.203125 63.671875 10.546875 
Q 62.109375 12.5 60.15625 14.84375 
Q 62.109375 16.796875 65.625 19.140625 
Q 67.96875 16.796875 70.890625 12.890625 
Q 73.828125 8.984375 76.5625 4.6875 
Q 72.65625 3.125 69.921875 0.78125 
Q 67.96875 3.125 66.796875 5.46875 
Q 49.609375 3.515625 42.1875 2.34375 
Q 34.765625 1.171875 28.90625 -0.390625 
Q 28.125 4.296875 26.171875 9.375 
Q 29.296875 10.9375 32.421875 14.0625 
Q 35.546875 17.1875 38.28125 21.09375 
L 17.578125 21.09375 
L 17.578125 -9.765625 
L 10.15625 -9.765625 
Q 10.546875 -3.515625 10.546875 3.515625 
L 10.546875 15.625 
Q 10.546875 22.65625 10.15625 26.953125 
L 41.015625 26.953125 
Q 43.75 31.25 45.703125 35.546875 
L 16.015625 35.546875 
Q 16.40625 39.453125 16.40625 42.578125 
L 16.40625 51.953125 
Q 16.40625 55.46875 16.015625 59.375 
L 23.828125 59.375 
Q 23.4375 55.078125 23.4375 51.171875 
L 23.4375 41.40625 
L 78.90625 41.40625 
L 78.90625 51.953125 
Q 78.90625 55.859375 78.515625 58.984375 
L 86.328125 58.984375 
Q 85.9375 55.859375 85.9375 51.953125 
L 85.9375 42.96875 
Q 85.9375 39.84375 86.328125 35.546875 
L 46.875 35.546875 
z
M 51.5625 82.421875 
Q 53.125 78.125 55.078125 72.65625 
L 77.34375 72.65625 
Q 83.984375 72.65625 92.96875 73.046875 
L 92.96875 66.796875 
Q 83.984375 67.1875 74.609375 67.1875 
L 23.828125 67.1875 
Q 16.40625 67.1875 7.421875 66.796875 
L 7.421875 73.046875 
Q 16.015625 72.65625 16.40625 72.65625 
L 46.484375 72.65625 
Q 45.3125 76.5625 42.96875 80.46875 
Q 47.265625 81.25 51.5625 82.421875 
z
M 33.984375 64.453125 
Q 38.28125 63.28125 42.96875 61.515625 
Q 47.65625 59.765625 52.34375 58.203125 
Q 60.15625 62.890625 64.453125 66.40625 
Q 68.359375 64.0625 72.65625 61.328125 
Q 65.625 59.375 59.765625 55.46875 
Q 66.40625 52.34375 75 48.4375 
Q 72.265625 46.09375 68.359375 43.359375 
Q 62.890625 46.875 59.171875 48.625 
Q 55.46875 50.390625 51.953125 51.5625 
Q 48.828125 49.609375 44.140625 47.65625 
Q 39.453125 45.703125 33.59375 43.359375 
Q 31.25 46.484375 28.125 48.828125 
Q 33.984375 50 37.6875 51.359375 
Q 41.40625 52.734375 46.09375 54.296875 
Q 41.015625 55.859375 37.890625 56.828125 
Q 34.765625 57.8125 28.90625 58.984375 
Q 32.03125 61.71875 33.984375 64.453125 
z
" id="SimHei-31163"/>
     </defs>
     <g transform="translate(113.52 235.148438)scale(0.12 -0.12)">
      <use xlink:href="#SimHei-38548"/>
      <use x="100" xlink:href="#SimHei-31163"/>
      <use x="200" xlink:href="#SimHei-32773"/>
     </g>
    </g>
   </g>
  </g>
  <g id="axes_2">
   <g id="patch_8">
    <path d="M 354 135.6 
L 512.4 135.6 
L 512.4 42 
L 354 42 
z
" style="fill:#ffffff;"/>
   </g>
   <g id="matplotlib.axis_3">
    <g id="xtick_7">
     <g id="line2d_37">
      <g>
       <use style="stroke:#000000;stroke-width:0.8;" x="361.2" xlink:href="#m2d68639849" y="135.6"/>
      </g>
     </g>
     <g id="text_24">
      <!-- 100 -->
      <g transform="translate(352.2 150.85)scale(0.12 -0.12)">
       <use xlink:href="#SimHei-49"/>
       <use x="50" xlink:href="#SimHei-48"/>
       <use x="100" xlink:href="#SimHei-48"/>
      </g>
     </g>
    </g>
    <g id="xtick_8">
     <g id="line2d_38">
      <g>
       <use style="stroke:#000000;stroke-width:0.8;" x="409.360535" xlink:href="#m2d68639849" y="135.6"/>
      </g>
     </g>
     <g id="text_25">
      <!-- 200 -->
      <g transform="translate(400.360535 150.85)scale(0.12 -0.12)">
       <use xlink:href="#SimHei-50"/>
       <use x="50" xlink:href="#SimHei-48"/>
       <use x="100" xlink:href="#SimHei-48"/>
      </g>
     </g>
    </g>
    <g id="xtick_9">
     <g id="line2d_39">
      <g>
       <use style="stroke:#000000;stroke-width:0.8;" x="457.52107" xlink:href="#m2d68639849" y="135.6"/>
      </g>
     </g>
     <g id="text_26">
      <!-- 300 -->
      <g transform="translate(448.52107 150.85)scale(0.12 -0.12)">
       <use xlink:href="#SimHei-51"/>
       <use x="50" xlink:href="#SimHei-48"/>
       <use x="100" xlink:href="#SimHei-48"/>
      </g>
     </g>
    </g>
    <g id="xtick_10">
     <g id="line2d_40">
      <g>
       <use style="stroke:#000000;stroke-width:0.8;" x="505.681605" xlink:href="#m2d68639849" y="135.6"/>
      </g>
     </g>
     <g id="text_27">
      <!-- 400 -->
      <g transform="translate(496.681605 150.85)scale(0.12 -0.12)">
       <use xlink:href="#SimHei-52"/>
       <use x="50" xlink:href="#SimHei-48"/>
       <use x="100" xlink:href="#SimHei-48"/>
      </g>
     </g>
    </g>
   </g>
   <g id="matplotlib.axis_4">
    <g id="ytick_7">
     <g id="line2d_41">
      <g>
       <use style="stroke:#000000;stroke-width:0.8;" x="354" xlink:href="#m34edaeb820" y="131.345455"/>
      </g>
     </g>
     <g id="text_28">
      <!-- 0.00 -->
      <g transform="translate(323 135.470455)scale(0.12 -0.12)">
       <use xlink:href="#SimHei-48"/>
       <use x="50" xlink:href="#SimHei-46"/>
       <use x="100" xlink:href="#SimHei-48"/>
       <use x="150" xlink:href="#SimHei-48"/>
      </g>
     </g>
    </g>
    <g id="ytick_8">
     <g id="line2d_42">
      <g>
       <use style="stroke:#000000;stroke-width:0.8;" x="354" xlink:href="#m34edaeb820" y="96.672955"/>
      </g>
     </g>
     <g id="text_29">
      <!-- 0.01 -->
      <g transform="translate(323 100.797955)scale(0.12 -0.12)">
       <use xlink:href="#SimHei-48"/>
       <use x="50" xlink:href="#SimHei-46"/>
       <use x="100" xlink:href="#SimHei-48"/>
       <use x="150" xlink:href="#SimHei-49"/>
      </g>
     </g>
    </g>
    <g id="ytick_9">
     <g id="line2d_43">
      <g>
       <use style="stroke:#000000;stroke-width:0.8;" x="354" xlink:href="#m34edaeb820" y="62.000455"/>
      </g>
     </g>
     <g id="text_30">
      <!-- 0.02 -->
      <g transform="translate(323 66.125455)scale(0.12 -0.12)">
       <use xlink:href="#SimHei-48"/>
       <use x="50" xlink:href="#SimHei-46"/>
       <use x="100" xlink:href="#SimHei-48"/>
       <use x="150" xlink:href="#SimHei-50"/>
      </g>
     </g>
    </g>
   </g>
   <g id="line2d_44">
    <path clip-path="url(#p0eb55b6767)" d="M 361.2 131.345455 
L 505.2 131.345455 
L 505.2 131.345455 
" style="fill:none;stroke:#1f77b4;stroke-linecap:square;stroke-width:1.5;"/>
   </g>
   <g id="line2d_45">
    <path clip-path="url(#p0eb55b6767)" d="M 361.2 131.186566 
L 372.758528 130.919531 
L 380.464214 130.528453 
L 386.243478 130.021732 
L 391.059532 129.379307 
L 394.912375 128.664275 
L 398.765217 127.717609 
L 402.136455 126.659047 
L 405.507692 125.354483 
L 408.87893 123.788229 
L 412.250167 121.97146 
L 416.584615 119.36018 
L 422.845485 115.571225 
L 425.735117 114.123807 
L 428.143144 113.207474 
L 430.069565 112.715469 
L 431.995987 112.465787 
L 433.922408 112.471341 
L 435.848829 112.731434 
L 437.775251 113.2317 
L 439.701672 113.945621 
L 442.109699 115.083939 
L 444.999331 116.703295 
L 456.55786 123.495858 
L 459.929097 125.084186 
L 463.300334 126.416446 
L 466.671572 127.505063 
L 470.042809 128.37711 
L 473.895652 129.15045 
L 478.2301 129.793291 
L 483.527759 130.336316 
L 489.788629 130.742734 
L 497.97592 131.040172 
L 505.2 131.178445 
L 505.2 131.178445 
" style="fill:none;stroke:#ff7f0e;stroke-linecap:square;stroke-width:1.5;"/>
   </g>
   <g id="line2d_46">
    <path clip-path="url(#p0eb55b6767)" d="M 361.2 130.630353 
L 366.979264 130.173749 
L 371.795318 129.579497 
L 375.648161 128.896603 
L 379.019398 128.089806 
L 381.90903 127.194922 
L 384.798662 126.062088 
L 387.206689 124.894547 
L 389.614716 123.481767 
L 392.022742 121.778559 
L 393.949164 120.173155 
L 395.875585 118.321818 
L 397.802007 116.195533 
L 399.728428 113.765007 
L 401.654849 111.002266 
L 403.581271 107.88239 
L 405.507692 104.386084 
L 407.434114 100.503142 
L 409.84214 95.110865 
L 412.250167 89.162583 
L 415.139799 81.434114 
L 422.845485 60.361524 
L 424.771906 55.856217 
L 426.216722 52.91536 
L 427.661538 50.436175 
L 429.106355 48.487103 
L 430.069565 47.51045 
L 431.032776 46.807288 
L 431.995987 46.386779 
L 432.959197 46.254545 
L 433.922408 46.411976 
L 434.885619 46.856711 
L 435.848829 47.582502 
L 436.81204 48.579216 
L 437.775251 49.833455 
L 439.220067 52.16111 
L 440.664883 54.964527 
L 442.591304 59.311917 
L 444.999331 65.455807 
L 449.333779 77.404709 
L 453.186622 87.791382 
L 456.076254 94.909079 
L 458.484281 100.247144 
L 460.892308 104.999563 
L 462.818729 108.377936 
L 464.745151 111.392649 
L 466.671572 114.063764 
L 468.597993 116.416269 
L 470.524415 118.477375 
L 472.932441 120.686957 
L 475.340468 122.539127 
L 477.748495 124.084348 
L 480.156522 125.368505 
L 483.046154 126.62198 
L 485.935786 127.618486 
L 489.307023 128.523018 
L 493.159866 129.294483 
L 497.494314 129.91539 
L 502.791973 130.426484 
L 505.2 130.59405 
L 505.2 130.59405 
" style="fill:none;stroke:#2ca02c;stroke-linecap:square;stroke-width:1.5;"/>
   </g>
   <g id="line2d_47">
    <path clip-path="url(#p0eb55b6767)" d="M 361.2 131.280275 
L 377.574582 131.082168 
L 387.206689 130.754187 
L 393.949164 130.316602 
L 399.728428 129.715687 
L 404.544482 128.993158 
L 408.87893 128.132426 
L 413.213378 127.061162 
L 418.511037 125.518855 
L 426.216722 123.257907 
L 429.58796 122.516289 
L 432.477592 122.114105 
L 434.885619 121.97854 
L 437.293645 122.036154 
L 440.183278 122.351431 
L 443.07291 122.899593 
L 446.925753 123.891031 
L 461.855518 128.060583 
L 466.189967 128.921731 
L 471.00602 129.650785 
L 476.303679 130.221505 
L 482.564548 130.664088 
L 490.751839 130.99658 
L 502.310368 131.211763 
L 505.2 131.240431 
L 505.2 131.240431 
" style="fill:none;stroke:#d62728;stroke-linecap:square;stroke-width:1.5;"/>
   </g>
   <g id="line2d_48">
    <path clip-path="url(#p0eb55b6767)" d="M 361.2 130.90544 
L 368.42408 130.529495 
L 374.203344 130.010418 
L 378.537793 129.417485 
L 382.390635 128.677325 
L 385.761873 127.806805 
L 388.651505 126.846187 
L 391.541137 125.637622 
L 393.949164 124.400806 
L 396.357191 122.916113 
L 398.765217 121.143561 
L 401.173244 119.041432 
L 403.099666 117.09472 
L 405.026087 114.891385 
L 407.434114 111.752976 
L 409.84214 108.17143 
L 412.250167 104.15091 
L 415.139799 98.79917 
L 418.511037 92.016048 
L 424.290301 80.25977 
L 426.698328 75.94077 
L 428.624749 73.000746 
L 430.069565 71.183422 
L 431.514381 69.752941 
L 432.477592 69.034022 
L 433.440803 68.513696 
L 434.404013 68.198418 
L 435.367224 68.092076 
L 436.330435 68.195641 
L 437.293645 68.507448 
L 438.256856 69.023124 
L 439.220067 69.735657 
L 440.664883 71.152325 
L 442.109699 72.949866 
L 443.554515 75.079483 
L 445.480936 78.340824 
L 447.888963 82.902842 
L 453.668227 94.619276 
L 457.039465 101.110235 
L 459.929097 106.143712 
L 462.337124 109.887132 
L 464.745151 113.20088 
L 467.153177 116.092731 
L 469.561204 118.58684 
L 471.969231 120.717152 
L 474.377258 122.52219 
L 476.785284 124.041659 
L 479.193311 125.313737 
L 482.082943 126.563534 
L 484.972575 127.562885 
L 488.343813 128.474359 
L 492.196656 129.255056 
L 496.531104 129.885681 
L 501.828763 130.406146 
L 505.2 130.636531 
L 505.2 130.636531 
" style="fill:none;stroke:#9467bd;stroke-linecap:square;stroke-width:1.5;"/>
   </g>
   <g id="line2d_49">
    <path clip-path="url(#p0eb55b6767)" d="M 361.2 131.309637 
L 381.90903 131.137213 
L 392.504348 130.844703 
L 400.210033 130.422667 
L 406.470903 129.875477 
L 412.731773 129.108385 
L 430.069565 126.768374 
L 433.922408 126.626978 
L 437.775251 126.73693 
L 441.628094 127.074767 
L 446.925753 127.787786 
L 459.929097 129.637388 
L 466.189967 130.250104 
L 472.932441 130.690327 
L 481.601338 131.017474 
L 493.641472 131.223564 
L 505.2 131.298947 
L 505.2 131.298947 
" style="fill:none;stroke:#8c564b;stroke-linecap:square;stroke-width:1.5;"/>
   </g>
   <g id="line2d_50">
    <path clip-path="url(#p0eb55b6767)" d="M 361.2 131.264865 
L 376.611371 131.045795 
L 385.761873 130.698726 
L 392.504348 130.218798 
L 397.802007 129.62413 
L 402.61806 128.851553 
L 406.952508 127.922935 
L 411.286957 126.753172 
L 416.10301 125.202467 
L 425.735117 121.998462 
L 428.624749 121.302727 
L 431.032776 120.916022 
L 433.440803 120.737906 
L 435.848829 120.782539 
L 438.256856 121.045618 
L 441.146488 121.617796 
L 444.517726 122.556549 
L 449.815385 124.335488 
L 456.55786 126.557425 
L 460.892308 127.746415 
L 465.226756 128.700092 
L 469.561204 129.432617 
L 474.377258 130.029368 
L 480.156522 130.515959 
L 487.380602 130.885379 
L 497.012709 131.138185 
L 505.2 131.240778 
L 505.2 131.240778 
" style="fill:none;stroke:#e377c2;stroke-linecap:square;stroke-width:1.5;"/>
   </g>
   <g id="patch_9">
    <path d="M 354 135.6 
L 354 42 
" style="fill:none;stroke:#000000;stroke-linecap:square;stroke-linejoin:miter;stroke-width:0.8;"/>
   </g>
   <g id="patch_10">
    <path d="M 512.4 135.6 
L 512.4 42 
" style="fill:none;stroke:#000000;stroke-linecap:square;stroke-linejoin:miter;stroke-width:0.8;"/>
   </g>
   <g id="patch_11">
    <path d="M 354 135.6 
L 512.4 135.6 
" style="fill:none;stroke:#000000;stroke-linecap:square;stroke-linejoin:miter;stroke-width:0.8;"/>
   </g>
   <g id="patch_12">
    <path d="M 354 42 
L 512.4 42 
" style="fill:none;stroke:#000000;stroke-linecap:square;stroke-linejoin:miter;stroke-width:0.8;"/>
   </g>
  </g>
 </g>
 <defs>
  <clipPath id="p49c95cd1ac">
   <rect height="270" width="449.28" x="69.12" y="36"/>
  </clipPath>
  <clipPath id="p0eb55b6767">
   <rect height="93.6" width="158.4" x="354" y="42"/>
  </clipPath>
 </defs>
</svg>
