<?xml version="1.0" encoding="utf-8" standalone="no"?>
<!DOCTYPE svg PUBLIC "-//W3C//DTD SVG 1.1//EN"
  "http://www.w3.org/Graphics/SVG/1.1/DTD/svg11.dtd">
<!-- Created with matplotlib (https://matplotlib.org/) -->
<svg height="360pt" version="1.1" viewBox="0 0 576 360" width="576pt" xmlns="http://www.w3.org/2000/svg" xmlns:xlink="http://www.w3.org/1999/xlink">
 <defs>
  <style type="text/css">
*{stroke-linecap:butt;stroke-linejoin:round;}
  </style>
 </defs>
 <g id="figure_1">
  <g id="patch_1">
   <path d="M 0 360 
L 576 360 
L 576 0 
L 0 0 
z
" style="fill:#ffffff;"/>
  </g>
  <g id="axes_1">
   <g id="patch_2">
    <path d="M 69.12 306 
L 518.4 306 
L 518.4 36 
L 69.12 36 
z
" style="fill:#ffffff;"/>
   </g>
   <g id="matplotlib.axis_1">
    <g id="xtick_1">
     <g id="line2d_1">
      <defs>
       <path d="M 0 0 
L 0 3.5 
" id="maef6507bb8" style="stroke:#000000;stroke-width:0.8;"/>
      </defs>
      <g>
       <use style="stroke:#000000;stroke-width:0.8;" x="89.541818" xlink:href="#maef6507bb8" y="306"/>
      </g>
     </g>
     <g id="text_1">
      <!-- 0 -->
      <defs>
       <path d="M 3.125 29.296875 
Q 3.90625 50 6.4375 56.046875 
Q 8.984375 62.109375 13.671875 66.015625 
Q 18.359375 69.921875 25.1875 69.921875 
Q 32.03125 69.921875 37.109375 64.25 
Q 42.1875 58.59375 43.75 50 
Q 45.3125 41.40625 44.71875 30.265625 
Q 44.140625 19.140625 40.8125 12.109375 
Q 37.5 5.078125 30.859375 2.34375 
Q 24.21875 -0.390625 17.578125 2.921875 
Q 10.9375 6.25 8.203125 11.71875 
Q 5.46875 17.1875 4.296875 23.234375 
Q 3.125 29.296875 3.90625 50 
z
M 12.890625 52.734375 
Q 10.546875 31.25 12.5 22.84375 
Q 14.453125 14.453125 18.9375 10.9375 
Q 23.4375 7.421875 28.125 9.5625 
Q 32.8125 11.71875 34.953125 18.15625 
Q 37.109375 24.609375 37.109375 32.21875 
Q 37.109375 39.84375 36.515625 46.09375 
Q 35.9375 52.34375 33 57.421875 
Q 30.078125 62.5 25.1875 62.6875 
Q 20.3125 62.890625 16.59375 57.8125 
Q 12.890625 52.734375 10.546875 31.25 
z
" id="SimHei-48"/>
      </defs>
      <g transform="translate(85.041818 325.375)scale(0.18 -0.18)">
       <use xlink:href="#SimHei-48"/>
      </g>
     </g>
    </g>
    <g id="xtick_2">
     <g id="line2d_2">
      <g>
       <use style="stroke:#000000;stroke-width:0.8;" x="171.392793" xlink:href="#maef6507bb8" y="306"/>
      </g>
     </g>
     <g id="text_2">
      <!-- 100 -->
      <defs>
       <path d="M 21.875 56.25 
Q 16.796875 51.171875 8.984375 46.484375 
L 8.984375 53.90625 
Q 18.75 60.546875 25 69.53125 
L 29.6875 69.53125 
L 29.6875 2.34375 
L 21.875 2.34375 
z
" id="SimHei-49"/>
      </defs>
      <g transform="translate(157.892793 325.375)scale(0.18 -0.18)">
       <use xlink:href="#SimHei-49"/>
       <use x="50" xlink:href="#SimHei-48"/>
       <use x="100" xlink:href="#SimHei-48"/>
      </g>
     </g>
    </g>
    <g id="xtick_3">
     <g id="line2d_3">
      <g>
       <use style="stroke:#000000;stroke-width:0.8;" x="253.243768" xlink:href="#maef6507bb8" y="306"/>
      </g>
     </g>
     <g id="text_3">
      <!-- 200 -->
      <defs>
       <path d="M 4.6875 3.90625 
Q 5.078125 9.765625 10.15625 14.453125 
Q 15.234375 19.140625 23.046875 29.09375 
Q 30.859375 39.0625 33.203125 44.53125 
Q 35.546875 50 34.953125 53.90625 
Q 34.375 57.8125 31.25 60.34375 
Q 28.125 62.890625 24.015625 62.5 
Q 19.921875 62.109375 16.203125 59.375 
Q 12.5 56.640625 10.546875 51.171875 
L 3.125 52.34375 
Q 6.25 61.328125 11.125 65.421875 
Q 16.015625 69.53125 22.65625 69.921875 
Q 26.5625 70.3125 29.6875 69.71875 
Q 32.8125 69.140625 36.125 66.984375 
Q 39.453125 64.84375 41.59375 60.546875 
Q 43.75 56.25 43.15625 50.1875 
Q 42.578125 44.140625 37.109375 35.734375 
Q 31.640625 27.34375 16.015625 9.375 
L 44.140625 9.375 
L 44.140625 2.34375 
L 4.6875 2.34375 
z
" id="SimHei-50"/>
      </defs>
      <g transform="translate(239.743768 325.375)scale(0.18 -0.18)">
       <use xlink:href="#SimHei-50"/>
       <use x="50" xlink:href="#SimHei-48"/>
       <use x="100" xlink:href="#SimHei-48"/>
      </g>
     </g>
    </g>
    <g id="xtick_4">
     <g id="line2d_4">
      <g>
       <use style="stroke:#000000;stroke-width:0.8;" x="335.094742" xlink:href="#maef6507bb8" y="306"/>
      </g>
     </g>
     <g id="text_4">
      <!-- 300 -->
      <defs>
       <path d="M 3.90625 19.140625 
L 10.9375 20.3125 
Q 12.5 15.234375 16.015625 11.90625 
Q 19.53125 8.59375 24.796875 8.78125 
Q 30.078125 8.984375 33.203125 13.078125 
Q 36.328125 17.1875 35.9375 22.453125 
Q 35.546875 27.734375 31.828125 30.65625 
Q 28.125 33.59375 19.921875 34.765625 
L 19.921875 39.84375 
Q 28.125 40.625 31.828125 44.140625 
Q 35.546875 47.65625 35.15625 53.3125 
Q 34.765625 58.984375 30.078125 61.515625 
Q 25.390625 64.0625 20.109375 62.109375 
Q 14.84375 60.15625 11.71875 51.171875 
L 4.6875 52.34375 
Q 7.03125 59.375 11.125 64.0625 
Q 15.234375 68.75 22.265625 69.53125 
Q 29.296875 70.3125 34.5625 67.765625 
Q 39.84375 65.234375 41.984375 59.953125 
Q 44.140625 54.6875 42.578125 48.4375 
Q 41.015625 42.1875 33.59375 37.5 
Q 39.0625 35.15625 41.984375 30.46875 
Q 44.921875 25.78125 43.9375 18.15625 
Q 42.96875 10.546875 37.109375 5.859375 
Q 31.25 1.171875 23.828125 1.359375 
Q 16.40625 1.5625 10.9375 6.046875 
Q 5.46875 10.546875 3.90625 19.140625 
z
" id="SimHei-51"/>
      </defs>
      <g transform="translate(321.594742 325.375)scale(0.18 -0.18)">
       <use xlink:href="#SimHei-51"/>
       <use x="50" xlink:href="#SimHei-48"/>
       <use x="100" xlink:href="#SimHei-48"/>
      </g>
     </g>
    </g>
    <g id="xtick_5">
     <g id="line2d_5">
      <g>
       <use style="stroke:#000000;stroke-width:0.8;" x="416.945717" xlink:href="#maef6507bb8" y="306"/>
      </g>
     </g>
     <g id="text_5">
      <!-- 400 -->
      <defs>
       <path d="M 31.25 17.1875 
L 1.171875 17.1875 
L 1.171875 23.828125 
L 32.8125 69.53125 
L 38.671875 69.53125 
L 38.671875 23.828125 
L 48.046875 23.828125 
L 48.046875 17.1875 
L 38.671875 17.1875 
L 38.671875 2.34375 
L 31.25 2.34375 
z
M 31.25 23.828125 
L 31.25 54.6875 
L 9.375 23.828125 
z
" id="SimHei-52"/>
      </defs>
      <g transform="translate(403.445717 325.375)scale(0.18 -0.18)">
       <use xlink:href="#SimHei-52"/>
       <use x="50" xlink:href="#SimHei-48"/>
       <use x="100" xlink:href="#SimHei-48"/>
      </g>
     </g>
    </g>
    <g id="xtick_6">
     <g id="line2d_6">
      <g>
       <use style="stroke:#000000;stroke-width:0.8;" x="498.796692" xlink:href="#maef6507bb8" y="306"/>
      </g>
     </g>
     <g id="text_6">
      <!-- 500 -->
      <defs>
       <path d="M 8.59375 20.703125 
Q 11.328125 10.15625 17.96875 8.984375 
Q 24.609375 7.8125 28.703125 10.34375 
Q 32.8125 12.890625 34.5625 16.984375 
Q 36.328125 21.09375 36.125 26.171875 
Q 35.9375 31.25 33.390625 34.765625 
Q 30.859375 38.28125 26.953125 39.453125 
Q 23.046875 40.625 18.15625 39.453125 
Q 13.28125 38.28125 10.15625 33.984375 
L 3.515625 34.765625 
Q 4.296875 37.109375 10.9375 68.359375 
L 41.796875 68.359375 
L 41.796875 61.328125 
L 16.796875 61.328125 
Q 14.84375 50.78125 12.890625 44.53125 
Q 18.75 47.265625 23.828125 47.0625 
Q 28.90625 46.875 33.59375 44.71875 
Q 38.28125 42.578125 40.421875 38.859375 
Q 42.578125 35.15625 43.546875 31.4375 
Q 44.53125 27.734375 44.328125 23.4375 
Q 44.140625 19.140625 42.578125 14.640625 
Q 41.015625 10.15625 37.890625 7.21875 
Q 34.765625 4.296875 30.265625 2.53125 
Q 25.78125 0.78125 19.921875 1.171875 
Q 14.0625 1.5625 8.78125 5.46875 
Q 3.515625 9.375 1.5625 18.75 
z
" id="SimHei-53"/>
      </defs>
      <g transform="translate(485.296692 325.375)scale(0.18 -0.18)">
       <use xlink:href="#SimHei-53"/>
       <use x="50" xlink:href="#SimHei-48"/>
       <use x="100" xlink:href="#SimHei-48"/>
      </g>
     </g>
    </g>
    <g id="text_7">
     <!-- 时间（天） -->
     <defs>
      <path d="M 39.453125 71.484375 
Q 39.0625 57.421875 39.0625 37.5 
Q 39.0625 17.578125 39.453125 6.25 
L 31.25 6.25 
L 31.25 13.671875 
L 15.625 13.671875 
L 15.625 0.78125 
L 7.421875 0.78125 
Q 7.8125 18.75 7.8125 36.71875 
Q 7.8125 55.078125 7.421875 71.484375 
L 39.453125 71.484375 
z
M 76.171875 59.765625 
Q 76.171875 71.484375 75.78125 81.640625 
L 84.375 81.640625 
Q 83.984375 71.484375 83.984375 59.765625 
Q 89.84375 59.765625 96.484375 60.15625 
L 96.484375 52.734375 
Q 89.84375 53.125 83.984375 53.125 
L 83.984375 0.78125 
Q 83.984375 -5.078125 79.296875 -6.640625 
Q 74.609375 -8.203125 67.1875 -8.984375 
Q 67.1875 -4.296875 62.890625 0 
Q 70.3125 -0.78125 73.234375 -0.390625 
Q 76.171875 0 76.171875 4.6875 
L 76.171875 53.125 
Q 56.640625 53.125 43.359375 52.734375 
L 43.359375 60.15625 
Q 55.859375 59.765625 76.171875 59.765625 
z
M 31.25 20.3125 
L 31.25 39.84375 
L 15.625 39.84375 
L 15.625 20.3125 
z
M 31.25 46.484375 
L 31.25 64.84375 
L 15.625 64.84375 
L 15.625 46.484375 
z
M 55.46875 42.578125 
Q 60.546875 34.375 65.234375 25 
Q 61.328125 23.828125 57.03125 21.484375 
Q 53.90625 30.859375 48.046875 39.0625 
Q 51.5625 40.625 55.46875 42.578125 
z
" id="SimHei-26102"/>
      <path d="M 69.53125 55.46875 
Q 69.140625 48.046875 69.140625 42.578125 
L 69.140625 21.875 
Q 69.140625 16.796875 69.53125 9.765625 
L 30.078125 9.765625 
Q 30.46875 16.796875 30.46875 22.265625 
L 30.46875 42.578125 
Q 30.46875 48.046875 30.078125 55.46875 
L 69.53125 55.46875 
z
M 90.625 76.171875 
Q 90.234375 68.75 90.234375 61.328125 
L 90.234375 3.90625 
Q 90.625 -5.078125 85.34375 -7.03125 
Q 80.078125 -8.984375 73.828125 -9.765625 
Q 73.4375 -5.078125 70.703125 -0.390625 
Q 78.125 -0.78125 80.265625 0.390625 
Q 82.421875 1.5625 82.421875 5.46875 
L 82.421875 69.53125 
L 58.984375 69.53125 
Q 49.609375 69.53125 41.40625 69.140625 
L 41.40625 76.5625 
Q 49.609375 76.171875 58.984375 76.171875 
z
M 8.59375 -8.203125 
Q 9.375 -0.390625 9.375 8.203125 
L 9.375 49.21875 
Q 9.375 57.421875 8.59375 62.890625 
L 17.578125 62.890625 
Q 17.1875 57.03125 17.1875 51.5625 
L 17.1875 7.8125 
Q 17.1875 0 17.578125 -8.203125 
z
M 61.71875 16.015625 
L 61.71875 30.46875 
L 37.890625 30.46875 
L 37.890625 16.015625 
z
M 61.71875 36.71875 
L 61.71875 49.21875 
L 37.890625 49.21875 
L 37.890625 36.71875 
z
M 23.828125 82.8125 
Q 27.34375 78.125 34.765625 67.96875 
Q 30.46875 66.015625 26.5625 63.671875 
Q 22.65625 71.484375 16.796875 78.515625 
Q 21.09375 81.640625 23.828125 82.8125 
z
" id="SimHei-38388"/>
      <path d="M 84.765625 79.6875 
L 89.0625 74.609375 
Q 66.796875 58.203125 67.578125 36.71875 
Q 67.96875 16.015625 88.671875 0.78125 
L 84.375 -4.296875 
Q 60.546875 12.890625 61.328125 39.0625 
Q 61.328125 60.546875 84.765625 79.6875 
z
" id="SimHei-65288"/>
      <path d="M 69.921875 76.5625 
Q 76.953125 76.5625 83.984375 76.953125 
L 83.984375 68.75 
Q 76.953125 69.140625 69.921875 69.140625 
L 53.90625 69.140625 
L 53.90625 48.046875 
L 78.90625 48.046875 
Q 86.328125 48.046875 92.1875 48.4375 
L 92.1875 40.234375 
Q 86.71875 40.625 79.296875 40.625 
L 55.078125 40.625 
Q 60.546875 25.78125 70.703125 15.234375 
Q 80.859375 4.6875 96.875 0.78125 
Q 91.40625 -3.515625 90.234375 -7.03125 
Q 78.125 -2.734375 67.96875 6.4375 
Q 57.8125 15.625 50.390625 32.8125 
Q 45.703125 16.796875 35.546875 7.21875 
Q 25.390625 -2.34375 10.15625 -8.984375 
Q 8.59375 -5.078125 3.515625 -1.5625 
Q 14.84375 1.5625 27.34375 11.515625 
Q 39.84375 21.484375 44.921875 40.625 
L 23.4375 40.625 
Q 14.84375 40.625 8.984375 40.234375 
L 8.984375 48.4375 
Q 15.234375 48.046875 23.4375 48.046875 
L 46.09375 48.046875 
L 46.09375 69.140625 
L 29.6875 69.140625 
Q 21.484375 69.140625 15.625 68.75 
L 15.625 76.953125 
Q 21.875 76.5625 29.6875 76.5625 
z
" id="SimHei-22825"/>
      <path d="M 15.625 79.6875 
Q 39.0625 60.546875 39.0625 39.0625 
Q 39.84375 12.890625 16.015625 -4.296875 
L 11.71875 0.78125 
Q 32.421875 16.015625 32.8125 36.71875 
Q 33.59375 58.203125 11.328125 74.609375 
L 15.625 79.6875 
z
" id="SimHei-65289"/>
     </defs>
     <g transform="translate(243.76 353.640625)scale(0.2 -0.2)">
      <use xlink:href="#SimHei-26102"/>
      <use x="100" xlink:href="#SimHei-38388"/>
      <use x="200" xlink:href="#SimHei-65288"/>
      <use x="300" xlink:href="#SimHei-22825"/>
      <use x="400" xlink:href="#SimHei-65289"/>
     </g>
    </g>
   </g>
   <g id="matplotlib.axis_2">
    <g id="ytick_1">
     <g id="line2d_7">
      <defs>
       <path d="M 0 0 
L -3.5 0 
" id="m5da89fd465" style="stroke:#000000;stroke-width:0.8;"/>
      </defs>
      <g>
       <use style="stroke:#000000;stroke-width:0.8;" x="69.12" xlink:href="#m5da89fd465" y="293.727273"/>
      </g>
     </g>
     <g id="text_8">
      <!-- 0 -->
      <g transform="translate(53.12 299.914773)scale(0.18 -0.18)">
       <use xlink:href="#SimHei-48"/>
      </g>
     </g>
    </g>
    <g id="ytick_2">
     <g id="line2d_8">
      <g>
       <use style="stroke:#000000;stroke-width:0.8;" x="69.12" xlink:href="#m5da89fd465" y="247.76272"/>
      </g>
     </g>
     <g id="text_9">
      <!-- 1 -->
      <g transform="translate(53.12 253.95022)scale(0.18 -0.18)">
       <use xlink:href="#SimHei-49"/>
      </g>
     </g>
    </g>
    <g id="ytick_3">
     <g id="line2d_9">
      <g>
       <use style="stroke:#000000;stroke-width:0.8;" x="69.12" xlink:href="#m5da89fd465" y="201.798166"/>
      </g>
     </g>
     <g id="text_10">
      <!-- 2 -->
      <g transform="translate(53.12 207.985666)scale(0.18 -0.18)">
       <use xlink:href="#SimHei-50"/>
      </g>
     </g>
    </g>
    <g id="ytick_4">
     <g id="line2d_10">
      <g>
       <use style="stroke:#000000;stroke-width:0.8;" x="69.12" xlink:href="#m5da89fd465" y="155.833613"/>
      </g>
     </g>
     <g id="text_11">
      <!-- 3 -->
      <g transform="translate(53.12 162.021113)scale(0.18 -0.18)">
       <use xlink:href="#SimHei-51"/>
      </g>
     </g>
    </g>
    <g id="ytick_5">
     <g id="line2d_11">
      <g>
       <use style="stroke:#000000;stroke-width:0.8;" x="69.12" xlink:href="#m5da89fd465" y="109.86906"/>
      </g>
     </g>
     <g id="text_12">
      <!-- 4 -->
      <g transform="translate(53.12 116.05656)scale(0.18 -0.18)">
       <use xlink:href="#SimHei-52"/>
      </g>
     </g>
    </g>
    <g id="ytick_6">
     <g id="line2d_12">
      <g>
       <use style="stroke:#000000;stroke-width:0.8;" x="69.12" xlink:href="#m5da89fd465" y="63.904507"/>
      </g>
     </g>
     <g id="text_13">
      <!-- 5 -->
      <g transform="translate(53.12 70.092007)scale(0.18 -0.18)">
       <use xlink:href="#SimHei-53"/>
      </g>
     </g>
    </g>
    <g id="text_14">
     <!-- 无症状感染者数量（%） -->
     <defs>
      <path d="M 67.96875 73.828125 
Q 76.171875 73.828125 82.8125 74.21875 
L 82.8125 66.796875 
Q 76.953125 67.1875 67.96875 67.1875 
L 49.609375 67.1875 
Q 49.609375 54.296875 48.828125 43.75 
L 78.90625 43.75 
Q 85.9375 43.75 91.796875 44.140625 
L 91.796875 36.71875 
Q 85.9375 37.109375 79.296875 37.109375 
L 61.71875 37.109375 
L 61.71875 6.640625 
Q 61.71875 1.5625 67.578125 1.5625 
L 80.859375 1.5625 
Q 85.15625 1.5625 85.546875 13.28125 
Q 89.453125 10.9375 94.140625 9.765625 
Q 92.1875 -5.46875 85.15625 -5.46875 
L 63.671875 -5.46875 
Q 54.6875 -5.078125 54.6875 4.6875 
L 54.6875 37.109375 
L 48.046875 37.109375 
Q 44.921875 22.265625 40.421875 14.640625 
Q 35.9375 7.03125 30.078125 1.75 
Q 24.21875 -3.515625 12.5 -10.15625 
Q 10.546875 -5.859375 5.859375 -3.515625 
Q 15.234375 0.78125 21.09375 5.265625 
Q 26.953125 9.765625 32.21875 16.40625 
Q 37.5 23.046875 40.625 37.109375 
L 23.4375 37.109375 
Q 13.671875 37.109375 9.375 36.71875 
L 9.375 44.140625 
Q 13.671875 43.75 23.4375 43.75 
L 41.40625 43.75 
Q 41.796875 55.46875 41.796875 67.1875 
L 31.25 67.1875 
Q 23.4375 67.1875 16.796875 66.796875 
L 16.796875 74.21875 
Q 23.4375 73.828125 31.25 73.828125 
z
" id="SimHei-26080"/>
      <path d="M 77.734375 52.734375 
Q 85.15625 52.734375 93.359375 53.125 
L 93.359375 46.09375 
Q 85.546875 46.484375 77.734375 46.484375 
L 68.359375 46.484375 
L 68.359375 30.078125 
L 77.734375 30.078125 
Q 82.8125 30.078125 91.015625 30.46875 
L 91.015625 23.046875 
Q 83.203125 23.4375 77.734375 23.4375 
L 68.359375 23.4375 
L 68.359375 1.5625 
L 79.6875 1.5625 
Q 86.71875 1.5625 95.703125 1.953125 
L 95.703125 -5.078125 
Q 86.328125 -4.6875 80.078125 -4.6875 
L 44.53125 -4.6875 
Q 37.109375 -4.6875 28.125 -5.078125 
L 28.125 1.953125 
Q 33.59375 1.5625 40.234375 1.5625 
L 40.234375 22.65625 
Q 40.234375 26.953125 39.84375 34.375 
L 48.046875 34.375 
Q 47.65625 28.125 47.65625 22.65625 
L 47.65625 1.5625 
L 60.15625 1.5625 
L 60.15625 46.484375 
L 49.21875 46.484375 
Q 42.578125 46.484375 35.15625 46.09375 
L 35.15625 53.125 
Q 42.578125 52.734375 49.21875 52.734375 
z
M 60.9375 82.421875 
Q 62.5 76.171875 64.453125 69.921875 
L 79.296875 69.921875 
Q 85.546875 69.921875 95.3125 70.3125 
L 95.3125 62.890625 
Q 85.546875 63.28125 79.296875 63.28125 
L 28.90625 63.28125 
L 28.90625 46.09375 
Q 28.90625 36.328125 28.515625 25.96875 
Q 28.125 15.625 25.78125 7.609375 
Q 23.4375 -0.390625 16.796875 -10.9375 
Q 13.671875 -8.59375 8.59375 -6.25 
Q 13.28125 -1.953125 16.40625 4.09375 
Q 19.53125 10.15625 20.5 16.59375 
Q 21.484375 23.046875 21.484375 27.734375 
Q 15.625 23.828125 8.203125 18.75 
Q 6.25 22.65625 3.90625 26.953125 
Q 7.421875 28.125 21.484375 34.375 
L 21.484375 53.90625 
Q 21.484375 62.5 21.09375 69.921875 
L 54.6875 69.921875 
Q 53.515625 75.78125 51.953125 80.46875 
Q 56.25 81.25 60.9375 82.421875 
z
M 8.59375 61.328125 
Q 14.453125 55.078125 20.3125 48.046875 
Q 17.96875 46.484375 14.453125 42.96875 
Q 9.375 50 3.515625 56.25 
Q 6.640625 58.984375 8.59375 61.328125 
z
" id="SimHei-30151"/>
      <path d="M 34.765625 -4.296875 
Q 41.796875 0.390625 46.484375 7.421875 
Q 51.171875 14.453125 53.90625 21.09375 
Q 56.640625 27.734375 57.8125 33.984375 
Q 58.984375 40.234375 59.375 44.921875 
L 50.390625 44.921875 
Q 44.53125 44.921875 39.0625 44.53125 
L 39.0625 51.953125 
Q 44.53125 51.5625 50 51.5625 
L 59.765625 51.5625 
Q 59.765625 62.109375 59.5625 68.359375 
Q 59.375 74.609375 58.984375 79.296875 
L 69.140625 79.296875 
Q 67.96875 74.21875 67.765625 68.9375 
Q 67.578125 63.671875 67.578125 51.5625 
L 83.59375 51.5625 
Q 87.890625 51.5625 93.359375 51.953125 
L 93.359375 44.53125 
Q 87.890625 44.921875 83.59375 44.921875 
L 68.359375 44.921875 
Q 73.046875 22.65625 78.3125 15.03125 
Q 83.59375 7.421875 87.890625 4.09375 
Q 92.1875 0.78125 95.703125 -1.171875 
Q 90.234375 -3.515625 87.890625 -8.203125 
Q 81.640625 -3.125 77.921875 1.75 
Q 74.21875 6.640625 71.671875 11.328125 
Q 69.140625 16.015625 67.375 20.890625 
Q 65.625 25.78125 64.453125 31.25 
Q 62.5 21.875 59.5625 15.234375 
Q 56.640625 8.59375 53.515625 3.703125 
Q 50.390625 -1.171875 42.96875 -9.765625 
Q 39.453125 -6.25 34.765625 -4.296875 
z
M 34.765625 81.25 
Q 34.375 75.390625 34.375 66.40625 
L 34.375 12.109375 
Q 34.375 0.78125 34.765625 -9.765625 
L 26.171875 -9.765625 
Q 26.5625 1.171875 26.5625 12.109375 
L 26.5625 30.46875 
Q 23.828125 27.34375 18.75 21.09375 
Q 13.671875 14.84375 10.9375 11.71875 
Q 7.8125 15.625 4.296875 17.96875 
Q 8.984375 21.484375 14.25 26.75 
Q 19.53125 32.03125 26.5625 40.625 
L 26.5625 66.40625 
Q 26.5625 75.390625 26.171875 81.25 
L 34.765625 81.25 
z
M 9.765625 67.578125 
Q 12.5 64.453125 15.625 60.546875 
Q 18.75 56.640625 21.484375 52.734375 
Q 18.359375 50.390625 16.40625 48.046875 
Q 13.28125 52.34375 3.90625 63.28125 
Q 6.25 65.234375 9.765625 67.578125 
z
M 85.546875 57.03125 
Q 82.03125 62.109375 73.4375 69.921875 
Q 76.5625 72.265625 78.515625 74.21875 
Q 82.03125 71.484375 84.765625 68.546875 
Q 87.5 65.625 91.015625 62.109375 
Q 87.890625 59.375 85.546875 57.03125 
z
" id="SimHei-29366"/>
      <path d="M 95.703125 29.6875 
Q 92.1875 18.75 89.453125 17.375 
Q 86.71875 16.015625 81.828125 17.765625 
Q 76.953125 19.53125 69.140625 26.5625 
Q 64.453125 21.484375 58.203125 17.1875 
Q 55.46875 20.3125 52.34375 21.875 
Q 60.546875 26.5625 65.234375 32.03125 
Q 60.9375 39.0625 58.78125 47.453125 
Q 56.640625 55.859375 55.859375 63.28125 
L 20.703125 63.28125 
Q 20.703125 45.703125 20.109375 39.453125 
Q 19.53125 33.203125 17.578125 27.734375 
Q 15.625 22.265625 11.71875 16.015625 
Q 7.03125 19.140625 4.296875 19.921875 
Q 8.984375 25.78125 11.125 31.4375 
Q 13.28125 37.109375 13.671875 44.53125 
Q 14.0625 51.953125 13.671875 69.53125 
L 55.078125 69.53125 
Q 55.078125 72.65625 54.6875 80.859375 
Q 58.203125 80.078125 62.890625 79.6875 
Q 62.109375 75 62.5 69.53125 
L 79.6875 69.53125 
Q 85.15625 69.53125 92.578125 69.921875 
L 92.578125 62.890625 
Q 85.15625 63.28125 80.078125 63.28125 
L 62.890625 63.28125 
Q 64.453125 46.875 69.53125 38.671875 
Q 71.875 42.578125 73.828125 48.234375 
Q 75.78125 53.90625 76.953125 58.984375 
Q 80.859375 57.421875 85.15625 56.25 
Q 83.59375 54.6875 81.046875 47.65625 
Q 78.515625 40.625 73.828125 32.03125 
Q 78.125 28.125 81.4375 26.171875 
Q 84.765625 24.21875 85.734375 25.390625 
Q 86.71875 26.5625 88.28125 33.59375 
Q 91.40625 30.859375 95.703125 29.6875 
z
M 51.953125 25 
L 24.609375 25 
L 24.609375 44.921875 
L 51.953125 44.921875 
z
M 76.171875 2.734375 
Q 73.4375 -5.078125 71.484375 -6.4375 
Q 69.53125 -7.8125 66.40625 -7.8125 
L 36.71875 -7.8125 
Q 31.640625 -7.421875 30.65625 -3.125 
Q 29.6875 1.171875 29.6875 5.078125 
Q 29.6875 8.984375 29.296875 14.453125 
L 37.5 14.453125 
Q 37.109375 7.8125 37.109375 5.078125 
Q 37.109375 2.734375 37.5 0.390625 
Q 37.890625 -1.953125 42.578125 -1.5625 
L 60.546875 -1.5625 
Q 64.453125 -1.5625 65.8125 -0.1875 
Q 67.1875 1.171875 67.96875 7.03125 
Q 71.09375 4.6875 76.171875 2.734375 
z
M 51.5625 51.171875 
L 25 51.171875 
L 25 57.03125 
L 51.5625 57.03125 
z
M 83.59375 14.0625 
Q 92.1875 3.515625 94.921875 -0.78125 
Q 91.015625 -3.125 87.890625 -5.46875 
Q 83.984375 1.953125 77.34375 9.375 
Q 80.078125 11.328125 83.59375 14.0625 
z
M 7.421875 -2.734375 
Q 10.9375 1.5625 15.234375 14.453125 
Q 18.359375 12.890625 22.65625 11.328125 
Q 17.578125 -0.390625 14.84375 -5.859375 
Q 11.71875 -4.296875 7.421875 -2.734375 
z
M 45.703125 30.46875 
L 45.703125 39.453125 
L 30.859375 39.453125 
L 30.859375 30.46875 
z
M 42.578125 16.40625 
Q 44.921875 18.359375 48.4375 20.703125 
Q 55.078125 12.109375 57.03125 8.59375 
Q 53.90625 6.640625 51.171875 3.90625 
Q 48.828125 8.203125 42.578125 16.40625 
z
M 76.5625 70.3125 
Q 74.21875 72.265625 67.96875 76.5625 
Q 70.3125 79.296875 71.875 81.640625 
Q 74.609375 80.078125 81.25 75 
Q 78.90625 73.046875 76.5625 70.3125 
z
" id="SimHei-24863"/>
      <path d="M 91.015625 -7.03125 
Q 74.21875 -2.34375 66.40625 3.90625 
Q 58.59375 10.15625 53.90625 17.96875 
Q 53.90625 -4.6875 54.296875 -9.375 
L 46.09375 -9.375 
Q 46.484375 -4.296875 46.484375 16.796875 
Q 40.625 8.59375 31.4375 2.34375 
Q 22.265625 -3.90625 9.765625 -8.984375 
Q 8.59375 -5.078125 3.125 -1.5625 
Q 16.796875 1.5625 25.96875 7.609375 
Q 35.15625 13.671875 38.671875 19.140625 
L 19.140625 19.140625 
Q 13.671875 19.140625 6.25 18.75 
L 6.25 25.78125 
Q 13.671875 25.390625 19.140625 25.390625 
L 46.484375 25.390625 
Q 46.484375 28.515625 46.09375 33.59375 
L 54.296875 33.59375 
Q 53.90625 28.90625 53.90625 25.390625 
L 82.8125 25.390625 
Q 87.890625 25.390625 93.75 25.78125 
L 93.75 18.75 
Q 87.890625 19.140625 82.8125 19.140625 
L 61.71875 19.140625 
Q 67.96875 10.546875 78.125 6.25 
Q 88.28125 1.953125 96.484375 1.171875 
Q 91.40625 -3.90625 91.015625 -7.03125 
z
M 28.515625 35.9375 
Q 39.84375 40.234375 45.703125 47.0625 
Q 51.5625 53.90625 53.125 62.5 
Q 47.265625 62.5 40.234375 62.109375 
L 40.234375 69.140625 
Q 47.65625 68.75 53.515625 68.75 
Q 53.90625 76.953125 53.515625 82.03125 
Q 58.203125 80.859375 62.5 80.859375 
Q 61.328125 78.515625 60.9375 68.75 
L 80.078125 68.75 
Q 79.6875 64.84375 79.296875 60.15625 
L 78.125 44.53125 
Q 78.515625 40.625 80.859375 40.625 
L 85.15625 40.625 
Q 87.109375 40.625 87.6875 42.1875 
Q 88.28125 43.75 88.671875 50 
Q 91.796875 47.265625 96.875 46.875 
Q 95.3125 36.328125 92.375 35.34375 
Q 89.453125 34.375 84.171875 34.171875 
Q 78.90625 33.984375 74.796875 34.953125 
Q 70.703125 35.9375 71.09375 42.1875 
L 72.265625 62.5 
L 60.546875 62.5 
Q 59.375 53.515625 54.296875 45.890625 
Q 49.21875 38.28125 35.546875 30.078125 
Q 33.984375 32.8125 28.515625 35.9375 
z
M 33.984375 45.703125 
Q 19.140625 33.984375 13.28125 29.296875 
Q 10.9375 33.203125 7.8125 35.9375 
Q 17.1875 40.625 31.25 52.734375 
Q 32.03125 49.609375 33.984375 45.703125 
z
M 10.546875 64.84375 
Q 21.484375 59.765625 27.34375 56.25 
Q 24.609375 52.734375 23.046875 49.609375 
Q 19.140625 53.125 7.03125 58.59375 
Q 9.375 61.328125 10.546875 64.84375 
z
M 28.90625 64.84375 
Q 23.046875 69.921875 14.0625 74.609375 
Q 16.015625 76.953125 18.359375 80.078125 
Q 27.34375 75 33.984375 71.09375 
Q 30.46875 67.578125 28.90625 64.84375 
z
" id="SimHei-26579"/>
      <path d="M 88.28125 67.578125 
Q 85.15625 64.84375 81.046875 60.546875 
Q 76.953125 56.25 69.53125 48.828125 
L 80.46875 48.828125 
Q 87.109375 48.828125 94.140625 49.21875 
L 94.140625 42.1875 
Q 87.109375 42.578125 80.078125 42.578125 
L 61.71875 42.578125 
Q 55.46875 37.890625 47.65625 32.421875 
L 80.859375 32.421875 
Q 80.46875 25.390625 80.46875 19.53125 
L 80.46875 5.859375 
Q 80.46875 -1.171875 80.859375 -9.375 
L 73.046875 -9.375 
L 73.046875 -3.515625 
L 35.546875 -3.515625 
L 35.546875 -9.375 
L 27.34375 -9.375 
Q 27.734375 -3.125 27.734375 2.34375 
L 27.734375 20.3125 
Q 19.921875 16.015625 10.15625 11.71875 
Q 6.25 17.1875 4.6875 18.359375 
Q 7.421875 19.140625 15.03125 22.0625 
Q 22.65625 25 27.734375 28.515625 
L 27.734375 32.421875 
L 35.15625 32.421875 
Q 43.75 37.109375 50.390625 42.578125 
L 22.65625 42.578125 
Q 14.453125 42.578125 7.421875 42.1875 
L 7.421875 49.21875 
Q 15.234375 48.828125 22.65625 48.828125 
L 43.359375 48.828125 
L 43.359375 60.9375 
L 31.640625 60.9375 
Q 25 60.9375 19.53125 60.546875 
L 19.53125 67.578125 
Q 25 67.1875 31.640625 67.1875 
L 43.359375 67.1875 
Q 43.359375 73.046875 42.96875 80.46875 
L 51.5625 80.46875 
Q 51.171875 75 51.171875 67.1875 
L 57.03125 67.1875 
Q 62.109375 67.1875 68.75 67.578125 
L 68.75 60.546875 
Q 62.109375 60.9375 57.03125 60.9375 
L 51.171875 60.9375 
L 51.171875 48.828125 
L 58.984375 48.828125 
Q 64.453125 53.125 69.921875 58.984375 
Q 75.390625 64.84375 81.25 73.828125 
Q 85.546875 69.53125 88.28125 67.578125 
z
M 73.046875 2.734375 
L 73.046875 11.71875 
L 35.546875 11.71875 
L 35.546875 2.734375 
z
M 73.046875 17.96875 
L 73.046875 26.171875 
L 35.546875 26.171875 
L 35.546875 17.96875 
z
" id="SimHei-32773"/>
      <path d="M 70.703125 76.953125 
Q 69.921875 75 68.75 71.671875 
Q 67.578125 68.359375 65.234375 59.765625 
L 83.203125 59.765625 
Q 87.109375 59.765625 92.578125 60.15625 
L 92.578125 53.125 
Q 88.28125 53.515625 85.9375 53.515625 
Q 85.9375 47.265625 83.78125 33.78125 
Q 81.640625 20.3125 76.171875 10.546875 
Q 80.078125 5.859375 84.953125 2.140625 
Q 89.84375 -1.5625 94.140625 -3.125 
Q 89.453125 -6.640625 87.890625 -9.765625 
Q 83.203125 -7.03125 79.296875 -3.515625 
Q 75.390625 0 71.484375 5.078125 
Q 67.1875 0.390625 62.296875 -2.921875 
Q 57.421875 -6.25 50 -10.15625 
Q 48.046875 -6.640625 44.53125 -4.6875 
Q 50.390625 -2.34375 57.03125 1.953125 
Q 63.671875 6.25 67.1875 10.546875 
Q 64.453125 16.015625 61.90625 22.265625 
Q 59.375 28.515625 57.421875 38.671875 
Q 56.25 35.546875 53.515625 30.46875 
Q 50.78125 32.03125 46.875 33.59375 
Q 53.125 44.53125 57.03125 57.421875 
Q 60.9375 70.3125 62.109375 79.6875 
Q 66.796875 77.734375 70.703125 76.953125 
z
M 32.8125 35.15625 
Q 31.25 33.59375 29.296875 30.078125 
L 50.78125 30.078125 
Q 48.4375 20.3125 42.578125 10.546875 
Q 48.828125 8.203125 52.34375 6.25 
Q 50.390625 3.515625 48.828125 0.390625 
Q 45.3125 2.734375 38.28125 5.078125 
Q 30.46875 -3.515625 11.328125 -10.15625 
Q 9.375 -5.859375 6.25 -4.296875 
Q 24.609375 0 31.25 7.421875 
Q 20.3125 10.15625 13.28125 12.109375 
Q 15.625 15.625 19.53125 23.828125 
Q 15.625 23.828125 6.640625 23.4375 
L 6.640625 30.46875 
Q 14.0625 30.078125 21.875 30.078125 
Q 23.4375 33.59375 24.21875 37.890625 
Q 28.515625 36.328125 32.8125 35.15625 
z
M 27.734375 61.71875 
Q 27.734375 71.09375 27.34375 79.6875 
L 35.15625 79.6875 
Q 34.765625 71.484375 34.765625 61.71875 
Q 48.046875 61.71875 53.515625 62.109375 
L 53.515625 55.078125 
Q 48.046875 55.46875 34.765625 55.46875 
Q 34.765625 44.140625 35.15625 37.890625 
L 27.34375 37.890625 
Q 27.734375 43.359375 27.734375 51.5625 
Q 25.78125 48.4375 20.3125 43.546875 
Q 14.84375 38.671875 10.15625 35.9375 
Q 8.203125 39.453125 4.296875 41.015625 
Q 7.8125 42.1875 13.671875 46.484375 
Q 19.53125 50.78125 22.65625 55.46875 
Q 14.84375 55.46875 7.8125 55.078125 
L 7.8125 62.109375 
Q 14.453125 61.71875 27.734375 61.71875 
z
M 62.109375 49.609375 
Q 65.625 26.5625 71.875 17.578125 
Q 75.78125 26.5625 77.140625 35.734375 
Q 78.515625 44.921875 78.90625 53.515625 
L 63.671875 53.515625 
L 62.109375 49.609375 
z
M 22.65625 15.625 
Q 27.34375 14.453125 35.546875 12.5 
Q 38.671875 16.40625 41.40625 23.828125 
L 26.953125 23.828125 
Q 25 19.921875 22.65625 15.625 
z
M 51.953125 75.390625 
Q 50 72.265625 48.828125 69.53125 
Q 47.65625 66.796875 45.703125 62.890625 
Q 42.578125 64.453125 39.453125 65.234375 
Q 42.578125 70.3125 45.3125 78.125 
Q 49.21875 76.171875 51.953125 75.390625 
z
M 40.234375 52.734375 
Q 45.3125 47.65625 50 42.578125 
Q 47.65625 40.625 44.921875 37.890625 
Q 39.453125 44.53125 35.9375 48.4375 
Q 38.28125 50.390625 40.234375 52.734375 
z
M 14.453125 78.125 
Q 19.921875 72.65625 23.4375 67.1875 
L 17.578125 63.671875 
Q 14.84375 69.140625 9.375 73.828125 
Q 12.890625 76.171875 14.453125 78.125 
z
" id="SimHei-25968"/>
      <path d="M 82.03125 39.0625 
Q 81.640625 34.375 81.640625 26.5625 
Q 81.640625 19.140625 82.03125 14.84375 
L 53.515625 14.84375 
L 53.515625 9.765625 
L 71.484375 9.765625 
Q 78.125 9.765625 83.984375 10.15625 
L 83.984375 4.296875 
Q 78.515625 4.6875 71.484375 4.6875 
L 53.515625 4.6875 
L 53.515625 -1.171875 
L 80.078125 -1.171875 
Q 86.328125 -1.171875 92.578125 -0.78125 
L 92.578125 -6.640625 
Q 86.328125 -6.25 80.078125 -6.25 
L 19.921875 -6.25 
Q 14.0625 -6.25 7.421875 -6.640625 
L 7.421875 -0.78125 
Q 14.453125 -0.78125 19.921875 -1.171875 
L 46.484375 -1.171875 
L 46.484375 4.6875 
L 26.953125 4.6875 
Q 21.09375 4.6875 15.234375 3.90625 
L 15.234375 10.15625 
Q 21.484375 9.765625 26.953125 9.765625 
L 46.484375 9.765625 
L 46.484375 14.84375 
L 17.96875 14.84375 
Q 18.359375 21.484375 18.359375 27.734375 
Q 18.359375 33.984375 17.96875 39.0625 
L 82.03125 39.0625 
z
M 81.25 77.34375 
Q 80.859375 71.484375 80.859375 66.40625 
Q 80.859375 61.328125 81.25 53.125 
L 18.75 53.125 
Q 19.140625 61.328125 19.140625 66.40625 
Q 19.140625 71.484375 18.75 77.34375 
L 81.25 77.34375 
z
M 76.5625 48.4375 
Q 85.9375 48.828125 93.75 49.21875 
L 93.75 42.96875 
Q 85.9375 43.359375 76.953125 43.359375 
L 25.78125 43.359375 
Q 15.234375 43.359375 5.078125 42.96875 
L 5.078125 49.21875 
Q 15.234375 48.828125 25.78125 48.4375 
z
M 73.828125 57.8125 
L 73.828125 62.890625 
L 26.171875 62.890625 
L 26.171875 57.8125 
z
M 73.828125 67.96875 
L 73.828125 72.65625 
L 26.171875 72.65625 
L 26.171875 67.96875 
z
M 74.21875 29.296875 
L 74.21875 33.984375 
L 53.515625 33.984375 
L 53.515625 29.296875 
z
M 46.484375 29.296875 
L 46.484375 33.984375 
L 25.78125 33.984375 
L 25.78125 29.296875 
z
M 46.484375 19.921875 
L 46.484375 24.21875 
L 25.78125 24.21875 
L 25.78125 19.921875 
z
M 74.21875 19.921875 
L 74.21875 24.21875 
L 53.515625 24.21875 
L 53.515625 19.921875 
z
" id="SimHei-37327"/>
      <path d="M 21.875 51.953125 
Q 21.875 40.625 18.546875 37.5 
Q 15.234375 34.375 12.109375 34.375 
Q 8.984375 34.375 5.65625 37.5 
Q 2.34375 40.625 2.34375 51.953125 
Q 2.34375 63.28125 5.65625 66.40625 
Q 8.984375 69.53125 12.109375 69.53125 
Q 15.234375 69.53125 18.546875 66.40625 
Q 21.875 63.28125 21.875 51.953125 
z
M 41.015625 68.359375 
L 10.9375 1.171875 
L 7.8125 2.34375 
L 37.890625 69.53125 
z
M 46.484375 18.75 
Q 46.484375 7.421875 43.15625 4.296875 
Q 39.84375 1.171875 36.71875 1.171875 
Q 33.59375 1.171875 30.265625 4.296875 
Q 26.953125 7.421875 26.953125 18.75 
Q 26.953125 30.078125 30.265625 33.203125 
Q 33.59375 36.328125 36.71875 36.328125 
Q 39.84375 36.328125 43.15625 33.203125 
Q 46.484375 30.078125 46.484375 18.75 
z
M 15.625 51.953125 
Q 15.625 58.984375 14.84375 61.328125 
Q 14.0625 63.671875 12.109375 63.671875 
Q 10.15625 63.671875 9.375 61.328125 
Q 8.59375 58.984375 8.59375 51.953125 
Q 8.59375 44.921875 9.375 42.578125 
Q 10.15625 40.234375 12.109375 40.234375 
Q 14.0625 40.234375 14.84375 42.578125 
Q 15.625 44.921875 15.625 51.953125 
z
M 40.234375 18.75 
Q 40.234375 25.78125 39.453125 28.125 
Q 38.671875 30.46875 36.71875 30.46875 
Q 34.765625 30.46875 33.984375 28.125 
Q 33.203125 25.78125 33.203125 18.75 
Q 33.203125 11.71875 33.984375 9.375 
Q 34.765625 7.03125 36.71875 7.03125 
Q 38.671875 7.03125 39.453125 9.375 
Q 40.234375 11.71875 40.234375 18.75 
z
" id="SimHei-37"/>
     </defs>
     <g transform="translate(35.62 276)rotate(-90)scale(0.2 -0.2)">
      <use xlink:href="#SimHei-26080"/>
      <use x="100" xlink:href="#SimHei-30151"/>
      <use x="200" xlink:href="#SimHei-29366"/>
      <use x="300" xlink:href="#SimHei-24863"/>
      <use x="400" xlink:href="#SimHei-26579"/>
      <use x="500" xlink:href="#SimHei-32773"/>
      <use x="600" xlink:href="#SimHei-25968"/>
      <use x="700" xlink:href="#SimHei-37327"/>
      <use x="800" xlink:href="#SimHei-65288"/>
      <use x="900" xlink:href="#SimHei-37"/>
      <use x="950" xlink:href="#SimHei-65289"/>
     </g>
    </g>
   </g>
   <g id="line2d_13">
    <path clip-path="url(#p3316369184)" d="M 89.541818 293.727273 
L 149.29303 293.61648 
L 177.122361 293.381092 
L 194.311066 293.029022 
L 206.588712 292.577018 
L 216.410829 292.015693 
L 224.595926 291.348086 
L 231.962514 290.534073 
L 238.510592 289.588656 
L 244.24016 288.545973 
L 249.969729 287.257687 
L 254.880787 285.921643 
L 259.791846 284.33696 
L 263.884394 282.802152 
L 267.976943 281.052384 
L 272.069492 279.070449 
L 276.16204 276.842451 
L 280.254589 274.360201 
L 284.347138 271.623423 
L 288.439687 268.64279 
L 293.350745 264.77959 
L 299.080313 259.976034 
L 311.35796 249.555185 
L 315.450508 246.426031 
L 318.724547 244.189936 
L 321.998586 242.26082 
L 324.454116 241.05112 
L 326.909645 240.069079 
L 329.365174 239.332456 
L 331.820703 238.855238 
L 334.276232 238.646167 
L 336.731762 238.708833 
L 339.187291 239.041671 
L 341.64282 239.637687 
L 344.098349 240.485103 
L 346.553879 241.567539 
L 349.009408 242.864934 
L 352.283447 244.888463 
L 355.557486 247.191733 
L 359.650035 250.366529 
L 365.379603 255.141099 
L 376.838739 264.75953 
L 381.749798 268.569358 
L 386.660856 272.071562 
L 390.753405 274.726995 
L 394.845954 277.134248 
L 398.938502 279.295531 
L 403.031051 281.219677 
L 407.1236 282.92049 
L 411.216149 284.414901 
L 416.127207 285.961028 
L 421.038266 287.268362 
L 426.767834 288.532998 
L 432.497402 289.560497 
L 439.04548 290.496253 
L 446.412068 291.306124 
L 454.597165 291.9741 
L 464.419282 292.539934 
L 476.696928 292.999391 
L 492.248614 293.336646 
L 497.978182 293.416796 
L 497.978182 293.416796 
" style="fill:none;stroke:#1f77b4;stroke-linecap:square;stroke-width:1.5;"/>
   </g>
   <g id="line2d_14">
    <path clip-path="url(#p3316369184)" d="M 89.541818 293.727273 
L 118.189659 293.621265 
L 132.104325 293.385601 
L 140.289422 293.047518 
L 146.018991 292.627721 
L 150.930049 292.067961 
L 155.022598 291.390691 
L 158.296637 290.656736 
L 161.570676 289.695307 
L 164.026205 288.784674 
L 166.481734 287.672515 
L 168.937264 286.316411 
L 171.392793 284.666117 
L 173.848322 282.662281 
L 175.485342 281.096646 
L 177.122361 279.320744 
L 178.759381 277.309823 
L 180.3964 275.037379 
L 182.03342 272.475164 
L 183.670439 269.593453 
L 185.307459 266.362157 
L 186.944478 262.750725 
L 188.581498 258.729894 
L 190.218517 254.272702 
L 191.855537 249.356053 
L 194.311066 241.084708 
L 196.766595 231.724946 
L 199.222124 221.322501 
L 201.677653 210.010986 
L 205.770202 189.850791 
L 209.862751 169.762832 
L 212.31828 158.838815 
L 213.9553 152.424166 
L 215.592319 146.923095 
L 217.229339 142.504184 
L 218.047848 140.745858 
L 218.866358 139.307763 
L 219.684868 138.201586 
L 220.503378 137.436069 
L 221.321887 137.016824 
L 222.140397 136.946612 
L 222.958907 137.224882 
L 223.777417 137.848412 
L 224.595926 138.810577 
L 225.414436 140.101991 
L 226.232946 141.710784 
L 227.051456 143.622415 
L 228.688475 148.286193 
L 230.325495 153.939742 
L 231.962514 160.409511 
L 234.418043 171.242704 
L 238.510592 190.824643 
L 242.603141 210.273428 
L 245.05867 221.166066 
L 247.514199 231.201258 
L 249.969729 240.26545 
L 252.425258 248.319259 
L 254.880787 255.378143 
L 257.336316 261.495383 
L 258.973336 265.087306 
L 260.610355 268.319799 
L 262.247375 271.219545 
L 263.884394 273.8136 
L 265.521414 276.128649 
L 267.976943 279.133115 
L 270.432472 281.647296 
L 272.888001 283.743889 
L 275.343531 285.487123 
L 277.79906 286.933131 
L 280.254589 288.130409 
L 282.710118 289.119904 
L 285.984157 290.17593 
L 289.258196 290.992151 
L 293.350745 291.755644 
L 298.261804 292.397302 
L 303.991372 292.887771 
L 311.35796 293.26303 
L 321.180077 293.51673 
L 336.731762 293.667183 
L 371.927681 293.723776 
L 497.978182 293.727273 
L 497.978182 293.727273 
" style="fill:none;stroke:#ff7f0e;stroke-linecap:square;stroke-width:1.5;"/>
   </g>
   <g id="line2d_15">
    <path clip-path="url(#p3316369184)" d="M 89.541818 293.727273 
L 109.186052 293.623842 
L 119.008169 293.385141 
L 124.737737 293.039972 
L 128.830286 292.596802 
L 132.104325 292.044772 
L 134.559854 291.460903 
L 137.015383 290.675693 
L 139.470913 289.620863 
L 141.107932 288.724216 
L 142.744952 287.634419 
L 144.381971 286.310889 
L 146.018991 284.705686 
L 147.65601 282.761387 
L 149.29303 280.41045 
L 150.930049 277.573829 
L 152.567069 274.159597 
L 154.204088 270.062941 
L 155.841108 265.165708 
L 157.478127 259.337965 
L 159.115147 252.44076 
L 160.752166 244.331831 
L 162.389186 234.874252 
L 164.026205 223.949775 
L 165.663225 211.476687 
L 167.300244 197.432351 
L 168.937264 181.881549 
L 171.392793 156.163875 
L 177.940871 85.006071 
L 179.57789 70.62356 
L 180.3964 64.527577 
L 181.21491 59.289684 
L 182.03342 54.991412 
L 182.851929 51.699843 
L 183.670439 49.465127 
L 184.488949 48.318645 
L 185.307459 48.272727 
L 186.125968 49.319735 
L 186.944478 51.433076 
L 187.762988 54.568486 
L 188.581498 58.665326 
L 189.400007 63.649611 
L 191.037027 75.931848 
L 192.674046 90.653086 
L 195.129576 115.554724 
L 200.040634 166.877256 
L 202.496163 189.984405 
L 204.133183 203.826848 
L 205.770202 216.307942 
L 207.407222 227.417655 
L 209.044241 237.199423 
L 210.681261 245.733394 
L 212.31828 253.120515 
L 213.9553 259.472774 
L 215.592319 264.904738 
L 217.229339 269.52775 
L 218.866358 273.446439 
L 220.503378 276.757056 
L 222.140397 279.545918 
L 223.777417 281.889494 
L 225.414436 283.855049 
L 227.051456 285.500558 
L 228.688475 286.876447 
L 230.325495 288.025321 
L 232.781024 289.401302 
L 235.236553 290.447942 
L 237.692082 291.242814 
L 240.966121 292.012473 
L 244.24016 292.544535 
L 248.332709 292.984116 
L 254.062277 293.339867 
L 262.247375 293.574519 
L 275.343531 293.692949 
L 313.813489 293.726905 
L 497.978182 293.727273 
L 497.978182 293.727273 
" style="fill:none;stroke:#2ca02c;stroke-linecap:square;stroke-width:1.5;"/>
   </g>
   <g id="patch_3">
    <path d="M 69.12 306 
L 69.12 36 
" style="fill:none;stroke:#000000;stroke-linecap:square;stroke-linejoin:miter;stroke-width:0.8;"/>
   </g>
   <g id="patch_4">
    <path d="M 518.4 306 
L 518.4 36 
" style="fill:none;stroke:#000000;stroke-linecap:square;stroke-linejoin:miter;stroke-width:0.8;"/>
   </g>
   <g id="patch_5">
    <path d="M 69.12 306 
L 518.4 306 
" style="fill:none;stroke:#000000;stroke-linecap:square;stroke-linejoin:miter;stroke-width:0.8;"/>
   </g>
   <g id="patch_6">
    <path d="M 69.12 36 
L 518.4 36 
" style="fill:none;stroke:#000000;stroke-linecap:square;stroke-linejoin:miter;stroke-width:0.8;"/>
   </g>
   <g id="legend_1">
    <g id="patch_7">
     <path d="M 385.2 121.95 
L 505.8 121.95 
Q 509.4 121.95 509.4 118.35 
L 509.4 48.6 
Q 509.4 45 505.8 45 
L 385.2 45 
Q 381.6 45 381.6 48.6 
L 381.6 118.35 
Q 381.6 121.95 385.2 121.95 
z
" style="fill:#ffffff;opacity:0.8;stroke:#cccccc;stroke-linejoin:miter;"/>
    </g>
    <g id="line2d_16">
     <path d="M 388.8 58.5 
L 424.8 58.5 
" style="fill:none;stroke:#1f77b4;stroke-linecap:square;stroke-width:1.5;"/>
    </g>
    <g id="line2d_17"/>
    <g id="text_15">
     <!-- p = 0.1 -->
     <defs>
      <path d="M 44.140625 23.828125 
Q 44.140625 12.5 38.671875 6.640625 
Q 33.203125 0.78125 25.390625 0.78125 
Q 21.09375 0.78125 17.96875 2.53125 
Q 14.84375 4.296875 12.5 7.8125 
L 12.5 -12.5 
L 4.6875 -12.5 
L 4.6875 45.703125 
L 12.5 45.703125 
L 12.5 39.84375 
Q 14.84375 43.359375 17.96875 44.921875 
Q 21.09375 46.484375 25.390625 46.484375 
Q 33.203125 46.484375 38.671875 40.8125 
Q 44.140625 35.15625 44.140625 23.828125 
z
M 35.546875 23.828125 
Q 35.546875 31.25 32.609375 35.34375 
Q 29.6875 39.453125 23.828125 39.453125 
Q 19.140625 39.453125 15.8125 35.34375 
Q 12.5 31.25 12.5 23.828125 
Q 12.5 16.40625 15.8125 12.109375 
Q 19.140625 7.8125 23.828125 7.8125 
Q 29.6875 7.8125 32.609375 12.109375 
Q 35.546875 16.40625 35.546875 23.828125 
z
" id="SimHei-112"/>
      <path id="SimHei-32"/>
      <path d="M 46.484375 45.3125 
L 1.953125 45.3125 
L 1.953125 51.5625 
L 46.484375 51.5625 
z
M 46.484375 21.484375 
L 1.953125 21.484375 
L 1.953125 27.734375 
L 46.484375 27.734375 
z
" id="SimHei-61"/>
      <path d="M 16.796875 1.953125 
L 7.8125 1.953125 
L 7.8125 10.546875 
L 16.796875 10.546875 
z
" id="SimHei-46"/>
     </defs>
     <g transform="translate(439.2 64.8)scale(0.18 -0.18)">
      <use xlink:href="#SimHei-112"/>
      <use x="50" xlink:href="#SimHei-32"/>
      <use x="100" xlink:href="#SimHei-61"/>
      <use x="150" xlink:href="#SimHei-32"/>
      <use x="200" xlink:href="#SimHei-48"/>
      <use x="250" xlink:href="#SimHei-46"/>
      <use x="300" xlink:href="#SimHei-49"/>
     </g>
    </g>
    <g id="line2d_18">
     <path d="M 388.8 82.35 
L 424.8 82.35 
" style="fill:none;stroke:#ff7f0e;stroke-linecap:square;stroke-width:1.5;"/>
    </g>
    <g id="line2d_19"/>
    <g id="text_16">
     <!-- p = 0.5 -->
     <g transform="translate(439.2 88.65)scale(0.18 -0.18)">
      <use xlink:href="#SimHei-112"/>
      <use x="50" xlink:href="#SimHei-32"/>
      <use x="100" xlink:href="#SimHei-61"/>
      <use x="150" xlink:href="#SimHei-32"/>
      <use x="200" xlink:href="#SimHei-48"/>
      <use x="250" xlink:href="#SimHei-46"/>
      <use x="300" xlink:href="#SimHei-53"/>
     </g>
    </g>
    <g id="line2d_20">
     <path d="M 388.8 106.2 
L 424.8 106.2 
" style="fill:none;stroke:#2ca02c;stroke-linecap:square;stroke-width:1.5;"/>
    </g>
    <g id="line2d_21"/>
    <g id="text_17">
     <!-- p = 0.9 -->
     <defs>
      <path d="M 12.5 1.171875 
Q 21.09375 15.625 26.5625 27.34375 
Q 16.796875 25.78125 10.34375 29.875 
Q 3.90625 33.984375 2.53125 41.015625 
Q 1.171875 48.046875 2.734375 53.703125 
Q 4.296875 59.375 7.609375 63.078125 
Q 10.9375 66.796875 15.625 68.359375 
Q 20.3125 69.921875 24.015625 69.921875 
Q 27.734375 69.921875 31.640625 68.359375 
Q 35.546875 66.796875 38.671875 63.671875 
Q 41.796875 60.546875 42.96875 57.21875 
Q 44.140625 53.90625 44.140625 48.625 
Q 44.140625 43.359375 40.234375 35.15625 
Q 36.328125 26.953125 21.09375 1.171875 
z
M 9.765625 50 
Q 10.9375 39.84375 14.640625 36.515625 
Q 18.359375 33.203125 22.65625 33.59375 
Q 26.953125 33.984375 29.484375 35.9375 
Q 32.03125 37.890625 34.375 42.578125 
Q 35.9375 48.4375 35.15625 52.53125 
Q 34.375 56.640625 31.046875 59.375 
Q 27.734375 62.109375 23.828125 62.109375 
Q 21.484375 62.5 17.765625 60.9375 
Q 14.0625 59.375 11.90625 54.6875 
Q 9.765625 50 10.9375 39.84375 
z
" id="SimHei-57"/>
     </defs>
     <g transform="translate(439.2 112.5)scale(0.18 -0.18)">
      <use xlink:href="#SimHei-112"/>
      <use x="50" xlink:href="#SimHei-32"/>
      <use x="100" xlink:href="#SimHei-61"/>
      <use x="150" xlink:href="#SimHei-32"/>
      <use x="200" xlink:href="#SimHei-48"/>
      <use x="250" xlink:href="#SimHei-46"/>
      <use x="300" xlink:href="#SimHei-57"/>
     </g>
    </g>
   </g>
  </g>
 </g>
 <defs>
  <clipPath id="p3316369184">
   <rect height="270" width="449.28" x="69.12" y="36"/>
  </clipPath>
 </defs>
</svg>
