<?xml version="1.0" encoding="utf-8" standalone="no"?>
<!DOCTYPE svg PUBLIC "-//W3C//DTD SVG 1.1//EN"
  "http://www.w3.org/Graphics/SVG/1.1/DTD/svg11.dtd">
<!-- Created with matplotlib (https://matplotlib.org/) -->
<svg height="360pt" version="1.1" viewBox="0 0 576 360" width="576pt" xmlns="http://www.w3.org/2000/svg" xmlns:xlink="http://www.w3.org/1999/xlink">
 <defs>
  <style type="text/css">
*{stroke-linecap:butt;stroke-linejoin:round;}
  </style>
 </defs>
 <g id="figure_1">
  <g id="patch_1">
   <path d="M 0 360 
L 576 360 
L 576 0 
L 0 0 
z
" style="fill:#ffffff;"/>
  </g>
  <g id="axes_1">
   <g id="patch_2">
    <path d="M 69.12 306 
L 518.4 306 
L 518.4 36 
L 69.12 36 
z
" style="fill:#ffffff;"/>
   </g>
   <g id="matplotlib.axis_1">
    <g id="xtick_1">
     <g id="line2d_1">
      <defs>
       <path d="M 0 0 
L 0 3.5 
" id="m405ab921b9" style="stroke:#000000;stroke-width:0.8;"/>
      </defs>
      <g>
       <use style="stroke:#000000;stroke-width:0.8;" x="89.541818" xlink:href="#m405ab921b9" y="306"/>
      </g>
     </g>
     <g id="text_1">
      <!-- 0 -->
      <defs>
       <path d="M 3.125 29.296875 
Q 3.90625 50 6.4375 56.046875 
Q 8.984375 62.109375 13.671875 66.015625 
Q 18.359375 69.921875 25.1875 69.921875 
Q 32.03125 69.921875 37.109375 64.25 
Q 42.1875 58.59375 43.75 50 
Q 45.3125 41.40625 44.71875 30.265625 
Q 44.140625 19.140625 40.8125 12.109375 
Q 37.5 5.078125 30.859375 2.34375 
Q 24.21875 -0.390625 17.578125 2.921875 
Q 10.9375 6.25 8.203125 11.71875 
Q 5.46875 17.1875 4.296875 23.234375 
Q 3.125 29.296875 3.90625 50 
z
M 12.890625 52.734375 
Q 10.546875 31.25 12.5 22.84375 
Q 14.453125 14.453125 18.9375 10.9375 
Q 23.4375 7.421875 28.125 9.5625 
Q 32.8125 11.71875 34.953125 18.15625 
Q 37.109375 24.609375 37.109375 32.21875 
Q 37.109375 39.84375 36.515625 46.09375 
Q 35.9375 52.34375 33 57.421875 
Q 30.078125 62.5 25.1875 62.6875 
Q 20.3125 62.890625 16.59375 57.8125 
Q 12.890625 52.734375 10.546875 31.25 
z
" id="SimHei-48"/>
      </defs>
      <g transform="translate(87.041818 319.875)scale(0.1 -0.1)">
       <use xlink:href="#SimHei-48"/>
      </g>
     </g>
    </g>
    <g id="xtick_2">
     <g id="line2d_2">
      <g>
       <use style="stroke:#000000;stroke-width:0.8;" x="147.88987" xlink:href="#m405ab921b9" y="306"/>
      </g>
     </g>
     <g id="text_2">
      <!-- 100 -->
      <defs>
       <path d="M 21.875 56.25 
Q 16.796875 51.171875 8.984375 46.484375 
L 8.984375 53.90625 
Q 18.75 60.546875 25 69.53125 
L 29.6875 69.53125 
L 29.6875 2.34375 
L 21.875 2.34375 
z
" id="SimHei-49"/>
      </defs>
      <g transform="translate(140.38987 319.875)scale(0.1 -0.1)">
       <use xlink:href="#SimHei-49"/>
       <use x="50" xlink:href="#SimHei-48"/>
       <use x="100" xlink:href="#SimHei-48"/>
      </g>
     </g>
    </g>
    <g id="xtick_3">
     <g id="line2d_3">
      <g>
       <use style="stroke:#000000;stroke-width:0.8;" x="206.237922" xlink:href="#m405ab921b9" y="306"/>
      </g>
     </g>
     <g id="text_3">
      <!-- 200 -->
      <defs>
       <path d="M 4.6875 3.90625 
Q 5.078125 9.765625 10.15625 14.453125 
Q 15.234375 19.140625 23.046875 29.09375 
Q 30.859375 39.0625 33.203125 44.53125 
Q 35.546875 50 34.953125 53.90625 
Q 34.375 57.8125 31.25 60.34375 
Q 28.125 62.890625 24.015625 62.5 
Q 19.921875 62.109375 16.203125 59.375 
Q 12.5 56.640625 10.546875 51.171875 
L 3.125 52.34375 
Q 6.25 61.328125 11.125 65.421875 
Q 16.015625 69.53125 22.65625 69.921875 
Q 26.5625 70.3125 29.6875 69.71875 
Q 32.8125 69.140625 36.125 66.984375 
Q 39.453125 64.84375 41.59375 60.546875 
Q 43.75 56.25 43.15625 50.1875 
Q 42.578125 44.140625 37.109375 35.734375 
Q 31.640625 27.34375 16.015625 9.375 
L 44.140625 9.375 
L 44.140625 2.34375 
L 4.6875 2.34375 
z
" id="SimHei-50"/>
      </defs>
      <g transform="translate(198.737922 319.875)scale(0.1 -0.1)">
       <use xlink:href="#SimHei-50"/>
       <use x="50" xlink:href="#SimHei-48"/>
       <use x="100" xlink:href="#SimHei-48"/>
      </g>
     </g>
    </g>
    <g id="xtick_4">
     <g id="line2d_4">
      <g>
       <use style="stroke:#000000;stroke-width:0.8;" x="264.585974" xlink:href="#m405ab921b9" y="306"/>
      </g>
     </g>
     <g id="text_4">
      <!-- 300 -->
      <defs>
       <path d="M 3.90625 19.140625 
L 10.9375 20.3125 
Q 12.5 15.234375 16.015625 11.90625 
Q 19.53125 8.59375 24.796875 8.78125 
Q 30.078125 8.984375 33.203125 13.078125 
Q 36.328125 17.1875 35.9375 22.453125 
Q 35.546875 27.734375 31.828125 30.65625 
Q 28.125 33.59375 19.921875 34.765625 
L 19.921875 39.84375 
Q 28.125 40.625 31.828125 44.140625 
Q 35.546875 47.65625 35.15625 53.3125 
Q 34.765625 58.984375 30.078125 61.515625 
Q 25.390625 64.0625 20.109375 62.109375 
Q 14.84375 60.15625 11.71875 51.171875 
L 4.6875 52.34375 
Q 7.03125 59.375 11.125 64.0625 
Q 15.234375 68.75 22.265625 69.53125 
Q 29.296875 70.3125 34.5625 67.765625 
Q 39.84375 65.234375 41.984375 59.953125 
Q 44.140625 54.6875 42.578125 48.4375 
Q 41.015625 42.1875 33.59375 37.5 
Q 39.0625 35.15625 41.984375 30.46875 
Q 44.921875 25.78125 43.9375 18.15625 
Q 42.96875 10.546875 37.109375 5.859375 
Q 31.25 1.171875 23.828125 1.359375 
Q 16.40625 1.5625 10.9375 6.046875 
Q 5.46875 10.546875 3.90625 19.140625 
z
" id="SimHei-51"/>
      </defs>
      <g transform="translate(257.085974 319.875)scale(0.1 -0.1)">
       <use xlink:href="#SimHei-51"/>
       <use x="50" xlink:href="#SimHei-48"/>
       <use x="100" xlink:href="#SimHei-48"/>
      </g>
     </g>
    </g>
    <g id="xtick_5">
     <g id="line2d_5">
      <g>
       <use style="stroke:#000000;stroke-width:0.8;" x="322.934026" xlink:href="#m405ab921b9" y="306"/>
      </g>
     </g>
     <g id="text_5">
      <!-- 400 -->
      <defs>
       <path d="M 31.25 17.1875 
L 1.171875 17.1875 
L 1.171875 23.828125 
L 32.8125 69.53125 
L 38.671875 69.53125 
L 38.671875 23.828125 
L 48.046875 23.828125 
L 48.046875 17.1875 
L 38.671875 17.1875 
L 38.671875 2.34375 
L 31.25 2.34375 
z
M 31.25 23.828125 
L 31.25 54.6875 
L 9.375 23.828125 
z
" id="SimHei-52"/>
      </defs>
      <g transform="translate(315.434026 319.875)scale(0.1 -0.1)">
       <use xlink:href="#SimHei-52"/>
       <use x="50" xlink:href="#SimHei-48"/>
       <use x="100" xlink:href="#SimHei-48"/>
      </g>
     </g>
    </g>
    <g id="xtick_6">
     <g id="line2d_6">
      <g>
       <use style="stroke:#000000;stroke-width:0.8;" x="381.282078" xlink:href="#m405ab921b9" y="306"/>
      </g>
     </g>
     <g id="text_6">
      <!-- 500 -->
      <defs>
       <path d="M 8.59375 20.703125 
Q 11.328125 10.15625 17.96875 8.984375 
Q 24.609375 7.8125 28.703125 10.34375 
Q 32.8125 12.890625 34.5625 16.984375 
Q 36.328125 21.09375 36.125 26.171875 
Q 35.9375 31.25 33.390625 34.765625 
Q 30.859375 38.28125 26.953125 39.453125 
Q 23.046875 40.625 18.15625 39.453125 
Q 13.28125 38.28125 10.15625 33.984375 
L 3.515625 34.765625 
Q 4.296875 37.109375 10.9375 68.359375 
L 41.796875 68.359375 
L 41.796875 61.328125 
L 16.796875 61.328125 
Q 14.84375 50.78125 12.890625 44.53125 
Q 18.75 47.265625 23.828125 47.0625 
Q 28.90625 46.875 33.59375 44.71875 
Q 38.28125 42.578125 40.421875 38.859375 
Q 42.578125 35.15625 43.546875 31.4375 
Q 44.53125 27.734375 44.328125 23.4375 
Q 44.140625 19.140625 42.578125 14.640625 
Q 41.015625 10.15625 37.890625 7.21875 
Q 34.765625 4.296875 30.265625 2.53125 
Q 25.78125 0.78125 19.921875 1.171875 
Q 14.0625 1.5625 8.78125 5.46875 
Q 3.515625 9.375 1.5625 18.75 
z
" id="SimHei-53"/>
      </defs>
      <g transform="translate(373.782078 319.875)scale(0.1 -0.1)">
       <use xlink:href="#SimHei-53"/>
       <use x="50" xlink:href="#SimHei-48"/>
       <use x="100" xlink:href="#SimHei-48"/>
      </g>
     </g>
    </g>
    <g id="xtick_7">
     <g id="line2d_7">
      <g>
       <use style="stroke:#000000;stroke-width:0.8;" x="439.63013" xlink:href="#m405ab921b9" y="306"/>
      </g>
     </g>
     <g id="text_7">
      <!-- 600 -->
      <defs>
       <path d="M 3.515625 19.53125 
Q 4.296875 30.859375 6.046875 34.765625 
Q 7.8125 38.671875 11.328125 44.53125 
L 27.34375 69.53125 
L 36.328125 69.53125 
L 19.921875 43.75 
Q 30.46875 46.484375 36.71875 42.96875 
Q 42.96875 39.453125 45.109375 34.953125 
Q 47.265625 30.46875 47.453125 25.1875 
Q 47.65625 19.921875 45.890625 14.84375 
Q 44.140625 9.765625 39.640625 5.65625 
Q 35.15625 1.5625 27.140625 1.171875 
Q 19.140625 0.78125 13.46875 4.09375 
Q 7.8125 7.421875 5.65625 13.46875 
Q 3.515625 19.53125 4.296875 30.859375 
z
M 12.5 16.015625 
Q 19.53125 8.59375 25.390625 8.203125 
Q 31.25 7.8125 35.15625 12.109375 
Q 39.0625 16.40625 39.0625 24.609375 
Q 39.0625 32.8125 34.171875 35.9375 
Q 29.296875 39.0625 23.234375 38.28125 
Q 17.1875 37.5 14.453125 32.421875 
Q 11.71875 27.34375 12.109375 21.671875 
Q 12.5 16.015625 19.53125 8.59375 
z
" id="SimHei-54"/>
      </defs>
      <g transform="translate(432.13013 319.875)scale(0.1 -0.1)">
       <use xlink:href="#SimHei-54"/>
       <use x="50" xlink:href="#SimHei-48"/>
       <use x="100" xlink:href="#SimHei-48"/>
      </g>
     </g>
    </g>
    <g id="xtick_8">
     <g id="line2d_8">
      <g>
       <use style="stroke:#000000;stroke-width:0.8;" x="497.978182" xlink:href="#m405ab921b9" y="306"/>
      </g>
     </g>
     <g id="text_8">
      <!-- 700 -->
      <defs>
       <path d="M 13.28125 2.34375 
Q 20.3125 32.03125 37.890625 61.328125 
L 4.296875 61.328125 
L 4.296875 68.359375 
L 46.09375 68.359375 
L 46.09375 61.71875 
Q 27.734375 32.03125 21.875 2.34375 
L 13.28125 2.34375 
z
" id="SimHei-55"/>
      </defs>
      <g transform="translate(490.478182 319.875)scale(0.1 -0.1)">
       <use xlink:href="#SimHei-55"/>
       <use x="50" xlink:href="#SimHei-48"/>
       <use x="100" xlink:href="#SimHei-48"/>
      </g>
     </g>
    </g>
    <g id="text_9">
     <!-- 时间（天） -->
     <defs>
      <path d="M 39.453125 71.484375 
Q 39.0625 57.421875 39.0625 37.5 
Q 39.0625 17.578125 39.453125 6.25 
L 31.25 6.25 
L 31.25 13.671875 
L 15.625 13.671875 
L 15.625 0.78125 
L 7.421875 0.78125 
Q 7.8125 18.75 7.8125 36.71875 
Q 7.8125 55.078125 7.421875 71.484375 
L 39.453125 71.484375 
z
M 76.171875 59.765625 
Q 76.171875 71.484375 75.78125 81.640625 
L 84.375 81.640625 
Q 83.984375 71.484375 83.984375 59.765625 
Q 89.84375 59.765625 96.484375 60.15625 
L 96.484375 52.734375 
Q 89.84375 53.125 83.984375 53.125 
L 83.984375 0.78125 
Q 83.984375 -5.078125 79.296875 -6.640625 
Q 74.609375 -8.203125 67.1875 -8.984375 
Q 67.1875 -4.296875 62.890625 0 
Q 70.3125 -0.78125 73.234375 -0.390625 
Q 76.171875 0 76.171875 4.6875 
L 76.171875 53.125 
Q 56.640625 53.125 43.359375 52.734375 
L 43.359375 60.15625 
Q 55.859375 59.765625 76.171875 59.765625 
z
M 31.25 20.3125 
L 31.25 39.84375 
L 15.625 39.84375 
L 15.625 20.3125 
z
M 31.25 46.484375 
L 31.25 64.84375 
L 15.625 64.84375 
L 15.625 46.484375 
z
M 55.46875 42.578125 
Q 60.546875 34.375 65.234375 25 
Q 61.328125 23.828125 57.03125 21.484375 
Q 53.90625 30.859375 48.046875 39.0625 
Q 51.5625 40.625 55.46875 42.578125 
z
" id="SimHei-26102"/>
      <path d="M 69.53125 55.46875 
Q 69.140625 48.046875 69.140625 42.578125 
L 69.140625 21.875 
Q 69.140625 16.796875 69.53125 9.765625 
L 30.078125 9.765625 
Q 30.46875 16.796875 30.46875 22.265625 
L 30.46875 42.578125 
Q 30.46875 48.046875 30.078125 55.46875 
L 69.53125 55.46875 
z
M 90.625 76.171875 
Q 90.234375 68.75 90.234375 61.328125 
L 90.234375 3.90625 
Q 90.625 -5.078125 85.34375 -7.03125 
Q 80.078125 -8.984375 73.828125 -9.765625 
Q 73.4375 -5.078125 70.703125 -0.390625 
Q 78.125 -0.78125 80.265625 0.390625 
Q 82.421875 1.5625 82.421875 5.46875 
L 82.421875 69.53125 
L 58.984375 69.53125 
Q 49.609375 69.53125 41.40625 69.140625 
L 41.40625 76.5625 
Q 49.609375 76.171875 58.984375 76.171875 
z
M 8.59375 -8.203125 
Q 9.375 -0.390625 9.375 8.203125 
L 9.375 49.21875 
Q 9.375 57.421875 8.59375 62.890625 
L 17.578125 62.890625 
Q 17.1875 57.03125 17.1875 51.5625 
L 17.1875 7.8125 
Q 17.1875 0 17.578125 -8.203125 
z
M 61.71875 16.015625 
L 61.71875 30.46875 
L 37.890625 30.46875 
L 37.890625 16.015625 
z
M 61.71875 36.71875 
L 61.71875 49.21875 
L 37.890625 49.21875 
L 37.890625 36.71875 
z
M 23.828125 82.8125 
Q 27.34375 78.125 34.765625 67.96875 
Q 30.46875 66.015625 26.5625 63.671875 
Q 22.65625 71.484375 16.796875 78.515625 
Q 21.09375 81.640625 23.828125 82.8125 
z
" id="SimHei-38388"/>
      <path d="M 84.765625 79.6875 
L 89.0625 74.609375 
Q 66.796875 58.203125 67.578125 36.71875 
Q 67.96875 16.015625 88.671875 0.78125 
L 84.375 -4.296875 
Q 60.546875 12.890625 61.328125 39.0625 
Q 61.328125 60.546875 84.765625 79.6875 
z
" id="SimHei-65288"/>
      <path d="M 69.921875 76.5625 
Q 76.953125 76.5625 83.984375 76.953125 
L 83.984375 68.75 
Q 76.953125 69.140625 69.921875 69.140625 
L 53.90625 69.140625 
L 53.90625 48.046875 
L 78.90625 48.046875 
Q 86.328125 48.046875 92.1875 48.4375 
L 92.1875 40.234375 
Q 86.71875 40.625 79.296875 40.625 
L 55.078125 40.625 
Q 60.546875 25.78125 70.703125 15.234375 
Q 80.859375 4.6875 96.875 0.78125 
Q 91.40625 -3.515625 90.234375 -7.03125 
Q 78.125 -2.734375 67.96875 6.4375 
Q 57.8125 15.625 50.390625 32.8125 
Q 45.703125 16.796875 35.546875 7.21875 
Q 25.390625 -2.34375 10.15625 -8.984375 
Q 8.59375 -5.078125 3.515625 -1.5625 
Q 14.84375 1.5625 27.34375 11.515625 
Q 39.84375 21.484375 44.921875 40.625 
L 23.4375 40.625 
Q 14.84375 40.625 8.984375 40.234375 
L 8.984375 48.4375 
Q 15.234375 48.046875 23.4375 48.046875 
L 46.09375 48.046875 
L 46.09375 69.140625 
L 29.6875 69.140625 
Q 21.484375 69.140625 15.625 68.75 
L 15.625 76.953125 
Q 21.875 76.5625 29.6875 76.5625 
z
" id="SimHei-22825"/>
      <path d="M 15.625 79.6875 
Q 39.0625 60.546875 39.0625 39.0625 
Q 39.84375 12.890625 16.015625 -4.296875 
L 11.71875 0.78125 
Q 32.421875 16.015625 32.8125 36.71875 
Q 33.59375 58.203125 11.328125 74.609375 
L 15.625 79.6875 
z
" id="SimHei-65289"/>
     </defs>
     <g transform="translate(243.76 347.140625)scale(0.2 -0.2)">
      <use xlink:href="#SimHei-26102"/>
      <use x="100" xlink:href="#SimHei-38388"/>
      <use x="200" xlink:href="#SimHei-65288"/>
      <use x="300" xlink:href="#SimHei-22825"/>
      <use x="400" xlink:href="#SimHei-65289"/>
     </g>
    </g>
   </g>
   <g id="matplotlib.axis_2">
    <g id="ytick_1">
     <g id="line2d_9">
      <defs>
       <path d="M 0 0 
L -3.5 0 
" id="m4e4ff65e38" style="stroke:#000000;stroke-width:0.8;"/>
      </defs>
      <g>
       <use style="stroke:#000000;stroke-width:0.8;" x="69.12" xlink:href="#m4e4ff65e38" y="293.727273"/>
      </g>
     </g>
     <g id="text_10">
      <!-- 0 -->
      <g transform="translate(57.12 297.164773)scale(0.1 -0.1)">
       <use xlink:href="#SimHei-48"/>
      </g>
     </g>
    </g>
    <g id="ytick_2">
     <g id="line2d_10">
      <g>
       <use style="stroke:#000000;stroke-width:0.8;" x="69.12" xlink:href="#m4e4ff65e38" y="234.001683"/>
      </g>
     </g>
     <g id="text_11">
      <!-- 1 -->
      <g transform="translate(57.12 237.439183)scale(0.1 -0.1)">
       <use xlink:href="#SimHei-49"/>
      </g>
     </g>
    </g>
    <g id="ytick_3">
     <g id="line2d_11">
      <g>
       <use style="stroke:#000000;stroke-width:0.8;" x="69.12" xlink:href="#m4e4ff65e38" y="174.276093"/>
      </g>
     </g>
     <g id="text_12">
      <!-- 2 -->
      <g transform="translate(57.12 177.713593)scale(0.1 -0.1)">
       <use xlink:href="#SimHei-50"/>
      </g>
     </g>
    </g>
    <g id="ytick_4">
     <g id="line2d_12">
      <g>
       <use style="stroke:#000000;stroke-width:0.8;" x="69.12" xlink:href="#m4e4ff65e38" y="114.550503"/>
      </g>
     </g>
     <g id="text_13">
      <!-- 3 -->
      <g transform="translate(57.12 117.988003)scale(0.1 -0.1)">
       <use xlink:href="#SimHei-51"/>
      </g>
     </g>
    </g>
    <g id="ytick_5">
     <g id="line2d_13">
      <g>
       <use style="stroke:#000000;stroke-width:0.8;" x="69.12" xlink:href="#m4e4ff65e38" y="54.824913"/>
      </g>
     </g>
     <g id="text_14">
      <!-- 4 -->
      <g transform="translate(57.12 58.262413)scale(0.1 -0.1)">
       <use xlink:href="#SimHei-52"/>
      </g>
     </g>
    </g>
    <g id="text_15">
     <!-- 比例（%） -->
     <defs>
      <path d="M 58.984375 79.6875 
Q 58.59375 71.484375 58.59375 64.0625 
L 58.59375 47.65625 
Q 76.953125 56.25 85.546875 65.234375 
Q 88.671875 60.9375 92.1875 57.421875 
Q 87.5 54.6875 78.703125 49.796875 
Q 69.921875 44.921875 58.59375 39.84375 
L 58.59375 7.03125 
Q 58.59375 1.5625 63.28125 1.5625 
L 78.125 1.5625 
Q 80.859375 1.5625 82.21875 3.90625 
Q 83.59375 6.25 85.15625 14.0625 
Q 88.28125 12.109375 94.140625 10.546875 
Q 91.40625 0 88.28125 -2.734375 
Q 85.15625 -5.46875 81.640625 -5.46875 
L 60.9375 -5.46875 
Q 50.78125 -5.46875 50.78125 4.296875 
L 50.78125 62.5 
Q 50.78125 71.09375 50.390625 79.6875 
L 58.984375 79.6875 
z
M 19.921875 77.734375 
Q 19.53125 71.484375 19.53125 62.5 
L 19.53125 49.21875 
L 28.90625 49.21875 
Q 36.328125 49.21875 44.921875 49.609375 
L 44.921875 41.40625 
Q 36.328125 41.796875 28.90625 41.796875 
L 19.53125 41.796875 
L 19.53125 7.421875 
Q 25.78125 10.15625 30.65625 12.6875 
Q 35.546875 15.234375 44.53125 19.921875 
Q 45.3125 14.84375 46.09375 11.71875 
Q 37.109375 7.421875 27.53125 2.734375 
Q 17.96875 -1.953125 14.453125 -5.078125 
Q 11.71875 -1.5625 8.984375 3.125 
Q 10.9375 4.6875 11.71875 9.375 
L 11.71875 61.71875 
Q 11.71875 71.09375 11.328125 77.734375 
L 19.921875 77.734375 
z
" id="SimHei-27604"/>
      <path d="M 53.90625 73.828125 
Q 59.765625 73.828125 64.0625 74.21875 
L 64.0625 67.1875 
Q 59.765625 67.578125 54.6875 67.578125 
L 49.21875 67.578125 
Q 48.828125 62.890625 47.265625 52.34375 
L 63.28125 52.34375 
Q 62.5 32.03125 56.4375 16.40625 
Q 50.390625 0.78125 35.9375 -9.375 
Q 34.375 -6.25 29.6875 -2.34375 
Q 42.96875 3.90625 50 20.703125 
Q 46.484375 23.828125 39.84375 28.125 
Q 42.1875 31.25 44.140625 33.984375 
Q 50 29.296875 52.34375 27.734375 
Q 54.6875 35.15625 55.859375 46.09375 
L 45.703125 46.09375 
Q 43.75 37.890625 34.765625 24.609375 
Q 31.640625 27.734375 27.734375 30.078125 
Q 33.203125 35.546875 37.109375 44.328125 
Q 41.015625 53.125 41.796875 67.578125 
Q 35.9375 67.578125 33.59375 67.1875 
L 33.59375 74.21875 
Q 37.5 73.828125 43.75 73.828125 
z
M 32.03125 77.734375 
Q 29.296875 74.609375 24.21875 60.15625 
L 24.21875 7.421875 
Q 24.21875 -0.390625 24.609375 -9.375 
L 16.796875 -9.375 
Q 17.1875 -1.171875 17.1875 6.640625 
L 17.1875 46.875 
Q 14.84375 42.1875 10.15625 35.15625 
Q 8.59375 37.109375 3.125 41.015625 
Q 8.203125 45.703125 14.640625 58.78125 
Q 21.09375 71.875 22.65625 81.25 
Q 25.78125 79.296875 32.03125 77.734375 
z
M 92.96875 79.296875 
Q 92.1875 74.609375 92.1875 67.1875 
L 92.1875 3.90625 
Q 92.1875 -4.296875 89.0625 -6.25 
Q 85.9375 -8.203125 75.78125 -8.984375 
Q 75.390625 -4.6875 72.65625 0.78125 
Q 80.859375 0 82.8125 0.390625 
Q 84.765625 0.78125 85.15625 4.6875 
L 85.15625 66.796875 
Q 85.15625 74.21875 84.375 79.296875 
L 92.96875 79.296875 
z
M 76.953125 66.015625 
Q 76.171875 60.546875 76.171875 50.78125 
L 76.171875 28.125 
Q 76.171875 18.75 76.5625 14.453125 
L 68.359375 14.453125 
Q 69.140625 18.75 69.140625 27.734375 
L 69.140625 51.171875 
Q 68.75 60.15625 68.359375 66.015625 
L 76.953125 66.015625 
z
" id="SimHei-20363"/>
      <path d="M 21.875 51.953125 
Q 21.875 40.625 18.546875 37.5 
Q 15.234375 34.375 12.109375 34.375 
Q 8.984375 34.375 5.65625 37.5 
Q 2.34375 40.625 2.34375 51.953125 
Q 2.34375 63.28125 5.65625 66.40625 
Q 8.984375 69.53125 12.109375 69.53125 
Q 15.234375 69.53125 18.546875 66.40625 
Q 21.875 63.28125 21.875 51.953125 
z
M 41.015625 68.359375 
L 10.9375 1.171875 
L 7.8125 2.34375 
L 37.890625 69.53125 
z
M 46.484375 18.75 
Q 46.484375 7.421875 43.15625 4.296875 
Q 39.84375 1.171875 36.71875 1.171875 
Q 33.59375 1.171875 30.265625 4.296875 
Q 26.953125 7.421875 26.953125 18.75 
Q 26.953125 30.078125 30.265625 33.203125 
Q 33.59375 36.328125 36.71875 36.328125 
Q 39.84375 36.328125 43.15625 33.203125 
Q 46.484375 30.078125 46.484375 18.75 
z
M 15.625 51.953125 
Q 15.625 58.984375 14.84375 61.328125 
Q 14.0625 63.671875 12.109375 63.671875 
Q 10.15625 63.671875 9.375 61.328125 
Q 8.59375 58.984375 8.59375 51.953125 
Q 8.59375 44.921875 9.375 42.578125 
Q 10.15625 40.234375 12.109375 40.234375 
Q 14.0625 40.234375 14.84375 42.578125 
Q 15.625 44.921875 15.625 51.953125 
z
M 40.234375 18.75 
Q 40.234375 25.78125 39.453125 28.125 
Q 38.671875 30.46875 36.71875 30.46875 
Q 34.765625 30.46875 33.984375 28.125 
Q 33.203125 25.78125 33.203125 18.75 
Q 33.203125 11.71875 33.984375 9.375 
Q 34.765625 7.03125 36.71875 7.03125 
Q 38.671875 7.03125 39.453125 9.375 
Q 40.234375 11.71875 40.234375 18.75 
z
" id="SimHei-37"/>
     </defs>
     <g transform="translate(39.62 216)rotate(-90)scale(0.2 -0.2)">
      <use xlink:href="#SimHei-27604"/>
      <use x="100" xlink:href="#SimHei-20363"/>
      <use x="200" xlink:href="#SimHei-65288"/>
      <use x="300" xlink:href="#SimHei-37"/>
      <use x="350" xlink:href="#SimHei-65289"/>
     </g>
    </g>
   </g>
   <g id="line2d_14">
    <path clip-path="url(#p0f6fa528fa)" d="M 89.541818 293.727273 
L 110.547117 293.618345 
L 122.800208 293.395227 
L 130.385455 293.065693 
L 136.22026 292.603078 
L 140.888104 292.010011 
L 144.388987 291.368639 
L 147.88987 290.489562 
L 150.807273 289.513514 
L 153.141195 288.527063 
L 155.475117 287.312712 
L 157.809039 285.819644 
L 159.559481 284.480223 
L 161.309922 282.919359 
L 163.060364 281.102137 
L 164.810805 278.9891 
L 166.561247 276.535887 
L 168.311688 273.692397 
L 170.06213 270.403271 
L 171.812571 266.607648 
L 173.563013 262.239046 
L 175.313455 257.227398 
L 177.063896 251.498928 
L 178.814338 244.979744 
L 180.564779 237.597864 
L 182.315221 229.287763 
L 184.065662 219.996592 
L 185.816104 209.690155 
L 188.150026 194.363101 
L 190.483948 177.316513 
L 193.401351 153.993708 
L 201.570078 86.578465 
L 203.320519 74.459229 
L 205.070961 64.196076 
L 206.237922 58.600807 
L 207.404883 54.13356 
L 208.571844 50.883773 
L 209.155325 49.736979 
L 209.738805 48.917208 
L 210.322286 48.428407 
L 210.905766 48.272727 
L 211.489247 48.450647 
L 212.072727 48.960971 
L 212.656208 49.800351 
L 213.239688 50.963885 
L 213.823169 52.445115 
L 214.99013 56.326112 
L 216.157091 61.360119 
L 217.324052 67.44383 
L 219.074494 78.272549 
L 220.824935 90.744277 
L 223.158857 109.118686 
L 231.911065 180.096152 
L 234.244987 196.550869 
L 236.578909 211.325989 
L 238.912831 224.357183 
L 240.663273 233.005906 
L 242.413714 240.735375 
L 244.164156 247.602029 
L 245.914597 253.670316 
L 247.665039 259.009346 
L 249.415481 263.688471 
L 251.165922 267.775725 
L 252.916364 271.335677 
L 254.666805 274.428828 
L 256.417247 277.110659 
L 258.167688 279.431628 
L 259.91813 281.437052 
L 261.668571 283.167825 
L 264.002494 285.10916 
L 266.336416 286.69908 
L 268.670338 287.999162 
L 271.00426 289.061301 
L 273.921662 290.118417 
L 276.839065 290.93747 
L 280.339948 291.679879 
L 284.424312 292.300925 
L 289.092156 292.783987 
L 294.926961 293.165056 
L 303.095688 293.454893 
L 315.348779 293.635443 
L 339.271481 293.716272 
L 458.301506 293.727273 
L 497.978182 293.727273 
L 497.978182 293.727273 
" style="fill:none;stroke:#1f77b4;stroke-linecap:square;stroke-width:1.5;"/>
   </g>
   <g id="line2d_15">
    <path clip-path="url(#p0f6fa528fa)" d="M 89.541818 293.727273 
L 111.714078 293.618823 
L 124.550649 293.395347 
L 132.719377 293.051225 
L 138.554182 292.604034 
L 143.222026 292.042176 
L 147.30639 291.325474 
L 150.807273 290.474496 
L 153.724675 289.541732 
L 156.642078 288.344599 
L 158.976 287.148662 
L 161.309922 285.692063 
L 163.643844 283.920637 
L 165.394286 282.347098 
L 167.144727 280.529159 
L 168.895169 278.431905 
L 170.64561 276.016117 
L 172.396052 273.238391 
L 174.146494 270.051378 
L 175.896935 266.403781 
L 177.647377 262.24084 
L 179.397818 257.505397 
L 181.14826 252.139464 
L 182.898701 246.085765 
L 184.649143 239.291211 
L 186.399584 231.710128 
L 188.150026 223.309034 
L 190.483948 210.808371 
L 192.81787 196.85912 
L 195.151792 181.602851 
L 198.652675 156.922331 
L 203.904 119.419983 
L 206.237922 104.493487 
L 207.988364 94.766844 
L 209.155325 89.184728 
L 210.322286 84.4396 
L 211.489247 80.617074 
L 212.656208 77.787694 
L 213.239688 76.762502 
L 213.823169 76.003952 
L 214.406649 75.51527 
L 214.99013 75.298609 
L 215.57361 75.354927 
L 216.157091 75.683265 
L 216.740571 76.281832 
L 217.324052 77.147637 
L 217.907532 78.275897 
L 219.074494 81.295154 
L 220.241455 85.280057 
L 221.408416 90.1542 
L 222.575377 95.828145 
L 224.325818 105.618759 
L 226.65974 120.497067 
L 230.160623 144.980417 
L 234.828468 177.779966 
L 237.74587 196.650232 
L 240.079792 210.344919 
L 242.413714 222.644346 
L 244.747636 233.517545 
L 246.498078 240.758572 
L 248.248519 247.25432 
L 249.998961 253.049749 
L 251.749403 258.196391 
L 253.499844 262.748055 
L 255.250286 266.759262 
L 257.000727 270.283463 
L 258.751169 273.371711 
L 260.50161 276.071358 
L 262.252052 278.426883 
L 264.002494 280.478581 
L 265.752935 282.262921 
L 268.086857 284.282455 
L 270.420779 285.952964 
L 272.754701 287.332561 
L 275.088623 288.470267 
L 278.006026 289.615028 
L 280.923429 290.5124 
L 284.424312 291.336116 
L 288.508675 292.03536 
L 293.176519 292.58861 
L 299.011325 293.033409 
L 306.596571 293.363183 
L 317.099221 293.578169 
L 335.187117 293.695348 
L 392.951688 293.727034 
L 497.978182 293.727273 
L 497.978182 293.727273 
" style="fill:none;stroke:#ff7f0e;stroke-linecap:square;stroke-width:1.5;"/>
   </g>
   <g id="line2d_16">
    <path clip-path="url(#p0f6fa528fa)" d="M 89.541818 293.727273 
L 112.881039 293.620616 
L 126.884571 293.385303 
L 135.636779 293.019061 
L 141.471584 292.57737 
L 146.139429 292.033567 
L 150.223792 291.351899 
L 153.724675 290.554608 
L 156.642078 289.691553 
L 159.559481 288.597011 
L 161.893403 287.514546 
L 164.227325 286.208605 
L 166.561247 284.634947 
L 168.895169 282.741678 
L 170.64561 281.07631 
L 172.396052 279.168813 
L 174.146494 276.987263 
L 175.896935 274.496863 
L 177.647377 271.65995 
L 179.397818 268.435631 
L 181.14826 264.781219 
L 182.898701 260.652355 
L 184.649143 256.004199 
L 186.399584 250.793467 
L 188.150026 244.979744 
L 189.900468 238.528954 
L 192.23439 228.895813 
L 194.568312 218.067932 
L 196.902234 206.087756 
L 199.819636 189.695215 
L 203.904 165.038011 
L 207.988364 140.531464 
L 210.322286 127.826696 
L 212.072727 119.438038 
L 213.823169 112.340853 
L 214.99013 108.453639 
L 216.157091 105.318399 
L 217.324052 102.987984 
L 217.907532 102.137604 
L 218.491013 101.50221 
L 219.074494 101.084433 
L 219.657974 100.885947 
L 220.241455 100.90735 
L 220.824935 101.148403 
L 221.408416 101.607671 
L 221.991896 102.283001 
L 222.575377 103.171046 
L 223.742338 105.567702 
L 224.909299 108.753879 
L 226.07626 112.673377 
L 227.243221 117.259835 
L 228.993662 125.225096 
L 230.744104 134.248072 
L 233.078026 147.433989 
L 242.997195 205.260452 
L 245.331117 217.083035 
L 247.665039 227.798521 
L 249.998961 237.363746 
L 252.332883 245.794254 
L 254.083325 251.405186 
L 255.833766 256.442542 
L 257.584208 260.944583 
L 259.334649 264.952802 
L 261.085091 268.509166 
L 262.835532 271.655526 
L 264.585974 274.431817 
L 266.336416 276.875943 
L 268.086857 279.023656 
L 270.420779 281.48213 
L 272.754701 283.541481 
L 275.088623 285.262449 
L 277.422545 286.698362 
L 279.756468 287.894419 
L 282.67387 289.111161 
L 285.591273 290.076568 
L 289.092156 290.974298 
L 293.176519 291.748154 
L 297.844364 292.370873 
L 303.095688 292.841141 
L 310.097455 293.225319 
L 319.433143 293.492079 
L 334.020156 293.655411 
L 364.361143 293.721175 
L 497.978182 293.727273 
L 497.978182 293.727273 
" style="fill:none;stroke:#2ca02c;stroke-linecap:square;stroke-width:1.5;"/>
   </g>
   <g id="line2d_17">
    <path clip-path="url(#p0f6fa528fa)" d="M 89.541818 293.727273 
L 114.631481 293.618823 
L 129.218494 293.383031 
L 137.970701 293.039268 
L 144.388987 292.584664 
L 149.640312 291.997935 
L 153.724675 291.341616 
L 157.225558 290.586055 
L 160.726442 289.594223 
L 163.643844 288.536031 
L 166.561247 287.212273 
L 168.895169 285.920083 
L 171.229091 284.379067 
L 173.563013 282.544508 
L 175.896935 280.365468 
L 177.647377 278.470526 
L 179.397818 276.322215 
L 181.14826 273.891242 
L 182.898701 271.146876 
L 184.649143 268.056236 
L 186.399584 264.585962 
L 188.150026 260.702215 
L 189.900468 256.372234 
L 191.650909 251.565648 
L 193.984831 244.370536 
L 196.318753 236.239192 
L 198.652675 227.160856 
L 200.986597 217.17056 
L 203.904 203.553833 
L 207.988364 183.075593 
L 212.656208 159.700296 
L 214.99013 149.083096 
L 216.740571 142.007912 
L 218.491013 135.932571 
L 219.657974 132.535593 
L 220.824935 129.72104 
L 221.991896 127.532315 
L 223.158857 126.002778 
L 223.742338 125.493291 
L 224.325818 125.156463 
L 224.909299 124.993729 
L 225.492779 125.005566 
L 226.07626 125.191736 
L 226.65974 125.551282 
L 227.243221 126.082651 
L 228.410182 127.65045 
L 229.577143 129.868948 
L 230.744104 132.701556 
L 231.911065 136.103675 
L 233.661506 142.159288 
L 235.411948 149.181622 
L 237.74587 159.681523 
L 241.246753 176.849713 
L 247.081558 205.649891 
L 249.998961 218.855538 
L 252.332883 228.518092 
L 254.666805 237.290211 
L 257.000727 245.148218 
L 259.334649 252.108137 
L 261.668571 258.214327 
L 264.002494 263.528726 
L 265.752935 267.03798 
L 267.503377 270.173697 
L 269.253818 272.967565 
L 271.58774 276.214842 
L 273.921662 278.979295 
L 276.255584 281.325135 
L 278.589506 283.310352 
L 280.923429 284.986721 
L 283.257351 286.399558 
L 285.591273 287.58844 
L 288.508675 288.811161 
L 291.426078 289.793187 
L 294.926961 290.718658 
L 299.011325 291.528863 
L 303.679169 292.192475 
L 308.930494 292.703636 
L 315.348779 293.103716 
L 324.100987 293.410293 
L 336.937558 293.609855 
L 360.276779 293.707902 
L 439.63013 293.727273 
L 497.978182 293.727273 
L 497.978182 293.727273 
" style="fill:none;stroke:#d62728;stroke-linecap:square;stroke-width:1.5;"/>
   </g>
   <g id="line2d_18">
    <path clip-path="url(#p0f6fa528fa)" d="M 89.541818 293.727273 
L 116.381922 293.619182 
L 131.552416 293.389368 
L 140.888104 293.046801 
L 147.88987 292.57749 
L 153.141195 292.024479 
L 157.809039 291.315311 
L 161.893403 290.458713 
L 165.394286 289.489958 
L 168.311688 288.470626 
L 171.229091 287.211676 
L 173.563013 285.996846 
L 175.896935 284.562846 
L 178.230857 282.873683 
L 180.564779 280.887988 
L 182.898701 278.559964 
L 185.232623 275.838795 
L 187.566545 272.669717 
L 189.900468 268.994859 
L 192.23439 264.755273 
L 194.568312 259.893565 
L 196.902234 254.358201 
L 199.236156 248.108527 
L 201.570078 241.122064 
L 203.904 233.403236 
L 206.237922 224.99186 
L 209.155325 213.639904 
L 213.823169 194.294228 
L 217.907532 177.570121 
L 220.241455 168.830765 
L 221.991896 162.957377 
L 223.742338 157.844931 
L 224.909299 154.932929 
L 226.07626 152.464052 
L 227.243221 150.472019 
L 228.410182 148.984331 
L 229.577143 148.021914 
L 230.160623 147.741882 
L 230.744104 147.597681 
L 231.327584 147.58955 
L 231.911065 147.71737 
L 232.494545 147.980423 
L 233.661506 148.908046 
L 234.828468 150.35771 
L 235.995429 152.307774 
L 237.16239 154.72954 
L 238.329351 157.588813 
L 240.079792 162.61182 
L 241.830234 168.384411 
L 244.164156 176.97562 
L 247.665039 191.023397 
L 254.083325 217.097384 
L 257.000727 228.001551 
L 259.334649 236.030782 
L 261.668571 243.37153 
L 264.002494 250.000002 
L 266.336416 255.922293 
L 268.670338 261.166505 
L 271.00426 265.774844 
L 273.338182 269.798607 
L 275.672104 273.292317 
L 278.006026 276.311813 
L 280.339948 278.91126 
L 282.67387 281.141476 
L 285.007792 283.049571 
L 287.341714 284.678231 
L 289.675636 286.06524 
L 292.593039 287.510959 
L 295.510442 288.688721 
L 298.427844 289.646595 
L 301.928727 290.561423 
L 306.013091 291.375096 
L 310.680935 292.053774 
L 315.93226 292.587055 
L 322.350545 293.014517 
L 331.102753 293.351943 
L 343.355844 293.574582 
L 363.777662 293.693195 
L 422.125714 293.726914 
L 497.978182 293.727273 
L 497.978182 293.727273 
" style="fill:none;stroke:#9467bd;stroke-linecap:square;stroke-width:1.5;"/>
   </g>
   <g id="line2d_19">
    <path clip-path="url(#p0f6fa528fa)" d="M 89.541818 293.727273 
L 118.715844 293.617029 
L 135.053299 293.376335 
L 144.972468 293.01918 
L 151.974234 292.56613 
L 157.809039 291.975217 
L 162.476883 291.294625 
L 166.561247 290.488127 
L 170.06213 289.590756 
L 173.563013 288.450299 
L 176.480416 287.269667 
L 179.397818 285.833753 
L 181.73174 284.46731 
L 184.065662 282.875477 
L 186.399584 281.025493 
L 188.733506 278.881009 
L 191.067429 276.403045 
L 193.401351 273.550348 
L 195.735273 270.280473 
L 198.069195 266.55145 
L 200.403117 262.32406 
L 202.737039 257.564824 
L 205.070961 252.250544 
L 207.404883 246.372613 
L 209.738805 239.942986 
L 212.656208 231.192869 
L 216.157091 219.857294 
L 224.909299 190.893424 
L 227.243221 184.150166 
L 228.993662 179.687343 
L 230.744104 175.858838 
L 231.911065 173.708973 
L 233.078026 171.912198 
L 234.244987 170.490274 
L 235.411948 169.461256 
L 236.578909 168.8377 
L 237.74587 168.627377 
L 238.912831 168.8322 
L 240.079792 169.448941 
L 241.246753 170.468751 
L 242.413714 171.878001 
L 243.580675 173.657917 
L 244.747636 175.785661 
L 246.498078 179.571121 
L 248.248519 183.978344 
L 250.582442 190.630251 
L 253.499844 199.809983 
L 264.002494 233.929343 
L 266.919896 242.303533 
L 269.253818 248.427898 
L 271.58774 254.011448 
L 273.921662 259.051196 
L 276.255584 263.56101 
L 278.589506 267.567196 
L 280.923429 271.103353 
L 283.257351 274.207863 
L 285.591273 276.920662 
L 287.925195 279.282166 
L 290.259117 281.330516 
L 292.593039 283.102181 
L 294.926961 284.631001 
L 297.844364 286.246269 
L 300.761766 287.582342 
L 303.679169 288.684775 
L 307.180052 289.754327 
L 310.680935 290.599805 
L 314.765299 291.363976 
L 319.433143 292.013001 
L 325.267948 292.580838 
L 332.269714 293.020496 
L 341.021922 293.34166 
L 353.858494 293.568723 
L 374.863792 293.690326 
L 429.710961 293.726436 
L 497.978182 293.727273 
L 497.978182 293.727273 
" style="fill:none;stroke:#8c564b;stroke-linecap:square;stroke-width:1.5;"/>
   </g>
   <g id="line2d_20">
    <path clip-path="url(#p0f6fa528fa)" d="M 89.541818 293.727273 
L 121.049766 293.617627 
L 137.970701 293.389608 
L 148.473351 293.048953 
L 156.642078 292.561348 
L 162.476883 292.012642 
L 167.728208 291.303354 
L 172.396052 290.434081 
L 176.480416 289.426467 
L 179.981299 288.327262 
L 182.898701 287.206414 
L 185.816104 285.86233 
L 188.733506 284.254715 
L 191.067429 282.748374 
L 193.401351 281.018678 
L 195.735273 279.038243 
L 198.069195 276.778015 
L 200.403117 274.208341 
L 202.737039 271.299806 
L 205.070961 268.02443 
L 207.404883 264.358181 
L 209.738805 260.282286 
L 212.072727 255.787419 
L 214.406649 250.875731 
L 217.324052 244.180181 
L 220.241455 236.944893 
L 224.325818 226.188275 
L 230.160623 210.735673 
L 233.078026 203.67424 
L 235.411948 198.681483 
L 237.16239 195.444968 
L 238.912831 192.726788 
L 240.079792 191.234916 
L 241.246753 190.018532 
L 242.413714 189.09091 
L 243.580675 188.462451 
L 244.747636 188.139852 
L 245.914597 188.12646 
L 247.081558 188.422156 
L 248.248519 189.022755 
L 249.415481 189.921322 
L 250.582442 191.106856 
L 251.749403 192.565608 
L 253.499844 195.230101 
L 255.250286 198.40731 
L 257.000727 202.023818 
L 259.334649 207.393458 
L 262.252052 214.717586 
L 273.338182 243.290462 
L 276.255584 249.949304 
L 279.172987 256.01209 
L 281.506909 260.408552 
L 283.840831 264.399433 
L 286.174753 267.995016 
L 288.508675 271.213237 
L 290.842597 274.077412 
L 293.176519 276.614085 
L 295.510442 278.851236 
L 297.844364 280.816844 
L 300.178286 282.538768 
L 303.095688 284.387676 
L 306.013091 285.943638 
L 308.930494 287.248862 
L 312.431377 288.537226 
L 315.93226 289.574733 
L 320.016623 290.530096 
L 324.684468 291.359073 
L 329.935792 292.039784 
L 335.770597 292.570435 
L 343.355844 293.020017 
L 353.275013 293.356128 
L 367.278545 293.57805 
L 391.201247 293.695826 
L 460.635429 293.727034 
L 497.978182 293.727273 
L 497.978182 293.727273 
" style="fill:none;stroke:#e377c2;stroke-linecap:square;stroke-width:1.5;"/>
   </g>
   <g id="line2d_21">
    <path clip-path="url(#p0f6fa528fa)" d="M 89.541818 293.727273 
L 123.967169 293.617388 
L 142.638545 293.377292 
L 153.724675 293.031855 
L 161.893403 292.575457 
L 168.311688 292.016827 
L 174.146494 291.280157 
L 178.814338 290.472703 
L 182.898701 289.555841 
L 186.399584 288.573097 
L 189.900468 287.367953 
L 193.401351 285.894495 
L 196.318753 284.424145 
L 199.236156 282.697198 
L 202.153558 280.677067 
L 205.070961 278.325009 
L 207.404883 276.178134 
L 209.738805 273.774422 
L 212.072727 271.096178 
L 214.406649 268.128456 
L 216.740571 264.860853 
L 219.657974 260.349365 
L 222.575377 255.374305 
L 225.492779 249.974055 
L 228.993662 243.037213 
L 240.079792 220.562636 
L 242.413714 216.482675 
L 244.164156 213.75218 
L 245.914597 211.362697 
L 247.665039 209.362892 
L 249.415481 207.794136 
L 250.582442 207.004976 
L 251.749403 206.430084 
L 252.916364 206.075321 
L 254.083325 205.943674 
L 255.250286 206.03646 
L 256.417247 206.352364 
L 257.584208 206.887797 
L 258.751169 207.637261 
L 259.91813 208.593102 
L 261.668571 210.392029 
L 263.419013 212.594146 
L 265.169455 215.153059 
L 267.503377 219.032262 
L 270.420779 224.451763 
L 274.505143 232.660349 
L 281.506909 246.853642 
L 285.007792 253.4356 
L 287.925195 258.492207 
L 290.842597 263.108318 
L 293.76 267.265162 
L 296.677403 270.965967 
L 299.594805 274.229027 
L 302.512208 277.08256 
L 305.42961 279.560883 
L 308.347013 281.700823 
L 311.264416 283.539568 
L 314.181818 285.112987 
L 317.099221 286.45456 
L 320.600104 287.801752 
L 324.100987 288.906936 
L 328.185351 289.944324 
L 332.853195 290.864174 
L 338.104519 291.637791 
L 343.939325 292.256923 
L 350.941091 292.764138 
L 359.693299 293.160512 
L 371.362909 293.448197 
L 388.867325 293.630899 
L 421.542234 293.71412 
L 497.978182 293.727153 
L 497.978182 293.727153 
" style="fill:none;stroke:#7f7f7f;stroke-linecap:square;stroke-width:1.5;"/>
   </g>
   <g id="line2d_22">
    <path clip-path="url(#p0f6fa528fa)" d="M 89.541818 293.727273 
L 127.468052 293.617149 
L 147.30639 293.383031 
L 159.559481 293.032572 
L 168.311688 292.581675 
L 175.313455 292.020533 
L 181.14826 291.351301 
L 186.399584 290.532607 
L 191.067429 289.578081 
L 195.151792 288.520367 
L 198.652675 287.411835 
L 202.153558 286.081143 
L 205.654442 284.490506 
L 208.571844 282.936458 
L 211.489247 281.148052 
L 214.406649 279.099702 
L 217.324052 276.767613 
L 220.241455 274.129425 
L 223.158857 271.168877 
L 226.07626 267.87712 
L 228.993662 264.255949 
L 232.494545 259.501376 
L 235.995429 254.364179 
L 241.246753 246.204258 
L 247.081558 237.188457 
L 249.998961 233.043929 
L 252.332883 230.051455 
L 254.666805 227.43766 
L 256.417247 225.773248 
L 258.167688 224.395685 
L 259.91813 223.329959 
L 261.668571 222.59592 
L 262.835532 222.297713 
L 264.002494 222.155784 
L 265.169455 222.17073 
L 266.336416 222.342671 
L 267.503377 222.669695 
L 269.253818 223.444148 
L 271.00426 224.545267 
L 272.754701 225.951766 
L 274.505143 227.637581 
L 276.839065 230.26692 
L 279.172987 233.259752 
L 282.09039 237.38503 
L 286.174753 243.589028 
L 294.343481 256.087061 
L 297.844364 261.037489 
L 301.345247 265.588196 
L 304.262649 269.038621 
L 307.180052 272.166567 
L 310.097455 274.974903 
L 313.014857 277.475107 
L 315.93226 279.685116 
L 318.849662 281.626929 
L 321.767065 283.323864 
L 325.267948 285.071376 
L 328.768831 286.542324 
L 332.269714 287.775088 
L 336.354078 288.958232 
L 340.438442 289.912996 
L 345.106286 290.777366 
L 350.35761 291.521808 
L 356.192416 292.133407 
L 363.194182 292.649471 
L 371.94639 293.067487 
L 383.616 293.384944 
L 400.536935 293.595148 
L 429.710961 293.701804 
L 497.978182 293.726675 
L 497.978182 293.726675 
" style="fill:none;stroke:#bcbd22;stroke-linecap:square;stroke-width:1.5;"/>
   </g>
   <g id="line2d_23">
    <path clip-path="url(#p0f6fa528fa)" d="M 89.541818 293.727273 
L 131.552416 293.618106 
L 153.141195 293.386738 
L 166.561247 293.037953 
L 176.480416 292.568522 
L 184.065662 292.006783 
L 190.483948 291.327866 
L 196.318753 290.487649 
L 201.570078 289.49235 
L 206.237922 288.3666 
L 210.322286 287.154162 
L 214.406649 285.689193 
L 217.907532 284.201147 
L 221.408416 282.470135 
L 224.909299 280.469852 
L 228.410182 278.176623 
L 231.911065 275.572034 
L 235.411948 272.646759 
L 238.912831 269.405103 
L 242.413714 265.869304 
L 246.498078 261.4347 
L 254.083325 252.756085 
L 258.751169 247.58804 
L 261.668571 244.633829 
L 264.585974 242.015011 
L 266.919896 240.22828 
L 269.253818 238.766061 
L 271.00426 237.906473 
L 272.754701 237.26546 
L 274.505143 236.853064 
L 276.255584 236.675502 
L 278.006026 236.735646 
L 279.756468 237.03194 
L 281.506909 237.559602 
L 283.257351 238.309185 
L 285.007792 239.268852 
L 287.341714 240.84813 
L 289.675636 242.730517 
L 292.593039 245.435903 
L 296.093922 249.066759 
L 300.761766 254.278448 
L 308.930494 263.437255 
L 313.014857 267.677439 
L 316.51574 271.022882 
L 320.016623 274.067727 
L 323.517506 276.800375 
L 327.01839 279.224055 
L 330.519273 281.352517 
L 334.020156 283.206327 
L 337.521039 284.809399 
L 341.021922 286.18756 
L 345.106286 287.545634 
L 349.190649 288.671264 
L 353.858494 289.718815 
L 359.109818 290.647514 
L 364.944623 291.434881 
L 371.362909 292.073981 
L 378.948156 292.606067 
L 388.283844 293.033529 
L 400.536935 293.358519 
L 418.041351 293.57805 
L 447.215377 293.694391 
L 497.978182 293.724881 
L 497.978182 293.724881 
" style="fill:none;stroke:#17becf;stroke-linecap:square;stroke-width:1.5;"/>
   </g>
   <g id="line2d_24">
    <path clip-path="url(#p0f6fa528fa)" d="M 89.541818 293.727273 
L 136.80374 293.618345 
L 160.726442 293.385901 
L 175.896935 293.024202 
L 186.983065 292.538271 
L 195.735273 291.931932 
L 202.737039 291.237232 
L 209.155325 290.375851 
L 214.406649 289.465088 
L 219.657974 288.323675 
L 224.325818 287.076562 
L 228.410182 285.775881 
L 232.494545 284.253878 
L 236.578909 282.486995 
L 240.663273 280.455982 
L 244.747636 278.148285 
L 248.832 275.562947 
L 252.916364 272.715153 
L 257.584208 269.187008 
L 264.585974 263.568423 
L 271.00426 258.491011 
L 274.505143 255.95649 
L 277.422545 254.066211 
L 280.339948 252.439943 
L 282.67387 251.365608 
L 285.007792 250.518456 
L 287.341714 249.918096 
L 289.675636 249.578398 
L 292.009558 249.507135 
L 294.343481 249.705501 
L 296.677403 250.168714 
L 299.011325 250.884698 
L 301.345247 251.836713 
L 303.679169 253.002758 
L 306.596571 254.721932 
L 310.097455 257.094197 
L 314.181818 260.160325 
L 322.934026 267.133635 
L 328.768831 271.612959 
L 333.436675 274.907585 
L 337.521039 277.523174 
L 341.605403 279.869373 
L 345.689766 281.944267 
L 349.77413 283.757663 
L 353.858494 285.327136 
L 357.942857 286.674209 
L 362.610701 287.972139 
L 367.278545 289.045757 
L 372.52987 290.027425 
L 378.364675 290.887131 
L 384.782961 291.609931 
L 392.368208 292.235042 
L 401.703896 292.759953 
L 412.790026 293.150707 
L 427.960519 293.444012 
L 449.549299 293.624562 
L 491.559896 293.713044 
L 497.978182 293.716751 
L 497.978182 293.716751 
" style="fill:none;stroke:#1f77b4;stroke-linecap:square;stroke-width:1.5;"/>
   </g>
   <g id="patch_3">
    <path d="M 69.12 306 
L 69.12 36 
" style="fill:none;stroke:#000000;stroke-linecap:square;stroke-linejoin:miter;stroke-width:0.8;"/>
   </g>
   <g id="patch_4">
    <path d="M 518.4 306 
L 518.4 36 
" style="fill:none;stroke:#000000;stroke-linecap:square;stroke-linejoin:miter;stroke-width:0.8;"/>
   </g>
   <g id="patch_5">
    <path d="M 69.12 306 
L 518.4 306 
" style="fill:none;stroke:#000000;stroke-linecap:square;stroke-linejoin:miter;stroke-width:0.8;"/>
   </g>
   <g id="patch_6">
    <path d="M 69.12 36 
L 518.4 36 
" style="fill:none;stroke:#000000;stroke-linecap:square;stroke-linejoin:miter;stroke-width:0.8;"/>
   </g>
   <g id="text_16">
    <!-- 无症状感染者 -->
    <defs>
     <path d="M 67.96875 73.828125 
Q 76.171875 73.828125 82.8125 74.21875 
L 82.8125 66.796875 
Q 76.953125 67.1875 67.96875 67.1875 
L 49.609375 67.1875 
Q 49.609375 54.296875 48.828125 43.75 
L 78.90625 43.75 
Q 85.9375 43.75 91.796875 44.140625 
L 91.796875 36.71875 
Q 85.9375 37.109375 79.296875 37.109375 
L 61.71875 37.109375 
L 61.71875 6.640625 
Q 61.71875 1.5625 67.578125 1.5625 
L 80.859375 1.5625 
Q 85.15625 1.5625 85.546875 13.28125 
Q 89.453125 10.9375 94.140625 9.765625 
Q 92.1875 -5.46875 85.15625 -5.46875 
L 63.671875 -5.46875 
Q 54.6875 -5.078125 54.6875 4.6875 
L 54.6875 37.109375 
L 48.046875 37.109375 
Q 44.921875 22.265625 40.421875 14.640625 
Q 35.9375 7.03125 30.078125 1.75 
Q 24.21875 -3.515625 12.5 -10.15625 
Q 10.546875 -5.859375 5.859375 -3.515625 
Q 15.234375 0.78125 21.09375 5.265625 
Q 26.953125 9.765625 32.21875 16.40625 
Q 37.5 23.046875 40.625 37.109375 
L 23.4375 37.109375 
Q 13.671875 37.109375 9.375 36.71875 
L 9.375 44.140625 
Q 13.671875 43.75 23.4375 43.75 
L 41.40625 43.75 
Q 41.796875 55.46875 41.796875 67.1875 
L 31.25 67.1875 
Q 23.4375 67.1875 16.796875 66.796875 
L 16.796875 74.21875 
Q 23.4375 73.828125 31.25 73.828125 
z
" id="SimHei-26080"/>
     <path d="M 77.734375 52.734375 
Q 85.15625 52.734375 93.359375 53.125 
L 93.359375 46.09375 
Q 85.546875 46.484375 77.734375 46.484375 
L 68.359375 46.484375 
L 68.359375 30.078125 
L 77.734375 30.078125 
Q 82.8125 30.078125 91.015625 30.46875 
L 91.015625 23.046875 
Q 83.203125 23.4375 77.734375 23.4375 
L 68.359375 23.4375 
L 68.359375 1.5625 
L 79.6875 1.5625 
Q 86.71875 1.5625 95.703125 1.953125 
L 95.703125 -5.078125 
Q 86.328125 -4.6875 80.078125 -4.6875 
L 44.53125 -4.6875 
Q 37.109375 -4.6875 28.125 -5.078125 
L 28.125 1.953125 
Q 33.59375 1.5625 40.234375 1.5625 
L 40.234375 22.65625 
Q 40.234375 26.953125 39.84375 34.375 
L 48.046875 34.375 
Q 47.65625 28.125 47.65625 22.65625 
L 47.65625 1.5625 
L 60.15625 1.5625 
L 60.15625 46.484375 
L 49.21875 46.484375 
Q 42.578125 46.484375 35.15625 46.09375 
L 35.15625 53.125 
Q 42.578125 52.734375 49.21875 52.734375 
z
M 60.9375 82.421875 
Q 62.5 76.171875 64.453125 69.921875 
L 79.296875 69.921875 
Q 85.546875 69.921875 95.3125 70.3125 
L 95.3125 62.890625 
Q 85.546875 63.28125 79.296875 63.28125 
L 28.90625 63.28125 
L 28.90625 46.09375 
Q 28.90625 36.328125 28.515625 25.96875 
Q 28.125 15.625 25.78125 7.609375 
Q 23.4375 -0.390625 16.796875 -10.9375 
Q 13.671875 -8.59375 8.59375 -6.25 
Q 13.28125 -1.953125 16.40625 4.09375 
Q 19.53125 10.15625 20.5 16.59375 
Q 21.484375 23.046875 21.484375 27.734375 
Q 15.625 23.828125 8.203125 18.75 
Q 6.25 22.65625 3.90625 26.953125 
Q 7.421875 28.125 21.484375 34.375 
L 21.484375 53.90625 
Q 21.484375 62.5 21.09375 69.921875 
L 54.6875 69.921875 
Q 53.515625 75.78125 51.953125 80.46875 
Q 56.25 81.25 60.9375 82.421875 
z
M 8.59375 61.328125 
Q 14.453125 55.078125 20.3125 48.046875 
Q 17.96875 46.484375 14.453125 42.96875 
Q 9.375 50 3.515625 56.25 
Q 6.640625 58.984375 8.59375 61.328125 
z
" id="SimHei-30151"/>
     <path d="M 34.765625 -4.296875 
Q 41.796875 0.390625 46.484375 7.421875 
Q 51.171875 14.453125 53.90625 21.09375 
Q 56.640625 27.734375 57.8125 33.984375 
Q 58.984375 40.234375 59.375 44.921875 
L 50.390625 44.921875 
Q 44.53125 44.921875 39.0625 44.53125 
L 39.0625 51.953125 
Q 44.53125 51.5625 50 51.5625 
L 59.765625 51.5625 
Q 59.765625 62.109375 59.5625 68.359375 
Q 59.375 74.609375 58.984375 79.296875 
L 69.140625 79.296875 
Q 67.96875 74.21875 67.765625 68.9375 
Q 67.578125 63.671875 67.578125 51.5625 
L 83.59375 51.5625 
Q 87.890625 51.5625 93.359375 51.953125 
L 93.359375 44.53125 
Q 87.890625 44.921875 83.59375 44.921875 
L 68.359375 44.921875 
Q 73.046875 22.65625 78.3125 15.03125 
Q 83.59375 7.421875 87.890625 4.09375 
Q 92.1875 0.78125 95.703125 -1.171875 
Q 90.234375 -3.515625 87.890625 -8.203125 
Q 81.640625 -3.125 77.921875 1.75 
Q 74.21875 6.640625 71.671875 11.328125 
Q 69.140625 16.015625 67.375 20.890625 
Q 65.625 25.78125 64.453125 31.25 
Q 62.5 21.875 59.5625 15.234375 
Q 56.640625 8.59375 53.515625 3.703125 
Q 50.390625 -1.171875 42.96875 -9.765625 
Q 39.453125 -6.25 34.765625 -4.296875 
z
M 34.765625 81.25 
Q 34.375 75.390625 34.375 66.40625 
L 34.375 12.109375 
Q 34.375 0.78125 34.765625 -9.765625 
L 26.171875 -9.765625 
Q 26.5625 1.171875 26.5625 12.109375 
L 26.5625 30.46875 
Q 23.828125 27.34375 18.75 21.09375 
Q 13.671875 14.84375 10.9375 11.71875 
Q 7.8125 15.625 4.296875 17.96875 
Q 8.984375 21.484375 14.25 26.75 
Q 19.53125 32.03125 26.5625 40.625 
L 26.5625 66.40625 
Q 26.5625 75.390625 26.171875 81.25 
L 34.765625 81.25 
z
M 9.765625 67.578125 
Q 12.5 64.453125 15.625 60.546875 
Q 18.75 56.640625 21.484375 52.734375 
Q 18.359375 50.390625 16.40625 48.046875 
Q 13.28125 52.34375 3.90625 63.28125 
Q 6.25 65.234375 9.765625 67.578125 
z
M 85.546875 57.03125 
Q 82.03125 62.109375 73.4375 69.921875 
Q 76.5625 72.265625 78.515625 74.21875 
Q 82.03125 71.484375 84.765625 68.546875 
Q 87.5 65.625 91.015625 62.109375 
Q 87.890625 59.375 85.546875 57.03125 
z
" id="SimHei-29366"/>
     <path d="M 95.703125 29.6875 
Q 92.1875 18.75 89.453125 17.375 
Q 86.71875 16.015625 81.828125 17.765625 
Q 76.953125 19.53125 69.140625 26.5625 
Q 64.453125 21.484375 58.203125 17.1875 
Q 55.46875 20.3125 52.34375 21.875 
Q 60.546875 26.5625 65.234375 32.03125 
Q 60.9375 39.0625 58.78125 47.453125 
Q 56.640625 55.859375 55.859375 63.28125 
L 20.703125 63.28125 
Q 20.703125 45.703125 20.109375 39.453125 
Q 19.53125 33.203125 17.578125 27.734375 
Q 15.625 22.265625 11.71875 16.015625 
Q 7.03125 19.140625 4.296875 19.921875 
Q 8.984375 25.78125 11.125 31.4375 
Q 13.28125 37.109375 13.671875 44.53125 
Q 14.0625 51.953125 13.671875 69.53125 
L 55.078125 69.53125 
Q 55.078125 72.65625 54.6875 80.859375 
Q 58.203125 80.078125 62.890625 79.6875 
Q 62.109375 75 62.5 69.53125 
L 79.6875 69.53125 
Q 85.15625 69.53125 92.578125 69.921875 
L 92.578125 62.890625 
Q 85.15625 63.28125 80.078125 63.28125 
L 62.890625 63.28125 
Q 64.453125 46.875 69.53125 38.671875 
Q 71.875 42.578125 73.828125 48.234375 
Q 75.78125 53.90625 76.953125 58.984375 
Q 80.859375 57.421875 85.15625 56.25 
Q 83.59375 54.6875 81.046875 47.65625 
Q 78.515625 40.625 73.828125 32.03125 
Q 78.125 28.125 81.4375 26.171875 
Q 84.765625 24.21875 85.734375 25.390625 
Q 86.71875 26.5625 88.28125 33.59375 
Q 91.40625 30.859375 95.703125 29.6875 
z
M 51.953125 25 
L 24.609375 25 
L 24.609375 44.921875 
L 51.953125 44.921875 
z
M 76.171875 2.734375 
Q 73.4375 -5.078125 71.484375 -6.4375 
Q 69.53125 -7.8125 66.40625 -7.8125 
L 36.71875 -7.8125 
Q 31.640625 -7.421875 30.65625 -3.125 
Q 29.6875 1.171875 29.6875 5.078125 
Q 29.6875 8.984375 29.296875 14.453125 
L 37.5 14.453125 
Q 37.109375 7.8125 37.109375 5.078125 
Q 37.109375 2.734375 37.5 0.390625 
Q 37.890625 -1.953125 42.578125 -1.5625 
L 60.546875 -1.5625 
Q 64.453125 -1.5625 65.8125 -0.1875 
Q 67.1875 1.171875 67.96875 7.03125 
Q 71.09375 4.6875 76.171875 2.734375 
z
M 51.5625 51.171875 
L 25 51.171875 
L 25 57.03125 
L 51.5625 57.03125 
z
M 83.59375 14.0625 
Q 92.1875 3.515625 94.921875 -0.78125 
Q 91.015625 -3.125 87.890625 -5.46875 
Q 83.984375 1.953125 77.34375 9.375 
Q 80.078125 11.328125 83.59375 14.0625 
z
M 7.421875 -2.734375 
Q 10.9375 1.5625 15.234375 14.453125 
Q 18.359375 12.890625 22.65625 11.328125 
Q 17.578125 -0.390625 14.84375 -5.859375 
Q 11.71875 -4.296875 7.421875 -2.734375 
z
M 45.703125 30.46875 
L 45.703125 39.453125 
L 30.859375 39.453125 
L 30.859375 30.46875 
z
M 42.578125 16.40625 
Q 44.921875 18.359375 48.4375 20.703125 
Q 55.078125 12.109375 57.03125 8.59375 
Q 53.90625 6.640625 51.171875 3.90625 
Q 48.828125 8.203125 42.578125 16.40625 
z
M 76.5625 70.3125 
Q 74.21875 72.265625 67.96875 76.5625 
Q 70.3125 79.296875 71.875 81.640625 
Q 74.609375 80.078125 81.25 75 
Q 78.90625 73.046875 76.5625 70.3125 
z
" id="SimHei-24863"/>
     <path d="M 91.015625 -7.03125 
Q 74.21875 -2.34375 66.40625 3.90625 
Q 58.59375 10.15625 53.90625 17.96875 
Q 53.90625 -4.6875 54.296875 -9.375 
L 46.09375 -9.375 
Q 46.484375 -4.296875 46.484375 16.796875 
Q 40.625 8.59375 31.4375 2.34375 
Q 22.265625 -3.90625 9.765625 -8.984375 
Q 8.59375 -5.078125 3.125 -1.5625 
Q 16.796875 1.5625 25.96875 7.609375 
Q 35.15625 13.671875 38.671875 19.140625 
L 19.140625 19.140625 
Q 13.671875 19.140625 6.25 18.75 
L 6.25 25.78125 
Q 13.671875 25.390625 19.140625 25.390625 
L 46.484375 25.390625 
Q 46.484375 28.515625 46.09375 33.59375 
L 54.296875 33.59375 
Q 53.90625 28.90625 53.90625 25.390625 
L 82.8125 25.390625 
Q 87.890625 25.390625 93.75 25.78125 
L 93.75 18.75 
Q 87.890625 19.140625 82.8125 19.140625 
L 61.71875 19.140625 
Q 67.96875 10.546875 78.125 6.25 
Q 88.28125 1.953125 96.484375 1.171875 
Q 91.40625 -3.90625 91.015625 -7.03125 
z
M 28.515625 35.9375 
Q 39.84375 40.234375 45.703125 47.0625 
Q 51.5625 53.90625 53.125 62.5 
Q 47.265625 62.5 40.234375 62.109375 
L 40.234375 69.140625 
Q 47.65625 68.75 53.515625 68.75 
Q 53.90625 76.953125 53.515625 82.03125 
Q 58.203125 80.859375 62.5 80.859375 
Q 61.328125 78.515625 60.9375 68.75 
L 80.078125 68.75 
Q 79.6875 64.84375 79.296875 60.15625 
L 78.125 44.53125 
Q 78.515625 40.625 80.859375 40.625 
L 85.15625 40.625 
Q 87.109375 40.625 87.6875 42.1875 
Q 88.28125 43.75 88.671875 50 
Q 91.796875 47.265625 96.875 46.875 
Q 95.3125 36.328125 92.375 35.34375 
Q 89.453125 34.375 84.171875 34.171875 
Q 78.90625 33.984375 74.796875 34.953125 
Q 70.703125 35.9375 71.09375 42.1875 
L 72.265625 62.5 
L 60.546875 62.5 
Q 59.375 53.515625 54.296875 45.890625 
Q 49.21875 38.28125 35.546875 30.078125 
Q 33.984375 32.8125 28.515625 35.9375 
z
M 33.984375 45.703125 
Q 19.140625 33.984375 13.28125 29.296875 
Q 10.9375 33.203125 7.8125 35.9375 
Q 17.1875 40.625 31.25 52.734375 
Q 32.03125 49.609375 33.984375 45.703125 
z
M 10.546875 64.84375 
Q 21.484375 59.765625 27.34375 56.25 
Q 24.609375 52.734375 23.046875 49.609375 
Q 19.140625 53.125 7.03125 58.59375 
Q 9.375 61.328125 10.546875 64.84375 
z
M 28.90625 64.84375 
Q 23.046875 69.921875 14.0625 74.609375 
Q 16.015625 76.953125 18.359375 80.078125 
Q 27.34375 75 33.984375 71.09375 
Q 30.46875 67.578125 28.90625 64.84375 
z
" id="SimHei-26579"/>
     <path d="M 88.28125 67.578125 
Q 85.15625 64.84375 81.046875 60.546875 
Q 76.953125 56.25 69.53125 48.828125 
L 80.46875 48.828125 
Q 87.109375 48.828125 94.140625 49.21875 
L 94.140625 42.1875 
Q 87.109375 42.578125 80.078125 42.578125 
L 61.71875 42.578125 
Q 55.46875 37.890625 47.65625 32.421875 
L 80.859375 32.421875 
Q 80.46875 25.390625 80.46875 19.53125 
L 80.46875 5.859375 
Q 80.46875 -1.171875 80.859375 -9.375 
L 73.046875 -9.375 
L 73.046875 -3.515625 
L 35.546875 -3.515625 
L 35.546875 -9.375 
L 27.34375 -9.375 
Q 27.734375 -3.125 27.734375 2.34375 
L 27.734375 20.3125 
Q 19.921875 16.015625 10.15625 11.71875 
Q 6.25 17.1875 4.6875 18.359375 
Q 7.421875 19.140625 15.03125 22.0625 
Q 22.65625 25 27.734375 28.515625 
L 27.734375 32.421875 
L 35.15625 32.421875 
Q 43.75 37.109375 50.390625 42.578125 
L 22.65625 42.578125 
Q 14.453125 42.578125 7.421875 42.1875 
L 7.421875 49.21875 
Q 15.234375 48.828125 22.65625 48.828125 
L 43.359375 48.828125 
L 43.359375 60.9375 
L 31.640625 60.9375 
Q 25 60.9375 19.53125 60.546875 
L 19.53125 67.578125 
Q 25 67.1875 31.640625 67.1875 
L 43.359375 67.1875 
Q 43.359375 73.046875 42.96875 80.46875 
L 51.5625 80.46875 
Q 51.171875 75 51.171875 67.1875 
L 57.03125 67.1875 
Q 62.109375 67.1875 68.75 67.578125 
L 68.75 60.546875 
Q 62.109375 60.9375 57.03125 60.9375 
L 51.171875 60.9375 
L 51.171875 48.828125 
L 58.984375 48.828125 
Q 64.453125 53.125 69.921875 58.984375 
Q 75.390625 64.84375 81.25 73.828125 
Q 85.546875 69.53125 88.28125 67.578125 
z
M 73.046875 2.734375 
L 73.046875 11.71875 
L 35.546875 11.71875 
L 35.546875 2.734375 
z
M 73.046875 17.96875 
L 73.046875 26.171875 
L 35.546875 26.171875 
L 35.546875 17.96875 
z
" id="SimHei-32773"/>
    </defs>
    <g transform="translate(227.76 30)scale(0.22 -0.22)">
     <use xlink:href="#SimHei-26080"/>
     <use x="100" xlink:href="#SimHei-30151"/>
     <use x="200" xlink:href="#SimHei-29366"/>
     <use x="300" xlink:href="#SimHei-24863"/>
     <use x="400" xlink:href="#SimHei-26579"/>
     <use x="500" xlink:href="#SimHei-32773"/>
    </g>
   </g>
   <g id="legend_1">
    <g id="patch_7">
     <path d="M 407.4 266.625 
L 507.9 266.625 
Q 510.9 266.625 510.9 263.625 
L 510.9 46.5 
Q 510.9 43.5 507.9 43.5 
L 407.4 43.5 
Q 404.4 43.5 404.4 46.5 
L 404.4 263.625 
Q 404.4 266.625 407.4 266.625 
z
" style="fill:#ffffff;opacity:0.8;stroke:#cccccc;stroke-linejoin:miter;"/>
    </g>
    <g id="line2d_25">
     <path d="M 410.4 54.75 
L 440.4 54.75 
" style="fill:none;stroke:#1f77b4;stroke-linecap:square;stroke-width:1.5;"/>
    </g>
    <g id="line2d_26"/>
    <g id="text_17">
     <!-- l = 0.0 -->
     <defs>
      <path d="M 28.515625 1.953125 
L 20.703125 1.953125 
L 20.703125 68.75 
L 28.515625 68.75 
z
" id="SimHei-108"/>
      <path id="SimHei-32"/>
      <path d="M 46.484375 45.3125 
L 1.953125 45.3125 
L 1.953125 51.5625 
L 46.484375 51.5625 
z
M 46.484375 21.484375 
L 1.953125 21.484375 
L 1.953125 27.734375 
L 46.484375 27.734375 
z
" id="SimHei-61"/>
      <path d="M 16.796875 1.953125 
L 7.8125 1.953125 
L 7.8125 10.546875 
L 16.796875 10.546875 
z
" id="SimHei-46"/>
     </defs>
     <g transform="translate(452.4 60)scale(0.15 -0.15)">
      <use xlink:href="#SimHei-108"/>
      <use x="50" xlink:href="#SimHei-32"/>
      <use x="100" xlink:href="#SimHei-61"/>
      <use x="150" xlink:href="#SimHei-32"/>
      <use x="200" xlink:href="#SimHei-48"/>
      <use x="250" xlink:href="#SimHei-46"/>
      <use x="300" xlink:href="#SimHei-48"/>
     </g>
    </g>
    <g id="line2d_27">
     <path d="M 410.4 74.625 
L 440.4 74.625 
" style="fill:none;stroke:#ff7f0e;stroke-linecap:square;stroke-width:1.5;"/>
    </g>
    <g id="line2d_28"/>
    <g id="text_18">
     <!-- l = 0.1 -->
     <g transform="translate(452.4 79.875)scale(0.15 -0.15)">
      <use xlink:href="#SimHei-108"/>
      <use x="50" xlink:href="#SimHei-32"/>
      <use x="100" xlink:href="#SimHei-61"/>
      <use x="150" xlink:href="#SimHei-32"/>
      <use x="200" xlink:href="#SimHei-48"/>
      <use x="250" xlink:href="#SimHei-46"/>
      <use x="300" xlink:href="#SimHei-49"/>
     </g>
    </g>
    <g id="line2d_29">
     <path d="M 410.4 94.5 
L 440.4 94.5 
" style="fill:none;stroke:#2ca02c;stroke-linecap:square;stroke-width:1.5;"/>
    </g>
    <g id="line2d_30"/>
    <g id="text_19">
     <!-- l = 0.2 -->
     <g transform="translate(452.4 99.75)scale(0.15 -0.15)">
      <use xlink:href="#SimHei-108"/>
      <use x="50" xlink:href="#SimHei-32"/>
      <use x="100" xlink:href="#SimHei-61"/>
      <use x="150" xlink:href="#SimHei-32"/>
      <use x="200" xlink:href="#SimHei-48"/>
      <use x="250" xlink:href="#SimHei-46"/>
      <use x="300" xlink:href="#SimHei-50"/>
     </g>
    </g>
    <g id="line2d_31">
     <path d="M 410.4 114.375 
L 440.4 114.375 
" style="fill:none;stroke:#d62728;stroke-linecap:square;stroke-width:1.5;"/>
    </g>
    <g id="line2d_32"/>
    <g id="text_20">
     <!-- l = 0.3 -->
     <g transform="translate(452.4 119.625)scale(0.15 -0.15)">
      <use xlink:href="#SimHei-108"/>
      <use x="50" xlink:href="#SimHei-32"/>
      <use x="100" xlink:href="#SimHei-61"/>
      <use x="150" xlink:href="#SimHei-32"/>
      <use x="200" xlink:href="#SimHei-48"/>
      <use x="250" xlink:href="#SimHei-46"/>
      <use x="300" xlink:href="#SimHei-51"/>
     </g>
    </g>
    <g id="line2d_33">
     <path d="M 410.4 134.25 
L 440.4 134.25 
" style="fill:none;stroke:#9467bd;stroke-linecap:square;stroke-width:1.5;"/>
    </g>
    <g id="line2d_34"/>
    <g id="text_21">
     <!-- l = 0.4 -->
     <g transform="translate(452.4 139.5)scale(0.15 -0.15)">
      <use xlink:href="#SimHei-108"/>
      <use x="50" xlink:href="#SimHei-32"/>
      <use x="100" xlink:href="#SimHei-61"/>
      <use x="150" xlink:href="#SimHei-32"/>
      <use x="200" xlink:href="#SimHei-48"/>
      <use x="250" xlink:href="#SimHei-46"/>
      <use x="300" xlink:href="#SimHei-52"/>
     </g>
    </g>
    <g id="line2d_35">
     <path d="M 410.4 154.125 
L 440.4 154.125 
" style="fill:none;stroke:#8c564b;stroke-linecap:square;stroke-width:1.5;"/>
    </g>
    <g id="line2d_36"/>
    <g id="text_22">
     <!-- l = 0.5 -->
     <g transform="translate(452.4 159.375)scale(0.15 -0.15)">
      <use xlink:href="#SimHei-108"/>
      <use x="50" xlink:href="#SimHei-32"/>
      <use x="100" xlink:href="#SimHei-61"/>
      <use x="150" xlink:href="#SimHei-32"/>
      <use x="200" xlink:href="#SimHei-48"/>
      <use x="250" xlink:href="#SimHei-46"/>
      <use x="300" xlink:href="#SimHei-53"/>
     </g>
    </g>
    <g id="line2d_37">
     <path d="M 410.4 174 
L 440.4 174 
" style="fill:none;stroke:#e377c2;stroke-linecap:square;stroke-width:1.5;"/>
    </g>
    <g id="line2d_38"/>
    <g id="text_23">
     <!-- l = 0.6 -->
     <g transform="translate(452.4 179.25)scale(0.15 -0.15)">
      <use xlink:href="#SimHei-108"/>
      <use x="50" xlink:href="#SimHei-32"/>
      <use x="100" xlink:href="#SimHei-61"/>
      <use x="150" xlink:href="#SimHei-32"/>
      <use x="200" xlink:href="#SimHei-48"/>
      <use x="250" xlink:href="#SimHei-46"/>
      <use x="300" xlink:href="#SimHei-54"/>
     </g>
    </g>
    <g id="line2d_39">
     <path d="M 410.4 193.875 
L 440.4 193.875 
" style="fill:none;stroke:#7f7f7f;stroke-linecap:square;stroke-width:1.5;"/>
    </g>
    <g id="line2d_40"/>
    <g id="text_24">
     <!-- l = 0.7 -->
     <g transform="translate(452.4 199.125)scale(0.15 -0.15)">
      <use xlink:href="#SimHei-108"/>
      <use x="50" xlink:href="#SimHei-32"/>
      <use x="100" xlink:href="#SimHei-61"/>
      <use x="150" xlink:href="#SimHei-32"/>
      <use x="200" xlink:href="#SimHei-48"/>
      <use x="250" xlink:href="#SimHei-46"/>
      <use x="300" xlink:href="#SimHei-55"/>
     </g>
    </g>
    <g id="line2d_41">
     <path d="M 410.4 213.75 
L 440.4 213.75 
" style="fill:none;stroke:#bcbd22;stroke-linecap:square;stroke-width:1.5;"/>
    </g>
    <g id="line2d_42"/>
    <g id="text_25">
     <!-- l = 0.8 -->
     <defs>
      <path d="M 2.734375 16.796875 
Q 2.734375 26.171875 5.078125 30.65625 
Q 7.421875 35.15625 12.890625 37.890625 
Q 8.203125 40.625 6.640625 43.9375 
Q 5.078125 47.265625 4.875 51.5625 
Q 4.6875 55.859375 6.046875 58.984375 
Q 7.421875 62.109375 10.15625 64.84375 
Q 12.890625 67.578125 16.203125 68.546875 
Q 19.53125 69.53125 23.4375 69.53125 
Q 27.34375 69.53125 30.46875 68.75 
Q 33.59375 67.96875 37.109375 65.421875 
Q 40.625 62.890625 42.1875 58.203125 
Q 43.75 53.515625 41.984375 47.265625 
Q 40.234375 41.015625 32.8125 37.5 
Q 39.453125 35.546875 42.1875 31.4375 
Q 44.921875 27.34375 44.921875 21.484375 
Q 44.921875 15.625 43.15625 12.109375 
Q 41.40625 8.59375 39.25 6.25 
Q 37.109375 3.90625 33.390625 2.53125 
Q 29.6875 1.171875 24.015625 1.171875 
Q 18.359375 1.171875 14.25 2.53125 
Q 10.15625 3.90625 7.421875 6.640625 
Q 4.6875 9.375 3.703125 13.078125 
Q 2.734375 16.796875 2.734375 26.171875 
z
M 10.9375 26.5625 
Q 10.546875 17.1875 12.296875 13.671875 
Q 14.0625 10.15625 18.75 9.171875 
Q 23.4375 8.203125 28.515625 9.375 
Q 33.59375 10.546875 35.546875 14.84375 
Q 37.5 19.140625 36.90625 23.4375 
Q 36.328125 27.734375 32.03125 30.65625 
Q 27.734375 33.59375 22.65625 33.203125 
Q 17.578125 32.8125 14.25 29.6875 
Q 10.9375 26.5625 10.546875 17.1875 
z
M 12.109375 56.25 
Q 12.109375 48.4375 14.84375 44.921875 
Q 17.578125 41.40625 23.4375 41.40625 
Q 29.296875 41.40625 32.21875 44.921875 
Q 35.15625 48.4375 34.953125 53.3125 
Q 34.765625 58.203125 31.4375 60.546875 
Q 28.125 62.890625 22.453125 62.5 
Q 16.796875 62.109375 14.453125 59.171875 
Q 12.109375 56.25 12.109375 48.4375 
z
" id="SimHei-56"/>
     </defs>
     <g transform="translate(452.4 219)scale(0.15 -0.15)">
      <use xlink:href="#SimHei-108"/>
      <use x="50" xlink:href="#SimHei-32"/>
      <use x="100" xlink:href="#SimHei-61"/>
      <use x="150" xlink:href="#SimHei-32"/>
      <use x="200" xlink:href="#SimHei-48"/>
      <use x="250" xlink:href="#SimHei-46"/>
      <use x="300" xlink:href="#SimHei-56"/>
     </g>
    </g>
    <g id="line2d_43">
     <path d="M 410.4 233.625 
L 440.4 233.625 
" style="fill:none;stroke:#17becf;stroke-linecap:square;stroke-width:1.5;"/>
    </g>
    <g id="line2d_44"/>
    <g id="text_26">
     <!-- l = 0.9 -->
     <defs>
      <path d="M 12.5 1.171875 
Q 21.09375 15.625 26.5625 27.34375 
Q 16.796875 25.78125 10.34375 29.875 
Q 3.90625 33.984375 2.53125 41.015625 
Q 1.171875 48.046875 2.734375 53.703125 
Q 4.296875 59.375 7.609375 63.078125 
Q 10.9375 66.796875 15.625 68.359375 
Q 20.3125 69.921875 24.015625 69.921875 
Q 27.734375 69.921875 31.640625 68.359375 
Q 35.546875 66.796875 38.671875 63.671875 
Q 41.796875 60.546875 42.96875 57.21875 
Q 44.140625 53.90625 44.140625 48.625 
Q 44.140625 43.359375 40.234375 35.15625 
Q 36.328125 26.953125 21.09375 1.171875 
z
M 9.765625 50 
Q 10.9375 39.84375 14.640625 36.515625 
Q 18.359375 33.203125 22.65625 33.59375 
Q 26.953125 33.984375 29.484375 35.9375 
Q 32.03125 37.890625 34.375 42.578125 
Q 35.9375 48.4375 35.15625 52.53125 
Q 34.375 56.640625 31.046875 59.375 
Q 27.734375 62.109375 23.828125 62.109375 
Q 21.484375 62.5 17.765625 60.9375 
Q 14.0625 59.375 11.90625 54.6875 
Q 9.765625 50 10.9375 39.84375 
z
" id="SimHei-57"/>
     </defs>
     <g transform="translate(452.4 238.875)scale(0.15 -0.15)">
      <use xlink:href="#SimHei-108"/>
      <use x="50" xlink:href="#SimHei-32"/>
      <use x="100" xlink:href="#SimHei-61"/>
      <use x="150" xlink:href="#SimHei-32"/>
      <use x="200" xlink:href="#SimHei-48"/>
      <use x="250" xlink:href="#SimHei-46"/>
      <use x="300" xlink:href="#SimHei-57"/>
     </g>
    </g>
    <g id="line2d_45">
     <path d="M 410.4 253.5 
L 440.4 253.5 
" style="fill:none;stroke:#1f77b4;stroke-linecap:square;stroke-width:1.5;"/>
    </g>
    <g id="line2d_46"/>
    <g id="text_27">
     <!-- l = 1.0 -->
     <g transform="translate(452.4 258.75)scale(0.15 -0.15)">
      <use xlink:href="#SimHei-108"/>
      <use x="50" xlink:href="#SimHei-32"/>
      <use x="100" xlink:href="#SimHei-61"/>
      <use x="150" xlink:href="#SimHei-32"/>
      <use x="200" xlink:href="#SimHei-49"/>
      <use x="250" xlink:href="#SimHei-46"/>
      <use x="300" xlink:href="#SimHei-48"/>
     </g>
    </g>
   </g>
  </g>
 </g>
 <defs>
  <clipPath id="p0f6fa528fa">
   <rect height="270" width="449.28" x="69.12" y="36"/>
  </clipPath>
 </defs>
</svg>
