<?xml version="1.0" encoding="utf-8" standalone="no"?>
<!DOCTYPE svg PUBLIC "-//W3C//DTD SVG 1.1//EN"
  "http://www.w3.org/Graphics/SVG/1.1/DTD/svg11.dtd">
<!-- Created with matplotlib (https://matplotlib.org/) -->
<svg height="360pt" version="1.1" viewBox="0 0 576 360" width="576pt" xmlns="http://www.w3.org/2000/svg" xmlns:xlink="http://www.w3.org/1999/xlink">
 <defs>
  <style type="text/css">
*{stroke-linecap:butt;stroke-linejoin:round;}
  </style>
 </defs>
 <g id="figure_1">
  <g id="patch_1">
   <path d="M 0 360 
L 576 360 
L 576 0 
L 0 0 
z
" style="fill:#ffffff;"/>
  </g>
  <g id="axes_1">
   <g id="patch_2">
    <path d="M 69.12 306 
L 518.4 306 
L 518.4 36 
L 69.12 36 
z
" style="fill:#ffffff;"/>
   </g>
   <g id="matplotlib.axis_1">
    <g id="xtick_1">
     <g id="line2d_1">
      <defs>
       <path d="M 0 0 
L 0 3.5 
" id="m339623acfe" style="stroke:#000000;stroke-width:0.8;"/>
      </defs>
      <g>
       <use style="stroke:#000000;stroke-width:0.8;" x="89.541818" xlink:href="#m339623acfe" y="306"/>
      </g>
     </g>
     <g id="text_1">
      <!-- 0 -->
      <defs>
       <path d="M 3.125 29.296875 
Q 3.90625 50 6.4375 56.046875 
Q 8.984375 62.109375 13.671875 66.015625 
Q 18.359375 69.921875 25.1875 69.921875 
Q 32.03125 69.921875 37.109375 64.25 
Q 42.1875 58.59375 43.75 50 
Q 45.3125 41.40625 44.71875 30.265625 
Q 44.140625 19.140625 40.8125 12.109375 
Q 37.5 5.078125 30.859375 2.34375 
Q 24.21875 -0.390625 17.578125 2.921875 
Q 10.9375 6.25 8.203125 11.71875 
Q 5.46875 17.1875 4.296875 23.234375 
Q 3.125 29.296875 3.90625 50 
z
M 12.890625 52.734375 
Q 10.546875 31.25 12.5 22.84375 
Q 14.453125 14.453125 18.9375 10.9375 
Q 23.4375 7.421875 28.125 9.5625 
Q 32.8125 11.71875 34.953125 18.15625 
Q 37.109375 24.609375 37.109375 32.21875 
Q 37.109375 39.84375 36.515625 46.09375 
Q 35.9375 52.34375 33 57.421875 
Q 30.078125 62.5 25.1875 62.6875 
Q 20.3125 62.890625 16.59375 57.8125 
Q 12.890625 52.734375 10.546875 31.25 
z
" id="SimHei-48"/>
      </defs>
      <g transform="translate(87.041818 319.875)scale(0.1 -0.1)">
       <use xlink:href="#SimHei-48"/>
      </g>
     </g>
    </g>
    <g id="xtick_2">
     <g id="line2d_2">
      <g>
       <use style="stroke:#000000;stroke-width:0.8;" x="147.88987" xlink:href="#m339623acfe" y="306"/>
      </g>
     </g>
     <g id="text_2">
      <!-- 100 -->
      <defs>
       <path d="M 21.875 56.25 
Q 16.796875 51.171875 8.984375 46.484375 
L 8.984375 53.90625 
Q 18.75 60.546875 25 69.53125 
L 29.6875 69.53125 
L 29.6875 2.34375 
L 21.875 2.34375 
z
" id="SimHei-49"/>
      </defs>
      <g transform="translate(140.38987 319.875)scale(0.1 -0.1)">
       <use xlink:href="#SimHei-49"/>
       <use x="50" xlink:href="#SimHei-48"/>
       <use x="100" xlink:href="#SimHei-48"/>
      </g>
     </g>
    </g>
    <g id="xtick_3">
     <g id="line2d_3">
      <g>
       <use style="stroke:#000000;stroke-width:0.8;" x="206.237922" xlink:href="#m339623acfe" y="306"/>
      </g>
     </g>
     <g id="text_3">
      <!-- 200 -->
      <defs>
       <path d="M 4.6875 3.90625 
Q 5.078125 9.765625 10.15625 14.453125 
Q 15.234375 19.140625 23.046875 29.09375 
Q 30.859375 39.0625 33.203125 44.53125 
Q 35.546875 50 34.953125 53.90625 
Q 34.375 57.8125 31.25 60.34375 
Q 28.125 62.890625 24.015625 62.5 
Q 19.921875 62.109375 16.203125 59.375 
Q 12.5 56.640625 10.546875 51.171875 
L 3.125 52.34375 
Q 6.25 61.328125 11.125 65.421875 
Q 16.015625 69.53125 22.65625 69.921875 
Q 26.5625 70.3125 29.6875 69.71875 
Q 32.8125 69.140625 36.125 66.984375 
Q 39.453125 64.84375 41.59375 60.546875 
Q 43.75 56.25 43.15625 50.1875 
Q 42.578125 44.140625 37.109375 35.734375 
Q 31.640625 27.34375 16.015625 9.375 
L 44.140625 9.375 
L 44.140625 2.34375 
L 4.6875 2.34375 
z
" id="SimHei-50"/>
      </defs>
      <g transform="translate(198.737922 319.875)scale(0.1 -0.1)">
       <use xlink:href="#SimHei-50"/>
       <use x="50" xlink:href="#SimHei-48"/>
       <use x="100" xlink:href="#SimHei-48"/>
      </g>
     </g>
    </g>
    <g id="xtick_4">
     <g id="line2d_4">
      <g>
       <use style="stroke:#000000;stroke-width:0.8;" x="264.585974" xlink:href="#m339623acfe" y="306"/>
      </g>
     </g>
     <g id="text_4">
      <!-- 300 -->
      <defs>
       <path d="M 3.90625 19.140625 
L 10.9375 20.3125 
Q 12.5 15.234375 16.015625 11.90625 
Q 19.53125 8.59375 24.796875 8.78125 
Q 30.078125 8.984375 33.203125 13.078125 
Q 36.328125 17.1875 35.9375 22.453125 
Q 35.546875 27.734375 31.828125 30.65625 
Q 28.125 33.59375 19.921875 34.765625 
L 19.921875 39.84375 
Q 28.125 40.625 31.828125 44.140625 
Q 35.546875 47.65625 35.15625 53.3125 
Q 34.765625 58.984375 30.078125 61.515625 
Q 25.390625 64.0625 20.109375 62.109375 
Q 14.84375 60.15625 11.71875 51.171875 
L 4.6875 52.34375 
Q 7.03125 59.375 11.125 64.0625 
Q 15.234375 68.75 22.265625 69.53125 
Q 29.296875 70.3125 34.5625 67.765625 
Q 39.84375 65.234375 41.984375 59.953125 
Q 44.140625 54.6875 42.578125 48.4375 
Q 41.015625 42.1875 33.59375 37.5 
Q 39.0625 35.15625 41.984375 30.46875 
Q 44.921875 25.78125 43.9375 18.15625 
Q 42.96875 10.546875 37.109375 5.859375 
Q 31.25 1.171875 23.828125 1.359375 
Q 16.40625 1.5625 10.9375 6.046875 
Q 5.46875 10.546875 3.90625 19.140625 
z
" id="SimHei-51"/>
      </defs>
      <g transform="translate(257.085974 319.875)scale(0.1 -0.1)">
       <use xlink:href="#SimHei-51"/>
       <use x="50" xlink:href="#SimHei-48"/>
       <use x="100" xlink:href="#SimHei-48"/>
      </g>
     </g>
    </g>
    <g id="xtick_5">
     <g id="line2d_5">
      <g>
       <use style="stroke:#000000;stroke-width:0.8;" x="322.934026" xlink:href="#m339623acfe" y="306"/>
      </g>
     </g>
     <g id="text_5">
      <!-- 400 -->
      <defs>
       <path d="M 31.25 17.1875 
L 1.171875 17.1875 
L 1.171875 23.828125 
L 32.8125 69.53125 
L 38.671875 69.53125 
L 38.671875 23.828125 
L 48.046875 23.828125 
L 48.046875 17.1875 
L 38.671875 17.1875 
L 38.671875 2.34375 
L 31.25 2.34375 
z
M 31.25 23.828125 
L 31.25 54.6875 
L 9.375 23.828125 
z
" id="SimHei-52"/>
      </defs>
      <g transform="translate(315.434026 319.875)scale(0.1 -0.1)">
       <use xlink:href="#SimHei-52"/>
       <use x="50" xlink:href="#SimHei-48"/>
       <use x="100" xlink:href="#SimHei-48"/>
      </g>
     </g>
    </g>
    <g id="xtick_6">
     <g id="line2d_6">
      <g>
       <use style="stroke:#000000;stroke-width:0.8;" x="381.282078" xlink:href="#m339623acfe" y="306"/>
      </g>
     </g>
     <g id="text_6">
      <!-- 500 -->
      <defs>
       <path d="M 8.59375 20.703125 
Q 11.328125 10.15625 17.96875 8.984375 
Q 24.609375 7.8125 28.703125 10.34375 
Q 32.8125 12.890625 34.5625 16.984375 
Q 36.328125 21.09375 36.125 26.171875 
Q 35.9375 31.25 33.390625 34.765625 
Q 30.859375 38.28125 26.953125 39.453125 
Q 23.046875 40.625 18.15625 39.453125 
Q 13.28125 38.28125 10.15625 33.984375 
L 3.515625 34.765625 
Q 4.296875 37.109375 10.9375 68.359375 
L 41.796875 68.359375 
L 41.796875 61.328125 
L 16.796875 61.328125 
Q 14.84375 50.78125 12.890625 44.53125 
Q 18.75 47.265625 23.828125 47.0625 
Q 28.90625 46.875 33.59375 44.71875 
Q 38.28125 42.578125 40.421875 38.859375 
Q 42.578125 35.15625 43.546875 31.4375 
Q 44.53125 27.734375 44.328125 23.4375 
Q 44.140625 19.140625 42.578125 14.640625 
Q 41.015625 10.15625 37.890625 7.21875 
Q 34.765625 4.296875 30.265625 2.53125 
Q 25.78125 0.78125 19.921875 1.171875 
Q 14.0625 1.5625 8.78125 5.46875 
Q 3.515625 9.375 1.5625 18.75 
z
" id="SimHei-53"/>
      </defs>
      <g transform="translate(373.782078 319.875)scale(0.1 -0.1)">
       <use xlink:href="#SimHei-53"/>
       <use x="50" xlink:href="#SimHei-48"/>
       <use x="100" xlink:href="#SimHei-48"/>
      </g>
     </g>
    </g>
    <g id="xtick_7">
     <g id="line2d_7">
      <g>
       <use style="stroke:#000000;stroke-width:0.8;" x="439.63013" xlink:href="#m339623acfe" y="306"/>
      </g>
     </g>
     <g id="text_7">
      <!-- 600 -->
      <defs>
       <path d="M 3.515625 19.53125 
Q 4.296875 30.859375 6.046875 34.765625 
Q 7.8125 38.671875 11.328125 44.53125 
L 27.34375 69.53125 
L 36.328125 69.53125 
L 19.921875 43.75 
Q 30.46875 46.484375 36.71875 42.96875 
Q 42.96875 39.453125 45.109375 34.953125 
Q 47.265625 30.46875 47.453125 25.1875 
Q 47.65625 19.921875 45.890625 14.84375 
Q 44.140625 9.765625 39.640625 5.65625 
Q 35.15625 1.5625 27.140625 1.171875 
Q 19.140625 0.78125 13.46875 4.09375 
Q 7.8125 7.421875 5.65625 13.46875 
Q 3.515625 19.53125 4.296875 30.859375 
z
M 12.5 16.015625 
Q 19.53125 8.59375 25.390625 8.203125 
Q 31.25 7.8125 35.15625 12.109375 
Q 39.0625 16.40625 39.0625 24.609375 
Q 39.0625 32.8125 34.171875 35.9375 
Q 29.296875 39.0625 23.234375 38.28125 
Q 17.1875 37.5 14.453125 32.421875 
Q 11.71875 27.34375 12.109375 21.671875 
Q 12.5 16.015625 19.53125 8.59375 
z
" id="SimHei-54"/>
      </defs>
      <g transform="translate(432.13013 319.875)scale(0.1 -0.1)">
       <use xlink:href="#SimHei-54"/>
       <use x="50" xlink:href="#SimHei-48"/>
       <use x="100" xlink:href="#SimHei-48"/>
      </g>
     </g>
    </g>
    <g id="xtick_8">
     <g id="line2d_8">
      <g>
       <use style="stroke:#000000;stroke-width:0.8;" x="497.978182" xlink:href="#m339623acfe" y="306"/>
      </g>
     </g>
     <g id="text_8">
      <!-- 700 -->
      <defs>
       <path d="M 13.28125 2.34375 
Q 20.3125 32.03125 37.890625 61.328125 
L 4.296875 61.328125 
L 4.296875 68.359375 
L 46.09375 68.359375 
L 46.09375 61.71875 
Q 27.734375 32.03125 21.875 2.34375 
L 13.28125 2.34375 
z
" id="SimHei-55"/>
      </defs>
      <g transform="translate(490.478182 319.875)scale(0.1 -0.1)">
       <use xlink:href="#SimHei-55"/>
       <use x="50" xlink:href="#SimHei-48"/>
       <use x="100" xlink:href="#SimHei-48"/>
      </g>
     </g>
    </g>
    <g id="text_9">
     <!-- 时间（天） -->
     <defs>
      <path d="M 39.453125 71.484375 
Q 39.0625 57.421875 39.0625 37.5 
Q 39.0625 17.578125 39.453125 6.25 
L 31.25 6.25 
L 31.25 13.671875 
L 15.625 13.671875 
L 15.625 0.78125 
L 7.421875 0.78125 
Q 7.8125 18.75 7.8125 36.71875 
Q 7.8125 55.078125 7.421875 71.484375 
L 39.453125 71.484375 
z
M 76.171875 59.765625 
Q 76.171875 71.484375 75.78125 81.640625 
L 84.375 81.640625 
Q 83.984375 71.484375 83.984375 59.765625 
Q 89.84375 59.765625 96.484375 60.15625 
L 96.484375 52.734375 
Q 89.84375 53.125 83.984375 53.125 
L 83.984375 0.78125 
Q 83.984375 -5.078125 79.296875 -6.640625 
Q 74.609375 -8.203125 67.1875 -8.984375 
Q 67.1875 -4.296875 62.890625 0 
Q 70.3125 -0.78125 73.234375 -0.390625 
Q 76.171875 0 76.171875 4.6875 
L 76.171875 53.125 
Q 56.640625 53.125 43.359375 52.734375 
L 43.359375 60.15625 
Q 55.859375 59.765625 76.171875 59.765625 
z
M 31.25 20.3125 
L 31.25 39.84375 
L 15.625 39.84375 
L 15.625 20.3125 
z
M 31.25 46.484375 
L 31.25 64.84375 
L 15.625 64.84375 
L 15.625 46.484375 
z
M 55.46875 42.578125 
Q 60.546875 34.375 65.234375 25 
Q 61.328125 23.828125 57.03125 21.484375 
Q 53.90625 30.859375 48.046875 39.0625 
Q 51.5625 40.625 55.46875 42.578125 
z
" id="SimHei-26102"/>
      <path d="M 69.53125 55.46875 
Q 69.140625 48.046875 69.140625 42.578125 
L 69.140625 21.875 
Q 69.140625 16.796875 69.53125 9.765625 
L 30.078125 9.765625 
Q 30.46875 16.796875 30.46875 22.265625 
L 30.46875 42.578125 
Q 30.46875 48.046875 30.078125 55.46875 
L 69.53125 55.46875 
z
M 90.625 76.171875 
Q 90.234375 68.75 90.234375 61.328125 
L 90.234375 3.90625 
Q 90.625 -5.078125 85.34375 -7.03125 
Q 80.078125 -8.984375 73.828125 -9.765625 
Q 73.4375 -5.078125 70.703125 -0.390625 
Q 78.125 -0.78125 80.265625 0.390625 
Q 82.421875 1.5625 82.421875 5.46875 
L 82.421875 69.53125 
L 58.984375 69.53125 
Q 49.609375 69.53125 41.40625 69.140625 
L 41.40625 76.5625 
Q 49.609375 76.171875 58.984375 76.171875 
z
M 8.59375 -8.203125 
Q 9.375 -0.390625 9.375 8.203125 
L 9.375 49.21875 
Q 9.375 57.421875 8.59375 62.890625 
L 17.578125 62.890625 
Q 17.1875 57.03125 17.1875 51.5625 
L 17.1875 7.8125 
Q 17.1875 0 17.578125 -8.203125 
z
M 61.71875 16.015625 
L 61.71875 30.46875 
L 37.890625 30.46875 
L 37.890625 16.015625 
z
M 61.71875 36.71875 
L 61.71875 49.21875 
L 37.890625 49.21875 
L 37.890625 36.71875 
z
M 23.828125 82.8125 
Q 27.34375 78.125 34.765625 67.96875 
Q 30.46875 66.015625 26.5625 63.671875 
Q 22.65625 71.484375 16.796875 78.515625 
Q 21.09375 81.640625 23.828125 82.8125 
z
" id="SimHei-38388"/>
      <path d="M 84.765625 79.6875 
L 89.0625 74.609375 
Q 66.796875 58.203125 67.578125 36.71875 
Q 67.96875 16.015625 88.671875 0.78125 
L 84.375 -4.296875 
Q 60.546875 12.890625 61.328125 39.0625 
Q 61.328125 60.546875 84.765625 79.6875 
z
" id="SimHei-65288"/>
      <path d="M 69.921875 76.5625 
Q 76.953125 76.5625 83.984375 76.953125 
L 83.984375 68.75 
Q 76.953125 69.140625 69.921875 69.140625 
L 53.90625 69.140625 
L 53.90625 48.046875 
L 78.90625 48.046875 
Q 86.328125 48.046875 92.1875 48.4375 
L 92.1875 40.234375 
Q 86.71875 40.625 79.296875 40.625 
L 55.078125 40.625 
Q 60.546875 25.78125 70.703125 15.234375 
Q 80.859375 4.6875 96.875 0.78125 
Q 91.40625 -3.515625 90.234375 -7.03125 
Q 78.125 -2.734375 67.96875 6.4375 
Q 57.8125 15.625 50.390625 32.8125 
Q 45.703125 16.796875 35.546875 7.21875 
Q 25.390625 -2.34375 10.15625 -8.984375 
Q 8.59375 -5.078125 3.515625 -1.5625 
Q 14.84375 1.5625 27.34375 11.515625 
Q 39.84375 21.484375 44.921875 40.625 
L 23.4375 40.625 
Q 14.84375 40.625 8.984375 40.234375 
L 8.984375 48.4375 
Q 15.234375 48.046875 23.4375 48.046875 
L 46.09375 48.046875 
L 46.09375 69.140625 
L 29.6875 69.140625 
Q 21.484375 69.140625 15.625 68.75 
L 15.625 76.953125 
Q 21.875 76.5625 29.6875 76.5625 
z
" id="SimHei-22825"/>
      <path d="M 15.625 79.6875 
Q 39.0625 60.546875 39.0625 39.0625 
Q 39.84375 12.890625 16.015625 -4.296875 
L 11.71875 0.78125 
Q 32.421875 16.015625 32.8125 36.71875 
Q 33.59375 58.203125 11.328125 74.609375 
L 15.625 79.6875 
z
" id="SimHei-65289"/>
     </defs>
     <g transform="translate(243.76 347.140625)scale(0.2 -0.2)">
      <use xlink:href="#SimHei-26102"/>
      <use x="100" xlink:href="#SimHei-38388"/>
      <use x="200" xlink:href="#SimHei-65288"/>
      <use x="300" xlink:href="#SimHei-22825"/>
      <use x="400" xlink:href="#SimHei-65289"/>
     </g>
    </g>
   </g>
   <g id="matplotlib.axis_2">
    <g id="ytick_1">
     <g id="line2d_9">
      <defs>
       <path d="M 0 0 
L -3.5 0 
" id="m2e4a9a0712" style="stroke:#000000;stroke-width:0.8;"/>
      </defs>
      <g>
       <use style="stroke:#000000;stroke-width:0.8;" x="69.12" xlink:href="#m2e4a9a0712" y="293.727273"/>
      </g>
     </g>
     <g id="text_10">
      <!-- 0 -->
      <g transform="translate(57.12 297.164773)scale(0.1 -0.1)">
       <use xlink:href="#SimHei-48"/>
      </g>
     </g>
    </g>
    <g id="ytick_2">
     <g id="line2d_10">
      <g>
       <use style="stroke:#000000;stroke-width:0.8;" x="69.12" xlink:href="#m2e4a9a0712" y="251.53935"/>
      </g>
     </g>
     <g id="text_11">
      <!-- 10 -->
      <g transform="translate(52.12 254.97685)scale(0.1 -0.1)">
       <use xlink:href="#SimHei-49"/>
       <use x="50" xlink:href="#SimHei-48"/>
      </g>
     </g>
    </g>
    <g id="ytick_3">
     <g id="line2d_11">
      <g>
       <use style="stroke:#000000;stroke-width:0.8;" x="69.12" xlink:href="#m2e4a9a0712" y="209.351428"/>
      </g>
     </g>
     <g id="text_12">
      <!-- 20 -->
      <g transform="translate(52.12 212.788928)scale(0.1 -0.1)">
       <use xlink:href="#SimHei-50"/>
       <use x="50" xlink:href="#SimHei-48"/>
      </g>
     </g>
    </g>
    <g id="ytick_4">
     <g id="line2d_12">
      <g>
       <use style="stroke:#000000;stroke-width:0.8;" x="69.12" xlink:href="#m2e4a9a0712" y="167.163506"/>
      </g>
     </g>
     <g id="text_13">
      <!-- 30 -->
      <g transform="translate(52.12 170.601006)scale(0.1 -0.1)">
       <use xlink:href="#SimHei-51"/>
       <use x="50" xlink:href="#SimHei-48"/>
      </g>
     </g>
    </g>
    <g id="ytick_5">
     <g id="line2d_13">
      <g>
       <use style="stroke:#000000;stroke-width:0.8;" x="69.12" xlink:href="#m2e4a9a0712" y="124.975584"/>
      </g>
     </g>
     <g id="text_14">
      <!-- 40 -->
      <g transform="translate(52.12 128.413084)scale(0.1 -0.1)">
       <use xlink:href="#SimHei-52"/>
       <use x="50" xlink:href="#SimHei-48"/>
      </g>
     </g>
    </g>
    <g id="ytick_6">
     <g id="line2d_14">
      <g>
       <use style="stroke:#000000;stroke-width:0.8;" x="69.12" xlink:href="#m2e4a9a0712" y="82.787661"/>
      </g>
     </g>
     <g id="text_15">
      <!-- 50 -->
      <g transform="translate(52.12 86.225161)scale(0.1 -0.1)">
       <use xlink:href="#SimHei-53"/>
       <use x="50" xlink:href="#SimHei-48"/>
      </g>
     </g>
    </g>
    <g id="ytick_7">
     <g id="line2d_15">
      <g>
       <use style="stroke:#000000;stroke-width:0.8;" x="69.12" xlink:href="#m2e4a9a0712" y="40.599739"/>
      </g>
     </g>
     <g id="text_16">
      <!-- 60 -->
      <g transform="translate(52.12 44.037239)scale(0.1 -0.1)">
       <use xlink:href="#SimHei-54"/>
       <use x="50" xlink:href="#SimHei-48"/>
      </g>
     </g>
    </g>
    <g id="text_17">
     <!-- 比例（%） -->
     <defs>
      <path d="M 58.984375 79.6875 
Q 58.59375 71.484375 58.59375 64.0625 
L 58.59375 47.65625 
Q 76.953125 56.25 85.546875 65.234375 
Q 88.671875 60.9375 92.1875 57.421875 
Q 87.5 54.6875 78.703125 49.796875 
Q 69.921875 44.921875 58.59375 39.84375 
L 58.59375 7.03125 
Q 58.59375 1.5625 63.28125 1.5625 
L 78.125 1.5625 
Q 80.859375 1.5625 82.21875 3.90625 
Q 83.59375 6.25 85.15625 14.0625 
Q 88.28125 12.109375 94.140625 10.546875 
Q 91.40625 0 88.28125 -2.734375 
Q 85.15625 -5.46875 81.640625 -5.46875 
L 60.9375 -5.46875 
Q 50.78125 -5.46875 50.78125 4.296875 
L 50.78125 62.5 
Q 50.78125 71.09375 50.390625 79.6875 
L 58.984375 79.6875 
z
M 19.921875 77.734375 
Q 19.53125 71.484375 19.53125 62.5 
L 19.53125 49.21875 
L 28.90625 49.21875 
Q 36.328125 49.21875 44.921875 49.609375 
L 44.921875 41.40625 
Q 36.328125 41.796875 28.90625 41.796875 
L 19.53125 41.796875 
L 19.53125 7.421875 
Q 25.78125 10.15625 30.65625 12.6875 
Q 35.546875 15.234375 44.53125 19.921875 
Q 45.3125 14.84375 46.09375 11.71875 
Q 37.109375 7.421875 27.53125 2.734375 
Q 17.96875 -1.953125 14.453125 -5.078125 
Q 11.71875 -1.5625 8.984375 3.125 
Q 10.9375 4.6875 11.71875 9.375 
L 11.71875 61.71875 
Q 11.71875 71.09375 11.328125 77.734375 
L 19.921875 77.734375 
z
" id="SimHei-27604"/>
      <path d="M 53.90625 73.828125 
Q 59.765625 73.828125 64.0625 74.21875 
L 64.0625 67.1875 
Q 59.765625 67.578125 54.6875 67.578125 
L 49.21875 67.578125 
Q 48.828125 62.890625 47.265625 52.34375 
L 63.28125 52.34375 
Q 62.5 32.03125 56.4375 16.40625 
Q 50.390625 0.78125 35.9375 -9.375 
Q 34.375 -6.25 29.6875 -2.34375 
Q 42.96875 3.90625 50 20.703125 
Q 46.484375 23.828125 39.84375 28.125 
Q 42.1875 31.25 44.140625 33.984375 
Q 50 29.296875 52.34375 27.734375 
Q 54.6875 35.15625 55.859375 46.09375 
L 45.703125 46.09375 
Q 43.75 37.890625 34.765625 24.609375 
Q 31.640625 27.734375 27.734375 30.078125 
Q 33.203125 35.546875 37.109375 44.328125 
Q 41.015625 53.125 41.796875 67.578125 
Q 35.9375 67.578125 33.59375 67.1875 
L 33.59375 74.21875 
Q 37.5 73.828125 43.75 73.828125 
z
M 32.03125 77.734375 
Q 29.296875 74.609375 24.21875 60.15625 
L 24.21875 7.421875 
Q 24.21875 -0.390625 24.609375 -9.375 
L 16.796875 -9.375 
Q 17.1875 -1.171875 17.1875 6.640625 
L 17.1875 46.875 
Q 14.84375 42.1875 10.15625 35.15625 
Q 8.59375 37.109375 3.125 41.015625 
Q 8.203125 45.703125 14.640625 58.78125 
Q 21.09375 71.875 22.65625 81.25 
Q 25.78125 79.296875 32.03125 77.734375 
z
M 92.96875 79.296875 
Q 92.1875 74.609375 92.1875 67.1875 
L 92.1875 3.90625 
Q 92.1875 -4.296875 89.0625 -6.25 
Q 85.9375 -8.203125 75.78125 -8.984375 
Q 75.390625 -4.6875 72.65625 0.78125 
Q 80.859375 0 82.8125 0.390625 
Q 84.765625 0.78125 85.15625 4.6875 
L 85.15625 66.796875 
Q 85.15625 74.21875 84.375 79.296875 
L 92.96875 79.296875 
z
M 76.953125 66.015625 
Q 76.171875 60.546875 76.171875 50.78125 
L 76.171875 28.125 
Q 76.171875 18.75 76.5625 14.453125 
L 68.359375 14.453125 
Q 69.140625 18.75 69.140625 27.734375 
L 69.140625 51.171875 
Q 68.75 60.15625 68.359375 66.015625 
L 76.953125 66.015625 
z
" id="SimHei-20363"/>
      <path d="M 21.875 51.953125 
Q 21.875 40.625 18.546875 37.5 
Q 15.234375 34.375 12.109375 34.375 
Q 8.984375 34.375 5.65625 37.5 
Q 2.34375 40.625 2.34375 51.953125 
Q 2.34375 63.28125 5.65625 66.40625 
Q 8.984375 69.53125 12.109375 69.53125 
Q 15.234375 69.53125 18.546875 66.40625 
Q 21.875 63.28125 21.875 51.953125 
z
M 41.015625 68.359375 
L 10.9375 1.171875 
L 7.8125 2.34375 
L 37.890625 69.53125 
z
M 46.484375 18.75 
Q 46.484375 7.421875 43.15625 4.296875 
Q 39.84375 1.171875 36.71875 1.171875 
Q 33.59375 1.171875 30.265625 4.296875 
Q 26.953125 7.421875 26.953125 18.75 
Q 26.953125 30.078125 30.265625 33.203125 
Q 33.59375 36.328125 36.71875 36.328125 
Q 39.84375 36.328125 43.15625 33.203125 
Q 46.484375 30.078125 46.484375 18.75 
z
M 15.625 51.953125 
Q 15.625 58.984375 14.84375 61.328125 
Q 14.0625 63.671875 12.109375 63.671875 
Q 10.15625 63.671875 9.375 61.328125 
Q 8.59375 58.984375 8.59375 51.953125 
Q 8.59375 44.921875 9.375 42.578125 
Q 10.15625 40.234375 12.109375 40.234375 
Q 14.0625 40.234375 14.84375 42.578125 
Q 15.625 44.921875 15.625 51.953125 
z
M 40.234375 18.75 
Q 40.234375 25.78125 39.453125 28.125 
Q 38.671875 30.46875 36.71875 30.46875 
Q 34.765625 30.46875 33.984375 28.125 
Q 33.203125 25.78125 33.203125 18.75 
Q 33.203125 11.71875 33.984375 9.375 
Q 34.765625 7.03125 36.71875 7.03125 
Q 38.671875 7.03125 39.453125 9.375 
Q 40.234375 11.71875 40.234375 18.75 
z
" id="SimHei-37"/>
     </defs>
     <g transform="translate(34.62 216)rotate(-90)scale(0.2 -0.2)">
      <use xlink:href="#SimHei-27604"/>
      <use x="100" xlink:href="#SimHei-20363"/>
      <use x="200" xlink:href="#SimHei-65288"/>
      <use x="300" xlink:href="#SimHei-37"/>
      <use x="350" xlink:href="#SimHei-65289"/>
     </g>
    </g>
   </g>
   <g id="line2d_16">
    <path clip-path="url(#pdcc111c499)" d="M 89.541818 293.727273 
L 112.881039 293.618041 
L 118.132364 293.388463 
L 121.633247 293.007229 
L 123.967169 292.537921 
L 125.71761 291.995504 
L 127.468052 291.207867 
L 128.635013 290.494656 
L 129.801974 289.582442 
L 130.968935 288.417541 
L 132.135896 286.932985 
L 133.302857 285.045988 
L 134.469818 282.655367 
L 135.636779 279.639449 
L 136.80374 275.854906 
L 137.970701 271.137675 
L 139.137662 265.307309 
L 140.304623 258.176467 
L 141.471584 249.567607 
L 142.638545 239.338034 
L 143.805506 227.413229 
L 145.555948 206.454649 
L 147.30639 182.510656 
L 151.390753 124.413919 
L 153.141195 103.266461 
L 154.308156 91.427797 
L 155.475117 81.517008 
L 156.642078 73.460219 
L 157.809039 67.077503 
L 158.976 62.132763 
L 160.142961 58.374656 
L 161.309922 55.564566 
L 162.476883 53.492189 
L 163.643844 51.981704 
L 164.810805 50.891702 
L 165.977766 50.111827 
L 167.144727 49.557916 
L 168.895169 49.017611 
L 171.229091 48.628252 
L 174.146494 48.411528 
L 179.397818 48.297415 
L 197.485714 48.272778 
L 497.978182 48.272727 
L 497.978182 48.272727 
" style="fill:none;stroke:#1f77b4;stroke-linecap:square;stroke-width:1.5;"/>
   </g>
   <g id="line2d_17">
    <path clip-path="url(#pdcc111c499)" d="M 89.541818 293.727273 
L 116.965403 293.624316 
L 123.383688 293.403142 
L 127.468052 293.055616 
L 130.385455 292.598461 
L 132.719377 292.019398 
L 134.469818 291.400013 
L 136.22026 290.560214 
L 137.970701 289.425203 
L 139.137662 288.457566 
L 140.304623 287.280866 
L 141.471584 285.854174 
L 142.638545 284.130666 
L 143.805506 282.057798 
L 144.972468 279.578114 
L 146.139429 276.631031 
L 147.30639 273.155872 
L 148.473351 269.096514 
L 149.640312 264.407974 
L 151.390753 256.147882 
L 153.141195 246.473209 
L 155.475117 231.893585 
L 158.976 209.577324 
L 160.726442 200.1432 
L 161.893403 195.073553 
L 163.060364 191.182464 
L 163.643844 189.709818 
L 164.227325 188.558971 
L 164.810805 187.728868 
L 165.394286 187.214011 
L 165.977766 187.004981 
L 166.561247 187.088993 
L 167.144727 187.450464 
L 167.728208 188.07158 
L 168.311688 188.932941 
L 169.478649 191.294036 
L 170.64561 194.365967 
L 172.396052 199.951232 
L 174.729974 208.47586 
L 180.564779 230.382315 
L 182.898701 238.276613 
L 185.232623 245.422134 
L 187.566545 251.794309 
L 189.900468 257.4191 
L 192.23439 262.34895 
L 194.568312 266.647936 
L 196.902234 270.383155 
L 199.236156 273.619859 
L 201.570078 276.419012 
L 203.904 278.83612 
L 206.237922 280.920913 
L 208.571844 282.717453 
L 210.905766 284.2645 
L 213.823169 285.898668 
L 216.740571 287.252378 
L 219.657974 288.373149 
L 223.158857 289.466006 
L 226.65974 290.336438 
L 230.744104 291.130359 
L 235.411948 291.813113 
L 241.246753 292.420218 
L 248.248519 292.900497 
L 257.000727 293.260954 
L 269.253818 293.518142 
L 288.508675 293.667974 
L 332.269714 293.723886 
L 497.978182 293.727273 
L 497.978182 293.727273 
" style="fill:none;stroke:#ff7f0e;stroke-linecap:square;stroke-width:1.5;"/>
   </g>
   <g id="line2d_18">
    <path clip-path="url(#pdcc111c499)" d="M 89.541818 293.727273 
L 123.383688 293.620414 
L 131.552416 293.380634 
L 136.22026 293.049594 
L 139.721143 292.609154 
L 142.638545 292.034009 
L 144.972468 291.372521 
L 147.30639 290.461852 
L 149.056831 289.564764 
L 150.807273 288.435953 
L 152.557714 287.024633 
L 154.308156 285.27446 
L 156.058597 283.126365 
L 157.809039 280.523995 
L 159.559481 277.422434 
L 161.309922 273.800645 
L 163.060364 269.677317 
L 165.394286 263.539822 
L 170.64561 249.309017 
L 172.396052 245.458316 
L 173.563013 243.405702 
L 174.729974 241.848318 
L 175.896935 240.834481 
L 176.480416 240.539793 
L 177.063896 240.387867 
L 177.647377 240.377698 
L 178.230857 240.506752 
L 178.814338 240.771119 
L 179.981299 241.683858 
L 181.14826 243.0618 
L 182.315221 244.838273 
L 184.065662 248.088161 
L 186.399584 253.122259 
L 192.23439 266.208121 
L 194.568312 270.831264 
L 196.902234 274.895039 
L 198.652675 277.560805 
L 200.403117 279.90858 
L 202.153558 281.957705 
L 203.904 283.733038 
L 205.654442 285.261859 
L 207.988364 286.96454 
L 210.322286 288.340607 
L 212.656208 289.446597 
L 214.99013 290.331683 
L 217.907532 291.190334 
L 221.408416 291.943046 
L 225.492779 292.546384 
L 230.160623 292.991781 
L 235.995429 293.321005 
L 244.164156 293.550583 
L 258.167688 293.68495 
L 294.343481 293.726225 
L 497.978182 293.727273 
L 497.978182 293.727273 
" style="fill:none;stroke:#2ca02c;stroke-linecap:square;stroke-width:1.5;"/>
   </g>
   <g id="line2d_19">
    <path clip-path="url(#pdcc111c499)" d="M 89.541818 293.727273 
L 132.719377 293.618886 
L 143.222026 293.375684 
L 149.640312 293.008834 
L 154.308156 292.524686 
L 157.809039 291.965048 
L 160.726442 291.314295 
L 163.643844 290.440501 
L 165.977766 289.539646 
L 168.311688 288.422541 
L 170.64561 287.05606 
L 172.979532 285.413413 
L 175.313455 283.482075 
L 177.647377 281.274114 
L 180.564779 278.203188 
L 186.399584 271.908749 
L 188.150026 270.306457 
L 189.900468 268.988397 
L 191.650909 268.02951 
L 192.81787 267.617989 
L 193.984831 267.400953 
L 195.151792 267.382423 
L 196.318753 267.560438 
L 197.485714 267.927314 
L 198.652675 268.470246 
L 200.403117 269.576414 
L 202.153558 270.969322 
L 204.487481 273.137493 
L 213.823169 282.292875 
L 216.157091 284.190227 
L 218.491013 285.848076 
L 220.824935 287.268628 
L 223.158857 288.467 
L 226.07626 289.68669 
L 228.993662 290.643094 
L 231.911065 291.384439 
L 235.411948 292.050808 
L 239.496312 292.598073 
L 244.747636 293.051266 
L 251.165922 293.367846 
L 260.50161 293.584528 
L 276.839065 293.699055 
L 327.60187 293.727095 
L 497.978182 293.727273 
L 497.978182 293.727273 
" style="fill:none;stroke:#d62728;stroke-linecap:square;stroke-width:1.5;"/>
   </g>
   <g id="line2d_20">
    <path clip-path="url(#pdcc111c499)" d="M 89.541818 293.727273 
L 147.30639 293.61968 
L 161.309922 293.384172 
L 170.06213 293.025548 
L 176.480416 292.552794 
L 181.73174 291.95569 
L 186.399584 291.204489 
L 190.483948 290.334403 
L 194.568312 289.238666 
L 198.652675 287.916079 
L 203.904 285.958887 
L 210.905766 283.342243 
L 213.823169 282.464201 
L 216.740571 281.82871 
L 219.074494 281.537721 
L 221.408416 281.460939 
L 223.742338 281.602096 
L 226.07626 281.949749 
L 228.993662 282.635941 
L 232.494545 283.735589 
L 238.329351 285.887595 
L 244.164156 287.985378 
L 248.832 289.41473 
L 252.916364 290.43719 
L 257.584208 291.353476 
L 262.252052 292.037413 
L 267.503377 292.58727 
L 273.921662 293.030236 
L 282.09039 293.358497 
L 293.76 293.580313 
L 313.598338 293.69685 
L 372.52987 293.726994 
L 497.978182 293.727273 
L 497.978182 293.727273 
" style="fill:none;stroke:#9467bd;stroke-linecap:square;stroke-width:1.5;"/>
   </g>
   <g id="line2d_21">
    <path clip-path="url(#pdcc111c499)" d="M 89.541818 293.727273 
L 173.563013 293.618134 
L 193.984831 293.382517 
L 207.404883 293.010844 
L 217.907532 292.493799 
L 227.243221 291.801745 
L 237.16239 290.821135 
L 254.083325 289.088159 
L 259.91813 288.75467 
L 265.169455 288.672786 
L 270.420779 288.812119 
L 276.255584 289.1956 
L 283.840831 289.93235 
L 302.512208 291.839828 
L 311.847896 292.511172 
L 321.767065 292.992415 
L 334.020156 293.344831 
L 350.35761 293.571487 
L 377.197714 293.692568 
L 452.466701 293.726774 
L 497.978182 293.72723 
L 497.978182 293.72723 
" style="fill:none;stroke:#8c564b;stroke-linecap:square;stroke-width:1.5;"/>
   </g>
   <g id="line2d_22">
    <path clip-path="url(#pdcc111c499)" d="M 89.541818 293.727273 
L 230.744104 293.617484 
L 266.919896 293.376427 
L 293.76 292.980295 
L 345.106286 292.118351 
L 360.86026 292.187413 
L 380.698597 292.525792 
L 423.292675 293.300667 
L 452.466701 293.554671 
L 496.22774 293.686859 
L 497.978182 293.689173 
L 497.978182 293.689173 
" style="fill:none;stroke:#e377c2;stroke-linecap:square;stroke-width:1.5;"/>
   </g>
   <g id="line2d_23">
    <path clip-path="url(#pdcc111c499)" d="M 89.541818 293.727273 
L 451.29974 293.61658 
L 497.978182 293.556453 
L 497.978182 293.556453 
" style="fill:none;stroke:#7f7f7f;stroke-linecap:square;stroke-width:1.5;"/>
   </g>
   <g id="line2d_24">
    <path clip-path="url(#pdcc111c499)" d="M 89.541818 293.727273 
L 497.978182 293.727078 
L 497.978182 293.727078 
" style="fill:none;stroke:#bcbd22;stroke-linecap:square;stroke-width:1.5;"/>
   </g>
   <g id="line2d_25">
    <path clip-path="url(#pdcc111c499)" d="M 89.541818 293.727273 
L 497.978182 293.727273 
L 497.978182 293.727273 
" style="fill:none;stroke:#17becf;stroke-linecap:square;stroke-width:1.5;"/>
   </g>
   <g id="line2d_26">
    <path clip-path="url(#pdcc111c499)" d="M 89.541818 293.727273 
L 497.978182 293.727273 
L 497.978182 293.727273 
" style="fill:none;stroke:#1f77b4;stroke-linecap:square;stroke-width:1.5;"/>
   </g>
   <g id="patch_3">
    <path d="M 69.12 306 
L 69.12 36 
" style="fill:none;stroke:#000000;stroke-linecap:square;stroke-linejoin:miter;stroke-width:0.8;"/>
   </g>
   <g id="patch_4">
    <path d="M 518.4 306 
L 518.4 36 
" style="fill:none;stroke:#000000;stroke-linecap:square;stroke-linejoin:miter;stroke-width:0.8;"/>
   </g>
   <g id="patch_5">
    <path d="M 69.12 306 
L 518.4 306 
" style="fill:none;stroke:#000000;stroke-linecap:square;stroke-linejoin:miter;stroke-width:0.8;"/>
   </g>
   <g id="patch_6">
    <path d="M 69.12 36 
L 518.4 36 
" style="fill:none;stroke:#000000;stroke-linecap:square;stroke-linejoin:miter;stroke-width:0.8;"/>
   </g>
   <g id="text_18">
    <!-- 无症状感染者 -->
    <defs>
     <path d="M 67.96875 73.828125 
Q 76.171875 73.828125 82.8125 74.21875 
L 82.8125 66.796875 
Q 76.953125 67.1875 67.96875 67.1875 
L 49.609375 67.1875 
Q 49.609375 54.296875 48.828125 43.75 
L 78.90625 43.75 
Q 85.9375 43.75 91.796875 44.140625 
L 91.796875 36.71875 
Q 85.9375 37.109375 79.296875 37.109375 
L 61.71875 37.109375 
L 61.71875 6.640625 
Q 61.71875 1.5625 67.578125 1.5625 
L 80.859375 1.5625 
Q 85.15625 1.5625 85.546875 13.28125 
Q 89.453125 10.9375 94.140625 9.765625 
Q 92.1875 -5.46875 85.15625 -5.46875 
L 63.671875 -5.46875 
Q 54.6875 -5.078125 54.6875 4.6875 
L 54.6875 37.109375 
L 48.046875 37.109375 
Q 44.921875 22.265625 40.421875 14.640625 
Q 35.9375 7.03125 30.078125 1.75 
Q 24.21875 -3.515625 12.5 -10.15625 
Q 10.546875 -5.859375 5.859375 -3.515625 
Q 15.234375 0.78125 21.09375 5.265625 
Q 26.953125 9.765625 32.21875 16.40625 
Q 37.5 23.046875 40.625 37.109375 
L 23.4375 37.109375 
Q 13.671875 37.109375 9.375 36.71875 
L 9.375 44.140625 
Q 13.671875 43.75 23.4375 43.75 
L 41.40625 43.75 
Q 41.796875 55.46875 41.796875 67.1875 
L 31.25 67.1875 
Q 23.4375 67.1875 16.796875 66.796875 
L 16.796875 74.21875 
Q 23.4375 73.828125 31.25 73.828125 
z
" id="SimHei-26080"/>
     <path d="M 77.734375 52.734375 
Q 85.15625 52.734375 93.359375 53.125 
L 93.359375 46.09375 
Q 85.546875 46.484375 77.734375 46.484375 
L 68.359375 46.484375 
L 68.359375 30.078125 
L 77.734375 30.078125 
Q 82.8125 30.078125 91.015625 30.46875 
L 91.015625 23.046875 
Q 83.203125 23.4375 77.734375 23.4375 
L 68.359375 23.4375 
L 68.359375 1.5625 
L 79.6875 1.5625 
Q 86.71875 1.5625 95.703125 1.953125 
L 95.703125 -5.078125 
Q 86.328125 -4.6875 80.078125 -4.6875 
L 44.53125 -4.6875 
Q 37.109375 -4.6875 28.125 -5.078125 
L 28.125 1.953125 
Q 33.59375 1.5625 40.234375 1.5625 
L 40.234375 22.65625 
Q 40.234375 26.953125 39.84375 34.375 
L 48.046875 34.375 
Q 47.65625 28.125 47.65625 22.65625 
L 47.65625 1.5625 
L 60.15625 1.5625 
L 60.15625 46.484375 
L 49.21875 46.484375 
Q 42.578125 46.484375 35.15625 46.09375 
L 35.15625 53.125 
Q 42.578125 52.734375 49.21875 52.734375 
z
M 60.9375 82.421875 
Q 62.5 76.171875 64.453125 69.921875 
L 79.296875 69.921875 
Q 85.546875 69.921875 95.3125 70.3125 
L 95.3125 62.890625 
Q 85.546875 63.28125 79.296875 63.28125 
L 28.90625 63.28125 
L 28.90625 46.09375 
Q 28.90625 36.328125 28.515625 25.96875 
Q 28.125 15.625 25.78125 7.609375 
Q 23.4375 -0.390625 16.796875 -10.9375 
Q 13.671875 -8.59375 8.59375 -6.25 
Q 13.28125 -1.953125 16.40625 4.09375 
Q 19.53125 10.15625 20.5 16.59375 
Q 21.484375 23.046875 21.484375 27.734375 
Q 15.625 23.828125 8.203125 18.75 
Q 6.25 22.65625 3.90625 26.953125 
Q 7.421875 28.125 21.484375 34.375 
L 21.484375 53.90625 
Q 21.484375 62.5 21.09375 69.921875 
L 54.6875 69.921875 
Q 53.515625 75.78125 51.953125 80.46875 
Q 56.25 81.25 60.9375 82.421875 
z
M 8.59375 61.328125 
Q 14.453125 55.078125 20.3125 48.046875 
Q 17.96875 46.484375 14.453125 42.96875 
Q 9.375 50 3.515625 56.25 
Q 6.640625 58.984375 8.59375 61.328125 
z
" id="SimHei-30151"/>
     <path d="M 34.765625 -4.296875 
Q 41.796875 0.390625 46.484375 7.421875 
Q 51.171875 14.453125 53.90625 21.09375 
Q 56.640625 27.734375 57.8125 33.984375 
Q 58.984375 40.234375 59.375 44.921875 
L 50.390625 44.921875 
Q 44.53125 44.921875 39.0625 44.53125 
L 39.0625 51.953125 
Q 44.53125 51.5625 50 51.5625 
L 59.765625 51.5625 
Q 59.765625 62.109375 59.5625 68.359375 
Q 59.375 74.609375 58.984375 79.296875 
L 69.140625 79.296875 
Q 67.96875 74.21875 67.765625 68.9375 
Q 67.578125 63.671875 67.578125 51.5625 
L 83.59375 51.5625 
Q 87.890625 51.5625 93.359375 51.953125 
L 93.359375 44.53125 
Q 87.890625 44.921875 83.59375 44.921875 
L 68.359375 44.921875 
Q 73.046875 22.65625 78.3125 15.03125 
Q 83.59375 7.421875 87.890625 4.09375 
Q 92.1875 0.78125 95.703125 -1.171875 
Q 90.234375 -3.515625 87.890625 -8.203125 
Q 81.640625 -3.125 77.921875 1.75 
Q 74.21875 6.640625 71.671875 11.328125 
Q 69.140625 16.015625 67.375 20.890625 
Q 65.625 25.78125 64.453125 31.25 
Q 62.5 21.875 59.5625 15.234375 
Q 56.640625 8.59375 53.515625 3.703125 
Q 50.390625 -1.171875 42.96875 -9.765625 
Q 39.453125 -6.25 34.765625 -4.296875 
z
M 34.765625 81.25 
Q 34.375 75.390625 34.375 66.40625 
L 34.375 12.109375 
Q 34.375 0.78125 34.765625 -9.765625 
L 26.171875 -9.765625 
Q 26.5625 1.171875 26.5625 12.109375 
L 26.5625 30.46875 
Q 23.828125 27.34375 18.75 21.09375 
Q 13.671875 14.84375 10.9375 11.71875 
Q 7.8125 15.625 4.296875 17.96875 
Q 8.984375 21.484375 14.25 26.75 
Q 19.53125 32.03125 26.5625 40.625 
L 26.5625 66.40625 
Q 26.5625 75.390625 26.171875 81.25 
L 34.765625 81.25 
z
M 9.765625 67.578125 
Q 12.5 64.453125 15.625 60.546875 
Q 18.75 56.640625 21.484375 52.734375 
Q 18.359375 50.390625 16.40625 48.046875 
Q 13.28125 52.34375 3.90625 63.28125 
Q 6.25 65.234375 9.765625 67.578125 
z
M 85.546875 57.03125 
Q 82.03125 62.109375 73.4375 69.921875 
Q 76.5625 72.265625 78.515625 74.21875 
Q 82.03125 71.484375 84.765625 68.546875 
Q 87.5 65.625 91.015625 62.109375 
Q 87.890625 59.375 85.546875 57.03125 
z
" id="SimHei-29366"/>
     <path d="M 95.703125 29.6875 
Q 92.1875 18.75 89.453125 17.375 
Q 86.71875 16.015625 81.828125 17.765625 
Q 76.953125 19.53125 69.140625 26.5625 
Q 64.453125 21.484375 58.203125 17.1875 
Q 55.46875 20.3125 52.34375 21.875 
Q 60.546875 26.5625 65.234375 32.03125 
Q 60.9375 39.0625 58.78125 47.453125 
Q 56.640625 55.859375 55.859375 63.28125 
L 20.703125 63.28125 
Q 20.703125 45.703125 20.109375 39.453125 
Q 19.53125 33.203125 17.578125 27.734375 
Q 15.625 22.265625 11.71875 16.015625 
Q 7.03125 19.140625 4.296875 19.921875 
Q 8.984375 25.78125 11.125 31.4375 
Q 13.28125 37.109375 13.671875 44.53125 
Q 14.0625 51.953125 13.671875 69.53125 
L 55.078125 69.53125 
Q 55.078125 72.65625 54.6875 80.859375 
Q 58.203125 80.078125 62.890625 79.6875 
Q 62.109375 75 62.5 69.53125 
L 79.6875 69.53125 
Q 85.15625 69.53125 92.578125 69.921875 
L 92.578125 62.890625 
Q 85.15625 63.28125 80.078125 63.28125 
L 62.890625 63.28125 
Q 64.453125 46.875 69.53125 38.671875 
Q 71.875 42.578125 73.828125 48.234375 
Q 75.78125 53.90625 76.953125 58.984375 
Q 80.859375 57.421875 85.15625 56.25 
Q 83.59375 54.6875 81.046875 47.65625 
Q 78.515625 40.625 73.828125 32.03125 
Q 78.125 28.125 81.4375 26.171875 
Q 84.765625 24.21875 85.734375 25.390625 
Q 86.71875 26.5625 88.28125 33.59375 
Q 91.40625 30.859375 95.703125 29.6875 
z
M 51.953125 25 
L 24.609375 25 
L 24.609375 44.921875 
L 51.953125 44.921875 
z
M 76.171875 2.734375 
Q 73.4375 -5.078125 71.484375 -6.4375 
Q 69.53125 -7.8125 66.40625 -7.8125 
L 36.71875 -7.8125 
Q 31.640625 -7.421875 30.65625 -3.125 
Q 29.6875 1.171875 29.6875 5.078125 
Q 29.6875 8.984375 29.296875 14.453125 
L 37.5 14.453125 
Q 37.109375 7.8125 37.109375 5.078125 
Q 37.109375 2.734375 37.5 0.390625 
Q 37.890625 -1.953125 42.578125 -1.5625 
L 60.546875 -1.5625 
Q 64.453125 -1.5625 65.8125 -0.1875 
Q 67.1875 1.171875 67.96875 7.03125 
Q 71.09375 4.6875 76.171875 2.734375 
z
M 51.5625 51.171875 
L 25 51.171875 
L 25 57.03125 
L 51.5625 57.03125 
z
M 83.59375 14.0625 
Q 92.1875 3.515625 94.921875 -0.78125 
Q 91.015625 -3.125 87.890625 -5.46875 
Q 83.984375 1.953125 77.34375 9.375 
Q 80.078125 11.328125 83.59375 14.0625 
z
M 7.421875 -2.734375 
Q 10.9375 1.5625 15.234375 14.453125 
Q 18.359375 12.890625 22.65625 11.328125 
Q 17.578125 -0.390625 14.84375 -5.859375 
Q 11.71875 -4.296875 7.421875 -2.734375 
z
M 45.703125 30.46875 
L 45.703125 39.453125 
L 30.859375 39.453125 
L 30.859375 30.46875 
z
M 42.578125 16.40625 
Q 44.921875 18.359375 48.4375 20.703125 
Q 55.078125 12.109375 57.03125 8.59375 
Q 53.90625 6.640625 51.171875 3.90625 
Q 48.828125 8.203125 42.578125 16.40625 
z
M 76.5625 70.3125 
Q 74.21875 72.265625 67.96875 76.5625 
Q 70.3125 79.296875 71.875 81.640625 
Q 74.609375 80.078125 81.25 75 
Q 78.90625 73.046875 76.5625 70.3125 
z
" id="SimHei-24863"/>
     <path d="M 91.015625 -7.03125 
Q 74.21875 -2.34375 66.40625 3.90625 
Q 58.59375 10.15625 53.90625 17.96875 
Q 53.90625 -4.6875 54.296875 -9.375 
L 46.09375 -9.375 
Q 46.484375 -4.296875 46.484375 16.796875 
Q 40.625 8.59375 31.4375 2.34375 
Q 22.265625 -3.90625 9.765625 -8.984375 
Q 8.59375 -5.078125 3.125 -1.5625 
Q 16.796875 1.5625 25.96875 7.609375 
Q 35.15625 13.671875 38.671875 19.140625 
L 19.140625 19.140625 
Q 13.671875 19.140625 6.25 18.75 
L 6.25 25.78125 
Q 13.671875 25.390625 19.140625 25.390625 
L 46.484375 25.390625 
Q 46.484375 28.515625 46.09375 33.59375 
L 54.296875 33.59375 
Q 53.90625 28.90625 53.90625 25.390625 
L 82.8125 25.390625 
Q 87.890625 25.390625 93.75 25.78125 
L 93.75 18.75 
Q 87.890625 19.140625 82.8125 19.140625 
L 61.71875 19.140625 
Q 67.96875 10.546875 78.125 6.25 
Q 88.28125 1.953125 96.484375 1.171875 
Q 91.40625 -3.90625 91.015625 -7.03125 
z
M 28.515625 35.9375 
Q 39.84375 40.234375 45.703125 47.0625 
Q 51.5625 53.90625 53.125 62.5 
Q 47.265625 62.5 40.234375 62.109375 
L 40.234375 69.140625 
Q 47.65625 68.75 53.515625 68.75 
Q 53.90625 76.953125 53.515625 82.03125 
Q 58.203125 80.859375 62.5 80.859375 
Q 61.328125 78.515625 60.9375 68.75 
L 80.078125 68.75 
Q 79.6875 64.84375 79.296875 60.15625 
L 78.125 44.53125 
Q 78.515625 40.625 80.859375 40.625 
L 85.15625 40.625 
Q 87.109375 40.625 87.6875 42.1875 
Q 88.28125 43.75 88.671875 50 
Q 91.796875 47.265625 96.875 46.875 
Q 95.3125 36.328125 92.375 35.34375 
Q 89.453125 34.375 84.171875 34.171875 
Q 78.90625 33.984375 74.796875 34.953125 
Q 70.703125 35.9375 71.09375 42.1875 
L 72.265625 62.5 
L 60.546875 62.5 
Q 59.375 53.515625 54.296875 45.890625 
Q 49.21875 38.28125 35.546875 30.078125 
Q 33.984375 32.8125 28.515625 35.9375 
z
M 33.984375 45.703125 
Q 19.140625 33.984375 13.28125 29.296875 
Q 10.9375 33.203125 7.8125 35.9375 
Q 17.1875 40.625 31.25 52.734375 
Q 32.03125 49.609375 33.984375 45.703125 
z
M 10.546875 64.84375 
Q 21.484375 59.765625 27.34375 56.25 
Q 24.609375 52.734375 23.046875 49.609375 
Q 19.140625 53.125 7.03125 58.59375 
Q 9.375 61.328125 10.546875 64.84375 
z
M 28.90625 64.84375 
Q 23.046875 69.921875 14.0625 74.609375 
Q 16.015625 76.953125 18.359375 80.078125 
Q 27.34375 75 33.984375 71.09375 
Q 30.46875 67.578125 28.90625 64.84375 
z
" id="SimHei-26579"/>
     <path d="M 88.28125 67.578125 
Q 85.15625 64.84375 81.046875 60.546875 
Q 76.953125 56.25 69.53125 48.828125 
L 80.46875 48.828125 
Q 87.109375 48.828125 94.140625 49.21875 
L 94.140625 42.1875 
Q 87.109375 42.578125 80.078125 42.578125 
L 61.71875 42.578125 
Q 55.46875 37.890625 47.65625 32.421875 
L 80.859375 32.421875 
Q 80.46875 25.390625 80.46875 19.53125 
L 80.46875 5.859375 
Q 80.46875 -1.171875 80.859375 -9.375 
L 73.046875 -9.375 
L 73.046875 -3.515625 
L 35.546875 -3.515625 
L 35.546875 -9.375 
L 27.34375 -9.375 
Q 27.734375 -3.125 27.734375 2.34375 
L 27.734375 20.3125 
Q 19.921875 16.015625 10.15625 11.71875 
Q 6.25 17.1875 4.6875 18.359375 
Q 7.421875 19.140625 15.03125 22.0625 
Q 22.65625 25 27.734375 28.515625 
L 27.734375 32.421875 
L 35.15625 32.421875 
Q 43.75 37.109375 50.390625 42.578125 
L 22.65625 42.578125 
Q 14.453125 42.578125 7.421875 42.1875 
L 7.421875 49.21875 
Q 15.234375 48.828125 22.65625 48.828125 
L 43.359375 48.828125 
L 43.359375 60.9375 
L 31.640625 60.9375 
Q 25 60.9375 19.53125 60.546875 
L 19.53125 67.578125 
Q 25 67.1875 31.640625 67.1875 
L 43.359375 67.1875 
Q 43.359375 73.046875 42.96875 80.46875 
L 51.5625 80.46875 
Q 51.171875 75 51.171875 67.1875 
L 57.03125 67.1875 
Q 62.109375 67.1875 68.75 67.578125 
L 68.75 60.546875 
Q 62.109375 60.9375 57.03125 60.9375 
L 51.171875 60.9375 
L 51.171875 48.828125 
L 58.984375 48.828125 
Q 64.453125 53.125 69.921875 58.984375 
Q 75.390625 64.84375 81.25 73.828125 
Q 85.546875 69.53125 88.28125 67.578125 
z
M 73.046875 2.734375 
L 73.046875 11.71875 
L 35.546875 11.71875 
L 35.546875 2.734375 
z
M 73.046875 17.96875 
L 73.046875 26.171875 
L 35.546875 26.171875 
L 35.546875 17.96875 
z
" id="SimHei-32773"/>
    </defs>
    <g transform="translate(227.76 30)scale(0.22 -0.22)">
     <use xlink:href="#SimHei-26080"/>
     <use x="100" xlink:href="#SimHei-30151"/>
     <use x="200" xlink:href="#SimHei-29366"/>
     <use x="300" xlink:href="#SimHei-24863"/>
     <use x="400" xlink:href="#SimHei-26579"/>
     <use x="500" xlink:href="#SimHei-32773"/>
    </g>
   </g>
   <g id="legend_1">
    <g id="patch_7">
     <path d="M 407.4 282.5625 
L 507.9 282.5625 
Q 510.9 282.5625 510.9 279.5625 
L 510.9 62.4375 
Q 510.9 59.4375 507.9 59.4375 
L 407.4 59.4375 
Q 404.4 59.4375 404.4 62.4375 
L 404.4 279.5625 
Q 404.4 282.5625 407.4 282.5625 
z
" style="fill:#ffffff;opacity:0.8;stroke:#cccccc;stroke-linejoin:miter;"/>
    </g>
    <g id="line2d_27">
     <path d="M 410.4 70.6875 
L 440.4 70.6875 
" style="fill:none;stroke:#1f77b4;stroke-linecap:square;stroke-width:1.5;"/>
    </g>
    <g id="line2d_28"/>
    <g id="text_19">
     <!-- k = 0.0 -->
     <defs>
      <path d="M 45.703125 1.953125 
L 36.71875 1.953125 
L 22.65625 25.78125 
L 13.671875 17.1875 
L 13.671875 1.953125 
L 5.859375 1.953125 
L 5.859375 68.75 
L 13.671875 68.75 
L 13.671875 26.171875 
L 33.203125 45.703125 
L 42.96875 45.703125 
L 27.734375 30.859375 
z
" id="SimHei-107"/>
      <path id="SimHei-32"/>
      <path d="M 46.484375 45.3125 
L 1.953125 45.3125 
L 1.953125 51.5625 
L 46.484375 51.5625 
z
M 46.484375 21.484375 
L 1.953125 21.484375 
L 1.953125 27.734375 
L 46.484375 27.734375 
z
" id="SimHei-61"/>
      <path d="M 16.796875 1.953125 
L 7.8125 1.953125 
L 7.8125 10.546875 
L 16.796875 10.546875 
z
" id="SimHei-46"/>
     </defs>
     <g transform="translate(452.4 75.9375)scale(0.15 -0.15)">
      <use xlink:href="#SimHei-107"/>
      <use x="50" xlink:href="#SimHei-32"/>
      <use x="100" xlink:href="#SimHei-61"/>
      <use x="150" xlink:href="#SimHei-32"/>
      <use x="200" xlink:href="#SimHei-48"/>
      <use x="250" xlink:href="#SimHei-46"/>
      <use x="300" xlink:href="#SimHei-48"/>
     </g>
    </g>
    <g id="line2d_29">
     <path d="M 410.4 90.5625 
L 440.4 90.5625 
" style="fill:none;stroke:#ff7f0e;stroke-linecap:square;stroke-width:1.5;"/>
    </g>
    <g id="line2d_30"/>
    <g id="text_20">
     <!-- k = 0.1 -->
     <g transform="translate(452.4 95.8125)scale(0.15 -0.15)">
      <use xlink:href="#SimHei-107"/>
      <use x="50" xlink:href="#SimHei-32"/>
      <use x="100" xlink:href="#SimHei-61"/>
      <use x="150" xlink:href="#SimHei-32"/>
      <use x="200" xlink:href="#SimHei-48"/>
      <use x="250" xlink:href="#SimHei-46"/>
      <use x="300" xlink:href="#SimHei-49"/>
     </g>
    </g>
    <g id="line2d_31">
     <path d="M 410.4 110.4375 
L 440.4 110.4375 
" style="fill:none;stroke:#2ca02c;stroke-linecap:square;stroke-width:1.5;"/>
    </g>
    <g id="line2d_32"/>
    <g id="text_21">
     <!-- k = 0.2 -->
     <g transform="translate(452.4 115.6875)scale(0.15 -0.15)">
      <use xlink:href="#SimHei-107"/>
      <use x="50" xlink:href="#SimHei-32"/>
      <use x="100" xlink:href="#SimHei-61"/>
      <use x="150" xlink:href="#SimHei-32"/>
      <use x="200" xlink:href="#SimHei-48"/>
      <use x="250" xlink:href="#SimHei-46"/>
      <use x="300" xlink:href="#SimHei-50"/>
     </g>
    </g>
    <g id="line2d_33">
     <path d="M 410.4 130.3125 
L 440.4 130.3125 
" style="fill:none;stroke:#d62728;stroke-linecap:square;stroke-width:1.5;"/>
    </g>
    <g id="line2d_34"/>
    <g id="text_22">
     <!-- k = 0.3 -->
     <g transform="translate(452.4 135.5625)scale(0.15 -0.15)">
      <use xlink:href="#SimHei-107"/>
      <use x="50" xlink:href="#SimHei-32"/>
      <use x="100" xlink:href="#SimHei-61"/>
      <use x="150" xlink:href="#SimHei-32"/>
      <use x="200" xlink:href="#SimHei-48"/>
      <use x="250" xlink:href="#SimHei-46"/>
      <use x="300" xlink:href="#SimHei-51"/>
     </g>
    </g>
    <g id="line2d_35">
     <path d="M 410.4 150.1875 
L 440.4 150.1875 
" style="fill:none;stroke:#9467bd;stroke-linecap:square;stroke-width:1.5;"/>
    </g>
    <g id="line2d_36"/>
    <g id="text_23">
     <!-- k = 0.4 -->
     <g transform="translate(452.4 155.4375)scale(0.15 -0.15)">
      <use xlink:href="#SimHei-107"/>
      <use x="50" xlink:href="#SimHei-32"/>
      <use x="100" xlink:href="#SimHei-61"/>
      <use x="150" xlink:href="#SimHei-32"/>
      <use x="200" xlink:href="#SimHei-48"/>
      <use x="250" xlink:href="#SimHei-46"/>
      <use x="300" xlink:href="#SimHei-52"/>
     </g>
    </g>
    <g id="line2d_37">
     <path d="M 410.4 170.0625 
L 440.4 170.0625 
" style="fill:none;stroke:#8c564b;stroke-linecap:square;stroke-width:1.5;"/>
    </g>
    <g id="line2d_38"/>
    <g id="text_24">
     <!-- k = 0.5 -->
     <g transform="translate(452.4 175.3125)scale(0.15 -0.15)">
      <use xlink:href="#SimHei-107"/>
      <use x="50" xlink:href="#SimHei-32"/>
      <use x="100" xlink:href="#SimHei-61"/>
      <use x="150" xlink:href="#SimHei-32"/>
      <use x="200" xlink:href="#SimHei-48"/>
      <use x="250" xlink:href="#SimHei-46"/>
      <use x="300" xlink:href="#SimHei-53"/>
     </g>
    </g>
    <g id="line2d_39">
     <path d="M 410.4 189.9375 
L 440.4 189.9375 
" style="fill:none;stroke:#e377c2;stroke-linecap:square;stroke-width:1.5;"/>
    </g>
    <g id="line2d_40"/>
    <g id="text_25">
     <!-- k = 0.6 -->
     <g transform="translate(452.4 195.1875)scale(0.15 -0.15)">
      <use xlink:href="#SimHei-107"/>
      <use x="50" xlink:href="#SimHei-32"/>
      <use x="100" xlink:href="#SimHei-61"/>
      <use x="150" xlink:href="#SimHei-32"/>
      <use x="200" xlink:href="#SimHei-48"/>
      <use x="250" xlink:href="#SimHei-46"/>
      <use x="300" xlink:href="#SimHei-54"/>
     </g>
    </g>
    <g id="line2d_41">
     <path d="M 410.4 209.8125 
L 440.4 209.8125 
" style="fill:none;stroke:#7f7f7f;stroke-linecap:square;stroke-width:1.5;"/>
    </g>
    <g id="line2d_42"/>
    <g id="text_26">
     <!-- k = 0.7 -->
     <g transform="translate(452.4 215.0625)scale(0.15 -0.15)">
      <use xlink:href="#SimHei-107"/>
      <use x="50" xlink:href="#SimHei-32"/>
      <use x="100" xlink:href="#SimHei-61"/>
      <use x="150" xlink:href="#SimHei-32"/>
      <use x="200" xlink:href="#SimHei-48"/>
      <use x="250" xlink:href="#SimHei-46"/>
      <use x="300" xlink:href="#SimHei-55"/>
     </g>
    </g>
    <g id="line2d_43">
     <path d="M 410.4 229.6875 
L 440.4 229.6875 
" style="fill:none;stroke:#bcbd22;stroke-linecap:square;stroke-width:1.5;"/>
    </g>
    <g id="line2d_44"/>
    <g id="text_27">
     <!-- k = 0.8 -->
     <defs>
      <path d="M 2.734375 16.796875 
Q 2.734375 26.171875 5.078125 30.65625 
Q 7.421875 35.15625 12.890625 37.890625 
Q 8.203125 40.625 6.640625 43.9375 
Q 5.078125 47.265625 4.875 51.5625 
Q 4.6875 55.859375 6.046875 58.984375 
Q 7.421875 62.109375 10.15625 64.84375 
Q 12.890625 67.578125 16.203125 68.546875 
Q 19.53125 69.53125 23.4375 69.53125 
Q 27.34375 69.53125 30.46875 68.75 
Q 33.59375 67.96875 37.109375 65.421875 
Q 40.625 62.890625 42.1875 58.203125 
Q 43.75 53.515625 41.984375 47.265625 
Q 40.234375 41.015625 32.8125 37.5 
Q 39.453125 35.546875 42.1875 31.4375 
Q 44.921875 27.34375 44.921875 21.484375 
Q 44.921875 15.625 43.15625 12.109375 
Q 41.40625 8.59375 39.25 6.25 
Q 37.109375 3.90625 33.390625 2.53125 
Q 29.6875 1.171875 24.015625 1.171875 
Q 18.359375 1.171875 14.25 2.53125 
Q 10.15625 3.90625 7.421875 6.640625 
Q 4.6875 9.375 3.703125 13.078125 
Q 2.734375 16.796875 2.734375 26.171875 
z
M 10.9375 26.5625 
Q 10.546875 17.1875 12.296875 13.671875 
Q 14.0625 10.15625 18.75 9.171875 
Q 23.4375 8.203125 28.515625 9.375 
Q 33.59375 10.546875 35.546875 14.84375 
Q 37.5 19.140625 36.90625 23.4375 
Q 36.328125 27.734375 32.03125 30.65625 
Q 27.734375 33.59375 22.65625 33.203125 
Q 17.578125 32.8125 14.25 29.6875 
Q 10.9375 26.5625 10.546875 17.1875 
z
M 12.109375 56.25 
Q 12.109375 48.4375 14.84375 44.921875 
Q 17.578125 41.40625 23.4375 41.40625 
Q 29.296875 41.40625 32.21875 44.921875 
Q 35.15625 48.4375 34.953125 53.3125 
Q 34.765625 58.203125 31.4375 60.546875 
Q 28.125 62.890625 22.453125 62.5 
Q 16.796875 62.109375 14.453125 59.171875 
Q 12.109375 56.25 12.109375 48.4375 
z
" id="SimHei-56"/>
     </defs>
     <g transform="translate(452.4 234.9375)scale(0.15 -0.15)">
      <use xlink:href="#SimHei-107"/>
      <use x="50" xlink:href="#SimHei-32"/>
      <use x="100" xlink:href="#SimHei-61"/>
      <use x="150" xlink:href="#SimHei-32"/>
      <use x="200" xlink:href="#SimHei-48"/>
      <use x="250" xlink:href="#SimHei-46"/>
      <use x="300" xlink:href="#SimHei-56"/>
     </g>
    </g>
    <g id="line2d_45">
     <path d="M 410.4 249.5625 
L 440.4 249.5625 
" style="fill:none;stroke:#17becf;stroke-linecap:square;stroke-width:1.5;"/>
    </g>
    <g id="line2d_46"/>
    <g id="text_28">
     <!-- k = 0.9 -->
     <defs>
      <path d="M 12.5 1.171875 
Q 21.09375 15.625 26.5625 27.34375 
Q 16.796875 25.78125 10.34375 29.875 
Q 3.90625 33.984375 2.53125 41.015625 
Q 1.171875 48.046875 2.734375 53.703125 
Q 4.296875 59.375 7.609375 63.078125 
Q 10.9375 66.796875 15.625 68.359375 
Q 20.3125 69.921875 24.015625 69.921875 
Q 27.734375 69.921875 31.640625 68.359375 
Q 35.546875 66.796875 38.671875 63.671875 
Q 41.796875 60.546875 42.96875 57.21875 
Q 44.140625 53.90625 44.140625 48.625 
Q 44.140625 43.359375 40.234375 35.15625 
Q 36.328125 26.953125 21.09375 1.171875 
z
M 9.765625 50 
Q 10.9375 39.84375 14.640625 36.515625 
Q 18.359375 33.203125 22.65625 33.59375 
Q 26.953125 33.984375 29.484375 35.9375 
Q 32.03125 37.890625 34.375 42.578125 
Q 35.9375 48.4375 35.15625 52.53125 
Q 34.375 56.640625 31.046875 59.375 
Q 27.734375 62.109375 23.828125 62.109375 
Q 21.484375 62.5 17.765625 60.9375 
Q 14.0625 59.375 11.90625 54.6875 
Q 9.765625 50 10.9375 39.84375 
z
" id="SimHei-57"/>
     </defs>
     <g transform="translate(452.4 254.8125)scale(0.15 -0.15)">
      <use xlink:href="#SimHei-107"/>
      <use x="50" xlink:href="#SimHei-32"/>
      <use x="100" xlink:href="#SimHei-61"/>
      <use x="150" xlink:href="#SimHei-32"/>
      <use x="200" xlink:href="#SimHei-48"/>
      <use x="250" xlink:href="#SimHei-46"/>
      <use x="300" xlink:href="#SimHei-57"/>
     </g>
    </g>
    <g id="line2d_47">
     <path d="M 410.4 269.4375 
L 440.4 269.4375 
" style="fill:none;stroke:#1f77b4;stroke-linecap:square;stroke-width:1.5;"/>
    </g>
    <g id="line2d_48"/>
    <g id="text_29">
     <!-- k = 1.0 -->
     <g transform="translate(452.4 274.6875)scale(0.15 -0.15)">
      <use xlink:href="#SimHei-107"/>
      <use x="50" xlink:href="#SimHei-32"/>
      <use x="100" xlink:href="#SimHei-61"/>
      <use x="150" xlink:href="#SimHei-32"/>
      <use x="200" xlink:href="#SimHei-49"/>
      <use x="250" xlink:href="#SimHei-46"/>
      <use x="300" xlink:href="#SimHei-48"/>
     </g>
    </g>
   </g>
  </g>
 </g>
 <defs>
  <clipPath id="pdcc111c499">
   <rect height="270" width="449.28" x="69.12" y="36"/>
  </clipPath>
 </defs>
</svg>
