<?xml version="1.0" encoding="utf-8" standalone="no"?>
<!DOCTYPE svg PUBLIC "-//W3C//DTD SVG 1.1//EN"
  "http://www.w3.org/Graphics/SVG/1.1/DTD/svg11.dtd">
<!-- Created with matplotlib (https://matplotlib.org/) -->
<svg height="288pt" version="1.1" viewBox="0 0 360 288" width="360pt" xmlns="http://www.w3.org/2000/svg" xmlns:xlink="http://www.w3.org/1999/xlink">
 <defs>
  <style type="text/css">
*{stroke-linecap:butt;stroke-linejoin:round;}
  </style>
 </defs>
 <g id="figure_1">
  <g id="patch_1">
   <path d="M 0 288 
L 360 288 
L 360 0 
L 0 0 
z
" style="fill:#ffffff;"/>
  </g>
  <g id="axes_1">
   <g id="patch_2">
    <path d="M 54 244.8 
L 324 244.8 
L 324 28.8 
L 54 28.8 
z
" style="fill:#ffffff;"/>
   </g>
   <g id="matplotlib.axis_1">
    <g id="xtick_1">
     <g id="line2d_1">
      <defs>
       <path d="M 0 0 
L 0 3.5 
" id="m5f261bc9cc" style="stroke:#000000;stroke-width:0.8;"/>
      </defs>
      <g>
       <use style="stroke:#000000;stroke-width:0.8;" x="54" xlink:href="#m5f261bc9cc" y="244.8"/>
      </g>
     </g>
     <g id="text_1">
      <!-- 0 -->
      <defs>
       <path d="M 27.296875 -1.796875 
Q 15.703125 -1.796875 9.453125 7.75 
Q 3.203125 17.296875 3.203125 35.90625 
Q 3.203125 54.5 9.453125 64.046875 
Q 15.703125 73.59375 27.296875 73.59375 
Q 38.703125 73.59375 45.453125 63.84375 
Q 52.203125 54.09375 52.203125 35.90625 
Q 52.203125 17.703125 45.390625 7.953125 
Q 38.59375 -1.796875 27.296875 -1.796875 
z
M 27.5 66.796875 
Q 19.203125 66.796875 14.59375 58.796875 
Q 10 50.796875 10 35.703125 
Q 10 4.703125 27.5 4.703125 
Q 36 4.703125 40.75 12.84375 
Q 45.5 21 45.5 35.703125 
Q 45.5 50.796875 40.59375 58.796875 
Q 35.703125 66.796875 27.5 66.796875 
z
" id="STXihei-48"/>
      </defs>
      <g transform="translate(51.229687 259.159375)scale(0.1 -0.1)">
       <use xlink:href="#STXihei-48"/>
      </g>
     </g>
    </g>
    <g id="xtick_2">
     <g id="line2d_2">
      <g>
       <use style="stroke:#000000;stroke-width:0.8;" x="108" xlink:href="#m5f261bc9cc" y="244.8"/>
      </g>
     </g>
     <g id="text_2">
      <!-- 100 -->
      <defs>
       <path d="M 18.5 71.796875 
L 32.59375 71.796875 
L 32.59375 0 
L 25.5 0 
L 25.5 64.796875 
L 14.203125 64.796875 
z
" id="STXihei-49"/>
      </defs>
      <g transform="translate(99.689063 259.159375)scale(0.1 -0.1)">
       <use xlink:href="#STXihei-49"/>
       <use x="55.399994" xlink:href="#STXihei-48"/>
       <use x="110.799988" xlink:href="#STXihei-48"/>
      </g>
     </g>
    </g>
    <g id="xtick_3">
     <g id="line2d_3">
      <g>
       <use style="stroke:#000000;stroke-width:0.8;" x="162" xlink:href="#m5f261bc9cc" y="244.8"/>
      </g>
     </g>
     <g id="text_3">
      <!-- 200 -->
      <defs>
       <path d="M 11.59375 49.296875 
L 4.703125 49.296875 
Q 5.203125 60.296875 12 66.9375 
Q 18.796875 73.59375 28.59375 73.59375 
Q 38.09375 73.59375 44.4375 67.34375 
Q 50.796875 61.09375 50.796875 52.09375 
Q 50.796875 45.40625 47.25 39.703125 
Q 43.703125 34 36.5 26.203125 
L 18.59375 6.90625 
L 51.796875 6.90625 
L 51.796875 0 
L 3 0 
L 30.40625 29.59375 
Q 37.59375 37.40625 40.6875 41.90625 
Q 43.796875 46.40625 43.796875 52 
Q 43.796875 58 39.25 62.390625 
Q 34.703125 66.796875 28.203125 66.796875 
Q 21.203125 66.796875 16.75 62.25 
Q 12.296875 57.703125 11.59375 49.296875 
z
" id="STXihei-50"/>
      </defs>
      <g transform="translate(153.689063 259.159375)scale(0.1 -0.1)">
       <use xlink:href="#STXihei-50"/>
       <use x="55.399994" xlink:href="#STXihei-48"/>
       <use x="110.799988" xlink:href="#STXihei-48"/>
      </g>
     </g>
    </g>
    <g id="xtick_4">
     <g id="line2d_4">
      <g>
       <use style="stroke:#000000;stroke-width:0.8;" x="216" xlink:href="#m5f261bc9cc" y="244.8"/>
      </g>
     </g>
     <g id="text_4">
      <!-- 300 -->
      <defs>
       <path d="M 13.203125 55.203125 
L 5.90625 55.203125 
Q 7.90625 64.09375 13.546875 68.84375 
Q 19.203125 73.59375 27 73.59375 
Q 35.5 73.59375 41.546875 68.1875 
Q 47.59375 62.796875 47.59375 55.09375 
Q 47.59375 45.796875 38.40625 40.40625 
Q 44.703125 37.796875 48.140625 32.640625 
Q 51.59375 27.5 51.59375 21.40625 
Q 51.59375 11.90625 44.640625 5.046875 
Q 37.703125 -1.796875 27.09375 -1.796875 
Q 17.703125 -1.796875 11.59375 3.546875 
Q 5.5 8.90625 3.5 19.203125 
L 10.5 19.203125 
Q 12.40625 12.09375 16.34375 8.640625 
Q 20.296875 5.203125 27.203125 5.203125 
Q 34.703125 5.203125 39.59375 9.796875 
Q 44.5 14.40625 44.5 20.796875 
Q 44.5 28 39.09375 32.140625 
Q 33.703125 36.296875 23.40625 36.5 
L 23.40625 43.09375 
Q 30.796875 43.09375 35.4375 46.5 
Q 40.09375 49.90625 40.09375 55.09375 
Q 40.09375 60 36.34375 63.34375 
Q 32.59375 66.703125 27 66.703125 
Q 22 66.703125 18.75 63.84375 
Q 15.5 61 13.203125 55.203125 
z
" id="STXihei-51"/>
      </defs>
      <g transform="translate(207.689063 259.159375)scale(0.1 -0.1)">
       <use xlink:href="#STXihei-51"/>
       <use x="55.399994" xlink:href="#STXihei-48"/>
       <use x="110.799988" xlink:href="#STXihei-48"/>
      </g>
     </g>
    </g>
    <g id="xtick_5">
     <g id="line2d_5">
      <g>
       <use style="stroke:#000000;stroke-width:0.8;" x="270" xlink:href="#m5f261bc9cc" y="244.8"/>
      </g>
     </g>
     <g id="text_5">
      <!-- 400 -->
      <defs>
       <path d="M 42.59375 73.59375 
L 44 73.59375 
L 44 23.59375 
L 52.703125 23.59375 
L 52.703125 16.703125 
L 44 16.703125 
L 44 0 
L 36.90625 0 
L 36.90625 16.703125 
L 2.5 16.703125 
z
M 36.90625 23.59375 
L 36.90625 53.5 
L 15.703125 23.59375 
z
" id="STXihei-52"/>
      </defs>
      <g transform="translate(261.689062 259.159375)scale(0.1 -0.1)">
       <use xlink:href="#STXihei-52"/>
       <use x="55.399994" xlink:href="#STXihei-48"/>
       <use x="110.799988" xlink:href="#STXihei-48"/>
      </g>
     </g>
    </g>
    <g id="xtick_6">
     <g id="line2d_6">
      <g>
       <use style="stroke:#000000;stroke-width:0.8;" x="324" xlink:href="#m5f261bc9cc" y="244.8"/>
      </g>
     </g>
     <g id="text_6">
      <!-- 500 -->
      <defs>
       <path d="M 49.203125 71.796875 
L 49.203125 65 
L 23.59375 65 
L 20 45.40625 
Q 24.796875 46.796875 29 46.796875 
Q 38.40625 46.796875 44.703125 40.140625 
Q 51 33.5 51 23.296875 
Q 51 12.703125 44.140625 5.453125 
Q 37.296875 -1.796875 26 -1.796875 
Q 17.40625 -1.796875 11.34375 3.34375 
Q 5.296875 8.5 4.09375 17.40625 
L 11.40625 17.40625 
Q 12.703125 11.40625 16.796875 8.203125 
Q 20.90625 5 26.296875 5 
Q 33.40625 5 38.546875 10.296875 
Q 43.703125 15.59375 43.703125 23.5 
Q 43.703125 30.703125 39.203125 35.34375 
Q 34.703125 40 27 40 
Q 20.203125 40 11.40625 36.203125 
L 18.09375 71.796875 
z
" id="STXihei-53"/>
      </defs>
      <g transform="translate(315.689062 259.159375)scale(0.1 -0.1)">
       <use xlink:href="#STXihei-53"/>
       <use x="55.399994" xlink:href="#STXihei-48"/>
       <use x="110.799988" xlink:href="#STXihei-48"/>
      </g>
     </g>
    </g>
    <g id="text_7">
     <!-- 时间（天） -->
     <defs>
      <path d="M 74.59375 51.09375 
Q 74.59375 70.59375 73.5 76 
Q 76.09375 75.296875 81.296875 75.296875 
Q 83 75.296875 83 74.5 
Q 83 73.703125 81.84375 73.046875 
Q 80.703125 72.40625 80.703125 69.09375 
L 80.703125 51.09375 
Q 89.09375 51.203125 96 51.90625 
L 96 45.203125 
Q 90.59375 45.90625 80.703125 45.90625 
L 80.703125 -3.703125 
Q 80.703125 -8.40625 79.25 -10.90625 
Q 77.796875 -13.40625 73.296875 -14.59375 
Q 68.796875 -15.796875 59.5 -15.796875 
Q 59.5 -11.09375 55.90625 -7.296875 
Q 62.59375 -8.40625 66.640625 -8.40625 
Q 70.703125 -8.40625 72.640625 -6.796875 
Q 74.59375 -5.203125 74.59375 -0.296875 
L 74.59375 46 
L 61.796875 46 
Q 50.90625 46 42.90625 45.203125 
L 42.90625 51.90625 
Q 50.796875 51.09375 61.796875 51.09375 
z
M 15.09375 4.203125 
L 15.09375 -7.59375 
L 8.296875 -7.59375 
Q 9 -1.90625 9 6.703125 
L 9 56.59375 
Q 9 64.59375 8.40625 67.703125 
Q 11.59375 66.90625 24.75 66.90625 
Q 37.90625 66.90625 41.09375 67.703125 
Q 40.5 65.09375 40.5 56.59375 
L 40.5 8.09375 
Q 40.5 1.703125 41.203125 -5.09375 
L 34.296875 -5.09375 
L 34.296875 4.203125 
z
M 34.296875 37.296875 
L 34.296875 61.796875 
L 15.09375 61.796875 
L 15.09375 37.296875 
z
M 34.296875 8.90625 
L 34.296875 32.59375 
L 15.09375 32.59375 
L 15.09375 8.90625 
z
M 68.09375 16.796875 
L 62.296875 13 
Q 57.296875 23.40625 48.296875 32.90625 
L 53.40625 36.296875 
Q 62.796875 25.296875 68.09375 16.796875 
z
" id="STXihei-26102"/>
      <path d="M 34 62.59375 
L 29 57.796875 
Q 24.203125 64.90625 14.796875 71.40625 
L 18.59375 75.796875 
Q 27.796875 69.09375 34 62.59375 
z
M 87.90625 67.703125 
Q 87.203125 64.09375 87.203125 56.40625 
L 87.203125 -4.703125 
Q 87.203125 -9.796875 86.046875 -12.140625 
Q 84.90625 -14.5 81.84375 -15.34375 
Q 78.796875 -16.203125 72.09375 -16.40625 
Q 72.40625 -12.296875 69.40625 -8.90625 
Q 74 -9.703125 76.5 -9.703125 
Q 79 -9.703125 80.140625 -8.796875 
Q 81.296875 -7.90625 81.296875 -5 
L 81.296875 61.796875 
L 62.203125 61.796875 
Q 51.5 61.796875 43.796875 61.203125 
L 43.796875 67.59375 
Q 51.296875 67 66.6875 67 
Q 82.09375 67 87.90625 67.703125 
z
M 11.796875 58 
Q 14.296875 57.09375 15.1875 56.9375 
Q 16.09375 56.796875 18.4375 56.796875 
Q 20.796875 56.796875 20.796875 56.046875 
Q 20.796875 55.296875 19.296875 54.09375 
Q 18.90625 53.796875 18.5 51.796875 
Q 18.09375 49.796875 18.09375 47.5 
L 18.09375 -16.296875 
L 11.296875 -16.296875 
Q 12.296875 -7.296875 12.296875 -2.40625 
L 12.296875 45.40625 
Q 12.296875 51.90625 11.796875 58 
z
M 68.703125 2.59375 
Q 63.203125 3.296875 49.140625 3.296875 
Q 35.09375 3.296875 29.703125 2.59375 
Q 30 7.09375 30 8.796875 
L 30 41.5 
Q 30 44.5 29.703125 47.703125 
Q 35 47 49.09375 47 
Q 63.203125 47 68.703125 47.703125 
Q 68.40625 45.203125 68.40625 41.5 
L 68.40625 8.796875 
Q 68.40625 5.203125 68.703125 2.59375 
z
M 62.59375 27.296875 
L 62.59375 42.203125 
L 35.59375 42.203125 
L 35.59375 27.296875 
z
M 35.59375 22.59375 
L 35.59375 7.796875 
L 62.59375 7.796875 
L 62.59375 22.59375 
z
" id="STXihei-38388"/>
      <path d="M 90.40625 70.59375 
Q 81.703125 60.796875 77.5 51.6875 
Q 73.296875 42.59375 73.296875 33 
Q 73.296875 16.203125 77.34375 7.453125 
Q 81.40625 -1.296875 89.90625 -10.296875 
L 86 -14.203125 
Q 76.40625 -4.796875 71.65625 6.25 
Q 66.90625 17.296875 66.90625 32.90625 
Q 66.90625 43.203125 72.046875 54.34375 
Q 77.203125 65.5 86.796875 74.09375 
z
" id="STXihei-65288"/>
      <path d="M 47.90625 62.203125 
Q 25.90625 62.203125 15.203125 61.40625 
L 15.203125 67.90625 
Q 23.703125 67.09375 51.046875 67.09375 
Q 78.40625 67.09375 86.203125 67.90625 
L 86.203125 61.40625 
Q 78.40625 62.203125 53.796875 62.203125 
Q 54.203125 46.90625 52.296875 35.40625 
Q 84.40625 35.40625 92.796875 36.203125 
L 92.796875 29.59375 
Q 84.90625 30.40625 55 30.40625 
Q 60.203125 17.90625 70.84375 7.34375 
Q 81.5 -3.203125 94.09375 -8.203125 
Q 90.09375 -9.90625 87.796875 -14.59375 
Q 57.59375 6.09375 50.59375 28.09375 
Q 47 14.59375 37.953125 4.296875 
Q 28.90625 -6 11.703125 -15.90625 
Q 10.09375 -12.59375 5.796875 -10.203125 
Q 22.40625 -2.796875 31.75 6.953125 
Q 41.09375 16.703125 44.796875 30.40625 
Q 18.5 30.40625 8.09375 29.59375 
L 8.09375 36.203125 
Q 15.90625 35.40625 46 35.40625 
Q 48.40625 46.796875 47.90625 62.203125 
z
" id="STXihei-22825"/>
      <path d="M 13.203125 74.09375 
Q 22.796875 65.5 27.9375 54.34375 
Q 33.09375 43.203125 33.09375 32.90625 
Q 33.09375 17.296875 28.34375 6.25 
Q 23.59375 -4.796875 14 -14.203125 
L 10.09375 -10.296875 
Q 18.59375 -1.296875 22.640625 7.453125 
Q 26.703125 16.203125 26.703125 33 
Q 26.703125 42.59375 22.5 51.6875 
Q 18.296875 60.796875 9.59375 70.59375 
z
" id="STXihei-65289"/>
     </defs>
     <g transform="translate(154 281.403125)scale(0.14 -0.14)">
      <use xlink:href="#STXihei-26102"/>
      <use x="99.999985" xlink:href="#STXihei-38388"/>
      <use x="199.999969" xlink:href="#STXihei-65288"/>
      <use x="299.999954" xlink:href="#STXihei-22825"/>
      <use x="399.999939" xlink:href="#STXihei-65289"/>
     </g>
    </g>
   </g>
   <g id="matplotlib.axis_2">
    <g id="ytick_1">
     <g id="line2d_7">
      <defs>
       <path d="M 0 0 
L -3.5 0 
" id="mc416e04fa8" style="stroke:#000000;stroke-width:0.8;"/>
      </defs>
      <g>
       <use style="stroke:#000000;stroke-width:0.8;" x="54" xlink:href="#mc416e04fa8" y="244.8"/>
      </g>
     </g>
     <g id="text_8">
      <!-- 0 -->
      <g transform="translate(41.459375 248.479688)scale(0.1 -0.1)">
       <use xlink:href="#STXihei-48"/>
      </g>
     </g>
    </g>
    <g id="ytick_2">
     <g id="line2d_8">
      <g>
       <use style="stroke:#000000;stroke-width:0.8;" x="54" xlink:href="#mc416e04fa8" y="201.6"/>
      </g>
     </g>
     <g id="text_9">
      <!-- 20 -->
      <g transform="translate(35.91875 205.279687)scale(0.1 -0.1)">
       <use xlink:href="#STXihei-50"/>
       <use x="55.399994" xlink:href="#STXihei-48"/>
      </g>
     </g>
    </g>
    <g id="ytick_3">
     <g id="line2d_9">
      <g>
       <use style="stroke:#000000;stroke-width:0.8;" x="54" xlink:href="#mc416e04fa8" y="158.4"/>
      </g>
     </g>
     <g id="text_10">
      <!-- 40 -->
      <g transform="translate(35.91875 162.079687)scale(0.1 -0.1)">
       <use xlink:href="#STXihei-52"/>
       <use x="55.399994" xlink:href="#STXihei-48"/>
      </g>
     </g>
    </g>
    <g id="ytick_4">
     <g id="line2d_10">
      <g>
       <use style="stroke:#000000;stroke-width:0.8;" x="54" xlink:href="#mc416e04fa8" y="115.2"/>
      </g>
     </g>
     <g id="text_11">
      <!-- 60 -->
      <defs>
       <path d="M 36.703125 73.59375 
L 42.59375 69.796875 
L 23.203125 40.40625 
Q 27.296875 41.796875 31 41.796875 
Q 39 41.796875 45 35.4375 
Q 51 29.09375 51 20.09375 
Q 51 10.796875 44.453125 4.5 
Q 37.90625 -1.796875 28.5 -1.796875 
Q 19.203125 -1.796875 12.953125 4.59375 
Q 6.703125 11 6.703125 20.203125 
Q 6.703125 24.59375 8.390625 29.25 
Q 10.09375 33.90625 14.90625 41.09375 
z
M 43.90625 20.296875 
Q 43.90625 26.59375 39.5 31 
Q 35.09375 35.40625 28.796875 35.40625 
Q 22.5 35.40625 18.09375 31 
Q 13.703125 26.59375 13.703125 20.296875 
Q 13.703125 14 18.140625 9.59375 
Q 22.59375 5.203125 28.796875 5.203125 
Q 35 5.203125 39.453125 9.59375 
Q 43.90625 14 43.90625 20.296875 
z
" id="STXihei-54"/>
      </defs>
      <g transform="translate(35.91875 118.879687)scale(0.1 -0.1)">
       <use xlink:href="#STXihei-54"/>
       <use x="55.399994" xlink:href="#STXihei-48"/>
      </g>
     </g>
    </g>
    <g id="ytick_5">
     <g id="line2d_11">
      <g>
       <use style="stroke:#000000;stroke-width:0.8;" x="54" xlink:href="#mc416e04fa8" y="72"/>
      </g>
     </g>
     <g id="text_12">
      <!-- 80 -->
      <defs>
       <path d="M 38.40625 39.40625 
Q 52 32.703125 52 20.59375 
Q 52 11 45.25 4.59375 
Q 38.5 -1.796875 27.59375 -1.796875 
Q 16.59375 -1.796875 10 4.59375 
Q 3.40625 11 3.40625 20 
Q 3.40625 32.59375 17.296875 39.40625 
Q 6.796875 45 6.796875 54.90625 
Q 6.796875 62.296875 12.9375 67.9375 
Q 19.09375 73.59375 28.09375 73.59375 
Q 36.5 73.59375 42.59375 68.09375 
Q 48.703125 62.59375 48.703125 54.703125 
Q 48.703125 45.09375 38.40625 39.40625 
z
M 41.5 55 
Q 41.5 59.796875 37.75 63.25 
Q 34 66.703125 27.703125 66.703125 
Q 21.90625 66.703125 18 63.25 
Q 14.09375 59.796875 14.09375 54.796875 
Q 14.09375 50 18.34375 46.140625 
Q 22.59375 42.296875 28 42.296875 
Q 33.40625 42.296875 37.453125 46.09375 
Q 41.5 49.90625 41.5 55 
z
M 44.796875 20.5 
Q 44.796875 26.59375 39.84375 31.1875 
Q 34.90625 35.796875 28.09375 35.796875 
Q 20.796875 35.796875 15.6875 31.046875 
Q 10.59375 26.296875 10.59375 19.796875 
Q 10.59375 13.40625 15.296875 9.203125 
Q 20 5 27.703125 5 
Q 35.203125 5 40 9.5 
Q 44.796875 14 44.796875 20.5 
z
" id="STXihei-56"/>
      </defs>
      <g transform="translate(35.91875 75.679688)scale(0.1 -0.1)">
       <use xlink:href="#STXihei-56"/>
       <use x="55.399994" xlink:href="#STXihei-48"/>
      </g>
     </g>
    </g>
    <g id="ytick_6">
     <g id="line2d_12">
      <g>
       <use style="stroke:#000000;stroke-width:0.8;" x="54" xlink:href="#mc416e04fa8" y="28.8"/>
      </g>
     </g>
     <g id="text_13">
      <!-- 100 -->
      <g transform="translate(30.378125 32.479688)scale(0.1 -0.1)">
       <use xlink:href="#STXihei-49"/>
       <use x="55.399994" xlink:href="#STXihei-48"/>
       <use x="110.799988" xlink:href="#STXihei-48"/>
      </g>
     </g>
    </g>
    <g id="text_14">
     <!-- 发病率（%） -->
     <defs>
      <path d="M 35.296875 24.40625 
Q 25.796875 8.40625 10.5 -2.40625 
Q 7.703125 0.5 4 2 
Q 28.5 16.40625 38.5 44.5 
L 27.09375 44.5 
Q 18.703125 44.5 15.296875 42.09375 
Q 14.296875 45.703125 11.796875 48.59375 
Q 15.5 49.09375 18.140625 54.9375 
Q 20.796875 60.796875 21.796875 70.796875 
Q 25.703125 69.203125 29.90625 68.90625 
Q 31.09375 68.796875 31.09375 68.09375 
Q 31.09375 67.40625 29.9375 66.90625 
Q 28.796875 66.40625 27.1875 63.203125 
Q 25.59375 60 21.703125 49.703125 
L 40.203125 49.703125 
Q 43.796875 61 45.796875 74.5 
Q 49.90625 72.296875 53.59375 72.296875 
Q 55.40625 72.296875 55.40625 71.203125 
Q 55.40625 70.296875 54 69.75 
Q 52.59375 69.203125 51.09375 65.296875 
Q 49.59375 61.40625 46.5 49.703125 
L 68.203125 49.703125 
Q 82 49.703125 91 51 
L 91.09375 43.59375 
Q 81.703125 44.5 68.296875 44.5 
L 44.703125 44.5 
Q 42.796875 39 40.203125 33.5 
L 60.703125 33.5 
Q 71.09375 33.5 82.796875 34.09375 
Q 74.59375 15.203125 61.40625 4 
Q 73.296875 -4.09375 93.203125 -6.703125 
Q 90.296875 -8.90625 88.203125 -13.796875 
Q 69.296875 -9.5 56.59375 0.296875 
Q 44.90625 -8 25.09375 -15.296875 
Q 22.90625 -11.703125 18.90625 -9.40625 
Q 39.40625 -3.796875 52 4.203125 
Q 43 12.296875 35.296875 24.40625 
z
M 38.59375 28.59375 
Q 44.59375 18.40625 56.796875 7.5 
Q 68 16 73.296875 28.59375 
z
M 80.203125 57.703125 
L 75.203125 53.203125 
Q 69.296875 61.09375 60.5 67.703125 
L 64.90625 72.203125 
Q 74.203125 64.59375 80.203125 57.703125 
z
" id="STXihei-21457"/>
      <path d="M 19.59375 31.5 
Q 19.703125 43.5 18 64.59375 
Q 24.203125 63.90625 53 63.90625 
Q 50.796875 68 47 71.59375 
L 52.59375 75 
Q 56.09375 70.5 59.203125 63.90625 
Q 88.59375 63.90625 92.90625 64.59375 
L 92.90625 58.40625 
Q 84.59375 59.09375 64.296875 59.09375 
L 24.59375 59.09375 
Q 25.203125 43.59375 25.203125 34.203125 
Q 25.203125 15.90625 22.75 6.15625 
Q 20.296875 -3.59375 13.703125 -14.59375 
Q 11.5 -11.796875 7.296875 -11 
Q 13.40625 -2.796875 16.203125 5.640625 
Q 19 14.09375 19.5 25.59375 
Q 11.296875 19.703125 7.203125 16.203125 
Q 6.09375 19.40625 3.59375 22.09375 
Q 11.40625 25.203125 19.59375 31.5 
z
M 17.59375 41.59375 
L 12.40625 38.203125 
Q 8.796875 47 3.703125 53.5 
L 8.40625 57.09375 
Q 13.5 50.796875 17.59375 41.59375 
z
M 59.40625 45.09375 
Q 37.09375 44.90625 28.09375 44 
L 28.09375 50.90625 
Q 38.59375 49.796875 61.84375 49.796875 
Q 85.09375 49.796875 95.09375 50.90625 
L 95.09375 44 
Q 83.90625 45.09375 65.09375 45.09375 
Q 65.203125 38.703125 64.90625 32.703125 
Q 81.09375 32.703125 90.90625 33.40625 
Q 90.59375 30 90.59375 25.203125 
L 90.59375 -5.5 
Q 90.59375 -10.703125 87.59375 -12.453125 
Q 84.59375 -14.203125 74.796875 -14.796875 
Q 74.5 -10.796875 71.59375 -7.296875 
Q 76.5 -8.09375 79.296875 -8.09375 
Q 82.09375 -8.09375 83.390625 -7.25 
Q 84.703125 -6.40625 84.703125 -3.703125 
L 84.703125 28.09375 
L 64.5 28.09375 
Q 63.90625 23.203125 62.90625 19.703125 
Q 76.5 10.40625 82.59375 4.90625 
L 77.40625 -0.203125 
Q 72.203125 6.703125 61.296875 14.59375 
Q 57.703125 5 45.09375 -3.40625 
Q 43.203125 -0.5 39.40625 1.296875 
Q 49.90625 5.796875 53.84375 12.5 
Q 57.796875 19.203125 58.796875 28.09375 
L 38.5 28.09375 
L 38.5 -14.90625 
L 31.90625 -14.90625 
Q 32.59375 -8.203125 32.59375 -1.59375 
L 32.59375 25.5 
Q 32.59375 31 32.203125 33.5 
Q 43.90625 32.703125 59.09375 32.703125 
Q 59.5 37.796875 59.40625 45.09375 
z
" id="STXihei-30149"/>
      <path d="M 46 60.5 
Q 21.90625 60.5 10.796875 59.5 
L 10.796875 66 
Q 21.40625 65 48 65 
Q 45.203125 69.59375 40.59375 73.5 
L 46.296875 77.09375 
Q 50.296875 72.59375 54.09375 65 
Q 79.203125 65 90.296875 66 
L 90.296875 59.5 
Q 79.09375 60.5 47.5 60.5 
Q 49.5 59.09375 51.203125 58.34375 
Q 52.90625 57.59375 52.90625 56.796875 
Q 52.90625 56 51.40625 55.796875 
Q 49.90625 55.59375 47.046875 52 
Q 44.203125 48.40625 41 44.796875 
L 53.59375 45.296875 
Q 57.5 50.203125 59.40625 54.40625 
Q 63.296875 51.09375 64.9375 50.546875 
Q 66.59375 50 66.59375 49.09375 
Q 66.59375 48.203125 64.84375 48 
Q 63.09375 47.796875 53.90625 37.796875 
Q 47.59375 31.09375 41 25.296875 
L 61.40625 26.59375 
Q 59.40625 29.203125 55.90625 33.40625 
L 60.09375 36.40625 
Q 67.796875 27.296875 72.703125 18.90625 
L 67.5 15.90625 
Q 66.09375 19.40625 64.09375 22.703125 
L 52.59375 21.796875 
L 52.59375 9.796875 
Q 85.296875 9.796875 95.796875 10.796875 
L 95.796875 4.296875 
Q 82.703125 5.296875 52.59375 5.296875 
L 52.59375 1.09375 
Q 52.59375 -7.5 53.5 -16.703125 
L 45.90625 -16.703125 
Q 46.796875 -5.90625 46.796875 1.09375 
L 46.796875 5.296875 
Q 16 5.296875 4.796875 4.296875 
L 4.796875 10.796875 
Q 15.796875 9.796875 46.796875 9.796875 
L 46.796875 21.296875 
Q 37.296875 20.59375 32.5 19.203125 
Q 32 22.203125 30.203125 25 
Q 34.703125 26.296875 38.84375 29.890625 
Q 43 33.5 49.90625 41.09375 
L 40.09375 40 
Q 35.59375 39.59375 32.59375 38.5 
Q 32.59375 41.40625 31 43.296875 
Q 38 45.40625 46 60.5 
z
M 80 56.203125 
Q 83.296875 53.296875 84.796875 52.390625 
Q 86.296875 51.5 86.296875 50.796875 
Q 86.296875 49.90625 85.046875 49.90625 
Q 83.796875 49.90625 81.84375 48.453125 
Q 79.90625 47 76.65625 43.890625 
Q 73.40625 40.796875 70.703125 38.296875 
Q 69.40625 40.5 66.5 42 
Q 74.90625 47.703125 80 56.203125 
z
M 29.296875 43.40625 
L 24.796875 39.5 
Q 20.59375 45 11.40625 50.796875 
L 14.90625 54.90625 
Q 22.796875 49.296875 29.296875 43.40625 
z
M 32.59375 31.5 
Q 25.703125 26.5 12.90625 15 
Q 11.09375 18.5 7.90625 19.703125 
Q 21.5 27.40625 29 36.59375 
Q 30 33.40625 32.59375 31.5 
z
M 91.296875 20.59375 
L 86.796875 16.59375 
Q 81.296875 23 70.703125 30.5 
L 74.203125 34.703125 
Q 83.296875 28.40625 91.296875 20.59375 
z
" id="STXihei-29575"/>
      <path d="M 67.40625 75 
L 15.09375 -5 
L 8.59375 -5 
L 56.296875 67.90625 
Q 50.5 66.5 44.453125 66.09375 
Q 38.40625 65.703125 35.59375 65.796875 
L 33 65.90625 
Q 36 61.703125 36 57 
Q 36 49.796875 31.140625 44.75 
Q 26.296875 39.703125 19 39.703125 
Q 12 39.703125 7.09375 44.59375 
Q 2.203125 49.5 2.203125 56.59375 
Q 2.203125 63.703125 7.25 68.59375 
Q 12.296875 73.5 18.90625 73.5 
Q 21.59375 73.5 25 72.796875 
Q 31.59375 71.40625 38.90625 71.40625 
Q 50.5 71.40625 61.703125 75 
z
M 29.90625 56.703125 
Q 29.90625 61.203125 26.75 64.296875 
Q 23.59375 67.40625 19.09375 67.40625 
Q 14.703125 67.40625 11.546875 64.25 
Q 8.40625 61.09375 8.40625 56.703125 
Q 8.40625 52.296875 11.546875 49.140625 
Q 14.703125 46 19.09375 46 
Q 23.59375 46 26.75 49.09375 
Q 29.90625 52.203125 29.90625 56.703125 
z
M 41.5 14.796875 
Q 41.5 21.703125 46.453125 26.703125 
Q 51.40625 31.703125 58.296875 31.703125 
Q 65.296875 31.703125 70.25 26.75 
Q 75.203125 21.796875 75.203125 14.796875 
Q 75.203125 7.796875 70.25 2.84375 
Q 65.296875 -2.09375 58.296875 -2.09375 
Q 51.40625 -2.09375 46.453125 2.84375 
Q 41.5 7.796875 41.5 14.796875 
z
M 69.09375 14.796875 
Q 69.09375 19.203125 65.9375 22.34375 
Q 62.796875 25.5 58.296875 25.5 
Q 53.90625 25.5 50.796875 22.34375 
Q 47.703125 19.203125 47.703125 14.796875 
Q 47.703125 10.40625 50.796875 7.25 
Q 53.90625 4.09375 58.296875 4.09375 
Q 62.796875 4.09375 65.9375 7.1875 
Q 69.09375 10.296875 69.09375 14.796875 
z
" id="STXihei-37"/>
     </defs>
     <g transform="translate(12.66125 177.225)rotate(-90)scale(0.14 -0.14)">
      <use xlink:href="#STXihei-21457"/>
      <use x="99.999985" xlink:href="#STXihei-30149"/>
      <use x="199.999969" xlink:href="#STXihei-29575"/>
      <use x="299.999954" xlink:href="#STXihei-65288"/>
      <use x="399.999939" xlink:href="#STXihei-37"/>
      <use x="477.499924" xlink:href="#STXihei-65289"/>
     </g>
    </g>
   </g>
   <g id="line2d_13">
    <path clip-path="url(#pa6f686d0bb)" d="M 54 244.8 
L 104.22 244.692 
L 108 244.6488 
L 117.18 244.5408 
L 123.12 244.4112 
L 127.44 244.3032 
L 140.4 243.6768 
L 149.58 242.8344 
L 154.44 242.1432 
L 158.76 241.3656 
L 165.78 239.5728 
L 169.56 238.2768 
L 173.34 236.6784 
L 176.58 235.0368 
L 179.82 233.1144 
L 183.6 230.436 
L 185.76 228.708 
L 189.54 225.252 
L 192.78 221.8608 
L 196.02 218.0808 
L 199.26 213.912 
L 203.04 208.62 
L 208.44 200.4336 
L 216 188.4456 
L 219.78 182.5704 
L 224.1 176.1984 
L 227.88 171.0792 
L 231.12 167.0616 
L 234.36 163.4544 
L 236.52 161.2512 
L 239.76 158.292 
L 243 155.7 
L 245.16 154.1664 
L 247.86 152.46 
L 250.56 150.948 
L 253.26 149.652 
L 255.42 148.7232 
L 258.66 147.5136 
L 263.52 146.0664 
L 269.46 144.7488 
L 277.56 143.5608 
L 282.96 143.0208 
L 291.06 142.4808 
L 307.26 141.9408 
L 314.82 141.8328 
L 319.14 141.768 
L 323.46 141.7464 
L 323.46 141.7464 
" style="fill:none;stroke:#1f77b4;stroke-linecap:square;stroke-width:1.5;"/>
   </g>
   <g id="line2d_14">
    <path clip-path="url(#pa6f686d0bb)" d="M 54 244.8 
L 82.08 244.692 
L 97.2 243.9792 
L 99.9 243.6552 
L 103.68 242.9424 
L 106.38 242.1864 
L 108.54 241.3872 
L 110.7 240.3288 
L 112.32 239.3352 
L 113.94 238.1472 
L 115.56 236.6784 
L 117.18 234.9504 
L 118.8 232.8552 
L 120.42 230.3496 
L 122.04 227.3904 
L 123.66 223.9344 
L 125.28 219.8952 
L 126.9 215.2296 
L 128.52 209.9376 
L 130.68 201.8808 
L 132.84 192.7224 
L 135 182.7 
L 138.78 163.9296 
L 142.56 145.3752 
L 145.26 133.3656 
L 147.42 124.8552 
L 149.58 117.468 
L 151.2 112.6728 
L 152.82 108.504 
L 154.44 104.8752 
L 156.06 101.7864 
L 157.68 99.1512 
L 159.3 96.9264 
L 161.46 94.5072 
L 163.08 93.0384 
L 164.7 91.8072 
L 167.4 90.2088 
L 169.56 89.2584 
L 171.72 88.5024 
L 174.96 87.7032 
L 178.2 87.1416 
L 183.6 86.58 
L 198.72 86.0832 
L 323.46 85.9968 
L 323.46 85.9968 
" style="fill:none;stroke:#ff7f0e;stroke-linecap:square;stroke-width:1.5;"/>
   </g>
   <g id="line2d_15">
    <path clip-path="url(#pa6f686d0bb)" d="M 54 244.8 
L 73.98 244.692 
L 82.62 244.26 
L 86.4 243.72 
L 88.56 243.18 
L 90.18 242.64 
L 92.34 241.5816 
L 93.96 240.5016 
L 95.58 239.0328 
L 96.66 237.8016 
L 97.74 236.3328 
L 98.82 234.5832 
L 99.9 232.4664 
L 100.98 229.9608 
L 102.06 227.0016 
L 103.14 223.5024 
L 104.22 219.4416 
L 105.3 214.7544 
L 106.92 206.4384 
L 108.54 196.5456 
L 110.16 185.1192 
L 112.32 168.0336 
L 118.26 119.2824 
L 119.88 108.072 
L 121.5 98.3736 
L 123.12 90.2304 
L 124.74 83.556 
L 126.36 78.1992 
L 127.98 73.9656 
L 129.6 70.6608 
L 130.68 68.8896 
L 132.3 66.7296 
L 133.38 65.5848 
L 135 64.2024 
L 136.62 63.144 
L 138.78 62.1288 
L 140.4 61.5672 
L 143.1 60.9192 
L 146.88 60.4008 
L 152.82 60.0336 
L 158.22 59.9256 
L 162 59.8824 
L 323.46 59.8392 
L 323.46 59.8392 
" style="fill:none;stroke:#2ca02c;stroke-linecap:square;stroke-width:1.5;"/>
   </g>
   <g id="patch_3">
    <path d="M 54 244.8 
L 54 28.8 
" style="fill:none;stroke:#000000;stroke-linecap:square;stroke-linejoin:miter;stroke-width:0.8;"/>
   </g>
   <g id="patch_4">
    <path d="M 324 244.8 
L 324 28.8 
" style="fill:none;stroke:#000000;stroke-linecap:square;stroke-linejoin:miter;stroke-width:0.8;"/>
   </g>
   <g id="patch_5">
    <path d="M 54 244.8 
L 324 244.8 
" style="fill:none;stroke:#000000;stroke-linecap:square;stroke-linejoin:miter;stroke-width:0.8;"/>
   </g>
   <g id="patch_6">
    <path d="M 54 28.8 
L 324 28.8 
" style="fill:none;stroke:#000000;stroke-linecap:square;stroke-linejoin:miter;stroke-width:0.8;"/>
   </g>
  </g>
  <g id="legend_1">
   <g id="line2d_16">
    <path d="M 48.48375 15.43125 
L 72.48375 15.43125 
" style="fill:none;stroke:#1f77b4;stroke-linecap:square;stroke-width:1.5;"/>
   </g>
   <g id="line2d_17"/>
   <g id="text_15">
    <!-- p = 0.1 -->
    <defs>
     <path d="M 7.703125 53.09375 
L 14.5 53.09375 
L 14.5 43.40625 
Q 22.59375 54.5 35.59375 54.5 
Q 46.796875 54.5 54.890625 46.25 
Q 63 38 63 26.5 
Q 63 14.796875 55 6.5 
Q 47 -1.796875 35.796875 -1.796875 
Q 23.59375 -1.796875 14.5 9.09375 
L 14.5 -19.40625 
L 7.703125 -19.40625 
z
M 56.203125 26.296875 
Q 56.203125 35.203125 50.046875 41.546875 
Q 43.90625 47.90625 35.09375 47.90625 
Q 26.09375 47.90625 20.046875 41.65625 
Q 14 35.40625 14 26.296875 
Q 14 17 20.203125 10.75 
Q 26.40625 4.5 35.203125 4.5 
Q 43.703125 4.5 49.953125 10.84375 
Q 56.203125 17.203125 56.203125 26.296875 
z
" id="STXihei-112"/>
     <path id="STXihei-32"/>
     <path d="M 55 50 
L 55 43.296875 
L 5.59375 43.296875 
L 5.59375 50 
z
M 55 28.5 
L 55 21.796875 
L 5.59375 21.796875 
L 5.59375 28.5 
z
" id="STXihei-61"/>
     <path d="M 9.09375 4.703125 
Q 9.09375 7.203125 10.890625 8.953125 
Q 12.703125 10.703125 15.09375 10.703125 
Q 17.59375 10.703125 19.34375 8.953125 
Q 21.09375 7.203125 21.09375 4.703125 
Q 21.09375 2.09375 19.34375 0.34375 
Q 17.59375 -1.40625 15.09375 -1.40625 
Q 12.703125 -1.40625 10.890625 0.390625 
Q 9.09375 2.203125 9.09375 4.703125 
z
" id="STXihei-46"/>
    </defs>
    <g transform="translate(82.08375 19.63125)scale(0.12 -0.12)">
     <use xlink:href="#STXihei-112"/>
     <use x="68.199982" xlink:href="#STXihei-32"/>
     <use x="93.199966" xlink:href="#STXihei-61"/>
     <use x="153.799957" xlink:href="#STXihei-32"/>
     <use x="178.799942" xlink:href="#STXihei-48"/>
     <use x="234.199936" xlink:href="#STXihei-46"/>
     <use x="261.899933" xlink:href="#STXihei-49"/>
    </g>
   </g>
   <g id="line2d_18">
    <path d="M 144.16125 15.43125 
L 168.16125 15.43125 
" style="fill:none;stroke:#ff7f0e;stroke-linecap:square;stroke-width:1.5;"/>
   </g>
   <g id="line2d_19"/>
   <g id="text_16">
    <!-- p = 0.5 -->
    <g transform="translate(177.76125 19.63125)scale(0.12 -0.12)">
     <use xlink:href="#STXihei-112"/>
     <use x="68.199982" xlink:href="#STXihei-32"/>
     <use x="93.199966" xlink:href="#STXihei-61"/>
     <use x="153.799957" xlink:href="#STXihei-32"/>
     <use x="178.799942" xlink:href="#STXihei-48"/>
     <use x="234.199936" xlink:href="#STXihei-46"/>
     <use x="261.899933" xlink:href="#STXihei-53"/>
    </g>
   </g>
   <g id="line2d_20">
    <path d="M 239.83875 15.43125 
L 263.83875 15.43125 
" style="fill:none;stroke:#2ca02c;stroke-linecap:square;stroke-width:1.5;"/>
   </g>
   <g id="line2d_21"/>
   <g id="text_17">
    <!-- p = 0.9 -->
    <defs>
     <path d="M 19.203125 -1.796875 
L 13.296875 2 
L 32.703125 31.40625 
Q 28.90625 30.09375 25.203125 30.09375 
Q 16.59375 30.09375 10.75 36.296875 
Q 4.90625 42.5 4.90625 51.5 
Q 4.90625 61 11.40625 67.296875 
Q 17.90625 73.59375 27.296875 73.59375 
Q 36.796875 73.59375 42.9375 67.140625 
Q 49.09375 60.703125 49.09375 51.703125 
Q 49.09375 46.703125 47.046875 41.640625 
Q 45 36.59375 41 30.703125 
z
M 11.90625 51.5 
Q 11.90625 45.203125 16.296875 40.796875 
Q 20.703125 36.40625 27 36.40625 
Q 33.296875 36.40625 37.6875 40.84375 
Q 42.09375 45.296875 42.09375 51.5 
Q 42.09375 57.703125 37.6875 62.140625 
Q 33.296875 66.59375 27 66.59375 
Q 20.703125 66.59375 16.296875 62.1875 
Q 11.90625 57.796875 11.90625 51.5 
z
" id="STXihei-57"/>
    </defs>
    <g transform="translate(273.43875 19.63125)scale(0.12 -0.12)">
     <use xlink:href="#STXihei-112"/>
     <use x="68.199982" xlink:href="#STXihei-32"/>
     <use x="93.199966" xlink:href="#STXihei-61"/>
     <use x="153.799957" xlink:href="#STXihei-32"/>
     <use x="178.799942" xlink:href="#STXihei-48"/>
     <use x="234.199936" xlink:href="#STXihei-46"/>
     <use x="261.899933" xlink:href="#STXihei-57"/>
    </g>
   </g>
  </g>
 </g>
 <defs>
  <clipPath id="pa6f686d0bb">
   <rect height="216" width="270" x="54" y="28.8"/>
  </clipPath>
 </defs>
</svg>
