<?xml version="1.0" encoding="utf-8" standalone="no"?>
<!DOCTYPE svg PUBLIC "-//W3C//DTD SVG 1.1//EN"
  "http://www.w3.org/Graphics/SVG/1.1/DTD/svg11.dtd">
<!-- Created with matplotlib (https://matplotlib.org/) -->
<svg height="360pt" version="1.1" viewBox="0 0 576 360" width="576pt" xmlns="http://www.w3.org/2000/svg" xmlns:xlink="http://www.w3.org/1999/xlink">
 <defs>
  <style type="text/css">
*{stroke-linecap:butt;stroke-linejoin:round;}
  </style>
 </defs>
 <g id="figure_1">
  <g id="patch_1">
   <path d="M 0 360 
L 576 360 
L 576 0 
L 0 0 
z
" style="fill:#ffffff;"/>
  </g>
  <g id="axes_1">
   <g id="patch_2">
    <path d="M 69.12 306 
L 518.4 306 
L 518.4 36 
L 69.12 36 
z
" style="fill:#ffffff;"/>
   </g>
   <g id="matplotlib.axis_1">
    <g id="xtick_1">
     <g id="line2d_1">
      <defs>
       <path d="M 0 0 
L 0 3.5 
" id="mc5382dcbe6" style="stroke:#000000;stroke-width:0.8;"/>
      </defs>
      <g>
       <use style="stroke:#000000;stroke-width:0.8;" x="89.541818" xlink:href="#mc5382dcbe6" y="306"/>
      </g>
     </g>
     <g id="text_1">
      <!-- 0 -->
      <defs>
       <path d="M 3.125 29.296875 
Q 3.90625 50 6.4375 56.046875 
Q 8.984375 62.109375 13.671875 66.015625 
Q 18.359375 69.921875 25.1875 69.921875 
Q 32.03125 69.921875 37.109375 64.25 
Q 42.1875 58.59375 43.75 50 
Q 45.3125 41.40625 44.71875 30.265625 
Q 44.140625 19.140625 40.8125 12.109375 
Q 37.5 5.078125 30.859375 2.34375 
Q 24.21875 -0.390625 17.578125 2.921875 
Q 10.9375 6.25 8.203125 11.71875 
Q 5.46875 17.1875 4.296875 23.234375 
Q 3.125 29.296875 3.90625 50 
z
M 12.890625 52.734375 
Q 10.546875 31.25 12.5 22.84375 
Q 14.453125 14.453125 18.9375 10.9375 
Q 23.4375 7.421875 28.125 9.5625 
Q 32.8125 11.71875 34.953125 18.15625 
Q 37.109375 24.609375 37.109375 32.21875 
Q 37.109375 39.84375 36.515625 46.09375 
Q 35.9375 52.34375 33 57.421875 
Q 30.078125 62.5 25.1875 62.6875 
Q 20.3125 62.890625 16.59375 57.8125 
Q 12.890625 52.734375 10.546875 31.25 
z
" id="SimHei-48"/>
      </defs>
      <g transform="translate(87.041818 319.875)scale(0.1 -0.1)">
       <use xlink:href="#SimHei-48"/>
      </g>
     </g>
    </g>
    <g id="xtick_2">
     <g id="line2d_2">
      <g>
       <use style="stroke:#000000;stroke-width:0.8;" x="147.88987" xlink:href="#mc5382dcbe6" y="306"/>
      </g>
     </g>
     <g id="text_2">
      <!-- 100 -->
      <defs>
       <path d="M 21.875 56.25 
Q 16.796875 51.171875 8.984375 46.484375 
L 8.984375 53.90625 
Q 18.75 60.546875 25 69.53125 
L 29.6875 69.53125 
L 29.6875 2.34375 
L 21.875 2.34375 
z
" id="SimHei-49"/>
      </defs>
      <g transform="translate(140.38987 319.875)scale(0.1 -0.1)">
       <use xlink:href="#SimHei-49"/>
       <use x="50" xlink:href="#SimHei-48"/>
       <use x="100" xlink:href="#SimHei-48"/>
      </g>
     </g>
    </g>
    <g id="xtick_3">
     <g id="line2d_3">
      <g>
       <use style="stroke:#000000;stroke-width:0.8;" x="206.237922" xlink:href="#mc5382dcbe6" y="306"/>
      </g>
     </g>
     <g id="text_3">
      <!-- 200 -->
      <defs>
       <path d="M 4.6875 3.90625 
Q 5.078125 9.765625 10.15625 14.453125 
Q 15.234375 19.140625 23.046875 29.09375 
Q 30.859375 39.0625 33.203125 44.53125 
Q 35.546875 50 34.953125 53.90625 
Q 34.375 57.8125 31.25 60.34375 
Q 28.125 62.890625 24.015625 62.5 
Q 19.921875 62.109375 16.203125 59.375 
Q 12.5 56.640625 10.546875 51.171875 
L 3.125 52.34375 
Q 6.25 61.328125 11.125 65.421875 
Q 16.015625 69.53125 22.65625 69.921875 
Q 26.5625 70.3125 29.6875 69.71875 
Q 32.8125 69.140625 36.125 66.984375 
Q 39.453125 64.84375 41.59375 60.546875 
Q 43.75 56.25 43.15625 50.1875 
Q 42.578125 44.140625 37.109375 35.734375 
Q 31.640625 27.34375 16.015625 9.375 
L 44.140625 9.375 
L 44.140625 2.34375 
L 4.6875 2.34375 
z
" id="SimHei-50"/>
      </defs>
      <g transform="translate(198.737922 319.875)scale(0.1 -0.1)">
       <use xlink:href="#SimHei-50"/>
       <use x="50" xlink:href="#SimHei-48"/>
       <use x="100" xlink:href="#SimHei-48"/>
      </g>
     </g>
    </g>
    <g id="xtick_4">
     <g id="line2d_4">
      <g>
       <use style="stroke:#000000;stroke-width:0.8;" x="264.585974" xlink:href="#mc5382dcbe6" y="306"/>
      </g>
     </g>
     <g id="text_4">
      <!-- 300 -->
      <defs>
       <path d="M 3.90625 19.140625 
L 10.9375 20.3125 
Q 12.5 15.234375 16.015625 11.90625 
Q 19.53125 8.59375 24.796875 8.78125 
Q 30.078125 8.984375 33.203125 13.078125 
Q 36.328125 17.1875 35.9375 22.453125 
Q 35.546875 27.734375 31.828125 30.65625 
Q 28.125 33.59375 19.921875 34.765625 
L 19.921875 39.84375 
Q 28.125 40.625 31.828125 44.140625 
Q 35.546875 47.65625 35.15625 53.3125 
Q 34.765625 58.984375 30.078125 61.515625 
Q 25.390625 64.0625 20.109375 62.109375 
Q 14.84375 60.15625 11.71875 51.171875 
L 4.6875 52.34375 
Q 7.03125 59.375 11.125 64.0625 
Q 15.234375 68.75 22.265625 69.53125 
Q 29.296875 70.3125 34.5625 67.765625 
Q 39.84375 65.234375 41.984375 59.953125 
Q 44.140625 54.6875 42.578125 48.4375 
Q 41.015625 42.1875 33.59375 37.5 
Q 39.0625 35.15625 41.984375 30.46875 
Q 44.921875 25.78125 43.9375 18.15625 
Q 42.96875 10.546875 37.109375 5.859375 
Q 31.25 1.171875 23.828125 1.359375 
Q 16.40625 1.5625 10.9375 6.046875 
Q 5.46875 10.546875 3.90625 19.140625 
z
" id="SimHei-51"/>
      </defs>
      <g transform="translate(257.085974 319.875)scale(0.1 -0.1)">
       <use xlink:href="#SimHei-51"/>
       <use x="50" xlink:href="#SimHei-48"/>
       <use x="100" xlink:href="#SimHei-48"/>
      </g>
     </g>
    </g>
    <g id="xtick_5">
     <g id="line2d_5">
      <g>
       <use style="stroke:#000000;stroke-width:0.8;" x="322.934026" xlink:href="#mc5382dcbe6" y="306"/>
      </g>
     </g>
     <g id="text_5">
      <!-- 400 -->
      <defs>
       <path d="M 31.25 17.1875 
L 1.171875 17.1875 
L 1.171875 23.828125 
L 32.8125 69.53125 
L 38.671875 69.53125 
L 38.671875 23.828125 
L 48.046875 23.828125 
L 48.046875 17.1875 
L 38.671875 17.1875 
L 38.671875 2.34375 
L 31.25 2.34375 
z
M 31.25 23.828125 
L 31.25 54.6875 
L 9.375 23.828125 
z
" id="SimHei-52"/>
      </defs>
      <g transform="translate(315.434026 319.875)scale(0.1 -0.1)">
       <use xlink:href="#SimHei-52"/>
       <use x="50" xlink:href="#SimHei-48"/>
       <use x="100" xlink:href="#SimHei-48"/>
      </g>
     </g>
    </g>
    <g id="xtick_6">
     <g id="line2d_6">
      <g>
       <use style="stroke:#000000;stroke-width:0.8;" x="381.282078" xlink:href="#mc5382dcbe6" y="306"/>
      </g>
     </g>
     <g id="text_6">
      <!-- 500 -->
      <defs>
       <path d="M 8.59375 20.703125 
Q 11.328125 10.15625 17.96875 8.984375 
Q 24.609375 7.8125 28.703125 10.34375 
Q 32.8125 12.890625 34.5625 16.984375 
Q 36.328125 21.09375 36.125 26.171875 
Q 35.9375 31.25 33.390625 34.765625 
Q 30.859375 38.28125 26.953125 39.453125 
Q 23.046875 40.625 18.15625 39.453125 
Q 13.28125 38.28125 10.15625 33.984375 
L 3.515625 34.765625 
Q 4.296875 37.109375 10.9375 68.359375 
L 41.796875 68.359375 
L 41.796875 61.328125 
L 16.796875 61.328125 
Q 14.84375 50.78125 12.890625 44.53125 
Q 18.75 47.265625 23.828125 47.0625 
Q 28.90625 46.875 33.59375 44.71875 
Q 38.28125 42.578125 40.421875 38.859375 
Q 42.578125 35.15625 43.546875 31.4375 
Q 44.53125 27.734375 44.328125 23.4375 
Q 44.140625 19.140625 42.578125 14.640625 
Q 41.015625 10.15625 37.890625 7.21875 
Q 34.765625 4.296875 30.265625 2.53125 
Q 25.78125 0.78125 19.921875 1.171875 
Q 14.0625 1.5625 8.78125 5.46875 
Q 3.515625 9.375 1.5625 18.75 
z
" id="SimHei-53"/>
      </defs>
      <g transform="translate(373.782078 319.875)scale(0.1 -0.1)">
       <use xlink:href="#SimHei-53"/>
       <use x="50" xlink:href="#SimHei-48"/>
       <use x="100" xlink:href="#SimHei-48"/>
      </g>
     </g>
    </g>
    <g id="xtick_7">
     <g id="line2d_7">
      <g>
       <use style="stroke:#000000;stroke-width:0.8;" x="439.63013" xlink:href="#mc5382dcbe6" y="306"/>
      </g>
     </g>
     <g id="text_7">
      <!-- 600 -->
      <defs>
       <path d="M 3.515625 19.53125 
Q 4.296875 30.859375 6.046875 34.765625 
Q 7.8125 38.671875 11.328125 44.53125 
L 27.34375 69.53125 
L 36.328125 69.53125 
L 19.921875 43.75 
Q 30.46875 46.484375 36.71875 42.96875 
Q 42.96875 39.453125 45.109375 34.953125 
Q 47.265625 30.46875 47.453125 25.1875 
Q 47.65625 19.921875 45.890625 14.84375 
Q 44.140625 9.765625 39.640625 5.65625 
Q 35.15625 1.5625 27.140625 1.171875 
Q 19.140625 0.78125 13.46875 4.09375 
Q 7.8125 7.421875 5.65625 13.46875 
Q 3.515625 19.53125 4.296875 30.859375 
z
M 12.5 16.015625 
Q 19.53125 8.59375 25.390625 8.203125 
Q 31.25 7.8125 35.15625 12.109375 
Q 39.0625 16.40625 39.0625 24.609375 
Q 39.0625 32.8125 34.171875 35.9375 
Q 29.296875 39.0625 23.234375 38.28125 
Q 17.1875 37.5 14.453125 32.421875 
Q 11.71875 27.34375 12.109375 21.671875 
Q 12.5 16.015625 19.53125 8.59375 
z
" id="SimHei-54"/>
      </defs>
      <g transform="translate(432.13013 319.875)scale(0.1 -0.1)">
       <use xlink:href="#SimHei-54"/>
       <use x="50" xlink:href="#SimHei-48"/>
       <use x="100" xlink:href="#SimHei-48"/>
      </g>
     </g>
    </g>
    <g id="xtick_8">
     <g id="line2d_8">
      <g>
       <use style="stroke:#000000;stroke-width:0.8;" x="497.978182" xlink:href="#mc5382dcbe6" y="306"/>
      </g>
     </g>
     <g id="text_8">
      <!-- 700 -->
      <defs>
       <path d="M 13.28125 2.34375 
Q 20.3125 32.03125 37.890625 61.328125 
L 4.296875 61.328125 
L 4.296875 68.359375 
L 46.09375 68.359375 
L 46.09375 61.71875 
Q 27.734375 32.03125 21.875 2.34375 
L 13.28125 2.34375 
z
" id="SimHei-55"/>
      </defs>
      <g transform="translate(490.478182 319.875)scale(0.1 -0.1)">
       <use xlink:href="#SimHei-55"/>
       <use x="50" xlink:href="#SimHei-48"/>
       <use x="100" xlink:href="#SimHei-48"/>
      </g>
     </g>
    </g>
    <g id="text_9">
     <!-- 时间（天） -->
     <defs>
      <path d="M 39.453125 71.484375 
Q 39.0625 57.421875 39.0625 37.5 
Q 39.0625 17.578125 39.453125 6.25 
L 31.25 6.25 
L 31.25 13.671875 
L 15.625 13.671875 
L 15.625 0.78125 
L 7.421875 0.78125 
Q 7.8125 18.75 7.8125 36.71875 
Q 7.8125 55.078125 7.421875 71.484375 
L 39.453125 71.484375 
z
M 76.171875 59.765625 
Q 76.171875 71.484375 75.78125 81.640625 
L 84.375 81.640625 
Q 83.984375 71.484375 83.984375 59.765625 
Q 89.84375 59.765625 96.484375 60.15625 
L 96.484375 52.734375 
Q 89.84375 53.125 83.984375 53.125 
L 83.984375 0.78125 
Q 83.984375 -5.078125 79.296875 -6.640625 
Q 74.609375 -8.203125 67.1875 -8.984375 
Q 67.1875 -4.296875 62.890625 0 
Q 70.3125 -0.78125 73.234375 -0.390625 
Q 76.171875 0 76.171875 4.6875 
L 76.171875 53.125 
Q 56.640625 53.125 43.359375 52.734375 
L 43.359375 60.15625 
Q 55.859375 59.765625 76.171875 59.765625 
z
M 31.25 20.3125 
L 31.25 39.84375 
L 15.625 39.84375 
L 15.625 20.3125 
z
M 31.25 46.484375 
L 31.25 64.84375 
L 15.625 64.84375 
L 15.625 46.484375 
z
M 55.46875 42.578125 
Q 60.546875 34.375 65.234375 25 
Q 61.328125 23.828125 57.03125 21.484375 
Q 53.90625 30.859375 48.046875 39.0625 
Q 51.5625 40.625 55.46875 42.578125 
z
" id="SimHei-26102"/>
      <path d="M 69.53125 55.46875 
Q 69.140625 48.046875 69.140625 42.578125 
L 69.140625 21.875 
Q 69.140625 16.796875 69.53125 9.765625 
L 30.078125 9.765625 
Q 30.46875 16.796875 30.46875 22.265625 
L 30.46875 42.578125 
Q 30.46875 48.046875 30.078125 55.46875 
L 69.53125 55.46875 
z
M 90.625 76.171875 
Q 90.234375 68.75 90.234375 61.328125 
L 90.234375 3.90625 
Q 90.625 -5.078125 85.34375 -7.03125 
Q 80.078125 -8.984375 73.828125 -9.765625 
Q 73.4375 -5.078125 70.703125 -0.390625 
Q 78.125 -0.78125 80.265625 0.390625 
Q 82.421875 1.5625 82.421875 5.46875 
L 82.421875 69.53125 
L 58.984375 69.53125 
Q 49.609375 69.53125 41.40625 69.140625 
L 41.40625 76.5625 
Q 49.609375 76.171875 58.984375 76.171875 
z
M 8.59375 -8.203125 
Q 9.375 -0.390625 9.375 8.203125 
L 9.375 49.21875 
Q 9.375 57.421875 8.59375 62.890625 
L 17.578125 62.890625 
Q 17.1875 57.03125 17.1875 51.5625 
L 17.1875 7.8125 
Q 17.1875 0 17.578125 -8.203125 
z
M 61.71875 16.015625 
L 61.71875 30.46875 
L 37.890625 30.46875 
L 37.890625 16.015625 
z
M 61.71875 36.71875 
L 61.71875 49.21875 
L 37.890625 49.21875 
L 37.890625 36.71875 
z
M 23.828125 82.8125 
Q 27.34375 78.125 34.765625 67.96875 
Q 30.46875 66.015625 26.5625 63.671875 
Q 22.65625 71.484375 16.796875 78.515625 
Q 21.09375 81.640625 23.828125 82.8125 
z
" id="SimHei-38388"/>
      <path d="M 84.765625 79.6875 
L 89.0625 74.609375 
Q 66.796875 58.203125 67.578125 36.71875 
Q 67.96875 16.015625 88.671875 0.78125 
L 84.375 -4.296875 
Q 60.546875 12.890625 61.328125 39.0625 
Q 61.328125 60.546875 84.765625 79.6875 
z
" id="SimHei-65288"/>
      <path d="M 69.921875 76.5625 
Q 76.953125 76.5625 83.984375 76.953125 
L 83.984375 68.75 
Q 76.953125 69.140625 69.921875 69.140625 
L 53.90625 69.140625 
L 53.90625 48.046875 
L 78.90625 48.046875 
Q 86.328125 48.046875 92.1875 48.4375 
L 92.1875 40.234375 
Q 86.71875 40.625 79.296875 40.625 
L 55.078125 40.625 
Q 60.546875 25.78125 70.703125 15.234375 
Q 80.859375 4.6875 96.875 0.78125 
Q 91.40625 -3.515625 90.234375 -7.03125 
Q 78.125 -2.734375 67.96875 6.4375 
Q 57.8125 15.625 50.390625 32.8125 
Q 45.703125 16.796875 35.546875 7.21875 
Q 25.390625 -2.34375 10.15625 -8.984375 
Q 8.59375 -5.078125 3.515625 -1.5625 
Q 14.84375 1.5625 27.34375 11.515625 
Q 39.84375 21.484375 44.921875 40.625 
L 23.4375 40.625 
Q 14.84375 40.625 8.984375 40.234375 
L 8.984375 48.4375 
Q 15.234375 48.046875 23.4375 48.046875 
L 46.09375 48.046875 
L 46.09375 69.140625 
L 29.6875 69.140625 
Q 21.484375 69.140625 15.625 68.75 
L 15.625 76.953125 
Q 21.875 76.5625 29.6875 76.5625 
z
" id="SimHei-22825"/>
      <path d="M 15.625 79.6875 
Q 39.0625 60.546875 39.0625 39.0625 
Q 39.84375 12.890625 16.015625 -4.296875 
L 11.71875 0.78125 
Q 32.421875 16.015625 32.8125 36.71875 
Q 33.59375 58.203125 11.328125 74.609375 
L 15.625 79.6875 
z
" id="SimHei-65289"/>
     </defs>
     <g transform="translate(256.26 343.136719)scale(0.15 -0.15)">
      <use xlink:href="#SimHei-26102"/>
      <use x="100" xlink:href="#SimHei-38388"/>
      <use x="200" xlink:href="#SimHei-65288"/>
      <use x="300" xlink:href="#SimHei-22825"/>
      <use x="400" xlink:href="#SimHei-65289"/>
     </g>
    </g>
   </g>
   <g id="matplotlib.axis_2">
    <g id="ytick_1">
     <g id="line2d_9">
      <defs>
       <path d="M 0 0 
L -3.5 0 
" id="m0f8a2dc949" style="stroke:#000000;stroke-width:0.8;"/>
      </defs>
      <g>
       <use style="stroke:#000000;stroke-width:0.8;" x="69.12" xlink:href="#m0f8a2dc949" y="293.727273"/>
      </g>
     </g>
     <g id="text_10">
      <!-- 0 -->
      <g transform="translate(57.12 297.164773)scale(0.1 -0.1)">
       <use xlink:href="#SimHei-48"/>
      </g>
     </g>
    </g>
    <g id="ytick_2">
     <g id="line2d_10">
      <g>
       <use style="stroke:#000000;stroke-width:0.8;" x="69.12" xlink:href="#m0f8a2dc949" y="236.865156"/>
      </g>
     </g>
     <g id="text_11">
      <!-- 1 -->
      <g transform="translate(57.12 240.302656)scale(0.1 -0.1)">
       <use xlink:href="#SimHei-49"/>
      </g>
     </g>
    </g>
    <g id="ytick_3">
     <g id="line2d_11">
      <g>
       <use style="stroke:#000000;stroke-width:0.8;" x="69.12" xlink:href="#m0f8a2dc949" y="180.003039"/>
      </g>
     </g>
     <g id="text_12">
      <!-- 2 -->
      <g transform="translate(57.12 183.440539)scale(0.1 -0.1)">
       <use xlink:href="#SimHei-50"/>
      </g>
     </g>
    </g>
    <g id="ytick_4">
     <g id="line2d_12">
      <g>
       <use style="stroke:#000000;stroke-width:0.8;" x="69.12" xlink:href="#m0f8a2dc949" y="123.140923"/>
      </g>
     </g>
     <g id="text_13">
      <!-- 3 -->
      <g transform="translate(57.12 126.578423)scale(0.1 -0.1)">
       <use xlink:href="#SimHei-51"/>
      </g>
     </g>
    </g>
    <g id="ytick_5">
     <g id="line2d_13">
      <g>
       <use style="stroke:#000000;stroke-width:0.8;" x="69.12" xlink:href="#m0f8a2dc949" y="66.278806"/>
      </g>
     </g>
     <g id="text_14">
      <!-- 4 -->
      <g transform="translate(57.12 69.716306)scale(0.1 -0.1)">
       <use xlink:href="#SimHei-52"/>
      </g>
     </g>
    </g>
    <g id="text_15">
     <!-- 比例（%） -->
     <defs>
      <path d="M 58.984375 79.6875 
Q 58.59375 71.484375 58.59375 64.0625 
L 58.59375 47.65625 
Q 76.953125 56.25 85.546875 65.234375 
Q 88.671875 60.9375 92.1875 57.421875 
Q 87.5 54.6875 78.703125 49.796875 
Q 69.921875 44.921875 58.59375 39.84375 
L 58.59375 7.03125 
Q 58.59375 1.5625 63.28125 1.5625 
L 78.125 1.5625 
Q 80.859375 1.5625 82.21875 3.90625 
Q 83.59375 6.25 85.15625 14.0625 
Q 88.28125 12.109375 94.140625 10.546875 
Q 91.40625 0 88.28125 -2.734375 
Q 85.15625 -5.46875 81.640625 -5.46875 
L 60.9375 -5.46875 
Q 50.78125 -5.46875 50.78125 4.296875 
L 50.78125 62.5 
Q 50.78125 71.09375 50.390625 79.6875 
L 58.984375 79.6875 
z
M 19.921875 77.734375 
Q 19.53125 71.484375 19.53125 62.5 
L 19.53125 49.21875 
L 28.90625 49.21875 
Q 36.328125 49.21875 44.921875 49.609375 
L 44.921875 41.40625 
Q 36.328125 41.796875 28.90625 41.796875 
L 19.53125 41.796875 
L 19.53125 7.421875 
Q 25.78125 10.15625 30.65625 12.6875 
Q 35.546875 15.234375 44.53125 19.921875 
Q 45.3125 14.84375 46.09375 11.71875 
Q 37.109375 7.421875 27.53125 2.734375 
Q 17.96875 -1.953125 14.453125 -5.078125 
Q 11.71875 -1.5625 8.984375 3.125 
Q 10.9375 4.6875 11.71875 9.375 
L 11.71875 61.71875 
Q 11.71875 71.09375 11.328125 77.734375 
L 19.921875 77.734375 
z
" id="SimHei-27604"/>
      <path d="M 53.90625 73.828125 
Q 59.765625 73.828125 64.0625 74.21875 
L 64.0625 67.1875 
Q 59.765625 67.578125 54.6875 67.578125 
L 49.21875 67.578125 
Q 48.828125 62.890625 47.265625 52.34375 
L 63.28125 52.34375 
Q 62.5 32.03125 56.4375 16.40625 
Q 50.390625 0.78125 35.9375 -9.375 
Q 34.375 -6.25 29.6875 -2.34375 
Q 42.96875 3.90625 50 20.703125 
Q 46.484375 23.828125 39.84375 28.125 
Q 42.1875 31.25 44.140625 33.984375 
Q 50 29.296875 52.34375 27.734375 
Q 54.6875 35.15625 55.859375 46.09375 
L 45.703125 46.09375 
Q 43.75 37.890625 34.765625 24.609375 
Q 31.640625 27.734375 27.734375 30.078125 
Q 33.203125 35.546875 37.109375 44.328125 
Q 41.015625 53.125 41.796875 67.578125 
Q 35.9375 67.578125 33.59375 67.1875 
L 33.59375 74.21875 
Q 37.5 73.828125 43.75 73.828125 
z
M 32.03125 77.734375 
Q 29.296875 74.609375 24.21875 60.15625 
L 24.21875 7.421875 
Q 24.21875 -0.390625 24.609375 -9.375 
L 16.796875 -9.375 
Q 17.1875 -1.171875 17.1875 6.640625 
L 17.1875 46.875 
Q 14.84375 42.1875 10.15625 35.15625 
Q 8.59375 37.109375 3.125 41.015625 
Q 8.203125 45.703125 14.640625 58.78125 
Q 21.09375 71.875 22.65625 81.25 
Q 25.78125 79.296875 32.03125 77.734375 
z
M 92.96875 79.296875 
Q 92.1875 74.609375 92.1875 67.1875 
L 92.1875 3.90625 
Q 92.1875 -4.296875 89.0625 -6.25 
Q 85.9375 -8.203125 75.78125 -8.984375 
Q 75.390625 -4.6875 72.65625 0.78125 
Q 80.859375 0 82.8125 0.390625 
Q 84.765625 0.78125 85.15625 4.6875 
L 85.15625 66.796875 
Q 85.15625 74.21875 84.375 79.296875 
L 92.96875 79.296875 
z
M 76.953125 66.015625 
Q 76.171875 60.546875 76.171875 50.78125 
L 76.171875 28.125 
Q 76.171875 18.75 76.5625 14.453125 
L 68.359375 14.453125 
Q 69.140625 18.75 69.140625 27.734375 
L 69.140625 51.171875 
Q 68.75 60.15625 68.359375 66.015625 
L 76.953125 66.015625 
z
" id="SimHei-20363"/>
      <path d="M 21.875 51.953125 
Q 21.875 40.625 18.546875 37.5 
Q 15.234375 34.375 12.109375 34.375 
Q 8.984375 34.375 5.65625 37.5 
Q 2.34375 40.625 2.34375 51.953125 
Q 2.34375 63.28125 5.65625 66.40625 
Q 8.984375 69.53125 12.109375 69.53125 
Q 15.234375 69.53125 18.546875 66.40625 
Q 21.875 63.28125 21.875 51.953125 
z
M 41.015625 68.359375 
L 10.9375 1.171875 
L 7.8125 2.34375 
L 37.890625 69.53125 
z
M 46.484375 18.75 
Q 46.484375 7.421875 43.15625 4.296875 
Q 39.84375 1.171875 36.71875 1.171875 
Q 33.59375 1.171875 30.265625 4.296875 
Q 26.953125 7.421875 26.953125 18.75 
Q 26.953125 30.078125 30.265625 33.203125 
Q 33.59375 36.328125 36.71875 36.328125 
Q 39.84375 36.328125 43.15625 33.203125 
Q 46.484375 30.078125 46.484375 18.75 
z
M 15.625 51.953125 
Q 15.625 58.984375 14.84375 61.328125 
Q 14.0625 63.671875 12.109375 63.671875 
Q 10.15625 63.671875 9.375 61.328125 
Q 8.59375 58.984375 8.59375 51.953125 
Q 8.59375 44.921875 9.375 42.578125 
Q 10.15625 40.234375 12.109375 40.234375 
Q 14.0625 40.234375 14.84375 42.578125 
Q 15.625 44.921875 15.625 51.953125 
z
M 40.234375 18.75 
Q 40.234375 25.78125 39.453125 28.125 
Q 38.671875 30.46875 36.71875 30.46875 
Q 34.765625 30.46875 33.984375 28.125 
Q 33.203125 25.78125 33.203125 18.75 
Q 33.203125 11.71875 33.984375 9.375 
Q 34.765625 7.03125 36.71875 7.03125 
Q 38.671875 7.03125 39.453125 9.375 
Q 40.234375 11.71875 40.234375 18.75 
z
" id="SimHei-37"/>
     </defs>
     <g transform="translate(40.245 204.75)rotate(-90)scale(0.15 -0.15)">
      <use xlink:href="#SimHei-27604"/>
      <use x="100" xlink:href="#SimHei-20363"/>
      <use x="200" xlink:href="#SimHei-65288"/>
      <use x="300" xlink:href="#SimHei-37"/>
      <use x="350" xlink:href="#SimHei-65289"/>
     </g>
    </g>
   </g>
   <g id="line2d_14">
    <path clip-path="url(#p549bc0d47b)" d="M 89.541818 293.670354 
L 93.042701 293.705758 
L 115.798442 293.550597 
L 126.301091 293.268167 
L 133.302857 292.860061 
L 138.554182 292.330035 
L 142.638545 291.703476 
L 146.139429 290.948394 
L 149.056831 290.109528 
L 151.974234 289.020106 
L 154.308156 287.919415 
L 156.642078 286.565435 
L 158.976 284.901705 
L 160.726442 283.410211 
L 162.476883 281.673397 
L 164.227325 279.653015 
L 165.977766 277.306149 
L 167.728208 274.584644 
L 169.478649 271.434428 
L 171.229091 267.79642 
L 172.979532 263.605619 
L 174.729974 258.793039 
L 176.480416 253.285711 
L 178.230857 247.009299 
L 179.981299 239.891062 
L 181.73174 231.86281 
L 183.482182 222.867397 
L 185.232623 212.863957 
L 187.566545 197.935693 
L 189.900468 181.253768 
L 192.23439 163.031854 
L 195.735273 133.754872 
L 199.819636 99.549538 
L 202.153558 81.886564 
L 203.904 70.398459 
L 205.070961 63.837796 
L 206.237922 58.303033 
L 207.404883 53.903113 
L 208.571844 50.72626 
L 209.155325 49.617713 
L 209.738805 48.837018 
L 210.322286 48.388044 
L 210.905766 48.272727 
L 211.489247 48.491295 
L 212.072727 49.042266 
L 212.656208 49.922114 
L 213.239688 51.125828 
L 214.406649 54.476056 
L 215.57361 59.019638 
L 216.740571 64.661635 
L 217.907532 71.288552 
L 219.657974 82.796009 
L 221.991896 100.341616 
L 225.492779 129.161656 
L 230.160623 167.393525 
L 232.494545 184.940271 
L 234.828468 200.935644 
L 237.16239 215.219134 
L 238.912831 224.785326 
L 240.663273 233.391415 
L 242.413714 241.080091 
L 244.164156 247.908385 
L 245.914597 253.941185 
L 247.665039 259.247818 
L 249.415481 263.897497 
L 251.165922 267.95841 
L 252.916364 271.494875 
L 254.666805 274.567113 
L 256.417247 277.230675 
L 258.167688 279.535422 
L 259.91813 281.526775 
L 261.668571 283.245261 
L 264.002494 285.172752 
L 266.336416 286.751104 
L 268.670338 288.041676 
L 271.00426 289.096036 
L 273.921662 290.145386 
L 276.839065 290.958298 
L 280.339948 291.695279 
L 284.424312 292.311594 
L 289.092156 292.791076 
L 294.926961 293.169243 
L 303.095688 293.456909 
L 315.348779 293.636089 
L 339.271481 293.716344 
L 464.136312 293.727273 
L 497.978182 293.727273 
L 497.978182 293.727273 
" style="fill:none;stroke:#1f77b4;stroke-linecap:square;stroke-width:1.5;"/>
   </g>
   <g id="line2d_15">
    <path clip-path="url(#p549bc0d47b)" d="M 89.541818 293.670354 
L 93.042701 293.705985 
L 116.965403 293.550256 
L 127.468052 293.285243 
L 134.469818 292.91402 
L 139.721143 292.44319 
L 144.388987 291.801034 
L 147.88987 291.117556 
L 151.390753 290.19354 
L 154.308156 289.180617 
L 156.642078 288.16758 
L 158.976 286.93256 
L 161.309922 285.428316 
L 163.643844 283.598953 
L 165.394286 281.974155 
L 167.144727 280.09698 
L 168.895169 277.93157 
L 170.64561 275.437625 
L 172.396052 272.570067 
L 174.146494 269.280515 
L 175.896935 265.515806 
L 177.647377 261.219933 
L 179.397818 256.334156 
L 181.14826 250.798938 
L 182.898701 244.555539 
L 184.649143 237.55 
L 186.399584 229.735649 
L 188.150026 221.079357 
L 190.483948 208.205171 
L 192.81787 193.848712 
L 195.151792 178.16013 
L 198.652675 152.814172 
L 203.904 114.412914 
L 206.237922 99.189243 
L 207.988364 89.302713 
L 209.155325 83.648649 
L 210.322286 78.861455 
L 211.489247 75.027875 
L 212.656208 72.218829 
L 213.239688 71.215468 
L 213.823169 70.486683 
L 214.406649 70.035205 
L 214.99013 69.863083 
L 215.57361 69.971228 
L 216.157091 70.358161 
L 216.740571 71.022173 
L 217.324052 71.959508 
L 217.907532 73.165271 
L 219.074494 76.355785 
L 220.241455 80.530763 
L 221.408416 85.610519 
L 222.575377 91.501706 
L 224.325818 101.632871 
L 226.65974 116.975161 
L 230.160623 142.13249 
L 234.828468 175.716615 
L 237.74587 194.99084 
L 240.079792 208.960139 
L 242.413714 221.493952 
L 244.747636 232.564957 
L 246.498078 239.933295 
L 248.248519 246.539949 
L 249.998961 252.432046 
L 251.749403 257.66275 
L 253.499844 262.287157 
L 255.250286 266.361503 
L 257.000727 269.940201 
L 258.751169 273.075618 
L 260.50161 275.81602 
L 262.252052 278.206714 
L 264.002494 280.288796 
L 265.752935 282.099376 
L 268.086857 284.148331 
L 270.420779 285.842911 
L 272.754701 287.242311 
L 275.088623 288.396279 
L 278.006026 289.557304 
L 280.923429 290.467318 
L 284.424312 291.302655 
L 288.508675 292.011633 
L 293.176519 292.572736 
L 299.011325 293.023759 
L 306.596571 293.358213 
L 317.099221 293.576097 
L 335.187117 293.694943 
L 391.201247 293.727045 
L 497.978182 293.727273 
L 497.978182 293.727273 
" style="fill:none;stroke:#ff7f0e;stroke-linecap:square;stroke-width:1.5;"/>
   </g>
   <g id="line2d_16">
    <path clip-path="url(#p549bc0d47b)" d="M 89.541818 293.670354 
L 93.042701 293.706099 
L 118.132364 293.551736 
L 129.218494 293.285812 
L 136.80374 292.897855 
L 142.638545 292.380921 
L 147.30639 291.744457 
L 151.390753 290.947028 
L 154.891636 290.014588 
L 157.809039 289.00599 
L 160.726442 287.727371 
L 163.060364 286.463893 
L 165.394286 284.940296 
L 167.728208 283.106266 
L 169.478649 281.491372 
L 171.229091 279.640266 
L 172.979532 277.521073 
L 174.729974 275.099301 
L 176.480416 272.337043 
L 178.230857 269.19286 
L 179.981299 265.623041 
L 181.73174 261.581936 
L 183.482182 257.022416 
L 185.232623 251.897695 
L 186.983065 246.163034 
L 188.733506 239.778363 
L 190.483948 232.710897 
L 192.81787 222.19166 
L 195.151792 210.419987 
L 197.485714 197.464863 
L 200.403117 179.86837 
L 209.738805 121.641687 
L 211.489247 112.507621 
L 213.239688 104.659574 
L 214.406649 100.280258 
L 215.57361 96.668547 
L 216.740571 93.885114 
L 217.907532 91.977659 
L 218.491013 91.363052 
L 219.074494 90.978282 
L 219.657974 90.824944 
L 220.241455 90.903491 
L 220.824935 91.213128 
L 221.408416 91.752375 
L 221.991896 92.518613 
L 223.158857 94.715898 
L 224.325818 97.764457 
L 225.492779 101.609762 
L 226.65974 106.185333 
L 228.410182 114.250127 
L 230.160623 123.503039 
L 232.494545 137.17215 
L 236.578909 162.842088 
L 240.663273 188.117125 
L 243.580675 204.733252 
L 245.914597 216.816156 
L 248.248519 227.71003 
L 250.582442 237.391653 
L 252.916364 245.893126 
L 254.666805 251.535579 
L 256.417247 256.590745 
L 258.167688 261.100974 
L 259.91813 265.110091 
L 261.668571 268.662493 
L 263.419013 271.801553 
L 265.169455 274.568479 
L 266.919896 277.002203 
L 268.670338 279.139041 
L 271.00426 281.583238 
L 273.338182 283.628892 
L 275.672104 285.337702 
L 278.006026 286.762374 
L 280.339948 287.948671 
L 283.257351 289.155003 
L 286.174753 290.111805 
L 289.675636 291.001214 
L 293.76 291.767794 
L 298.427844 292.384563 
L 303.679169 292.850044 
L 310.680935 293.230374 
L 320.016623 293.494476 
L 334.603636 293.656238 
L 366.695065 293.721922 
L 497.978182 293.727273 
L 497.978182 293.727273 
" style="fill:none;stroke:#2ca02c;stroke-linecap:square;stroke-width:1.5;"/>
   </g>
   <g id="line2d_17">
    <path clip-path="url(#p549bc0d47b)" d="M 89.541818 293.670354 
L 93.042701 293.706327 
L 119.299325 293.555265 
L 130.968935 293.294236 
L 139.137662 292.900587 
L 144.972468 292.416438 
L 149.640312 291.832795 
L 153.724675 291.113913 
L 157.225558 290.286203 
L 160.142961 289.40203 
L 163.060364 288.294053 
L 165.394286 287.210095 
L 167.728208 285.91497 
L 170.06213 284.369403 
L 172.396052 282.528087 
L 174.729974 280.338771 
L 176.480416 278.432909 
L 178.230857 276.269889 
L 179.981299 273.819658 
L 181.73174 271.049431 
L 183.482182 267.92517 
L 185.232623 264.41113 
L 186.983065 260.470202 
L 188.733506 256.066525 
L 190.483948 251.16538 
L 192.23439 245.735348 
L 194.568312 237.629003 
L 196.902234 228.500174 
L 199.236156 218.351477 
L 201.570078 207.240287 
L 204.487481 192.200805 
L 209.155325 166.627059 
L 212.656208 147.828901 
L 214.99013 136.420711 
L 216.740571 128.85293 
L 218.491013 122.390281 
L 219.657974 118.800767 
L 220.824935 115.850222 
L 221.991896 113.584066 
L 223.158857 112.03736 
L 223.742338 111.541827 
L 224.325818 111.234239 
L 224.909299 111.115507 
L 225.492779 111.186086 
L 226.07626 111.445521 
L 226.65974 111.892673 
L 227.243221 112.525266 
L 228.410182 114.335277 
L 229.577143 116.8455 
L 230.744104 120.014499 
L 231.911065 123.792868 
L 233.661506 130.474882 
L 235.411948 138.181088 
L 237.74587 149.649158 
L 241.246753 168.306499 
L 246.498078 196.443744 
L 249.415481 210.903909 
L 251.749403 221.517972 
L 254.083325 231.176258 
L 256.417247 239.844275 
L 258.751169 247.533975 
L 261.085091 254.289527 
L 263.419013 260.175591 
L 265.169455 264.065521 
L 266.919896 267.543246 
L 268.670338 270.643829 
L 270.420779 273.400965 
L 272.754701 276.598651 
L 275.088623 279.315374 
L 277.422545 281.616934 
L 279.756468 283.561956 
L 282.09039 285.202349 
L 284.424312 286.583649 
L 286.758234 287.744902 
L 289.675636 288.938143 
L 292.593039 289.895969 
L 296.093922 290.798243 
L 300.178286 291.587589 
L 304.84613 292.233843 
L 310.097455 292.731311 
L 317.099221 293.147386 
L 325.851429 293.432548 
L 339.271481 293.622884 
L 363.777662 293.711677 
L 493.310338 293.727273 
L 497.978182 293.727273 
L 497.978182 293.727273 
" style="fill:none;stroke:#d62728;stroke-linecap:square;stroke-width:1.5;"/>
   </g>
   <g id="line2d_18">
    <path clip-path="url(#p549bc0d47b)" d="M 89.541818 293.670354 
L 93.042701 293.706554 
L 121.049766 293.553443 
L 133.302857 293.291276 
L 142.055065 292.886813 
L 148.473351 292.368285 
L 153.724675 291.714859 
L 157.809039 290.998368 
L 161.309922 290.186254 
L 164.810805 289.135992 
L 167.728208 288.030747 
L 170.64561 286.665726 
L 172.979532 285.347833 
L 175.313455 283.792135 
L 177.647377 281.958559 
L 179.981299 279.80237 
L 182.315221 277.273363 
L 184.649143 274.315419 
L 186.399584 271.779241 
L 188.150026 268.941053 
L 189.900468 265.773078 
L 191.650909 262.247541 
L 193.401351 258.337235 
L 195.735273 252.480996 
L 198.069195 245.844517 
L 200.403117 238.392737 
L 202.737039 230.116889 
L 205.070961 221.043385 
L 207.988364 208.696606 
L 211.489247 192.785245 
L 217.907532 163.264423 
L 220.241455 153.595209 
L 221.991896 147.129031 
L 223.742338 141.533365 
L 224.909299 138.367895 
L 226.07626 135.704902 
L 227.243221 133.581043 
L 228.410182 132.025799 
L 229.577143 131.061257 
L 230.160623 130.804554 
L 230.744104 130.700052 
L 231.327584 130.747636 
L 231.911065 130.947078 
L 232.494545 131.297469 
L 233.078026 131.797442 
L 234.244987 133.237482 
L 235.411948 135.245456 
L 236.578909 137.79131 
L 237.74587 140.839072 
L 239.496312 146.257607 
L 241.246753 152.54859 
L 243.580675 161.992179 
L 246.498078 174.902679 
L 254.666805 211.7907 
L 257.584208 223.674844 
L 259.91813 232.369613 
L 262.252052 240.280726 
L 264.585974 247.395207 
L 266.919896 253.729676 
L 269.253818 259.322268 
L 271.58774 264.224438 
L 273.921662 268.495152 
L 276.255584 272.196795 
L 278.589506 275.391066 
L 280.923429 278.137046 
L 283.257351 280.490515 
L 285.591273 282.502132 
L 287.925195 284.217658 
L 290.259117 285.677961 
L 293.176519 287.198598 
L 296.093922 288.436918 
L 299.011325 289.443467 
L 302.512208 290.404708 
L 306.596571 291.259169 
L 311.264416 291.971448 
L 316.51574 292.531186 
L 322.934026 292.97959 
L 331.102753 293.316434 
L 342.772364 293.55276 
L 361.44374 293.68299 
L 410.456104 293.726134 
L 497.978182 293.727273 
L 497.978182 293.727273 
" style="fill:none;stroke:#9467bd;stroke-linecap:square;stroke-width:1.5;"/>
   </g>
   <g id="line2d_19">
    <path clip-path="url(#p549bc0d47b)" d="M 89.541818 293.670354 
L 93.042701 293.706782 
L 122.216727 293.561526 
L 135.636779 293.29879 
L 144.388987 292.931437 
L 151.390753 292.421902 
L 156.642078 291.837007 
L 161.309922 291.102074 
L 165.394286 290.23122 
L 168.895169 289.261555 
L 171.812571 288.255007 
L 174.729974 287.027159 
L 177.647377 285.532136 
L 179.981299 284.107691 
L 182.315221 282.446352 
L 184.649143 280.512145 
L 186.983065 278.266251 
L 189.316987 275.665527 
L 191.650909 272.663869 
L 193.984831 269.21301 
L 196.318753 265.264112 
L 198.652675 260.769252 
L 200.986597 255.684943 
L 203.320519 249.976351 
L 205.654442 243.621505 
L 207.988364 236.618016 
L 210.322286 228.98956 
L 213.239688 218.666579 
L 216.740571 205.406826 
L 223.742338 178.493331 
L 226.07626 170.37788 
L 227.826701 164.894913 
L 229.577143 160.078008 
L 231.327584 156.050563 
L 232.494545 153.858514 
L 233.661506 152.093128 
L 234.828468 150.776146 
L 235.995429 149.924302 
L 237.16239 149.547729 
L 237.74587 149.539532 
L 238.329351 149.651321 
L 239.496312 150.232232 
L 240.663273 151.282493 
L 241.830234 152.787762 
L 242.997195 154.727889 
L 244.164156 157.077374 
L 245.914597 161.304375 
L 247.665039 166.271774 
L 249.415481 171.853323 
L 251.749403 180.02114 
L 255.250286 193.202003 
L 261.668571 217.541981 
L 264.585974 227.778332 
L 267.503377 237.17024 
L 269.837299 244.001949 
L 272.171221 250.20505 
L 274.505143 255.784437 
L 276.839065 260.762194 
L 279.172987 265.172473 
L 281.506909 269.056597 
L 283.840831 272.460101 
L 286.174753 275.429315 
L 288.508675 278.010231 
L 290.842597 280.246335 
L 293.176519 282.178379 
L 295.510442 283.843931 
L 297.844364 285.277027 
L 300.761766 286.787076 
L 303.679169 288.032796 
L 306.596571 289.058811 
L 310.097455 290.052268 
L 314.181818 290.949874 
L 318.849662 291.712583 
L 324.100987 292.324457 
L 330.519273 292.826821 
L 338.688 293.215575 
L 349.77413 293.489922 
L 366.695065 293.653848 
L 401.703896 293.720784 
L 497.978182 293.727273 
L 497.978182 293.727273 
" style="fill:none;stroke:#8c564b;stroke-linecap:square;stroke-width:1.5;"/>
   </g>
   <g id="line2d_20">
    <path clip-path="url(#p549bc0d47b)" d="M 89.541818 293.670354 
L 93.042701 293.707124 
L 125.13413 293.552419 
L 139.137662 293.283535 
L 148.473351 292.902523 
L 155.475117 292.415299 
L 161.309922 291.797278 
L 165.977766 291.101391 
L 170.06213 290.29235 
L 173.563013 289.406469 
L 177.063896 288.29724 
L 179.981299 287.164333 
L 182.898701 285.80284 
L 185.816104 284.170529 
L 188.150026 282.637029 
L 190.483948 280.871301 
L 192.81787 278.84295 
L 195.151792 276.519534 
L 197.485714 273.866445 
L 199.819636 270.848394 
L 202.153558 267.429864 
L 204.487481 263.577273 
L 206.821403 259.26091 
L 209.155325 254.457551 
L 211.489247 249.153422 
L 213.823169 243.349776 
L 216.740571 235.423864 
L 219.657974 226.838607 
L 223.742338 214.03056 
L 230.160623 193.740339 
L 232.494545 186.979664 
L 234.828468 180.906907 
L 236.578909 176.941731 
L 238.329351 173.582851 
L 239.496312 171.720134 
L 240.663273 170.182649 
L 241.830234 168.987587 
L 242.997195 168.147582 
L 244.164156 167.67254 
L 245.331117 167.567354 
L 246.498078 167.832481 
L 247.665039 168.464505 
L 248.832 169.455571 
L 249.998961 170.793955 
L 251.165922 172.463718 
L 252.332883 174.446192 
L 254.083325 177.957386 
L 255.833766 182.038448 
L 258.167688 188.207625 
L 261.085091 196.767155 
L 265.752935 211.411964 
L 270.420779 225.922104 
L 273.921662 236.064312 
L 276.839065 243.806377 
L 279.172987 249.474671 
L 281.506909 254.657904 
L 283.840831 259.356988 
L 286.174753 263.585811 
L 288.508675 267.367026 
L 290.842597 270.729321 
L 293.176519 273.705024 
L 295.510442 276.327604 
L 297.844364 278.630644 
L 300.178286 280.647042 
L 302.512208 282.407533 
L 305.42961 284.292335 
L 308.347013 285.874102 
L 311.264416 287.197915 
L 314.181818 288.303729 
L 317.682701 289.390646 
L 321.767065 290.390478 
L 325.851429 291.162066 
L 330.519273 291.829721 
L 336.354078 292.426683 
L 343.355844 292.901498 
L 352.108052 293.259744 
L 364.361143 293.516674 
L 384.199481 293.669443 
L 428.544 293.724085 
L 497.978182 293.727273 
L 497.978182 293.727273 
" style="fill:none;stroke:#e377c2;stroke-linecap:square;stroke-width:1.5;"/>
   </g>
   <g id="line2d_21">
    <path clip-path="url(#p549bc0d47b)" d="M 89.541818 293.670354 
L 93.042701 293.707351 
L 127.468052 293.554354 
L 142.638545 293.284332 
L 153.141195 292.878389 
L 160.726442 292.370675 
L 166.561247 291.783617 
L 171.812571 291.043334 
L 176.480416 290.155746 
L 180.564779 289.146579 
L 184.065662 288.063419 
L 187.566545 286.733004 
L 190.483948 285.398149 
L 193.401351 283.821277 
L 196.318753 281.963454 
L 198.652675 280.246676 
L 200.986597 278.299605 
L 203.320519 276.097767 
L 205.654442 273.616345 
L 207.988364 270.830294 
L 210.322286 267.716734 
L 212.656208 264.254149 
L 214.99013 260.426033 
L 217.324052 256.222368 
L 220.241455 250.437961 
L 223.158857 244.087896 
L 226.07626 237.231939 
L 230.160623 226.992401 
L 238.329351 206.212452 
L 241.246753 199.566866 
L 243.580675 194.88702 
L 245.331117 191.853488 
L 247.081558 189.29625 
L 248.248519 187.882848 
L 249.415481 186.718749 
L 250.582442 185.815223 
L 251.749403 185.180695 
L 252.916364 184.821653 
L 254.083325 184.74117 
L 255.250286 184.939816 
L 256.417247 185.4152 
L 257.584208 186.162199 
L 258.751169 187.172959 
L 259.91813 188.437235 
L 261.668571 190.780459 
L 263.419013 193.614549 
L 265.169455 196.880195 
L 267.503377 201.794432 
L 270.420779 208.61157 
L 274.505143 218.864314 
L 280.923429 235.040119 
L 284.424312 243.254722 
L 287.341714 249.57314 
L 290.259117 255.34605 
L 293.176519 260.548294 
L 295.510442 264.300139 
L 297.844364 267.69852 
L 300.178286 270.759829 
L 302.512208 273.503646 
L 304.84613 275.953194 
L 307.180052 278.131468 
L 309.513974 280.062488 
L 312.431377 282.163922 
L 315.348779 283.958451 
L 318.266182 285.486032 
L 321.183584 286.783092 
L 324.684468 288.08038 
L 328.185351 289.140774 
L 332.269714 290.133206 
L 336.937558 291.010663 
L 342.188883 291.746848 
L 348.023688 292.334817 
L 355.025455 292.815779 
L 363.777662 293.191214 
L 376.030753 293.472505 
L 394.70213 293.645538 
L 436.129247 293.72067 
L 497.978182 293.727159 
L 497.978182 293.727159 
" style="fill:none;stroke:#7f7f7f;stroke-linecap:square;stroke-width:1.5;"/>
   </g>
   <g id="line2d_22">
    <path clip-path="url(#p549bc0d47b)" d="M 89.541818 293.670354 
L 93.042701 293.707579 
L 130.385455 293.555151 
L 146.722909 293.287178 
L 157.809039 292.896489 
L 165.977766 292.401867 
L 172.979532 291.751629 
L 178.814338 290.975487 
L 183.482182 290.144817 
L 187.566545 289.219777 
L 191.650909 288.063419 
L 195.151792 286.848093 
L 198.652675 285.38483 
L 201.570078 283.94388 
L 204.487481 282.271498 
L 207.404883 280.336494 
L 210.322286 278.106879 
L 213.239688 275.549755 
L 216.157091 272.632906 
L 219.074494 269.326847 
L 221.991896 265.607787 
L 224.909299 261.460927 
L 227.826701 256.884559 
L 230.744104 251.894735 
L 234.244987 245.418766 
L 238.329351 237.350444 
L 247.665039 218.667831 
L 250.582442 213.466269 
L 252.916364 209.775669 
L 254.666805 207.353214 
L 256.417247 205.273295 
L 258.167688 203.573706 
L 259.91813 202.285297 
L 261.085091 201.666934 
L 262.252052 201.247672 
L 263.419013 201.03047 
L 264.585974 201.017379 
L 265.752935 201.208056 
L 266.919896 201.600681 
L 268.086857 202.191837 
L 269.253818 202.975834 
L 271.00426 204.498406 
L 272.754701 206.410415 
L 274.505143 208.676229 
L 276.255584 211.255666 
L 278.589506 215.107118 
L 281.506909 220.430827 
L 285.591273 228.459534 
L 293.76 244.682468 
L 297.260883 251.120301 
L 300.178286 256.094757 
L 303.095688 260.670441 
L 306.013091 264.829254 
L 308.930494 268.570854 
L 311.847896 271.90799 
L 314.765299 274.862634 
L 317.682701 277.461992 
L 320.600104 279.736117 
L 323.517506 281.716883 
L 326.434909 283.435141 
L 329.352312 284.921058 
L 332.853195 286.435889 
L 336.354078 287.699254 
L 340.438442 288.907066 
L 344.522805 289.877983 
L 349.190649 290.754529 
L 354.441974 291.507562 
L 360.86026 292.176128 
L 368.445506 292.713097 
L 377.781195 293.126896 
L 390.034286 293.425832 
L 407.538701 293.614915 
L 441.380571 293.710653 
L 497.978182 293.72659 
L 497.978182 293.72659 
" style="fill:none;stroke:#bcbd22;stroke-linecap:square;stroke-width:1.5;"/>
   </g>
   <g id="line2d_23">
    <path clip-path="url(#p549bc0d47b)" d="M 89.541818 293.670354 
L 93.042701 293.707693 
L 133.302857 293.561412 
L 151.974234 293.283308 
L 163.643844 292.907418 
L 172.979532 292.3898 
L 180.564779 291.739562 
L 186.399584 291.035479 
L 191.650909 290.195589 
L 196.318753 289.238104 
L 200.403117 288.197633 
L 204.487481 286.927438 
L 207.988364 285.622181 
L 211.489247 284.083558 
L 214.99013 282.277645 
L 217.907532 280.542425 
L 220.824935 278.575091 
L 223.742338 276.354811 
L 226.65974 273.862575 
L 229.577143 271.082216 
L 232.494545 268.002579 
L 235.411948 264.619794 
L 238.912831 260.168875 
L 242.413714 255.32351 
L 246.498078 249.26225 
L 259.91813 228.862745 
L 262.835532 225.081302 
L 265.169455 222.431743 
L 266.919896 220.708248 
L 268.670338 219.239179 
L 270.420779 218.047646 
L 272.171221 217.151747 
L 273.921662 216.565714 
L 275.672104 216.299107 
L 277.422545 216.355798 
L 279.172987 216.734534 
L 280.923429 217.428144 
L 282.67387 218.425358 
L 284.424312 219.709668 
L 286.174753 221.260472 
L 288.508675 223.700913 
L 290.842597 226.508365 
L 293.76 230.428803 
L 297.260883 235.554207 
L 311.264416 256.639354 
L 314.765299 261.321818 
L 318.266182 265.60699 
L 321.183584 268.856472 
L 324.100987 271.81066 
L 327.01839 274.476271 
L 329.935792 276.865257 
L 332.853195 278.994468 
L 335.770597 280.882798 
L 339.271481 282.858898 
L 342.772364 284.552111 
L 346.273247 285.996705 
L 350.35761 287.410107 
L 354.441974 288.574434 
L 359.109818 289.65213 
L 363.777662 290.509438 
L 369.612468 291.336009 
L 376.030753 292.005144 
L 383.616 292.56067 
L 392.951688 293.006 
L 405.204779 293.344097 
L 422.125714 293.567559 
L 449.549299 293.688682 
L 497.978182 293.724085 
L 497.978182 293.724085 
" style="fill:none;stroke:#17becf;stroke-linecap:square;stroke-width:1.5;"/>
   </g>
   <g id="line2d_24">
    <path clip-path="url(#p549bc0d47b)" d="M 89.541818 293.670354 
L 93.042701 293.70792 
L 137.387221 293.563803 
L 158.392519 293.281259 
L 171.812571 292.88169 
L 181.73174 292.372838 
L 189.900468 291.734667 
L 196.902234 290.958411 
L 202.737039 290.091997 
L 207.988364 289.091482 
L 212.656208 287.984302 
L 216.740571 286.813714 
L 220.824935 285.421941 
L 224.909299 283.775514 
L 228.410182 282.134552 
L 231.911065 280.257946 
L 235.411948 278.124979 
L 238.912831 275.717323 
L 242.413714 273.021432 
L 245.914597 270.032296 
L 249.415481 266.754696 
L 253.499844 262.592923 
L 258.167688 257.469227 
L 273.338182 240.422795 
L 276.255584 237.641981 
L 278.589506 235.671573 
L 280.923429 233.972099 
L 283.257351 232.580553 
L 285.007792 231.758193 
L 286.758234 231.137326 
L 288.508675 230.726601 
L 290.259117 230.531029 
L 292.009558 230.553113 
L 293.76 230.792399 
L 295.510442 231.245243 
L 297.260883 231.905499 
L 299.011325 232.763717 
L 301.345247 234.196244 
L 303.679169 235.927821 
L 306.013091 237.92054 
L 308.930494 240.714901 
L 312.431377 244.402656 
L 317.682701 250.321391 
L 325.851429 259.567815 
L 330.519273 264.488198 
L 334.603636 268.44256 
L 338.104519 271.53506 
L 341.605403 274.34217 
L 345.106286 276.864347 
L 348.607169 279.111264 
L 352.108052 281.098292 
L 355.608935 282.844782 
L 359.109818 284.371566 
L 363.194182 285.904042 
L 367.278545 287.200305 
L 371.94639 288.433162 
L 376.614234 289.441873 
L 381.865558 290.355416 
L 387.700364 291.148747 
L 394.70213 291.862279 
L 402.870857 292.451614 
L 412.790026 292.924607 
L 425.043117 293.275225 
L 441.964052 293.523049 
L 467.637195 293.666142 
L 497.978182 293.712702 
L 497.978182 293.712702 
" style="fill:none;stroke:#1f77b4;stroke-linecap:square;stroke-width:1.5;"/>
   </g>
   <g id="patch_3">
    <path d="M 69.12 306 
L 69.12 36 
" style="fill:none;stroke:#000000;stroke-linecap:square;stroke-linejoin:miter;stroke-width:0.8;"/>
   </g>
   <g id="patch_4">
    <path d="M 518.4 306 
L 518.4 36 
" style="fill:none;stroke:#000000;stroke-linecap:square;stroke-linejoin:miter;stroke-width:0.8;"/>
   </g>
   <g id="patch_5">
    <path d="M 69.12 306 
L 518.4 306 
" style="fill:none;stroke:#000000;stroke-linecap:square;stroke-linejoin:miter;stroke-width:0.8;"/>
   </g>
   <g id="patch_6">
    <path d="M 69.12 36 
L 518.4 36 
" style="fill:none;stroke:#000000;stroke-linecap:square;stroke-linejoin:miter;stroke-width:0.8;"/>
   </g>
   <g id="text_16">
    <!-- 感染者 -->
    <defs>
     <path d="M 95.703125 29.6875 
Q 92.1875 18.75 89.453125 17.375 
Q 86.71875 16.015625 81.828125 17.765625 
Q 76.953125 19.53125 69.140625 26.5625 
Q 64.453125 21.484375 58.203125 17.1875 
Q 55.46875 20.3125 52.34375 21.875 
Q 60.546875 26.5625 65.234375 32.03125 
Q 60.9375 39.0625 58.78125 47.453125 
Q 56.640625 55.859375 55.859375 63.28125 
L 20.703125 63.28125 
Q 20.703125 45.703125 20.109375 39.453125 
Q 19.53125 33.203125 17.578125 27.734375 
Q 15.625 22.265625 11.71875 16.015625 
Q 7.03125 19.140625 4.296875 19.921875 
Q 8.984375 25.78125 11.125 31.4375 
Q 13.28125 37.109375 13.671875 44.53125 
Q 14.0625 51.953125 13.671875 69.53125 
L 55.078125 69.53125 
Q 55.078125 72.65625 54.6875 80.859375 
Q 58.203125 80.078125 62.890625 79.6875 
Q 62.109375 75 62.5 69.53125 
L 79.6875 69.53125 
Q 85.15625 69.53125 92.578125 69.921875 
L 92.578125 62.890625 
Q 85.15625 63.28125 80.078125 63.28125 
L 62.890625 63.28125 
Q 64.453125 46.875 69.53125 38.671875 
Q 71.875 42.578125 73.828125 48.234375 
Q 75.78125 53.90625 76.953125 58.984375 
Q 80.859375 57.421875 85.15625 56.25 
Q 83.59375 54.6875 81.046875 47.65625 
Q 78.515625 40.625 73.828125 32.03125 
Q 78.125 28.125 81.4375 26.171875 
Q 84.765625 24.21875 85.734375 25.390625 
Q 86.71875 26.5625 88.28125 33.59375 
Q 91.40625 30.859375 95.703125 29.6875 
z
M 51.953125 25 
L 24.609375 25 
L 24.609375 44.921875 
L 51.953125 44.921875 
z
M 76.171875 2.734375 
Q 73.4375 -5.078125 71.484375 -6.4375 
Q 69.53125 -7.8125 66.40625 -7.8125 
L 36.71875 -7.8125 
Q 31.640625 -7.421875 30.65625 -3.125 
Q 29.6875 1.171875 29.6875 5.078125 
Q 29.6875 8.984375 29.296875 14.453125 
L 37.5 14.453125 
Q 37.109375 7.8125 37.109375 5.078125 
Q 37.109375 2.734375 37.5 0.390625 
Q 37.890625 -1.953125 42.578125 -1.5625 
L 60.546875 -1.5625 
Q 64.453125 -1.5625 65.8125 -0.1875 
Q 67.1875 1.171875 67.96875 7.03125 
Q 71.09375 4.6875 76.171875 2.734375 
z
M 51.5625 51.171875 
L 25 51.171875 
L 25 57.03125 
L 51.5625 57.03125 
z
M 83.59375 14.0625 
Q 92.1875 3.515625 94.921875 -0.78125 
Q 91.015625 -3.125 87.890625 -5.46875 
Q 83.984375 1.953125 77.34375 9.375 
Q 80.078125 11.328125 83.59375 14.0625 
z
M 7.421875 -2.734375 
Q 10.9375 1.5625 15.234375 14.453125 
Q 18.359375 12.890625 22.65625 11.328125 
Q 17.578125 -0.390625 14.84375 -5.859375 
Q 11.71875 -4.296875 7.421875 -2.734375 
z
M 45.703125 30.46875 
L 45.703125 39.453125 
L 30.859375 39.453125 
L 30.859375 30.46875 
z
M 42.578125 16.40625 
Q 44.921875 18.359375 48.4375 20.703125 
Q 55.078125 12.109375 57.03125 8.59375 
Q 53.90625 6.640625 51.171875 3.90625 
Q 48.828125 8.203125 42.578125 16.40625 
z
M 76.5625 70.3125 
Q 74.21875 72.265625 67.96875 76.5625 
Q 70.3125 79.296875 71.875 81.640625 
Q 74.609375 80.078125 81.25 75 
Q 78.90625 73.046875 76.5625 70.3125 
z
" id="SimHei-24863"/>
     <path d="M 91.015625 -7.03125 
Q 74.21875 -2.34375 66.40625 3.90625 
Q 58.59375 10.15625 53.90625 17.96875 
Q 53.90625 -4.6875 54.296875 -9.375 
L 46.09375 -9.375 
Q 46.484375 -4.296875 46.484375 16.796875 
Q 40.625 8.59375 31.4375 2.34375 
Q 22.265625 -3.90625 9.765625 -8.984375 
Q 8.59375 -5.078125 3.125 -1.5625 
Q 16.796875 1.5625 25.96875 7.609375 
Q 35.15625 13.671875 38.671875 19.140625 
L 19.140625 19.140625 
Q 13.671875 19.140625 6.25 18.75 
L 6.25 25.78125 
Q 13.671875 25.390625 19.140625 25.390625 
L 46.484375 25.390625 
Q 46.484375 28.515625 46.09375 33.59375 
L 54.296875 33.59375 
Q 53.90625 28.90625 53.90625 25.390625 
L 82.8125 25.390625 
Q 87.890625 25.390625 93.75 25.78125 
L 93.75 18.75 
Q 87.890625 19.140625 82.8125 19.140625 
L 61.71875 19.140625 
Q 67.96875 10.546875 78.125 6.25 
Q 88.28125 1.953125 96.484375 1.171875 
Q 91.40625 -3.90625 91.015625 -7.03125 
z
M 28.515625 35.9375 
Q 39.84375 40.234375 45.703125 47.0625 
Q 51.5625 53.90625 53.125 62.5 
Q 47.265625 62.5 40.234375 62.109375 
L 40.234375 69.140625 
Q 47.65625 68.75 53.515625 68.75 
Q 53.90625 76.953125 53.515625 82.03125 
Q 58.203125 80.859375 62.5 80.859375 
Q 61.328125 78.515625 60.9375 68.75 
L 80.078125 68.75 
Q 79.6875 64.84375 79.296875 60.15625 
L 78.125 44.53125 
Q 78.515625 40.625 80.859375 40.625 
L 85.15625 40.625 
Q 87.109375 40.625 87.6875 42.1875 
Q 88.28125 43.75 88.671875 50 
Q 91.796875 47.265625 96.875 46.875 
Q 95.3125 36.328125 92.375 35.34375 
Q 89.453125 34.375 84.171875 34.171875 
Q 78.90625 33.984375 74.796875 34.953125 
Q 70.703125 35.9375 71.09375 42.1875 
L 72.265625 62.5 
L 60.546875 62.5 
Q 59.375 53.515625 54.296875 45.890625 
Q 49.21875 38.28125 35.546875 30.078125 
Q 33.984375 32.8125 28.515625 35.9375 
z
M 33.984375 45.703125 
Q 19.140625 33.984375 13.28125 29.296875 
Q 10.9375 33.203125 7.8125 35.9375 
Q 17.1875 40.625 31.25 52.734375 
Q 32.03125 49.609375 33.984375 45.703125 
z
M 10.546875 64.84375 
Q 21.484375 59.765625 27.34375 56.25 
Q 24.609375 52.734375 23.046875 49.609375 
Q 19.140625 53.125 7.03125 58.59375 
Q 9.375 61.328125 10.546875 64.84375 
z
M 28.90625 64.84375 
Q 23.046875 69.921875 14.0625 74.609375 
Q 16.015625 76.953125 18.359375 80.078125 
Q 27.34375 75 33.984375 71.09375 
Q 30.46875 67.578125 28.90625 64.84375 
z
" id="SimHei-26579"/>
     <path d="M 88.28125 67.578125 
Q 85.15625 64.84375 81.046875 60.546875 
Q 76.953125 56.25 69.53125 48.828125 
L 80.46875 48.828125 
Q 87.109375 48.828125 94.140625 49.21875 
L 94.140625 42.1875 
Q 87.109375 42.578125 80.078125 42.578125 
L 61.71875 42.578125 
Q 55.46875 37.890625 47.65625 32.421875 
L 80.859375 32.421875 
Q 80.46875 25.390625 80.46875 19.53125 
L 80.46875 5.859375 
Q 80.46875 -1.171875 80.859375 -9.375 
L 73.046875 -9.375 
L 73.046875 -3.515625 
L 35.546875 -3.515625 
L 35.546875 -9.375 
L 27.34375 -9.375 
Q 27.734375 -3.125 27.734375 2.34375 
L 27.734375 20.3125 
Q 19.921875 16.015625 10.15625 11.71875 
Q 6.25 17.1875 4.6875 18.359375 
Q 7.421875 19.140625 15.03125 22.0625 
Q 22.65625 25 27.734375 28.515625 
L 27.734375 32.421875 
L 35.15625 32.421875 
Q 43.75 37.109375 50.390625 42.578125 
L 22.65625 42.578125 
Q 14.453125 42.578125 7.421875 42.1875 
L 7.421875 49.21875 
Q 15.234375 48.828125 22.65625 48.828125 
L 43.359375 48.828125 
L 43.359375 60.9375 
L 31.640625 60.9375 
Q 25 60.9375 19.53125 60.546875 
L 19.53125 67.578125 
Q 25 67.1875 31.640625 67.1875 
L 43.359375 67.1875 
Q 43.359375 73.046875 42.96875 80.46875 
L 51.5625 80.46875 
Q 51.171875 75 51.171875 67.1875 
L 57.03125 67.1875 
Q 62.109375 67.1875 68.75 67.578125 
L 68.75 60.546875 
Q 62.109375 60.9375 57.03125 60.9375 
L 51.171875 60.9375 
L 51.171875 48.828125 
L 58.984375 48.828125 
Q 64.453125 53.125 69.921875 58.984375 
Q 75.390625 64.84375 81.25 73.828125 
Q 85.546875 69.53125 88.28125 67.578125 
z
M 73.046875 2.734375 
L 73.046875 11.71875 
L 35.546875 11.71875 
L 35.546875 2.734375 
z
M 73.046875 17.96875 
L 73.046875 26.171875 
L 35.546875 26.171875 
L 35.546875 17.96875 
z
" id="SimHei-32773"/>
    </defs>
    <g transform="translate(260.76 30)scale(0.22 -0.22)">
     <use xlink:href="#SimHei-24863"/>
     <use x="100" xlink:href="#SimHei-26579"/>
     <use x="200" xlink:href="#SimHei-32773"/>
    </g>
   </g>
   <g id="legend_1">
    <g id="patch_7">
     <path d="M 429.6 220.5 
L 510 220.5 
Q 512.4 220.5 512.4 218.1 
L 512.4 44.4 
Q 512.4 42 510 42 
L 429.6 42 
Q 427.2 42 427.2 44.4 
L 427.2 218.1 
Q 427.2 220.5 429.6 220.5 
z
" style="fill:#ffffff;opacity:0.8;stroke:#cccccc;stroke-linejoin:miter;"/>
    </g>
    <g id="line2d_25">
     <path d="M 432 51 
L 456 51 
" style="fill:none;stroke:#1f77b4;stroke-linecap:square;stroke-width:1.5;"/>
    </g>
    <g id="line2d_26"/>
    <g id="text_17">
     <!-- l = 0.0 -->
     <defs>
      <path d="M 28.515625 1.953125 
L 20.703125 1.953125 
L 20.703125 68.75 
L 28.515625 68.75 
z
" id="SimHei-108"/>
      <path id="SimHei-32"/>
      <path d="M 46.484375 45.3125 
L 1.953125 45.3125 
L 1.953125 51.5625 
L 46.484375 51.5625 
z
M 46.484375 21.484375 
L 1.953125 21.484375 
L 1.953125 27.734375 
L 46.484375 27.734375 
z
" id="SimHei-61"/>
      <path d="M 16.796875 1.953125 
L 7.8125 1.953125 
L 7.8125 10.546875 
L 16.796875 10.546875 
z
" id="SimHei-46"/>
     </defs>
     <g transform="translate(465.6 55.2)scale(0.12 -0.12)">
      <use xlink:href="#SimHei-108"/>
      <use x="50" xlink:href="#SimHei-32"/>
      <use x="100" xlink:href="#SimHei-61"/>
      <use x="150" xlink:href="#SimHei-32"/>
      <use x="200" xlink:href="#SimHei-48"/>
      <use x="250" xlink:href="#SimHei-46"/>
      <use x="300" xlink:href="#SimHei-48"/>
     </g>
    </g>
    <g id="line2d_27">
     <path d="M 432 66.9 
L 456 66.9 
" style="fill:none;stroke:#ff7f0e;stroke-linecap:square;stroke-width:1.5;"/>
    </g>
    <g id="line2d_28"/>
    <g id="text_18">
     <!-- l = 0.1 -->
     <g transform="translate(465.6 71.1)scale(0.12 -0.12)">
      <use xlink:href="#SimHei-108"/>
      <use x="50" xlink:href="#SimHei-32"/>
      <use x="100" xlink:href="#SimHei-61"/>
      <use x="150" xlink:href="#SimHei-32"/>
      <use x="200" xlink:href="#SimHei-48"/>
      <use x="250" xlink:href="#SimHei-46"/>
      <use x="300" xlink:href="#SimHei-49"/>
     </g>
    </g>
    <g id="line2d_29">
     <path d="M 432 82.8 
L 456 82.8 
" style="fill:none;stroke:#2ca02c;stroke-linecap:square;stroke-width:1.5;"/>
    </g>
    <g id="line2d_30"/>
    <g id="text_19">
     <!-- l = 0.2 -->
     <g transform="translate(465.6 87)scale(0.12 -0.12)">
      <use xlink:href="#SimHei-108"/>
      <use x="50" xlink:href="#SimHei-32"/>
      <use x="100" xlink:href="#SimHei-61"/>
      <use x="150" xlink:href="#SimHei-32"/>
      <use x="200" xlink:href="#SimHei-48"/>
      <use x="250" xlink:href="#SimHei-46"/>
      <use x="300" xlink:href="#SimHei-50"/>
     </g>
    </g>
    <g id="line2d_31">
     <path d="M 432 98.7 
L 456 98.7 
" style="fill:none;stroke:#d62728;stroke-linecap:square;stroke-width:1.5;"/>
    </g>
    <g id="line2d_32"/>
    <g id="text_20">
     <!-- l = 0.3 -->
     <g transform="translate(465.6 102.9)scale(0.12 -0.12)">
      <use xlink:href="#SimHei-108"/>
      <use x="50" xlink:href="#SimHei-32"/>
      <use x="100" xlink:href="#SimHei-61"/>
      <use x="150" xlink:href="#SimHei-32"/>
      <use x="200" xlink:href="#SimHei-48"/>
      <use x="250" xlink:href="#SimHei-46"/>
      <use x="300" xlink:href="#SimHei-51"/>
     </g>
    </g>
    <g id="line2d_33">
     <path d="M 432 114.6 
L 456 114.6 
" style="fill:none;stroke:#9467bd;stroke-linecap:square;stroke-width:1.5;"/>
    </g>
    <g id="line2d_34"/>
    <g id="text_21">
     <!-- l = 0.4 -->
     <g transform="translate(465.6 118.8)scale(0.12 -0.12)">
      <use xlink:href="#SimHei-108"/>
      <use x="50" xlink:href="#SimHei-32"/>
      <use x="100" xlink:href="#SimHei-61"/>
      <use x="150" xlink:href="#SimHei-32"/>
      <use x="200" xlink:href="#SimHei-48"/>
      <use x="250" xlink:href="#SimHei-46"/>
      <use x="300" xlink:href="#SimHei-52"/>
     </g>
    </g>
    <g id="line2d_35">
     <path d="M 432 130.5 
L 456 130.5 
" style="fill:none;stroke:#8c564b;stroke-linecap:square;stroke-width:1.5;"/>
    </g>
    <g id="line2d_36"/>
    <g id="text_22">
     <!-- l = 0.5 -->
     <g transform="translate(465.6 134.7)scale(0.12 -0.12)">
      <use xlink:href="#SimHei-108"/>
      <use x="50" xlink:href="#SimHei-32"/>
      <use x="100" xlink:href="#SimHei-61"/>
      <use x="150" xlink:href="#SimHei-32"/>
      <use x="200" xlink:href="#SimHei-48"/>
      <use x="250" xlink:href="#SimHei-46"/>
      <use x="300" xlink:href="#SimHei-53"/>
     </g>
    </g>
    <g id="line2d_37">
     <path d="M 432 146.4 
L 456 146.4 
" style="fill:none;stroke:#e377c2;stroke-linecap:square;stroke-width:1.5;"/>
    </g>
    <g id="line2d_38"/>
    <g id="text_23">
     <!-- l = 0.6 -->
     <g transform="translate(465.6 150.6)scale(0.12 -0.12)">
      <use xlink:href="#SimHei-108"/>
      <use x="50" xlink:href="#SimHei-32"/>
      <use x="100" xlink:href="#SimHei-61"/>
      <use x="150" xlink:href="#SimHei-32"/>
      <use x="200" xlink:href="#SimHei-48"/>
      <use x="250" xlink:href="#SimHei-46"/>
      <use x="300" xlink:href="#SimHei-54"/>
     </g>
    </g>
    <g id="line2d_39">
     <path d="M 432 162.3 
L 456 162.3 
" style="fill:none;stroke:#7f7f7f;stroke-linecap:square;stroke-width:1.5;"/>
    </g>
    <g id="line2d_40"/>
    <g id="text_24">
     <!-- l = 0.7 -->
     <g transform="translate(465.6 166.5)scale(0.12 -0.12)">
      <use xlink:href="#SimHei-108"/>
      <use x="50" xlink:href="#SimHei-32"/>
      <use x="100" xlink:href="#SimHei-61"/>
      <use x="150" xlink:href="#SimHei-32"/>
      <use x="200" xlink:href="#SimHei-48"/>
      <use x="250" xlink:href="#SimHei-46"/>
      <use x="300" xlink:href="#SimHei-55"/>
     </g>
    </g>
    <g id="line2d_41">
     <path d="M 432 178.2 
L 456 178.2 
" style="fill:none;stroke:#bcbd22;stroke-linecap:square;stroke-width:1.5;"/>
    </g>
    <g id="line2d_42"/>
    <g id="text_25">
     <!-- l = 0.8 -->
     <defs>
      <path d="M 2.734375 16.796875 
Q 2.734375 26.171875 5.078125 30.65625 
Q 7.421875 35.15625 12.890625 37.890625 
Q 8.203125 40.625 6.640625 43.9375 
Q 5.078125 47.265625 4.875 51.5625 
Q 4.6875 55.859375 6.046875 58.984375 
Q 7.421875 62.109375 10.15625 64.84375 
Q 12.890625 67.578125 16.203125 68.546875 
Q 19.53125 69.53125 23.4375 69.53125 
Q 27.34375 69.53125 30.46875 68.75 
Q 33.59375 67.96875 37.109375 65.421875 
Q 40.625 62.890625 42.1875 58.203125 
Q 43.75 53.515625 41.984375 47.265625 
Q 40.234375 41.015625 32.8125 37.5 
Q 39.453125 35.546875 42.1875 31.4375 
Q 44.921875 27.34375 44.921875 21.484375 
Q 44.921875 15.625 43.15625 12.109375 
Q 41.40625 8.59375 39.25 6.25 
Q 37.109375 3.90625 33.390625 2.53125 
Q 29.6875 1.171875 24.015625 1.171875 
Q 18.359375 1.171875 14.25 2.53125 
Q 10.15625 3.90625 7.421875 6.640625 
Q 4.6875 9.375 3.703125 13.078125 
Q 2.734375 16.796875 2.734375 26.171875 
z
M 10.9375 26.5625 
Q 10.546875 17.1875 12.296875 13.671875 
Q 14.0625 10.15625 18.75 9.171875 
Q 23.4375 8.203125 28.515625 9.375 
Q 33.59375 10.546875 35.546875 14.84375 
Q 37.5 19.140625 36.90625 23.4375 
Q 36.328125 27.734375 32.03125 30.65625 
Q 27.734375 33.59375 22.65625 33.203125 
Q 17.578125 32.8125 14.25 29.6875 
Q 10.9375 26.5625 10.546875 17.1875 
z
M 12.109375 56.25 
Q 12.109375 48.4375 14.84375 44.921875 
Q 17.578125 41.40625 23.4375 41.40625 
Q 29.296875 41.40625 32.21875 44.921875 
Q 35.15625 48.4375 34.953125 53.3125 
Q 34.765625 58.203125 31.4375 60.546875 
Q 28.125 62.890625 22.453125 62.5 
Q 16.796875 62.109375 14.453125 59.171875 
Q 12.109375 56.25 12.109375 48.4375 
z
" id="SimHei-56"/>
     </defs>
     <g transform="translate(465.6 182.4)scale(0.12 -0.12)">
      <use xlink:href="#SimHei-108"/>
      <use x="50" xlink:href="#SimHei-32"/>
      <use x="100" xlink:href="#SimHei-61"/>
      <use x="150" xlink:href="#SimHei-32"/>
      <use x="200" xlink:href="#SimHei-48"/>
      <use x="250" xlink:href="#SimHei-46"/>
      <use x="300" xlink:href="#SimHei-56"/>
     </g>
    </g>
    <g id="line2d_43">
     <path d="M 432 194.1 
L 456 194.1 
" style="fill:none;stroke:#17becf;stroke-linecap:square;stroke-width:1.5;"/>
    </g>
    <g id="line2d_44"/>
    <g id="text_26">
     <!-- l = 0.9 -->
     <defs>
      <path d="M 12.5 1.171875 
Q 21.09375 15.625 26.5625 27.34375 
Q 16.796875 25.78125 10.34375 29.875 
Q 3.90625 33.984375 2.53125 41.015625 
Q 1.171875 48.046875 2.734375 53.703125 
Q 4.296875 59.375 7.609375 63.078125 
Q 10.9375 66.796875 15.625 68.359375 
Q 20.3125 69.921875 24.015625 69.921875 
Q 27.734375 69.921875 31.640625 68.359375 
Q 35.546875 66.796875 38.671875 63.671875 
Q 41.796875 60.546875 42.96875 57.21875 
Q 44.140625 53.90625 44.140625 48.625 
Q 44.140625 43.359375 40.234375 35.15625 
Q 36.328125 26.953125 21.09375 1.171875 
z
M 9.765625 50 
Q 10.9375 39.84375 14.640625 36.515625 
Q 18.359375 33.203125 22.65625 33.59375 
Q 26.953125 33.984375 29.484375 35.9375 
Q 32.03125 37.890625 34.375 42.578125 
Q 35.9375 48.4375 35.15625 52.53125 
Q 34.375 56.640625 31.046875 59.375 
Q 27.734375 62.109375 23.828125 62.109375 
Q 21.484375 62.5 17.765625 60.9375 
Q 14.0625 59.375 11.90625 54.6875 
Q 9.765625 50 10.9375 39.84375 
z
" id="SimHei-57"/>
     </defs>
     <g transform="translate(465.6 198.3)scale(0.12 -0.12)">
      <use xlink:href="#SimHei-108"/>
      <use x="50" xlink:href="#SimHei-32"/>
      <use x="100" xlink:href="#SimHei-61"/>
      <use x="150" xlink:href="#SimHei-32"/>
      <use x="200" xlink:href="#SimHei-48"/>
      <use x="250" xlink:href="#SimHei-46"/>
      <use x="300" xlink:href="#SimHei-57"/>
     </g>
    </g>
    <g id="line2d_45">
     <path d="M 432 210 
L 456 210 
" style="fill:none;stroke:#1f77b4;stroke-linecap:square;stroke-width:1.5;"/>
    </g>
    <g id="line2d_46"/>
    <g id="text_27">
     <!-- l = 1.0 -->
     <g transform="translate(465.6 214.2)scale(0.12 -0.12)">
      <use xlink:href="#SimHei-108"/>
      <use x="50" xlink:href="#SimHei-32"/>
      <use x="100" xlink:href="#SimHei-61"/>
      <use x="150" xlink:href="#SimHei-32"/>
      <use x="200" xlink:href="#SimHei-49"/>
      <use x="250" xlink:href="#SimHei-46"/>
      <use x="300" xlink:href="#SimHei-48"/>
     </g>
    </g>
   </g>
  </g>
 </g>
 <defs>
  <clipPath id="p549bc0d47b">
   <rect height="270" width="449.28" x="69.12" y="36"/>
  </clipPath>
 </defs>
</svg>
