<?xml version="1.0" encoding="utf-8" standalone="no"?>
<!DOCTYPE svg PUBLIC "-//W3C//DTD SVG 1.1//EN"
  "http://www.w3.org/Graphics/SVG/1.1/DTD/svg11.dtd">
<!-- Created with matplotlib (https://matplotlib.org/) -->
<svg height="360pt" version="1.1" viewBox="0 0 576 360" width="576pt" xmlns="http://www.w3.org/2000/svg" xmlns:xlink="http://www.w3.org/1999/xlink">
 <defs>
  <style type="text/css">
*{stroke-linecap:butt;stroke-linejoin:round;}
  </style>
 </defs>
 <g id="figure_1">
  <g id="patch_1">
   <path d="M 0 360 
L 576 360 
L 576 0 
L 0 0 
z
" style="fill:#ffffff;"/>
  </g>
  <g id="axes_1">
   <g id="patch_2">
    <path d="M 69.12 306 
L 518.4 306 
L 518.4 36 
L 69.12 36 
z
" style="fill:#ffffff;"/>
   </g>
   <g id="matplotlib.axis_1">
    <g id="xtick_1">
     <g id="line2d_1">
      <defs>
       <path d="M 0 0 
L 0 3.5 
" id="m51aeb7b998" style="stroke:#000000;stroke-width:0.8;"/>
      </defs>
      <g>
       <use style="stroke:#000000;stroke-width:0.8;" x="89.541818" xlink:href="#m51aeb7b998" y="306"/>
      </g>
     </g>
     <g id="text_1">
      <!-- 0 -->
      <defs>
       <path d="M 3.125 29.296875 
Q 3.90625 50 6.4375 56.046875 
Q 8.984375 62.109375 13.671875 66.015625 
Q 18.359375 69.921875 25.1875 69.921875 
Q 32.03125 69.921875 37.109375 64.25 
Q 42.1875 58.59375 43.75 50 
Q 45.3125 41.40625 44.71875 30.265625 
Q 44.140625 19.140625 40.8125 12.109375 
Q 37.5 5.078125 30.859375 2.34375 
Q 24.21875 -0.390625 17.578125 2.921875 
Q 10.9375 6.25 8.203125 11.71875 
Q 5.46875 17.1875 4.296875 23.234375 
Q 3.125 29.296875 3.90625 50 
z
M 12.890625 52.734375 
Q 10.546875 31.25 12.5 22.84375 
Q 14.453125 14.453125 18.9375 10.9375 
Q 23.4375 7.421875 28.125 9.5625 
Q 32.8125 11.71875 34.953125 18.15625 
Q 37.109375 24.609375 37.109375 32.21875 
Q 37.109375 39.84375 36.515625 46.09375 
Q 35.9375 52.34375 33 57.421875 
Q 30.078125 62.5 25.1875 62.6875 
Q 20.3125 62.890625 16.59375 57.8125 
Q 12.890625 52.734375 10.546875 31.25 
z
" id="SimHei-48"/>
      </defs>
      <g transform="translate(85.041818 325.375)scale(0.18 -0.18)">
       <use xlink:href="#SimHei-48"/>
      </g>
     </g>
    </g>
    <g id="xtick_2">
     <g id="line2d_2">
      <g>
       <use style="stroke:#000000;stroke-width:0.8;" x="171.392793" xlink:href="#m51aeb7b998" y="306"/>
      </g>
     </g>
     <g id="text_2">
      <!-- 100 -->
      <defs>
       <path d="M 21.875 56.25 
Q 16.796875 51.171875 8.984375 46.484375 
L 8.984375 53.90625 
Q 18.75 60.546875 25 69.53125 
L 29.6875 69.53125 
L 29.6875 2.34375 
L 21.875 2.34375 
z
" id="SimHei-49"/>
      </defs>
      <g transform="translate(157.892793 325.375)scale(0.18 -0.18)">
       <use xlink:href="#SimHei-49"/>
       <use x="50" xlink:href="#SimHei-48"/>
       <use x="100" xlink:href="#SimHei-48"/>
      </g>
     </g>
    </g>
    <g id="xtick_3">
     <g id="line2d_3">
      <g>
       <use style="stroke:#000000;stroke-width:0.8;" x="253.243768" xlink:href="#m51aeb7b998" y="306"/>
      </g>
     </g>
     <g id="text_3">
      <!-- 200 -->
      <defs>
       <path d="M 4.6875 3.90625 
Q 5.078125 9.765625 10.15625 14.453125 
Q 15.234375 19.140625 23.046875 29.09375 
Q 30.859375 39.0625 33.203125 44.53125 
Q 35.546875 50 34.953125 53.90625 
Q 34.375 57.8125 31.25 60.34375 
Q 28.125 62.890625 24.015625 62.5 
Q 19.921875 62.109375 16.203125 59.375 
Q 12.5 56.640625 10.546875 51.171875 
L 3.125 52.34375 
Q 6.25 61.328125 11.125 65.421875 
Q 16.015625 69.53125 22.65625 69.921875 
Q 26.5625 70.3125 29.6875 69.71875 
Q 32.8125 69.140625 36.125 66.984375 
Q 39.453125 64.84375 41.59375 60.546875 
Q 43.75 56.25 43.15625 50.1875 
Q 42.578125 44.140625 37.109375 35.734375 
Q 31.640625 27.34375 16.015625 9.375 
L 44.140625 9.375 
L 44.140625 2.34375 
L 4.6875 2.34375 
z
" id="SimHei-50"/>
      </defs>
      <g transform="translate(239.743768 325.375)scale(0.18 -0.18)">
       <use xlink:href="#SimHei-50"/>
       <use x="50" xlink:href="#SimHei-48"/>
       <use x="100" xlink:href="#SimHei-48"/>
      </g>
     </g>
    </g>
    <g id="xtick_4">
     <g id="line2d_4">
      <g>
       <use style="stroke:#000000;stroke-width:0.8;" x="335.094742" xlink:href="#m51aeb7b998" y="306"/>
      </g>
     </g>
     <g id="text_4">
      <!-- 300 -->
      <defs>
       <path d="M 3.90625 19.140625 
L 10.9375 20.3125 
Q 12.5 15.234375 16.015625 11.90625 
Q 19.53125 8.59375 24.796875 8.78125 
Q 30.078125 8.984375 33.203125 13.078125 
Q 36.328125 17.1875 35.9375 22.453125 
Q 35.546875 27.734375 31.828125 30.65625 
Q 28.125 33.59375 19.921875 34.765625 
L 19.921875 39.84375 
Q 28.125 40.625 31.828125 44.140625 
Q 35.546875 47.65625 35.15625 53.3125 
Q 34.765625 58.984375 30.078125 61.515625 
Q 25.390625 64.0625 20.109375 62.109375 
Q 14.84375 60.15625 11.71875 51.171875 
L 4.6875 52.34375 
Q 7.03125 59.375 11.125 64.0625 
Q 15.234375 68.75 22.265625 69.53125 
Q 29.296875 70.3125 34.5625 67.765625 
Q 39.84375 65.234375 41.984375 59.953125 
Q 44.140625 54.6875 42.578125 48.4375 
Q 41.015625 42.1875 33.59375 37.5 
Q 39.0625 35.15625 41.984375 30.46875 
Q 44.921875 25.78125 43.9375 18.15625 
Q 42.96875 10.546875 37.109375 5.859375 
Q 31.25 1.171875 23.828125 1.359375 
Q 16.40625 1.5625 10.9375 6.046875 
Q 5.46875 10.546875 3.90625 19.140625 
z
" id="SimHei-51"/>
      </defs>
      <g transform="translate(321.594742 325.375)scale(0.18 -0.18)">
       <use xlink:href="#SimHei-51"/>
       <use x="50" xlink:href="#SimHei-48"/>
       <use x="100" xlink:href="#SimHei-48"/>
      </g>
     </g>
    </g>
    <g id="xtick_5">
     <g id="line2d_5">
      <g>
       <use style="stroke:#000000;stroke-width:0.8;" x="416.945717" xlink:href="#m51aeb7b998" y="306"/>
      </g>
     </g>
     <g id="text_5">
      <!-- 400 -->
      <defs>
       <path d="M 31.25 17.1875 
L 1.171875 17.1875 
L 1.171875 23.828125 
L 32.8125 69.53125 
L 38.671875 69.53125 
L 38.671875 23.828125 
L 48.046875 23.828125 
L 48.046875 17.1875 
L 38.671875 17.1875 
L 38.671875 2.34375 
L 31.25 2.34375 
z
M 31.25 23.828125 
L 31.25 54.6875 
L 9.375 23.828125 
z
" id="SimHei-52"/>
      </defs>
      <g transform="translate(403.445717 325.375)scale(0.18 -0.18)">
       <use xlink:href="#SimHei-52"/>
       <use x="50" xlink:href="#SimHei-48"/>
       <use x="100" xlink:href="#SimHei-48"/>
      </g>
     </g>
    </g>
    <g id="xtick_6">
     <g id="line2d_6">
      <g>
       <use style="stroke:#000000;stroke-width:0.8;" x="498.796692" xlink:href="#m51aeb7b998" y="306"/>
      </g>
     </g>
     <g id="text_6">
      <!-- 500 -->
      <defs>
       <path d="M 8.59375 20.703125 
Q 11.328125 10.15625 17.96875 8.984375 
Q 24.609375 7.8125 28.703125 10.34375 
Q 32.8125 12.890625 34.5625 16.984375 
Q 36.328125 21.09375 36.125 26.171875 
Q 35.9375 31.25 33.390625 34.765625 
Q 30.859375 38.28125 26.953125 39.453125 
Q 23.046875 40.625 18.15625 39.453125 
Q 13.28125 38.28125 10.15625 33.984375 
L 3.515625 34.765625 
Q 4.296875 37.109375 10.9375 68.359375 
L 41.796875 68.359375 
L 41.796875 61.328125 
L 16.796875 61.328125 
Q 14.84375 50.78125 12.890625 44.53125 
Q 18.75 47.265625 23.828125 47.0625 
Q 28.90625 46.875 33.59375 44.71875 
Q 38.28125 42.578125 40.421875 38.859375 
Q 42.578125 35.15625 43.546875 31.4375 
Q 44.53125 27.734375 44.328125 23.4375 
Q 44.140625 19.140625 42.578125 14.640625 
Q 41.015625 10.15625 37.890625 7.21875 
Q 34.765625 4.296875 30.265625 2.53125 
Q 25.78125 0.78125 19.921875 1.171875 
Q 14.0625 1.5625 8.78125 5.46875 
Q 3.515625 9.375 1.5625 18.75 
z
" id="SimHei-53"/>
      </defs>
      <g transform="translate(485.296692 325.375)scale(0.18 -0.18)">
       <use xlink:href="#SimHei-53"/>
       <use x="50" xlink:href="#SimHei-48"/>
       <use x="100" xlink:href="#SimHei-48"/>
      </g>
     </g>
    </g>
    <g id="text_7">
     <!-- 时间（天） -->
     <defs>
      <path d="M 39.453125 71.484375 
Q 39.0625 57.421875 39.0625 37.5 
Q 39.0625 17.578125 39.453125 6.25 
L 31.25 6.25 
L 31.25 13.671875 
L 15.625 13.671875 
L 15.625 0.78125 
L 7.421875 0.78125 
Q 7.8125 18.75 7.8125 36.71875 
Q 7.8125 55.078125 7.421875 71.484375 
L 39.453125 71.484375 
z
M 76.171875 59.765625 
Q 76.171875 71.484375 75.78125 81.640625 
L 84.375 81.640625 
Q 83.984375 71.484375 83.984375 59.765625 
Q 89.84375 59.765625 96.484375 60.15625 
L 96.484375 52.734375 
Q 89.84375 53.125 83.984375 53.125 
L 83.984375 0.78125 
Q 83.984375 -5.078125 79.296875 -6.640625 
Q 74.609375 -8.203125 67.1875 -8.984375 
Q 67.1875 -4.296875 62.890625 0 
Q 70.3125 -0.78125 73.234375 -0.390625 
Q 76.171875 0 76.171875 4.6875 
L 76.171875 53.125 
Q 56.640625 53.125 43.359375 52.734375 
L 43.359375 60.15625 
Q 55.859375 59.765625 76.171875 59.765625 
z
M 31.25 20.3125 
L 31.25 39.84375 
L 15.625 39.84375 
L 15.625 20.3125 
z
M 31.25 46.484375 
L 31.25 64.84375 
L 15.625 64.84375 
L 15.625 46.484375 
z
M 55.46875 42.578125 
Q 60.546875 34.375 65.234375 25 
Q 61.328125 23.828125 57.03125 21.484375 
Q 53.90625 30.859375 48.046875 39.0625 
Q 51.5625 40.625 55.46875 42.578125 
z
" id="SimHei-26102"/>
      <path d="M 69.53125 55.46875 
Q 69.140625 48.046875 69.140625 42.578125 
L 69.140625 21.875 
Q 69.140625 16.796875 69.53125 9.765625 
L 30.078125 9.765625 
Q 30.46875 16.796875 30.46875 22.265625 
L 30.46875 42.578125 
Q 30.46875 48.046875 30.078125 55.46875 
L 69.53125 55.46875 
z
M 90.625 76.171875 
Q 90.234375 68.75 90.234375 61.328125 
L 90.234375 3.90625 
Q 90.625 -5.078125 85.34375 -7.03125 
Q 80.078125 -8.984375 73.828125 -9.765625 
Q 73.4375 -5.078125 70.703125 -0.390625 
Q 78.125 -0.78125 80.265625 0.390625 
Q 82.421875 1.5625 82.421875 5.46875 
L 82.421875 69.53125 
L 58.984375 69.53125 
Q 49.609375 69.53125 41.40625 69.140625 
L 41.40625 76.5625 
Q 49.609375 76.171875 58.984375 76.171875 
z
M 8.59375 -8.203125 
Q 9.375 -0.390625 9.375 8.203125 
L 9.375 49.21875 
Q 9.375 57.421875 8.59375 62.890625 
L 17.578125 62.890625 
Q 17.1875 57.03125 17.1875 51.5625 
L 17.1875 7.8125 
Q 17.1875 0 17.578125 -8.203125 
z
M 61.71875 16.015625 
L 61.71875 30.46875 
L 37.890625 30.46875 
L 37.890625 16.015625 
z
M 61.71875 36.71875 
L 61.71875 49.21875 
L 37.890625 49.21875 
L 37.890625 36.71875 
z
M 23.828125 82.8125 
Q 27.34375 78.125 34.765625 67.96875 
Q 30.46875 66.015625 26.5625 63.671875 
Q 22.65625 71.484375 16.796875 78.515625 
Q 21.09375 81.640625 23.828125 82.8125 
z
" id="SimHei-38388"/>
      <path d="M 84.765625 79.6875 
L 89.0625 74.609375 
Q 66.796875 58.203125 67.578125 36.71875 
Q 67.96875 16.015625 88.671875 0.78125 
L 84.375 -4.296875 
Q 60.546875 12.890625 61.328125 39.0625 
Q 61.328125 60.546875 84.765625 79.6875 
z
" id="SimHei-65288"/>
      <path d="M 69.921875 76.5625 
Q 76.953125 76.5625 83.984375 76.953125 
L 83.984375 68.75 
Q 76.953125 69.140625 69.921875 69.140625 
L 53.90625 69.140625 
L 53.90625 48.046875 
L 78.90625 48.046875 
Q 86.328125 48.046875 92.1875 48.4375 
L 92.1875 40.234375 
Q 86.71875 40.625 79.296875 40.625 
L 55.078125 40.625 
Q 60.546875 25.78125 70.703125 15.234375 
Q 80.859375 4.6875 96.875 0.78125 
Q 91.40625 -3.515625 90.234375 -7.03125 
Q 78.125 -2.734375 67.96875 6.4375 
Q 57.8125 15.625 50.390625 32.8125 
Q 45.703125 16.796875 35.546875 7.21875 
Q 25.390625 -2.34375 10.15625 -8.984375 
Q 8.59375 -5.078125 3.515625 -1.5625 
Q 14.84375 1.5625 27.34375 11.515625 
Q 39.84375 21.484375 44.921875 40.625 
L 23.4375 40.625 
Q 14.84375 40.625 8.984375 40.234375 
L 8.984375 48.4375 
Q 15.234375 48.046875 23.4375 48.046875 
L 46.09375 48.046875 
L 46.09375 69.140625 
L 29.6875 69.140625 
Q 21.484375 69.140625 15.625 68.75 
L 15.625 76.953125 
Q 21.875 76.5625 29.6875 76.5625 
z
" id="SimHei-22825"/>
      <path d="M 15.625 79.6875 
Q 39.0625 60.546875 39.0625 39.0625 
Q 39.84375 12.890625 16.015625 -4.296875 
L 11.71875 0.78125 
Q 32.421875 16.015625 32.8125 36.71875 
Q 33.59375 58.203125 11.328125 74.609375 
L 15.625 79.6875 
z
" id="SimHei-65289"/>
     </defs>
     <g transform="translate(243.76 353.640625)scale(0.2 -0.2)">
      <use xlink:href="#SimHei-26102"/>
      <use x="100" xlink:href="#SimHei-38388"/>
      <use x="200" xlink:href="#SimHei-65288"/>
      <use x="300" xlink:href="#SimHei-22825"/>
      <use x="400" xlink:href="#SimHei-65289"/>
     </g>
    </g>
   </g>
   <g id="matplotlib.axis_2">
    <g id="ytick_1">
     <g id="line2d_7">
      <defs>
       <path d="M 0 0 
L -3.5 0 
" id="mf92b5ffcd5" style="stroke:#000000;stroke-width:0.8;"/>
      </defs>
      <g>
       <use style="stroke:#000000;stroke-width:0.8;" x="69.12" xlink:href="#mf92b5ffcd5" y="293.727273"/>
      </g>
     </g>
     <g id="text_8">
      <!-- 0 -->
      <g transform="translate(53.12 299.914773)scale(0.18 -0.18)">
       <use xlink:href="#SimHei-48"/>
      </g>
     </g>
    </g>
    <g id="ytick_2">
     <g id="line2d_8">
      <g>
       <use style="stroke:#000000;stroke-width:0.8;" x="69.12" xlink:href="#mf92b5ffcd5" y="232.585663"/>
      </g>
     </g>
     <g id="text_9">
      <!-- 2 -->
      <g transform="translate(53.12 238.773163)scale(0.18 -0.18)">
       <use xlink:href="#SimHei-50"/>
      </g>
     </g>
    </g>
    <g id="ytick_3">
     <g id="line2d_9">
      <g>
       <use style="stroke:#000000;stroke-width:0.8;" x="69.12" xlink:href="#mf92b5ffcd5" y="171.444053"/>
      </g>
     </g>
     <g id="text_10">
      <!-- 4 -->
      <g transform="translate(53.12 177.631553)scale(0.18 -0.18)">
       <use xlink:href="#SimHei-52"/>
      </g>
     </g>
    </g>
    <g id="ytick_4">
     <g id="line2d_10">
      <g>
       <use style="stroke:#000000;stroke-width:0.8;" x="69.12" xlink:href="#mf92b5ffcd5" y="110.302444"/>
      </g>
     </g>
     <g id="text_11">
      <!-- 6 -->
      <defs>
       <path d="M 3.515625 19.53125 
Q 4.296875 30.859375 6.046875 34.765625 
Q 7.8125 38.671875 11.328125 44.53125 
L 27.34375 69.53125 
L 36.328125 69.53125 
L 19.921875 43.75 
Q 30.46875 46.484375 36.71875 42.96875 
Q 42.96875 39.453125 45.109375 34.953125 
Q 47.265625 30.46875 47.453125 25.1875 
Q 47.65625 19.921875 45.890625 14.84375 
Q 44.140625 9.765625 39.640625 5.65625 
Q 35.15625 1.5625 27.140625 1.171875 
Q 19.140625 0.78125 13.46875 4.09375 
Q 7.8125 7.421875 5.65625 13.46875 
Q 3.515625 19.53125 4.296875 30.859375 
z
M 12.5 16.015625 
Q 19.53125 8.59375 25.390625 8.203125 
Q 31.25 7.8125 35.15625 12.109375 
Q 39.0625 16.40625 39.0625 24.609375 
Q 39.0625 32.8125 34.171875 35.9375 
Q 29.296875 39.0625 23.234375 38.28125 
Q 17.1875 37.5 14.453125 32.421875 
Q 11.71875 27.34375 12.109375 21.671875 
Q 12.5 16.015625 19.53125 8.59375 
z
" id="SimHei-54"/>
      </defs>
      <g transform="translate(53.12 116.489944)scale(0.18 -0.18)">
       <use xlink:href="#SimHei-54"/>
      </g>
     </g>
    </g>
    <g id="ytick_5">
     <g id="line2d_11">
      <g>
       <use style="stroke:#000000;stroke-width:0.8;" x="69.12" xlink:href="#mf92b5ffcd5" y="49.160834"/>
      </g>
     </g>
     <g id="text_12">
      <!-- 8 -->
      <defs>
       <path d="M 2.734375 16.796875 
Q 2.734375 26.171875 5.078125 30.65625 
Q 7.421875 35.15625 12.890625 37.890625 
Q 8.203125 40.625 6.640625 43.9375 
Q 5.078125 47.265625 4.875 51.5625 
Q 4.6875 55.859375 6.046875 58.984375 
Q 7.421875 62.109375 10.15625 64.84375 
Q 12.890625 67.578125 16.203125 68.546875 
Q 19.53125 69.53125 23.4375 69.53125 
Q 27.34375 69.53125 30.46875 68.75 
Q 33.59375 67.96875 37.109375 65.421875 
Q 40.625 62.890625 42.1875 58.203125 
Q 43.75 53.515625 41.984375 47.265625 
Q 40.234375 41.015625 32.8125 37.5 
Q 39.453125 35.546875 42.1875 31.4375 
Q 44.921875 27.34375 44.921875 21.484375 
Q 44.921875 15.625 43.15625 12.109375 
Q 41.40625 8.59375 39.25 6.25 
Q 37.109375 3.90625 33.390625 2.53125 
Q 29.6875 1.171875 24.015625 1.171875 
Q 18.359375 1.171875 14.25 2.53125 
Q 10.15625 3.90625 7.421875 6.640625 
Q 4.6875 9.375 3.703125 13.078125 
Q 2.734375 16.796875 2.734375 26.171875 
z
M 10.9375 26.5625 
Q 10.546875 17.1875 12.296875 13.671875 
Q 14.0625 10.15625 18.75 9.171875 
Q 23.4375 8.203125 28.515625 9.375 
Q 33.59375 10.546875 35.546875 14.84375 
Q 37.5 19.140625 36.90625 23.4375 
Q 36.328125 27.734375 32.03125 30.65625 
Q 27.734375 33.59375 22.65625 33.203125 
Q 17.578125 32.8125 14.25 29.6875 
Q 10.9375 26.5625 10.546875 17.1875 
z
M 12.109375 56.25 
Q 12.109375 48.4375 14.84375 44.921875 
Q 17.578125 41.40625 23.4375 41.40625 
Q 29.296875 41.40625 32.21875 44.921875 
Q 35.15625 48.4375 34.953125 53.3125 
Q 34.765625 58.203125 31.4375 60.546875 
Q 28.125 62.890625 22.453125 62.5 
Q 16.796875 62.109375 14.453125 59.171875 
Q 12.109375 56.25 12.109375 48.4375 
z
" id="SimHei-56"/>
      </defs>
      <g transform="translate(53.12 55.348334)scale(0.18 -0.18)">
       <use xlink:href="#SimHei-56"/>
      </g>
     </g>
    </g>
    <g id="text_13">
     <!-- 感染者数量（%） -->
     <defs>
      <path d="M 95.703125 29.6875 
Q 92.1875 18.75 89.453125 17.375 
Q 86.71875 16.015625 81.828125 17.765625 
Q 76.953125 19.53125 69.140625 26.5625 
Q 64.453125 21.484375 58.203125 17.1875 
Q 55.46875 20.3125 52.34375 21.875 
Q 60.546875 26.5625 65.234375 32.03125 
Q 60.9375 39.0625 58.78125 47.453125 
Q 56.640625 55.859375 55.859375 63.28125 
L 20.703125 63.28125 
Q 20.703125 45.703125 20.109375 39.453125 
Q 19.53125 33.203125 17.578125 27.734375 
Q 15.625 22.265625 11.71875 16.015625 
Q 7.03125 19.140625 4.296875 19.921875 
Q 8.984375 25.78125 11.125 31.4375 
Q 13.28125 37.109375 13.671875 44.53125 
Q 14.0625 51.953125 13.671875 69.53125 
L 55.078125 69.53125 
Q 55.078125 72.65625 54.6875 80.859375 
Q 58.203125 80.078125 62.890625 79.6875 
Q 62.109375 75 62.5 69.53125 
L 79.6875 69.53125 
Q 85.15625 69.53125 92.578125 69.921875 
L 92.578125 62.890625 
Q 85.15625 63.28125 80.078125 63.28125 
L 62.890625 63.28125 
Q 64.453125 46.875 69.53125 38.671875 
Q 71.875 42.578125 73.828125 48.234375 
Q 75.78125 53.90625 76.953125 58.984375 
Q 80.859375 57.421875 85.15625 56.25 
Q 83.59375 54.6875 81.046875 47.65625 
Q 78.515625 40.625 73.828125 32.03125 
Q 78.125 28.125 81.4375 26.171875 
Q 84.765625 24.21875 85.734375 25.390625 
Q 86.71875 26.5625 88.28125 33.59375 
Q 91.40625 30.859375 95.703125 29.6875 
z
M 51.953125 25 
L 24.609375 25 
L 24.609375 44.921875 
L 51.953125 44.921875 
z
M 76.171875 2.734375 
Q 73.4375 -5.078125 71.484375 -6.4375 
Q 69.53125 -7.8125 66.40625 -7.8125 
L 36.71875 -7.8125 
Q 31.640625 -7.421875 30.65625 -3.125 
Q 29.6875 1.171875 29.6875 5.078125 
Q 29.6875 8.984375 29.296875 14.453125 
L 37.5 14.453125 
Q 37.109375 7.8125 37.109375 5.078125 
Q 37.109375 2.734375 37.5 0.390625 
Q 37.890625 -1.953125 42.578125 -1.5625 
L 60.546875 -1.5625 
Q 64.453125 -1.5625 65.8125 -0.1875 
Q 67.1875 1.171875 67.96875 7.03125 
Q 71.09375 4.6875 76.171875 2.734375 
z
M 51.5625 51.171875 
L 25 51.171875 
L 25 57.03125 
L 51.5625 57.03125 
z
M 83.59375 14.0625 
Q 92.1875 3.515625 94.921875 -0.78125 
Q 91.015625 -3.125 87.890625 -5.46875 
Q 83.984375 1.953125 77.34375 9.375 
Q 80.078125 11.328125 83.59375 14.0625 
z
M 7.421875 -2.734375 
Q 10.9375 1.5625 15.234375 14.453125 
Q 18.359375 12.890625 22.65625 11.328125 
Q 17.578125 -0.390625 14.84375 -5.859375 
Q 11.71875 -4.296875 7.421875 -2.734375 
z
M 45.703125 30.46875 
L 45.703125 39.453125 
L 30.859375 39.453125 
L 30.859375 30.46875 
z
M 42.578125 16.40625 
Q 44.921875 18.359375 48.4375 20.703125 
Q 55.078125 12.109375 57.03125 8.59375 
Q 53.90625 6.640625 51.171875 3.90625 
Q 48.828125 8.203125 42.578125 16.40625 
z
M 76.5625 70.3125 
Q 74.21875 72.265625 67.96875 76.5625 
Q 70.3125 79.296875 71.875 81.640625 
Q 74.609375 80.078125 81.25 75 
Q 78.90625 73.046875 76.5625 70.3125 
z
" id="SimHei-24863"/>
      <path d="M 91.015625 -7.03125 
Q 74.21875 -2.34375 66.40625 3.90625 
Q 58.59375 10.15625 53.90625 17.96875 
Q 53.90625 -4.6875 54.296875 -9.375 
L 46.09375 -9.375 
Q 46.484375 -4.296875 46.484375 16.796875 
Q 40.625 8.59375 31.4375 2.34375 
Q 22.265625 -3.90625 9.765625 -8.984375 
Q 8.59375 -5.078125 3.125 -1.5625 
Q 16.796875 1.5625 25.96875 7.609375 
Q 35.15625 13.671875 38.671875 19.140625 
L 19.140625 19.140625 
Q 13.671875 19.140625 6.25 18.75 
L 6.25 25.78125 
Q 13.671875 25.390625 19.140625 25.390625 
L 46.484375 25.390625 
Q 46.484375 28.515625 46.09375 33.59375 
L 54.296875 33.59375 
Q 53.90625 28.90625 53.90625 25.390625 
L 82.8125 25.390625 
Q 87.890625 25.390625 93.75 25.78125 
L 93.75 18.75 
Q 87.890625 19.140625 82.8125 19.140625 
L 61.71875 19.140625 
Q 67.96875 10.546875 78.125 6.25 
Q 88.28125 1.953125 96.484375 1.171875 
Q 91.40625 -3.90625 91.015625 -7.03125 
z
M 28.515625 35.9375 
Q 39.84375 40.234375 45.703125 47.0625 
Q 51.5625 53.90625 53.125 62.5 
Q 47.265625 62.5 40.234375 62.109375 
L 40.234375 69.140625 
Q 47.65625 68.75 53.515625 68.75 
Q 53.90625 76.953125 53.515625 82.03125 
Q 58.203125 80.859375 62.5 80.859375 
Q 61.328125 78.515625 60.9375 68.75 
L 80.078125 68.75 
Q 79.6875 64.84375 79.296875 60.15625 
L 78.125 44.53125 
Q 78.515625 40.625 80.859375 40.625 
L 85.15625 40.625 
Q 87.109375 40.625 87.6875 42.1875 
Q 88.28125 43.75 88.671875 50 
Q 91.796875 47.265625 96.875 46.875 
Q 95.3125 36.328125 92.375 35.34375 
Q 89.453125 34.375 84.171875 34.171875 
Q 78.90625 33.984375 74.796875 34.953125 
Q 70.703125 35.9375 71.09375 42.1875 
L 72.265625 62.5 
L 60.546875 62.5 
Q 59.375 53.515625 54.296875 45.890625 
Q 49.21875 38.28125 35.546875 30.078125 
Q 33.984375 32.8125 28.515625 35.9375 
z
M 33.984375 45.703125 
Q 19.140625 33.984375 13.28125 29.296875 
Q 10.9375 33.203125 7.8125 35.9375 
Q 17.1875 40.625 31.25 52.734375 
Q 32.03125 49.609375 33.984375 45.703125 
z
M 10.546875 64.84375 
Q 21.484375 59.765625 27.34375 56.25 
Q 24.609375 52.734375 23.046875 49.609375 
Q 19.140625 53.125 7.03125 58.59375 
Q 9.375 61.328125 10.546875 64.84375 
z
M 28.90625 64.84375 
Q 23.046875 69.921875 14.0625 74.609375 
Q 16.015625 76.953125 18.359375 80.078125 
Q 27.34375 75 33.984375 71.09375 
Q 30.46875 67.578125 28.90625 64.84375 
z
" id="SimHei-26579"/>
      <path d="M 88.28125 67.578125 
Q 85.15625 64.84375 81.046875 60.546875 
Q 76.953125 56.25 69.53125 48.828125 
L 80.46875 48.828125 
Q 87.109375 48.828125 94.140625 49.21875 
L 94.140625 42.1875 
Q 87.109375 42.578125 80.078125 42.578125 
L 61.71875 42.578125 
Q 55.46875 37.890625 47.65625 32.421875 
L 80.859375 32.421875 
Q 80.46875 25.390625 80.46875 19.53125 
L 80.46875 5.859375 
Q 80.46875 -1.171875 80.859375 -9.375 
L 73.046875 -9.375 
L 73.046875 -3.515625 
L 35.546875 -3.515625 
L 35.546875 -9.375 
L 27.34375 -9.375 
Q 27.734375 -3.125 27.734375 2.34375 
L 27.734375 20.3125 
Q 19.921875 16.015625 10.15625 11.71875 
Q 6.25 17.1875 4.6875 18.359375 
Q 7.421875 19.140625 15.03125 22.0625 
Q 22.65625 25 27.734375 28.515625 
L 27.734375 32.421875 
L 35.15625 32.421875 
Q 43.75 37.109375 50.390625 42.578125 
L 22.65625 42.578125 
Q 14.453125 42.578125 7.421875 42.1875 
L 7.421875 49.21875 
Q 15.234375 48.828125 22.65625 48.828125 
L 43.359375 48.828125 
L 43.359375 60.9375 
L 31.640625 60.9375 
Q 25 60.9375 19.53125 60.546875 
L 19.53125 67.578125 
Q 25 67.1875 31.640625 67.1875 
L 43.359375 67.1875 
Q 43.359375 73.046875 42.96875 80.46875 
L 51.5625 80.46875 
Q 51.171875 75 51.171875 67.1875 
L 57.03125 67.1875 
Q 62.109375 67.1875 68.75 67.578125 
L 68.75 60.546875 
Q 62.109375 60.9375 57.03125 60.9375 
L 51.171875 60.9375 
L 51.171875 48.828125 
L 58.984375 48.828125 
Q 64.453125 53.125 69.921875 58.984375 
Q 75.390625 64.84375 81.25 73.828125 
Q 85.546875 69.53125 88.28125 67.578125 
z
M 73.046875 2.734375 
L 73.046875 11.71875 
L 35.546875 11.71875 
L 35.546875 2.734375 
z
M 73.046875 17.96875 
L 73.046875 26.171875 
L 35.546875 26.171875 
L 35.546875 17.96875 
z
" id="SimHei-32773"/>
      <path d="M 70.703125 76.953125 
Q 69.921875 75 68.75 71.671875 
Q 67.578125 68.359375 65.234375 59.765625 
L 83.203125 59.765625 
Q 87.109375 59.765625 92.578125 60.15625 
L 92.578125 53.125 
Q 88.28125 53.515625 85.9375 53.515625 
Q 85.9375 47.265625 83.78125 33.78125 
Q 81.640625 20.3125 76.171875 10.546875 
Q 80.078125 5.859375 84.953125 2.140625 
Q 89.84375 -1.5625 94.140625 -3.125 
Q 89.453125 -6.640625 87.890625 -9.765625 
Q 83.203125 -7.03125 79.296875 -3.515625 
Q 75.390625 0 71.484375 5.078125 
Q 67.1875 0.390625 62.296875 -2.921875 
Q 57.421875 -6.25 50 -10.15625 
Q 48.046875 -6.640625 44.53125 -4.6875 
Q 50.390625 -2.34375 57.03125 1.953125 
Q 63.671875 6.25 67.1875 10.546875 
Q 64.453125 16.015625 61.90625 22.265625 
Q 59.375 28.515625 57.421875 38.671875 
Q 56.25 35.546875 53.515625 30.46875 
Q 50.78125 32.03125 46.875 33.59375 
Q 53.125 44.53125 57.03125 57.421875 
Q 60.9375 70.3125 62.109375 79.6875 
Q 66.796875 77.734375 70.703125 76.953125 
z
M 32.8125 35.15625 
Q 31.25 33.59375 29.296875 30.078125 
L 50.78125 30.078125 
Q 48.4375 20.3125 42.578125 10.546875 
Q 48.828125 8.203125 52.34375 6.25 
Q 50.390625 3.515625 48.828125 0.390625 
Q 45.3125 2.734375 38.28125 5.078125 
Q 30.46875 -3.515625 11.328125 -10.15625 
Q 9.375 -5.859375 6.25 -4.296875 
Q 24.609375 0 31.25 7.421875 
Q 20.3125 10.15625 13.28125 12.109375 
Q 15.625 15.625 19.53125 23.828125 
Q 15.625 23.828125 6.640625 23.4375 
L 6.640625 30.46875 
Q 14.0625 30.078125 21.875 30.078125 
Q 23.4375 33.59375 24.21875 37.890625 
Q 28.515625 36.328125 32.8125 35.15625 
z
M 27.734375 61.71875 
Q 27.734375 71.09375 27.34375 79.6875 
L 35.15625 79.6875 
Q 34.765625 71.484375 34.765625 61.71875 
Q 48.046875 61.71875 53.515625 62.109375 
L 53.515625 55.078125 
Q 48.046875 55.46875 34.765625 55.46875 
Q 34.765625 44.140625 35.15625 37.890625 
L 27.34375 37.890625 
Q 27.734375 43.359375 27.734375 51.5625 
Q 25.78125 48.4375 20.3125 43.546875 
Q 14.84375 38.671875 10.15625 35.9375 
Q 8.203125 39.453125 4.296875 41.015625 
Q 7.8125 42.1875 13.671875 46.484375 
Q 19.53125 50.78125 22.65625 55.46875 
Q 14.84375 55.46875 7.8125 55.078125 
L 7.8125 62.109375 
Q 14.453125 61.71875 27.734375 61.71875 
z
M 62.109375 49.609375 
Q 65.625 26.5625 71.875 17.578125 
Q 75.78125 26.5625 77.140625 35.734375 
Q 78.515625 44.921875 78.90625 53.515625 
L 63.671875 53.515625 
L 62.109375 49.609375 
z
M 22.65625 15.625 
Q 27.34375 14.453125 35.546875 12.5 
Q 38.671875 16.40625 41.40625 23.828125 
L 26.953125 23.828125 
Q 25 19.921875 22.65625 15.625 
z
M 51.953125 75.390625 
Q 50 72.265625 48.828125 69.53125 
Q 47.65625 66.796875 45.703125 62.890625 
Q 42.578125 64.453125 39.453125 65.234375 
Q 42.578125 70.3125 45.3125 78.125 
Q 49.21875 76.171875 51.953125 75.390625 
z
M 40.234375 52.734375 
Q 45.3125 47.65625 50 42.578125 
Q 47.65625 40.625 44.921875 37.890625 
Q 39.453125 44.53125 35.9375 48.4375 
Q 38.28125 50.390625 40.234375 52.734375 
z
M 14.453125 78.125 
Q 19.921875 72.65625 23.4375 67.1875 
L 17.578125 63.671875 
Q 14.84375 69.140625 9.375 73.828125 
Q 12.890625 76.171875 14.453125 78.125 
z
" id="SimHei-25968"/>
      <path d="M 82.03125 39.0625 
Q 81.640625 34.375 81.640625 26.5625 
Q 81.640625 19.140625 82.03125 14.84375 
L 53.515625 14.84375 
L 53.515625 9.765625 
L 71.484375 9.765625 
Q 78.125 9.765625 83.984375 10.15625 
L 83.984375 4.296875 
Q 78.515625 4.6875 71.484375 4.6875 
L 53.515625 4.6875 
L 53.515625 -1.171875 
L 80.078125 -1.171875 
Q 86.328125 -1.171875 92.578125 -0.78125 
L 92.578125 -6.640625 
Q 86.328125 -6.25 80.078125 -6.25 
L 19.921875 -6.25 
Q 14.0625 -6.25 7.421875 -6.640625 
L 7.421875 -0.78125 
Q 14.453125 -0.78125 19.921875 -1.171875 
L 46.484375 -1.171875 
L 46.484375 4.6875 
L 26.953125 4.6875 
Q 21.09375 4.6875 15.234375 3.90625 
L 15.234375 10.15625 
Q 21.484375 9.765625 26.953125 9.765625 
L 46.484375 9.765625 
L 46.484375 14.84375 
L 17.96875 14.84375 
Q 18.359375 21.484375 18.359375 27.734375 
Q 18.359375 33.984375 17.96875 39.0625 
L 82.03125 39.0625 
z
M 81.25 77.34375 
Q 80.859375 71.484375 80.859375 66.40625 
Q 80.859375 61.328125 81.25 53.125 
L 18.75 53.125 
Q 19.140625 61.328125 19.140625 66.40625 
Q 19.140625 71.484375 18.75 77.34375 
L 81.25 77.34375 
z
M 76.5625 48.4375 
Q 85.9375 48.828125 93.75 49.21875 
L 93.75 42.96875 
Q 85.9375 43.359375 76.953125 43.359375 
L 25.78125 43.359375 
Q 15.234375 43.359375 5.078125 42.96875 
L 5.078125 49.21875 
Q 15.234375 48.828125 25.78125 48.4375 
z
M 73.828125 57.8125 
L 73.828125 62.890625 
L 26.171875 62.890625 
L 26.171875 57.8125 
z
M 73.828125 67.96875 
L 73.828125 72.65625 
L 26.171875 72.65625 
L 26.171875 67.96875 
z
M 74.21875 29.296875 
L 74.21875 33.984375 
L 53.515625 33.984375 
L 53.515625 29.296875 
z
M 46.484375 29.296875 
L 46.484375 33.984375 
L 25.78125 33.984375 
L 25.78125 29.296875 
z
M 46.484375 19.921875 
L 46.484375 24.21875 
L 25.78125 24.21875 
L 25.78125 19.921875 
z
M 74.21875 19.921875 
L 74.21875 24.21875 
L 53.515625 24.21875 
L 53.515625 19.921875 
z
" id="SimHei-37327"/>
      <path d="M 21.875 51.953125 
Q 21.875 40.625 18.546875 37.5 
Q 15.234375 34.375 12.109375 34.375 
Q 8.984375 34.375 5.65625 37.5 
Q 2.34375 40.625 2.34375 51.953125 
Q 2.34375 63.28125 5.65625 66.40625 
Q 8.984375 69.53125 12.109375 69.53125 
Q 15.234375 69.53125 18.546875 66.40625 
Q 21.875 63.28125 21.875 51.953125 
z
M 41.015625 68.359375 
L 10.9375 1.171875 
L 7.8125 2.34375 
L 37.890625 69.53125 
z
M 46.484375 18.75 
Q 46.484375 7.421875 43.15625 4.296875 
Q 39.84375 1.171875 36.71875 1.171875 
Q 33.59375 1.171875 30.265625 4.296875 
Q 26.953125 7.421875 26.953125 18.75 
Q 26.953125 30.078125 30.265625 33.203125 
Q 33.59375 36.328125 36.71875 36.328125 
Q 39.84375 36.328125 43.15625 33.203125 
Q 46.484375 30.078125 46.484375 18.75 
z
M 15.625 51.953125 
Q 15.625 58.984375 14.84375 61.328125 
Q 14.0625 63.671875 12.109375 63.671875 
Q 10.15625 63.671875 9.375 61.328125 
Q 8.59375 58.984375 8.59375 51.953125 
Q 8.59375 44.921875 9.375 42.578125 
Q 10.15625 40.234375 12.109375 40.234375 
Q 14.0625 40.234375 14.84375 42.578125 
Q 15.625 44.921875 15.625 51.953125 
z
M 40.234375 18.75 
Q 40.234375 25.78125 39.453125 28.125 
Q 38.671875 30.46875 36.71875 30.46875 
Q 34.765625 30.46875 33.984375 28.125 
Q 33.203125 25.78125 33.203125 18.75 
Q 33.203125 11.71875 33.984375 9.375 
Q 34.765625 7.03125 36.71875 7.03125 
Q 38.671875 7.03125 39.453125 9.375 
Q 40.234375 11.71875 40.234375 18.75 
z
" id="SimHei-37"/>
     </defs>
     <g transform="translate(35.62 246)rotate(-90)scale(0.2 -0.2)">
      <use xlink:href="#SimHei-24863"/>
      <use x="100" xlink:href="#SimHei-26579"/>
      <use x="200" xlink:href="#SimHei-32773"/>
      <use x="300" xlink:href="#SimHei-25968"/>
      <use x="400" xlink:href="#SimHei-37327"/>
      <use x="500" xlink:href="#SimHei-65288"/>
      <use x="600" xlink:href="#SimHei-37"/>
      <use x="650" xlink:href="#SimHei-65289"/>
     </g>
    </g>
   </g>
   <g id="line2d_12">
    <path clip-path="url(#p9fd4cecadf)" d="M 89.541818 293.696672 
L 97.726916 293.715032 
L 159.933656 293.569065 
L 184.488949 293.295307 
L 200.040634 292.913098 
L 211.49977 292.431314 
L 221.321887 291.801236 
L 229.506985 291.0542 
L 236.873573 290.146325 
L 243.421651 289.09646 
L 249.151219 287.943898 
L 254.062277 286.748127 
L 258.973336 285.329274 
L 263.884394 283.656798 
L 267.976943 282.047911 
L 272.069492 280.22702 
L 276.16204 278.182005 
L 280.254589 275.906136 
L 284.347138 273.400268 
L 289.258196 270.105869 
L 294.169255 266.540712 
L 301.535843 260.863768 
L 309.72094 254.56611 
L 313.813489 251.658571 
L 317.087528 249.551987 
L 320.361567 247.704656 
L 322.817096 246.522717 
L 325.272625 245.538767 
L 327.728154 244.770678 
L 330.183684 244.232832 
L 332.639213 243.935328 
L 335.094742 243.883612 
L 337.550271 244.078235 
L 340.005801 244.515036 
L 342.46133 245.18514 
L 344.916859 246.075451 
L 347.372388 247.169075 
L 350.646427 248.908445 
L 353.920466 250.919982 
L 358.013015 253.728985 
L 363.742583 258.008129 
L 376.838739 267.953016 
L 381.749798 271.371656 
L 386.660856 274.505459 
L 390.753405 276.876376 
L 394.845954 279.022068 
L 398.938502 280.945596 
L 403.031051 282.655956 
L 407.94211 284.445451 
L 412.853168 285.973857 
L 417.764227 287.270122 
L 423.493795 288.527646 
L 429.223363 289.551805 
L 435.771441 290.486426 
L 443.138029 291.296745 
L 451.323126 291.966176 
L 461.145243 292.533889 
L 473.422889 292.995415 
L 488.974575 293.334293 
L 497.978182 293.453392 
L 497.978182 293.453392 
" style="fill:none;stroke:#1f77b4;stroke-linecap:square;stroke-width:1.5;"/>
   </g>
   <g id="line2d_13">
    <path clip-path="url(#p9fd4cecadf)" d="M 89.541818 293.696672 
L 97.726916 293.708422 
L 123.919228 293.555355 
L 135.378364 293.27664 
L 142.744952 292.890637 
L 148.47452 292.374457 
L 153.385578 291.686665 
L 157.478127 290.855599 
L 160.752166 289.956047 
L 164.026205 288.779616 
L 166.481734 287.667141 
L 168.937264 286.31102 
L 171.392793 284.661312 
L 173.848322 282.659139 
L 175.485342 281.095419 
L 177.122361 279.322511 
L 178.759381 277.315992 
L 180.3964 275.049609 
L 182.03342 272.495942 
L 183.670439 269.625982 
L 185.307459 266.410534 
L 186.944478 262.820222 
L 188.581498 258.827322 
L 190.218517 254.406678 
L 191.855537 249.537421 
L 194.311066 241.363484 
L 196.766595 232.142558 
L 199.222124 221.933705 
L 202.496163 207.057318 
L 210.681261 168.640497 
L 212.31828 161.976727 
L 213.9553 156.079455 
L 215.592319 151.126412 
L 217.229339 147.274216 
L 218.047848 145.801688 
L 218.866358 144.64833 
L 219.684868 143.823629 
L 220.503378 143.334133 
L 221.321887 143.18333 
L 222.140397 143.371527 
L 222.958907 143.896215 
L 223.777417 144.751885 
L 224.595926 145.930029 
L 225.414436 147.419449 
L 226.232946 149.20674 
L 227.869965 153.609146 
L 229.506985 158.989503 
L 231.144004 165.178894 
L 233.599534 175.586961 
L 237.692082 194.471121 
L 241.784631 213.263662 
L 244.24016 223.79193 
L 246.69569 233.489377 
L 249.151219 242.244491 
L 251.606748 250.019267 
L 254.062277 256.829372 
L 256.517807 262.727134 
L 258.154826 266.188309 
L 259.791846 269.302038 
L 261.428865 272.094149 
L 263.065884 274.591143 
L 265.521414 277.839089 
L 267.976943 280.563204 
L 270.432472 282.839012 
L 272.888001 284.734265 
L 275.343531 286.308388 
L 277.79906 287.612855 
L 280.254589 288.692096 
L 283.528628 289.844597 
L 286.802667 290.736009 
L 290.895216 291.570442 
L 294.987765 292.173285 
L 299.898823 292.679428 
L 306.446901 293.108272 
L 314.631999 293.407001 
L 326.909645 293.608112 
L 349.009408 293.707198 
L 432.497402 293.727273 
L 497.978182 293.727273 
L 497.978182 293.727273 
" style="fill:none;stroke:#ff7f0e;stroke-linecap:square;stroke-width:1.5;"/>
   </g>
   <g id="line2d_14">
    <path clip-path="url(#p9fd4cecadf)" d="M 89.541818 293.696672 
L 96.908406 293.702792 
L 113.278601 293.546665 
L 120.645189 293.284352 
L 125.556247 292.922156 
L 129.648796 292.403283 
L 132.922835 291.756986 
L 135.378364 291.073785 
L 137.833893 290.155505 
L 140.289422 288.922462 
L 141.926442 287.875045 
L 143.563461 286.602833 
L 145.200481 285.059188 
L 146.8375 283.188906 
L 148.47452 280.926011 
L 150.111539 278.194123 
L 151.748559 274.90358 
L 153.385578 270.951869 
L 155.022598 266.222827 
L 156.659617 260.588051 
L 158.296637 253.908858 
L 159.933656 246.041912 
L 161.570676 236.846385 
L 163.207695 226.196753 
L 164.844715 213.999742 
L 166.481734 200.216673 
L 168.118754 184.890571 
L 170.574283 159.384075 
L 177.122361 87.489707 
L 178.759381 72.600895 
L 180.3964 60.686517 
L 181.21491 56.087591 
L 182.03342 52.498442 
L 182.851929 49.977028 
L 183.670439 48.562337 
L 184.488949 48.272727 
L 185.307459 49.106364 
L 186.125968 51.040541 
L 186.944478 54.033457 
L 187.762988 58.025746 
L 188.581498 62.942985 
L 190.218517 75.1952 
L 191.855537 90.001878 
L 194.311066 115.168946 
L 199.222124 167.099545 
L 201.677653 190.411326 
L 203.314673 204.3392 
L 204.951692 216.868417 
L 206.588712 227.994877 
L 208.225731 237.769071 
L 209.862751 246.277541 
L 211.49977 253.62745 
L 213.13679 259.935757 
L 214.773809 265.320704 
L 216.410829 269.89668 
L 218.047848 273.770052 
L 219.684868 277.038256 
L 221.321887 279.788383 
L 222.958907 282.097424 
L 224.595926 284.032274 
L 226.232946 285.651137 
L 227.869965 287.003708 
L 229.506985 288.132707 
L 231.962514 289.483993 
L 234.418043 290.511274 
L 236.873573 291.291237 
L 240.147612 292.046229 
L 243.421651 292.567917 
L 247.514199 292.998965 
L 253.243768 293.347574 
L 261.428865 293.577572 
L 275.343531 293.69661 
L 317.906038 293.727028 
L 497.978182 293.727273 
L 497.978182 293.727273 
" style="fill:none;stroke:#2ca02c;stroke-linecap:square;stroke-width:1.5;"/>
   </g>
   <g id="patch_3">
    <path d="M 69.12 306 
L 69.12 36 
" style="fill:none;stroke:#000000;stroke-linecap:square;stroke-linejoin:miter;stroke-width:0.8;"/>
   </g>
   <g id="patch_4">
    <path d="M 518.4 306 
L 518.4 36 
" style="fill:none;stroke:#000000;stroke-linecap:square;stroke-linejoin:miter;stroke-width:0.8;"/>
   </g>
   <g id="patch_5">
    <path d="M 69.12 306 
L 518.4 306 
" style="fill:none;stroke:#000000;stroke-linecap:square;stroke-linejoin:miter;stroke-width:0.8;"/>
   </g>
   <g id="patch_6">
    <path d="M 69.12 36 
L 518.4 36 
" style="fill:none;stroke:#000000;stroke-linecap:square;stroke-linejoin:miter;stroke-width:0.8;"/>
   </g>
   <g id="legend_1">
    <g id="patch_7">
     <path d="M 385.2 121.95 
L 505.8 121.95 
Q 509.4 121.95 509.4 118.35 
L 509.4 48.6 
Q 509.4 45 505.8 45 
L 385.2 45 
Q 381.6 45 381.6 48.6 
L 381.6 118.35 
Q 381.6 121.95 385.2 121.95 
z
" style="fill:#ffffff;opacity:0.8;stroke:#cccccc;stroke-linejoin:miter;"/>
    </g>
    <g id="line2d_15">
     <path d="M 388.8 58.5 
L 424.8 58.5 
" style="fill:none;stroke:#1f77b4;stroke-linecap:square;stroke-width:1.5;"/>
    </g>
    <g id="line2d_16"/>
    <g id="text_14">
     <!-- p = 0.1 -->
     <defs>
      <path d="M 44.140625 23.828125 
Q 44.140625 12.5 38.671875 6.640625 
Q 33.203125 0.78125 25.390625 0.78125 
Q 21.09375 0.78125 17.96875 2.53125 
Q 14.84375 4.296875 12.5 7.8125 
L 12.5 -12.5 
L 4.6875 -12.5 
L 4.6875 45.703125 
L 12.5 45.703125 
L 12.5 39.84375 
Q 14.84375 43.359375 17.96875 44.921875 
Q 21.09375 46.484375 25.390625 46.484375 
Q 33.203125 46.484375 38.671875 40.8125 
Q 44.140625 35.15625 44.140625 23.828125 
z
M 35.546875 23.828125 
Q 35.546875 31.25 32.609375 35.34375 
Q 29.6875 39.453125 23.828125 39.453125 
Q 19.140625 39.453125 15.8125 35.34375 
Q 12.5 31.25 12.5 23.828125 
Q 12.5 16.40625 15.8125 12.109375 
Q 19.140625 7.8125 23.828125 7.8125 
Q 29.6875 7.8125 32.609375 12.109375 
Q 35.546875 16.40625 35.546875 23.828125 
z
" id="SimHei-112"/>
      <path id="SimHei-32"/>
      <path d="M 46.484375 45.3125 
L 1.953125 45.3125 
L 1.953125 51.5625 
L 46.484375 51.5625 
z
M 46.484375 21.484375 
L 1.953125 21.484375 
L 1.953125 27.734375 
L 46.484375 27.734375 
z
" id="SimHei-61"/>
      <path d="M 16.796875 1.953125 
L 7.8125 1.953125 
L 7.8125 10.546875 
L 16.796875 10.546875 
z
" id="SimHei-46"/>
     </defs>
     <g transform="translate(439.2 64.8)scale(0.18 -0.18)">
      <use xlink:href="#SimHei-112"/>
      <use x="50" xlink:href="#SimHei-32"/>
      <use x="100" xlink:href="#SimHei-61"/>
      <use x="150" xlink:href="#SimHei-32"/>
      <use x="200" xlink:href="#SimHei-48"/>
      <use x="250" xlink:href="#SimHei-46"/>
      <use x="300" xlink:href="#SimHei-49"/>
     </g>
    </g>
    <g id="line2d_17">
     <path d="M 388.8 82.35 
L 424.8 82.35 
" style="fill:none;stroke:#ff7f0e;stroke-linecap:square;stroke-width:1.5;"/>
    </g>
    <g id="line2d_18"/>
    <g id="text_15">
     <!-- p = 0.5 -->
     <g transform="translate(439.2 88.65)scale(0.18 -0.18)">
      <use xlink:href="#SimHei-112"/>
      <use x="50" xlink:href="#SimHei-32"/>
      <use x="100" xlink:href="#SimHei-61"/>
      <use x="150" xlink:href="#SimHei-32"/>
      <use x="200" xlink:href="#SimHei-48"/>
      <use x="250" xlink:href="#SimHei-46"/>
      <use x="300" xlink:href="#SimHei-53"/>
     </g>
    </g>
    <g id="line2d_19">
     <path d="M 388.8 106.2 
L 424.8 106.2 
" style="fill:none;stroke:#2ca02c;stroke-linecap:square;stroke-width:1.5;"/>
    </g>
    <g id="line2d_20"/>
    <g id="text_16">
     <!-- p = 0.9 -->
     <defs>
      <path d="M 12.5 1.171875 
Q 21.09375 15.625 26.5625 27.34375 
Q 16.796875 25.78125 10.34375 29.875 
Q 3.90625 33.984375 2.53125 41.015625 
Q 1.171875 48.046875 2.734375 53.703125 
Q 4.296875 59.375 7.609375 63.078125 
Q 10.9375 66.796875 15.625 68.359375 
Q 20.3125 69.921875 24.015625 69.921875 
Q 27.734375 69.921875 31.640625 68.359375 
Q 35.546875 66.796875 38.671875 63.671875 
Q 41.796875 60.546875 42.96875 57.21875 
Q 44.140625 53.90625 44.140625 48.625 
Q 44.140625 43.359375 40.234375 35.15625 
Q 36.328125 26.953125 21.09375 1.171875 
z
M 9.765625 50 
Q 10.9375 39.84375 14.640625 36.515625 
Q 18.359375 33.203125 22.65625 33.59375 
Q 26.953125 33.984375 29.484375 35.9375 
Q 32.03125 37.890625 34.375 42.578125 
Q 35.9375 48.4375 35.15625 52.53125 
Q 34.375 56.640625 31.046875 59.375 
Q 27.734375 62.109375 23.828125 62.109375 
Q 21.484375 62.5 17.765625 60.9375 
Q 14.0625 59.375 11.90625 54.6875 
Q 9.765625 50 10.9375 39.84375 
z
" id="SimHei-57"/>
     </defs>
     <g transform="translate(439.2 112.5)scale(0.18 -0.18)">
      <use xlink:href="#SimHei-112"/>
      <use x="50" xlink:href="#SimHei-32"/>
      <use x="100" xlink:href="#SimHei-61"/>
      <use x="150" xlink:href="#SimHei-32"/>
      <use x="200" xlink:href="#SimHei-48"/>
      <use x="250" xlink:href="#SimHei-46"/>
      <use x="300" xlink:href="#SimHei-57"/>
     </g>
    </g>
   </g>
  </g>
 </g>
 <defs>
  <clipPath id="p9fd4cecadf">
   <rect height="270" width="449.28" x="69.12" y="36"/>
  </clipPath>
 </defs>
</svg>
