<?xml version="1.0" encoding="utf-8" standalone="no"?>
<!DOCTYPE svg PUBLIC "-//W3C//DTD SVG 1.1//EN"
  "http://www.w3.org/Graphics/SVG/1.1/DTD/svg11.dtd">
<!-- Created with matplotlib (https://matplotlib.org/) -->
<svg height="360pt" version="1.1" viewBox="0 0 576 360" width="576pt" xmlns="http://www.w3.org/2000/svg" xmlns:xlink="http://www.w3.org/1999/xlink">
 <defs>
  <style type="text/css">
*{stroke-linecap:butt;stroke-linejoin:round;}
  </style>
 </defs>
 <g id="figure_1">
  <g id="patch_1">
   <path d="M 0 360 
L 576 360 
L 576 0 
L 0 0 
z
" style="fill:#ffffff;"/>
  </g>
  <g id="axes_1">
   <g id="patch_2">
    <path d="M 69.12 306 
L 518.4 306 
L 518.4 36 
L 69.12 36 
z
" style="fill:#ffffff;"/>
   </g>
   <g id="matplotlib.axis_1">
    <g id="xtick_1">
     <g id="line2d_1">
      <defs>
       <path d="M 0 0 
L 0 3.5 
" id="m821cddd7c7" style="stroke:#000000;stroke-width:0.8;"/>
      </defs>
      <g>
       <use style="stroke:#000000;stroke-width:0.8;" x="89.541818" xlink:href="#m821cddd7c7" y="306"/>
      </g>
     </g>
     <g id="text_1">
      <!-- 0 -->
      <defs>
       <path d="M 3.125 29.296875 
Q 3.90625 50 6.4375 56.046875 
Q 8.984375 62.109375 13.671875 66.015625 
Q 18.359375 69.921875 25.1875 69.921875 
Q 32.03125 69.921875 37.109375 64.25 
Q 42.1875 58.59375 43.75 50 
Q 45.3125 41.40625 44.71875 30.265625 
Q 44.140625 19.140625 40.8125 12.109375 
Q 37.5 5.078125 30.859375 2.34375 
Q 24.21875 -0.390625 17.578125 2.921875 
Q 10.9375 6.25 8.203125 11.71875 
Q 5.46875 17.1875 4.296875 23.234375 
Q 3.125 29.296875 3.90625 50 
z
M 12.890625 52.734375 
Q 10.546875 31.25 12.5 22.84375 
Q 14.453125 14.453125 18.9375 10.9375 
Q 23.4375 7.421875 28.125 9.5625 
Q 32.8125 11.71875 34.953125 18.15625 
Q 37.109375 24.609375 37.109375 32.21875 
Q 37.109375 39.84375 36.515625 46.09375 
Q 35.9375 52.34375 33 57.421875 
Q 30.078125 62.5 25.1875 62.6875 
Q 20.3125 62.890625 16.59375 57.8125 
Q 12.890625 52.734375 10.546875 31.25 
z
" id="SimHei-48"/>
      </defs>
      <g transform="translate(87.041818 319.875)scale(0.1 -0.1)">
       <use xlink:href="#SimHei-48"/>
      </g>
     </g>
    </g>
    <g id="xtick_2">
     <g id="line2d_2">
      <g>
       <use style="stroke:#000000;stroke-width:0.8;" x="147.88987" xlink:href="#m821cddd7c7" y="306"/>
      </g>
     </g>
     <g id="text_2">
      <!-- 100 -->
      <defs>
       <path d="M 21.875 56.25 
Q 16.796875 51.171875 8.984375 46.484375 
L 8.984375 53.90625 
Q 18.75 60.546875 25 69.53125 
L 29.6875 69.53125 
L 29.6875 2.34375 
L 21.875 2.34375 
z
" id="SimHei-49"/>
      </defs>
      <g transform="translate(140.38987 319.875)scale(0.1 -0.1)">
       <use xlink:href="#SimHei-49"/>
       <use x="50" xlink:href="#SimHei-48"/>
       <use x="100" xlink:href="#SimHei-48"/>
      </g>
     </g>
    </g>
    <g id="xtick_3">
     <g id="line2d_3">
      <g>
       <use style="stroke:#000000;stroke-width:0.8;" x="206.237922" xlink:href="#m821cddd7c7" y="306"/>
      </g>
     </g>
     <g id="text_3">
      <!-- 200 -->
      <defs>
       <path d="M 4.6875 3.90625 
Q 5.078125 9.765625 10.15625 14.453125 
Q 15.234375 19.140625 23.046875 29.09375 
Q 30.859375 39.0625 33.203125 44.53125 
Q 35.546875 50 34.953125 53.90625 
Q 34.375 57.8125 31.25 60.34375 
Q 28.125 62.890625 24.015625 62.5 
Q 19.921875 62.109375 16.203125 59.375 
Q 12.5 56.640625 10.546875 51.171875 
L 3.125 52.34375 
Q 6.25 61.328125 11.125 65.421875 
Q 16.015625 69.53125 22.65625 69.921875 
Q 26.5625 70.3125 29.6875 69.71875 
Q 32.8125 69.140625 36.125 66.984375 
Q 39.453125 64.84375 41.59375 60.546875 
Q 43.75 56.25 43.15625 50.1875 
Q 42.578125 44.140625 37.109375 35.734375 
Q 31.640625 27.34375 16.015625 9.375 
L 44.140625 9.375 
L 44.140625 2.34375 
L 4.6875 2.34375 
z
" id="SimHei-50"/>
      </defs>
      <g transform="translate(198.737922 319.875)scale(0.1 -0.1)">
       <use xlink:href="#SimHei-50"/>
       <use x="50" xlink:href="#SimHei-48"/>
       <use x="100" xlink:href="#SimHei-48"/>
      </g>
     </g>
    </g>
    <g id="xtick_4">
     <g id="line2d_4">
      <g>
       <use style="stroke:#000000;stroke-width:0.8;" x="264.585974" xlink:href="#m821cddd7c7" y="306"/>
      </g>
     </g>
     <g id="text_4">
      <!-- 300 -->
      <defs>
       <path d="M 3.90625 19.140625 
L 10.9375 20.3125 
Q 12.5 15.234375 16.015625 11.90625 
Q 19.53125 8.59375 24.796875 8.78125 
Q 30.078125 8.984375 33.203125 13.078125 
Q 36.328125 17.1875 35.9375 22.453125 
Q 35.546875 27.734375 31.828125 30.65625 
Q 28.125 33.59375 19.921875 34.765625 
L 19.921875 39.84375 
Q 28.125 40.625 31.828125 44.140625 
Q 35.546875 47.65625 35.15625 53.3125 
Q 34.765625 58.984375 30.078125 61.515625 
Q 25.390625 64.0625 20.109375 62.109375 
Q 14.84375 60.15625 11.71875 51.171875 
L 4.6875 52.34375 
Q 7.03125 59.375 11.125 64.0625 
Q 15.234375 68.75 22.265625 69.53125 
Q 29.296875 70.3125 34.5625 67.765625 
Q 39.84375 65.234375 41.984375 59.953125 
Q 44.140625 54.6875 42.578125 48.4375 
Q 41.015625 42.1875 33.59375 37.5 
Q 39.0625 35.15625 41.984375 30.46875 
Q 44.921875 25.78125 43.9375 18.15625 
Q 42.96875 10.546875 37.109375 5.859375 
Q 31.25 1.171875 23.828125 1.359375 
Q 16.40625 1.5625 10.9375 6.046875 
Q 5.46875 10.546875 3.90625 19.140625 
z
" id="SimHei-51"/>
      </defs>
      <g transform="translate(257.085974 319.875)scale(0.1 -0.1)">
       <use xlink:href="#SimHei-51"/>
       <use x="50" xlink:href="#SimHei-48"/>
       <use x="100" xlink:href="#SimHei-48"/>
      </g>
     </g>
    </g>
    <g id="xtick_5">
     <g id="line2d_5">
      <g>
       <use style="stroke:#000000;stroke-width:0.8;" x="322.934026" xlink:href="#m821cddd7c7" y="306"/>
      </g>
     </g>
     <g id="text_5">
      <!-- 400 -->
      <defs>
       <path d="M 31.25 17.1875 
L 1.171875 17.1875 
L 1.171875 23.828125 
L 32.8125 69.53125 
L 38.671875 69.53125 
L 38.671875 23.828125 
L 48.046875 23.828125 
L 48.046875 17.1875 
L 38.671875 17.1875 
L 38.671875 2.34375 
L 31.25 2.34375 
z
M 31.25 23.828125 
L 31.25 54.6875 
L 9.375 23.828125 
z
" id="SimHei-52"/>
      </defs>
      <g transform="translate(315.434026 319.875)scale(0.1 -0.1)">
       <use xlink:href="#SimHei-52"/>
       <use x="50" xlink:href="#SimHei-48"/>
       <use x="100" xlink:href="#SimHei-48"/>
      </g>
     </g>
    </g>
    <g id="xtick_6">
     <g id="line2d_6">
      <g>
       <use style="stroke:#000000;stroke-width:0.8;" x="381.282078" xlink:href="#m821cddd7c7" y="306"/>
      </g>
     </g>
     <g id="text_6">
      <!-- 500 -->
      <defs>
       <path d="M 8.59375 20.703125 
Q 11.328125 10.15625 17.96875 8.984375 
Q 24.609375 7.8125 28.703125 10.34375 
Q 32.8125 12.890625 34.5625 16.984375 
Q 36.328125 21.09375 36.125 26.171875 
Q 35.9375 31.25 33.390625 34.765625 
Q 30.859375 38.28125 26.953125 39.453125 
Q 23.046875 40.625 18.15625 39.453125 
Q 13.28125 38.28125 10.15625 33.984375 
L 3.515625 34.765625 
Q 4.296875 37.109375 10.9375 68.359375 
L 41.796875 68.359375 
L 41.796875 61.328125 
L 16.796875 61.328125 
Q 14.84375 50.78125 12.890625 44.53125 
Q 18.75 47.265625 23.828125 47.0625 
Q 28.90625 46.875 33.59375 44.71875 
Q 38.28125 42.578125 40.421875 38.859375 
Q 42.578125 35.15625 43.546875 31.4375 
Q 44.53125 27.734375 44.328125 23.4375 
Q 44.140625 19.140625 42.578125 14.640625 
Q 41.015625 10.15625 37.890625 7.21875 
Q 34.765625 4.296875 30.265625 2.53125 
Q 25.78125 0.78125 19.921875 1.171875 
Q 14.0625 1.5625 8.78125 5.46875 
Q 3.515625 9.375 1.5625 18.75 
z
" id="SimHei-53"/>
      </defs>
      <g transform="translate(373.782078 319.875)scale(0.1 -0.1)">
       <use xlink:href="#SimHei-53"/>
       <use x="50" xlink:href="#SimHei-48"/>
       <use x="100" xlink:href="#SimHei-48"/>
      </g>
     </g>
    </g>
    <g id="xtick_7">
     <g id="line2d_7">
      <g>
       <use style="stroke:#000000;stroke-width:0.8;" x="439.63013" xlink:href="#m821cddd7c7" y="306"/>
      </g>
     </g>
     <g id="text_7">
      <!-- 600 -->
      <defs>
       <path d="M 3.515625 19.53125 
Q 4.296875 30.859375 6.046875 34.765625 
Q 7.8125 38.671875 11.328125 44.53125 
L 27.34375 69.53125 
L 36.328125 69.53125 
L 19.921875 43.75 
Q 30.46875 46.484375 36.71875 42.96875 
Q 42.96875 39.453125 45.109375 34.953125 
Q 47.265625 30.46875 47.453125 25.1875 
Q 47.65625 19.921875 45.890625 14.84375 
Q 44.140625 9.765625 39.640625 5.65625 
Q 35.15625 1.5625 27.140625 1.171875 
Q 19.140625 0.78125 13.46875 4.09375 
Q 7.8125 7.421875 5.65625 13.46875 
Q 3.515625 19.53125 4.296875 30.859375 
z
M 12.5 16.015625 
Q 19.53125 8.59375 25.390625 8.203125 
Q 31.25 7.8125 35.15625 12.109375 
Q 39.0625 16.40625 39.0625 24.609375 
Q 39.0625 32.8125 34.171875 35.9375 
Q 29.296875 39.0625 23.234375 38.28125 
Q 17.1875 37.5 14.453125 32.421875 
Q 11.71875 27.34375 12.109375 21.671875 
Q 12.5 16.015625 19.53125 8.59375 
z
" id="SimHei-54"/>
      </defs>
      <g transform="translate(432.13013 319.875)scale(0.1 -0.1)">
       <use xlink:href="#SimHei-54"/>
       <use x="50" xlink:href="#SimHei-48"/>
       <use x="100" xlink:href="#SimHei-48"/>
      </g>
     </g>
    </g>
    <g id="xtick_8">
     <g id="line2d_8">
      <g>
       <use style="stroke:#000000;stroke-width:0.8;" x="497.978182" xlink:href="#m821cddd7c7" y="306"/>
      </g>
     </g>
     <g id="text_8">
      <!-- 700 -->
      <defs>
       <path d="M 13.28125 2.34375 
Q 20.3125 32.03125 37.890625 61.328125 
L 4.296875 61.328125 
L 4.296875 68.359375 
L 46.09375 68.359375 
L 46.09375 61.71875 
Q 27.734375 32.03125 21.875 2.34375 
L 13.28125 2.34375 
z
" id="SimHei-55"/>
      </defs>
      <g transform="translate(490.478182 319.875)scale(0.1 -0.1)">
       <use xlink:href="#SimHei-55"/>
       <use x="50" xlink:href="#SimHei-48"/>
       <use x="100" xlink:href="#SimHei-48"/>
      </g>
     </g>
    </g>
    <g id="text_9">
     <!-- 时间（天） -->
     <defs>
      <path d="M 39.453125 71.484375 
Q 39.0625 57.421875 39.0625 37.5 
Q 39.0625 17.578125 39.453125 6.25 
L 31.25 6.25 
L 31.25 13.671875 
L 15.625 13.671875 
L 15.625 0.78125 
L 7.421875 0.78125 
Q 7.8125 18.75 7.8125 36.71875 
Q 7.8125 55.078125 7.421875 71.484375 
L 39.453125 71.484375 
z
M 76.171875 59.765625 
Q 76.171875 71.484375 75.78125 81.640625 
L 84.375 81.640625 
Q 83.984375 71.484375 83.984375 59.765625 
Q 89.84375 59.765625 96.484375 60.15625 
L 96.484375 52.734375 
Q 89.84375 53.125 83.984375 53.125 
L 83.984375 0.78125 
Q 83.984375 -5.078125 79.296875 -6.640625 
Q 74.609375 -8.203125 67.1875 -8.984375 
Q 67.1875 -4.296875 62.890625 0 
Q 70.3125 -0.78125 73.234375 -0.390625 
Q 76.171875 0 76.171875 4.6875 
L 76.171875 53.125 
Q 56.640625 53.125 43.359375 52.734375 
L 43.359375 60.15625 
Q 55.859375 59.765625 76.171875 59.765625 
z
M 31.25 20.3125 
L 31.25 39.84375 
L 15.625 39.84375 
L 15.625 20.3125 
z
M 31.25 46.484375 
L 31.25 64.84375 
L 15.625 64.84375 
L 15.625 46.484375 
z
M 55.46875 42.578125 
Q 60.546875 34.375 65.234375 25 
Q 61.328125 23.828125 57.03125 21.484375 
Q 53.90625 30.859375 48.046875 39.0625 
Q 51.5625 40.625 55.46875 42.578125 
z
" id="SimHei-26102"/>
      <path d="M 69.53125 55.46875 
Q 69.140625 48.046875 69.140625 42.578125 
L 69.140625 21.875 
Q 69.140625 16.796875 69.53125 9.765625 
L 30.078125 9.765625 
Q 30.46875 16.796875 30.46875 22.265625 
L 30.46875 42.578125 
Q 30.46875 48.046875 30.078125 55.46875 
L 69.53125 55.46875 
z
M 90.625 76.171875 
Q 90.234375 68.75 90.234375 61.328125 
L 90.234375 3.90625 
Q 90.625 -5.078125 85.34375 -7.03125 
Q 80.078125 -8.984375 73.828125 -9.765625 
Q 73.4375 -5.078125 70.703125 -0.390625 
Q 78.125 -0.78125 80.265625 0.390625 
Q 82.421875 1.5625 82.421875 5.46875 
L 82.421875 69.53125 
L 58.984375 69.53125 
Q 49.609375 69.53125 41.40625 69.140625 
L 41.40625 76.5625 
Q 49.609375 76.171875 58.984375 76.171875 
z
M 8.59375 -8.203125 
Q 9.375 -0.390625 9.375 8.203125 
L 9.375 49.21875 
Q 9.375 57.421875 8.59375 62.890625 
L 17.578125 62.890625 
Q 17.1875 57.03125 17.1875 51.5625 
L 17.1875 7.8125 
Q 17.1875 0 17.578125 -8.203125 
z
M 61.71875 16.015625 
L 61.71875 30.46875 
L 37.890625 30.46875 
L 37.890625 16.015625 
z
M 61.71875 36.71875 
L 61.71875 49.21875 
L 37.890625 49.21875 
L 37.890625 36.71875 
z
M 23.828125 82.8125 
Q 27.34375 78.125 34.765625 67.96875 
Q 30.46875 66.015625 26.5625 63.671875 
Q 22.65625 71.484375 16.796875 78.515625 
Q 21.09375 81.640625 23.828125 82.8125 
z
" id="SimHei-38388"/>
      <path d="M 84.765625 79.6875 
L 89.0625 74.609375 
Q 66.796875 58.203125 67.578125 36.71875 
Q 67.96875 16.015625 88.671875 0.78125 
L 84.375 -4.296875 
Q 60.546875 12.890625 61.328125 39.0625 
Q 61.328125 60.546875 84.765625 79.6875 
z
" id="SimHei-65288"/>
      <path d="M 69.921875 76.5625 
Q 76.953125 76.5625 83.984375 76.953125 
L 83.984375 68.75 
Q 76.953125 69.140625 69.921875 69.140625 
L 53.90625 69.140625 
L 53.90625 48.046875 
L 78.90625 48.046875 
Q 86.328125 48.046875 92.1875 48.4375 
L 92.1875 40.234375 
Q 86.71875 40.625 79.296875 40.625 
L 55.078125 40.625 
Q 60.546875 25.78125 70.703125 15.234375 
Q 80.859375 4.6875 96.875 0.78125 
Q 91.40625 -3.515625 90.234375 -7.03125 
Q 78.125 -2.734375 67.96875 6.4375 
Q 57.8125 15.625 50.390625 32.8125 
Q 45.703125 16.796875 35.546875 7.21875 
Q 25.390625 -2.34375 10.15625 -8.984375 
Q 8.59375 -5.078125 3.515625 -1.5625 
Q 14.84375 1.5625 27.34375 11.515625 
Q 39.84375 21.484375 44.921875 40.625 
L 23.4375 40.625 
Q 14.84375 40.625 8.984375 40.234375 
L 8.984375 48.4375 
Q 15.234375 48.046875 23.4375 48.046875 
L 46.09375 48.046875 
L 46.09375 69.140625 
L 29.6875 69.140625 
Q 21.484375 69.140625 15.625 68.75 
L 15.625 76.953125 
Q 21.875 76.5625 29.6875 76.5625 
z
" id="SimHei-22825"/>
      <path d="M 15.625 79.6875 
Q 39.0625 60.546875 39.0625 39.0625 
Q 39.84375 12.890625 16.015625 -4.296875 
L 11.71875 0.78125 
Q 32.421875 16.015625 32.8125 36.71875 
Q 33.59375 58.203125 11.328125 74.609375 
L 15.625 79.6875 
z
" id="SimHei-65289"/>
     </defs>
     <g transform="translate(243.76 347.140625)scale(0.2 -0.2)">
      <use xlink:href="#SimHei-26102"/>
      <use x="100" xlink:href="#SimHei-38388"/>
      <use x="200" xlink:href="#SimHei-65288"/>
      <use x="300" xlink:href="#SimHei-22825"/>
      <use x="400" xlink:href="#SimHei-65289"/>
     </g>
    </g>
   </g>
   <g id="matplotlib.axis_2">
    <g id="ytick_1">
     <g id="line2d_9">
      <defs>
       <path d="M 0 0 
L -3.5 0 
" id="mdefc0a0882" style="stroke:#000000;stroke-width:0.8;"/>
      </defs>
      <g>
       <use style="stroke:#000000;stroke-width:0.8;" x="69.12" xlink:href="#mdefc0a0882" y="293.727273"/>
      </g>
     </g>
     <g id="text_10">
      <!-- 0 -->
      <g transform="translate(57.12 297.164773)scale(0.1 -0.1)">
       <use xlink:href="#SimHei-48"/>
      </g>
     </g>
    </g>
    <g id="ytick_2">
     <g id="line2d_10">
      <g>
       <use style="stroke:#000000;stroke-width:0.8;" x="69.12" xlink:href="#mdefc0a0882" y="251.53935"/>
      </g>
     </g>
     <g id="text_11">
      <!-- 10 -->
      <g transform="translate(52.12 254.97685)scale(0.1 -0.1)">
       <use xlink:href="#SimHei-49"/>
       <use x="50" xlink:href="#SimHei-48"/>
      </g>
     </g>
    </g>
    <g id="ytick_3">
     <g id="line2d_11">
      <g>
       <use style="stroke:#000000;stroke-width:0.8;" x="69.12" xlink:href="#mdefc0a0882" y="209.351428"/>
      </g>
     </g>
     <g id="text_12">
      <!-- 20 -->
      <g transform="translate(52.12 212.788928)scale(0.1 -0.1)">
       <use xlink:href="#SimHei-50"/>
       <use x="50" xlink:href="#SimHei-48"/>
      </g>
     </g>
    </g>
    <g id="ytick_4">
     <g id="line2d_12">
      <g>
       <use style="stroke:#000000;stroke-width:0.8;" x="69.12" xlink:href="#mdefc0a0882" y="167.163506"/>
      </g>
     </g>
     <g id="text_13">
      <!-- 30 -->
      <g transform="translate(52.12 170.601006)scale(0.1 -0.1)">
       <use xlink:href="#SimHei-51"/>
       <use x="50" xlink:href="#SimHei-48"/>
      </g>
     </g>
    </g>
    <g id="ytick_5">
     <g id="line2d_13">
      <g>
       <use style="stroke:#000000;stroke-width:0.8;" x="69.12" xlink:href="#mdefc0a0882" y="124.975584"/>
      </g>
     </g>
     <g id="text_14">
      <!-- 40 -->
      <g transform="translate(52.12 128.413084)scale(0.1 -0.1)">
       <use xlink:href="#SimHei-52"/>
       <use x="50" xlink:href="#SimHei-48"/>
      </g>
     </g>
    </g>
    <g id="ytick_6">
     <g id="line2d_14">
      <g>
       <use style="stroke:#000000;stroke-width:0.8;" x="69.12" xlink:href="#mdefc0a0882" y="82.787661"/>
      </g>
     </g>
     <g id="text_15">
      <!-- 50 -->
      <g transform="translate(52.12 86.225161)scale(0.1 -0.1)">
       <use xlink:href="#SimHei-53"/>
       <use x="50" xlink:href="#SimHei-48"/>
      </g>
     </g>
    </g>
    <g id="ytick_7">
     <g id="line2d_15">
      <g>
       <use style="stroke:#000000;stroke-width:0.8;" x="69.12" xlink:href="#mdefc0a0882" y="40.599739"/>
      </g>
     </g>
     <g id="text_16">
      <!-- 60 -->
      <g transform="translate(52.12 44.037239)scale(0.1 -0.1)">
       <use xlink:href="#SimHei-54"/>
       <use x="50" xlink:href="#SimHei-48"/>
      </g>
     </g>
    </g>
    <g id="text_17">
     <!-- 比例（%） -->
     <defs>
      <path d="M 58.984375 79.6875 
Q 58.59375 71.484375 58.59375 64.0625 
L 58.59375 47.65625 
Q 76.953125 56.25 85.546875 65.234375 
Q 88.671875 60.9375 92.1875 57.421875 
Q 87.5 54.6875 78.703125 49.796875 
Q 69.921875 44.921875 58.59375 39.84375 
L 58.59375 7.03125 
Q 58.59375 1.5625 63.28125 1.5625 
L 78.125 1.5625 
Q 80.859375 1.5625 82.21875 3.90625 
Q 83.59375 6.25 85.15625 14.0625 
Q 88.28125 12.109375 94.140625 10.546875 
Q 91.40625 0 88.28125 -2.734375 
Q 85.15625 -5.46875 81.640625 -5.46875 
L 60.9375 -5.46875 
Q 50.78125 -5.46875 50.78125 4.296875 
L 50.78125 62.5 
Q 50.78125 71.09375 50.390625 79.6875 
L 58.984375 79.6875 
z
M 19.921875 77.734375 
Q 19.53125 71.484375 19.53125 62.5 
L 19.53125 49.21875 
L 28.90625 49.21875 
Q 36.328125 49.21875 44.921875 49.609375 
L 44.921875 41.40625 
Q 36.328125 41.796875 28.90625 41.796875 
L 19.53125 41.796875 
L 19.53125 7.421875 
Q 25.78125 10.15625 30.65625 12.6875 
Q 35.546875 15.234375 44.53125 19.921875 
Q 45.3125 14.84375 46.09375 11.71875 
Q 37.109375 7.421875 27.53125 2.734375 
Q 17.96875 -1.953125 14.453125 -5.078125 
Q 11.71875 -1.5625 8.984375 3.125 
Q 10.9375 4.6875 11.71875 9.375 
L 11.71875 61.71875 
Q 11.71875 71.09375 11.328125 77.734375 
L 19.921875 77.734375 
z
" id="SimHei-27604"/>
      <path d="M 53.90625 73.828125 
Q 59.765625 73.828125 64.0625 74.21875 
L 64.0625 67.1875 
Q 59.765625 67.578125 54.6875 67.578125 
L 49.21875 67.578125 
Q 48.828125 62.890625 47.265625 52.34375 
L 63.28125 52.34375 
Q 62.5 32.03125 56.4375 16.40625 
Q 50.390625 0.78125 35.9375 -9.375 
Q 34.375 -6.25 29.6875 -2.34375 
Q 42.96875 3.90625 50 20.703125 
Q 46.484375 23.828125 39.84375 28.125 
Q 42.1875 31.25 44.140625 33.984375 
Q 50 29.296875 52.34375 27.734375 
Q 54.6875 35.15625 55.859375 46.09375 
L 45.703125 46.09375 
Q 43.75 37.890625 34.765625 24.609375 
Q 31.640625 27.734375 27.734375 30.078125 
Q 33.203125 35.546875 37.109375 44.328125 
Q 41.015625 53.125 41.796875 67.578125 
Q 35.9375 67.578125 33.59375 67.1875 
L 33.59375 74.21875 
Q 37.5 73.828125 43.75 73.828125 
z
M 32.03125 77.734375 
Q 29.296875 74.609375 24.21875 60.15625 
L 24.21875 7.421875 
Q 24.21875 -0.390625 24.609375 -9.375 
L 16.796875 -9.375 
Q 17.1875 -1.171875 17.1875 6.640625 
L 17.1875 46.875 
Q 14.84375 42.1875 10.15625 35.15625 
Q 8.59375 37.109375 3.125 41.015625 
Q 8.203125 45.703125 14.640625 58.78125 
Q 21.09375 71.875 22.65625 81.25 
Q 25.78125 79.296875 32.03125 77.734375 
z
M 92.96875 79.296875 
Q 92.1875 74.609375 92.1875 67.1875 
L 92.1875 3.90625 
Q 92.1875 -4.296875 89.0625 -6.25 
Q 85.9375 -8.203125 75.78125 -8.984375 
Q 75.390625 -4.6875 72.65625 0.78125 
Q 80.859375 0 82.8125 0.390625 
Q 84.765625 0.78125 85.15625 4.6875 
L 85.15625 66.796875 
Q 85.15625 74.21875 84.375 79.296875 
L 92.96875 79.296875 
z
M 76.953125 66.015625 
Q 76.171875 60.546875 76.171875 50.78125 
L 76.171875 28.125 
Q 76.171875 18.75 76.5625 14.453125 
L 68.359375 14.453125 
Q 69.140625 18.75 69.140625 27.734375 
L 69.140625 51.171875 
Q 68.75 60.15625 68.359375 66.015625 
L 76.953125 66.015625 
z
" id="SimHei-20363"/>
      <path d="M 21.875 51.953125 
Q 21.875 40.625 18.546875 37.5 
Q 15.234375 34.375 12.109375 34.375 
Q 8.984375 34.375 5.65625 37.5 
Q 2.34375 40.625 2.34375 51.953125 
Q 2.34375 63.28125 5.65625 66.40625 
Q 8.984375 69.53125 12.109375 69.53125 
Q 15.234375 69.53125 18.546875 66.40625 
Q 21.875 63.28125 21.875 51.953125 
z
M 41.015625 68.359375 
L 10.9375 1.171875 
L 7.8125 2.34375 
L 37.890625 69.53125 
z
M 46.484375 18.75 
Q 46.484375 7.421875 43.15625 4.296875 
Q 39.84375 1.171875 36.71875 1.171875 
Q 33.59375 1.171875 30.265625 4.296875 
Q 26.953125 7.421875 26.953125 18.75 
Q 26.953125 30.078125 30.265625 33.203125 
Q 33.59375 36.328125 36.71875 36.328125 
Q 39.84375 36.328125 43.15625 33.203125 
Q 46.484375 30.078125 46.484375 18.75 
z
M 15.625 51.953125 
Q 15.625 58.984375 14.84375 61.328125 
Q 14.0625 63.671875 12.109375 63.671875 
Q 10.15625 63.671875 9.375 61.328125 
Q 8.59375 58.984375 8.59375 51.953125 
Q 8.59375 44.921875 9.375 42.578125 
Q 10.15625 40.234375 12.109375 40.234375 
Q 14.0625 40.234375 14.84375 42.578125 
Q 15.625 44.921875 15.625 51.953125 
z
M 40.234375 18.75 
Q 40.234375 25.78125 39.453125 28.125 
Q 38.671875 30.46875 36.71875 30.46875 
Q 34.765625 30.46875 33.984375 28.125 
Q 33.203125 25.78125 33.203125 18.75 
Q 33.203125 11.71875 33.984375 9.375 
Q 34.765625 7.03125 36.71875 7.03125 
Q 38.671875 7.03125 39.453125 9.375 
Q 40.234375 11.71875 40.234375 18.75 
z
" id="SimHei-37"/>
     </defs>
     <g transform="translate(34.62 216)rotate(-90)scale(0.2 -0.2)">
      <use xlink:href="#SimHei-27604"/>
      <use x="100" xlink:href="#SimHei-20363"/>
      <use x="200" xlink:href="#SimHei-65288"/>
      <use x="300" xlink:href="#SimHei-37"/>
      <use x="350" xlink:href="#SimHei-65289"/>
     </g>
    </g>
   </g>
   <g id="line2d_16">
    <path clip-path="url(#p019fe0246a)" d="M 89.541818 293.72305 
L 108.796675 293.673599 
L 115.798442 293.484333 
L 119.299325 293.210743 
L 122.216727 292.759492 
L 124.550649 292.129339 
L 126.301091 291.401668 
L 127.468052 290.742275 
L 128.635013 289.898219 
L 129.801974 288.819281 
L 130.968935 287.44248 
L 132.135896 285.689545 
L 133.302857 283.46411 
L 134.469818 280.649122 
L 135.636779 277.104917 
L 136.80374 272.668776 
L 137.970701 267.157346 
L 139.137662 260.373566 
L 140.304623 252.120272 
L 141.471584 242.222583 
L 142.638545 230.560069 
L 143.805506 217.107491 
L 145.555948 193.867022 
L 148.473351 150.294029 
L 150.807273 116.802062 
L 151.974234 102.296239 
L 153.141195 89.831155 
L 154.308156 79.53355 
L 155.475117 71.325375 
L 156.642078 64.98494 
L 157.809039 60.21656 
L 158.976 56.709307 
L 160.142961 54.175856 
L 161.309922 52.37206 
L 162.476883 51.102344 
L 163.643844 50.216557 
L 164.810805 49.602899 
L 166.561247 49.021428 
L 168.311688 48.691892 
L 171.229091 48.430726 
L 175.896935 48.305337 
L 189.900468 48.272989 
L 497.978182 48.272727 
L 497.978182 48.272727 
" style="fill:none;stroke:#1f77b4;stroke-linecap:square;stroke-width:1.5;"/>
   </g>
   <g id="line2d_17">
    <path clip-path="url(#p019fe0246a)" d="M 89.541818 293.72305 
L 111.714078 293.67832 
L 120.466286 293.493277 
L 125.13413 293.1888 
L 128.051532 292.821587 
L 130.385455 292.355657 
L 132.719377 291.652632 
L 134.469818 290.901076 
L 136.22026 289.882806 
L 137.970701 288.507938 
L 139.137662 287.337049 
L 140.304623 285.914723 
L 141.471584 284.192532 
L 142.638545 282.115442 
L 143.805506 279.622346 
L 144.972468 276.647315 
L 146.139429 273.122206 
L 147.30639 268.98083 
L 148.473351 264.165153 
L 149.640312 258.633824 
L 151.390753 248.974835 
L 153.141195 237.815826 
L 156.058597 217.163564 
L 158.392519 201.057349 
L 159.559481 194.006592 
L 160.726442 188.02136 
L 161.893403 183.325278 
L 162.476883 181.506744 
L 163.060364 180.053751 
L 163.643844 178.968141 
L 164.227325 178.246062 
L 164.810805 177.878527 
L 165.394286 177.851956 
L 165.977766 178.149001 
L 166.561247 178.749298 
L 167.144727 179.630212 
L 168.311688 182.136517 
L 169.478649 185.468585 
L 171.229091 191.591536 
L 173.563013 200.973472 
L 179.397818 225.001341 
L 181.73174 233.614627 
L 184.065662 241.392708 
L 186.399584 248.316692 
L 188.733506 254.420674 
L 191.067429 259.765575 
L 193.401351 264.423422 
L 195.735273 268.468574 
L 198.069195 271.972685 
L 200.403117 275.002387 
L 202.737039 277.618136 
L 205.070961 279.873976 
L 207.404883 281.81773 
L 209.738805 283.491425 
L 212.072727 284.931807 
L 214.99013 286.452461 
L 217.907532 287.711534 
L 220.824935 288.75358 
L 224.325818 289.769343 
L 228.410182 290.695915 
L 233.078026 291.492817 
L 238.329351 292.142109 
L 244.747636 292.685522 
L 252.332883 293.093048 
L 262.252052 293.395887 
L 276.839065 293.599722 
L 303.095688 293.70441 
L 393.535169 293.727214 
L 497.978182 293.727273 
L 497.978182 293.727273 
" style="fill:none;stroke:#ff7f0e;stroke-linecap:square;stroke-width:1.5;"/>
   </g>
   <g id="line2d_18">
    <path clip-path="url(#p019fe0246a)" d="M 89.541818 293.72305 
L 115.214961 293.686149 
L 126.884571 293.505912 
L 132.719377 293.214662 
L 136.80374 292.806232 
L 139.721143 292.32988 
L 142.638545 291.611905 
L 144.972468 290.786845 
L 146.722909 289.970204 
L 148.473351 288.937035 
L 150.223792 287.636374 
L 151.974234 286.009242 
L 153.724675 283.989973 
L 155.475117 281.509436 
L 157.225558 278.501229 
L 158.976 274.911703 
L 160.726442 270.714541 
L 162.476883 265.929557 
L 164.810805 258.796527 
L 170.06213 242.249991 
L 171.812571 237.798706 
L 172.979532 235.445712 
L 174.146494 233.684002 
L 174.729974 233.043722 
L 175.313455 232.570182 
L 175.896935 232.265672 
L 176.480416 232.130511 
L 177.063896 232.16307 
L 177.647377 232.35992 
L 178.230857 232.715884 
L 179.397818 233.877043 
L 180.564779 235.57817 
L 181.73174 237.736384 
L 183.482182 241.632388 
L 185.816104 247.586218 
L 191.067429 261.35024 
L 193.401351 266.789651 
L 195.735273 271.574771 
L 197.485714 274.714143 
L 199.236156 277.478659 
L 200.986597 279.890953 
L 202.737039 281.980332 
L 204.487481 283.779043 
L 206.237922 285.319832 
L 208.571844 287.027318 
L 210.905766 288.40097 
L 213.239688 289.501031 
L 215.57361 290.378913 
L 218.491013 291.228501 
L 221.991896 291.971653 
L 226.07626 292.56624 
L 230.744104 293.004569 
L 237.16239 293.351267 
L 245.914597 293.573252 
L 261.085091 293.694536 
L 304.84613 293.726901 
L 497.978182 293.727273 
L 497.978182 293.727273 
" style="fill:none;stroke:#2ca02c;stroke-linecap:square;stroke-width:1.5;"/>
   </g>
   <g id="line2d_19">
    <path clip-path="url(#p019fe0246a)" d="M 89.541818 293.72305 
L 119.299325 293.696301 
L 135.636779 293.533159 
L 143.805506 293.242947 
L 149.056831 292.858394 
L 153.141195 292.362929 
L 156.642078 291.726086 
L 159.559481 290.984016 
L 162.476883 289.984909 
L 164.810805 288.951554 
L 167.144727 287.66536 
L 169.478649 286.084563 
L 171.812571 284.172904 
L 174.146494 281.908347 
L 176.480416 279.295124 
L 179.397818 275.611696 
L 186.399584 266.413308 
L 188.150026 264.544664 
L 189.900468 263.05874 
L 191.067429 262.32482 
L 192.23439 261.819489 
L 193.401351 261.555249 
L 194.568312 261.537166 
L 195.735273 261.762808 
L 196.902234 262.222429 
L 198.069195 262.899838 
L 199.819636 264.275862 
L 201.570078 266.003805 
L 203.904 268.685424 
L 212.656208 279.293612 
L 214.99013 281.674639 
L 217.324052 283.761155 
L 219.657974 285.552696 
L 221.991896 287.066263 
L 224.325818 288.328613 
L 226.65974 289.370685 
L 229.577143 290.41121 
L 232.494545 291.213729 
L 235.995429 291.932109 
L 240.079792 292.520015 
L 244.747636 292.962879 
L 251.165922 293.321098 
L 259.91813 293.556419 
L 274.505143 293.687095 
L 313.014857 293.726394 
L 497.978182 293.727273 
L 497.978182 293.727273 
" style="fill:none;stroke:#d62728;stroke-linecap:square;stroke-width:1.5;"/>
   </g>
   <g id="line2d_20">
    <path clip-path="url(#p019fe0246a)" d="M 89.541818 293.72305 
L 123.383688 293.707695 
L 149.056831 293.560913 
L 160.726442 293.290228 
L 168.311688 292.913994 
L 174.146494 292.425108 
L 179.397818 291.755115 
L 183.482182 291.026051 
L 187.566545 290.06496 
L 191.067429 289.024223 
L 194.568312 287.7652 
L 198.069195 286.29132 
L 202.737039 284.060539 
L 210.322286 280.375472 
L 213.239688 279.228798 
L 215.57361 278.530908 
L 217.907532 278.076676 
L 220.241455 277.895577 
L 222.575377 277.998381 
L 224.909299 278.375739 
L 227.243221 278.99987 
L 230.160623 280.061933 
L 233.661506 281.616674 
L 245.331117 287.045156 
L 249.415481 288.566342 
L 252.916364 289.648194 
L 257.000727 290.665485 
L 261.085091 291.452361 
L 265.752935 292.122008 
L 271.00426 292.651755 
L 277.422545 293.073217 
L 285.591273 293.382593 
L 297.260883 293.590288 
L 317.682701 293.700237 
L 382.449039 293.727112 
L 497.978182 293.727273 
L 497.978182 293.727273 
" style="fill:none;stroke:#9467bd;stroke-linecap:square;stroke-width:1.5;"/>
   </g>
   <g id="line2d_21">
    <path clip-path="url(#p019fe0246a)" d="M 89.541818 293.72305 
L 126.884571 293.716825 
L 172.979532 293.580693 
L 191.067429 293.320507 
L 203.320519 292.929163 
L 212.656208 292.41863 
L 220.824935 291.755132 
L 228.410182 290.922132 
L 237.16239 289.718633 
L 252.332883 287.563662 
L 257.584208 287.077226 
L 262.252052 286.865899 
L 266.919896 286.89209 
L 271.58774 287.151288 
L 276.839065 287.676847 
L 283.840831 288.625616 
L 300.761766 291.005527 
L 308.347013 291.807759 
L 316.51574 292.446375 
L 325.851429 292.939619 
L 336.937558 293.294037 
L 352.108052 293.53973 
L 376.030753 293.678126 
L 433.795325 293.725381 
L 497.978182 293.727222 
L 497.978182 293.727222 
" style="fill:none;stroke:#8c564b;stroke-linecap:square;stroke-width:1.5;"/>
   </g>
   <g id="line2d_22">
    <path clip-path="url(#p019fe0246a)" d="M 89.541818 293.72305 
L 129.218494 293.722298 
L 224.909299 293.596656 
L 258.167688 293.340819 
L 282.09039 292.937516 
L 305.42961 292.312642 
L 334.603636 291.533476 
L 348.023688 291.417471 
L 360.86026 291.527834 
L 376.614234 291.897168 
L 422.709195 293.111875 
L 446.631896 293.432373 
L 479.306805 293.626259 
L 497.978182 293.673328 
L 497.978182 293.673328 
" style="fill:none;stroke:#e377c2;stroke-linecap:square;stroke-width:1.5;"/>
   </g>
   <g id="line2d_23">
    <path clip-path="url(#p019fe0246a)" d="M 89.541818 293.72305 
L 129.801974 293.724967 
L 425.626597 293.601673 
L 497.978182 293.470059 
L 497.978182 293.470059 
" style="fill:none;stroke:#7f7f7f;stroke-linecap:square;stroke-width:1.5;"/>
   </g>
   <g id="line2d_24">
    <path clip-path="url(#p019fe0246a)" d="M 89.541818 293.72305 
L 130.385455 293.726116 
L 497.978182 293.726969 
L 497.978182 293.726969 
" style="fill:none;stroke:#bcbd22;stroke-linecap:square;stroke-width:1.5;"/>
   </g>
   <g id="line2d_25">
    <path clip-path="url(#p019fe0246a)" d="M 89.541818 293.72305 
L 130.385455 293.726656 
L 497.978182 293.727273 
L 497.978182 293.727273 
" style="fill:none;stroke:#17becf;stroke-linecap:square;stroke-width:1.5;"/>
   </g>
   <g id="line2d_26">
    <path clip-path="url(#p019fe0246a)" d="M 89.541818 293.72305 
L 130.385455 293.72691 
L 497.978182 293.727273 
L 497.978182 293.727273 
" style="fill:none;stroke:#1f77b4;stroke-linecap:square;stroke-width:1.5;"/>
   </g>
   <g id="patch_3">
    <path d="M 69.12 306 
L 69.12 36 
" style="fill:none;stroke:#000000;stroke-linecap:square;stroke-linejoin:miter;stroke-width:0.8;"/>
   </g>
   <g id="patch_4">
    <path d="M 518.4 306 
L 518.4 36 
" style="fill:none;stroke:#000000;stroke-linecap:square;stroke-linejoin:miter;stroke-width:0.8;"/>
   </g>
   <g id="patch_5">
    <path d="M 69.12 306 
L 518.4 306 
" style="fill:none;stroke:#000000;stroke-linecap:square;stroke-linejoin:miter;stroke-width:0.8;"/>
   </g>
   <g id="patch_6">
    <path d="M 69.12 36 
L 518.4 36 
" style="fill:none;stroke:#000000;stroke-linecap:square;stroke-linejoin:miter;stroke-width:0.8;"/>
   </g>
   <g id="text_18">
    <!-- 感染者 -->
    <defs>
     <path d="M 95.703125 29.6875 
Q 92.1875 18.75 89.453125 17.375 
Q 86.71875 16.015625 81.828125 17.765625 
Q 76.953125 19.53125 69.140625 26.5625 
Q 64.453125 21.484375 58.203125 17.1875 
Q 55.46875 20.3125 52.34375 21.875 
Q 60.546875 26.5625 65.234375 32.03125 
Q 60.9375 39.0625 58.78125 47.453125 
Q 56.640625 55.859375 55.859375 63.28125 
L 20.703125 63.28125 
Q 20.703125 45.703125 20.109375 39.453125 
Q 19.53125 33.203125 17.578125 27.734375 
Q 15.625 22.265625 11.71875 16.015625 
Q 7.03125 19.140625 4.296875 19.921875 
Q 8.984375 25.78125 11.125 31.4375 
Q 13.28125 37.109375 13.671875 44.53125 
Q 14.0625 51.953125 13.671875 69.53125 
L 55.078125 69.53125 
Q 55.078125 72.65625 54.6875 80.859375 
Q 58.203125 80.078125 62.890625 79.6875 
Q 62.109375 75 62.5 69.53125 
L 79.6875 69.53125 
Q 85.15625 69.53125 92.578125 69.921875 
L 92.578125 62.890625 
Q 85.15625 63.28125 80.078125 63.28125 
L 62.890625 63.28125 
Q 64.453125 46.875 69.53125 38.671875 
Q 71.875 42.578125 73.828125 48.234375 
Q 75.78125 53.90625 76.953125 58.984375 
Q 80.859375 57.421875 85.15625 56.25 
Q 83.59375 54.6875 81.046875 47.65625 
Q 78.515625 40.625 73.828125 32.03125 
Q 78.125 28.125 81.4375 26.171875 
Q 84.765625 24.21875 85.734375 25.390625 
Q 86.71875 26.5625 88.28125 33.59375 
Q 91.40625 30.859375 95.703125 29.6875 
z
M 51.953125 25 
L 24.609375 25 
L 24.609375 44.921875 
L 51.953125 44.921875 
z
M 76.171875 2.734375 
Q 73.4375 -5.078125 71.484375 -6.4375 
Q 69.53125 -7.8125 66.40625 -7.8125 
L 36.71875 -7.8125 
Q 31.640625 -7.421875 30.65625 -3.125 
Q 29.6875 1.171875 29.6875 5.078125 
Q 29.6875 8.984375 29.296875 14.453125 
L 37.5 14.453125 
Q 37.109375 7.8125 37.109375 5.078125 
Q 37.109375 2.734375 37.5 0.390625 
Q 37.890625 -1.953125 42.578125 -1.5625 
L 60.546875 -1.5625 
Q 64.453125 -1.5625 65.8125 -0.1875 
Q 67.1875 1.171875 67.96875 7.03125 
Q 71.09375 4.6875 76.171875 2.734375 
z
M 51.5625 51.171875 
L 25 51.171875 
L 25 57.03125 
L 51.5625 57.03125 
z
M 83.59375 14.0625 
Q 92.1875 3.515625 94.921875 -0.78125 
Q 91.015625 -3.125 87.890625 -5.46875 
Q 83.984375 1.953125 77.34375 9.375 
Q 80.078125 11.328125 83.59375 14.0625 
z
M 7.421875 -2.734375 
Q 10.9375 1.5625 15.234375 14.453125 
Q 18.359375 12.890625 22.65625 11.328125 
Q 17.578125 -0.390625 14.84375 -5.859375 
Q 11.71875 -4.296875 7.421875 -2.734375 
z
M 45.703125 30.46875 
L 45.703125 39.453125 
L 30.859375 39.453125 
L 30.859375 30.46875 
z
M 42.578125 16.40625 
Q 44.921875 18.359375 48.4375 20.703125 
Q 55.078125 12.109375 57.03125 8.59375 
Q 53.90625 6.640625 51.171875 3.90625 
Q 48.828125 8.203125 42.578125 16.40625 
z
M 76.5625 70.3125 
Q 74.21875 72.265625 67.96875 76.5625 
Q 70.3125 79.296875 71.875 81.640625 
Q 74.609375 80.078125 81.25 75 
Q 78.90625 73.046875 76.5625 70.3125 
z
" id="SimHei-24863"/>
     <path d="M 91.015625 -7.03125 
Q 74.21875 -2.34375 66.40625 3.90625 
Q 58.59375 10.15625 53.90625 17.96875 
Q 53.90625 -4.6875 54.296875 -9.375 
L 46.09375 -9.375 
Q 46.484375 -4.296875 46.484375 16.796875 
Q 40.625 8.59375 31.4375 2.34375 
Q 22.265625 -3.90625 9.765625 -8.984375 
Q 8.59375 -5.078125 3.125 -1.5625 
Q 16.796875 1.5625 25.96875 7.609375 
Q 35.15625 13.671875 38.671875 19.140625 
L 19.140625 19.140625 
Q 13.671875 19.140625 6.25 18.75 
L 6.25 25.78125 
Q 13.671875 25.390625 19.140625 25.390625 
L 46.484375 25.390625 
Q 46.484375 28.515625 46.09375 33.59375 
L 54.296875 33.59375 
Q 53.90625 28.90625 53.90625 25.390625 
L 82.8125 25.390625 
Q 87.890625 25.390625 93.75 25.78125 
L 93.75 18.75 
Q 87.890625 19.140625 82.8125 19.140625 
L 61.71875 19.140625 
Q 67.96875 10.546875 78.125 6.25 
Q 88.28125 1.953125 96.484375 1.171875 
Q 91.40625 -3.90625 91.015625 -7.03125 
z
M 28.515625 35.9375 
Q 39.84375 40.234375 45.703125 47.0625 
Q 51.5625 53.90625 53.125 62.5 
Q 47.265625 62.5 40.234375 62.109375 
L 40.234375 69.140625 
Q 47.65625 68.75 53.515625 68.75 
Q 53.90625 76.953125 53.515625 82.03125 
Q 58.203125 80.859375 62.5 80.859375 
Q 61.328125 78.515625 60.9375 68.75 
L 80.078125 68.75 
Q 79.6875 64.84375 79.296875 60.15625 
L 78.125 44.53125 
Q 78.515625 40.625 80.859375 40.625 
L 85.15625 40.625 
Q 87.109375 40.625 87.6875 42.1875 
Q 88.28125 43.75 88.671875 50 
Q 91.796875 47.265625 96.875 46.875 
Q 95.3125 36.328125 92.375 35.34375 
Q 89.453125 34.375 84.171875 34.171875 
Q 78.90625 33.984375 74.796875 34.953125 
Q 70.703125 35.9375 71.09375 42.1875 
L 72.265625 62.5 
L 60.546875 62.5 
Q 59.375 53.515625 54.296875 45.890625 
Q 49.21875 38.28125 35.546875 30.078125 
Q 33.984375 32.8125 28.515625 35.9375 
z
M 33.984375 45.703125 
Q 19.140625 33.984375 13.28125 29.296875 
Q 10.9375 33.203125 7.8125 35.9375 
Q 17.1875 40.625 31.25 52.734375 
Q 32.03125 49.609375 33.984375 45.703125 
z
M 10.546875 64.84375 
Q 21.484375 59.765625 27.34375 56.25 
Q 24.609375 52.734375 23.046875 49.609375 
Q 19.140625 53.125 7.03125 58.59375 
Q 9.375 61.328125 10.546875 64.84375 
z
M 28.90625 64.84375 
Q 23.046875 69.921875 14.0625 74.609375 
Q 16.015625 76.953125 18.359375 80.078125 
Q 27.34375 75 33.984375 71.09375 
Q 30.46875 67.578125 28.90625 64.84375 
z
" id="SimHei-26579"/>
     <path d="M 88.28125 67.578125 
Q 85.15625 64.84375 81.046875 60.546875 
Q 76.953125 56.25 69.53125 48.828125 
L 80.46875 48.828125 
Q 87.109375 48.828125 94.140625 49.21875 
L 94.140625 42.1875 
Q 87.109375 42.578125 80.078125 42.578125 
L 61.71875 42.578125 
Q 55.46875 37.890625 47.65625 32.421875 
L 80.859375 32.421875 
Q 80.46875 25.390625 80.46875 19.53125 
L 80.46875 5.859375 
Q 80.46875 -1.171875 80.859375 -9.375 
L 73.046875 -9.375 
L 73.046875 -3.515625 
L 35.546875 -3.515625 
L 35.546875 -9.375 
L 27.34375 -9.375 
Q 27.734375 -3.125 27.734375 2.34375 
L 27.734375 20.3125 
Q 19.921875 16.015625 10.15625 11.71875 
Q 6.25 17.1875 4.6875 18.359375 
Q 7.421875 19.140625 15.03125 22.0625 
Q 22.65625 25 27.734375 28.515625 
L 27.734375 32.421875 
L 35.15625 32.421875 
Q 43.75 37.109375 50.390625 42.578125 
L 22.65625 42.578125 
Q 14.453125 42.578125 7.421875 42.1875 
L 7.421875 49.21875 
Q 15.234375 48.828125 22.65625 48.828125 
L 43.359375 48.828125 
L 43.359375 60.9375 
L 31.640625 60.9375 
Q 25 60.9375 19.53125 60.546875 
L 19.53125 67.578125 
Q 25 67.1875 31.640625 67.1875 
L 43.359375 67.1875 
Q 43.359375 73.046875 42.96875 80.46875 
L 51.5625 80.46875 
Q 51.171875 75 51.171875 67.1875 
L 57.03125 67.1875 
Q 62.109375 67.1875 68.75 67.578125 
L 68.75 60.546875 
Q 62.109375 60.9375 57.03125 60.9375 
L 51.171875 60.9375 
L 51.171875 48.828125 
L 58.984375 48.828125 
Q 64.453125 53.125 69.921875 58.984375 
Q 75.390625 64.84375 81.25 73.828125 
Q 85.546875 69.53125 88.28125 67.578125 
z
M 73.046875 2.734375 
L 73.046875 11.71875 
L 35.546875 11.71875 
L 35.546875 2.734375 
z
M 73.046875 17.96875 
L 73.046875 26.171875 
L 35.546875 26.171875 
L 35.546875 17.96875 
z
" id="SimHei-32773"/>
    </defs>
    <g transform="translate(260.76 30)scale(0.22 -0.22)">
     <use xlink:href="#SimHei-24863"/>
     <use x="100" xlink:href="#SimHei-26579"/>
     <use x="200" xlink:href="#SimHei-32773"/>
    </g>
   </g>
   <g id="legend_1">
    <g id="patch_7">
     <path d="M 400 290 
L 507.2 290 
Q 510.4 290 510.4 286.8 
L 510.4 55.2 
Q 510.4 52 507.2 52 
L 400 52 
Q 396.8 52 396.8 55.2 
L 396.8 286.8 
Q 396.8 290 400 290 
z
" style="fill:#ffffff;opacity:0.8;stroke:#cccccc;stroke-linejoin:miter;"/>
    </g>
    <g id="line2d_27">
     <path d="M 403.2 64 
L 435.2 64 
" style="fill:none;stroke:#1f77b4;stroke-linecap:square;stroke-width:1.5;"/>
    </g>
    <g id="line2d_28"/>
    <g id="text_19">
     <!-- k = 0.0 -->
     <defs>
      <path d="M 45.703125 1.953125 
L 36.71875 1.953125 
L 22.65625 25.78125 
L 13.671875 17.1875 
L 13.671875 1.953125 
L 5.859375 1.953125 
L 5.859375 68.75 
L 13.671875 68.75 
L 13.671875 26.171875 
L 33.203125 45.703125 
L 42.96875 45.703125 
L 27.734375 30.859375 
z
" id="SimHei-107"/>
      <path id="SimHei-32"/>
      <path d="M 46.484375 45.3125 
L 1.953125 45.3125 
L 1.953125 51.5625 
L 46.484375 51.5625 
z
M 46.484375 21.484375 
L 1.953125 21.484375 
L 1.953125 27.734375 
L 46.484375 27.734375 
z
" id="SimHei-61"/>
      <path d="M 16.796875 1.953125 
L 7.8125 1.953125 
L 7.8125 10.546875 
L 16.796875 10.546875 
z
" id="SimHei-46"/>
     </defs>
     <g transform="translate(448 69.6)scale(0.16 -0.16)">
      <use xlink:href="#SimHei-107"/>
      <use x="50" xlink:href="#SimHei-32"/>
      <use x="100" xlink:href="#SimHei-61"/>
      <use x="150" xlink:href="#SimHei-32"/>
      <use x="200" xlink:href="#SimHei-48"/>
      <use x="250" xlink:href="#SimHei-46"/>
      <use x="300" xlink:href="#SimHei-48"/>
     </g>
    </g>
    <g id="line2d_29">
     <path d="M 403.2 85.2 
L 435.2 85.2 
" style="fill:none;stroke:#ff7f0e;stroke-linecap:square;stroke-width:1.5;"/>
    </g>
    <g id="line2d_30"/>
    <g id="text_20">
     <!-- k = 0.1 -->
     <g transform="translate(448 90.8)scale(0.16 -0.16)">
      <use xlink:href="#SimHei-107"/>
      <use x="50" xlink:href="#SimHei-32"/>
      <use x="100" xlink:href="#SimHei-61"/>
      <use x="150" xlink:href="#SimHei-32"/>
      <use x="200" xlink:href="#SimHei-48"/>
      <use x="250" xlink:href="#SimHei-46"/>
      <use x="300" xlink:href="#SimHei-49"/>
     </g>
    </g>
    <g id="line2d_31">
     <path d="M 403.2 106.4 
L 435.2 106.4 
" style="fill:none;stroke:#2ca02c;stroke-linecap:square;stroke-width:1.5;"/>
    </g>
    <g id="line2d_32"/>
    <g id="text_21">
     <!-- k = 0.2 -->
     <g transform="translate(448 112)scale(0.16 -0.16)">
      <use xlink:href="#SimHei-107"/>
      <use x="50" xlink:href="#SimHei-32"/>
      <use x="100" xlink:href="#SimHei-61"/>
      <use x="150" xlink:href="#SimHei-32"/>
      <use x="200" xlink:href="#SimHei-48"/>
      <use x="250" xlink:href="#SimHei-46"/>
      <use x="300" xlink:href="#SimHei-50"/>
     </g>
    </g>
    <g id="line2d_33">
     <path d="M 403.2 127.6 
L 435.2 127.6 
" style="fill:none;stroke:#d62728;stroke-linecap:square;stroke-width:1.5;"/>
    </g>
    <g id="line2d_34"/>
    <g id="text_22">
     <!-- k = 0.3 -->
     <g transform="translate(448 133.2)scale(0.16 -0.16)">
      <use xlink:href="#SimHei-107"/>
      <use x="50" xlink:href="#SimHei-32"/>
      <use x="100" xlink:href="#SimHei-61"/>
      <use x="150" xlink:href="#SimHei-32"/>
      <use x="200" xlink:href="#SimHei-48"/>
      <use x="250" xlink:href="#SimHei-46"/>
      <use x="300" xlink:href="#SimHei-51"/>
     </g>
    </g>
    <g id="line2d_35">
     <path d="M 403.2 148.8 
L 435.2 148.8 
" style="fill:none;stroke:#9467bd;stroke-linecap:square;stroke-width:1.5;"/>
    </g>
    <g id="line2d_36"/>
    <g id="text_23">
     <!-- k = 0.4 -->
     <g transform="translate(448 154.4)scale(0.16 -0.16)">
      <use xlink:href="#SimHei-107"/>
      <use x="50" xlink:href="#SimHei-32"/>
      <use x="100" xlink:href="#SimHei-61"/>
      <use x="150" xlink:href="#SimHei-32"/>
      <use x="200" xlink:href="#SimHei-48"/>
      <use x="250" xlink:href="#SimHei-46"/>
      <use x="300" xlink:href="#SimHei-52"/>
     </g>
    </g>
    <g id="line2d_37">
     <path d="M 403.2 170 
L 435.2 170 
" style="fill:none;stroke:#8c564b;stroke-linecap:square;stroke-width:1.5;"/>
    </g>
    <g id="line2d_38"/>
    <g id="text_24">
     <!-- k = 0.5 -->
     <g transform="translate(448 175.6)scale(0.16 -0.16)">
      <use xlink:href="#SimHei-107"/>
      <use x="50" xlink:href="#SimHei-32"/>
      <use x="100" xlink:href="#SimHei-61"/>
      <use x="150" xlink:href="#SimHei-32"/>
      <use x="200" xlink:href="#SimHei-48"/>
      <use x="250" xlink:href="#SimHei-46"/>
      <use x="300" xlink:href="#SimHei-53"/>
     </g>
    </g>
    <g id="line2d_39">
     <path d="M 403.2 191.2 
L 435.2 191.2 
" style="fill:none;stroke:#e377c2;stroke-linecap:square;stroke-width:1.5;"/>
    </g>
    <g id="line2d_40"/>
    <g id="text_25">
     <!-- k = 0.6 -->
     <g transform="translate(448 196.8)scale(0.16 -0.16)">
      <use xlink:href="#SimHei-107"/>
      <use x="50" xlink:href="#SimHei-32"/>
      <use x="100" xlink:href="#SimHei-61"/>
      <use x="150" xlink:href="#SimHei-32"/>
      <use x="200" xlink:href="#SimHei-48"/>
      <use x="250" xlink:href="#SimHei-46"/>
      <use x="300" xlink:href="#SimHei-54"/>
     </g>
    </g>
    <g id="line2d_41">
     <path d="M 403.2 212.4 
L 435.2 212.4 
" style="fill:none;stroke:#7f7f7f;stroke-linecap:square;stroke-width:1.5;"/>
    </g>
    <g id="line2d_42"/>
    <g id="text_26">
     <!-- k = 0.7 -->
     <g transform="translate(448 218)scale(0.16 -0.16)">
      <use xlink:href="#SimHei-107"/>
      <use x="50" xlink:href="#SimHei-32"/>
      <use x="100" xlink:href="#SimHei-61"/>
      <use x="150" xlink:href="#SimHei-32"/>
      <use x="200" xlink:href="#SimHei-48"/>
      <use x="250" xlink:href="#SimHei-46"/>
      <use x="300" xlink:href="#SimHei-55"/>
     </g>
    </g>
    <g id="line2d_43">
     <path d="M 403.2 233.6 
L 435.2 233.6 
" style="fill:none;stroke:#bcbd22;stroke-linecap:square;stroke-width:1.5;"/>
    </g>
    <g id="line2d_44"/>
    <g id="text_27">
     <!-- k = 0.8 -->
     <defs>
      <path d="M 2.734375 16.796875 
Q 2.734375 26.171875 5.078125 30.65625 
Q 7.421875 35.15625 12.890625 37.890625 
Q 8.203125 40.625 6.640625 43.9375 
Q 5.078125 47.265625 4.875 51.5625 
Q 4.6875 55.859375 6.046875 58.984375 
Q 7.421875 62.109375 10.15625 64.84375 
Q 12.890625 67.578125 16.203125 68.546875 
Q 19.53125 69.53125 23.4375 69.53125 
Q 27.34375 69.53125 30.46875 68.75 
Q 33.59375 67.96875 37.109375 65.421875 
Q 40.625 62.890625 42.1875 58.203125 
Q 43.75 53.515625 41.984375 47.265625 
Q 40.234375 41.015625 32.8125 37.5 
Q 39.453125 35.546875 42.1875 31.4375 
Q 44.921875 27.34375 44.921875 21.484375 
Q 44.921875 15.625 43.15625 12.109375 
Q 41.40625 8.59375 39.25 6.25 
Q 37.109375 3.90625 33.390625 2.53125 
Q 29.6875 1.171875 24.015625 1.171875 
Q 18.359375 1.171875 14.25 2.53125 
Q 10.15625 3.90625 7.421875 6.640625 
Q 4.6875 9.375 3.703125 13.078125 
Q 2.734375 16.796875 2.734375 26.171875 
z
M 10.9375 26.5625 
Q 10.546875 17.1875 12.296875 13.671875 
Q 14.0625 10.15625 18.75 9.171875 
Q 23.4375 8.203125 28.515625 9.375 
Q 33.59375 10.546875 35.546875 14.84375 
Q 37.5 19.140625 36.90625 23.4375 
Q 36.328125 27.734375 32.03125 30.65625 
Q 27.734375 33.59375 22.65625 33.203125 
Q 17.578125 32.8125 14.25 29.6875 
Q 10.9375 26.5625 10.546875 17.1875 
z
M 12.109375 56.25 
Q 12.109375 48.4375 14.84375 44.921875 
Q 17.578125 41.40625 23.4375 41.40625 
Q 29.296875 41.40625 32.21875 44.921875 
Q 35.15625 48.4375 34.953125 53.3125 
Q 34.765625 58.203125 31.4375 60.546875 
Q 28.125 62.890625 22.453125 62.5 
Q 16.796875 62.109375 14.453125 59.171875 
Q 12.109375 56.25 12.109375 48.4375 
z
" id="SimHei-56"/>
     </defs>
     <g transform="translate(448 239.2)scale(0.16 -0.16)">
      <use xlink:href="#SimHei-107"/>
      <use x="50" xlink:href="#SimHei-32"/>
      <use x="100" xlink:href="#SimHei-61"/>
      <use x="150" xlink:href="#SimHei-32"/>
      <use x="200" xlink:href="#SimHei-48"/>
      <use x="250" xlink:href="#SimHei-46"/>
      <use x="300" xlink:href="#SimHei-56"/>
     </g>
    </g>
    <g id="line2d_45">
     <path d="M 403.2 254.8 
L 435.2 254.8 
" style="fill:none;stroke:#17becf;stroke-linecap:square;stroke-width:1.5;"/>
    </g>
    <g id="line2d_46"/>
    <g id="text_28">
     <!-- k = 0.9 -->
     <defs>
      <path d="M 12.5 1.171875 
Q 21.09375 15.625 26.5625 27.34375 
Q 16.796875 25.78125 10.34375 29.875 
Q 3.90625 33.984375 2.53125 41.015625 
Q 1.171875 48.046875 2.734375 53.703125 
Q 4.296875 59.375 7.609375 63.078125 
Q 10.9375 66.796875 15.625 68.359375 
Q 20.3125 69.921875 24.015625 69.921875 
Q 27.734375 69.921875 31.640625 68.359375 
Q 35.546875 66.796875 38.671875 63.671875 
Q 41.796875 60.546875 42.96875 57.21875 
Q 44.140625 53.90625 44.140625 48.625 
Q 44.140625 43.359375 40.234375 35.15625 
Q 36.328125 26.953125 21.09375 1.171875 
z
M 9.765625 50 
Q 10.9375 39.84375 14.640625 36.515625 
Q 18.359375 33.203125 22.65625 33.59375 
Q 26.953125 33.984375 29.484375 35.9375 
Q 32.03125 37.890625 34.375 42.578125 
Q 35.9375 48.4375 35.15625 52.53125 
Q 34.375 56.640625 31.046875 59.375 
Q 27.734375 62.109375 23.828125 62.109375 
Q 21.484375 62.5 17.765625 60.9375 
Q 14.0625 59.375 11.90625 54.6875 
Q 9.765625 50 10.9375 39.84375 
z
" id="SimHei-57"/>
     </defs>
     <g transform="translate(448 260.4)scale(0.16 -0.16)">
      <use xlink:href="#SimHei-107"/>
      <use x="50" xlink:href="#SimHei-32"/>
      <use x="100" xlink:href="#SimHei-61"/>
      <use x="150" xlink:href="#SimHei-32"/>
      <use x="200" xlink:href="#SimHei-48"/>
      <use x="250" xlink:href="#SimHei-46"/>
      <use x="300" xlink:href="#SimHei-57"/>
     </g>
    </g>
    <g id="line2d_47">
     <path d="M 403.2 276 
L 435.2 276 
" style="fill:none;stroke:#1f77b4;stroke-linecap:square;stroke-width:1.5;"/>
    </g>
    <g id="line2d_48"/>
    <g id="text_29">
     <!-- k = 1.0 -->
     <g transform="translate(448 281.6)scale(0.16 -0.16)">
      <use xlink:href="#SimHei-107"/>
      <use x="50" xlink:href="#SimHei-32"/>
      <use x="100" xlink:href="#SimHei-61"/>
      <use x="150" xlink:href="#SimHei-32"/>
      <use x="200" xlink:href="#SimHei-49"/>
      <use x="250" xlink:href="#SimHei-46"/>
      <use x="300" xlink:href="#SimHei-48"/>
     </g>
    </g>
   </g>
  </g>
 </g>
 <defs>
  <clipPath id="p019fe0246a">
   <rect height="270" width="449.28" x="69.12" y="36"/>
  </clipPath>
 </defs>
</svg>
