<?xml version="1.0" encoding="utf-8" standalone="no"?>
<!DOCTYPE svg PUBLIC "-//W3C//DTD SVG 1.1//EN"
  "http://www.w3.org/Graphics/SVG/1.1/DTD/svg11.dtd">
<!-- Created with matplotlib (https://matplotlib.org/) -->
<svg height="360pt" version="1.1" viewBox="0 0 432 360" width="432pt" xmlns="http://www.w3.org/2000/svg" xmlns:xlink="http://www.w3.org/1999/xlink">
 <defs>
  <style type="text/css">
*{stroke-linecap:butt;stroke-linejoin:round;}
  </style>
 </defs>
 <g id="figure_1">
  <g id="patch_1">
   <path d="M 0 360 
L 432 360 
L 432 0 
L 0 0 
z
" style="fill:#ffffff;"/>
  </g>
  <g id="axes_1">
   <g id="patch_2">
    <path d="M 54 320.4 
L 388.8 320.4 
L 388.8 43.2 
L 54 43.2 
z
" style="fill:#ffffff;"/>
   </g>
   <g id="matplotlib.axis_1">
    <g id="xtick_1">
     <g id="line2d_1">
      <defs>
       <path d="M 0 0 
L 0 3.5 
" id="m85f185e2c9" style="stroke:#000000;stroke-width:0.8;"/>
      </defs>
      <g>
       <use style="stroke:#000000;stroke-width:0.8;" x="54" xlink:href="#m85f185e2c9" y="320.4"/>
      </g>
     </g>
     <g id="text_1">
      <!-- 0.0 -->
      <defs>
       <path d="M 3.125 29.296875 
Q 3.90625 50 6.4375 56.046875 
Q 8.984375 62.109375 13.671875 66.015625 
Q 18.359375 69.921875 25.1875 69.921875 
Q 32.03125 69.921875 37.109375 64.25 
Q 42.1875 58.59375 43.75 50 
Q 45.3125 41.40625 44.71875 30.265625 
Q 44.140625 19.140625 40.8125 12.109375 
Q 37.5 5.078125 30.859375 2.34375 
Q 24.21875 -0.390625 17.578125 2.921875 
Q 10.9375 6.25 8.203125 11.71875 
Q 5.46875 17.1875 4.296875 23.234375 
Q 3.125 29.296875 3.90625 50 
z
M 12.890625 52.734375 
Q 10.546875 31.25 12.5 22.84375 
Q 14.453125 14.453125 18.9375 10.9375 
Q 23.4375 7.421875 28.125 9.5625 
Q 32.8125 11.71875 34.953125 18.15625 
Q 37.109375 24.609375 37.109375 32.21875 
Q 37.109375 39.84375 36.515625 46.09375 
Q 35.9375 52.34375 33 57.421875 
Q 30.078125 62.5 25.1875 62.6875 
Q 20.3125 62.890625 16.59375 57.8125 
Q 12.890625 52.734375 10.546875 31.25 
z
" id="SimHei-48"/>
       <path d="M 16.796875 1.953125 
L 7.8125 1.953125 
L 7.8125 10.546875 
L 16.796875 10.546875 
z
" id="SimHei-46"/>
      </defs>
      <g transform="translate(46.5 334.275)scale(0.1 -0.1)">
       <use xlink:href="#SimHei-48"/>
       <use x="50" xlink:href="#SimHei-46"/>
       <use x="100" xlink:href="#SimHei-48"/>
      </g>
     </g>
    </g>
    <g id="xtick_2">
     <g id="line2d_2">
      <g>
       <use style="stroke:#000000;stroke-width:0.8;" x="120.96" xlink:href="#m85f185e2c9" y="320.4"/>
      </g>
     </g>
     <g id="text_2">
      <!-- 0.2 -->
      <defs>
       <path d="M 4.6875 3.90625 
Q 5.078125 9.765625 10.15625 14.453125 
Q 15.234375 19.140625 23.046875 29.09375 
Q 30.859375 39.0625 33.203125 44.53125 
Q 35.546875 50 34.953125 53.90625 
Q 34.375 57.8125 31.25 60.34375 
Q 28.125 62.890625 24.015625 62.5 
Q 19.921875 62.109375 16.203125 59.375 
Q 12.5 56.640625 10.546875 51.171875 
L 3.125 52.34375 
Q 6.25 61.328125 11.125 65.421875 
Q 16.015625 69.53125 22.65625 69.921875 
Q 26.5625 70.3125 29.6875 69.71875 
Q 32.8125 69.140625 36.125 66.984375 
Q 39.453125 64.84375 41.59375 60.546875 
Q 43.75 56.25 43.15625 50.1875 
Q 42.578125 44.140625 37.109375 35.734375 
Q 31.640625 27.34375 16.015625 9.375 
L 44.140625 9.375 
L 44.140625 2.34375 
L 4.6875 2.34375 
z
" id="SimHei-50"/>
      </defs>
      <g transform="translate(113.46 334.275)scale(0.1 -0.1)">
       <use xlink:href="#SimHei-48"/>
       <use x="50" xlink:href="#SimHei-46"/>
       <use x="100" xlink:href="#SimHei-50"/>
      </g>
     </g>
    </g>
    <g id="xtick_3">
     <g id="line2d_3">
      <g>
       <use style="stroke:#000000;stroke-width:0.8;" x="187.92" xlink:href="#m85f185e2c9" y="320.4"/>
      </g>
     </g>
     <g id="text_3">
      <!-- 0.4 -->
      <defs>
       <path d="M 31.25 17.1875 
L 1.171875 17.1875 
L 1.171875 23.828125 
L 32.8125 69.53125 
L 38.671875 69.53125 
L 38.671875 23.828125 
L 48.046875 23.828125 
L 48.046875 17.1875 
L 38.671875 17.1875 
L 38.671875 2.34375 
L 31.25 2.34375 
z
M 31.25 23.828125 
L 31.25 54.6875 
L 9.375 23.828125 
z
" id="SimHei-52"/>
      </defs>
      <g transform="translate(180.42 334.275)scale(0.1 -0.1)">
       <use xlink:href="#SimHei-48"/>
       <use x="50" xlink:href="#SimHei-46"/>
       <use x="100" xlink:href="#SimHei-52"/>
      </g>
     </g>
    </g>
    <g id="xtick_4">
     <g id="line2d_4">
      <g>
       <use style="stroke:#000000;stroke-width:0.8;" x="254.88" xlink:href="#m85f185e2c9" y="320.4"/>
      </g>
     </g>
     <g id="text_4">
      <!-- 0.6 -->
      <defs>
       <path d="M 3.515625 19.53125 
Q 4.296875 30.859375 6.046875 34.765625 
Q 7.8125 38.671875 11.328125 44.53125 
L 27.34375 69.53125 
L 36.328125 69.53125 
L 19.921875 43.75 
Q 30.46875 46.484375 36.71875 42.96875 
Q 42.96875 39.453125 45.109375 34.953125 
Q 47.265625 30.46875 47.453125 25.1875 
Q 47.65625 19.921875 45.890625 14.84375 
Q 44.140625 9.765625 39.640625 5.65625 
Q 35.15625 1.5625 27.140625 1.171875 
Q 19.140625 0.78125 13.46875 4.09375 
Q 7.8125 7.421875 5.65625 13.46875 
Q 3.515625 19.53125 4.296875 30.859375 
z
M 12.5 16.015625 
Q 19.53125 8.59375 25.390625 8.203125 
Q 31.25 7.8125 35.15625 12.109375 
Q 39.0625 16.40625 39.0625 24.609375 
Q 39.0625 32.8125 34.171875 35.9375 
Q 29.296875 39.0625 23.234375 38.28125 
Q 17.1875 37.5 14.453125 32.421875 
Q 11.71875 27.34375 12.109375 21.671875 
Q 12.5 16.015625 19.53125 8.59375 
z
" id="SimHei-54"/>
      </defs>
      <g transform="translate(247.38 334.275)scale(0.1 -0.1)">
       <use xlink:href="#SimHei-48"/>
       <use x="50" xlink:href="#SimHei-46"/>
       <use x="100" xlink:href="#SimHei-54"/>
      </g>
     </g>
    </g>
    <g id="xtick_5">
     <g id="line2d_5">
      <g>
       <use style="stroke:#000000;stroke-width:0.8;" x="321.84" xlink:href="#m85f185e2c9" y="320.4"/>
      </g>
     </g>
     <g id="text_5">
      <!-- 0.8 -->
      <defs>
       <path d="M 2.734375 16.796875 
Q 2.734375 26.171875 5.078125 30.65625 
Q 7.421875 35.15625 12.890625 37.890625 
Q 8.203125 40.625 6.640625 43.9375 
Q 5.078125 47.265625 4.875 51.5625 
Q 4.6875 55.859375 6.046875 58.984375 
Q 7.421875 62.109375 10.15625 64.84375 
Q 12.890625 67.578125 16.203125 68.546875 
Q 19.53125 69.53125 23.4375 69.53125 
Q 27.34375 69.53125 30.46875 68.75 
Q 33.59375 67.96875 37.109375 65.421875 
Q 40.625 62.890625 42.1875 58.203125 
Q 43.75 53.515625 41.984375 47.265625 
Q 40.234375 41.015625 32.8125 37.5 
Q 39.453125 35.546875 42.1875 31.4375 
Q 44.921875 27.34375 44.921875 21.484375 
Q 44.921875 15.625 43.15625 12.109375 
Q 41.40625 8.59375 39.25 6.25 
Q 37.109375 3.90625 33.390625 2.53125 
Q 29.6875 1.171875 24.015625 1.171875 
Q 18.359375 1.171875 14.25 2.53125 
Q 10.15625 3.90625 7.421875 6.640625 
Q 4.6875 9.375 3.703125 13.078125 
Q 2.734375 16.796875 2.734375 26.171875 
z
M 10.9375 26.5625 
Q 10.546875 17.1875 12.296875 13.671875 
Q 14.0625 10.15625 18.75 9.171875 
Q 23.4375 8.203125 28.515625 9.375 
Q 33.59375 10.546875 35.546875 14.84375 
Q 37.5 19.140625 36.90625 23.4375 
Q 36.328125 27.734375 32.03125 30.65625 
Q 27.734375 33.59375 22.65625 33.203125 
Q 17.578125 32.8125 14.25 29.6875 
Q 10.9375 26.5625 10.546875 17.1875 
z
M 12.109375 56.25 
Q 12.109375 48.4375 14.84375 44.921875 
Q 17.578125 41.40625 23.4375 41.40625 
Q 29.296875 41.40625 32.21875 44.921875 
Q 35.15625 48.4375 34.953125 53.3125 
Q 34.765625 58.203125 31.4375 60.546875 
Q 28.125 62.890625 22.453125 62.5 
Q 16.796875 62.109375 14.453125 59.171875 
Q 12.109375 56.25 12.109375 48.4375 
z
" id="SimHei-56"/>
      </defs>
      <g transform="translate(314.34 334.275)scale(0.1 -0.1)">
       <use xlink:href="#SimHei-48"/>
       <use x="50" xlink:href="#SimHei-46"/>
       <use x="100" xlink:href="#SimHei-56"/>
      </g>
     </g>
    </g>
    <g id="xtick_6">
     <g id="line2d_6">
      <g>
       <use style="stroke:#000000;stroke-width:0.8;" x="388.8" xlink:href="#m85f185e2c9" y="320.4"/>
      </g>
     </g>
     <g id="text_6">
      <!-- 1.0 -->
      <defs>
       <path d="M 21.875 56.25 
Q 16.796875 51.171875 8.984375 46.484375 
L 8.984375 53.90625 
Q 18.75 60.546875 25 69.53125 
L 29.6875 69.53125 
L 29.6875 2.34375 
L 21.875 2.34375 
z
" id="SimHei-49"/>
      </defs>
      <g transform="translate(381.3 334.275)scale(0.1 -0.1)">
       <use xlink:href="#SimHei-49"/>
       <use x="50" xlink:href="#SimHei-46"/>
       <use x="100" xlink:href="#SimHei-48"/>
      </g>
     </g>
    </g>
    <g id="text_7">
     <!-- 接种后出现症状的概率降低系数（l） -->
     <defs>
      <path d="M 66.015625 35.546875 
Q 64.84375 34.375 62.5 29.6875 
L 87.5 29.6875 
Q 94.53125 30.078125 96.09375 30.078125 
L 96.09375 23.046875 
Q 93.359375 23.4375 88.28125 23.4375 
L 81.640625 23.4375 
Q 78.125 14.453125 73.4375 7.8125 
Q 85.546875 1.953125 94.53125 -2.734375 
Q 93.359375 -3.90625 88.671875 -9.765625 
Q 82.421875 -5.078125 68.359375 2.34375 
Q 62.890625 -2.34375 55.65625 -5.265625 
Q 48.4375 -8.203125 38.28125 -10.15625 
Q 37.890625 -7.03125 34.765625 -3.125 
Q 41.015625 -2.34375 48.046875 -0.578125 
Q 55.078125 1.171875 61.328125 5.46875 
Q 57.8125 7.03125 44.921875 12.5 
Q 47.265625 16.015625 51.171875 23.4375 
L 44.921875 23.4375 
Q 38.671875 23.4375 35.9375 23.046875 
L 35.9375 30.46875 
Q 37.890625 30.078125 44.53125 29.6875 
L 53.90625 29.6875 
Q 56.640625 36.328125 57.03125 39.0625 
Q 63.671875 36.328125 66.015625 35.546875 
z
M 18.359375 61.71875 
L 18.359375 73.4375 
Q 18.359375 75.78125 17.578125 80.078125 
L 26.171875 80.078125 
Q 25.390625 75.78125 25.390625 73.4375 
L 25.390625 61.71875 
Q 29.296875 61.71875 35.15625 62.109375 
L 35.15625 54.6875 
Q 29.296875 55.078125 25.390625 55.078125 
L 25.390625 36.71875 
Q 27.34375 37.890625 34.375 41.015625 
Q 34.375 35.9375 34.765625 33.59375 
Q 27.734375 30.46875 25.390625 29.296875 
L 25.390625 1.171875 
Q 25.390625 -4.296875 22.265625 -6.640625 
Q 19.140625 -8.984375 10.15625 -9.765625 
Q 10.15625 -7.03125 7.03125 -0.390625 
Q 14.84375 -1.5625 16.40625 -0.390625 
Q 17.96875 0.78125 18.359375 4.296875 
L 18.359375 26.5625 
Q 15.234375 25.390625 7.03125 20.703125 
Q 5.078125 26.5625 3.515625 29.296875 
Q 13.28125 31.640625 18.359375 33.984375 
L 18.359375 55.078125 
L 15.625 55.078125 
Q 10.15625 55.078125 4.6875 54.6875 
L 4.6875 62.5 
Q 10.546875 61.71875 15.625 61.71875 
z
M 74.609375 64.0625 
Q 81.25 60.546875 83.59375 59.765625 
Q 81.25 57.8125 76.953125 46.09375 
L 84.765625 46.09375 
Q 91.015625 46.484375 92.96875 46.875 
L 92.96875 39.453125 
Q 90.234375 39.84375 85.546875 39.84375 
L 47.265625 39.84375 
Q 44.53125 39.84375 38.28125 39.453125 
L 38.28125 46.875 
Q 44.140625 46.484375 46.484375 46.09375 
L 69.53125 46.09375 
Q 73.4375 56.640625 74.609375 64.0625 
z
M 61.71875 71.484375 
Q 60.15625 78.125 58.984375 80.46875 
Q 64.453125 81.640625 67.1875 82.421875 
L 70.3125 71.484375 
L 83.59375 71.484375 
Q 89.0625 71.875 92.96875 71.875 
L 92.96875 64.84375 
Q 88.671875 65.234375 83.984375 65.234375 
L 49.609375 65.234375 
Q 43.359375 65.234375 39.0625 64.84375 
L 39.0625 71.875 
Q 42.96875 71.484375 48.4375 71.484375 
z
M 54.296875 15.625 
Q 63.28125 12.5 67.1875 10.15625 
Q 72.265625 17.578125 74.21875 23.4375 
L 59.375 23.4375 
Q 55.859375 18.359375 54.296875 15.625 
z
M 53.515625 61.71875 
Q 58.203125 53.90625 60.15625 50 
Q 53.90625 48.046875 52.34375 46.875 
Q 49.21875 54.296875 46.484375 57.8125 
Q 50.78125 59.765625 53.515625 61.71875 
z
" id="SimHei-25509"/>
      <path d="M 66.015625 62.5 
Q 66.015625 77.734375 65.625 82.421875 
L 73.828125 82.421875 
Q 73.4375 78.125 73.4375 62.5 
L 93.75 62.5 
Q 93.359375 58.203125 93.359375 50.78125 
L 93.359375 24.21875 
Q 93.359375 19.921875 93.75 14.453125 
L 85.9375 14.453125 
L 85.9375 22.265625 
L 73.4375 22.265625 
L 73.4375 5.859375 
Q 73.4375 -4.296875 73.828125 -10.9375 
L 65.625 -10.9375 
Q 66.015625 -4.296875 66.015625 5.859375 
L 66.015625 22.265625 
L 53.515625 22.265625 
L 53.515625 12.890625 
L 45.703125 12.890625 
Q 46.09375 17.578125 46.09375 23.4375 
L 46.09375 50 
Q 46.09375 58.203125 45.703125 62.5 
L 66.015625 62.5 
z
M 5.46875 50.78125 
Q 11.328125 50.390625 19.140625 50.390625 
L 22.265625 50.390625 
L 22.265625 67.578125 
Q 18.359375 66.40625 8.984375 64.453125 
Q 7.421875 67.96875 5.46875 71.484375 
Q 14.0625 71.875 22.0625 74.015625 
Q 30.078125 76.171875 36.71875 79.6875 
Q 39.0625 76.5625 42.578125 72.265625 
Q 38.671875 71.875 35.9375 71.09375 
Q 33.203125 70.3125 29.6875 69.53125 
L 29.6875 50.390625 
Q 34.765625 50.390625 42.1875 50.78125 
L 42.1875 43.75 
Q 34.765625 44.140625 29.6875 44.140625 
L 29.6875 3.515625 
Q 29.6875 -1.953125 30.078125 -10.15625 
L 21.875 -10.15625 
Q 22.265625 -1.953125 22.265625 3.515625 
L 22.265625 29.296875 
Q 19.140625 21.484375 16.59375 16.796875 
Q 14.0625 12.109375 9.765625 5.46875 
Q 6.640625 9.765625 3.90625 13.28125 
Q 9.375 19.140625 13.859375 26.953125 
Q 18.359375 34.765625 20.3125 44.140625 
L 14.453125 44.140625 
Q 8.984375 44.140625 5.46875 43.75 
z
M 66.015625 28.515625 
L 66.015625 56.25 
L 53.515625 56.25 
L 53.515625 28.515625 
z
M 85.9375 28.515625 
L 85.9375 56.25 
L 73.4375 56.25 
L 73.4375 28.515625 
z
M 37.109375 38.671875 
Q 38.28125 35.9375 40.234375 33.203125 
Q 42.1875 30.46875 44.53125 25.390625 
Q 41.015625 23.828125 37.890625 21.484375 
Q 35.9375 25.78125 34.5625 28.703125 
Q 33.203125 31.640625 30.859375 34.765625 
Q 33.203125 36.328125 37.109375 38.671875 
z
" id="SimHei-31181"/>
      <path d="M 85.546875 33.59375 
Q 85.15625 27.34375 85.15625 12.109375 
Q 85.15625 -2.734375 85.9375 -8.59375 
L 77.734375 -8.59375 
L 77.734375 -0.390625 
L 39.453125 -0.390625 
L 39.453125 -9.375 
L 31.640625 -9.375 
Q 32.03125 -2.734375 32.03125 12.109375 
Q 32.03125 27.34375 31.640625 33.59375 
L 85.546875 33.59375 
z
M 80.859375 79.296875 
Q 82.8125 75 86.328125 70.703125 
Q 77.34375 69.921875 58.59375 67.765625 
Q 39.84375 65.625 24.609375 65.234375 
L 24.609375 52.734375 
L 81.25 52.734375 
Q 86.71875 52.734375 93.359375 53.125 
L 93.359375 45.3125 
Q 87.109375 45.703125 81.25 45.703125 
L 24.609375 45.703125 
Q 24.21875 37.890625 23.234375 29.296875 
Q 22.265625 20.703125 19.53125 11.125 
Q 16.796875 1.5625 12.5 -5.078125 
Q 10.15625 -3.125 3.515625 -0.78125 
Q 9.765625 5.078125 12.890625 16.59375 
Q 16.015625 28.125 16.40625 44.140625 
Q 16.796875 60.15625 16.796875 71.484375 
Q 35.9375 71.875 56.640625 74.609375 
Q 77.34375 77.34375 80.859375 79.296875 
z
M 77.734375 5.859375 
L 77.734375 26.953125 
L 39.453125 26.953125 
L 39.453125 5.859375 
z
" id="SimHei-21518"/>
      <path d="M 23.046875 71.09375 
Q 22.65625 66.015625 22.65625 61.71875 
L 22.65625 46.09375 
L 45.703125 46.09375 
L 45.703125 69.140625 
Q 45.703125 74.609375 45.3125 80.078125 
L 53.515625 80.078125 
Q 53.125 75.390625 53.125 69.140625 
L 53.125 46.09375 
L 76.5625 46.09375 
L 76.5625 60.546875 
Q 76.5625 66.796875 76.171875 70.703125 
L 84.375 70.703125 
Q 83.984375 66.796875 83.984375 60.15625 
L 83.984375 49.609375 
Q 83.984375 43.359375 84.375 39.453125 
L 53.125 39.453125 
L 53.125 3.515625 
L 80.078125 3.515625 
L 80.078125 19.921875 
Q 80.078125 25.78125 79.6875 30.078125 
L 87.890625 30.078125 
Q 87.5 25.78125 87.5 20.3125 
L 87.5 2.734375 
Q 87.5 -5.078125 87.890625 -10.15625 
L 80.078125 -10.15625 
L 80.078125 -3.125 
L 10.546875 -3.125 
Q 10.9375 1.5625 10.9375 8.203125 
L 10.9375 19.921875 
Q 10.9375 26.5625 10.546875 30.46875 
L 18.75 30.46875 
Q 18.359375 26.5625 18.359375 19.921875 
L 18.359375 3.515625 
L 45.703125 3.515625 
L 45.703125 39.453125 
L 14.84375 39.453125 
Q 15.234375 43.359375 15.234375 49.21875 
L 15.234375 61.328125 
Q 15.234375 66.40625 14.84375 71.09375 
L 23.046875 71.09375 
z
" id="SimHei-20986"/>
      <path d="M 72.65625 60.15625 
Q 71.09375 55.859375 70.5 46.484375 
Q 69.921875 37.109375 67.96875 26.5625 
L 75.78125 26.5625 
Q 75.390625 22.65625 75.390625 16.015625 
L 75.390625 3.515625 
Q 75.390625 -2.34375 77.53125 -2.734375 
Q 79.6875 -3.125 82.421875 -2.921875 
Q 85.15625 -2.734375 86.328125 -0.1875 
Q 87.5 2.34375 87.890625 8.984375 
Q 91.796875 6.640625 96.484375 5.859375 
Q 94.53125 -2.34375 92.578125 -5.265625 
Q 90.625 -8.203125 84.375 -8.984375 
L 76.5625 -8.984375 
Q 67.96875 -8.984375 67.96875 -1.5625 
L 67.96875 25.78125 
Q 64.453125 13.28125 57.8125 4.875 
Q 51.171875 -3.515625 37.890625 -10.546875 
Q 35.9375 -7.421875 31.25 -5.078125 
Q 43.75 0 49.609375 6.046875 
Q 55.46875 12.109375 58.984375 21.484375 
Q 62.5 30.859375 63.078125 41.015625 
Q 63.671875 51.171875 63.28125 61.328125 
Q 68.359375 60.546875 72.65625 60.15625 
z
M 28.90625 72.265625 
Q 33.203125 72.265625 39.453125 72.65625 
L 39.453125 65.234375 
Q 33.203125 65.625 26.171875 65.625 
L 26.171875 44.140625 
Q 31.640625 44.140625 37.890625 44.53125 
L 37.890625 37.109375 
Q 31.640625 37.5 26.171875 37.5 
L 26.171875 13.671875 
Q 32.8125 15.234375 39.84375 17.578125 
Q 39.453125 13.28125 39.453125 10.15625 
Q 26.5625 7.03125 18.75 4.296875 
Q 10.9375 1.5625 7.03125 -0.390625 
Q 5.859375 5.078125 3.90625 8.984375 
Q 10.15625 9.765625 19.140625 11.71875 
L 19.140625 37.5 
Q 12.890625 37.5 7.03125 37.109375 
L 7.03125 44.53125 
Q 12.890625 44.140625 19.140625 44.140625 
L 19.140625 65.625 
Q 12.109375 65.625 6.640625 65.234375 
L 6.640625 72.65625 
Q 11.328125 72.265625 15.625 72.265625 
z
M 89.84375 76.171875 
Q 89.453125 69.921875 89.453125 63.671875 
L 89.453125 37.5 
Q 89.453125 30.078125 89.84375 24.609375 
L 82.421875 24.609375 
L 82.421875 69.921875 
L 52.734375 69.921875 
L 52.734375 24.21875 
L 45.3125 24.21875 
Q 45.703125 30.859375 45.703125 39.0625 
L 45.703125 60.546875 
Q 45.703125 69.140625 45.3125 76.171875 
L 89.84375 76.171875 
z
" id="SimHei-29616"/>
      <path d="M 77.734375 52.734375 
Q 85.15625 52.734375 93.359375 53.125 
L 93.359375 46.09375 
Q 85.546875 46.484375 77.734375 46.484375 
L 68.359375 46.484375 
L 68.359375 30.078125 
L 77.734375 30.078125 
Q 82.8125 30.078125 91.015625 30.46875 
L 91.015625 23.046875 
Q 83.203125 23.4375 77.734375 23.4375 
L 68.359375 23.4375 
L 68.359375 1.5625 
L 79.6875 1.5625 
Q 86.71875 1.5625 95.703125 1.953125 
L 95.703125 -5.078125 
Q 86.328125 -4.6875 80.078125 -4.6875 
L 44.53125 -4.6875 
Q 37.109375 -4.6875 28.125 -5.078125 
L 28.125 1.953125 
Q 33.59375 1.5625 40.234375 1.5625 
L 40.234375 22.65625 
Q 40.234375 26.953125 39.84375 34.375 
L 48.046875 34.375 
Q 47.65625 28.125 47.65625 22.65625 
L 47.65625 1.5625 
L 60.15625 1.5625 
L 60.15625 46.484375 
L 49.21875 46.484375 
Q 42.578125 46.484375 35.15625 46.09375 
L 35.15625 53.125 
Q 42.578125 52.734375 49.21875 52.734375 
z
M 60.9375 82.421875 
Q 62.5 76.171875 64.453125 69.921875 
L 79.296875 69.921875 
Q 85.546875 69.921875 95.3125 70.3125 
L 95.3125 62.890625 
Q 85.546875 63.28125 79.296875 63.28125 
L 28.90625 63.28125 
L 28.90625 46.09375 
Q 28.90625 36.328125 28.515625 25.96875 
Q 28.125 15.625 25.78125 7.609375 
Q 23.4375 -0.390625 16.796875 -10.9375 
Q 13.671875 -8.59375 8.59375 -6.25 
Q 13.28125 -1.953125 16.40625 4.09375 
Q 19.53125 10.15625 20.5 16.59375 
Q 21.484375 23.046875 21.484375 27.734375 
Q 15.625 23.828125 8.203125 18.75 
Q 6.25 22.65625 3.90625 26.953125 
Q 7.421875 28.125 21.484375 34.375 
L 21.484375 53.90625 
Q 21.484375 62.5 21.09375 69.921875 
L 54.6875 69.921875 
Q 53.515625 75.78125 51.953125 80.46875 
Q 56.25 81.25 60.9375 82.421875 
z
M 8.59375 61.328125 
Q 14.453125 55.078125 20.3125 48.046875 
Q 17.96875 46.484375 14.453125 42.96875 
Q 9.375 50 3.515625 56.25 
Q 6.640625 58.984375 8.59375 61.328125 
z
" id="SimHei-30151"/>
      <path d="M 34.765625 -4.296875 
Q 41.796875 0.390625 46.484375 7.421875 
Q 51.171875 14.453125 53.90625 21.09375 
Q 56.640625 27.734375 57.8125 33.984375 
Q 58.984375 40.234375 59.375 44.921875 
L 50.390625 44.921875 
Q 44.53125 44.921875 39.0625 44.53125 
L 39.0625 51.953125 
Q 44.53125 51.5625 50 51.5625 
L 59.765625 51.5625 
Q 59.765625 62.109375 59.5625 68.359375 
Q 59.375 74.609375 58.984375 79.296875 
L 69.140625 79.296875 
Q 67.96875 74.21875 67.765625 68.9375 
Q 67.578125 63.671875 67.578125 51.5625 
L 83.59375 51.5625 
Q 87.890625 51.5625 93.359375 51.953125 
L 93.359375 44.53125 
Q 87.890625 44.921875 83.59375 44.921875 
L 68.359375 44.921875 
Q 73.046875 22.65625 78.3125 15.03125 
Q 83.59375 7.421875 87.890625 4.09375 
Q 92.1875 0.78125 95.703125 -1.171875 
Q 90.234375 -3.515625 87.890625 -8.203125 
Q 81.640625 -3.125 77.921875 1.75 
Q 74.21875 6.640625 71.671875 11.328125 
Q 69.140625 16.015625 67.375 20.890625 
Q 65.625 25.78125 64.453125 31.25 
Q 62.5 21.875 59.5625 15.234375 
Q 56.640625 8.59375 53.515625 3.703125 
Q 50.390625 -1.171875 42.96875 -9.765625 
Q 39.453125 -6.25 34.765625 -4.296875 
z
M 34.765625 81.25 
Q 34.375 75.390625 34.375 66.40625 
L 34.375 12.109375 
Q 34.375 0.78125 34.765625 -9.765625 
L 26.171875 -9.765625 
Q 26.5625 1.171875 26.5625 12.109375 
L 26.5625 30.46875 
Q 23.828125 27.34375 18.75 21.09375 
Q 13.671875 14.84375 10.9375 11.71875 
Q 7.8125 15.625 4.296875 17.96875 
Q 8.984375 21.484375 14.25 26.75 
Q 19.53125 32.03125 26.5625 40.625 
L 26.5625 66.40625 
Q 26.5625 75.390625 26.171875 81.25 
L 34.765625 81.25 
z
M 9.765625 67.578125 
Q 12.5 64.453125 15.625 60.546875 
Q 18.75 56.640625 21.484375 52.734375 
Q 18.359375 50.390625 16.40625 48.046875 
Q 13.28125 52.34375 3.90625 63.28125 
Q 6.25 65.234375 9.765625 67.578125 
z
M 85.546875 57.03125 
Q 82.03125 62.109375 73.4375 69.921875 
Q 76.5625 72.265625 78.515625 74.21875 
Q 82.03125 71.484375 84.765625 68.546875 
Q 87.5 65.625 91.015625 62.109375 
Q 87.890625 59.375 85.546875 57.03125 
z
" id="SimHei-29366"/>
      <path d="M 32.8125 77.734375 
Q 30.859375 74.21875 27.34375 61.71875 
L 44.921875 61.71875 
Q 44.53125 55.078125 44.53125 44.921875 
L 44.53125 10.546875 
Q 44.53125 4.6875 44.921875 -6.25 
L 37.109375 -6.25 
L 37.109375 1.5625 
L 17.1875 1.5625 
L 17.1875 -7.03125 
L 9.375 -7.03125 
Q 9.765625 5.46875 9.765625 8.59375 
L 9.765625 44.53125 
Q 9.765625 55.078125 9.375 61.71875 
L 20.703125 61.71875 
Q 22.65625 70.703125 23.828125 80.46875 
Q 29.296875 78.515625 32.8125 77.734375 
z
M 91.015625 48.046875 
Q 90.625 24.21875 89.0625 2.734375 
Q 88.28125 -4.296875 81.640625 -6.640625 
Q 75 -8.984375 66.796875 -9.765625 
Q 66.40625 -5.46875 63.28125 -0.78125 
Q 71.09375 -1.171875 75.578125 -0.390625 
Q 80.078125 0.390625 81.25 3.125 
Q 82.421875 5.859375 83 19.140625 
Q 83.59375 32.421875 83.984375 56.25 
L 61.328125 56.25 
Q 58.203125 48.828125 52.34375 38.671875 
Q 49.609375 41.40625 45.703125 42.96875 
Q 49.21875 47.65625 52.34375 54.296875 
Q 55.46875 60.9375 57.8125 68.75 
Q 60.15625 76.5625 60.546875 80.859375 
Q 66.015625 78.515625 69.921875 77.34375 
Q 67.96875 74.21875 66.59375 70.5 
Q 65.234375 66.796875 63.671875 63.28125 
L 91.40625 63.28125 
Q 91.015625 55.078125 91.015625 48.046875 
z
M 37.109375 8.203125 
L 37.109375 28.90625 
L 17.1875 28.90625 
L 17.1875 8.203125 
z
M 37.109375 35.546875 
L 37.109375 55.078125 
L 17.1875 55.078125 
L 17.1875 35.546875 
z
M 67.96875 32.03125 
Q 70.3125 27.34375 73.4375 19.921875 
Q 70.703125 18.75 66.015625 16.015625 
Q 63.28125 23.4375 60.9375 28.703125 
Q 58.59375 33.984375 56.25 37.5 
Q 58.984375 39.0625 63.28125 41.40625 
z
" id="SimHei-30340"/>
      <path d="M 48.4375 17.96875 
Q 46.875 21.09375 45.3125 23.046875 
Q 48.046875 25 51.171875 26.953125 
Q 53.515625 23.046875 55.265625 19.71875 
Q 57.03125 16.40625 59.765625 11.71875 
Q 57.421875 9.765625 53.515625 7.03125 
Q 52.734375 9.375 51.171875 12.5 
Q 48.046875 9.765625 43.359375 6.4375 
Q 38.671875 3.125 35.15625 -0.78125 
Q 32.421875 3.125 30.078125 5.46875 
Q 32.8125 8.203125 33.203125 13.671875 
L 33.203125 62.5 
Q 33.203125 69.140625 32.8125 73.4375 
L 55.859375 73.4375 
Q 55.46875 67.578125 55.46875 54.296875 
Q 55.46875 41.40625 55.859375 34.375 
L 39.84375 34.375 
L 39.84375 11.71875 
Q 42.578125 13.28125 48.4375 17.96875 
z
M 51.953125 -10.9375 
Q 50 -7.8125 46.09375 -5.078125 
Q 53.125 -1.171875 60.15625 9.953125 
Q 67.1875 21.09375 70.3125 36.71875 
L 59.375 36.71875 
Q 59.765625 42.578125 59.765625 48.046875 
Q 59.765625 53.515625 59.375 58.59375 
L 66.796875 58.59375 
Q 66.015625 55.46875 66.015625 50.78125 
L 66.015625 42.578125 
L 71.875 42.578125 
Q 73.046875 54.6875 73.046875 68.75 
L 69.140625 68.75 
Q 63.671875 68.75 59.375 68.359375 
L 59.375 75 
Q 64.0625 74.609375 69.140625 74.609375 
L 80.46875 74.609375 
Q 87.890625 74.609375 91.40625 75 
L 91.40625 68.359375 
Q 88.28125 68.75 79.6875 68.75 
Q 79.6875 57.8125 78.515625 42.578125 
L 83.984375 42.578125 
Q 87.5 42.578125 92.578125 42.96875 
L 92.578125 36.328125 
Q 87.5 36.71875 84.765625 36.71875 
L 77.34375 36.71875 
Q 72.265625 16.796875 66.984375 7.21875 
Q 61.71875 -2.34375 51.953125 -10.9375 
z
M 15.625 69.140625 
Q 15.625 74.21875 15.234375 78.90625 
L 23.046875 78.90625 
Q 22.265625 73.828125 22.265625 67.1875 
L 22.265625 59.375 
Q 25.390625 59.375 30.078125 59.765625 
L 30.078125 53.125 
Q 25 53.515625 22.265625 53.515625 
L 22.265625 41.40625 
Q 24.21875 42.578125 26.5625 44.140625 
Q 29.6875 36.71875 32.421875 29.296875 
Q 28.90625 28.515625 26.5625 26.5625 
Q 25 32.03125 22.265625 38.28125 
L 22.265625 4.6875 
Q 22.265625 -1.953125 22.65625 -8.984375 
L 15.234375 -8.984375 
Q 15.625 -0.78125 15.625 4.6875 
L 15.625 31.640625 
Q 12.890625 22.65625 8.59375 14.84375 
Q 7.03125 17.96875 2.734375 21.09375 
Q 7.8125 28.515625 10.34375 35.546875 
Q 12.890625 42.578125 14.84375 53.515625 
Q 7.8125 53.515625 5.46875 53.125 
L 5.46875 59.765625 
Q 8.59375 59.375 15.625 59.375 
z
M 82.8125 26.953125 
Q 82.421875 16.40625 82.421875 3.515625 
Q 82.421875 -0.78125 84.5625 -1.171875 
Q 86.71875 -1.5625 87.890625 -1.359375 
Q 89.0625 -1.171875 89.640625 0.578125 
Q 90.234375 2.34375 90.234375 7.421875 
Q 93.75 5.46875 97.65625 4.6875 
Q 96.09375 -3.515625 94.53125 -5.46875 
Q 92.96875 -7.421875 88.28125 -7.421875 
L 83.59375 -7.421875 
Q 75 -7.03125 75.78125 0.78125 
Q 75.78125 14.453125 75.78125 26.953125 
L 82.8125 26.953125 
z
M 48.828125 40.234375 
L 48.828125 51.171875 
L 39.84375 51.171875 
L 39.84375 40.234375 
z
M 48.828125 57.03125 
L 48.828125 67.578125 
L 39.84375 67.578125 
L 39.84375 57.03125 
z
" id="SimHei-27010"/>
      <path d="M 51.953125 80.46875 
Q 53.515625 76.5625 55.46875 70.703125 
L 75 70.703125 
Q 82.03125 70.703125 90.625 71.09375 
L 90.625 64.453125 
Q 82.03125 65.234375 74.609375 65.234375 
L 43.75 65.234375 
Q 46.484375 63.28125 51.5625 60.9375 
Q 48.046875 58.59375 44.921875 55.265625 
Q 41.796875 51.953125 38.671875 48.828125 
L 51.171875 48.828125 
Q 55.859375 53.515625 58.984375 58.984375 
Q 62.5 56.25 66.796875 53.515625 
Q 61.71875 50.78125 56.25 44.921875 
Q 50.78125 39.0625 41.015625 31.25 
L 60.15625 32.8125 
Q 58.203125 35.15625 56.25 37.890625 
Q 58.59375 38.671875 62.5 41.40625 
Q 66.40625 36.71875 73.4375 26.5625 
Q 69.921875 25.390625 66.015625 22.65625 
Q 65.234375 25 62.890625 27.734375 
Q 57.8125 27.34375 53.515625 27.34375 
L 53.515625 16.40625 
L 80.46875 16.40625 
Q 88.671875 16.40625 95.3125 16.796875 
L 95.3125 10.15625 
Q 89.0625 10.546875 80.078125 10.546875 
L 53.515625 10.546875 
L 53.515625 2.734375 
Q 53.515625 -4.6875 53.90625 -9.765625 
L 45.3125 -9.765625 
Q 45.703125 -4.6875 45.703125 2.734375 
L 45.703125 10.546875 
L 20.703125 10.546875 
Q 12.890625 10.546875 5.078125 10.15625 
L 5.078125 16.796875 
Q 12.890625 16.40625 21.09375 16.40625 
L 45.703125 16.40625 
L 45.703125 26.5625 
Q 42.1875 26.171875 38.671875 25.578125 
Q 35.15625 25 31.640625 23.828125 
Q 30.46875 27.734375 28.90625 31.25 
Q 32.421875 31.640625 36.328125 34.375 
Q 40.234375 37.109375 46.484375 43.75 
Q 35.9375 42.578125 31.640625 41.015625 
Q 30.859375 44.921875 28.90625 49.609375 
Q 32.421875 49.609375 36.328125 54.484375 
Q 40.234375 59.375 42.96875 65.234375 
L 26.5625 65.234375 
Q 17.96875 65.234375 10.15625 64.453125 
L 10.15625 71.09375 
Q 17.96875 70.703125 24.21875 70.703125 
L 46.484375 70.703125 
Q 45.3125 75.390625 43.75 78.515625 
Q 47.265625 79.296875 51.953125 80.46875 
z
M 25.390625 40.234375 
Q 26.953125 37.5 28.515625 34.375 
Q 24.609375 32.03125 20.703125 29.09375 
Q 16.796875 26.171875 12.5 22.265625 
Q 9.765625 26.171875 7.421875 29.296875 
Q 12.5 31.640625 17.1875 34.5625 
Q 21.875 37.5 25.390625 40.234375 
z
M 75.78125 41.40625 
Q 80.078125 38.671875 83.390625 36.515625 
Q 86.71875 34.375 91.796875 30.46875 
Q 88.671875 28.125 85.9375 25 
Q 82.8125 27.734375 79.09375 30.859375 
Q 75.390625 33.984375 71.484375 36.328125 
Q 73.828125 38.671875 75.78125 41.40625 
z
M 89.453125 55.078125 
Q 86.71875 53.90625 82.8125 50.96875 
Q 78.90625 48.046875 75 44.140625 
Q 72.265625 47.65625 69.921875 49.609375 
Q 73.4375 51.953125 76.171875 54.484375 
Q 78.90625 57.03125 82.8125 61.328125 
Q 86.328125 57.8125 89.453125 55.078125 
z
M 16.40625 60.15625 
Q 22.265625 56.25 27.734375 51.171875 
Q 24.609375 48.4375 22.265625 45.703125 
Q 16.796875 51.5625 10.546875 55.078125 
Q 13.671875 57.8125 16.40625 60.15625 
z
" id="SimHei-29575"/>
      <path d="M 63.671875 78.90625 
Q 60.15625 75 58.984375 72.265625 
L 88.28125 72.265625 
Q 84.765625 65.234375 81.046875 59.953125 
Q 77.34375 54.6875 72.65625 50 
Q 76.5625 47.265625 82.421875 45.703125 
Q 88.28125 44.140625 96.875 43.75 
Q 94.140625 39.453125 93.359375 35.9375 
Q 83.984375 37.5 77.34375 40.03125 
Q 70.703125 42.578125 66.796875 45.3125 
Q 61.71875 42.1875 55.46875 39.0625 
Q 49.21875 35.9375 39.453125 33.203125 
Q 38.28125 36.71875 35.15625 39.84375 
Q 43.359375 41.40625 50.1875 44.140625 
Q 57.03125 46.875 60.546875 50 
Q 55.46875 55.078125 51.953125 60.546875 
Q 46.875 53.90625 44.140625 51.171875 
Q 41.40625 53.90625 38.28125 55.46875 
Q 43.359375 60.15625 48.046875 67.578125 
Q 52.734375 75 55.859375 82.8125 
Q 61.71875 79.6875 63.671875 78.90625 
z
M 36.71875 77.734375 
Q 34.765625 72.65625 31.640625 63.46875 
Q 28.515625 54.296875 26.171875 46.484375 
Q 32.421875 38.28125 34.375 33.984375 
Q 36.328125 29.6875 35.734375 24.21875 
Q 35.15625 18.75 31.4375 15.8125 
Q 27.734375 12.890625 21.09375 12.109375 
Q 20.3125 16.015625 17.96875 20.703125 
Q 25.78125 20.3125 27.140625 23.625 
Q 28.515625 26.953125 27.921875 30.65625 
Q 27.34375 34.375 18.75 45.703125 
L 22.65625 56.25 
Q 25 62.890625 26.953125 71.09375 
L 15.234375 71.09375 
L 15.234375 -9.375 
L 7.8125 -9.375 
Q 8.203125 5.078125 8.203125 13.671875 
L 8.203125 58.59375 
Q 8.203125 67.578125 7.8125 77.734375 
L 36.71875 77.734375 
z
M 79.6875 32.421875 
Q 82.421875 32.421875 89.453125 32.8125 
L 89.453125 25.78125 
Q 85.15625 26.171875 80.46875 26.171875 
L 71.484375 26.171875 
L 71.484375 14.0625 
L 81.25 14.0625 
Q 88.671875 14.0625 94.53125 14.453125 
L 94.53125 7.421875 
Q 89.0625 7.8125 81.640625 7.8125 
L 71.484375 7.8125 
L 71.484375 1.953125 
Q 71.484375 -3.90625 71.875 -9.375 
L 64.0625 -9.375 
Q 64.453125 -3.515625 64.453125 1.5625 
L 64.453125 7.8125 
L 37.109375 7.8125 
Q 39.0625 17.1875 39.0625 21.875 
L 47.265625 20.703125 
Q 45.703125 16.015625 45.703125 14.0625 
L 64.453125 14.0625 
L 64.453125 26.171875 
L 54.296875 26.171875 
Q 48.4375 26.171875 43.359375 25.78125 
L 43.359375 32.8125 
Q 50.390625 32.421875 54.296875 32.421875 
L 64.453125 32.421875 
Q 64.453125 37.109375 64.0625 41.015625 
L 71.484375 41.015625 
Q 71.09375 34.765625 71.09375 32.421875 
z
M 66.796875 54.296875 
Q 71.875 58.203125 76.953125 66.40625 
L 55.46875 66.40625 
Q 62.890625 57.03125 66.796875 54.296875 
z
" id="SimHei-38477"/>
      <path d="M 35.9375 71.09375 
Q 42.96875 70.703125 58.59375 72.453125 
Q 74.21875 74.21875 82.421875 78.125 
Q 84.765625 73.828125 87.5 69.921875 
Q 80.078125 68.75 67.96875 67.1875 
Q 67.96875 59.765625 68.75 44.53125 
L 78.125 44.53125 
Q 84.765625 44.53125 91.40625 44.921875 
L 91.40625 37.890625 
Q 84.765625 38.28125 78.515625 38.28125 
L 69.53125 38.28125 
Q 71.484375 20.703125 75.96875 11.90625 
Q 80.46875 3.125 83.203125 1.171875 
Q 85.9375 -0.78125 86.90625 1.953125 
Q 87.890625 4.6875 88.671875 12.109375 
Q 92.578125 8.984375 96.09375 8.203125 
Q 93.75 -1.5625 91.40625 -5.265625 
Q 89.0625 -8.984375 83.59375 -7.8125 
Q 78.125 -6.640625 71.671875 4.09375 
Q 65.234375 14.84375 62.5 38.28125 
L 43.359375 38.28125 
L 43.359375 7.8125 
Q 51.171875 14.84375 55.859375 19.921875 
Q 57.421875 15.234375 58.984375 12.5 
Q 43.359375 -0.78125 39.0625 -5.46875 
Q 36.328125 -2.734375 33.984375 0.390625 
Q 35.9375 2.34375 36.328125 7.8125 
L 36.328125 58.203125 
Q 36.328125 63.671875 35.9375 71.09375 
z
M 32.03125 79.296875 
Q 29.6875 76.5625 25 61.71875 
L 25 6.640625 
Q 25 -1.171875 25.390625 -9.765625 
L 17.1875 -9.765625 
Q 17.578125 -1.171875 17.578125 7.03125 
L 17.578125 47.265625 
Q 13.671875 39.0625 9.765625 33.203125 
Q 6.25 36.71875 3.515625 37.890625 
Q 9.375 45.3125 15.03125 57.609375 
Q 20.703125 69.921875 23.4375 82.421875 
Q 24.609375 81.25 32.03125 79.296875 
z
M 61.71875 44.53125 
Q 60.9375 58.984375 60.9375 66.015625 
Q 48.828125 65.234375 43.359375 64.84375 
L 43.359375 44.53125 
z
M 60.15625 -9.765625 
Q 53.90625 -1.171875 50.78125 1.5625 
Q 53.90625 4.296875 55.859375 6.640625 
Q 61.328125 0.78125 66.015625 -4.6875 
Q 62.890625 -7.03125 60.15625 -9.765625 
z
" id="SimHei-20302"/>
      <path d="M 82.8125 81.25 
Q 85.15625 77.34375 89.453125 73.046875 
Q 77.734375 72.65625 69.328125 71.671875 
Q 60.9375 70.703125 48.828125 69.53125 
Q 50.78125 67.578125 54.296875 66.015625 
Q 49.21875 62.890625 44.328125 58.78125 
Q 39.453125 54.6875 34.765625 51.171875 
L 54.296875 51.171875 
Q 64.0625 57.8125 70.703125 63.28125 
Q 74.609375 60.15625 80.078125 57.8125 
Q 74.609375 55.46875 69.53125 52.734375 
Q 64.453125 50 52.921875 42.765625 
Q 41.40625 35.546875 33.203125 30.859375 
Q 56.25 32.03125 76.171875 32.8125 
Q 74.21875 34.765625 66.015625 41.015625 
Q 69.921875 42.578125 72.65625 44.921875 
Q 77.34375 41.40625 83.390625 36.125 
Q 89.453125 30.859375 94.921875 25.78125 
Q 90.234375 23.046875 87.5 20.703125 
Q 84.375 24.609375 81.640625 26.953125 
Q 71.09375 26.5625 56.640625 25.78125 
L 56.640625 2.34375 
Q 56.640625 -5.078125 52.921875 -6.4375 
Q 49.21875 -7.8125 39.453125 -9.375 
Q 38.671875 -4.6875 35.9375 -0.390625 
Q 44.921875 -0.390625 47.0625 0.1875 
Q 49.21875 0.78125 49.21875 4.6875 
L 49.21875 25.78125 
Q 25.390625 25.390625 16.796875 23.828125 
Q 15.625 27.734375 14.0625 32.03125 
Q 22.65625 32.8125 29.296875 35.9375 
Q 35.9375 39.0625 45.3125 45.3125 
Q 36.328125 45.3125 31.828125 44.921875 
Q 27.34375 44.53125 21.875 43.75 
Q 20.703125 48.046875 19.53125 51.953125 
Q 26.171875 51.953125 32.8125 57.21875 
Q 39.453125 62.5 42.96875 68.75 
Q 21.09375 67.96875 14.453125 67.1875 
Q 13.28125 71.09375 11.71875 74.21875 
Q 33.59375 74.21875 50.78125 75.78125 
Q 67.96875 77.34375 82.8125 81.25 
z
M 72.265625 19.53125 
Q 76.953125 16.015625 83.203125 11.515625 
Q 89.453125 7.03125 93.75 2.734375 
Q 90.625 0 87.5 -3.515625 
Q 82.421875 1.953125 76.953125 6.25 
Q 71.484375 10.546875 66.796875 13.671875 
Q 70.3125 16.40625 72.265625 19.53125 
z
M 34.375 13.671875 
Q 29.6875 11.328125 24.015625 5.859375 
Q 18.359375 0.390625 12.5 -4.6875 
Q 8.984375 -1.171875 5.859375 0.390625 
Q 16.796875 7.03125 26.171875 19.140625 
Q 29.6875 16.40625 34.375 13.671875 
z
" id="SimHei-31995"/>
      <path d="M 70.703125 76.953125 
Q 69.921875 75 68.75 71.671875 
Q 67.578125 68.359375 65.234375 59.765625 
L 83.203125 59.765625 
Q 87.109375 59.765625 92.578125 60.15625 
L 92.578125 53.125 
Q 88.28125 53.515625 85.9375 53.515625 
Q 85.9375 47.265625 83.78125 33.78125 
Q 81.640625 20.3125 76.171875 10.546875 
Q 80.078125 5.859375 84.953125 2.140625 
Q 89.84375 -1.5625 94.140625 -3.125 
Q 89.453125 -6.640625 87.890625 -9.765625 
Q 83.203125 -7.03125 79.296875 -3.515625 
Q 75.390625 0 71.484375 5.078125 
Q 67.1875 0.390625 62.296875 -2.921875 
Q 57.421875 -6.25 50 -10.15625 
Q 48.046875 -6.640625 44.53125 -4.6875 
Q 50.390625 -2.34375 57.03125 1.953125 
Q 63.671875 6.25 67.1875 10.546875 
Q 64.453125 16.015625 61.90625 22.265625 
Q 59.375 28.515625 57.421875 38.671875 
Q 56.25 35.546875 53.515625 30.46875 
Q 50.78125 32.03125 46.875 33.59375 
Q 53.125 44.53125 57.03125 57.421875 
Q 60.9375 70.3125 62.109375 79.6875 
Q 66.796875 77.734375 70.703125 76.953125 
z
M 32.8125 35.15625 
Q 31.25 33.59375 29.296875 30.078125 
L 50.78125 30.078125 
Q 48.4375 20.3125 42.578125 10.546875 
Q 48.828125 8.203125 52.34375 6.25 
Q 50.390625 3.515625 48.828125 0.390625 
Q 45.3125 2.734375 38.28125 5.078125 
Q 30.46875 -3.515625 11.328125 -10.15625 
Q 9.375 -5.859375 6.25 -4.296875 
Q 24.609375 0 31.25 7.421875 
Q 20.3125 10.15625 13.28125 12.109375 
Q 15.625 15.625 19.53125 23.828125 
Q 15.625 23.828125 6.640625 23.4375 
L 6.640625 30.46875 
Q 14.0625 30.078125 21.875 30.078125 
Q 23.4375 33.59375 24.21875 37.890625 
Q 28.515625 36.328125 32.8125 35.15625 
z
M 27.734375 61.71875 
Q 27.734375 71.09375 27.34375 79.6875 
L 35.15625 79.6875 
Q 34.765625 71.484375 34.765625 61.71875 
Q 48.046875 61.71875 53.515625 62.109375 
L 53.515625 55.078125 
Q 48.046875 55.46875 34.765625 55.46875 
Q 34.765625 44.140625 35.15625 37.890625 
L 27.34375 37.890625 
Q 27.734375 43.359375 27.734375 51.5625 
Q 25.78125 48.4375 20.3125 43.546875 
Q 14.84375 38.671875 10.15625 35.9375 
Q 8.203125 39.453125 4.296875 41.015625 
Q 7.8125 42.1875 13.671875 46.484375 
Q 19.53125 50.78125 22.65625 55.46875 
Q 14.84375 55.46875 7.8125 55.078125 
L 7.8125 62.109375 
Q 14.453125 61.71875 27.734375 61.71875 
z
M 62.109375 49.609375 
Q 65.625 26.5625 71.875 17.578125 
Q 75.78125 26.5625 77.140625 35.734375 
Q 78.515625 44.921875 78.90625 53.515625 
L 63.671875 53.515625 
L 62.109375 49.609375 
z
M 22.65625 15.625 
Q 27.34375 14.453125 35.546875 12.5 
Q 38.671875 16.40625 41.40625 23.828125 
L 26.953125 23.828125 
Q 25 19.921875 22.65625 15.625 
z
M 51.953125 75.390625 
Q 50 72.265625 48.828125 69.53125 
Q 47.65625 66.796875 45.703125 62.890625 
Q 42.578125 64.453125 39.453125 65.234375 
Q 42.578125 70.3125 45.3125 78.125 
Q 49.21875 76.171875 51.953125 75.390625 
z
M 40.234375 52.734375 
Q 45.3125 47.65625 50 42.578125 
Q 47.65625 40.625 44.921875 37.890625 
Q 39.453125 44.53125 35.9375 48.4375 
Q 38.28125 50.390625 40.234375 52.734375 
z
M 14.453125 78.125 
Q 19.921875 72.65625 23.4375 67.1875 
L 17.578125 63.671875 
Q 14.84375 69.140625 9.375 73.828125 
Q 12.890625 76.171875 14.453125 78.125 
z
" id="SimHei-25968"/>
      <path d="M 84.765625 79.6875 
L 89.0625 74.609375 
Q 66.796875 58.203125 67.578125 36.71875 
Q 67.96875 16.015625 88.671875 0.78125 
L 84.375 -4.296875 
Q 60.546875 12.890625 61.328125 39.0625 
Q 61.328125 60.546875 84.765625 79.6875 
z
" id="SimHei-65288"/>
      <path d="M 28.515625 1.953125 
L 20.703125 1.953125 
L 20.703125 68.75 
L 28.515625 68.75 
z
" id="SimHei-108"/>
      <path d="M 15.625 79.6875 
Q 39.0625 60.546875 39.0625 39.0625 
Q 39.84375 12.890625 16.015625 -4.296875 
L 11.71875 0.78125 
Q 32.421875 16.015625 32.8125 36.71875 
Q 33.59375 58.203125 11.328125 74.609375 
L 15.625 79.6875 
z
" id="SimHei-65289"/>
     </defs>
     <g transform="translate(72.9 354.15)scale(0.18 -0.18)">
      <use xlink:href="#SimHei-25509"/>
      <use x="100" xlink:href="#SimHei-31181"/>
      <use x="200" xlink:href="#SimHei-21518"/>
      <use x="300" xlink:href="#SimHei-20986"/>
      <use x="400" xlink:href="#SimHei-29616"/>
      <use x="500" xlink:href="#SimHei-30151"/>
      <use x="600" xlink:href="#SimHei-29366"/>
      <use x="700" xlink:href="#SimHei-30340"/>
      <use x="800" xlink:href="#SimHei-27010"/>
      <use x="900" xlink:href="#SimHei-29575"/>
      <use x="1000" xlink:href="#SimHei-38477"/>
      <use x="1100" xlink:href="#SimHei-20302"/>
      <use x="1200" xlink:href="#SimHei-31995"/>
      <use x="1300" xlink:href="#SimHei-25968"/>
      <use x="1400" xlink:href="#SimHei-65288"/>
      <use x="1500" xlink:href="#SimHei-108"/>
      <use x="1550" xlink:href="#SimHei-65289"/>
     </g>
    </g>
   </g>
   <g id="matplotlib.axis_2">
    <g id="ytick_1">
     <g id="line2d_7">
      <defs>
       <path d="M 0 0 
L -3.5 0 
" id="mf2ef61f8cd" style="stroke:#000000;stroke-width:0.8;"/>
      </defs>
      <g>
       <use style="stroke:#000000;stroke-width:0.8;" x="54" xlink:href="#mf2ef61f8cd" y="320.4"/>
      </g>
     </g>
     <g id="text_8">
      <!-- 0.0 -->
      <g transform="translate(32 323.8375)scale(0.1 -0.1)">
       <use xlink:href="#SimHei-48"/>
       <use x="50" xlink:href="#SimHei-46"/>
       <use x="100" xlink:href="#SimHei-48"/>
      </g>
     </g>
    </g>
    <g id="ytick_2">
     <g id="line2d_8">
      <g>
       <use style="stroke:#000000;stroke-width:0.8;" x="54" xlink:href="#mf2ef61f8cd" y="264.96"/>
      </g>
     </g>
     <g id="text_9">
      <!-- 0.2 -->
      <g transform="translate(32 268.3975)scale(0.1 -0.1)">
       <use xlink:href="#SimHei-48"/>
       <use x="50" xlink:href="#SimHei-46"/>
       <use x="100" xlink:href="#SimHei-50"/>
      </g>
     </g>
    </g>
    <g id="ytick_3">
     <g id="line2d_9">
      <g>
       <use style="stroke:#000000;stroke-width:0.8;" x="54" xlink:href="#mf2ef61f8cd" y="209.52"/>
      </g>
     </g>
     <g id="text_10">
      <!-- 0.4 -->
      <g transform="translate(32 212.9575)scale(0.1 -0.1)">
       <use xlink:href="#SimHei-48"/>
       <use x="50" xlink:href="#SimHei-46"/>
       <use x="100" xlink:href="#SimHei-52"/>
      </g>
     </g>
    </g>
    <g id="ytick_4">
     <g id="line2d_10">
      <g>
       <use style="stroke:#000000;stroke-width:0.8;" x="54" xlink:href="#mf2ef61f8cd" y="154.08"/>
      </g>
     </g>
     <g id="text_11">
      <!-- 0.6 -->
      <g transform="translate(32 157.5175)scale(0.1 -0.1)">
       <use xlink:href="#SimHei-48"/>
       <use x="50" xlink:href="#SimHei-46"/>
       <use x="100" xlink:href="#SimHei-54"/>
      </g>
     </g>
    </g>
    <g id="ytick_5">
     <g id="line2d_11">
      <g>
       <use style="stroke:#000000;stroke-width:0.8;" x="54" xlink:href="#mf2ef61f8cd" y="98.64"/>
      </g>
     </g>
     <g id="text_12">
      <!-- 0.8 -->
      <g transform="translate(32 102.0775)scale(0.1 -0.1)">
       <use xlink:href="#SimHei-48"/>
       <use x="50" xlink:href="#SimHei-46"/>
       <use x="100" xlink:href="#SimHei-56"/>
      </g>
     </g>
    </g>
    <g id="ytick_6">
     <g id="line2d_12">
      <g>
       <use style="stroke:#000000;stroke-width:0.8;" x="54" xlink:href="#mf2ef61f8cd" y="43.2"/>
      </g>
     </g>
     <g id="text_13">
      <!-- 1.0 -->
      <g transform="translate(32 46.6375)scale(0.1 -0.1)">
       <use xlink:href="#SimHei-49"/>
       <use x="50" xlink:href="#SimHei-46"/>
       <use x="100" xlink:href="#SimHei-48"/>
      </g>
     </g>
    </g>
    <g id="text_14">
     <!-- 感染率降低系数（w） -->
     <defs>
      <path d="M 95.703125 29.6875 
Q 92.1875 18.75 89.453125 17.375 
Q 86.71875 16.015625 81.828125 17.765625 
Q 76.953125 19.53125 69.140625 26.5625 
Q 64.453125 21.484375 58.203125 17.1875 
Q 55.46875 20.3125 52.34375 21.875 
Q 60.546875 26.5625 65.234375 32.03125 
Q 60.9375 39.0625 58.78125 47.453125 
Q 56.640625 55.859375 55.859375 63.28125 
L 20.703125 63.28125 
Q 20.703125 45.703125 20.109375 39.453125 
Q 19.53125 33.203125 17.578125 27.734375 
Q 15.625 22.265625 11.71875 16.015625 
Q 7.03125 19.140625 4.296875 19.921875 
Q 8.984375 25.78125 11.125 31.4375 
Q 13.28125 37.109375 13.671875 44.53125 
Q 14.0625 51.953125 13.671875 69.53125 
L 55.078125 69.53125 
Q 55.078125 72.65625 54.6875 80.859375 
Q 58.203125 80.078125 62.890625 79.6875 
Q 62.109375 75 62.5 69.53125 
L 79.6875 69.53125 
Q 85.15625 69.53125 92.578125 69.921875 
L 92.578125 62.890625 
Q 85.15625 63.28125 80.078125 63.28125 
L 62.890625 63.28125 
Q 64.453125 46.875 69.53125 38.671875 
Q 71.875 42.578125 73.828125 48.234375 
Q 75.78125 53.90625 76.953125 58.984375 
Q 80.859375 57.421875 85.15625 56.25 
Q 83.59375 54.6875 81.046875 47.65625 
Q 78.515625 40.625 73.828125 32.03125 
Q 78.125 28.125 81.4375 26.171875 
Q 84.765625 24.21875 85.734375 25.390625 
Q 86.71875 26.5625 88.28125 33.59375 
Q 91.40625 30.859375 95.703125 29.6875 
z
M 51.953125 25 
L 24.609375 25 
L 24.609375 44.921875 
L 51.953125 44.921875 
z
M 76.171875 2.734375 
Q 73.4375 -5.078125 71.484375 -6.4375 
Q 69.53125 -7.8125 66.40625 -7.8125 
L 36.71875 -7.8125 
Q 31.640625 -7.421875 30.65625 -3.125 
Q 29.6875 1.171875 29.6875 5.078125 
Q 29.6875 8.984375 29.296875 14.453125 
L 37.5 14.453125 
Q 37.109375 7.8125 37.109375 5.078125 
Q 37.109375 2.734375 37.5 0.390625 
Q 37.890625 -1.953125 42.578125 -1.5625 
L 60.546875 -1.5625 
Q 64.453125 -1.5625 65.8125 -0.1875 
Q 67.1875 1.171875 67.96875 7.03125 
Q 71.09375 4.6875 76.171875 2.734375 
z
M 51.5625 51.171875 
L 25 51.171875 
L 25 57.03125 
L 51.5625 57.03125 
z
M 83.59375 14.0625 
Q 92.1875 3.515625 94.921875 -0.78125 
Q 91.015625 -3.125 87.890625 -5.46875 
Q 83.984375 1.953125 77.34375 9.375 
Q 80.078125 11.328125 83.59375 14.0625 
z
M 7.421875 -2.734375 
Q 10.9375 1.5625 15.234375 14.453125 
Q 18.359375 12.890625 22.65625 11.328125 
Q 17.578125 -0.390625 14.84375 -5.859375 
Q 11.71875 -4.296875 7.421875 -2.734375 
z
M 45.703125 30.46875 
L 45.703125 39.453125 
L 30.859375 39.453125 
L 30.859375 30.46875 
z
M 42.578125 16.40625 
Q 44.921875 18.359375 48.4375 20.703125 
Q 55.078125 12.109375 57.03125 8.59375 
Q 53.90625 6.640625 51.171875 3.90625 
Q 48.828125 8.203125 42.578125 16.40625 
z
M 76.5625 70.3125 
Q 74.21875 72.265625 67.96875 76.5625 
Q 70.3125 79.296875 71.875 81.640625 
Q 74.609375 80.078125 81.25 75 
Q 78.90625 73.046875 76.5625 70.3125 
z
" id="SimHei-24863"/>
      <path d="M 91.015625 -7.03125 
Q 74.21875 -2.34375 66.40625 3.90625 
Q 58.59375 10.15625 53.90625 17.96875 
Q 53.90625 -4.6875 54.296875 -9.375 
L 46.09375 -9.375 
Q 46.484375 -4.296875 46.484375 16.796875 
Q 40.625 8.59375 31.4375 2.34375 
Q 22.265625 -3.90625 9.765625 -8.984375 
Q 8.59375 -5.078125 3.125 -1.5625 
Q 16.796875 1.5625 25.96875 7.609375 
Q 35.15625 13.671875 38.671875 19.140625 
L 19.140625 19.140625 
Q 13.671875 19.140625 6.25 18.75 
L 6.25 25.78125 
Q 13.671875 25.390625 19.140625 25.390625 
L 46.484375 25.390625 
Q 46.484375 28.515625 46.09375 33.59375 
L 54.296875 33.59375 
Q 53.90625 28.90625 53.90625 25.390625 
L 82.8125 25.390625 
Q 87.890625 25.390625 93.75 25.78125 
L 93.75 18.75 
Q 87.890625 19.140625 82.8125 19.140625 
L 61.71875 19.140625 
Q 67.96875 10.546875 78.125 6.25 
Q 88.28125 1.953125 96.484375 1.171875 
Q 91.40625 -3.90625 91.015625 -7.03125 
z
M 28.515625 35.9375 
Q 39.84375 40.234375 45.703125 47.0625 
Q 51.5625 53.90625 53.125 62.5 
Q 47.265625 62.5 40.234375 62.109375 
L 40.234375 69.140625 
Q 47.65625 68.75 53.515625 68.75 
Q 53.90625 76.953125 53.515625 82.03125 
Q 58.203125 80.859375 62.5 80.859375 
Q 61.328125 78.515625 60.9375 68.75 
L 80.078125 68.75 
Q 79.6875 64.84375 79.296875 60.15625 
L 78.125 44.53125 
Q 78.515625 40.625 80.859375 40.625 
L 85.15625 40.625 
Q 87.109375 40.625 87.6875 42.1875 
Q 88.28125 43.75 88.671875 50 
Q 91.796875 47.265625 96.875 46.875 
Q 95.3125 36.328125 92.375 35.34375 
Q 89.453125 34.375 84.171875 34.171875 
Q 78.90625 33.984375 74.796875 34.953125 
Q 70.703125 35.9375 71.09375 42.1875 
L 72.265625 62.5 
L 60.546875 62.5 
Q 59.375 53.515625 54.296875 45.890625 
Q 49.21875 38.28125 35.546875 30.078125 
Q 33.984375 32.8125 28.515625 35.9375 
z
M 33.984375 45.703125 
Q 19.140625 33.984375 13.28125 29.296875 
Q 10.9375 33.203125 7.8125 35.9375 
Q 17.1875 40.625 31.25 52.734375 
Q 32.03125 49.609375 33.984375 45.703125 
z
M 10.546875 64.84375 
Q 21.484375 59.765625 27.34375 56.25 
Q 24.609375 52.734375 23.046875 49.609375 
Q 19.140625 53.125 7.03125 58.59375 
Q 9.375 61.328125 10.546875 64.84375 
z
M 28.90625 64.84375 
Q 23.046875 69.921875 14.0625 74.609375 
Q 16.015625 76.953125 18.359375 80.078125 
Q 27.34375 75 33.984375 71.09375 
Q 30.46875 67.578125 28.90625 64.84375 
z
" id="SimHei-26579"/>
      <path d="M 48.046875 45.703125 
L 38.28125 1.171875 
L 30.859375 1.171875 
L 24.609375 35.15625 
L 23.828125 35.15625 
L 17.578125 1.171875 
L 10.15625 1.171875 
L 0.390625 45.703125 
L 8.59375 45.703125 
L 13.671875 16.40625 
L 14.453125 16.40625 
L 19.921875 45.703125 
L 28.515625 45.703125 
L 33.984375 16.40625 
L 34.765625 16.40625 
L 39.84375 45.703125 
z
" id="SimHei-119"/>
     </defs>
     <g transform="translate(25.75 267.3)rotate(-90)scale(0.18 -0.18)">
      <use xlink:href="#SimHei-24863"/>
      <use x="100" xlink:href="#SimHei-26579"/>
      <use x="200" xlink:href="#SimHei-29575"/>
      <use x="300" xlink:href="#SimHei-38477"/>
      <use x="400" xlink:href="#SimHei-20302"/>
      <use x="500" xlink:href="#SimHei-31995"/>
      <use x="600" xlink:href="#SimHei-25968"/>
      <use x="700" xlink:href="#SimHei-65288"/>
      <use x="800" xlink:href="#SimHei-119"/>
      <use x="850" xlink:href="#SimHei-65289"/>
     </g>
    </g>
   </g>
   <g id="LineCollection_1"/>
   <g id="LineCollection_2">
    <path clip-path="url(#p7c63b7fbb1)" d="M 54 311.416667 
L 57.348 311.394152 
L 60.696 311.371524 
L 64.044 311.348783 
L 67.392 311.325926 
L 70.74 311.302954 
L 74.088 311.279865 
L 77.436 311.256658 
L 80.784 311.233333 
L 84.132 311.209889 
L 87.48 311.186325 
L 90.828 311.162639 
L 94.176 311.138832 
L 97.524 311.114901 
L 100.872 311.090846 
L 104.22 311.066667 
L 107.568 311.042361 
L 108.753149 311.033712 
" style="fill:none;stroke:#482475;stroke-width:1.5;"/>
    <path clip-path="url(#p7c63b7fbb1)" d="M 133.232472 310.851739 
L 134.352 310.843262 
L 137.7 310.817778 
L 141.048 310.792157 
L 144.396 310.766399 
L 147.744 310.740502 
L 151.092 310.714465 
L 154.44 310.688288 
L 157.788 310.661969 
L 161.136 310.635507 
L 164.484 310.608901 
L 167.832 310.582149 
L 171.18 310.555251 
L 174.528 310.528205 
L 177.876 310.50101 
L 181.224 310.473665 
L 184.572 310.446168 
L 187.92 310.418519 
L 191.268 310.390715 
L 194.616 310.362756 
L 197.964 310.334641 
L 201.312 310.306367 
L 204.66 310.277934 
L 208.008 310.249341 
L 209.192031 310.239171 
" style="fill:none;stroke:#482475;stroke-width:1.5;"/>
    <path clip-path="url(#p7c63b7fbb1)" d="M 233.671091 310.024664 
L 234.792 310.014644 
L 238.14 309.984541 
L 241.488 309.954264 
L 244.836 309.92381 
L 248.184 309.893177 
L 251.532 309.862366 
L 254.88 309.831373 
L 258.228 309.800197 
L 261.576 309.768836 
L 264.924 309.73729 
L 268.272 309.705556 
L 271.62 309.673632 
L 274.968 309.641517 
L 278.316 309.609209 
L 281.664 309.576707 
L 285.012 309.544008 
L 288.36 309.511111 
L 291.708 309.478014 
L 295.056 309.444715 
L 298.404 309.411213 
L 301.752 309.377505 
L 305.1 309.34359 
L 308.2 309.312 
L 308.448 309.309465 
L 309.541261 309.298253 
" style="fill:none;stroke:#482475;stroke-width:1.5;"/>
    <path clip-path="url(#p7c63b7fbb1)" d="M 334.019917 309.041679 
L 335.232 309.028692 
L 338.58 308.992593 
L 341.928 308.956263 
L 345.276 308.919702 
L 348.624 308.882906 
L 351.972 308.845874 
L 355.32 308.808602 
L 358.668 308.77109 
L 362.016 308.733333 
L 365.364 308.695331 
L 368.712 308.657081 
L 372.06 308.618579 
L 375.408 308.579825 
L 378.756 308.540814 
L 382.104 308.501545 
L 385.452 308.462016 
L 388.8 308.422222 
" style="fill:none;stroke:#482475;stroke-width:1.5;"/>
   </g>
   <g id="LineCollection_3">
    <path clip-path="url(#p7c63b7fbb1)" d="M 54 279.333333 
L 57.348 279.230409 
L 60.696 279.126968 
L 64.044 279.023006 
L 67.392 278.918519 
L 70.533333 278.82 
L 70.74 278.813502 
L 74.088 278.707953 
L 77.436 278.601866 
L 80.784 278.495238 
L 84.132 278.388065 
L 87.48 278.280342 
L 90.828 278.172065 
L 94.176 278.06323 
L 97.524 277.953833 
L 100.872 277.843869 
L 104.22 277.733333 
L 107.568 277.622222 
L 108.671136 277.585421 
" style="fill:none;stroke:#414487;stroke-width:1.5;"/>
    <path clip-path="url(#p7c63b7fbb1)" d="M 133.137015 276.754111 
L 134.352 276.712057 
L 137.7 276.595556 
L 141.048 276.478431 
L 144.396 276.360679 
L 147.744 276.242294 
L 151.092 276.12327 
L 153.2 276.048 
L 154.44 276.003604 
L 157.788 275.883288 
L 161.136 275.762319 
L 164.484 275.64069 
L 167.832 275.518397 
L 171.18 275.395434 
L 174.528 275.271795 
L 177.876 275.147475 
L 181.224 275.022468 
L 184.572 274.896768 
L 187.92 274.77037 
L 191.268 274.643268 
L 194.616 274.515456 
L 197.964 274.386928 
L 201.312 274.257678 
L 204.66 274.1277 
L 208.008 273.996987 
L 208.956134 273.95976 
" style="fill:none;stroke:#414487;stroke-width:1.5;"/>
    <path clip-path="url(#p7c63b7fbb1)" d="M 233.416528 272.980294 
L 234.792 272.924085 
L 238.14 272.786473 
L 241.488 272.648062 
L 244.836 272.508844 
L 248.184 272.368811 
L 251.532 272.227957 
L 254.88 272.086275 
L 258.228 271.943756 
L 261.576 271.800394 
L 264.924 271.656182 
L 268.272 271.511111 
L 271.62 271.365174 
L 274.968 271.218363 
L 278.316 271.070671 
L 281.664 270.922088 
L 285.012 270.772608 
L 288.36 270.622222 
L 290.977778 270.504 
L 291.708 270.470922 
L 295.056 270.318699 
L 298.404 270.165545 
L 301.752 270.011452 
L 305.1 269.85641 
L 308.448 269.700412 
L 309.810648 269.636526 
" style="fill:none;stroke:#414487;stroke-width:1.5;"/>
    <path clip-path="url(#p7c63b7fbb1)" d="M 334.262563 268.464361 
L 335.232 268.416878 
L 338.58 268.251852 
L 341.928 268.085775 
L 345.276 267.918637 
L 348.624 267.750427 
L 348.989474 267.732 
L 351.972 267.581136 
L 355.32 267.410753 
L 358.668 267.239266 
L 362.016 267.066667 
L 365.364 266.892942 
L 368.712 266.718083 
L 372.06 266.542077 
L 375.408 266.364912 
L 378.756 266.186579 
L 382.104 266.007064 
L 385.452 265.826357 
L 388.8 265.644444 
" style="fill:none;stroke:#414487;stroke-width:1.5;"/>
   </g>
   <g id="LineCollection_4">
    <path clip-path="url(#p7c63b7fbb1)" d="M 54 247.25 
L 57.348 247.066667 
L 60.696 246.882412 
L 64.044 246.697229 
L 67.392 246.511111 
L 70.74 246.324051 
L 74.088 246.136041 
L 77.436 245.947074 
L 80.784 245.757143 
L 84.132 245.56624 
L 84.311111 245.556 
L 87.48 245.374359 
L 90.828 245.181491 
L 94.176 244.987629 
L 97.524 244.792765 
L 100.872 244.596891 
L 104.22 244.4 
L 107.568 244.202083 
L 108.278784 244.159846 
" style="fill:none;stroke:#355f8d;stroke-width:1.5;"/>
    <path clip-path="url(#p7c63b7fbb1)" d="M 132.71412 242.681837 
L 134.352 242.580851 
L 137.7 242.373333 
L 141.048 242.164706 
L 144.396 241.95496 
L 147.744 241.744086 
L 151.092 241.532075 
L 154.44 241.318919 
L 157.788 241.104607 
L 161.136 240.88913 
L 164.484 240.67248 
L 167.832 240.454645 
L 171.18 240.235616 
L 174.528 240.015385 
L 174.57931 240.012 
L 177.876 239.793939 
L 181.224 239.571271 
L 184.572 239.347368 
L 187.92 239.122222 
L 191.268 238.895822 
L 194.616 238.668156 
L 197.964 238.439216 
L 201.312 238.208989 
L 204.66 237.977465 
L 208.008 237.744633 
L 209.159241 237.664118 
" style="fill:none;stroke:#355f8d;stroke-width:1.5;"/>
    <path clip-path="url(#p7c63b7fbb1)" d="M 233.577161 235.921956 
L 234.792 235.833526 
L 238.14 235.588406 
L 241.488 235.34186 
L 244.836 235.093878 
L 248.184 234.844444 
L 251.532 234.593548 
L 253.2 234.468 
L 254.88 234.341176 
L 258.228 234.087316 
L 261.576 233.831953 
L 264.924 233.575074 
L 268.272 233.316667 
L 271.62 233.056716 
L 274.968 232.79521 
L 278.316 232.532132 
L 281.664 232.26747 
L 285.012 232.001208 
L 288.36 231.733333 
L 288.825 231.696 
L 291.708 231.46383 
L 295.056 231.192683 
L 298.404 230.919878 
L 301.752 230.645399 
L 305.1 230.369231 
L 308.448 230.091358 
L 310.118083 229.951888 
" style="fill:none;stroke:#355f8d;stroke-width:1.5;"/>
    <path clip-path="url(#p7c63b7fbb1)" d="M 334.50922 227.868123 
L 335.232 227.805063 
L 338.58 227.511111 
L 341.928 227.215287 
L 345.276 226.917572 
L 348.624 226.617949 
L 351.972 226.316399 
L 353.788235 226.152 
L 355.32 226.012903 
L 358.668 225.707443 
L 362.016 225.4 
L 365.364 225.090554 
L 368.712 224.779085 
L 372.06 224.465574 
L 375.408 224.15 
L 378.756 223.832343 
L 382.104 223.512583 
L 383.485714 223.38 
L 385.452 223.190698 
L 388.8 222.866667 
" style="fill:none;stroke:#355f8d;stroke-width:1.5;"/>
   </g>
   <g id="LineCollection_5">
    <path clip-path="url(#p7c63b7fbb1)" d="M 54 215.166667 
L 55.305263 215.064 
L 57.348 214.902924 
L 60.696 214.637856 
L 64.044 214.371453 
L 67.392 214.103704 
L 70.74 213.834599 
L 74.088 213.564129 
L 77.436 213.292282 
L 80.784 213.019048 
L 84.132 212.744416 
L 87.48 212.468376 
L 89.610256 212.292 
L 90.828 212.190917 
L 94.176 211.912027 
L 97.524 211.631697 
L 100.872 211.349914 
L 104.22 211.066667 
L 107.568 210.781944 
L 109.973613 210.576297 
" style="fill:none;stroke:#2a788e;stroke-width:1.5;"/>
    <path clip-path="url(#p7c63b7fbb1)" d="M 134.360982 208.448844 
L 137.7 208.151111 
L 141.048 207.85098 
L 144.396 207.54924 
L 147.744 207.245878 
L 151.092 206.940881 
L 153.2 206.748 
L 154.44 206.634234 
L 157.788 206.325926 
L 161.136 206.015942 
L 164.484 205.704269 
L 167.832 205.390893 
L 171.18 205.075799 
L 174.528 204.758974 
L 177.876 204.440404 
L 181.224 204.120074 
L 182.72381 203.976 
L 184.572 203.797969 
L 187.92 203.474074 
L 191.268 203.148375 
L 194.616 202.820857 
L 197.964 202.491503 
L 201.312 202.1603 
L 204.66 201.82723 
L 208.008 201.492279 
L 209.678361 201.324289 
" style="fill:none;stroke:#2a788e;stroke-width:1.5;"/>
    <path clip-path="url(#p7c63b7fbb1)" d="M 234.030194 198.822742 
L 234.792 198.742967 
L 237.745455 198.432 
L 238.14 198.390338 
L 241.488 198.035659 
L 244.836 197.678912 
L 248.184 197.320078 
L 251.532 196.95914 
L 254.88 196.596078 
L 258.228 196.230875 
L 261.576 195.863511 
L 263.422222 195.66 
L 264.924 195.493966 
L 268.272 195.122222 
L 271.62 194.748259 
L 274.968 194.372056 
L 278.316 193.993594 
L 281.664 193.612851 
L 285.012 193.229809 
L 287.982609 192.888 
L 288.36 192.844444 
L 291.708 192.456738 
L 295.056 192.066667 
L 298.404 191.67421 
L 301.752 191.279346 
L 305.1 190.882051 
L 308.448 190.482305 
L 309.203115 190.391611 
" style="fill:none;stroke:#2a788e;stroke-width:1.5;"/>
    <path clip-path="url(#p7c63b7fbb1)" d="M 333.500921 187.410748 
L 334.033333 187.344 
L 335.232 187.193249 
L 338.58 186.77037 
L 341.928 186.344798 
L 345.276 185.916507 
L 348.624 185.48547 
L 351.972 185.051661 
L 355.32 184.615054 
L 355.64898 184.572 
L 358.668 184.17562 
L 362.016 183.733333 
L 365.364 183.288165 
L 368.712 182.840087 
L 372.06 182.389071 
L 375.408 181.935088 
L 376.4 181.8 
L 378.756 181.478108 
L 382.104 181.018102 
L 385.452 180.555039 
L 388.8 180.088889 
" style="fill:none;stroke:#2a788e;stroke-width:1.5;"/>
   </g>
   <g id="LineCollection_6">
    <path clip-path="url(#p7c63b7fbb1)" d="M 54 183.083333 
L 57.348 182.739181 
L 60.696 182.3933 
L 64.044 182.045676 
L 66.4 181.8 
L 67.392 181.696296 
L 70.74 181.345148 
L 74.088 180.992217 
L 77.436 180.637489 
L 80.784 180.280952 
L 84.132 179.922592 
L 87.48 179.562393 
L 90.828 179.200343 
L 92.415686 179.028 
L 94.176 178.836426 
L 97.524 178.470629 
L 100.872 178.102936 
L 104.22 177.733333 
L 107.568 177.361806 
L 109.687194 177.12541 
" style="fill:none;stroke:#21918c;stroke-width:1.5;"/>
    <path clip-path="url(#p7c63b7fbb1)" d="M 134.010247 174.357993 
L 134.352 174.31844 
L 137.7 173.928889 
L 141.048 173.537255 
L 141.501887 173.484 
L 144.396 173.143521 
L 147.744 172.74767 
L 151.092 172.349686 
L 154.44 171.94955 
L 157.788 171.547245 
L 161.136 171.142754 
L 164.484 170.736058 
L 164.681481 170.712 
L 167.832 170.32714 
L 171.18 169.915982 
L 174.528 169.502564 
L 177.876 169.086869 
L 181.224 168.668877 
L 184.572 168.248569 
L 187.018182 167.94 
L 187.92 167.825926 
L 191.268 167.400929 
L 194.616 166.973557 
L 197.964 166.543791 
L 201.312 166.11161 
L 204.66 165.676995 
L 208.008 165.239925 
L 208.557143 165.168 
L 208.67903 165.15199 
" style="fill:none;stroke:#21918c;stroke-width:1.5;"/>
    <path clip-path="url(#p7c63b7fbb1)" d="M 232.942719 161.905103 
L 234.792 161.652408 
L 238.14 161.192271 
L 241.488 160.729457 
L 244.836 160.263946 
L 248.184 159.795712 
L 249.406897 159.624 
L 251.532 159.324731 
L 254.88 158.85098 
L 258.228 158.374435 
L 261.576 157.895069 
L 264.924 157.412859 
L 268.272 156.927778 
L 268.79322 156.852 
L 271.62 156.439801 
L 274.968 155.948902 
L 278.316 155.455055 
L 281.664 154.958233 
L 285.012 154.458409 
L 287.533333 154.08 
L 288.36 153.955556 
L 291.708 153.449645 
L 295.056 152.94065 
L 298.404 152.428542 
L 301.752 151.913292 
L 305.1 151.394872 
L 305.659016 151.308 
L 308.448 150.873251 
L 308.920888 150.799118 
" style="fill:none;stroke:#21918c;stroke-width:1.5;"/>
    <path clip-path="url(#p7c63b7fbb1)" d="M 333.093411 146.931685 
L 335.232 146.581435 
L 338.58 146.02963 
L 340.184127 145.764 
L 341.928 145.47431 
L 345.276 144.915442 
L 348.624 144.352991 
L 351.972 143.786924 
L 355.32 143.217204 
L 356.6375 142.992 
L 358.668 142.643797 
L 362.016 142.066667 
L 365.364 141.485776 
L 368.712 140.901089 
L 372.06 140.312568 
L 372.584615 140.22 
L 375.408 139.720175 
L 378.756 139.123872 
L 382.104 138.52362 
L 385.452 137.91938 
L 388.048485 137.448 
L 388.8 137.311111 
" style="fill:none;stroke:#21918c;stroke-width:1.5;"/>
   </g>
   <g id="LineCollection_7">
    <path clip-path="url(#p7c63b7fbb1)" d="M 54 151 
L 57.348 150.575439 
L 60.696 150.148744 
L 64.044 149.719899 
L 67.392 149.288889 
L 70.74 148.855696 
L 73.2 148.536 
L 74.088 148.420305 
L 77.436 147.982697 
L 80.784 147.542857 
L 84.132 147.100767 
L 87.48 146.65641 
L 90.828 146.209769 
L 94.152381 145.764 
L 94.176 145.760825 
L 97.524 145.309561 
L 100.872 144.855959 
L 104.22 144.4 
L 107.568 143.941667 
L 109.093256 143.731772 
" style="fill:none;stroke:#22a884;stroke-width:1.5;"/>
    <path clip-path="url(#p7c63b7fbb1)" d="M 133.336047 140.332349 
L 134.123077 140.22 
L 134.352 140.187234 
L 137.7 139.706667 
L 141.048 139.223529 
L 144.396 138.737802 
L 147.744 138.249462 
L 151.092 137.758491 
L 153.2 137.448 
L 154.44 137.264865 
L 157.788 136.768564 
L 161.136 136.269565 
L 164.484 135.767847 
L 167.832 135.263388 
L 171.18 134.756164 
L 171.707463 134.676 
L 174.528 134.246154 
L 177.876 133.733333 
L 181.224 133.21768 
L 184.572 132.699169 
L 187.92 132.177778 
L 189.670588 131.904 
L 191.268 131.653482 
L 194.616 131.126257 
L 197.964 130.596078 
L 201.312 130.062921 
L 204.66 129.526761 
L 207.113043 129.132 
L 208.008 128.987571 
L 209.391355 128.763521 
" style="fill:none;stroke:#22a884;stroke-width:1.5;"/>
    <path clip-path="url(#p7c63b7fbb1)" d="M 233.543747 124.772269 
L 234.792 124.56185 
L 238.14 123.994203 
L 240.523944 123.588 
L 241.488 123.423256 
L 244.836 122.84898 
L 248.184 122.271345 
L 251.532 121.690323 
L 254.88 121.105882 
L 256.533333 120.816 
L 258.228 120.517994 
L 261.576 119.926627 
L 264.924 119.331751 
L 268.272 118.733333 
L 271.62 118.131343 
L 272.10411 118.044 
L 274.968 117.525749 
L 278.316 116.916517 
L 281.664 116.303614 
L 285.012 115.687009 
L 287.254054 115.272 
L 288.36 115.066667 
L 291.708 114.442553 
L 295.056 113.814634 
L 298.404 113.182875 
L 301.752 112.547239 
L 302 112.5 
L 305.1 111.907692 
L 308.448 111.264198 
L 311.738554 110.627828 
" style="fill:none;stroke:#22a884;stroke-width:1.5;"/>
    <path clip-path="url(#p7c63b7fbb1)" d="M 335.75052 105.864192 
L 338.58 105.288889 
L 341.928 104.603822 
L 343.969231 104.184 
L 345.276 103.914377 
L 348.624 103.220513 
L 351.972 102.522186 
L 355.32 101.819355 
L 357.250633 101.412 
L 358.668 101.111974 
L 362.016 100.4 
L 365.364 99.683388 
L 368.712 98.962092 
L 370.2 98.64 
L 372.06 98.236066 
L 375.408 97.505263 
L 378.756 96.769637 
L 382.104 96.029139 
L 382.82963 95.868 
L 385.452 95.283721 
L 388.8 94.533333 
" style="fill:none;stroke:#22a884;stroke-width:1.5;"/>
   </g>
   <g id="LineCollection_8">
    <path clip-path="url(#p7c63b7fbb1)" d="M 54 118.916667 
L 57.348 118.411696 
L 59.775342 118.044 
L 60.696 117.904188 
L 64.044 117.394123 
L 67.392 116.881481 
L 70.74 116.366245 
L 74.088 115.848393 
L 77.436 115.327905 
L 77.794595 115.272 
L 80.784 114.804762 
L 84.132 114.278943 
L 87.48 113.750427 
L 90.828 113.219195 
L 94.176 112.685223 
L 95.333333 112.5 
L 97.524 112.148493 
L 100.872 111.608981 
L 104.22 111.066667 
L 107.568 110.521528 
L 108.205676 110.417156 
" style="fill:none;stroke:#44bf70;stroke-width:1.5;"/>
    <path clip-path="url(#p7c63b7fbb1)" d="M 132.353029 106.39549 
L 134.352 106.056028 
L 137.7 105.484444 
L 141.048 104.909804 
L 144.396 104.332082 
L 145.251282 104.184 
L 147.744 103.751254 
L 151.092 103.167296 
L 154.44 102.58018 
L 157.788 101.989883 
L 161.048101 101.412 
L 161.136 101.396377 
L 164.484 100.799637 
L 167.832 100.199636 
L 171.18 99.596347 
L 174.528 98.989744 
L 176.45 98.64 
L 177.876 98.379798 
L 181.224 97.766483 
L 184.572 97.149769 
L 187.92 96.52963 
L 191.268 95.906035 
L 191.471605 95.868 
L 194.616 95.278957 
L 197.964 94.648366 
L 201.312 94.014232 
L 204.66 93.376526 
L 206.126829 93.096 
L 207.780132 92.778919 
" style="fill:none;stroke:#44bf70;stroke-width:1.5;"/>
    <path clip-path="url(#p7c63b7fbb1)" d="M 231.80302 88.070598 
L 234.390476 87.552 
L 234.792 87.471291 
L 238.14 86.796135 
L 241.488 86.117054 
L 244.836 85.434014 
L 248.023529 84.78 
L 248.184 84.746979 
L 251.532 84.055914 
L 254.88 83.360784 
L 258.228 82.661554 
L 261.339535 82.008 
L 261.576 81.958185 
L 264.924 81.250643 
L 268.272 80.538889 
L 271.62 79.822886 
L 274.349425 79.236 
L 274.968 79.102595 
L 278.316 78.377978 
L 281.664 77.648996 
L 285.012 76.915609 
L 287.063636 76.464 
L 288.36 76.177778 
L 291.708 75.435461 
L 295.056 74.688618 
L 298.404 73.937207 
L 299.492135 73.692 
L 301.752 73.181186 
L 305.1 72.420513 
L 308.448 71.655144 
L 309.389941 71.438509 
" style="fill:none;stroke:#44bf70;stroke-width:1.5;"/>
    <path clip-path="url(#p7c63b7fbb1)" d="M 333.221294 65.841016 
L 335.156522 65.376 
L 335.232 65.357806 
L 338.58 64.548148 
L 341.928 63.733333 
L 345.276 62.913312 
L 346.533333 62.604 
L 348.624 62.088034 
L 351.972 61.257449 
L 355.32 60.421505 
L 357.668085 59.832 
L 358.668 59.580151 
L 362.016 58.733333 
L 365.364 57.880999 
L 368.568421 57.06 
L 368.712 57.023094 
L 372.06 56.159563 
L 375.408 55.290351 
L 378.756 54.415402 
L 379.241667 54.288 
L 382.104 53.534658 
L 385.452 52.648062 
L 388.8 51.755556 
" style="fill:none;stroke:#44bf70;stroke-width:1.5;"/>
   </g>
   <g id="LineCollection_9">
    <path clip-path="url(#p7c63b7fbb1)" d="M 54 86.833333 
L 57.348 86.247953 
L 60.696 85.659631 
L 64.044 85.068346 
L 65.670588 84.78 
L 67.392 84.474074 
L 70.74 83.876793 
L 74.088 83.276481 
L 77.436 82.673113 
L 80.784 82.066667 
L 81.106977 82.008 
L 84.132 81.457118 
L 87.48 80.844444 
L 90.828 80.22862 
L 94.176 79.609622 
L 96.188506 79.236 
L 97.524 78.987425 
L 100.872 78.362003 
L 104.22 77.733333 
L 107.568 77.101389 
L 109.614841 76.713024 
" style="fill:none;stroke:#7ad151;stroke-width:1.5;"/>
    <path clip-path="url(#p7c63b7fbb1)" d="M 133.649127 72.06319 
L 134.352 71.924823 
L 137.7 71.262222 
L 139.422222 70.92 
L 141.048 70.596078 
L 144.396 69.926363 
L 147.744 69.253047 
L 151.092 68.576101 
L 153.2 68.148 
L 154.44 67.895495 
L 157.788 67.211201 
L 161.136 66.523188 
L 164.484 65.831426 
L 166.678261 65.376 
L 167.832 65.135883 
L 171.18 64.43653 
L 174.528 63.733333 
L 177.876 63.026263 
L 179.866667 62.604 
L 181.224 62.315285 
L 184.572 61.600369 
L 187.92 60.881481 
L 191.268 60.158589 
L 192.774468 59.832 
L 194.616 59.431657 
L 197.964 58.700654 
L 201.312 57.965543 
L 204.66 57.226291 
L 205.410526 57.06 
L 205.707289 56.994062 
" style="fill:none;stroke:#7ad151;stroke-width:1.5;"/>
    <path clip-path="url(#p7c63b7fbb1)" d="M 229.583132 51.589365 
L 229.901031 51.516 
L 231.444 51.158886 
L 234.792 50.380732 
L 238.14 49.598068 
L 241.488 48.810853 
L 241.771429 48.744 
L 244.836 48.019048 
L 248.184 47.222612 
L 251.532 46.421505 
L 253.40202 45.972 
L 254.88 45.615686 
L 258.228 44.805113 
L 261.576 43.989744 
L 264.8 43.2 
" style="fill:none;stroke:#7ad151;stroke-width:1.5;"/>
   </g>
   <g id="LineCollection_10">
    <path clip-path="url(#p7c63b7fbb1)" d="M 54 54.75 
L 56.325 54.288 
L 57.348 54.084211 
L 60.696 53.415075 
L 60.846594 53.384826 
" style="fill:none;stroke:#bddf26;stroke-width:1.5;"/>
    <path clip-path="url(#p7c63b7fbb1)" d="M 84.832098 48.48958 
L 87.48 47.938462 
L 90.828 47.238046 
L 94.176 46.534021 
L 96.836364 45.972 
L 97.524 45.826357 
L 100.872 45.115026 
L 104.22 44.4 
L 107.568 43.68125 
L 109.8 43.2 
" style="fill:none;stroke:#bddf26;stroke-width:1.5;"/>
   </g>
   <g id="LineCollection_11"/>
   <g id="patch_3">
    <path d="M 54 320.4 
L 54 43.2 
" style="fill:none;stroke:#000000;stroke-linecap:square;stroke-linejoin:miter;stroke-width:0.8;"/>
   </g>
   <g id="patch_4">
    <path d="M 388.8 320.4 
L 388.8 43.2 
" style="fill:none;stroke:#000000;stroke-linecap:square;stroke-linejoin:miter;stroke-width:0.8;"/>
   </g>
   <g id="patch_5">
    <path d="M 54 320.4 
L 388.8 320.4 
" style="fill:none;stroke:#000000;stroke-linecap:square;stroke-linejoin:miter;stroke-width:0.8;"/>
   </g>
   <g id="patch_6">
    <path d="M 54 43.2 
L 388.8 43.2 
" style="fill:none;stroke:#000000;stroke-linecap:square;stroke-linejoin:miter;stroke-width:0.8;"/>
   </g>
   <g id="text_15">
    <g clip-path="url(#p7c63b7fbb1)">
     <!-- 0.2 -->
     <g style="fill:#ff0000;" transform="translate(112.018154 314.385423)rotate(-0.425909)scale(0.12 -0.12)">
      <use xlink:href="#SimHei-48"/>
      <use x="50" xlink:href="#SimHei-46"/>
      <use x="100" xlink:href="#SimHei-50"/>
     </g>
    </g>
   </g>
   <g id="text_16">
    <g clip-path="url(#p7c63b7fbb1)">
     <!-- 0.2 -->
     <g style="fill:#ff0000;" transform="translate(212.461489 313.586788)rotate(-0.502055)scale(0.12 -0.12)">
      <use xlink:href="#SimHei-48"/>
      <use x="50" xlink:href="#SimHei-46"/>
      <use x="100" xlink:href="#SimHei-50"/>
     </g>
    </g>
   </g>
   <g id="text_17">
    <g clip-path="url(#p7c63b7fbb1)">
     <!-- 0.2 -->
     <g style="fill:#ff0000;" transform="translate(312.816471 312.640593)rotate(-0.6005)scale(0.12 -0.12)">
      <use xlink:href="#SimHei-48"/>
      <use x="50" xlink:href="#SimHei-46"/>
      <use x="100" xlink:href="#SimHei-50"/>
     </g>
    </g>
   </g>
   <g id="text_18">
    <g clip-path="url(#p7c63b7fbb1)">
     <!-- 0.4 -->
     <g style="fill:#ff0000;" transform="translate(112.024011 280.852493)rotate(-1.946005)scale(0.12 -0.12)">
      <use xlink:href="#SimHei-48"/>
      <use x="50" xlink:href="#SimHei-46"/>
      <use x="100" xlink:href="#SimHei-52"/>
     </g>
    </g>
   </g>
   <g id="text_19">
    <g clip-path="url(#p7c63b7fbb1)">
     <!-- 0.4 -->
     <g style="fill:#ff0000;" transform="translate(212.328771 277.207562)rotate(-2.292902)scale(0.12 -0.12)">
      <use xlink:href="#SimHei-48"/>
      <use x="50" xlink:href="#SimHei-46"/>
      <use x="100" xlink:href="#SimHei-52"/>
     </g>
    </g>
   </g>
   <g id="text_20">
    <g clip-path="url(#p7c63b7fbb1)">
     <!-- 0.4 -->
     <g style="fill:#ff0000;" transform="translate(313.20886 272.859281)rotate(-2.744567)scale(0.12 -0.12)">
      <use xlink:href="#SimHei-48"/>
      <use x="50" xlink:href="#SimHei-46"/>
      <use x="100" xlink:href="#SimHei-52"/>
     </g>
    </g>
   </g>
   <g id="text_21">
    <g clip-path="url(#p7c63b7fbb1)">
     <!-- 0.6 -->
     <g style="fill:#ff0000;" transform="translate(111.717043 247.340122)rotate(-3.461001)scale(0.12 -0.12)">
      <use xlink:href="#SimHei-48"/>
      <use x="50" xlink:href="#SimHei-46"/>
      <use x="100" xlink:href="#SimHei-54"/>
     </g>
    </g>
   </g>
   <g id="text_22">
    <g clip-path="url(#p7c63b7fbb1)">
     <!-- 0.6 -->
     <g style="fill:#ff0000;" transform="translate(212.631855 240.809139)rotate(-4.080875)scale(0.12 -0.12)">
      <use xlink:href="#SimHei-48"/>
      <use x="50" xlink:href="#SimHei-46"/>
      <use x="100" xlink:href="#SimHei-54"/>
     </g>
    </g>
   </g>
   <g id="text_23">
    <g clip-path="url(#p7c63b7fbb1)">
     <!-- 0.6 -->
     <g style="fill:#ff0000;" transform="translate(313.634651 233.050868)rotate(-4.883402)scale(0.12 -0.12)">
      <use xlink:href="#SimHei-48"/>
      <use x="50" xlink:href="#SimHei-46"/>
      <use x="100" xlink:href="#SimHei-54"/>
     </g>
    </g>
   </g>
   <g id="text_24">
    <g clip-path="url(#p7c63b7fbb1)">
     <!-- 0.8 -->
     <g style="fill:#ff0000;" transform="translate(113.495582 213.667232)rotate(-4.986132)scale(0.12 -0.12)">
      <use xlink:href="#SimHei-48"/>
      <use x="50" xlink:href="#SimHei-46"/>
      <use x="100" xlink:href="#SimHei-56"/>
     </g>
    </g>
   </g>
   <g id="text_25">
    <g clip-path="url(#p7c63b7fbb1)">
     <!-- 0.8 -->
     <g style="fill:#ff0000;" transform="translate(213.247634 204.363523)rotate(-5.865581)scale(0.12 -0.12)">
      <use xlink:href="#SimHei-48"/>
      <use x="50" xlink:href="#SimHei-46"/>
      <use x="100" xlink:href="#SimHei-56"/>
     </g>
    </g>
   </g>
   <g id="text_26">
    <g clip-path="url(#p7c63b7fbb1)">
     <!-- 0.8 -->
     <g style="fill:#ff0000;" transform="translate(312.831963 193.363542)rotate(-6.993699)scale(0.12 -0.12)">
      <use xlink:href="#SimHei-48"/>
      <use x="50" xlink:href="#SimHei-46"/>
      <use x="100" xlink:href="#SimHei-56"/>
     </g>
    </g>
   </g>
   <g id="text_27">
    <g clip-path="url(#p7c63b7fbb1)">
     <!-- 1.0 -->
     <g style="fill:#ff0000;" transform="translate(113.289489 180.125638)rotate(-6.491769)scale(0.12 -0.12)">
      <use xlink:href="#SimHei-49"/>
      <use x="50" xlink:href="#SimHei-46"/>
      <use x="100" xlink:href="#SimHei-48"/>
     </g>
    </g>
   </g>
   <g id="text_28">
    <g clip-path="url(#p7c63b7fbb1)">
     <!-- 1.0 -->
     <g style="fill:#ff0000;" transform="translate(212.340133 168.08374)rotate(-7.620518)scale(0.12 -0.12)">
      <use xlink:href="#SimHei-49"/>
      <use x="50" xlink:href="#SimHei-46"/>
      <use x="100" xlink:href="#SimHei-48"/>
     </g>
    </g>
   </g>
   <g id="text_29">
    <g clip-path="url(#p7c63b7fbb1)">
     <!-- 1.0 -->
     <g style="fill:#ff0000;" transform="translate(312.656645 153.640894)rotate(-9.088398)scale(0.12 -0.12)">
      <use xlink:href="#SimHei-49"/>
      <use x="50" xlink:href="#SimHei-46"/>
      <use x="100" xlink:href="#SimHei-48"/>
     </g>
    </g>
   </g>
   <g id="text_30">
    <g clip-path="url(#p7c63b7fbb1)">
     <!-- 1.2 -->
     <g style="fill:#ff0000;" transform="translate(112.772797 146.640246)rotate(-7.982525)scale(0.12 -0.12)">
      <use xlink:href="#SimHei-49"/>
      <use x="50" xlink:href="#SimHei-46"/>
      <use x="100" xlink:href="#SimHei-50"/>
     </g>
    </g>
   </g>
   <g id="text_31">
    <g clip-path="url(#p7c63b7fbb1)">
     <!-- 1.2 -->
     <g style="fill:#ff0000;" transform="translate(213.141602 131.58546)rotate(-9.383407)scale(0.12 -0.12)">
      <use xlink:href="#SimHei-49"/>
      <use x="50" xlink:href="#SimHei-46"/>
      <use x="100" xlink:href="#SimHei-50"/>
     </g>
    </g>
   </g>
   <g id="text_32">
    <g clip-path="url(#p7c63b7fbb1)">
     <!-- 1.2 -->
     <g style="fill:#ff0000;" transform="translate(315.578281 113.333075)rotate(-11.21995)scale(0.12 -0.12)">
      <use xlink:href="#SimHei-49"/>
      <use x="50" xlink:href="#SimHei-46"/>
      <use x="100" xlink:href="#SimHei-50"/>
     </g>
    </g>
   </g>
   <g id="text_33">
    <g clip-path="url(#p7c63b7fbb1)">
     <!-- 1.4 -->
     <g style="fill:#ff0000;" transform="translate(111.959081 113.232439)rotate(-9.454299)scale(0.12 -0.12)">
      <use xlink:href="#SimHei-49"/>
      <use x="50" xlink:href="#SimHei-46"/>
      <use x="100" xlink:href="#SimHei-52"/>
     </g>
    </g>
   </g>
   <g id="text_34">
    <g clip-path="url(#p7c63b7fbb1)">
     <!-- 1.4 -->
     <g style="fill:#ff0000;" transform="translate(211.61323 95.490818)rotate(-11.088547)scale(0.12 -0.12)">
      <use xlink:href="#SimHei-49"/>
      <use x="50" xlink:href="#SimHei-46"/>
      <use x="100" xlink:href="#SimHei-52"/>
     </g>
    </g>
   </g>
   <g id="text_35">
    <g clip-path="url(#p7c63b7fbb1)">
     <!-- 1.4 -->
     <g style="fill:#ff0000;" transform="translate(313.32259 74.012705)rotate(-13.216403)scale(0.12 -0.12)">
      <use xlink:href="#SimHei-49"/>
      <use x="50" xlink:href="#SimHei-46"/>
      <use x="100" xlink:href="#SimHei-52"/>
     </g>
    </g>
   </g>
   <g id="text_36">
    <g clip-path="url(#p7c63b7fbb1)">
     <!-- 1.6 -->
     <g style="fill:#ff0000;" transform="translate(113.441089 79.43255)rotate(-10.950525)scale(0.12 -0.12)">
      <use xlink:href="#SimHei-49"/>
      <use x="50" xlink:href="#SimHei-46"/>
      <use x="100" xlink:href="#SimHei-54"/>
     </g>
    </g>
   </g>
   <g id="text_37">
    <g clip-path="url(#p7c63b7fbb1)">
     <!-- 1.6 -->
     <g style="fill:#ff0000;" transform="translate(209.618275 59.596479)rotate(-12.754055)scale(0.12 -0.12)">
      <use xlink:href="#SimHei-49"/>
      <use x="50" xlink:href="#SimHei-46"/>
      <use x="100" xlink:href="#SimHei-54"/>
     </g>
    </g>
   </g>
   <g id="text_38">
    <g clip-path="url(#p7c63b7fbb1)">
     <!-- 1.8 -->
     <g style="fill:#ff0000;" transform="translate(64.700195 56.064665)rotate(-11.533591)scale(0.12 -0.12)">
      <use xlink:href="#SimHei-49"/>
      <use x="50" xlink:href="#SimHei-46"/>
      <use x="100" xlink:href="#SimHei-56"/>
     </g>
    </g>
   </g>
   <g id="text_39">
    <!-- 基本再生数，R0 -->
    <defs>
     <path d="M 28.125 71.09375 
Q 28.125 76.5625 27.734375 81.25 
L 35.9375 81.25 
Q 35.546875 76.171875 35.546875 71.09375 
L 63.671875 71.09375 
Q 63.671875 76.5625 63.28125 81.25 
L 71.484375 81.25 
Q 71.09375 76.171875 71.09375 71.09375 
L 76.953125 71.09375 
Q 81.25 71.09375 87.890625 71.484375 
L 87.890625 65.234375 
Q 81.25 65.625 76.953125 65.625 
L 71.09375 65.625 
L 71.09375 34.765625 
L 79.6875 34.765625 
Q 87.5 34.765625 94.140625 35.15625 
L 94.140625 28.125 
Q 87.890625 28.90625 80.078125 28.90625 
L 70.3125 28.90625 
Q 76.171875 22.65625 81.640625 19.328125 
Q 87.109375 16.015625 95.703125 14.0625 
Q 92.1875 9.765625 91.40625 5.46875 
Q 81.25 10.15625 74.015625 16.203125 
Q 66.796875 22.265625 62.5 28.90625 
L 39.0625 28.90625 
Q 34.375 21.484375 26.75 15.625 
Q 19.140625 9.765625 8.59375 5.46875 
Q 7.421875 8.984375 4.296875 12.890625 
Q 10.9375 14.453125 18.9375 18.9375 
Q 26.953125 23.4375 30.46875 28.90625 
L 20.3125 28.90625 
Q 13.28125 28.90625 6.25 28.125 
L 6.25 35.15625 
Q 13.28125 34.765625 20.3125 34.765625 
L 28.125 34.765625 
L 28.125 65.625 
Q 18.75 65.625 12.109375 65.234375 
L 12.109375 71.484375 
Q 18.75 71.09375 25.390625 71.09375 
z
M 46.09375 14.84375 
Q 46.09375 18.75 45.703125 24.609375 
L 54.296875 24.609375 
Q 53.515625 20.3125 53.515625 14.84375 
L 60.9375 14.84375 
Q 66.40625 14.84375 71.484375 15.234375 
L 71.484375 7.8125 
Q 66.40625 8.59375 60.546875 8.59375 
L 53.515625 8.59375 
L 53.515625 -1.5625 
L 70.3125 -1.5625 
Q 79.296875 -1.5625 86.71875 -1.171875 
L 86.71875 -8.203125 
Q 79.296875 -7.8125 70.3125 -7.8125 
L 28.125 -7.8125 
Q 20.3125 -7.8125 13.28125 -8.203125 
L 13.28125 -1.171875 
Q 19.921875 -1.5625 28.125 -1.5625 
L 46.09375 -1.5625 
L 46.09375 8.59375 
L 39.84375 8.59375 
Q 33.203125 8.59375 27.734375 8.203125 
L 27.734375 15.234375 
Q 33.203125 14.84375 39.0625 14.84375 
z
M 63.671875 34.765625 
L 63.671875 41.40625 
L 35.546875 41.40625 
L 35.546875 34.765625 
z
M 63.671875 58.984375 
L 63.671875 65.625 
L 35.546875 65.625 
L 35.546875 58.984375 
z
M 63.671875 47.265625 
L 63.671875 52.734375 
L 35.546875 52.734375 
L 35.546875 47.265625 
z
" id="SimHei-22522"/>
     <path d="M 46.09375 61.328125 
L 46.09375 69.140625 
Q 46.09375 75.390625 45.703125 80.859375 
L 54.296875 80.859375 
Q 53.90625 76.5625 53.90625 69.53125 
L 53.90625 61.328125 
L 75.78125 61.328125 
Q 82.421875 61.328125 91.40625 61.71875 
L 91.40625 54.296875 
Q 82.8125 54.6875 76.171875 54.6875 
L 60.15625 54.6875 
Q 65.625 36.71875 75.96875 26.359375 
Q 86.328125 16.015625 94.921875 12.5 
Q 91.40625 9.765625 88.28125 5.078125 
Q 75 14.0625 66.59375 25.578125 
Q 58.203125 37.109375 53.90625 52.34375 
L 53.90625 15.625 
L 58.984375 15.625 
Q 65.234375 15.625 71.875 16.015625 
L 71.875 8.59375 
Q 65.234375 8.984375 58.59375 8.984375 
L 53.90625 8.984375 
Q 53.90625 0 54.296875 -9.375 
L 45.703125 -9.375 
Q 46.09375 0 46.09375 8.984375 
L 41.015625 8.984375 
Q 34.765625 8.984375 28.515625 8.59375 
L 28.515625 16.015625 
Q 34.765625 15.625 41.015625 15.625 
L 46.09375 15.625 
L 46.09375 51.5625 
Q 39.84375 35.546875 32.21875 24.609375 
Q 24.609375 13.671875 11.71875 2.734375 
Q 8.59375 7.03125 4.296875 8.984375 
Q 17.1875 16.796875 25.78125 28.515625 
Q 34.375 40.234375 39.453125 54.6875 
L 22.265625 54.6875 
Q 16.015625 54.6875 8.984375 54.296875 
L 8.984375 61.71875 
Q 16.015625 61.328125 21.875 61.328125 
z
" id="SimHei-26412"/>
     <path d="M 62.890625 -1.953125 
Q 68.359375 -2.34375 70.890625 -1.953125 
Q 73.4375 -1.5625 73.4375 2.734375 
L 73.4375 13.671875 
L 26.171875 13.671875 
L 26.171875 -10.15625 
L 17.578125 -10.15625 
Q 18.359375 -3.515625 18.359375 3.125 
L 18.359375 13.671875 
Q 9.375 13.671875 3.515625 13.28125 
L 3.515625 20.703125 
Q 8.984375 19.921875 18.359375 19.921875 
L 18.359375 44.140625 
Q 18.359375 52.734375 17.578125 57.8125 
L 46.09375 57.8125 
L 46.09375 69.921875 
L 24.21875 69.921875 
Q 16.40625 69.921875 9.375 69.53125 
L 9.375 76.953125 
Q 16.40625 76.5625 23.828125 76.5625 
L 75.78125 76.5625 
Q 84.765625 76.5625 90.234375 76.953125 
L 90.234375 69.53125 
Q 84.765625 69.921875 75.78125 69.921875 
L 53.90625 69.921875 
L 53.90625 57.8125 
L 81.640625 57.8125 
Q 81.25 52.734375 81.25 42.96875 
L 81.25 19.921875 
Q 91.015625 19.921875 96.875 20.703125 
L 96.875 13.28125 
Q 91.40625 13.671875 81.25 13.671875 
L 81.25 -2.734375 
Q 81.25 -7.421875 77.34375 -8.59375 
Q 73.4375 -9.765625 66.40625 -10.546875 
Q 65.234375 -6.25 62.890625 -1.953125 
z
M 46.09375 38.671875 
L 46.09375 51.953125 
L 26.171875 51.953125 
L 26.171875 38.671875 
z
M 73.4375 38.671875 
L 73.4375 51.953125 
L 53.90625 51.953125 
L 53.90625 38.671875 
z
M 46.09375 19.921875 
L 46.09375 32.8125 
L 26.171875 32.8125 
L 26.171875 19.921875 
z
M 73.4375 19.921875 
L 73.4375 32.8125 
L 53.90625 32.8125 
L 53.90625 19.921875 
z
" id="SimHei-20877"/>
     <path d="M 29.296875 72.65625 
Q 26.953125 69.921875 25.390625 65.8125 
Q 23.828125 61.71875 22.265625 57.8125 
L 45.703125 57.8125 
L 45.703125 71.484375 
Q 45.703125 76.5625 45.3125 81.25 
L 54.296875 81.25 
Q 53.90625 76.953125 53.90625 71.484375 
L 53.90625 57.8125 
L 71.09375 57.8125 
Q 77.34375 57.8125 85.15625 58.203125 
L 85.15625 50.390625 
Q 77.734375 50.78125 71.09375 50.78125 
L 53.90625 50.78125 
L 53.90625 33.203125 
L 66.015625 33.203125 
Q 71.484375 33.203125 79.296875 33.59375 
L 79.296875 25.78125 
Q 71.875 26.171875 66.015625 26.171875 
L 53.90625 26.171875 
L 53.90625 2.734375 
L 77.34375 2.734375 
Q 83.59375 2.734375 91.796875 3.125 
L 91.796875 -4.296875 
Q 83.984375 -3.90625 77.34375 -3.90625 
L 21.09375 -3.90625 
Q 14.453125 -3.90625 7.421875 -4.296875 
L 7.421875 3.125 
Q 14.84375 2.734375 21.09375 2.734375 
L 45.703125 2.734375 
L 45.703125 26.171875 
L 31.25 26.171875 
Q 25.78125 26.171875 19.921875 25.78125 
L 19.921875 33.59375 
Q 25.78125 33.203125 31.25 33.203125 
L 45.703125 33.203125 
L 45.703125 50.78125 
L 19.53125 50.78125 
Q 16.015625 42.578125 12.5 36.71875 
Q 8.203125 38.671875 3.125 39.453125 
Q 7.421875 44.140625 12.296875 54.484375 
Q 17.1875 64.84375 19.140625 76.5625 
L 29.296875 72.65625 
z
" id="SimHei-29983"/>
     <path d="M 13.671875 14.84375 
L 27.734375 14.84375 
L 27.734375 -0.78125 
Q 26.5625 -10.546875 17.96875 -15.234375 
L 14.0625 -11.71875 
Q 21.09375 -7.8125 21.09375 0 
L 13.671875 0 
z
" id="SimHei-65292"/>
     <path d="M 46.875 1.953125 
L 37.5 1.953125 
L 23.4375 30.859375 
L 13.28125 30.859375 
L 13.28125 1.953125 
L 4.296875 1.953125 
L 4.296875 68.75 
L 23.828125 68.75 
Q 33.203125 68.75 39.0625 64.25 
Q 44.921875 59.765625 44.921875 49.609375 
Q 44.921875 41.796875 41.015625 37.5 
Q 37.109375 33.203125 32.03125 32.03125 
z
M 35.9375 49.609375 
Q 35.9375 55.078125 32.609375 58.203125 
Q 29.296875 61.328125 21.875 61.328125 
L 13.28125 61.328125 
L 13.28125 38.28125 
L 24.21875 38.28125 
Q 28.90625 38.28125 32.421875 40.8125 
Q 35.9375 43.359375 35.9375 49.609375 
z
" id="SimHei-82"/>
    </defs>
    <g transform="translate(179.4 37.2)scale(0.12 -0.12)">
     <use xlink:href="#SimHei-22522"/>
     <use x="100" xlink:href="#SimHei-26412"/>
     <use x="200" xlink:href="#SimHei-20877"/>
     <use x="300" xlink:href="#SimHei-29983"/>
     <use x="400" xlink:href="#SimHei-25968"/>
     <use x="500" xlink:href="#SimHei-65292"/>
     <use x="600" xlink:href="#SimHei-82"/>
     <use x="650" xlink:href="#SimHei-48"/>
    </g>
   </g>
  </g>
 </g>
 <defs>
  <clipPath id="p7c63b7fbb1">
   <rect height="277.2" width="334.8" x="54" y="43.2"/>
  </clipPath>
 </defs>
</svg>
