<?xml version="1.0" encoding="utf-8" standalone="no"?>
<!DOCTYPE svg PUBLIC "-//W3C//DTD SVG 1.1//EN"
  "http://www.w3.org/Graphics/SVG/1.1/DTD/svg11.dtd">
<!-- Created with matplotlib (https://matplotlib.org/) -->
<svg height="360pt" version="1.1" viewBox="0 0 432 360" width="432pt" xmlns="http://www.w3.org/2000/svg" xmlns:xlink="http://www.w3.org/1999/xlink">
 <defs>
  <style type="text/css">
*{stroke-linecap:butt;stroke-linejoin:round;}
  </style>
 </defs>
 <g id="figure_1">
  <g id="patch_1">
   <path d="M 0 360 
L 432 360 
L 432 0 
L 0 0 
z
" style="fill:#ffffff;"/>
  </g>
  <g id="axes_1">
   <g id="patch_2">
    <path d="M 54 320.4 
L 388.8 320.4 
L 388.8 43.2 
L 54 43.2 
z
" style="fill:#ffffff;"/>
   </g>
   <g id="matplotlib.axis_1">
    <g id="xtick_1">
     <g id="line2d_1">
      <defs>
       <path d="M 0 0 
L 0 3.5 
" id="mc562328796" style="stroke:#000000;stroke-width:0.8;"/>
      </defs>
      <g>
       <use style="stroke:#000000;stroke-width:0.8;" x="54" xlink:href="#mc562328796" y="320.4"/>
      </g>
     </g>
     <g id="text_1">
      <!-- 0.0 -->
      <defs>
       <path d="M 3.125 29.296875 
Q 3.90625 50 6.4375 56.046875 
Q 8.984375 62.109375 13.671875 66.015625 
Q 18.359375 69.921875 25.1875 69.921875 
Q 32.03125 69.921875 37.109375 64.25 
Q 42.1875 58.59375 43.75 50 
Q 45.3125 41.40625 44.71875 30.265625 
Q 44.140625 19.140625 40.8125 12.109375 
Q 37.5 5.078125 30.859375 2.34375 
Q 24.21875 -0.390625 17.578125 2.921875 
Q 10.9375 6.25 8.203125 11.71875 
Q 5.46875 17.1875 4.296875 23.234375 
Q 3.125 29.296875 3.90625 50 
z
M 12.890625 52.734375 
Q 10.546875 31.25 12.5 22.84375 
Q 14.453125 14.453125 18.9375 10.9375 
Q 23.4375 7.421875 28.125 9.5625 
Q 32.8125 11.71875 34.953125 18.15625 
Q 37.109375 24.609375 37.109375 32.21875 
Q 37.109375 39.84375 36.515625 46.09375 
Q 35.9375 52.34375 33 57.421875 
Q 30.078125 62.5 25.1875 62.6875 
Q 20.3125 62.890625 16.59375 57.8125 
Q 12.890625 52.734375 10.546875 31.25 
z
" id="SimHei-48"/>
       <path d="M 16.796875 1.953125 
L 7.8125 1.953125 
L 7.8125 10.546875 
L 16.796875 10.546875 
z
" id="SimHei-46"/>
      </defs>
      <g transform="translate(46.5 334.275)scale(0.1 -0.1)">
       <use xlink:href="#SimHei-48"/>
       <use x="50" xlink:href="#SimHei-46"/>
       <use x="100" xlink:href="#SimHei-48"/>
      </g>
     </g>
    </g>
    <g id="xtick_2">
     <g id="line2d_2">
      <g>
       <use style="stroke:#000000;stroke-width:0.8;" x="120.96" xlink:href="#mc562328796" y="320.4"/>
      </g>
     </g>
     <g id="text_2">
      <!-- 0.2 -->
      <defs>
       <path d="M 4.6875 3.90625 
Q 5.078125 9.765625 10.15625 14.453125 
Q 15.234375 19.140625 23.046875 29.09375 
Q 30.859375 39.0625 33.203125 44.53125 
Q 35.546875 50 34.953125 53.90625 
Q 34.375 57.8125 31.25 60.34375 
Q 28.125 62.890625 24.015625 62.5 
Q 19.921875 62.109375 16.203125 59.375 
Q 12.5 56.640625 10.546875 51.171875 
L 3.125 52.34375 
Q 6.25 61.328125 11.125 65.421875 
Q 16.015625 69.53125 22.65625 69.921875 
Q 26.5625 70.3125 29.6875 69.71875 
Q 32.8125 69.140625 36.125 66.984375 
Q 39.453125 64.84375 41.59375 60.546875 
Q 43.75 56.25 43.15625 50.1875 
Q 42.578125 44.140625 37.109375 35.734375 
Q 31.640625 27.34375 16.015625 9.375 
L 44.140625 9.375 
L 44.140625 2.34375 
L 4.6875 2.34375 
z
" id="SimHei-50"/>
      </defs>
      <g transform="translate(113.46 334.275)scale(0.1 -0.1)">
       <use xlink:href="#SimHei-48"/>
       <use x="50" xlink:href="#SimHei-46"/>
       <use x="100" xlink:href="#SimHei-50"/>
      </g>
     </g>
    </g>
    <g id="xtick_3">
     <g id="line2d_3">
      <g>
       <use style="stroke:#000000;stroke-width:0.8;" x="187.92" xlink:href="#mc562328796" y="320.4"/>
      </g>
     </g>
     <g id="text_3">
      <!-- 0.4 -->
      <defs>
       <path d="M 31.25 17.1875 
L 1.171875 17.1875 
L 1.171875 23.828125 
L 32.8125 69.53125 
L 38.671875 69.53125 
L 38.671875 23.828125 
L 48.046875 23.828125 
L 48.046875 17.1875 
L 38.671875 17.1875 
L 38.671875 2.34375 
L 31.25 2.34375 
z
M 31.25 23.828125 
L 31.25 54.6875 
L 9.375 23.828125 
z
" id="SimHei-52"/>
      </defs>
      <g transform="translate(180.42 334.275)scale(0.1 -0.1)">
       <use xlink:href="#SimHei-48"/>
       <use x="50" xlink:href="#SimHei-46"/>
       <use x="100" xlink:href="#SimHei-52"/>
      </g>
     </g>
    </g>
    <g id="xtick_4">
     <g id="line2d_4">
      <g>
       <use style="stroke:#000000;stroke-width:0.8;" x="254.88" xlink:href="#mc562328796" y="320.4"/>
      </g>
     </g>
     <g id="text_4">
      <!-- 0.6 -->
      <defs>
       <path d="M 3.515625 19.53125 
Q 4.296875 30.859375 6.046875 34.765625 
Q 7.8125 38.671875 11.328125 44.53125 
L 27.34375 69.53125 
L 36.328125 69.53125 
L 19.921875 43.75 
Q 30.46875 46.484375 36.71875 42.96875 
Q 42.96875 39.453125 45.109375 34.953125 
Q 47.265625 30.46875 47.453125 25.1875 
Q 47.65625 19.921875 45.890625 14.84375 
Q 44.140625 9.765625 39.640625 5.65625 
Q 35.15625 1.5625 27.140625 1.171875 
Q 19.140625 0.78125 13.46875 4.09375 
Q 7.8125 7.421875 5.65625 13.46875 
Q 3.515625 19.53125 4.296875 30.859375 
z
M 12.5 16.015625 
Q 19.53125 8.59375 25.390625 8.203125 
Q 31.25 7.8125 35.15625 12.109375 
Q 39.0625 16.40625 39.0625 24.609375 
Q 39.0625 32.8125 34.171875 35.9375 
Q 29.296875 39.0625 23.234375 38.28125 
Q 17.1875 37.5 14.453125 32.421875 
Q 11.71875 27.34375 12.109375 21.671875 
Q 12.5 16.015625 19.53125 8.59375 
z
" id="SimHei-54"/>
      </defs>
      <g transform="translate(247.38 334.275)scale(0.1 -0.1)">
       <use xlink:href="#SimHei-48"/>
       <use x="50" xlink:href="#SimHei-46"/>
       <use x="100" xlink:href="#SimHei-54"/>
      </g>
     </g>
    </g>
    <g id="xtick_5">
     <g id="line2d_5">
      <g>
       <use style="stroke:#000000;stroke-width:0.8;" x="321.84" xlink:href="#mc562328796" y="320.4"/>
      </g>
     </g>
     <g id="text_5">
      <!-- 0.8 -->
      <defs>
       <path d="M 2.734375 16.796875 
Q 2.734375 26.171875 5.078125 30.65625 
Q 7.421875 35.15625 12.890625 37.890625 
Q 8.203125 40.625 6.640625 43.9375 
Q 5.078125 47.265625 4.875 51.5625 
Q 4.6875 55.859375 6.046875 58.984375 
Q 7.421875 62.109375 10.15625 64.84375 
Q 12.890625 67.578125 16.203125 68.546875 
Q 19.53125 69.53125 23.4375 69.53125 
Q 27.34375 69.53125 30.46875 68.75 
Q 33.59375 67.96875 37.109375 65.421875 
Q 40.625 62.890625 42.1875 58.203125 
Q 43.75 53.515625 41.984375 47.265625 
Q 40.234375 41.015625 32.8125 37.5 
Q 39.453125 35.546875 42.1875 31.4375 
Q 44.921875 27.34375 44.921875 21.484375 
Q 44.921875 15.625 43.15625 12.109375 
Q 41.40625 8.59375 39.25 6.25 
Q 37.109375 3.90625 33.390625 2.53125 
Q 29.6875 1.171875 24.015625 1.171875 
Q 18.359375 1.171875 14.25 2.53125 
Q 10.15625 3.90625 7.421875 6.640625 
Q 4.6875 9.375 3.703125 13.078125 
Q 2.734375 16.796875 2.734375 26.171875 
z
M 10.9375 26.5625 
Q 10.546875 17.1875 12.296875 13.671875 
Q 14.0625 10.15625 18.75 9.171875 
Q 23.4375 8.203125 28.515625 9.375 
Q 33.59375 10.546875 35.546875 14.84375 
Q 37.5 19.140625 36.90625 23.4375 
Q 36.328125 27.734375 32.03125 30.65625 
Q 27.734375 33.59375 22.65625 33.203125 
Q 17.578125 32.8125 14.25 29.6875 
Q 10.9375 26.5625 10.546875 17.1875 
z
M 12.109375 56.25 
Q 12.109375 48.4375 14.84375 44.921875 
Q 17.578125 41.40625 23.4375 41.40625 
Q 29.296875 41.40625 32.21875 44.921875 
Q 35.15625 48.4375 34.953125 53.3125 
Q 34.765625 58.203125 31.4375 60.546875 
Q 28.125 62.890625 22.453125 62.5 
Q 16.796875 62.109375 14.453125 59.171875 
Q 12.109375 56.25 12.109375 48.4375 
z
" id="SimHei-56"/>
      </defs>
      <g transform="translate(314.34 334.275)scale(0.1 -0.1)">
       <use xlink:href="#SimHei-48"/>
       <use x="50" xlink:href="#SimHei-46"/>
       <use x="100" xlink:href="#SimHei-56"/>
      </g>
     </g>
    </g>
    <g id="xtick_6">
     <g id="line2d_6">
      <g>
       <use style="stroke:#000000;stroke-width:0.8;" x="388.8" xlink:href="#mc562328796" y="320.4"/>
      </g>
     </g>
     <g id="text_6">
      <!-- 1.0 -->
      <defs>
       <path d="M 21.875 56.25 
Q 16.796875 51.171875 8.984375 46.484375 
L 8.984375 53.90625 
Q 18.75 60.546875 25 69.53125 
L 29.6875 69.53125 
L 29.6875 2.34375 
L 21.875 2.34375 
z
" id="SimHei-49"/>
      </defs>
      <g transform="translate(381.3 334.275)scale(0.1 -0.1)">
       <use xlink:href="#SimHei-49"/>
       <use x="50" xlink:href="#SimHei-46"/>
       <use x="100" xlink:href="#SimHei-48"/>
      </g>
     </g>
    </g>
    <g id="text_7">
     <!-- 接种后出现症状的概率降低系数（l） -->
     <defs>
      <path d="M 66.015625 35.546875 
Q 64.84375 34.375 62.5 29.6875 
L 87.5 29.6875 
Q 94.53125 30.078125 96.09375 30.078125 
L 96.09375 23.046875 
Q 93.359375 23.4375 88.28125 23.4375 
L 81.640625 23.4375 
Q 78.125 14.453125 73.4375 7.8125 
Q 85.546875 1.953125 94.53125 -2.734375 
Q 93.359375 -3.90625 88.671875 -9.765625 
Q 82.421875 -5.078125 68.359375 2.34375 
Q 62.890625 -2.34375 55.65625 -5.265625 
Q 48.4375 -8.203125 38.28125 -10.15625 
Q 37.890625 -7.03125 34.765625 -3.125 
Q 41.015625 -2.34375 48.046875 -0.578125 
Q 55.078125 1.171875 61.328125 5.46875 
Q 57.8125 7.03125 44.921875 12.5 
Q 47.265625 16.015625 51.171875 23.4375 
L 44.921875 23.4375 
Q 38.671875 23.4375 35.9375 23.046875 
L 35.9375 30.46875 
Q 37.890625 30.078125 44.53125 29.6875 
L 53.90625 29.6875 
Q 56.640625 36.328125 57.03125 39.0625 
Q 63.671875 36.328125 66.015625 35.546875 
z
M 18.359375 61.71875 
L 18.359375 73.4375 
Q 18.359375 75.78125 17.578125 80.078125 
L 26.171875 80.078125 
Q 25.390625 75.78125 25.390625 73.4375 
L 25.390625 61.71875 
Q 29.296875 61.71875 35.15625 62.109375 
L 35.15625 54.6875 
Q 29.296875 55.078125 25.390625 55.078125 
L 25.390625 36.71875 
Q 27.34375 37.890625 34.375 41.015625 
Q 34.375 35.9375 34.765625 33.59375 
Q 27.734375 30.46875 25.390625 29.296875 
L 25.390625 1.171875 
Q 25.390625 -4.296875 22.265625 -6.640625 
Q 19.140625 -8.984375 10.15625 -9.765625 
Q 10.15625 -7.03125 7.03125 -0.390625 
Q 14.84375 -1.5625 16.40625 -0.390625 
Q 17.96875 0.78125 18.359375 4.296875 
L 18.359375 26.5625 
Q 15.234375 25.390625 7.03125 20.703125 
Q 5.078125 26.5625 3.515625 29.296875 
Q 13.28125 31.640625 18.359375 33.984375 
L 18.359375 55.078125 
L 15.625 55.078125 
Q 10.15625 55.078125 4.6875 54.6875 
L 4.6875 62.5 
Q 10.546875 61.71875 15.625 61.71875 
z
M 74.609375 64.0625 
Q 81.25 60.546875 83.59375 59.765625 
Q 81.25 57.8125 76.953125 46.09375 
L 84.765625 46.09375 
Q 91.015625 46.484375 92.96875 46.875 
L 92.96875 39.453125 
Q 90.234375 39.84375 85.546875 39.84375 
L 47.265625 39.84375 
Q 44.53125 39.84375 38.28125 39.453125 
L 38.28125 46.875 
Q 44.140625 46.484375 46.484375 46.09375 
L 69.53125 46.09375 
Q 73.4375 56.640625 74.609375 64.0625 
z
M 61.71875 71.484375 
Q 60.15625 78.125 58.984375 80.46875 
Q 64.453125 81.640625 67.1875 82.421875 
L 70.3125 71.484375 
L 83.59375 71.484375 
Q 89.0625 71.875 92.96875 71.875 
L 92.96875 64.84375 
Q 88.671875 65.234375 83.984375 65.234375 
L 49.609375 65.234375 
Q 43.359375 65.234375 39.0625 64.84375 
L 39.0625 71.875 
Q 42.96875 71.484375 48.4375 71.484375 
z
M 54.296875 15.625 
Q 63.28125 12.5 67.1875 10.15625 
Q 72.265625 17.578125 74.21875 23.4375 
L 59.375 23.4375 
Q 55.859375 18.359375 54.296875 15.625 
z
M 53.515625 61.71875 
Q 58.203125 53.90625 60.15625 50 
Q 53.90625 48.046875 52.34375 46.875 
Q 49.21875 54.296875 46.484375 57.8125 
Q 50.78125 59.765625 53.515625 61.71875 
z
" id="SimHei-25509"/>
      <path d="M 66.015625 62.5 
Q 66.015625 77.734375 65.625 82.421875 
L 73.828125 82.421875 
Q 73.4375 78.125 73.4375 62.5 
L 93.75 62.5 
Q 93.359375 58.203125 93.359375 50.78125 
L 93.359375 24.21875 
Q 93.359375 19.921875 93.75 14.453125 
L 85.9375 14.453125 
L 85.9375 22.265625 
L 73.4375 22.265625 
L 73.4375 5.859375 
Q 73.4375 -4.296875 73.828125 -10.9375 
L 65.625 -10.9375 
Q 66.015625 -4.296875 66.015625 5.859375 
L 66.015625 22.265625 
L 53.515625 22.265625 
L 53.515625 12.890625 
L 45.703125 12.890625 
Q 46.09375 17.578125 46.09375 23.4375 
L 46.09375 50 
Q 46.09375 58.203125 45.703125 62.5 
L 66.015625 62.5 
z
M 5.46875 50.78125 
Q 11.328125 50.390625 19.140625 50.390625 
L 22.265625 50.390625 
L 22.265625 67.578125 
Q 18.359375 66.40625 8.984375 64.453125 
Q 7.421875 67.96875 5.46875 71.484375 
Q 14.0625 71.875 22.0625 74.015625 
Q 30.078125 76.171875 36.71875 79.6875 
Q 39.0625 76.5625 42.578125 72.265625 
Q 38.671875 71.875 35.9375 71.09375 
Q 33.203125 70.3125 29.6875 69.53125 
L 29.6875 50.390625 
Q 34.765625 50.390625 42.1875 50.78125 
L 42.1875 43.75 
Q 34.765625 44.140625 29.6875 44.140625 
L 29.6875 3.515625 
Q 29.6875 -1.953125 30.078125 -10.15625 
L 21.875 -10.15625 
Q 22.265625 -1.953125 22.265625 3.515625 
L 22.265625 29.296875 
Q 19.140625 21.484375 16.59375 16.796875 
Q 14.0625 12.109375 9.765625 5.46875 
Q 6.640625 9.765625 3.90625 13.28125 
Q 9.375 19.140625 13.859375 26.953125 
Q 18.359375 34.765625 20.3125 44.140625 
L 14.453125 44.140625 
Q 8.984375 44.140625 5.46875 43.75 
z
M 66.015625 28.515625 
L 66.015625 56.25 
L 53.515625 56.25 
L 53.515625 28.515625 
z
M 85.9375 28.515625 
L 85.9375 56.25 
L 73.4375 56.25 
L 73.4375 28.515625 
z
M 37.109375 38.671875 
Q 38.28125 35.9375 40.234375 33.203125 
Q 42.1875 30.46875 44.53125 25.390625 
Q 41.015625 23.828125 37.890625 21.484375 
Q 35.9375 25.78125 34.5625 28.703125 
Q 33.203125 31.640625 30.859375 34.765625 
Q 33.203125 36.328125 37.109375 38.671875 
z
" id="SimHei-31181"/>
      <path d="M 85.546875 33.59375 
Q 85.15625 27.34375 85.15625 12.109375 
Q 85.15625 -2.734375 85.9375 -8.59375 
L 77.734375 -8.59375 
L 77.734375 -0.390625 
L 39.453125 -0.390625 
L 39.453125 -9.375 
L 31.640625 -9.375 
Q 32.03125 -2.734375 32.03125 12.109375 
Q 32.03125 27.34375 31.640625 33.59375 
L 85.546875 33.59375 
z
M 80.859375 79.296875 
Q 82.8125 75 86.328125 70.703125 
Q 77.34375 69.921875 58.59375 67.765625 
Q 39.84375 65.625 24.609375 65.234375 
L 24.609375 52.734375 
L 81.25 52.734375 
Q 86.71875 52.734375 93.359375 53.125 
L 93.359375 45.3125 
Q 87.109375 45.703125 81.25 45.703125 
L 24.609375 45.703125 
Q 24.21875 37.890625 23.234375 29.296875 
Q 22.265625 20.703125 19.53125 11.125 
Q 16.796875 1.5625 12.5 -5.078125 
Q 10.15625 -3.125 3.515625 -0.78125 
Q 9.765625 5.078125 12.890625 16.59375 
Q 16.015625 28.125 16.40625 44.140625 
Q 16.796875 60.15625 16.796875 71.484375 
Q 35.9375 71.875 56.640625 74.609375 
Q 77.34375 77.34375 80.859375 79.296875 
z
M 77.734375 5.859375 
L 77.734375 26.953125 
L 39.453125 26.953125 
L 39.453125 5.859375 
z
" id="SimHei-21518"/>
      <path d="M 23.046875 71.09375 
Q 22.65625 66.015625 22.65625 61.71875 
L 22.65625 46.09375 
L 45.703125 46.09375 
L 45.703125 69.140625 
Q 45.703125 74.609375 45.3125 80.078125 
L 53.515625 80.078125 
Q 53.125 75.390625 53.125 69.140625 
L 53.125 46.09375 
L 76.5625 46.09375 
L 76.5625 60.546875 
Q 76.5625 66.796875 76.171875 70.703125 
L 84.375 70.703125 
Q 83.984375 66.796875 83.984375 60.15625 
L 83.984375 49.609375 
Q 83.984375 43.359375 84.375 39.453125 
L 53.125 39.453125 
L 53.125 3.515625 
L 80.078125 3.515625 
L 80.078125 19.921875 
Q 80.078125 25.78125 79.6875 30.078125 
L 87.890625 30.078125 
Q 87.5 25.78125 87.5 20.3125 
L 87.5 2.734375 
Q 87.5 -5.078125 87.890625 -10.15625 
L 80.078125 -10.15625 
L 80.078125 -3.125 
L 10.546875 -3.125 
Q 10.9375 1.5625 10.9375 8.203125 
L 10.9375 19.921875 
Q 10.9375 26.5625 10.546875 30.46875 
L 18.75 30.46875 
Q 18.359375 26.5625 18.359375 19.921875 
L 18.359375 3.515625 
L 45.703125 3.515625 
L 45.703125 39.453125 
L 14.84375 39.453125 
Q 15.234375 43.359375 15.234375 49.21875 
L 15.234375 61.328125 
Q 15.234375 66.40625 14.84375 71.09375 
L 23.046875 71.09375 
z
" id="SimHei-20986"/>
      <path d="M 72.65625 60.15625 
Q 71.09375 55.859375 70.5 46.484375 
Q 69.921875 37.109375 67.96875 26.5625 
L 75.78125 26.5625 
Q 75.390625 22.65625 75.390625 16.015625 
L 75.390625 3.515625 
Q 75.390625 -2.34375 77.53125 -2.734375 
Q 79.6875 -3.125 82.421875 -2.921875 
Q 85.15625 -2.734375 86.328125 -0.1875 
Q 87.5 2.34375 87.890625 8.984375 
Q 91.796875 6.640625 96.484375 5.859375 
Q 94.53125 -2.34375 92.578125 -5.265625 
Q 90.625 -8.203125 84.375 -8.984375 
L 76.5625 -8.984375 
Q 67.96875 -8.984375 67.96875 -1.5625 
L 67.96875 25.78125 
Q 64.453125 13.28125 57.8125 4.875 
Q 51.171875 -3.515625 37.890625 -10.546875 
Q 35.9375 -7.421875 31.25 -5.078125 
Q 43.75 0 49.609375 6.046875 
Q 55.46875 12.109375 58.984375 21.484375 
Q 62.5 30.859375 63.078125 41.015625 
Q 63.671875 51.171875 63.28125 61.328125 
Q 68.359375 60.546875 72.65625 60.15625 
z
M 28.90625 72.265625 
Q 33.203125 72.265625 39.453125 72.65625 
L 39.453125 65.234375 
Q 33.203125 65.625 26.171875 65.625 
L 26.171875 44.140625 
Q 31.640625 44.140625 37.890625 44.53125 
L 37.890625 37.109375 
Q 31.640625 37.5 26.171875 37.5 
L 26.171875 13.671875 
Q 32.8125 15.234375 39.84375 17.578125 
Q 39.453125 13.28125 39.453125 10.15625 
Q 26.5625 7.03125 18.75 4.296875 
Q 10.9375 1.5625 7.03125 -0.390625 
Q 5.859375 5.078125 3.90625 8.984375 
Q 10.15625 9.765625 19.140625 11.71875 
L 19.140625 37.5 
Q 12.890625 37.5 7.03125 37.109375 
L 7.03125 44.53125 
Q 12.890625 44.140625 19.140625 44.140625 
L 19.140625 65.625 
Q 12.109375 65.625 6.640625 65.234375 
L 6.640625 72.65625 
Q 11.328125 72.265625 15.625 72.265625 
z
M 89.84375 76.171875 
Q 89.453125 69.921875 89.453125 63.671875 
L 89.453125 37.5 
Q 89.453125 30.078125 89.84375 24.609375 
L 82.421875 24.609375 
L 82.421875 69.921875 
L 52.734375 69.921875 
L 52.734375 24.21875 
L 45.3125 24.21875 
Q 45.703125 30.859375 45.703125 39.0625 
L 45.703125 60.546875 
Q 45.703125 69.140625 45.3125 76.171875 
L 89.84375 76.171875 
z
" id="SimHei-29616"/>
      <path d="M 77.734375 52.734375 
Q 85.15625 52.734375 93.359375 53.125 
L 93.359375 46.09375 
Q 85.546875 46.484375 77.734375 46.484375 
L 68.359375 46.484375 
L 68.359375 30.078125 
L 77.734375 30.078125 
Q 82.8125 30.078125 91.015625 30.46875 
L 91.015625 23.046875 
Q 83.203125 23.4375 77.734375 23.4375 
L 68.359375 23.4375 
L 68.359375 1.5625 
L 79.6875 1.5625 
Q 86.71875 1.5625 95.703125 1.953125 
L 95.703125 -5.078125 
Q 86.328125 -4.6875 80.078125 -4.6875 
L 44.53125 -4.6875 
Q 37.109375 -4.6875 28.125 -5.078125 
L 28.125 1.953125 
Q 33.59375 1.5625 40.234375 1.5625 
L 40.234375 22.65625 
Q 40.234375 26.953125 39.84375 34.375 
L 48.046875 34.375 
Q 47.65625 28.125 47.65625 22.65625 
L 47.65625 1.5625 
L 60.15625 1.5625 
L 60.15625 46.484375 
L 49.21875 46.484375 
Q 42.578125 46.484375 35.15625 46.09375 
L 35.15625 53.125 
Q 42.578125 52.734375 49.21875 52.734375 
z
M 60.9375 82.421875 
Q 62.5 76.171875 64.453125 69.921875 
L 79.296875 69.921875 
Q 85.546875 69.921875 95.3125 70.3125 
L 95.3125 62.890625 
Q 85.546875 63.28125 79.296875 63.28125 
L 28.90625 63.28125 
L 28.90625 46.09375 
Q 28.90625 36.328125 28.515625 25.96875 
Q 28.125 15.625 25.78125 7.609375 
Q 23.4375 -0.390625 16.796875 -10.9375 
Q 13.671875 -8.59375 8.59375 -6.25 
Q 13.28125 -1.953125 16.40625 4.09375 
Q 19.53125 10.15625 20.5 16.59375 
Q 21.484375 23.046875 21.484375 27.734375 
Q 15.625 23.828125 8.203125 18.75 
Q 6.25 22.65625 3.90625 26.953125 
Q 7.421875 28.125 21.484375 34.375 
L 21.484375 53.90625 
Q 21.484375 62.5 21.09375 69.921875 
L 54.6875 69.921875 
Q 53.515625 75.78125 51.953125 80.46875 
Q 56.25 81.25 60.9375 82.421875 
z
M 8.59375 61.328125 
Q 14.453125 55.078125 20.3125 48.046875 
Q 17.96875 46.484375 14.453125 42.96875 
Q 9.375 50 3.515625 56.25 
Q 6.640625 58.984375 8.59375 61.328125 
z
" id="SimHei-30151"/>
      <path d="M 34.765625 -4.296875 
Q 41.796875 0.390625 46.484375 7.421875 
Q 51.171875 14.453125 53.90625 21.09375 
Q 56.640625 27.734375 57.8125 33.984375 
Q 58.984375 40.234375 59.375 44.921875 
L 50.390625 44.921875 
Q 44.53125 44.921875 39.0625 44.53125 
L 39.0625 51.953125 
Q 44.53125 51.5625 50 51.5625 
L 59.765625 51.5625 
Q 59.765625 62.109375 59.5625 68.359375 
Q 59.375 74.609375 58.984375 79.296875 
L 69.140625 79.296875 
Q 67.96875 74.21875 67.765625 68.9375 
Q 67.578125 63.671875 67.578125 51.5625 
L 83.59375 51.5625 
Q 87.890625 51.5625 93.359375 51.953125 
L 93.359375 44.53125 
Q 87.890625 44.921875 83.59375 44.921875 
L 68.359375 44.921875 
Q 73.046875 22.65625 78.3125 15.03125 
Q 83.59375 7.421875 87.890625 4.09375 
Q 92.1875 0.78125 95.703125 -1.171875 
Q 90.234375 -3.515625 87.890625 -8.203125 
Q 81.640625 -3.125 77.921875 1.75 
Q 74.21875 6.640625 71.671875 11.328125 
Q 69.140625 16.015625 67.375 20.890625 
Q 65.625 25.78125 64.453125 31.25 
Q 62.5 21.875 59.5625 15.234375 
Q 56.640625 8.59375 53.515625 3.703125 
Q 50.390625 -1.171875 42.96875 -9.765625 
Q 39.453125 -6.25 34.765625 -4.296875 
z
M 34.765625 81.25 
Q 34.375 75.390625 34.375 66.40625 
L 34.375 12.109375 
Q 34.375 0.78125 34.765625 -9.765625 
L 26.171875 -9.765625 
Q 26.5625 1.171875 26.5625 12.109375 
L 26.5625 30.46875 
Q 23.828125 27.34375 18.75 21.09375 
Q 13.671875 14.84375 10.9375 11.71875 
Q 7.8125 15.625 4.296875 17.96875 
Q 8.984375 21.484375 14.25 26.75 
Q 19.53125 32.03125 26.5625 40.625 
L 26.5625 66.40625 
Q 26.5625 75.390625 26.171875 81.25 
L 34.765625 81.25 
z
M 9.765625 67.578125 
Q 12.5 64.453125 15.625 60.546875 
Q 18.75 56.640625 21.484375 52.734375 
Q 18.359375 50.390625 16.40625 48.046875 
Q 13.28125 52.34375 3.90625 63.28125 
Q 6.25 65.234375 9.765625 67.578125 
z
M 85.546875 57.03125 
Q 82.03125 62.109375 73.4375 69.921875 
Q 76.5625 72.265625 78.515625 74.21875 
Q 82.03125 71.484375 84.765625 68.546875 
Q 87.5 65.625 91.015625 62.109375 
Q 87.890625 59.375 85.546875 57.03125 
z
" id="SimHei-29366"/>
      <path d="M 32.8125 77.734375 
Q 30.859375 74.21875 27.34375 61.71875 
L 44.921875 61.71875 
Q 44.53125 55.078125 44.53125 44.921875 
L 44.53125 10.546875 
Q 44.53125 4.6875 44.921875 -6.25 
L 37.109375 -6.25 
L 37.109375 1.5625 
L 17.1875 1.5625 
L 17.1875 -7.03125 
L 9.375 -7.03125 
Q 9.765625 5.46875 9.765625 8.59375 
L 9.765625 44.53125 
Q 9.765625 55.078125 9.375 61.71875 
L 20.703125 61.71875 
Q 22.65625 70.703125 23.828125 80.46875 
Q 29.296875 78.515625 32.8125 77.734375 
z
M 91.015625 48.046875 
Q 90.625 24.21875 89.0625 2.734375 
Q 88.28125 -4.296875 81.640625 -6.640625 
Q 75 -8.984375 66.796875 -9.765625 
Q 66.40625 -5.46875 63.28125 -0.78125 
Q 71.09375 -1.171875 75.578125 -0.390625 
Q 80.078125 0.390625 81.25 3.125 
Q 82.421875 5.859375 83 19.140625 
Q 83.59375 32.421875 83.984375 56.25 
L 61.328125 56.25 
Q 58.203125 48.828125 52.34375 38.671875 
Q 49.609375 41.40625 45.703125 42.96875 
Q 49.21875 47.65625 52.34375 54.296875 
Q 55.46875 60.9375 57.8125 68.75 
Q 60.15625 76.5625 60.546875 80.859375 
Q 66.015625 78.515625 69.921875 77.34375 
Q 67.96875 74.21875 66.59375 70.5 
Q 65.234375 66.796875 63.671875 63.28125 
L 91.40625 63.28125 
Q 91.015625 55.078125 91.015625 48.046875 
z
M 37.109375 8.203125 
L 37.109375 28.90625 
L 17.1875 28.90625 
L 17.1875 8.203125 
z
M 37.109375 35.546875 
L 37.109375 55.078125 
L 17.1875 55.078125 
L 17.1875 35.546875 
z
M 67.96875 32.03125 
Q 70.3125 27.34375 73.4375 19.921875 
Q 70.703125 18.75 66.015625 16.015625 
Q 63.28125 23.4375 60.9375 28.703125 
Q 58.59375 33.984375 56.25 37.5 
Q 58.984375 39.0625 63.28125 41.40625 
z
" id="SimHei-30340"/>
      <path d="M 48.4375 17.96875 
Q 46.875 21.09375 45.3125 23.046875 
Q 48.046875 25 51.171875 26.953125 
Q 53.515625 23.046875 55.265625 19.71875 
Q 57.03125 16.40625 59.765625 11.71875 
Q 57.421875 9.765625 53.515625 7.03125 
Q 52.734375 9.375 51.171875 12.5 
Q 48.046875 9.765625 43.359375 6.4375 
Q 38.671875 3.125 35.15625 -0.78125 
Q 32.421875 3.125 30.078125 5.46875 
Q 32.8125 8.203125 33.203125 13.671875 
L 33.203125 62.5 
Q 33.203125 69.140625 32.8125 73.4375 
L 55.859375 73.4375 
Q 55.46875 67.578125 55.46875 54.296875 
Q 55.46875 41.40625 55.859375 34.375 
L 39.84375 34.375 
L 39.84375 11.71875 
Q 42.578125 13.28125 48.4375 17.96875 
z
M 51.953125 -10.9375 
Q 50 -7.8125 46.09375 -5.078125 
Q 53.125 -1.171875 60.15625 9.953125 
Q 67.1875 21.09375 70.3125 36.71875 
L 59.375 36.71875 
Q 59.765625 42.578125 59.765625 48.046875 
Q 59.765625 53.515625 59.375 58.59375 
L 66.796875 58.59375 
Q 66.015625 55.46875 66.015625 50.78125 
L 66.015625 42.578125 
L 71.875 42.578125 
Q 73.046875 54.6875 73.046875 68.75 
L 69.140625 68.75 
Q 63.671875 68.75 59.375 68.359375 
L 59.375 75 
Q 64.0625 74.609375 69.140625 74.609375 
L 80.46875 74.609375 
Q 87.890625 74.609375 91.40625 75 
L 91.40625 68.359375 
Q 88.28125 68.75 79.6875 68.75 
Q 79.6875 57.8125 78.515625 42.578125 
L 83.984375 42.578125 
Q 87.5 42.578125 92.578125 42.96875 
L 92.578125 36.328125 
Q 87.5 36.71875 84.765625 36.71875 
L 77.34375 36.71875 
Q 72.265625 16.796875 66.984375 7.21875 
Q 61.71875 -2.34375 51.953125 -10.9375 
z
M 15.625 69.140625 
Q 15.625 74.21875 15.234375 78.90625 
L 23.046875 78.90625 
Q 22.265625 73.828125 22.265625 67.1875 
L 22.265625 59.375 
Q 25.390625 59.375 30.078125 59.765625 
L 30.078125 53.125 
Q 25 53.515625 22.265625 53.515625 
L 22.265625 41.40625 
Q 24.21875 42.578125 26.5625 44.140625 
Q 29.6875 36.71875 32.421875 29.296875 
Q 28.90625 28.515625 26.5625 26.5625 
Q 25 32.03125 22.265625 38.28125 
L 22.265625 4.6875 
Q 22.265625 -1.953125 22.65625 -8.984375 
L 15.234375 -8.984375 
Q 15.625 -0.78125 15.625 4.6875 
L 15.625 31.640625 
Q 12.890625 22.65625 8.59375 14.84375 
Q 7.03125 17.96875 2.734375 21.09375 
Q 7.8125 28.515625 10.34375 35.546875 
Q 12.890625 42.578125 14.84375 53.515625 
Q 7.8125 53.515625 5.46875 53.125 
L 5.46875 59.765625 
Q 8.59375 59.375 15.625 59.375 
z
M 82.8125 26.953125 
Q 82.421875 16.40625 82.421875 3.515625 
Q 82.421875 -0.78125 84.5625 -1.171875 
Q 86.71875 -1.5625 87.890625 -1.359375 
Q 89.0625 -1.171875 89.640625 0.578125 
Q 90.234375 2.34375 90.234375 7.421875 
Q 93.75 5.46875 97.65625 4.6875 
Q 96.09375 -3.515625 94.53125 -5.46875 
Q 92.96875 -7.421875 88.28125 -7.421875 
L 83.59375 -7.421875 
Q 75 -7.03125 75.78125 0.78125 
Q 75.78125 14.453125 75.78125 26.953125 
L 82.8125 26.953125 
z
M 48.828125 40.234375 
L 48.828125 51.171875 
L 39.84375 51.171875 
L 39.84375 40.234375 
z
M 48.828125 57.03125 
L 48.828125 67.578125 
L 39.84375 67.578125 
L 39.84375 57.03125 
z
" id="SimHei-27010"/>
      <path d="M 51.953125 80.46875 
Q 53.515625 76.5625 55.46875 70.703125 
L 75 70.703125 
Q 82.03125 70.703125 90.625 71.09375 
L 90.625 64.453125 
Q 82.03125 65.234375 74.609375 65.234375 
L 43.75 65.234375 
Q 46.484375 63.28125 51.5625 60.9375 
Q 48.046875 58.59375 44.921875 55.265625 
Q 41.796875 51.953125 38.671875 48.828125 
L 51.171875 48.828125 
Q 55.859375 53.515625 58.984375 58.984375 
Q 62.5 56.25 66.796875 53.515625 
Q 61.71875 50.78125 56.25 44.921875 
Q 50.78125 39.0625 41.015625 31.25 
L 60.15625 32.8125 
Q 58.203125 35.15625 56.25 37.890625 
Q 58.59375 38.671875 62.5 41.40625 
Q 66.40625 36.71875 73.4375 26.5625 
Q 69.921875 25.390625 66.015625 22.65625 
Q 65.234375 25 62.890625 27.734375 
Q 57.8125 27.34375 53.515625 27.34375 
L 53.515625 16.40625 
L 80.46875 16.40625 
Q 88.671875 16.40625 95.3125 16.796875 
L 95.3125 10.15625 
Q 89.0625 10.546875 80.078125 10.546875 
L 53.515625 10.546875 
L 53.515625 2.734375 
Q 53.515625 -4.6875 53.90625 -9.765625 
L 45.3125 -9.765625 
Q 45.703125 -4.6875 45.703125 2.734375 
L 45.703125 10.546875 
L 20.703125 10.546875 
Q 12.890625 10.546875 5.078125 10.15625 
L 5.078125 16.796875 
Q 12.890625 16.40625 21.09375 16.40625 
L 45.703125 16.40625 
L 45.703125 26.5625 
Q 42.1875 26.171875 38.671875 25.578125 
Q 35.15625 25 31.640625 23.828125 
Q 30.46875 27.734375 28.90625 31.25 
Q 32.421875 31.640625 36.328125 34.375 
Q 40.234375 37.109375 46.484375 43.75 
Q 35.9375 42.578125 31.640625 41.015625 
Q 30.859375 44.921875 28.90625 49.609375 
Q 32.421875 49.609375 36.328125 54.484375 
Q 40.234375 59.375 42.96875 65.234375 
L 26.5625 65.234375 
Q 17.96875 65.234375 10.15625 64.453125 
L 10.15625 71.09375 
Q 17.96875 70.703125 24.21875 70.703125 
L 46.484375 70.703125 
Q 45.3125 75.390625 43.75 78.515625 
Q 47.265625 79.296875 51.953125 80.46875 
z
M 25.390625 40.234375 
Q 26.953125 37.5 28.515625 34.375 
Q 24.609375 32.03125 20.703125 29.09375 
Q 16.796875 26.171875 12.5 22.265625 
Q 9.765625 26.171875 7.421875 29.296875 
Q 12.5 31.640625 17.1875 34.5625 
Q 21.875 37.5 25.390625 40.234375 
z
M 75.78125 41.40625 
Q 80.078125 38.671875 83.390625 36.515625 
Q 86.71875 34.375 91.796875 30.46875 
Q 88.671875 28.125 85.9375 25 
Q 82.8125 27.734375 79.09375 30.859375 
Q 75.390625 33.984375 71.484375 36.328125 
Q 73.828125 38.671875 75.78125 41.40625 
z
M 89.453125 55.078125 
Q 86.71875 53.90625 82.8125 50.96875 
Q 78.90625 48.046875 75 44.140625 
Q 72.265625 47.65625 69.921875 49.609375 
Q 73.4375 51.953125 76.171875 54.484375 
Q 78.90625 57.03125 82.8125 61.328125 
Q 86.328125 57.8125 89.453125 55.078125 
z
M 16.40625 60.15625 
Q 22.265625 56.25 27.734375 51.171875 
Q 24.609375 48.4375 22.265625 45.703125 
Q 16.796875 51.5625 10.546875 55.078125 
Q 13.671875 57.8125 16.40625 60.15625 
z
" id="SimHei-29575"/>
      <path d="M 63.671875 78.90625 
Q 60.15625 75 58.984375 72.265625 
L 88.28125 72.265625 
Q 84.765625 65.234375 81.046875 59.953125 
Q 77.34375 54.6875 72.65625 50 
Q 76.5625 47.265625 82.421875 45.703125 
Q 88.28125 44.140625 96.875 43.75 
Q 94.140625 39.453125 93.359375 35.9375 
Q 83.984375 37.5 77.34375 40.03125 
Q 70.703125 42.578125 66.796875 45.3125 
Q 61.71875 42.1875 55.46875 39.0625 
Q 49.21875 35.9375 39.453125 33.203125 
Q 38.28125 36.71875 35.15625 39.84375 
Q 43.359375 41.40625 50.1875 44.140625 
Q 57.03125 46.875 60.546875 50 
Q 55.46875 55.078125 51.953125 60.546875 
Q 46.875 53.90625 44.140625 51.171875 
Q 41.40625 53.90625 38.28125 55.46875 
Q 43.359375 60.15625 48.046875 67.578125 
Q 52.734375 75 55.859375 82.8125 
Q 61.71875 79.6875 63.671875 78.90625 
z
M 36.71875 77.734375 
Q 34.765625 72.65625 31.640625 63.46875 
Q 28.515625 54.296875 26.171875 46.484375 
Q 32.421875 38.28125 34.375 33.984375 
Q 36.328125 29.6875 35.734375 24.21875 
Q 35.15625 18.75 31.4375 15.8125 
Q 27.734375 12.890625 21.09375 12.109375 
Q 20.3125 16.015625 17.96875 20.703125 
Q 25.78125 20.3125 27.140625 23.625 
Q 28.515625 26.953125 27.921875 30.65625 
Q 27.34375 34.375 18.75 45.703125 
L 22.65625 56.25 
Q 25 62.890625 26.953125 71.09375 
L 15.234375 71.09375 
L 15.234375 -9.375 
L 7.8125 -9.375 
Q 8.203125 5.078125 8.203125 13.671875 
L 8.203125 58.59375 
Q 8.203125 67.578125 7.8125 77.734375 
L 36.71875 77.734375 
z
M 79.6875 32.421875 
Q 82.421875 32.421875 89.453125 32.8125 
L 89.453125 25.78125 
Q 85.15625 26.171875 80.46875 26.171875 
L 71.484375 26.171875 
L 71.484375 14.0625 
L 81.25 14.0625 
Q 88.671875 14.0625 94.53125 14.453125 
L 94.53125 7.421875 
Q 89.0625 7.8125 81.640625 7.8125 
L 71.484375 7.8125 
L 71.484375 1.953125 
Q 71.484375 -3.90625 71.875 -9.375 
L 64.0625 -9.375 
Q 64.453125 -3.515625 64.453125 1.5625 
L 64.453125 7.8125 
L 37.109375 7.8125 
Q 39.0625 17.1875 39.0625 21.875 
L 47.265625 20.703125 
Q 45.703125 16.015625 45.703125 14.0625 
L 64.453125 14.0625 
L 64.453125 26.171875 
L 54.296875 26.171875 
Q 48.4375 26.171875 43.359375 25.78125 
L 43.359375 32.8125 
Q 50.390625 32.421875 54.296875 32.421875 
L 64.453125 32.421875 
Q 64.453125 37.109375 64.0625 41.015625 
L 71.484375 41.015625 
Q 71.09375 34.765625 71.09375 32.421875 
z
M 66.796875 54.296875 
Q 71.875 58.203125 76.953125 66.40625 
L 55.46875 66.40625 
Q 62.890625 57.03125 66.796875 54.296875 
z
" id="SimHei-38477"/>
      <path d="M 35.9375 71.09375 
Q 42.96875 70.703125 58.59375 72.453125 
Q 74.21875 74.21875 82.421875 78.125 
Q 84.765625 73.828125 87.5 69.921875 
Q 80.078125 68.75 67.96875 67.1875 
Q 67.96875 59.765625 68.75 44.53125 
L 78.125 44.53125 
Q 84.765625 44.53125 91.40625 44.921875 
L 91.40625 37.890625 
Q 84.765625 38.28125 78.515625 38.28125 
L 69.53125 38.28125 
Q 71.484375 20.703125 75.96875 11.90625 
Q 80.46875 3.125 83.203125 1.171875 
Q 85.9375 -0.78125 86.90625 1.953125 
Q 87.890625 4.6875 88.671875 12.109375 
Q 92.578125 8.984375 96.09375 8.203125 
Q 93.75 -1.5625 91.40625 -5.265625 
Q 89.0625 -8.984375 83.59375 -7.8125 
Q 78.125 -6.640625 71.671875 4.09375 
Q 65.234375 14.84375 62.5 38.28125 
L 43.359375 38.28125 
L 43.359375 7.8125 
Q 51.171875 14.84375 55.859375 19.921875 
Q 57.421875 15.234375 58.984375 12.5 
Q 43.359375 -0.78125 39.0625 -5.46875 
Q 36.328125 -2.734375 33.984375 0.390625 
Q 35.9375 2.34375 36.328125 7.8125 
L 36.328125 58.203125 
Q 36.328125 63.671875 35.9375 71.09375 
z
M 32.03125 79.296875 
Q 29.6875 76.5625 25 61.71875 
L 25 6.640625 
Q 25 -1.171875 25.390625 -9.765625 
L 17.1875 -9.765625 
Q 17.578125 -1.171875 17.578125 7.03125 
L 17.578125 47.265625 
Q 13.671875 39.0625 9.765625 33.203125 
Q 6.25 36.71875 3.515625 37.890625 
Q 9.375 45.3125 15.03125 57.609375 
Q 20.703125 69.921875 23.4375 82.421875 
Q 24.609375 81.25 32.03125 79.296875 
z
M 61.71875 44.53125 
Q 60.9375 58.984375 60.9375 66.015625 
Q 48.828125 65.234375 43.359375 64.84375 
L 43.359375 44.53125 
z
M 60.15625 -9.765625 
Q 53.90625 -1.171875 50.78125 1.5625 
Q 53.90625 4.296875 55.859375 6.640625 
Q 61.328125 0.78125 66.015625 -4.6875 
Q 62.890625 -7.03125 60.15625 -9.765625 
z
" id="SimHei-20302"/>
      <path d="M 82.8125 81.25 
Q 85.15625 77.34375 89.453125 73.046875 
Q 77.734375 72.65625 69.328125 71.671875 
Q 60.9375 70.703125 48.828125 69.53125 
Q 50.78125 67.578125 54.296875 66.015625 
Q 49.21875 62.890625 44.328125 58.78125 
Q 39.453125 54.6875 34.765625 51.171875 
L 54.296875 51.171875 
Q 64.0625 57.8125 70.703125 63.28125 
Q 74.609375 60.15625 80.078125 57.8125 
Q 74.609375 55.46875 69.53125 52.734375 
Q 64.453125 50 52.921875 42.765625 
Q 41.40625 35.546875 33.203125 30.859375 
Q 56.25 32.03125 76.171875 32.8125 
Q 74.21875 34.765625 66.015625 41.015625 
Q 69.921875 42.578125 72.65625 44.921875 
Q 77.34375 41.40625 83.390625 36.125 
Q 89.453125 30.859375 94.921875 25.78125 
Q 90.234375 23.046875 87.5 20.703125 
Q 84.375 24.609375 81.640625 26.953125 
Q 71.09375 26.5625 56.640625 25.78125 
L 56.640625 2.34375 
Q 56.640625 -5.078125 52.921875 -6.4375 
Q 49.21875 -7.8125 39.453125 -9.375 
Q 38.671875 -4.6875 35.9375 -0.390625 
Q 44.921875 -0.390625 47.0625 0.1875 
Q 49.21875 0.78125 49.21875 4.6875 
L 49.21875 25.78125 
Q 25.390625 25.390625 16.796875 23.828125 
Q 15.625 27.734375 14.0625 32.03125 
Q 22.65625 32.8125 29.296875 35.9375 
Q 35.9375 39.0625 45.3125 45.3125 
Q 36.328125 45.3125 31.828125 44.921875 
Q 27.34375 44.53125 21.875 43.75 
Q 20.703125 48.046875 19.53125 51.953125 
Q 26.171875 51.953125 32.8125 57.21875 
Q 39.453125 62.5 42.96875 68.75 
Q 21.09375 67.96875 14.453125 67.1875 
Q 13.28125 71.09375 11.71875 74.21875 
Q 33.59375 74.21875 50.78125 75.78125 
Q 67.96875 77.34375 82.8125 81.25 
z
M 72.265625 19.53125 
Q 76.953125 16.015625 83.203125 11.515625 
Q 89.453125 7.03125 93.75 2.734375 
Q 90.625 0 87.5 -3.515625 
Q 82.421875 1.953125 76.953125 6.25 
Q 71.484375 10.546875 66.796875 13.671875 
Q 70.3125 16.40625 72.265625 19.53125 
z
M 34.375 13.671875 
Q 29.6875 11.328125 24.015625 5.859375 
Q 18.359375 0.390625 12.5 -4.6875 
Q 8.984375 -1.171875 5.859375 0.390625 
Q 16.796875 7.03125 26.171875 19.140625 
Q 29.6875 16.40625 34.375 13.671875 
z
" id="SimHei-31995"/>
      <path d="M 70.703125 76.953125 
Q 69.921875 75 68.75 71.671875 
Q 67.578125 68.359375 65.234375 59.765625 
L 83.203125 59.765625 
Q 87.109375 59.765625 92.578125 60.15625 
L 92.578125 53.125 
Q 88.28125 53.515625 85.9375 53.515625 
Q 85.9375 47.265625 83.78125 33.78125 
Q 81.640625 20.3125 76.171875 10.546875 
Q 80.078125 5.859375 84.953125 2.140625 
Q 89.84375 -1.5625 94.140625 -3.125 
Q 89.453125 -6.640625 87.890625 -9.765625 
Q 83.203125 -7.03125 79.296875 -3.515625 
Q 75.390625 0 71.484375 5.078125 
Q 67.1875 0.390625 62.296875 -2.921875 
Q 57.421875 -6.25 50 -10.15625 
Q 48.046875 -6.640625 44.53125 -4.6875 
Q 50.390625 -2.34375 57.03125 1.953125 
Q 63.671875 6.25 67.1875 10.546875 
Q 64.453125 16.015625 61.90625 22.265625 
Q 59.375 28.515625 57.421875 38.671875 
Q 56.25 35.546875 53.515625 30.46875 
Q 50.78125 32.03125 46.875 33.59375 
Q 53.125 44.53125 57.03125 57.421875 
Q 60.9375 70.3125 62.109375 79.6875 
Q 66.796875 77.734375 70.703125 76.953125 
z
M 32.8125 35.15625 
Q 31.25 33.59375 29.296875 30.078125 
L 50.78125 30.078125 
Q 48.4375 20.3125 42.578125 10.546875 
Q 48.828125 8.203125 52.34375 6.25 
Q 50.390625 3.515625 48.828125 0.390625 
Q 45.3125 2.734375 38.28125 5.078125 
Q 30.46875 -3.515625 11.328125 -10.15625 
Q 9.375 -5.859375 6.25 -4.296875 
Q 24.609375 0 31.25 7.421875 
Q 20.3125 10.15625 13.28125 12.109375 
Q 15.625 15.625 19.53125 23.828125 
Q 15.625 23.828125 6.640625 23.4375 
L 6.640625 30.46875 
Q 14.0625 30.078125 21.875 30.078125 
Q 23.4375 33.59375 24.21875 37.890625 
Q 28.515625 36.328125 32.8125 35.15625 
z
M 27.734375 61.71875 
Q 27.734375 71.09375 27.34375 79.6875 
L 35.15625 79.6875 
Q 34.765625 71.484375 34.765625 61.71875 
Q 48.046875 61.71875 53.515625 62.109375 
L 53.515625 55.078125 
Q 48.046875 55.46875 34.765625 55.46875 
Q 34.765625 44.140625 35.15625 37.890625 
L 27.34375 37.890625 
Q 27.734375 43.359375 27.734375 51.5625 
Q 25.78125 48.4375 20.3125 43.546875 
Q 14.84375 38.671875 10.15625 35.9375 
Q 8.203125 39.453125 4.296875 41.015625 
Q 7.8125 42.1875 13.671875 46.484375 
Q 19.53125 50.78125 22.65625 55.46875 
Q 14.84375 55.46875 7.8125 55.078125 
L 7.8125 62.109375 
Q 14.453125 61.71875 27.734375 61.71875 
z
M 62.109375 49.609375 
Q 65.625 26.5625 71.875 17.578125 
Q 75.78125 26.5625 77.140625 35.734375 
Q 78.515625 44.921875 78.90625 53.515625 
L 63.671875 53.515625 
L 62.109375 49.609375 
z
M 22.65625 15.625 
Q 27.34375 14.453125 35.546875 12.5 
Q 38.671875 16.40625 41.40625 23.828125 
L 26.953125 23.828125 
Q 25 19.921875 22.65625 15.625 
z
M 51.953125 75.390625 
Q 50 72.265625 48.828125 69.53125 
Q 47.65625 66.796875 45.703125 62.890625 
Q 42.578125 64.453125 39.453125 65.234375 
Q 42.578125 70.3125 45.3125 78.125 
Q 49.21875 76.171875 51.953125 75.390625 
z
M 40.234375 52.734375 
Q 45.3125 47.65625 50 42.578125 
Q 47.65625 40.625 44.921875 37.890625 
Q 39.453125 44.53125 35.9375 48.4375 
Q 38.28125 50.390625 40.234375 52.734375 
z
M 14.453125 78.125 
Q 19.921875 72.65625 23.4375 67.1875 
L 17.578125 63.671875 
Q 14.84375 69.140625 9.375 73.828125 
Q 12.890625 76.171875 14.453125 78.125 
z
" id="SimHei-25968"/>
      <path d="M 84.765625 79.6875 
L 89.0625 74.609375 
Q 66.796875 58.203125 67.578125 36.71875 
Q 67.96875 16.015625 88.671875 0.78125 
L 84.375 -4.296875 
Q 60.546875 12.890625 61.328125 39.0625 
Q 61.328125 60.546875 84.765625 79.6875 
z
" id="SimHei-65288"/>
      <path d="M 28.515625 1.953125 
L 20.703125 1.953125 
L 20.703125 68.75 
L 28.515625 68.75 
z
" id="SimHei-108"/>
      <path d="M 15.625 79.6875 
Q 39.0625 60.546875 39.0625 39.0625 
Q 39.84375 12.890625 16.015625 -4.296875 
L 11.71875 0.78125 
Q 32.421875 16.015625 32.8125 36.71875 
Q 33.59375 58.203125 11.328125 74.609375 
L 15.625 79.6875 
z
" id="SimHei-65289"/>
     </defs>
     <g transform="translate(138.9 347.65)scale(0.1 -0.1)">
      <use xlink:href="#SimHei-25509"/>
      <use x="100" xlink:href="#SimHei-31181"/>
      <use x="200" xlink:href="#SimHei-21518"/>
      <use x="300" xlink:href="#SimHei-20986"/>
      <use x="400" xlink:href="#SimHei-29616"/>
      <use x="500" xlink:href="#SimHei-30151"/>
      <use x="600" xlink:href="#SimHei-29366"/>
      <use x="700" xlink:href="#SimHei-30340"/>
      <use x="800" xlink:href="#SimHei-27010"/>
      <use x="900" xlink:href="#SimHei-29575"/>
      <use x="1000" xlink:href="#SimHei-38477"/>
      <use x="1100" xlink:href="#SimHei-20302"/>
      <use x="1200" xlink:href="#SimHei-31995"/>
      <use x="1300" xlink:href="#SimHei-25968"/>
      <use x="1400" xlink:href="#SimHei-65288"/>
      <use x="1500" xlink:href="#SimHei-108"/>
      <use x="1550" xlink:href="#SimHei-65289"/>
     </g>
    </g>
   </g>
   <g id="matplotlib.axis_2">
    <g id="ytick_1">
     <g id="line2d_7">
      <defs>
       <path d="M 0 0 
L -3.5 0 
" id="mf30c8c3b45" style="stroke:#000000;stroke-width:0.8;"/>
      </defs>
      <g>
       <use style="stroke:#000000;stroke-width:0.8;" x="54" xlink:href="#mf30c8c3b45" y="320.4"/>
      </g>
     </g>
     <g id="text_8">
      <!-- 0.0 -->
      <g transform="translate(32 323.8375)scale(0.1 -0.1)">
       <use xlink:href="#SimHei-48"/>
       <use x="50" xlink:href="#SimHei-46"/>
       <use x="100" xlink:href="#SimHei-48"/>
      </g>
     </g>
    </g>
    <g id="ytick_2">
     <g id="line2d_8">
      <g>
       <use style="stroke:#000000;stroke-width:0.8;" x="54" xlink:href="#mf30c8c3b45" y="264.96"/>
      </g>
     </g>
     <g id="text_9">
      <!-- 0.2 -->
      <g transform="translate(32 268.3975)scale(0.1 -0.1)">
       <use xlink:href="#SimHei-48"/>
       <use x="50" xlink:href="#SimHei-46"/>
       <use x="100" xlink:href="#SimHei-50"/>
      </g>
     </g>
    </g>
    <g id="ytick_3">
     <g id="line2d_9">
      <g>
       <use style="stroke:#000000;stroke-width:0.8;" x="54" xlink:href="#mf30c8c3b45" y="209.52"/>
      </g>
     </g>
     <g id="text_10">
      <!-- 0.4 -->
      <g transform="translate(32 212.9575)scale(0.1 -0.1)">
       <use xlink:href="#SimHei-48"/>
       <use x="50" xlink:href="#SimHei-46"/>
       <use x="100" xlink:href="#SimHei-52"/>
      </g>
     </g>
    </g>
    <g id="ytick_4">
     <g id="line2d_10">
      <g>
       <use style="stroke:#000000;stroke-width:0.8;" x="54" xlink:href="#mf30c8c3b45" y="154.08"/>
      </g>
     </g>
     <g id="text_11">
      <!-- 0.6 -->
      <g transform="translate(32 157.5175)scale(0.1 -0.1)">
       <use xlink:href="#SimHei-48"/>
       <use x="50" xlink:href="#SimHei-46"/>
       <use x="100" xlink:href="#SimHei-54"/>
      </g>
     </g>
    </g>
    <g id="ytick_5">
     <g id="line2d_11">
      <g>
       <use style="stroke:#000000;stroke-width:0.8;" x="54" xlink:href="#mf30c8c3b45" y="98.64"/>
      </g>
     </g>
     <g id="text_12">
      <!-- 0.8 -->
      <g transform="translate(32 102.0775)scale(0.1 -0.1)">
       <use xlink:href="#SimHei-48"/>
       <use x="50" xlink:href="#SimHei-46"/>
       <use x="100" xlink:href="#SimHei-56"/>
      </g>
     </g>
    </g>
    <g id="ytick_6">
     <g id="line2d_12">
      <g>
       <use style="stroke:#000000;stroke-width:0.8;" x="54" xlink:href="#mf30c8c3b45" y="43.2"/>
      </g>
     </g>
     <g id="text_13">
      <!-- 1.0 -->
      <g transform="translate(32 46.6375)scale(0.1 -0.1)">
       <use xlink:href="#SimHei-49"/>
       <use x="50" xlink:href="#SimHei-46"/>
       <use x="100" xlink:href="#SimHei-48"/>
      </g>
     </g>
    </g>
    <g id="text_14">
     <!-- 感染率降低系数（w） -->
     <defs>
      <path d="M 95.703125 29.6875 
Q 92.1875 18.75 89.453125 17.375 
Q 86.71875 16.015625 81.828125 17.765625 
Q 76.953125 19.53125 69.140625 26.5625 
Q 64.453125 21.484375 58.203125 17.1875 
Q 55.46875 20.3125 52.34375 21.875 
Q 60.546875 26.5625 65.234375 32.03125 
Q 60.9375 39.0625 58.78125 47.453125 
Q 56.640625 55.859375 55.859375 63.28125 
L 20.703125 63.28125 
Q 20.703125 45.703125 20.109375 39.453125 
Q 19.53125 33.203125 17.578125 27.734375 
Q 15.625 22.265625 11.71875 16.015625 
Q 7.03125 19.140625 4.296875 19.921875 
Q 8.984375 25.78125 11.125 31.4375 
Q 13.28125 37.109375 13.671875 44.53125 
Q 14.0625 51.953125 13.671875 69.53125 
L 55.078125 69.53125 
Q 55.078125 72.65625 54.6875 80.859375 
Q 58.203125 80.078125 62.890625 79.6875 
Q 62.109375 75 62.5 69.53125 
L 79.6875 69.53125 
Q 85.15625 69.53125 92.578125 69.921875 
L 92.578125 62.890625 
Q 85.15625 63.28125 80.078125 63.28125 
L 62.890625 63.28125 
Q 64.453125 46.875 69.53125 38.671875 
Q 71.875 42.578125 73.828125 48.234375 
Q 75.78125 53.90625 76.953125 58.984375 
Q 80.859375 57.421875 85.15625 56.25 
Q 83.59375 54.6875 81.046875 47.65625 
Q 78.515625 40.625 73.828125 32.03125 
Q 78.125 28.125 81.4375 26.171875 
Q 84.765625 24.21875 85.734375 25.390625 
Q 86.71875 26.5625 88.28125 33.59375 
Q 91.40625 30.859375 95.703125 29.6875 
z
M 51.953125 25 
L 24.609375 25 
L 24.609375 44.921875 
L 51.953125 44.921875 
z
M 76.171875 2.734375 
Q 73.4375 -5.078125 71.484375 -6.4375 
Q 69.53125 -7.8125 66.40625 -7.8125 
L 36.71875 -7.8125 
Q 31.640625 -7.421875 30.65625 -3.125 
Q 29.6875 1.171875 29.6875 5.078125 
Q 29.6875 8.984375 29.296875 14.453125 
L 37.5 14.453125 
Q 37.109375 7.8125 37.109375 5.078125 
Q 37.109375 2.734375 37.5 0.390625 
Q 37.890625 -1.953125 42.578125 -1.5625 
L 60.546875 -1.5625 
Q 64.453125 -1.5625 65.8125 -0.1875 
Q 67.1875 1.171875 67.96875 7.03125 
Q 71.09375 4.6875 76.171875 2.734375 
z
M 51.5625 51.171875 
L 25 51.171875 
L 25 57.03125 
L 51.5625 57.03125 
z
M 83.59375 14.0625 
Q 92.1875 3.515625 94.921875 -0.78125 
Q 91.015625 -3.125 87.890625 -5.46875 
Q 83.984375 1.953125 77.34375 9.375 
Q 80.078125 11.328125 83.59375 14.0625 
z
M 7.421875 -2.734375 
Q 10.9375 1.5625 15.234375 14.453125 
Q 18.359375 12.890625 22.65625 11.328125 
Q 17.578125 -0.390625 14.84375 -5.859375 
Q 11.71875 -4.296875 7.421875 -2.734375 
z
M 45.703125 30.46875 
L 45.703125 39.453125 
L 30.859375 39.453125 
L 30.859375 30.46875 
z
M 42.578125 16.40625 
Q 44.921875 18.359375 48.4375 20.703125 
Q 55.078125 12.109375 57.03125 8.59375 
Q 53.90625 6.640625 51.171875 3.90625 
Q 48.828125 8.203125 42.578125 16.40625 
z
M 76.5625 70.3125 
Q 74.21875 72.265625 67.96875 76.5625 
Q 70.3125 79.296875 71.875 81.640625 
Q 74.609375 80.078125 81.25 75 
Q 78.90625 73.046875 76.5625 70.3125 
z
" id="SimHei-24863"/>
      <path d="M 91.015625 -7.03125 
Q 74.21875 -2.34375 66.40625 3.90625 
Q 58.59375 10.15625 53.90625 17.96875 
Q 53.90625 -4.6875 54.296875 -9.375 
L 46.09375 -9.375 
Q 46.484375 -4.296875 46.484375 16.796875 
Q 40.625 8.59375 31.4375 2.34375 
Q 22.265625 -3.90625 9.765625 -8.984375 
Q 8.59375 -5.078125 3.125 -1.5625 
Q 16.796875 1.5625 25.96875 7.609375 
Q 35.15625 13.671875 38.671875 19.140625 
L 19.140625 19.140625 
Q 13.671875 19.140625 6.25 18.75 
L 6.25 25.78125 
Q 13.671875 25.390625 19.140625 25.390625 
L 46.484375 25.390625 
Q 46.484375 28.515625 46.09375 33.59375 
L 54.296875 33.59375 
Q 53.90625 28.90625 53.90625 25.390625 
L 82.8125 25.390625 
Q 87.890625 25.390625 93.75 25.78125 
L 93.75 18.75 
Q 87.890625 19.140625 82.8125 19.140625 
L 61.71875 19.140625 
Q 67.96875 10.546875 78.125 6.25 
Q 88.28125 1.953125 96.484375 1.171875 
Q 91.40625 -3.90625 91.015625 -7.03125 
z
M 28.515625 35.9375 
Q 39.84375 40.234375 45.703125 47.0625 
Q 51.5625 53.90625 53.125 62.5 
Q 47.265625 62.5 40.234375 62.109375 
L 40.234375 69.140625 
Q 47.65625 68.75 53.515625 68.75 
Q 53.90625 76.953125 53.515625 82.03125 
Q 58.203125 80.859375 62.5 80.859375 
Q 61.328125 78.515625 60.9375 68.75 
L 80.078125 68.75 
Q 79.6875 64.84375 79.296875 60.15625 
L 78.125 44.53125 
Q 78.515625 40.625 80.859375 40.625 
L 85.15625 40.625 
Q 87.109375 40.625 87.6875 42.1875 
Q 88.28125 43.75 88.671875 50 
Q 91.796875 47.265625 96.875 46.875 
Q 95.3125 36.328125 92.375 35.34375 
Q 89.453125 34.375 84.171875 34.171875 
Q 78.90625 33.984375 74.796875 34.953125 
Q 70.703125 35.9375 71.09375 42.1875 
L 72.265625 62.5 
L 60.546875 62.5 
Q 59.375 53.515625 54.296875 45.890625 
Q 49.21875 38.28125 35.546875 30.078125 
Q 33.984375 32.8125 28.515625 35.9375 
z
M 33.984375 45.703125 
Q 19.140625 33.984375 13.28125 29.296875 
Q 10.9375 33.203125 7.8125 35.9375 
Q 17.1875 40.625 31.25 52.734375 
Q 32.03125 49.609375 33.984375 45.703125 
z
M 10.546875 64.84375 
Q 21.484375 59.765625 27.34375 56.25 
Q 24.609375 52.734375 23.046875 49.609375 
Q 19.140625 53.125 7.03125 58.59375 
Q 9.375 61.328125 10.546875 64.84375 
z
M 28.90625 64.84375 
Q 23.046875 69.921875 14.0625 74.609375 
Q 16.015625 76.953125 18.359375 80.078125 
Q 27.34375 75 33.984375 71.09375 
Q 30.46875 67.578125 28.90625 64.84375 
z
" id="SimHei-26579"/>
      <path d="M 48.046875 45.703125 
L 38.28125 1.171875 
L 30.859375 1.171875 
L 24.609375 35.15625 
L 23.828125 35.15625 
L 17.578125 1.171875 
L 10.15625 1.171875 
L 0.390625 45.703125 
L 8.59375 45.703125 
L 13.671875 16.40625 
L 14.453125 16.40625 
L 19.921875 45.703125 
L 28.515625 45.703125 
L 33.984375 16.40625 
L 34.765625 16.40625 
L 39.84375 45.703125 
z
" id="SimHei-119"/>
     </defs>
     <g transform="translate(26.75 229.3)rotate(-90)scale(0.1 -0.1)">
      <use xlink:href="#SimHei-24863"/>
      <use x="100" xlink:href="#SimHei-26579"/>
      <use x="200" xlink:href="#SimHei-29575"/>
      <use x="300" xlink:href="#SimHei-38477"/>
      <use x="400" xlink:href="#SimHei-20302"/>
      <use x="500" xlink:href="#SimHei-31995"/>
      <use x="600" xlink:href="#SimHei-25968"/>
      <use x="700" xlink:href="#SimHei-65288"/>
      <use x="800" xlink:href="#SimHei-119"/>
      <use x="850" xlink:href="#SimHei-65289"/>
     </g>
    </g>
   </g>
   <g id="LineCollection_1"/>
   <g id="LineCollection_2">
    <path clip-path="url(#p23e5088a94)" d="M 54 297.3 
L 57.348 297.242105 
L 60.696 297.18392 
L 64.044 297.125441 
L 67.392 297.066667 
L 70.74 297.007595 
L 74.088 296.948223 
L 77.436 296.88855 
L 80.784 296.828571 
L 84.132 296.768286 
L 87.48 296.707692 
L 90.828 296.646787 
L 94.176 296.585567 
L 97.524 296.524031 
L 100.872 296.462176 
L 104.22 296.4 
L 107.568 296.3375 
L 108.522951 296.31958 
" style="fill:none;stroke:#482475;stroke-width:1.5;"/>
    <path clip-path="url(#p23e5088a94)" d="M 132.998482 295.851884 
L 134.352 295.825532 
L 137.7 295.76 
L 141.048 295.694118 
L 144.396 295.627882 
L 147.744 295.56129 
L 151.092 295.49434 
L 153.2 295.452 
L 154.44 295.427027 
L 157.788 295.35935 
L 161.136 295.291304 
L 164.484 295.222888 
L 167.832 295.154098 
L 171.18 295.084932 
L 174.528 295.015385 
L 177.876 294.945455 
L 181.224 294.875138 
L 184.572 294.804432 
L 187.92 294.733333 
L 191.268 294.661838 
L 194.616 294.589944 
L 197.964 294.517647 
L 201.312 294.444944 
L 204.66 294.371831 
L 208.008 294.298305 
L 208.881466 294.279014 
" style="fill:none;stroke:#482475;stroke-width:1.5;"/>
    <path clip-path="url(#p23e5088a94)" d="M 233.355259 293.727824 
L 234.792 293.694798 
L 238.14 293.617391 
L 241.488 293.539535 
L 244.836 293.461224 
L 248.184 293.382456 
L 251.532 293.303226 
L 254.88 293.223529 
L 258.228 293.143363 
L 261.576 293.062722 
L 264.924 292.981602 
L 268.272 292.9 
L 271.62 292.81791 
L 274.968 292.735329 
L 277.2 292.68 
L 278.316 292.652252 
L 281.664 292.568675 
L 285.012 292.484592 
L 288.36 292.4 
L 291.708 292.314894 
L 295.056 292.229268 
L 298.404 292.143119 
L 301.752 292.056442 
L 305.1 291.969231 
L 308.448 291.881481 
L 308.977934 291.867506 
" style="fill:none;stroke:#482475;stroke-width:1.5;"/>
    <path clip-path="url(#p23e5088a94)" d="M 333.449064 291.208616 
L 335.232 291.159494 
L 338.58 291.066667 
L 341.928 290.973248 
L 345.276 290.879233 
L 348.624 290.784615 
L 351.972 290.689389 
L 355.32 290.593548 
L 358.668 290.497087 
L 362.016 290.4 
L 365.364 290.30228 
L 368.712 290.203922 
L 372.06 290.104918 
L 375.408 290.005263 
L 378.654545 289.908 
L 378.756 289.90495 
L 382.104 289.803974 
L 385.452 289.702326 
L 388.8 289.6 
" style="fill:none;stroke:#482475;stroke-width:1.5;"/>
   </g>
   <g id="LineCollection_3">
    <path clip-path="url(#p23e5088a94)" d="M 54 268.425 
L 57.348 268.294737 
L 60.696 268.163819 
L 64.044 268.032242 
L 67.392 267.9 
L 70.74 267.767089 
L 71.621053 267.732 
L 74.088 267.633503 
L 77.436 267.499237 
L 80.784 267.364286 
L 84.132 267.228645 
L 87.48 267.092308 
L 90.828 266.95527 
L 94.176 266.817526 
L 97.524 266.67907 
L 100.872 266.539896 
L 104.22 266.4 
L 107.568 266.259375 
L 108.168929 266.234003 
" style="fill:none;stroke:#414487;stroke-width:1.5;"/>
    <path clip-path="url(#p23e5088a94)" d="M 132.626356 265.183041 
L 134.352 265.107447 
L 137.7 264.96 
L 137.7 264.96 
L 141.048 264.811765 
L 144.396 264.662735 
L 147.744 264.512903 
L 151.092 264.362264 
L 154.44 264.210811 
L 157.788 264.058537 
L 161.136 263.905435 
L 164.484 263.751499 
L 167.832 263.596721 
L 171.18 263.441096 
L 174.528 263.284615 
L 177.876 263.127273 
L 181.224 262.969061 
L 184.572 262.809972 
L 187.92 262.65 
L 191.268 262.489136 
L 194.616 262.327374 
L 197.485714 262.188 
L 197.964 262.164706 
L 201.312 262.001124 
L 204.66 261.83662 
L 208.008 261.671186 
L 208.276882 261.657825 
" style="fill:none;stroke:#414487;stroke-width:1.5;"/>
    <path clip-path="url(#p23e5088a94)" d="M 232.725571 260.420172 
L 234.792 260.313295 
L 238.14 260.13913 
L 241.488 259.963953 
L 244.836 259.787755 
L 248.184 259.610526 
L 251.532 259.432258 
L 251.836364 259.416 
L 254.88 259.252941 
L 258.228 259.072566 
L 261.576 258.891124 
L 264.924 258.708605 
L 268.272 258.525 
L 271.62 258.340299 
L 274.968 258.154491 
L 278.316 257.967568 
L 281.664 257.779518 
L 285.012 257.590332 
L 288.36 257.4 
L 291.708 257.208511 
L 295.056 257.015854 
L 298.404 256.822018 
L 301.46087 256.644 
L 301.752 256.626994 
L 305.1 256.430769 
L 308.448 256.233333 
L 309.047957 256.197734 
" style="fill:none;stroke:#414487;stroke-width:1.5;"/>
    <path clip-path="url(#p23e5088a94)" d="M 333.483142 254.717273 
L 335.232 254.608861 
L 338.58 254.4 
L 341.928 254.189809 
L 345.276 253.978275 
L 346.95 253.872 
L 348.624 253.765385 
L 351.972 253.551125 
L 355.32 253.335484 
L 358.668 253.118447 
L 362.016 252.9 
L 365.364 252.68013 
L 368.712 252.458824 
L 372.06 252.236066 
L 375.408 252.011842 
L 378.756 251.786139 
L 382.104 251.55894 
L 385.452 251.330233 
L 388.8 251.1 
L 388.8 251.1 
" style="fill:none;stroke:#414487;stroke-width:1.5;"/>
   </g>
   <g id="LineCollection_4">
    <path clip-path="url(#p23e5088a94)" d="M 54 239.55 
L 57.348 239.347368 
L 60.696 239.143719 
L 64.044 238.939043 
L 67.392 238.733333 
L 70.74 238.526582 
L 74.088 238.318782 
L 77.436 238.109924 
L 80.784 237.9 
L 84.132 237.689003 
L 87.48 237.476923 
L 90.828 237.263753 
L 91.2 237.24 
L 94.176 237.049485 
L 97.524 236.834109 
L 100.872 236.617617 
L 104.22 236.4 
L 107.568 236.18125 
L 107.69687 236.172786 
" style="fill:none;stroke:#355f8d;stroke-width:1.5;"/>
    <path clip-path="url(#p23e5088a94)" d="M 132.122441 234.541362 
L 133.2 234.468 
L 134.352 234.389362 
L 137.7 234.16 
L 141.048 233.929412 
L 144.396 233.697587 
L 147.744 233.464516 
L 151.092 233.230189 
L 154.44 232.994595 
L 157.788 232.757724 
L 161.136 232.519565 
L 164.484 232.280109 
L 167.832 232.039344 
L 171.18 231.79726 
L 172.575 231.696 
L 174.528 231.553846 
L 177.876 231.309091 
L 181.224 231.062983 
L 184.572 230.815512 
L 187.92 230.566667 
L 191.268 230.316435 
L 194.616 230.064804 
L 197.964 229.811765 
L 201.312 229.557303 
L 204.66 229.301408 
L 208.008 229.044068 
L 208.474959 229.008027 
" style="fill:none;stroke:#355f8d;stroke-width:1.5;"/>
    <path clip-path="url(#p23e5088a94)" d="M 232.879353 227.085673 
L 234.792 226.931792 
L 238.14 226.66087 
L 241.488 226.388372 
L 244.376471 226.152 
L 244.836 226.114286 
L 248.184 225.838596 
L 251.532 225.56129 
L 254.88 225.282353 
L 258.228 225.00177 
L 261.576 224.719527 
L 264.924 224.435608 
L 268.272 224.15 
L 271.62 223.862687 
L 274.968 223.573653 
L 277.2 223.38 
L 278.316 223.282883 
L 281.664 222.990361 
L 285.012 222.696073 
L 288.36 222.4 
L 291.708 222.102128 
L 295.056 221.802439 
L 298.404 221.500917 
L 301.752 221.197546 
L 305.1 220.892308 
L 308.2 220.608 
L 308.448 220.585185 
L 309.276003 220.50876 
" style="fill:none;stroke:#355f8d;stroke-width:1.5;"/>
    <path clip-path="url(#p23e5088a94)" d="M 333.647907 218.210981 
L 335.232 218.058228 
L 337.524324 217.836 
L 338.58 217.733333 
L 341.928 217.406369 
L 345.276 217.077316 
L 348.624 216.746154 
L 351.972 216.412862 
L 355.32 216.077419 
L 358.668 215.739806 
L 362.016 215.4 
L 365.305263 215.064 
L 365.364 215.05798 
L 368.712 214.713725 
L 372.06 214.367213 
L 375.408 214.018421 
L 378.756 213.667327 
L 382.104 213.313907 
L 385.452 212.95814 
L 388.8 212.6 
" style="fill:none;stroke:#355f8d;stroke-width:1.5;"/>
   </g>
   <g id="LineCollection_5">
    <path clip-path="url(#p23e5088a94)" d="M 54 210.675 
L 57.348 210.4 
L 60.696 210.123618 
L 64.044 209.845844 
L 67.392 209.566667 
L 67.95 209.52 
L 70.74 209.286076 
L 74.088 209.004061 
L 77.436 208.720611 
L 80.784 208.435714 
L 84.132 208.149361 
L 87.48 207.861538 
L 90.828 207.572237 
L 94.176 207.281443 
L 97.524 206.989147 
L 100.273171 206.748 
L 100.872 206.695337 
L 104.22 206.4 
L 107.568 206.103125 
L 109.603469 205.921693 
" style="fill:none;stroke:#2a788e;stroke-width:1.5;"/>
    <path clip-path="url(#p23e5088a94)" d="M 133.982925 203.70541 
L 134.352 203.671277 
L 137.7 203.36 
L 141.048 203.047059 
L 144.396 202.73244 
L 147.744 202.416129 
L 151.092 202.098113 
L 154.44 201.778378 
L 157.788 201.456911 
L 160.409302 201.204 
L 161.136 201.133696 
L 164.484 200.808719 
L 167.832 200.481967 
L 171.18 200.153425 
L 174.528 199.823077 
L 177.876 199.490909 
L 181.224 199.156906 
L 184.572 198.821053 
L 187.92 198.483333 
L 188.427273 198.432 
L 191.268 198.143733 
L 194.616 197.802235 
L 197.964 197.458824 
L 201.312 197.113483 
L 204.66 196.766197 
L 208.008 196.416949 
L 209.158411 196.296264 
" style="fill:none;stroke:#2a788e;stroke-width:1.5;"/>
    <path clip-path="url(#p23e5088a94)" d="M 233.49941 193.691424 
L 234.792 193.550289 
L 238.14 193.182609 
L 240.808696 192.888 
L 241.488 192.812791 
L 244.836 192.440816 
L 248.184 192.066667 
L 251.532 191.690323 
L 254.88 191.311765 
L 258.228 190.930973 
L 261.576 190.547929 
L 264.924 190.162611 
L 265.32766 190.116 
L 268.272 189.775 
L 271.62 189.385075 
L 274.968 188.992814 
L 278.316 188.598198 
L 281.664 188.201205 
L 285.012 187.801813 
L 288.36 187.4 
L 288.825 187.344 
L 291.708 186.995745 
L 295.056 186.589024 
L 298.404 186.179817 
L 301.752 185.768098 
L 305.1 185.353846 
L 308.448 184.937037 
L 308.485423 184.932351 
" style="fill:none;stroke:#2a788e;stroke-width:1.5;"/>
    <path clip-path="url(#p23e5088a94)" d="M 332.768052 181.830291 
L 333 181.8 
L 335.232 181.507595 
L 338.58 181.066667 
L 341.928 180.62293 
L 345.276 180.176358 
L 348.624 179.726923 
L 351.972 179.274598 
L 353.788235 179.028 
L 355.32 178.819355 
L 358.668 178.361165 
L 362.016 177.9 
L 365.364 177.435831 
L 368.712 176.968627 
L 372.06 176.498361 
L 373.776923 176.256 
L 375.408 176.025 
L 378.756 175.548515 
L 382.104 175.068874 
L 385.452 174.586047 
L 388.8 174.1 
" style="fill:none;stroke:#2a788e;stroke-width:1.5;"/>
   </g>
   <g id="LineCollection_6">
    <path clip-path="url(#p23e5088a94)" d="M 54 181.8 
L 57.348 181.452632 
L 60.696 181.103518 
L 64.044 180.752645 
L 67.392 180.4 
L 70.74 180.04557 
L 74.088 179.68934 
L 77.436 179.331298 
L 80.258824 179.028 
L 80.784 178.971429 
L 84.132 178.609719 
L 87.48 178.246154 
L 90.828 177.88072 
L 94.176 177.513402 
L 97.524 177.144186 
L 100.872 176.773057 
L 104.22 176.4 
L 105.507692 176.256 
L 107.568 176.025 
L 109.543397 175.802586 
" style="fill:none;stroke:#21918c;stroke-width:1.5;"/>
    <path clip-path="url(#p23e5088a94)" d="M 133.8636 173.010245 
L 134.352 172.953191 
L 137.7 172.56 
L 141.048 172.164706 
L 144.396 171.767292 
L 147.744 171.367742 
L 151.092 170.966038 
L 153.2 170.712 
L 154.44 170.562162 
L 157.788 170.156098 
L 161.136 169.747826 
L 164.484 169.33733 
L 167.832 168.92459 
L 171.18 168.509589 
L 174.528 168.092308 
L 175.745455 167.94 
L 177.876 167.672727 
L 181.224 167.250829 
L 184.572 166.826593 
L 187.92 166.4 
L 191.268 165.971031 
L 194.616 165.539665 
L 197.485714 165.168 
L 197.964 165.105882 
L 201.312 164.669663 
L 204.66 164.230986 
L 208.008 163.789831 
L 208.481185 163.727127 
" style="fill:none;stroke:#21918c;stroke-width:1.5;"/>
    <path clip-path="url(#p23e5088a94)" d="M 232.741032 160.451659 
L 234.792 160.168786 
L 238.14 159.704348 
L 238.717241 159.624 
L 241.488 159.237209 
L 244.836 158.767347 
L 248.184 158.294737 
L 251.532 157.819355 
L 254.88 157.341176 
L 258.228 156.860177 
L 258.284746 156.852 
L 261.576 156.376331 
L 264.924 155.889614 
L 268.272 155.4 
L 271.62 154.907463 
L 274.968 154.411976 
L 277.2 154.08 
L 278.316 153.913514 
L 281.664 153.412048 
L 285.012 152.907553 
L 288.36 152.4 
L 291.708 151.889362 
L 295.056 151.37561 
L 295.495082 151.308 
L 298.404 150.858716 
L 301.752 150.33865 
L 305.1 149.815385 
L 308.448 149.288889 
L 308.664126 149.254691 
" style="fill:none;stroke:#21918c;stroke-width:1.5;"/>
    <path clip-path="url(#p23e5088a94)" d="M 332.831274 145.353819 
L 335.232 144.956962 
L 338.58 144.4 
L 341.928 143.83949 
L 345.276 143.275399 
L 346.95 142.992 
L 348.624 142.707692 
L 351.972 142.136334 
L 355.32 141.56129 
L 358.668 140.982524 
L 362.016 140.4 
L 363.046154 140.22 
L 365.364 139.813681 
L 368.712 139.223529 
L 372.06 138.629508 
L 375.408 138.031579 
L 378.654545 137.448 
L 378.756 137.429703 
L 382.104 136.823841 
L 385.452 136.213953 
L 388.8 135.6 
" style="fill:none;stroke:#21918c;stroke-width:1.5;"/>
   </g>
   <g id="LineCollection_7">
    <path clip-path="url(#p23e5088a94)" d="M 54 152.925 
L 57.348 152.505263 
L 60.696 152.083417 
L 64.044 151.659446 
L 66.806557 151.308 
L 67.392 151.233333 
L 70.74 150.805063 
L 74.088 150.374619 
L 77.436 149.941985 
L 80.784 149.507143 
L 84.132 149.070077 
L 87.48 148.630769 
L 88.2 148.536 
L 90.828 148.189203 
L 94.176 147.745361 
L 97.524 147.299225 
L 100.872 146.850777 
L 104.22 146.4 
L 107.568 145.946875 
L 108.914286 145.764 
L 109.364179 145.702728 
" style="fill:none;stroke:#22a884;stroke-width:1.5;"/>
    <path clip-path="url(#p23e5088a94)" d="M 133.612027 142.339557 
L 134.352 142.235106 
L 137.7 141.76 
L 141.048 141.282353 
L 144.396 140.802145 
L 147.744 140.319355 
L 148.430769 140.22 
L 151.092 139.833962 
L 154.44 139.345946 
L 157.788 138.855285 
L 161.136 138.361957 
L 164.484 137.86594 
L 167.290909 137.448 
L 167.832 137.367213 
L 171.18 136.865753 
L 174.528 136.361538 
L 177.876 135.854545 
L 181.224 135.344751 
L 184.572 134.832133 
L 185.58806 134.676 
L 187.92 134.316667 
L 191.268 133.798329 
L 194.616 133.277095 
L 197.964 132.752941 
L 201.312 132.225843 
L 203.347059 131.904 
L 204.66 131.695775 
L 208.008 131.162712 
L 209.738236 130.885666 
" style="fill:none;stroke:#22a884;stroke-width:1.5;"/>
    <path clip-path="url(#p23e5088a94)" d="M 233.897522 126.936353 
L 234.792 126.787283 
L 237.342857 126.36 
L 238.14 126.226087 
L 241.488 125.661628 
L 244.836 125.093878 
L 248.184 124.522807 
L 251.532 123.948387 
L 253.622535 123.588 
L 254.88 123.370588 
L 258.228 122.789381 
L 261.576 122.204734 
L 264.924 121.616617 
L 268.272 121.025 
L 269.45 120.816 
L 271.62 120.429851 
L 274.968 119.831138 
L 278.316 119.228829 
L 281.664 118.622892 
L 284.843836 118.044 
L 285.012 118.013293 
L 288.36 117.4 
L 291.708 116.782979 
L 295.056 116.162195 
L 298.404 115.537615 
L 299.821622 115.272 
L 301.752 114.909202 
L 305.1 114.276923 
L 308.448 113.640741 
L 311.796 113.000619 
L 312.167956 112.929111 
" style="fill:none;stroke:#22a884;stroke-width:1.5;"/>
    <path clip-path="url(#p23e5088a94)" d="M 336.189471 108.213864 
L 338.58 107.733333 
L 341.928 107.056051 
L 342.420779 106.956 
L 345.276 106.374441 
L 348.624 105.688462 
L 351.972 104.998071 
L 355.32 104.303226 
L 355.892308 104.184 
L 358.668 103.603883 
L 362.016 102.9 
L 365.364 102.191531 
L 368.712 101.478431 
L 369.022785 101.412 
L 372.06 100.760656 
L 375.408 100.038158 
L 378.756 99.310891 
L 381.825 98.64 
L 382.104 98.578808 
L 385.452 97.84186 
L 388.8 97.1 
" style="fill:none;stroke:#22a884;stroke-width:1.5;"/>
   </g>
   <g id="LineCollection_8">
    <path clip-path="url(#p23e5088a94)" d="M 54 124.05 
L 57.143662 123.588 
L 57.348 123.557895 
L 60.696 123.063317 
L 64.044 122.566247 
L 67.392 122.066667 
L 70.74 121.564557 
L 74.088 121.059898 
L 75.7 120.816 
L 77.436 120.552672 
L 80.784 120.042857 
L 84.132 119.530435 
L 87.48 119.015385 
L 90.828 118.497686 
L 93.747945 118.044 
L 94.176 117.97732 
L 97.524 117.454264 
L 100.872 116.928497 
L 104.22 116.4 
L 107.568 115.86875 
L 109.068453 115.62942 
" style="fill:none;stroke:#44bf70;stroke-width:1.5;"/>
    <path clip-path="url(#p23e5088a94)" d="M 133.231392 111.702473 
L 134.352 111.517021 
L 137.7 110.96 
L 141.048 110.4 
L 144.396 109.836997 
L 145.042105 109.728 
L 147.744 109.270968 
L 151.092 108.701887 
L 154.44 108.12973 
L 157.788 107.554472 
L 161.136 106.976087 
L 161.251948 106.956 
L 164.484 106.39455 
L 167.832 105.809836 
L 171.18 105.221918 
L 174.528 104.630769 
L 177.046154 104.184 
L 177.876 104.036364 
L 181.224 103.438674 
L 184.572 102.837673 
L 187.92 102.233333 
L 191.268 101.625627 
L 192.440506 101.412 
L 194.616 101.014525 
L 197.964 100.4 
L 201.312 99.782022 
L 204.66 99.160563 
L 207.45 98.64 
L 208.008 98.535593 
L 208.887401 98.370506 
" style="fill:none;stroke:#44bf70;stroke-width:1.5;"/>
    <path clip-path="url(#p23e5088a94)" d="M 232.931052 93.769389 
L 234.792 93.40578 
L 236.370732 93.096 
L 238.14 92.747826 
L 241.488 92.086047 
L 244.836 91.420408 
L 248.184 90.750877 
L 250.308434 90.324 
L 251.532 90.077419 
L 254.88 89.4 
L 258.228 88.718584 
L 261.576 88.033136 
L 263.914286 87.552 
L 264.924 87.34362 
L 268.272 86.65 
L 271.62 85.952239 
L 274.968 85.250299 
L 277.2 84.78 
L 278.316 84.544144 
L 281.664 83.833735 
L 285.012 83.119033 
L 288.36 82.4 
L 290.176744 82.008 
L 291.708 81.676596 
L 295.056 80.94878 
L 298.404 80.216514 
L 301.752 79.479755 
L 302.855172 79.236 
L 305.1 78.738462 
L 308.448 77.992593 
L 310.785914 77.468526 
" style="fill:none;stroke:#44bf70;stroke-width:1.5;"/>
    <path clip-path="url(#p23e5088a94)" d="M 334.645596 71.993023 
L 335.232 71.855696 
L 338.58 71.066667 
L 339.2 70.92 
L 341.928 70.272611 
L 345.276 69.473482 
L 348.624 68.669231 
L 350.782418 68.148 
L 351.972 67.859807 
L 355.32 67.045161 
L 358.668 66.225243 
L 362.016 65.4 
L 362.113043 65.376 
L 365.364 64.569381 
L 368.712 63.733333 
L 372.06 62.891803 
L 373.2 62.604 
L 375.408 62.044737 
L 378.756 61.192079 
L 382.104 60.333775 
L 384.051064 59.832 
L 385.452 59.469767 
L 388.8 58.6 
" style="fill:none;stroke:#44bf70;stroke-width:1.5;"/>
   </g>
   <g id="LineCollection_9">
    <path clip-path="url(#p23e5088a94)" d="M 54 95.175 
L 57.348 94.610526 
L 60.696 94.043216 
L 64.044 93.473048 
L 66.24878 93.096 
L 67.392 92.9 
L 70.74 92.324051 
L 74.088 91.745178 
L 77.436 91.163359 
L 80.784 90.578571 
L 82.236145 90.324 
L 84.132 89.990793 
L 87.48 89.4 
L 90.828 88.80617 
L 94.176 88.209278 
L 97.524 87.609302 
L 97.842857 87.552 
L 100.872 87.006218 
L 104.22 86.4 
L 107.568 85.790625 
L 110.916 85.178068 
L 111.163675 85.132557 
" style="fill:none;stroke:#7ad151;stroke-width:1.5;"/>
    <path clip-path="url(#p23e5088a94)" d="M 135.226377 80.632069 
L 137.7 80.16 
L 141.048 79.517647 
L 142.510345 79.236 
L 144.396 78.87185 
L 147.744 78.222581 
L 151.092 77.569811 
L 154.44 76.913514 
L 156.722727 76.464 
L 157.788 76.253659 
L 161.136 75.590217 
L 164.484 74.923161 
L 167.832 74.252459 
L 170.61573 73.692 
L 171.18 73.578082 
L 174.528 72.9 
L 177.876 72.218182 
L 181.224 71.532597 
L 184.2 70.92 
L 184.572 70.843213 
L 187.92 70.15 
L 191.268 69.452925 
L 194.616 68.751955 
L 197.485714 68.148 
L 197.964 68.047059 
L 201.312 67.338202 
L 204.66 66.625352 
L 207.782718 65.956712 
" style="fill:none;stroke:#7ad151;stroke-width:1.5;"/>
    <path clip-path="url(#p23e5088a94)" d="M 231.695588 60.718253 
L 234.792 60.024277 
L 235.646809 59.832 
L 238.14 59.269565 
L 241.488 58.510465 
L 244.836 57.746939 
L 247.831579 57.06 
L 248.184 56.978947 
L 251.532 56.206452 
L 254.88 55.429412 
L 258.228 54.647788 
L 259.7625 54.288 
L 261.576 53.861538 
L 264.924 53.070623 
L 268.272 52.275 
L 271.447423 51.516 
L 271.62 51.474627 
L 274.968 50.669461 
L 278.316 49.859459 
L 281.664 49.044578 
L 282.893878 48.744 
L 285.012 48.224773 
L 288.36 47.4 
L 291.708 46.570213 
L 294.109091 45.972 
L 295.056 45.735366 
L 298.404 44.895413 
L 301.752 44.050307 
L 305.1 43.2 
" style="fill:none;stroke:#7ad151;stroke-width:1.5;"/>
   </g>
   <g id="LineCollection_10">
    <path clip-path="url(#p23e5088a94)" d="M 54 66.3 
L 57.348 65.663158 
L 58.852174 65.376 
L 60.696 65.023116 
L 63.08621 64.563873 
" style="fill:none;stroke:#bddf26;stroke-width:1.5;"/>
    <path clip-path="url(#p23e5088a94)" d="M 87.109678 59.858449 
L 87.242553 59.832 
L 87.48 59.784615 
L 90.828 59.114653 
L 94.176 58.441237 
L 97.524 57.764341 
L 100.872 57.083938 
L 100.989474 57.06 
L 104.22 56.4 
L 107.568 55.7125 
L 110.916 55.02141 
L 114.264 54.326702 
L 114.45 54.288 
L 117.612 53.628346 
L 120.96 52.926316 
L 124.308 52.22058 
L 127.63299 51.516 
L 127.656 51.511111 
L 131.004 50.797878 
L 134.352 50.080851 
L 137.7 49.36 
L 140.546939 48.744 
L 141.048 48.635294 
L 144.396 47.906702 
L 147.744 47.174194 
L 151.092 46.437736 
L 153.2 45.972 
L 154.44 45.697297 
L 157.788 44.952846 
L 161.136 44.204348 
L 164.484 43.451771 
L 165.6 43.2 
" style="fill:none;stroke:#bddf26;stroke-width:1.5;"/>
   </g>
   <g id="LineCollection_11"/>
   <g id="patch_3">
    <path d="M 54 320.4 
L 54 43.2 
" style="fill:none;stroke:#000000;stroke-linecap:square;stroke-linejoin:miter;stroke-width:0.8;"/>
   </g>
   <g id="patch_4">
    <path d="M 388.8 320.4 
L 388.8 43.2 
" style="fill:none;stroke:#000000;stroke-linecap:square;stroke-linejoin:miter;stroke-width:0.8;"/>
   </g>
   <g id="patch_5">
    <path d="M 54 320.4 
L 388.8 320.4 
" style="fill:none;stroke:#000000;stroke-linecap:square;stroke-linejoin:miter;stroke-width:0.8;"/>
   </g>
   <g id="patch_6">
    <path d="M 54 43.2 
L 388.8 43.2 
" style="fill:none;stroke:#000000;stroke-linecap:square;stroke-linejoin:miter;stroke-width:0.8;"/>
   </g>
   <g id="text_15">
    <g clip-path="url(#p23e5088a94)">
     <!-- 0.8 -->
     <g style="fill:#ff0000;" transform="translate(111.826878 299.634329)rotate(-1.094648)scale(0.12 -0.12)">
      <use xlink:href="#SimHei-48"/>
      <use x="50" xlink:href="#SimHei-46"/>
      <use x="100" xlink:href="#SimHei-56"/>
     </g>
    </g>
   </g>
   <g id="text_16">
    <g clip-path="url(#p23e5088a94)">
     <!-- 0.8 -->
     <g style="fill:#ff0000;" transform="translate(212.196694 297.583096)rotate(-1.290066)scale(0.12 -0.12)">
      <use xlink:href="#SimHei-48"/>
      <use x="50" xlink:href="#SimHei-46"/>
      <use x="100" xlink:href="#SimHei-56"/>
     </g>
    </g>
   </g>
   <g id="text_17">
    <g clip-path="url(#p23e5088a94)">
     <!-- 0.8 -->
     <g style="fill:#ff0000;" transform="translate(312.307683 295.157803)rotate(-1.542052)scale(0.12 -0.12)">
      <use xlink:href="#SimHei-48"/>
      <use x="50" xlink:href="#SimHei-46"/>
      <use x="100" xlink:href="#SimHei-56"/>
     </g>
    </g>
   </g>
   <g id="text_18">
    <g clip-path="url(#p23e5088a94)">
     <!-- 0.9 -->
     <defs>
      <path d="M 12.5 1.171875 
Q 21.09375 15.625 26.5625 27.34375 
Q 16.796875 25.78125 10.34375 29.875 
Q 3.90625 33.984375 2.53125 41.015625 
Q 1.171875 48.046875 2.734375 53.703125 
Q 4.296875 59.375 7.609375 63.078125 
Q 10.9375 66.796875 15.625 68.359375 
Q 20.3125 69.921875 24.015625 69.921875 
Q 27.734375 69.921875 31.640625 68.359375 
Q 35.546875 66.796875 38.671875 63.671875 
Q 41.796875 60.546875 42.96875 57.21875 
Q 44.140625 53.90625 44.140625 48.625 
Q 44.140625 43.359375 40.234375 35.15625 
Q 36.328125 26.953125 21.09375 1.171875 
z
M 9.765625 50 
Q 10.9375 39.84375 14.640625 36.515625 
Q 18.359375 33.203125 22.65625 33.59375 
Q 26.953125 33.984375 29.484375 35.9375 
Q 32.03125 37.890625 34.375 42.578125 
Q 35.9375 48.4375 35.15625 52.53125 
Q 34.375 56.640625 31.046875 59.375 
Q 27.734375 62.109375 23.828125 62.109375 
Q 21.484375 62.5 17.765625 60.9375 
Q 14.0625 59.375 11.90625 54.6875 
Q 9.765625 50 10.9375 39.84375 
z
" id="SimHei-57"/>
     </defs>
     <g style="fill:#ff0000;" transform="translate(111.55103 269.471804)rotate(-2.460216)scale(0.12 -0.12)">
      <use xlink:href="#SimHei-48"/>
      <use x="50" xlink:href="#SimHei-46"/>
      <use x="100" xlink:href="#SimHei-57"/>
     </g>
    </g>
   </g>
   <g id="text_19">
    <g clip-path="url(#p23e5088a94)">
     <!-- 0.9 -->
     <g style="fill:#ff0000;" transform="translate(211.683659 264.871038)rotate(-2.897464)scale(0.12 -0.12)">
      <use xlink:href="#SimHei-48"/>
      <use x="50" xlink:href="#SimHei-46"/>
      <use x="100" xlink:href="#SimHei-57"/>
     </g>
    </g>
   </g>
   <g id="text_20">
    <g clip-path="url(#p23e5088a94)">
     <!-- 0.9 -->
     <g style="fill:#ff0000;" transform="translate(312.486603 259.378967)rotate(-3.466579)scale(0.12 -0.12)">
      <use xlink:href="#SimHei-48"/>
      <use x="50" xlink:href="#SimHei-46"/>
      <use x="100" xlink:href="#SimHei-57"/>
     </g>
    </g>
   </g>
   <g id="text_21">
    <g clip-path="url(#p23e5088a94)">
     <!-- 1.0 -->
     <g style="fill:#ff0000;" transform="translate(111.15507 239.332001)rotate(-3.820784)scale(0.12 -0.12)">
      <use xlink:href="#SimHei-49"/>
      <use x="50" xlink:href="#SimHei-46"/>
      <use x="100" xlink:href="#SimHei-48"/>
     </g>
    </g>
   </g>
   <g id="text_22">
    <g clip-path="url(#p23e5088a94)">
     <!-- 1.0 -->
     <g style="fill:#ff0000;" transform="translate(211.970721 232.128016)rotate(-4.503376)scale(0.12 -0.12)">
      <use xlink:href="#SimHei-49"/>
      <use x="50" xlink:href="#SimHei-46"/>
      <use x="100" xlink:href="#SimHei-48"/>
     </g>
    </g>
   </g>
   <g id="text_23">
    <g clip-path="url(#p23e5088a94)">
     <!-- 1.0 -->
     <g style="fill:#ff0000;" transform="translate(312.819664 223.577709)rotate(-5.385273)scale(0.12 -0.12)">
      <use xlink:href="#SimHei-49"/>
      <use x="50" xlink:href="#SimHei-46"/>
      <use x="100" xlink:href="#SimHei-48"/>
     </g>
    </g>
   </g>
   <g id="text_24">
    <g clip-path="url(#p23e5088a94)">
     <!-- 1.1 -->
     <g style="fill:#ff0000;" transform="translate(113.13671 209.000111)rotate(-5.194948)scale(0.12 -0.12)">
      <use xlink:href="#SimHei-49"/>
      <use x="50" xlink:href="#SimHei-46"/>
      <use x="100" xlink:href="#SimHei-49"/>
     </g>
    </g>
   </g>
   <g id="text_25">
    <g clip-path="url(#p23e5088a94)">
     <!-- 1.1 -->
     <g style="fill:#ff0000;" transform="translate(212.740565 199.320896)rotate(-6.107988)scale(0.12 -0.12)">
      <use xlink:href="#SimHei-49"/>
      <use x="50" xlink:href="#SimHei-46"/>
      <use x="100" xlink:href="#SimHei-49"/>
     </g>
    </g>
   </g>
   <g id="text_26">
    <g clip-path="url(#p23e5088a94)">
     <!-- 1.1 -->
     <g style="fill:#ff0000;" transform="translate(312.129104 187.886513)rotate(-7.279615)scale(0.12 -0.12)">
      <use xlink:href="#SimHei-49"/>
      <use x="50" xlink:href="#SimHei-46"/>
      <use x="100" xlink:href="#SimHei-49"/>
     </g>
    </g>
   </g>
   <g id="text_27">
    <g clip-path="url(#p23e5088a94)">
     <!-- 1.2 -->
     <g style="fill:#ff0000;" transform="translate(113.148785 178.799283)rotate(-6.550522)scale(0.12 -0.12)">
      <use xlink:href="#SimHei-49"/>
      <use x="50" xlink:href="#SimHei-46"/>
      <use x="100" xlink:href="#SimHei-50"/>
     </g>
    </g>
   </g>
   <g id="text_28">
    <g clip-path="url(#p23e5088a94)">
     <!-- 1.2 -->
     <g style="fill:#ff0000;" transform="translate(212.145771 166.654757)rotate(-7.688115)scale(0.12 -0.12)">
      <use xlink:href="#SimHei-49"/>
      <use x="50" xlink:href="#SimHei-46"/>
      <use x="100" xlink:href="#SimHei-50"/>
     </g>
    </g>
   </g>
   <g id="text_29">
    <g clip-path="url(#p23e5088a94)">
     <!-- 1.2 -->
     <g style="fill:#ff0000;" transform="translate(312.4038 152.091307)rotate(-9.167454)scale(0.12 -0.12)">
      <use xlink:href="#SimHei-49"/>
      <use x="50" xlink:href="#SimHei-46"/>
      <use x="100" xlink:href="#SimHei-50"/>
     </g>
    </g>
   </g>
   <g id="text_30">
    <g clip-path="url(#p23e5088a94)">
     <!-- 1.3 -->
     <defs>
      <path d="M 3.90625 19.140625 
L 10.9375 20.3125 
Q 12.5 15.234375 16.015625 11.90625 
Q 19.53125 8.59375 24.796875 8.78125 
Q 30.078125 8.984375 33.203125 13.078125 
Q 36.328125 17.1875 35.9375 22.453125 
Q 35.546875 27.734375 31.828125 30.65625 
Q 28.125 33.59375 19.921875 34.765625 
L 19.921875 39.84375 
Q 28.125 40.625 31.828125 44.140625 
Q 35.546875 47.65625 35.15625 53.3125 
Q 34.765625 58.984375 30.078125 61.515625 
Q 25.390625 64.0625 20.109375 62.109375 
Q 14.84375 60.15625 11.71875 51.171875 
L 4.6875 52.34375 
Q 7.03125 59.375 11.125 64.0625 
Q 15.234375 68.75 22.265625 69.53125 
Q 29.296875 70.3125 34.5625 67.765625 
Q 39.84375 65.234375 41.984375 59.953125 
Q 44.140625 54.6875 42.578125 48.4375 
Q 41.015625 42.1875 33.59375 37.5 
Q 39.0625 35.15625 41.984375 30.46875 
Q 44.921875 25.78125 43.9375 18.15625 
Q 42.96875 10.546875 37.109375 5.859375 
Q 31.25 1.171875 23.828125 1.359375 
Q 16.40625 1.5625 10.9375 6.046875 
Q 5.46875 10.546875 3.90625 19.140625 
z
" id="SimHei-51"/>
     </defs>
     <g style="fill:#ff0000;" transform="translate(113.039312 148.616343)rotate(-7.89674)scale(0.12 -0.12)">
      <use xlink:href="#SimHei-49"/>
      <use x="50" xlink:href="#SimHei-46"/>
      <use x="100" xlink:href="#SimHei-51"/>
     </g>
    </g>
   </g>
   <g id="text_31">
    <g clip-path="url(#p23e5088a94)">
     <!-- 1.3 -->
     <g style="fill:#ff0000;" transform="translate(213.483577 133.71385)rotate(-9.284635)scale(0.12 -0.12)">
      <use xlink:href="#SimHei-49"/>
      <use x="50" xlink:href="#SimHei-46"/>
      <use x="100" xlink:href="#SimHei-51"/>
     </g>
    </g>
   </g>
   <g id="text_32">
    <g clip-path="url(#p23e5088a94)">
     <!-- 1.3 -->
     <g style="fill:#ff0000;" transform="translate(316.002224 115.64207)rotate(-11.10457)scale(0.12 -0.12)">
      <use xlink:href="#SimHei-49"/>
      <use x="50" xlink:href="#SimHei-46"/>
      <use x="100" xlink:href="#SimHei-51"/>
     </g>
    </g>
   </g>
   <g id="text_33">
    <g clip-path="url(#p23e5088a94)">
     <!-- 1.4 -->
     <g style="fill:#ff0000;" transform="translate(112.810882 118.459416)rotate(-9.231136)scale(0.12 -0.12)">
      <use xlink:href="#SimHei-49"/>
      <use x="50" xlink:href="#SimHei-46"/>
      <use x="100" xlink:href="#SimHei-52"/>
     </g>
    </g>
   </g>
   <g id="text_34">
    <g clip-path="url(#p23e5088a94)">
     <!-- 1.4 -->
     <g style="fill:#ff0000;" transform="translate(212.70824 101.099118)rotate(-10.832038)scale(0.12 -0.12)">
      <use xlink:href="#SimHei-49"/>
      <use x="50" xlink:href="#SimHei-46"/>
      <use x="100" xlink:href="#SimHei-52"/>
     </g>
    </g>
   </g>
   <g id="text_35">
    <g clip-path="url(#p23e5088a94)">
     <!-- 1.4 -->
     <g style="fill:#ff0000;" transform="translate(314.705401 80.062397)rotate(-12.925786)scale(0.12 -0.12)">
      <use xlink:href="#SimHei-49"/>
      <use x="50" xlink:href="#SimHei-46"/>
      <use x="100" xlink:href="#SimHei-52"/>
     </g>
    </g>
   </g>
   <g id="text_36">
    <g clip-path="url(#p23e5088a94)">
     <!-- 1.5 -->
     <defs>
      <path d="M 8.59375 20.703125 
Q 11.328125 10.15625 17.96875 8.984375 
Q 24.609375 7.8125 28.703125 10.34375 
Q 32.8125 12.890625 34.5625 16.984375 
Q 36.328125 21.09375 36.125 26.171875 
Q 35.9375 31.25 33.390625 34.765625 
Q 30.859375 38.28125 26.953125 39.453125 
Q 23.046875 40.625 18.15625 39.453125 
Q 13.28125 38.28125 10.15625 33.984375 
L 3.515625 34.765625 
Q 4.296875 37.109375 10.9375 68.359375 
L 41.796875 68.359375 
L 41.796875 61.328125 
L 16.796875 61.328125 
Q 14.84375 50.78125 12.890625 44.53125 
Q 18.75 47.265625 23.828125 47.0625 
Q 28.90625 46.875 33.59375 44.71875 
Q 38.28125 42.578125 40.421875 38.859375 
Q 42.578125 35.15625 43.546875 31.4375 
Q 44.53125 27.734375 44.328125 23.4375 
Q 44.140625 19.140625 42.578125 14.640625 
Q 41.015625 10.15625 37.890625 7.21875 
Q 34.765625 4.296875 30.265625 2.53125 
Q 25.78125 0.78125 19.921875 1.171875 
Q 14.0625 1.5625 8.78125 5.46875 
Q 3.515625 9.375 1.5625 18.75 
z
" id="SimHei-53"/>
     </defs>
     <g style="fill:#ff0000;" transform="translate(114.972679 87.874744)rotate(-10.593227)scale(0.12 -0.12)">
      <use xlink:href="#SimHei-49"/>
      <use x="50" xlink:href="#SimHei-46"/>
      <use x="100" xlink:href="#SimHei-53"/>
     </g>
    </g>
   </g>
   <g id="text_37">
    <g clip-path="url(#p23e5088a94)">
     <!-- 1.5 -->
     <g style="fill:#ff0000;" transform="translate(211.675366 68.585345)rotate(-12.356512)scale(0.12 -0.12)">
      <use xlink:href="#SimHei-49"/>
      <use x="50" xlink:href="#SimHei-46"/>
      <use x="100" xlink:href="#SimHei-53"/>
     </g>
    </g>
   </g>
   <g id="text_38">
    <g clip-path="url(#p23e5088a94)">
     <!-- 1.6 -->
     <g style="fill:#ff0000;" transform="translate(66.91859 67.273792)rotate(-11.083)scale(0.12 -0.12)">
      <use xlink:href="#SimHei-49"/>
      <use x="50" xlink:href="#SimHei-46"/>
      <use x="100" xlink:href="#SimHei-54"/>
     </g>
    </g>
   </g>
   <g id="text_39">
    <!-- 基本再生数，R0 -->
    <defs>
     <path d="M 28.125 71.09375 
Q 28.125 76.5625 27.734375 81.25 
L 35.9375 81.25 
Q 35.546875 76.171875 35.546875 71.09375 
L 63.671875 71.09375 
Q 63.671875 76.5625 63.28125 81.25 
L 71.484375 81.25 
Q 71.09375 76.171875 71.09375 71.09375 
L 76.953125 71.09375 
Q 81.25 71.09375 87.890625 71.484375 
L 87.890625 65.234375 
Q 81.25 65.625 76.953125 65.625 
L 71.09375 65.625 
L 71.09375 34.765625 
L 79.6875 34.765625 
Q 87.5 34.765625 94.140625 35.15625 
L 94.140625 28.125 
Q 87.890625 28.90625 80.078125 28.90625 
L 70.3125 28.90625 
Q 76.171875 22.65625 81.640625 19.328125 
Q 87.109375 16.015625 95.703125 14.0625 
Q 92.1875 9.765625 91.40625 5.46875 
Q 81.25 10.15625 74.015625 16.203125 
Q 66.796875 22.265625 62.5 28.90625 
L 39.0625 28.90625 
Q 34.375 21.484375 26.75 15.625 
Q 19.140625 9.765625 8.59375 5.46875 
Q 7.421875 8.984375 4.296875 12.890625 
Q 10.9375 14.453125 18.9375 18.9375 
Q 26.953125 23.4375 30.46875 28.90625 
L 20.3125 28.90625 
Q 13.28125 28.90625 6.25 28.125 
L 6.25 35.15625 
Q 13.28125 34.765625 20.3125 34.765625 
L 28.125 34.765625 
L 28.125 65.625 
Q 18.75 65.625 12.109375 65.234375 
L 12.109375 71.484375 
Q 18.75 71.09375 25.390625 71.09375 
z
M 46.09375 14.84375 
Q 46.09375 18.75 45.703125 24.609375 
L 54.296875 24.609375 
Q 53.515625 20.3125 53.515625 14.84375 
L 60.9375 14.84375 
Q 66.40625 14.84375 71.484375 15.234375 
L 71.484375 7.8125 
Q 66.40625 8.59375 60.546875 8.59375 
L 53.515625 8.59375 
L 53.515625 -1.5625 
L 70.3125 -1.5625 
Q 79.296875 -1.5625 86.71875 -1.171875 
L 86.71875 -8.203125 
Q 79.296875 -7.8125 70.3125 -7.8125 
L 28.125 -7.8125 
Q 20.3125 -7.8125 13.28125 -8.203125 
L 13.28125 -1.171875 
Q 19.921875 -1.5625 28.125 -1.5625 
L 46.09375 -1.5625 
L 46.09375 8.59375 
L 39.84375 8.59375 
Q 33.203125 8.59375 27.734375 8.203125 
L 27.734375 15.234375 
Q 33.203125 14.84375 39.0625 14.84375 
z
M 63.671875 34.765625 
L 63.671875 41.40625 
L 35.546875 41.40625 
L 35.546875 34.765625 
z
M 63.671875 58.984375 
L 63.671875 65.625 
L 35.546875 65.625 
L 35.546875 58.984375 
z
M 63.671875 47.265625 
L 63.671875 52.734375 
L 35.546875 52.734375 
L 35.546875 47.265625 
z
" id="SimHei-22522"/>
     <path d="M 46.09375 61.328125 
L 46.09375 69.140625 
Q 46.09375 75.390625 45.703125 80.859375 
L 54.296875 80.859375 
Q 53.90625 76.5625 53.90625 69.53125 
L 53.90625 61.328125 
L 75.78125 61.328125 
Q 82.421875 61.328125 91.40625 61.71875 
L 91.40625 54.296875 
Q 82.8125 54.6875 76.171875 54.6875 
L 60.15625 54.6875 
Q 65.625 36.71875 75.96875 26.359375 
Q 86.328125 16.015625 94.921875 12.5 
Q 91.40625 9.765625 88.28125 5.078125 
Q 75 14.0625 66.59375 25.578125 
Q 58.203125 37.109375 53.90625 52.34375 
L 53.90625 15.625 
L 58.984375 15.625 
Q 65.234375 15.625 71.875 16.015625 
L 71.875 8.59375 
Q 65.234375 8.984375 58.59375 8.984375 
L 53.90625 8.984375 
Q 53.90625 0 54.296875 -9.375 
L 45.703125 -9.375 
Q 46.09375 0 46.09375 8.984375 
L 41.015625 8.984375 
Q 34.765625 8.984375 28.515625 8.59375 
L 28.515625 16.015625 
Q 34.765625 15.625 41.015625 15.625 
L 46.09375 15.625 
L 46.09375 51.5625 
Q 39.84375 35.546875 32.21875 24.609375 
Q 24.609375 13.671875 11.71875 2.734375 
Q 8.59375 7.03125 4.296875 8.984375 
Q 17.1875 16.796875 25.78125 28.515625 
Q 34.375 40.234375 39.453125 54.6875 
L 22.265625 54.6875 
Q 16.015625 54.6875 8.984375 54.296875 
L 8.984375 61.71875 
Q 16.015625 61.328125 21.875 61.328125 
z
" id="SimHei-26412"/>
     <path d="M 62.890625 -1.953125 
Q 68.359375 -2.34375 70.890625 -1.953125 
Q 73.4375 -1.5625 73.4375 2.734375 
L 73.4375 13.671875 
L 26.171875 13.671875 
L 26.171875 -10.15625 
L 17.578125 -10.15625 
Q 18.359375 -3.515625 18.359375 3.125 
L 18.359375 13.671875 
Q 9.375 13.671875 3.515625 13.28125 
L 3.515625 20.703125 
Q 8.984375 19.921875 18.359375 19.921875 
L 18.359375 44.140625 
Q 18.359375 52.734375 17.578125 57.8125 
L 46.09375 57.8125 
L 46.09375 69.921875 
L 24.21875 69.921875 
Q 16.40625 69.921875 9.375 69.53125 
L 9.375 76.953125 
Q 16.40625 76.5625 23.828125 76.5625 
L 75.78125 76.5625 
Q 84.765625 76.5625 90.234375 76.953125 
L 90.234375 69.53125 
Q 84.765625 69.921875 75.78125 69.921875 
L 53.90625 69.921875 
L 53.90625 57.8125 
L 81.640625 57.8125 
Q 81.25 52.734375 81.25 42.96875 
L 81.25 19.921875 
Q 91.015625 19.921875 96.875 20.703125 
L 96.875 13.28125 
Q 91.40625 13.671875 81.25 13.671875 
L 81.25 -2.734375 
Q 81.25 -7.421875 77.34375 -8.59375 
Q 73.4375 -9.765625 66.40625 -10.546875 
Q 65.234375 -6.25 62.890625 -1.953125 
z
M 46.09375 38.671875 
L 46.09375 51.953125 
L 26.171875 51.953125 
L 26.171875 38.671875 
z
M 73.4375 38.671875 
L 73.4375 51.953125 
L 53.90625 51.953125 
L 53.90625 38.671875 
z
M 46.09375 19.921875 
L 46.09375 32.8125 
L 26.171875 32.8125 
L 26.171875 19.921875 
z
M 73.4375 19.921875 
L 73.4375 32.8125 
L 53.90625 32.8125 
L 53.90625 19.921875 
z
" id="SimHei-20877"/>
     <path d="M 29.296875 72.65625 
Q 26.953125 69.921875 25.390625 65.8125 
Q 23.828125 61.71875 22.265625 57.8125 
L 45.703125 57.8125 
L 45.703125 71.484375 
Q 45.703125 76.5625 45.3125 81.25 
L 54.296875 81.25 
Q 53.90625 76.953125 53.90625 71.484375 
L 53.90625 57.8125 
L 71.09375 57.8125 
Q 77.34375 57.8125 85.15625 58.203125 
L 85.15625 50.390625 
Q 77.734375 50.78125 71.09375 50.78125 
L 53.90625 50.78125 
L 53.90625 33.203125 
L 66.015625 33.203125 
Q 71.484375 33.203125 79.296875 33.59375 
L 79.296875 25.78125 
Q 71.875 26.171875 66.015625 26.171875 
L 53.90625 26.171875 
L 53.90625 2.734375 
L 77.34375 2.734375 
Q 83.59375 2.734375 91.796875 3.125 
L 91.796875 -4.296875 
Q 83.984375 -3.90625 77.34375 -3.90625 
L 21.09375 -3.90625 
Q 14.453125 -3.90625 7.421875 -4.296875 
L 7.421875 3.125 
Q 14.84375 2.734375 21.09375 2.734375 
L 45.703125 2.734375 
L 45.703125 26.171875 
L 31.25 26.171875 
Q 25.78125 26.171875 19.921875 25.78125 
L 19.921875 33.59375 
Q 25.78125 33.203125 31.25 33.203125 
L 45.703125 33.203125 
L 45.703125 50.78125 
L 19.53125 50.78125 
Q 16.015625 42.578125 12.5 36.71875 
Q 8.203125 38.671875 3.125 39.453125 
Q 7.421875 44.140625 12.296875 54.484375 
Q 17.1875 64.84375 19.140625 76.5625 
L 29.296875 72.65625 
z
" id="SimHei-29983"/>
     <path d="M 13.671875 14.84375 
L 27.734375 14.84375 
L 27.734375 -0.78125 
Q 26.5625 -10.546875 17.96875 -15.234375 
L 14.0625 -11.71875 
Q 21.09375 -7.8125 21.09375 0 
L 13.671875 0 
z
" id="SimHei-65292"/>
     <path d="M 46.875 1.953125 
L 37.5 1.953125 
L 23.4375 30.859375 
L 13.28125 30.859375 
L 13.28125 1.953125 
L 4.296875 1.953125 
L 4.296875 68.75 
L 23.828125 68.75 
Q 33.203125 68.75 39.0625 64.25 
Q 44.921875 59.765625 44.921875 49.609375 
Q 44.921875 41.796875 41.015625 37.5 
Q 37.109375 33.203125 32.03125 32.03125 
z
M 35.9375 49.609375 
Q 35.9375 55.078125 32.609375 58.203125 
Q 29.296875 61.328125 21.875 61.328125 
L 13.28125 61.328125 
L 13.28125 38.28125 
L 24.21875 38.28125 
Q 28.90625 38.28125 32.421875 40.8125 
Q 35.9375 43.359375 35.9375 49.609375 
z
" id="SimHei-82"/>
    </defs>
    <g transform="translate(179.4 37.2)scale(0.12 -0.12)">
     <use xlink:href="#SimHei-22522"/>
     <use x="100" xlink:href="#SimHei-26412"/>
     <use x="200" xlink:href="#SimHei-20877"/>
     <use x="300" xlink:href="#SimHei-29983"/>
     <use x="400" xlink:href="#SimHei-25968"/>
     <use x="500" xlink:href="#SimHei-65292"/>
     <use x="600" xlink:href="#SimHei-82"/>
     <use x="650" xlink:href="#SimHei-48"/>
    </g>
   </g>
  </g>
 </g>
 <defs>
  <clipPath id="p23e5088a94">
   <rect height="277.2" width="334.8" x="54" y="43.2"/>
  </clipPath>
 </defs>
</svg>
