<?xml version="1.0" encoding="utf-8" standalone="no"?>
<!DOCTYPE svg PUBLIC "-//W3C//DTD SVG 1.1//EN"
  "http://www.w3.org/Graphics/SVG/1.1/DTD/svg11.dtd">
<!-- Created with matplotlib (https://matplotlib.org/) -->
<svg height="360pt" version="1.1" viewBox="0 0 432 360" width="432pt" xmlns="http://www.w3.org/2000/svg" xmlns:xlink="http://www.w3.org/1999/xlink">
 <defs>
  <style type="text/css">
*{stroke-linecap:butt;stroke-linejoin:round;}
  </style>
 </defs>
 <g id="figure_1">
  <g id="patch_1">
   <path d="M 0 360 
L 432 360 
L 432 0 
L 0 0 
z
" style="fill:#ffffff;"/>
  </g>
  <g id="axes_1">
   <g id="patch_2">
    <path d="M 54 320.4 
L 388.8 320.4 
L 388.8 43.2 
L 54 43.2 
z
" style="fill:#ffffff;"/>
   </g>
   <g id="matplotlib.axis_1">
    <g id="xtick_1">
     <g id="line2d_1">
      <defs>
       <path d="M 0 0 
L 0 3.5 
" id="m6e7ad7c4f7" style="stroke:#000000;stroke-width:0.8;"/>
      </defs>
      <g>
       <use style="stroke:#000000;stroke-width:0.8;" x="54" xlink:href="#m6e7ad7c4f7" y="320.4"/>
      </g>
     </g>
     <g id="text_1">
      <!-- 0.0 -->
      <defs>
       <path d="M 3.125 29.296875 
Q 3.90625 50 6.4375 56.046875 
Q 8.984375 62.109375 13.671875 66.015625 
Q 18.359375 69.921875 25.1875 69.921875 
Q 32.03125 69.921875 37.109375 64.25 
Q 42.1875 58.59375 43.75 50 
Q 45.3125 41.40625 44.71875 30.265625 
Q 44.140625 19.140625 40.8125 12.109375 
Q 37.5 5.078125 30.859375 2.34375 
Q 24.21875 -0.390625 17.578125 2.921875 
Q 10.9375 6.25 8.203125 11.71875 
Q 5.46875 17.1875 4.296875 23.234375 
Q 3.125 29.296875 3.90625 50 
z
M 12.890625 52.734375 
Q 10.546875 31.25 12.5 22.84375 
Q 14.453125 14.453125 18.9375 10.9375 
Q 23.4375 7.421875 28.125 9.5625 
Q 32.8125 11.71875 34.953125 18.15625 
Q 37.109375 24.609375 37.109375 32.21875 
Q 37.109375 39.84375 36.515625 46.09375 
Q 35.9375 52.34375 33 57.421875 
Q 30.078125 62.5 25.1875 62.6875 
Q 20.3125 62.890625 16.59375 57.8125 
Q 12.890625 52.734375 10.546875 31.25 
z
" id="SimHei-48"/>
       <path d="M 16.796875 1.953125 
L 7.8125 1.953125 
L 7.8125 10.546875 
L 16.796875 10.546875 
z
" id="SimHei-46"/>
      </defs>
      <g transform="translate(46.5 334.275)scale(0.1 -0.1)">
       <use xlink:href="#SimHei-48"/>
       <use x="50" xlink:href="#SimHei-46"/>
       <use x="100" xlink:href="#SimHei-48"/>
      </g>
     </g>
    </g>
    <g id="xtick_2">
     <g id="line2d_2">
      <g>
       <use style="stroke:#000000;stroke-width:0.8;" x="120.96" xlink:href="#m6e7ad7c4f7" y="320.4"/>
      </g>
     </g>
     <g id="text_2">
      <!-- 0.2 -->
      <defs>
       <path d="M 4.6875 3.90625 
Q 5.078125 9.765625 10.15625 14.453125 
Q 15.234375 19.140625 23.046875 29.09375 
Q 30.859375 39.0625 33.203125 44.53125 
Q 35.546875 50 34.953125 53.90625 
Q 34.375 57.8125 31.25 60.34375 
Q 28.125 62.890625 24.015625 62.5 
Q 19.921875 62.109375 16.203125 59.375 
Q 12.5 56.640625 10.546875 51.171875 
L 3.125 52.34375 
Q 6.25 61.328125 11.125 65.421875 
Q 16.015625 69.53125 22.65625 69.921875 
Q 26.5625 70.3125 29.6875 69.71875 
Q 32.8125 69.140625 36.125 66.984375 
Q 39.453125 64.84375 41.59375 60.546875 
Q 43.75 56.25 43.15625 50.1875 
Q 42.578125 44.140625 37.109375 35.734375 
Q 31.640625 27.34375 16.015625 9.375 
L 44.140625 9.375 
L 44.140625 2.34375 
L 4.6875 2.34375 
z
" id="SimHei-50"/>
      </defs>
      <g transform="translate(113.46 334.275)scale(0.1 -0.1)">
       <use xlink:href="#SimHei-48"/>
       <use x="50" xlink:href="#SimHei-46"/>
       <use x="100" xlink:href="#SimHei-50"/>
      </g>
     </g>
    </g>
    <g id="xtick_3">
     <g id="line2d_3">
      <g>
       <use style="stroke:#000000;stroke-width:0.8;" x="187.92" xlink:href="#m6e7ad7c4f7" y="320.4"/>
      </g>
     </g>
     <g id="text_3">
      <!-- 0.4 -->
      <defs>
       <path d="M 31.25 17.1875 
L 1.171875 17.1875 
L 1.171875 23.828125 
L 32.8125 69.53125 
L 38.671875 69.53125 
L 38.671875 23.828125 
L 48.046875 23.828125 
L 48.046875 17.1875 
L 38.671875 17.1875 
L 38.671875 2.34375 
L 31.25 2.34375 
z
M 31.25 23.828125 
L 31.25 54.6875 
L 9.375 23.828125 
z
" id="SimHei-52"/>
      </defs>
      <g transform="translate(180.42 334.275)scale(0.1 -0.1)">
       <use xlink:href="#SimHei-48"/>
       <use x="50" xlink:href="#SimHei-46"/>
       <use x="100" xlink:href="#SimHei-52"/>
      </g>
     </g>
    </g>
    <g id="xtick_4">
     <g id="line2d_4">
      <g>
       <use style="stroke:#000000;stroke-width:0.8;" x="254.88" xlink:href="#m6e7ad7c4f7" y="320.4"/>
      </g>
     </g>
     <g id="text_4">
      <!-- 0.6 -->
      <defs>
       <path d="M 3.515625 19.53125 
Q 4.296875 30.859375 6.046875 34.765625 
Q 7.8125 38.671875 11.328125 44.53125 
L 27.34375 69.53125 
L 36.328125 69.53125 
L 19.921875 43.75 
Q 30.46875 46.484375 36.71875 42.96875 
Q 42.96875 39.453125 45.109375 34.953125 
Q 47.265625 30.46875 47.453125 25.1875 
Q 47.65625 19.921875 45.890625 14.84375 
Q 44.140625 9.765625 39.640625 5.65625 
Q 35.15625 1.5625 27.140625 1.171875 
Q 19.140625 0.78125 13.46875 4.09375 
Q 7.8125 7.421875 5.65625 13.46875 
Q 3.515625 19.53125 4.296875 30.859375 
z
M 12.5 16.015625 
Q 19.53125 8.59375 25.390625 8.203125 
Q 31.25 7.8125 35.15625 12.109375 
Q 39.0625 16.40625 39.0625 24.609375 
Q 39.0625 32.8125 34.171875 35.9375 
Q 29.296875 39.0625 23.234375 38.28125 
Q 17.1875 37.5 14.453125 32.421875 
Q 11.71875 27.34375 12.109375 21.671875 
Q 12.5 16.015625 19.53125 8.59375 
z
" id="SimHei-54"/>
      </defs>
      <g transform="translate(247.38 334.275)scale(0.1 -0.1)">
       <use xlink:href="#SimHei-48"/>
       <use x="50" xlink:href="#SimHei-46"/>
       <use x="100" xlink:href="#SimHei-54"/>
      </g>
     </g>
    </g>
    <g id="xtick_5">
     <g id="line2d_5">
      <g>
       <use style="stroke:#000000;stroke-width:0.8;" x="321.84" xlink:href="#m6e7ad7c4f7" y="320.4"/>
      </g>
     </g>
     <g id="text_5">
      <!-- 0.8 -->
      <defs>
       <path d="M 2.734375 16.796875 
Q 2.734375 26.171875 5.078125 30.65625 
Q 7.421875 35.15625 12.890625 37.890625 
Q 8.203125 40.625 6.640625 43.9375 
Q 5.078125 47.265625 4.875 51.5625 
Q 4.6875 55.859375 6.046875 58.984375 
Q 7.421875 62.109375 10.15625 64.84375 
Q 12.890625 67.578125 16.203125 68.546875 
Q 19.53125 69.53125 23.4375 69.53125 
Q 27.34375 69.53125 30.46875 68.75 
Q 33.59375 67.96875 37.109375 65.421875 
Q 40.625 62.890625 42.1875 58.203125 
Q 43.75 53.515625 41.984375 47.265625 
Q 40.234375 41.015625 32.8125 37.5 
Q 39.453125 35.546875 42.1875 31.4375 
Q 44.921875 27.34375 44.921875 21.484375 
Q 44.921875 15.625 43.15625 12.109375 
Q 41.40625 8.59375 39.25 6.25 
Q 37.109375 3.90625 33.390625 2.53125 
Q 29.6875 1.171875 24.015625 1.171875 
Q 18.359375 1.171875 14.25 2.53125 
Q 10.15625 3.90625 7.421875 6.640625 
Q 4.6875 9.375 3.703125 13.078125 
Q 2.734375 16.796875 2.734375 26.171875 
z
M 10.9375 26.5625 
Q 10.546875 17.1875 12.296875 13.671875 
Q 14.0625 10.15625 18.75 9.171875 
Q 23.4375 8.203125 28.515625 9.375 
Q 33.59375 10.546875 35.546875 14.84375 
Q 37.5 19.140625 36.90625 23.4375 
Q 36.328125 27.734375 32.03125 30.65625 
Q 27.734375 33.59375 22.65625 33.203125 
Q 17.578125 32.8125 14.25 29.6875 
Q 10.9375 26.5625 10.546875 17.1875 
z
M 12.109375 56.25 
Q 12.109375 48.4375 14.84375 44.921875 
Q 17.578125 41.40625 23.4375 41.40625 
Q 29.296875 41.40625 32.21875 44.921875 
Q 35.15625 48.4375 34.953125 53.3125 
Q 34.765625 58.203125 31.4375 60.546875 
Q 28.125 62.890625 22.453125 62.5 
Q 16.796875 62.109375 14.453125 59.171875 
Q 12.109375 56.25 12.109375 48.4375 
z
" id="SimHei-56"/>
      </defs>
      <g transform="translate(314.34 334.275)scale(0.1 -0.1)">
       <use xlink:href="#SimHei-48"/>
       <use x="50" xlink:href="#SimHei-46"/>
       <use x="100" xlink:href="#SimHei-56"/>
      </g>
     </g>
    </g>
    <g id="xtick_6">
     <g id="line2d_6">
      <g>
       <use style="stroke:#000000;stroke-width:0.8;" x="388.8" xlink:href="#m6e7ad7c4f7" y="320.4"/>
      </g>
     </g>
     <g id="text_6">
      <!-- 1.0 -->
      <defs>
       <path d="M 21.875 56.25 
Q 16.796875 51.171875 8.984375 46.484375 
L 8.984375 53.90625 
Q 18.75 60.546875 25 69.53125 
L 29.6875 69.53125 
L 29.6875 2.34375 
L 21.875 2.34375 
z
" id="SimHei-49"/>
      </defs>
      <g transform="translate(381.3 334.275)scale(0.1 -0.1)">
       <use xlink:href="#SimHei-49"/>
       <use x="50" xlink:href="#SimHei-46"/>
       <use x="100" xlink:href="#SimHei-48"/>
      </g>
     </g>
    </g>
    <g id="text_7">
     <!-- 接种后出现症状的概率降低系数（l） -->
     <defs>
      <path d="M 66.015625 35.546875 
Q 64.84375 34.375 62.5 29.6875 
L 87.5 29.6875 
Q 94.53125 30.078125 96.09375 30.078125 
L 96.09375 23.046875 
Q 93.359375 23.4375 88.28125 23.4375 
L 81.640625 23.4375 
Q 78.125 14.453125 73.4375 7.8125 
Q 85.546875 1.953125 94.53125 -2.734375 
Q 93.359375 -3.90625 88.671875 -9.765625 
Q 82.421875 -5.078125 68.359375 2.34375 
Q 62.890625 -2.34375 55.65625 -5.265625 
Q 48.4375 -8.203125 38.28125 -10.15625 
Q 37.890625 -7.03125 34.765625 -3.125 
Q 41.015625 -2.34375 48.046875 -0.578125 
Q 55.078125 1.171875 61.328125 5.46875 
Q 57.8125 7.03125 44.921875 12.5 
Q 47.265625 16.015625 51.171875 23.4375 
L 44.921875 23.4375 
Q 38.671875 23.4375 35.9375 23.046875 
L 35.9375 30.46875 
Q 37.890625 30.078125 44.53125 29.6875 
L 53.90625 29.6875 
Q 56.640625 36.328125 57.03125 39.0625 
Q 63.671875 36.328125 66.015625 35.546875 
z
M 18.359375 61.71875 
L 18.359375 73.4375 
Q 18.359375 75.78125 17.578125 80.078125 
L 26.171875 80.078125 
Q 25.390625 75.78125 25.390625 73.4375 
L 25.390625 61.71875 
Q 29.296875 61.71875 35.15625 62.109375 
L 35.15625 54.6875 
Q 29.296875 55.078125 25.390625 55.078125 
L 25.390625 36.71875 
Q 27.34375 37.890625 34.375 41.015625 
Q 34.375 35.9375 34.765625 33.59375 
Q 27.734375 30.46875 25.390625 29.296875 
L 25.390625 1.171875 
Q 25.390625 -4.296875 22.265625 -6.640625 
Q 19.140625 -8.984375 10.15625 -9.765625 
Q 10.15625 -7.03125 7.03125 -0.390625 
Q 14.84375 -1.5625 16.40625 -0.390625 
Q 17.96875 0.78125 18.359375 4.296875 
L 18.359375 26.5625 
Q 15.234375 25.390625 7.03125 20.703125 
Q 5.078125 26.5625 3.515625 29.296875 
Q 13.28125 31.640625 18.359375 33.984375 
L 18.359375 55.078125 
L 15.625 55.078125 
Q 10.15625 55.078125 4.6875 54.6875 
L 4.6875 62.5 
Q 10.546875 61.71875 15.625 61.71875 
z
M 74.609375 64.0625 
Q 81.25 60.546875 83.59375 59.765625 
Q 81.25 57.8125 76.953125 46.09375 
L 84.765625 46.09375 
Q 91.015625 46.484375 92.96875 46.875 
L 92.96875 39.453125 
Q 90.234375 39.84375 85.546875 39.84375 
L 47.265625 39.84375 
Q 44.53125 39.84375 38.28125 39.453125 
L 38.28125 46.875 
Q 44.140625 46.484375 46.484375 46.09375 
L 69.53125 46.09375 
Q 73.4375 56.640625 74.609375 64.0625 
z
M 61.71875 71.484375 
Q 60.15625 78.125 58.984375 80.46875 
Q 64.453125 81.640625 67.1875 82.421875 
L 70.3125 71.484375 
L 83.59375 71.484375 
Q 89.0625 71.875 92.96875 71.875 
L 92.96875 64.84375 
Q 88.671875 65.234375 83.984375 65.234375 
L 49.609375 65.234375 
Q 43.359375 65.234375 39.0625 64.84375 
L 39.0625 71.875 
Q 42.96875 71.484375 48.4375 71.484375 
z
M 54.296875 15.625 
Q 63.28125 12.5 67.1875 10.15625 
Q 72.265625 17.578125 74.21875 23.4375 
L 59.375 23.4375 
Q 55.859375 18.359375 54.296875 15.625 
z
M 53.515625 61.71875 
Q 58.203125 53.90625 60.15625 50 
Q 53.90625 48.046875 52.34375 46.875 
Q 49.21875 54.296875 46.484375 57.8125 
Q 50.78125 59.765625 53.515625 61.71875 
z
" id="SimHei-25509"/>
      <path d="M 66.015625 62.5 
Q 66.015625 77.734375 65.625 82.421875 
L 73.828125 82.421875 
Q 73.4375 78.125 73.4375 62.5 
L 93.75 62.5 
Q 93.359375 58.203125 93.359375 50.78125 
L 93.359375 24.21875 
Q 93.359375 19.921875 93.75 14.453125 
L 85.9375 14.453125 
L 85.9375 22.265625 
L 73.4375 22.265625 
L 73.4375 5.859375 
Q 73.4375 -4.296875 73.828125 -10.9375 
L 65.625 -10.9375 
Q 66.015625 -4.296875 66.015625 5.859375 
L 66.015625 22.265625 
L 53.515625 22.265625 
L 53.515625 12.890625 
L 45.703125 12.890625 
Q 46.09375 17.578125 46.09375 23.4375 
L 46.09375 50 
Q 46.09375 58.203125 45.703125 62.5 
L 66.015625 62.5 
z
M 5.46875 50.78125 
Q 11.328125 50.390625 19.140625 50.390625 
L 22.265625 50.390625 
L 22.265625 67.578125 
Q 18.359375 66.40625 8.984375 64.453125 
Q 7.421875 67.96875 5.46875 71.484375 
Q 14.0625 71.875 22.0625 74.015625 
Q 30.078125 76.171875 36.71875 79.6875 
Q 39.0625 76.5625 42.578125 72.265625 
Q 38.671875 71.875 35.9375 71.09375 
Q 33.203125 70.3125 29.6875 69.53125 
L 29.6875 50.390625 
Q 34.765625 50.390625 42.1875 50.78125 
L 42.1875 43.75 
Q 34.765625 44.140625 29.6875 44.140625 
L 29.6875 3.515625 
Q 29.6875 -1.953125 30.078125 -10.15625 
L 21.875 -10.15625 
Q 22.265625 -1.953125 22.265625 3.515625 
L 22.265625 29.296875 
Q 19.140625 21.484375 16.59375 16.796875 
Q 14.0625 12.109375 9.765625 5.46875 
Q 6.640625 9.765625 3.90625 13.28125 
Q 9.375 19.140625 13.859375 26.953125 
Q 18.359375 34.765625 20.3125 44.140625 
L 14.453125 44.140625 
Q 8.984375 44.140625 5.46875 43.75 
z
M 66.015625 28.515625 
L 66.015625 56.25 
L 53.515625 56.25 
L 53.515625 28.515625 
z
M 85.9375 28.515625 
L 85.9375 56.25 
L 73.4375 56.25 
L 73.4375 28.515625 
z
M 37.109375 38.671875 
Q 38.28125 35.9375 40.234375 33.203125 
Q 42.1875 30.46875 44.53125 25.390625 
Q 41.015625 23.828125 37.890625 21.484375 
Q 35.9375 25.78125 34.5625 28.703125 
Q 33.203125 31.640625 30.859375 34.765625 
Q 33.203125 36.328125 37.109375 38.671875 
z
" id="SimHei-31181"/>
      <path d="M 85.546875 33.59375 
Q 85.15625 27.34375 85.15625 12.109375 
Q 85.15625 -2.734375 85.9375 -8.59375 
L 77.734375 -8.59375 
L 77.734375 -0.390625 
L 39.453125 -0.390625 
L 39.453125 -9.375 
L 31.640625 -9.375 
Q 32.03125 -2.734375 32.03125 12.109375 
Q 32.03125 27.34375 31.640625 33.59375 
L 85.546875 33.59375 
z
M 80.859375 79.296875 
Q 82.8125 75 86.328125 70.703125 
Q 77.34375 69.921875 58.59375 67.765625 
Q 39.84375 65.625 24.609375 65.234375 
L 24.609375 52.734375 
L 81.25 52.734375 
Q 86.71875 52.734375 93.359375 53.125 
L 93.359375 45.3125 
Q 87.109375 45.703125 81.25 45.703125 
L 24.609375 45.703125 
Q 24.21875 37.890625 23.234375 29.296875 
Q 22.265625 20.703125 19.53125 11.125 
Q 16.796875 1.5625 12.5 -5.078125 
Q 10.15625 -3.125 3.515625 -0.78125 
Q 9.765625 5.078125 12.890625 16.59375 
Q 16.015625 28.125 16.40625 44.140625 
Q 16.796875 60.15625 16.796875 71.484375 
Q 35.9375 71.875 56.640625 74.609375 
Q 77.34375 77.34375 80.859375 79.296875 
z
M 77.734375 5.859375 
L 77.734375 26.953125 
L 39.453125 26.953125 
L 39.453125 5.859375 
z
" id="SimHei-21518"/>
      <path d="M 23.046875 71.09375 
Q 22.65625 66.015625 22.65625 61.71875 
L 22.65625 46.09375 
L 45.703125 46.09375 
L 45.703125 69.140625 
Q 45.703125 74.609375 45.3125 80.078125 
L 53.515625 80.078125 
Q 53.125 75.390625 53.125 69.140625 
L 53.125 46.09375 
L 76.5625 46.09375 
L 76.5625 60.546875 
Q 76.5625 66.796875 76.171875 70.703125 
L 84.375 70.703125 
Q 83.984375 66.796875 83.984375 60.15625 
L 83.984375 49.609375 
Q 83.984375 43.359375 84.375 39.453125 
L 53.125 39.453125 
L 53.125 3.515625 
L 80.078125 3.515625 
L 80.078125 19.921875 
Q 80.078125 25.78125 79.6875 30.078125 
L 87.890625 30.078125 
Q 87.5 25.78125 87.5 20.3125 
L 87.5 2.734375 
Q 87.5 -5.078125 87.890625 -10.15625 
L 80.078125 -10.15625 
L 80.078125 -3.125 
L 10.546875 -3.125 
Q 10.9375 1.5625 10.9375 8.203125 
L 10.9375 19.921875 
Q 10.9375 26.5625 10.546875 30.46875 
L 18.75 30.46875 
Q 18.359375 26.5625 18.359375 19.921875 
L 18.359375 3.515625 
L 45.703125 3.515625 
L 45.703125 39.453125 
L 14.84375 39.453125 
Q 15.234375 43.359375 15.234375 49.21875 
L 15.234375 61.328125 
Q 15.234375 66.40625 14.84375 71.09375 
L 23.046875 71.09375 
z
" id="SimHei-20986"/>
      <path d="M 72.65625 60.15625 
Q 71.09375 55.859375 70.5 46.484375 
Q 69.921875 37.109375 67.96875 26.5625 
L 75.78125 26.5625 
Q 75.390625 22.65625 75.390625 16.015625 
L 75.390625 3.515625 
Q 75.390625 -2.34375 77.53125 -2.734375 
Q 79.6875 -3.125 82.421875 -2.921875 
Q 85.15625 -2.734375 86.328125 -0.1875 
Q 87.5 2.34375 87.890625 8.984375 
Q 91.796875 6.640625 96.484375 5.859375 
Q 94.53125 -2.34375 92.578125 -5.265625 
Q 90.625 -8.203125 84.375 -8.984375 
L 76.5625 -8.984375 
Q 67.96875 -8.984375 67.96875 -1.5625 
L 67.96875 25.78125 
Q 64.453125 13.28125 57.8125 4.875 
Q 51.171875 -3.515625 37.890625 -10.546875 
Q 35.9375 -7.421875 31.25 -5.078125 
Q 43.75 0 49.609375 6.046875 
Q 55.46875 12.109375 58.984375 21.484375 
Q 62.5 30.859375 63.078125 41.015625 
Q 63.671875 51.171875 63.28125 61.328125 
Q 68.359375 60.546875 72.65625 60.15625 
z
M 28.90625 72.265625 
Q 33.203125 72.265625 39.453125 72.65625 
L 39.453125 65.234375 
Q 33.203125 65.625 26.171875 65.625 
L 26.171875 44.140625 
Q 31.640625 44.140625 37.890625 44.53125 
L 37.890625 37.109375 
Q 31.640625 37.5 26.171875 37.5 
L 26.171875 13.671875 
Q 32.8125 15.234375 39.84375 17.578125 
Q 39.453125 13.28125 39.453125 10.15625 
Q 26.5625 7.03125 18.75 4.296875 
Q 10.9375 1.5625 7.03125 -0.390625 
Q 5.859375 5.078125 3.90625 8.984375 
Q 10.15625 9.765625 19.140625 11.71875 
L 19.140625 37.5 
Q 12.890625 37.5 7.03125 37.109375 
L 7.03125 44.53125 
Q 12.890625 44.140625 19.140625 44.140625 
L 19.140625 65.625 
Q 12.109375 65.625 6.640625 65.234375 
L 6.640625 72.65625 
Q 11.328125 72.265625 15.625 72.265625 
z
M 89.84375 76.171875 
Q 89.453125 69.921875 89.453125 63.671875 
L 89.453125 37.5 
Q 89.453125 30.078125 89.84375 24.609375 
L 82.421875 24.609375 
L 82.421875 69.921875 
L 52.734375 69.921875 
L 52.734375 24.21875 
L 45.3125 24.21875 
Q 45.703125 30.859375 45.703125 39.0625 
L 45.703125 60.546875 
Q 45.703125 69.140625 45.3125 76.171875 
L 89.84375 76.171875 
z
" id="SimHei-29616"/>
      <path d="M 77.734375 52.734375 
Q 85.15625 52.734375 93.359375 53.125 
L 93.359375 46.09375 
Q 85.546875 46.484375 77.734375 46.484375 
L 68.359375 46.484375 
L 68.359375 30.078125 
L 77.734375 30.078125 
Q 82.8125 30.078125 91.015625 30.46875 
L 91.015625 23.046875 
Q 83.203125 23.4375 77.734375 23.4375 
L 68.359375 23.4375 
L 68.359375 1.5625 
L 79.6875 1.5625 
Q 86.71875 1.5625 95.703125 1.953125 
L 95.703125 -5.078125 
Q 86.328125 -4.6875 80.078125 -4.6875 
L 44.53125 -4.6875 
Q 37.109375 -4.6875 28.125 -5.078125 
L 28.125 1.953125 
Q 33.59375 1.5625 40.234375 1.5625 
L 40.234375 22.65625 
Q 40.234375 26.953125 39.84375 34.375 
L 48.046875 34.375 
Q 47.65625 28.125 47.65625 22.65625 
L 47.65625 1.5625 
L 60.15625 1.5625 
L 60.15625 46.484375 
L 49.21875 46.484375 
Q 42.578125 46.484375 35.15625 46.09375 
L 35.15625 53.125 
Q 42.578125 52.734375 49.21875 52.734375 
z
M 60.9375 82.421875 
Q 62.5 76.171875 64.453125 69.921875 
L 79.296875 69.921875 
Q 85.546875 69.921875 95.3125 70.3125 
L 95.3125 62.890625 
Q 85.546875 63.28125 79.296875 63.28125 
L 28.90625 63.28125 
L 28.90625 46.09375 
Q 28.90625 36.328125 28.515625 25.96875 
Q 28.125 15.625 25.78125 7.609375 
Q 23.4375 -0.390625 16.796875 -10.9375 
Q 13.671875 -8.59375 8.59375 -6.25 
Q 13.28125 -1.953125 16.40625 4.09375 
Q 19.53125 10.15625 20.5 16.59375 
Q 21.484375 23.046875 21.484375 27.734375 
Q 15.625 23.828125 8.203125 18.75 
Q 6.25 22.65625 3.90625 26.953125 
Q 7.421875 28.125 21.484375 34.375 
L 21.484375 53.90625 
Q 21.484375 62.5 21.09375 69.921875 
L 54.6875 69.921875 
Q 53.515625 75.78125 51.953125 80.46875 
Q 56.25 81.25 60.9375 82.421875 
z
M 8.59375 61.328125 
Q 14.453125 55.078125 20.3125 48.046875 
Q 17.96875 46.484375 14.453125 42.96875 
Q 9.375 50 3.515625 56.25 
Q 6.640625 58.984375 8.59375 61.328125 
z
" id="SimHei-30151"/>
      <path d="M 34.765625 -4.296875 
Q 41.796875 0.390625 46.484375 7.421875 
Q 51.171875 14.453125 53.90625 21.09375 
Q 56.640625 27.734375 57.8125 33.984375 
Q 58.984375 40.234375 59.375 44.921875 
L 50.390625 44.921875 
Q 44.53125 44.921875 39.0625 44.53125 
L 39.0625 51.953125 
Q 44.53125 51.5625 50 51.5625 
L 59.765625 51.5625 
Q 59.765625 62.109375 59.5625 68.359375 
Q 59.375 74.609375 58.984375 79.296875 
L 69.140625 79.296875 
Q 67.96875 74.21875 67.765625 68.9375 
Q 67.578125 63.671875 67.578125 51.5625 
L 83.59375 51.5625 
Q 87.890625 51.5625 93.359375 51.953125 
L 93.359375 44.53125 
Q 87.890625 44.921875 83.59375 44.921875 
L 68.359375 44.921875 
Q 73.046875 22.65625 78.3125 15.03125 
Q 83.59375 7.421875 87.890625 4.09375 
Q 92.1875 0.78125 95.703125 -1.171875 
Q 90.234375 -3.515625 87.890625 -8.203125 
Q 81.640625 -3.125 77.921875 1.75 
Q 74.21875 6.640625 71.671875 11.328125 
Q 69.140625 16.015625 67.375 20.890625 
Q 65.625 25.78125 64.453125 31.25 
Q 62.5 21.875 59.5625 15.234375 
Q 56.640625 8.59375 53.515625 3.703125 
Q 50.390625 -1.171875 42.96875 -9.765625 
Q 39.453125 -6.25 34.765625 -4.296875 
z
M 34.765625 81.25 
Q 34.375 75.390625 34.375 66.40625 
L 34.375 12.109375 
Q 34.375 0.78125 34.765625 -9.765625 
L 26.171875 -9.765625 
Q 26.5625 1.171875 26.5625 12.109375 
L 26.5625 30.46875 
Q 23.828125 27.34375 18.75 21.09375 
Q 13.671875 14.84375 10.9375 11.71875 
Q 7.8125 15.625 4.296875 17.96875 
Q 8.984375 21.484375 14.25 26.75 
Q 19.53125 32.03125 26.5625 40.625 
L 26.5625 66.40625 
Q 26.5625 75.390625 26.171875 81.25 
L 34.765625 81.25 
z
M 9.765625 67.578125 
Q 12.5 64.453125 15.625 60.546875 
Q 18.75 56.640625 21.484375 52.734375 
Q 18.359375 50.390625 16.40625 48.046875 
Q 13.28125 52.34375 3.90625 63.28125 
Q 6.25 65.234375 9.765625 67.578125 
z
M 85.546875 57.03125 
Q 82.03125 62.109375 73.4375 69.921875 
Q 76.5625 72.265625 78.515625 74.21875 
Q 82.03125 71.484375 84.765625 68.546875 
Q 87.5 65.625 91.015625 62.109375 
Q 87.890625 59.375 85.546875 57.03125 
z
" id="SimHei-29366"/>
      <path d="M 32.8125 77.734375 
Q 30.859375 74.21875 27.34375 61.71875 
L 44.921875 61.71875 
Q 44.53125 55.078125 44.53125 44.921875 
L 44.53125 10.546875 
Q 44.53125 4.6875 44.921875 -6.25 
L 37.109375 -6.25 
L 37.109375 1.5625 
L 17.1875 1.5625 
L 17.1875 -7.03125 
L 9.375 -7.03125 
Q 9.765625 5.46875 9.765625 8.59375 
L 9.765625 44.53125 
Q 9.765625 55.078125 9.375 61.71875 
L 20.703125 61.71875 
Q 22.65625 70.703125 23.828125 80.46875 
Q 29.296875 78.515625 32.8125 77.734375 
z
M 91.015625 48.046875 
Q 90.625 24.21875 89.0625 2.734375 
Q 88.28125 -4.296875 81.640625 -6.640625 
Q 75 -8.984375 66.796875 -9.765625 
Q 66.40625 -5.46875 63.28125 -0.78125 
Q 71.09375 -1.171875 75.578125 -0.390625 
Q 80.078125 0.390625 81.25 3.125 
Q 82.421875 5.859375 83 19.140625 
Q 83.59375 32.421875 83.984375 56.25 
L 61.328125 56.25 
Q 58.203125 48.828125 52.34375 38.671875 
Q 49.609375 41.40625 45.703125 42.96875 
Q 49.21875 47.65625 52.34375 54.296875 
Q 55.46875 60.9375 57.8125 68.75 
Q 60.15625 76.5625 60.546875 80.859375 
Q 66.015625 78.515625 69.921875 77.34375 
Q 67.96875 74.21875 66.59375 70.5 
Q 65.234375 66.796875 63.671875 63.28125 
L 91.40625 63.28125 
Q 91.015625 55.078125 91.015625 48.046875 
z
M 37.109375 8.203125 
L 37.109375 28.90625 
L 17.1875 28.90625 
L 17.1875 8.203125 
z
M 37.109375 35.546875 
L 37.109375 55.078125 
L 17.1875 55.078125 
L 17.1875 35.546875 
z
M 67.96875 32.03125 
Q 70.3125 27.34375 73.4375 19.921875 
Q 70.703125 18.75 66.015625 16.015625 
Q 63.28125 23.4375 60.9375 28.703125 
Q 58.59375 33.984375 56.25 37.5 
Q 58.984375 39.0625 63.28125 41.40625 
z
" id="SimHei-30340"/>
      <path d="M 48.4375 17.96875 
Q 46.875 21.09375 45.3125 23.046875 
Q 48.046875 25 51.171875 26.953125 
Q 53.515625 23.046875 55.265625 19.71875 
Q 57.03125 16.40625 59.765625 11.71875 
Q 57.421875 9.765625 53.515625 7.03125 
Q 52.734375 9.375 51.171875 12.5 
Q 48.046875 9.765625 43.359375 6.4375 
Q 38.671875 3.125 35.15625 -0.78125 
Q 32.421875 3.125 30.078125 5.46875 
Q 32.8125 8.203125 33.203125 13.671875 
L 33.203125 62.5 
Q 33.203125 69.140625 32.8125 73.4375 
L 55.859375 73.4375 
Q 55.46875 67.578125 55.46875 54.296875 
Q 55.46875 41.40625 55.859375 34.375 
L 39.84375 34.375 
L 39.84375 11.71875 
Q 42.578125 13.28125 48.4375 17.96875 
z
M 51.953125 -10.9375 
Q 50 -7.8125 46.09375 -5.078125 
Q 53.125 -1.171875 60.15625 9.953125 
Q 67.1875 21.09375 70.3125 36.71875 
L 59.375 36.71875 
Q 59.765625 42.578125 59.765625 48.046875 
Q 59.765625 53.515625 59.375 58.59375 
L 66.796875 58.59375 
Q 66.015625 55.46875 66.015625 50.78125 
L 66.015625 42.578125 
L 71.875 42.578125 
Q 73.046875 54.6875 73.046875 68.75 
L 69.140625 68.75 
Q 63.671875 68.75 59.375 68.359375 
L 59.375 75 
Q 64.0625 74.609375 69.140625 74.609375 
L 80.46875 74.609375 
Q 87.890625 74.609375 91.40625 75 
L 91.40625 68.359375 
Q 88.28125 68.75 79.6875 68.75 
Q 79.6875 57.8125 78.515625 42.578125 
L 83.984375 42.578125 
Q 87.5 42.578125 92.578125 42.96875 
L 92.578125 36.328125 
Q 87.5 36.71875 84.765625 36.71875 
L 77.34375 36.71875 
Q 72.265625 16.796875 66.984375 7.21875 
Q 61.71875 -2.34375 51.953125 -10.9375 
z
M 15.625 69.140625 
Q 15.625 74.21875 15.234375 78.90625 
L 23.046875 78.90625 
Q 22.265625 73.828125 22.265625 67.1875 
L 22.265625 59.375 
Q 25.390625 59.375 30.078125 59.765625 
L 30.078125 53.125 
Q 25 53.515625 22.265625 53.515625 
L 22.265625 41.40625 
Q 24.21875 42.578125 26.5625 44.140625 
Q 29.6875 36.71875 32.421875 29.296875 
Q 28.90625 28.515625 26.5625 26.5625 
Q 25 32.03125 22.265625 38.28125 
L 22.265625 4.6875 
Q 22.265625 -1.953125 22.65625 -8.984375 
L 15.234375 -8.984375 
Q 15.625 -0.78125 15.625 4.6875 
L 15.625 31.640625 
Q 12.890625 22.65625 8.59375 14.84375 
Q 7.03125 17.96875 2.734375 21.09375 
Q 7.8125 28.515625 10.34375 35.546875 
Q 12.890625 42.578125 14.84375 53.515625 
Q 7.8125 53.515625 5.46875 53.125 
L 5.46875 59.765625 
Q 8.59375 59.375 15.625 59.375 
z
M 82.8125 26.953125 
Q 82.421875 16.40625 82.421875 3.515625 
Q 82.421875 -0.78125 84.5625 -1.171875 
Q 86.71875 -1.5625 87.890625 -1.359375 
Q 89.0625 -1.171875 89.640625 0.578125 
Q 90.234375 2.34375 90.234375 7.421875 
Q 93.75 5.46875 97.65625 4.6875 
Q 96.09375 -3.515625 94.53125 -5.46875 
Q 92.96875 -7.421875 88.28125 -7.421875 
L 83.59375 -7.421875 
Q 75 -7.03125 75.78125 0.78125 
Q 75.78125 14.453125 75.78125 26.953125 
L 82.8125 26.953125 
z
M 48.828125 40.234375 
L 48.828125 51.171875 
L 39.84375 51.171875 
L 39.84375 40.234375 
z
M 48.828125 57.03125 
L 48.828125 67.578125 
L 39.84375 67.578125 
L 39.84375 57.03125 
z
" id="SimHei-27010"/>
      <path d="M 51.953125 80.46875 
Q 53.515625 76.5625 55.46875 70.703125 
L 75 70.703125 
Q 82.03125 70.703125 90.625 71.09375 
L 90.625 64.453125 
Q 82.03125 65.234375 74.609375 65.234375 
L 43.75 65.234375 
Q 46.484375 63.28125 51.5625 60.9375 
Q 48.046875 58.59375 44.921875 55.265625 
Q 41.796875 51.953125 38.671875 48.828125 
L 51.171875 48.828125 
Q 55.859375 53.515625 58.984375 58.984375 
Q 62.5 56.25 66.796875 53.515625 
Q 61.71875 50.78125 56.25 44.921875 
Q 50.78125 39.0625 41.015625 31.25 
L 60.15625 32.8125 
Q 58.203125 35.15625 56.25 37.890625 
Q 58.59375 38.671875 62.5 41.40625 
Q 66.40625 36.71875 73.4375 26.5625 
Q 69.921875 25.390625 66.015625 22.65625 
Q 65.234375 25 62.890625 27.734375 
Q 57.8125 27.34375 53.515625 27.34375 
L 53.515625 16.40625 
L 80.46875 16.40625 
Q 88.671875 16.40625 95.3125 16.796875 
L 95.3125 10.15625 
Q 89.0625 10.546875 80.078125 10.546875 
L 53.515625 10.546875 
L 53.515625 2.734375 
Q 53.515625 -4.6875 53.90625 -9.765625 
L 45.3125 -9.765625 
Q 45.703125 -4.6875 45.703125 2.734375 
L 45.703125 10.546875 
L 20.703125 10.546875 
Q 12.890625 10.546875 5.078125 10.15625 
L 5.078125 16.796875 
Q 12.890625 16.40625 21.09375 16.40625 
L 45.703125 16.40625 
L 45.703125 26.5625 
Q 42.1875 26.171875 38.671875 25.578125 
Q 35.15625 25 31.640625 23.828125 
Q 30.46875 27.734375 28.90625 31.25 
Q 32.421875 31.640625 36.328125 34.375 
Q 40.234375 37.109375 46.484375 43.75 
Q 35.9375 42.578125 31.640625 41.015625 
Q 30.859375 44.921875 28.90625 49.609375 
Q 32.421875 49.609375 36.328125 54.484375 
Q 40.234375 59.375 42.96875 65.234375 
L 26.5625 65.234375 
Q 17.96875 65.234375 10.15625 64.453125 
L 10.15625 71.09375 
Q 17.96875 70.703125 24.21875 70.703125 
L 46.484375 70.703125 
Q 45.3125 75.390625 43.75 78.515625 
Q 47.265625 79.296875 51.953125 80.46875 
z
M 25.390625 40.234375 
Q 26.953125 37.5 28.515625 34.375 
Q 24.609375 32.03125 20.703125 29.09375 
Q 16.796875 26.171875 12.5 22.265625 
Q 9.765625 26.171875 7.421875 29.296875 
Q 12.5 31.640625 17.1875 34.5625 
Q 21.875 37.5 25.390625 40.234375 
z
M 75.78125 41.40625 
Q 80.078125 38.671875 83.390625 36.515625 
Q 86.71875 34.375 91.796875 30.46875 
Q 88.671875 28.125 85.9375 25 
Q 82.8125 27.734375 79.09375 30.859375 
Q 75.390625 33.984375 71.484375 36.328125 
Q 73.828125 38.671875 75.78125 41.40625 
z
M 89.453125 55.078125 
Q 86.71875 53.90625 82.8125 50.96875 
Q 78.90625 48.046875 75 44.140625 
Q 72.265625 47.65625 69.921875 49.609375 
Q 73.4375 51.953125 76.171875 54.484375 
Q 78.90625 57.03125 82.8125 61.328125 
Q 86.328125 57.8125 89.453125 55.078125 
z
M 16.40625 60.15625 
Q 22.265625 56.25 27.734375 51.171875 
Q 24.609375 48.4375 22.265625 45.703125 
Q 16.796875 51.5625 10.546875 55.078125 
Q 13.671875 57.8125 16.40625 60.15625 
z
" id="SimHei-29575"/>
      <path d="M 63.671875 78.90625 
Q 60.15625 75 58.984375 72.265625 
L 88.28125 72.265625 
Q 84.765625 65.234375 81.046875 59.953125 
Q 77.34375 54.6875 72.65625 50 
Q 76.5625 47.265625 82.421875 45.703125 
Q 88.28125 44.140625 96.875 43.75 
Q 94.140625 39.453125 93.359375 35.9375 
Q 83.984375 37.5 77.34375 40.03125 
Q 70.703125 42.578125 66.796875 45.3125 
Q 61.71875 42.1875 55.46875 39.0625 
Q 49.21875 35.9375 39.453125 33.203125 
Q 38.28125 36.71875 35.15625 39.84375 
Q 43.359375 41.40625 50.1875 44.140625 
Q 57.03125 46.875 60.546875 50 
Q 55.46875 55.078125 51.953125 60.546875 
Q 46.875 53.90625 44.140625 51.171875 
Q 41.40625 53.90625 38.28125 55.46875 
Q 43.359375 60.15625 48.046875 67.578125 
Q 52.734375 75 55.859375 82.8125 
Q 61.71875 79.6875 63.671875 78.90625 
z
M 36.71875 77.734375 
Q 34.765625 72.65625 31.640625 63.46875 
Q 28.515625 54.296875 26.171875 46.484375 
Q 32.421875 38.28125 34.375 33.984375 
Q 36.328125 29.6875 35.734375 24.21875 
Q 35.15625 18.75 31.4375 15.8125 
Q 27.734375 12.890625 21.09375 12.109375 
Q 20.3125 16.015625 17.96875 20.703125 
Q 25.78125 20.3125 27.140625 23.625 
Q 28.515625 26.953125 27.921875 30.65625 
Q 27.34375 34.375 18.75 45.703125 
L 22.65625 56.25 
Q 25 62.890625 26.953125 71.09375 
L 15.234375 71.09375 
L 15.234375 -9.375 
L 7.8125 -9.375 
Q 8.203125 5.078125 8.203125 13.671875 
L 8.203125 58.59375 
Q 8.203125 67.578125 7.8125 77.734375 
L 36.71875 77.734375 
z
M 79.6875 32.421875 
Q 82.421875 32.421875 89.453125 32.8125 
L 89.453125 25.78125 
Q 85.15625 26.171875 80.46875 26.171875 
L 71.484375 26.171875 
L 71.484375 14.0625 
L 81.25 14.0625 
Q 88.671875 14.0625 94.53125 14.453125 
L 94.53125 7.421875 
Q 89.0625 7.8125 81.640625 7.8125 
L 71.484375 7.8125 
L 71.484375 1.953125 
Q 71.484375 -3.90625 71.875 -9.375 
L 64.0625 -9.375 
Q 64.453125 -3.515625 64.453125 1.5625 
L 64.453125 7.8125 
L 37.109375 7.8125 
Q 39.0625 17.1875 39.0625 21.875 
L 47.265625 20.703125 
Q 45.703125 16.015625 45.703125 14.0625 
L 64.453125 14.0625 
L 64.453125 26.171875 
L 54.296875 26.171875 
Q 48.4375 26.171875 43.359375 25.78125 
L 43.359375 32.8125 
Q 50.390625 32.421875 54.296875 32.421875 
L 64.453125 32.421875 
Q 64.453125 37.109375 64.0625 41.015625 
L 71.484375 41.015625 
Q 71.09375 34.765625 71.09375 32.421875 
z
M 66.796875 54.296875 
Q 71.875 58.203125 76.953125 66.40625 
L 55.46875 66.40625 
Q 62.890625 57.03125 66.796875 54.296875 
z
" id="SimHei-38477"/>
      <path d="M 35.9375 71.09375 
Q 42.96875 70.703125 58.59375 72.453125 
Q 74.21875 74.21875 82.421875 78.125 
Q 84.765625 73.828125 87.5 69.921875 
Q 80.078125 68.75 67.96875 67.1875 
Q 67.96875 59.765625 68.75 44.53125 
L 78.125 44.53125 
Q 84.765625 44.53125 91.40625 44.921875 
L 91.40625 37.890625 
Q 84.765625 38.28125 78.515625 38.28125 
L 69.53125 38.28125 
Q 71.484375 20.703125 75.96875 11.90625 
Q 80.46875 3.125 83.203125 1.171875 
Q 85.9375 -0.78125 86.90625 1.953125 
Q 87.890625 4.6875 88.671875 12.109375 
Q 92.578125 8.984375 96.09375 8.203125 
Q 93.75 -1.5625 91.40625 -5.265625 
Q 89.0625 -8.984375 83.59375 -7.8125 
Q 78.125 -6.640625 71.671875 4.09375 
Q 65.234375 14.84375 62.5 38.28125 
L 43.359375 38.28125 
L 43.359375 7.8125 
Q 51.171875 14.84375 55.859375 19.921875 
Q 57.421875 15.234375 58.984375 12.5 
Q 43.359375 -0.78125 39.0625 -5.46875 
Q 36.328125 -2.734375 33.984375 0.390625 
Q 35.9375 2.34375 36.328125 7.8125 
L 36.328125 58.203125 
Q 36.328125 63.671875 35.9375 71.09375 
z
M 32.03125 79.296875 
Q 29.6875 76.5625 25 61.71875 
L 25 6.640625 
Q 25 -1.171875 25.390625 -9.765625 
L 17.1875 -9.765625 
Q 17.578125 -1.171875 17.578125 7.03125 
L 17.578125 47.265625 
Q 13.671875 39.0625 9.765625 33.203125 
Q 6.25 36.71875 3.515625 37.890625 
Q 9.375 45.3125 15.03125 57.609375 
Q 20.703125 69.921875 23.4375 82.421875 
Q 24.609375 81.25 32.03125 79.296875 
z
M 61.71875 44.53125 
Q 60.9375 58.984375 60.9375 66.015625 
Q 48.828125 65.234375 43.359375 64.84375 
L 43.359375 44.53125 
z
M 60.15625 -9.765625 
Q 53.90625 -1.171875 50.78125 1.5625 
Q 53.90625 4.296875 55.859375 6.640625 
Q 61.328125 0.78125 66.015625 -4.6875 
Q 62.890625 -7.03125 60.15625 -9.765625 
z
" id="SimHei-20302"/>
      <path d="M 82.8125 81.25 
Q 85.15625 77.34375 89.453125 73.046875 
Q 77.734375 72.65625 69.328125 71.671875 
Q 60.9375 70.703125 48.828125 69.53125 
Q 50.78125 67.578125 54.296875 66.015625 
Q 49.21875 62.890625 44.328125 58.78125 
Q 39.453125 54.6875 34.765625 51.171875 
L 54.296875 51.171875 
Q 64.0625 57.8125 70.703125 63.28125 
Q 74.609375 60.15625 80.078125 57.8125 
Q 74.609375 55.46875 69.53125 52.734375 
Q 64.453125 50 52.921875 42.765625 
Q 41.40625 35.546875 33.203125 30.859375 
Q 56.25 32.03125 76.171875 32.8125 
Q 74.21875 34.765625 66.015625 41.015625 
Q 69.921875 42.578125 72.65625 44.921875 
Q 77.34375 41.40625 83.390625 36.125 
Q 89.453125 30.859375 94.921875 25.78125 
Q 90.234375 23.046875 87.5 20.703125 
Q 84.375 24.609375 81.640625 26.953125 
Q 71.09375 26.5625 56.640625 25.78125 
L 56.640625 2.34375 
Q 56.640625 -5.078125 52.921875 -6.4375 
Q 49.21875 -7.8125 39.453125 -9.375 
Q 38.671875 -4.6875 35.9375 -0.390625 
Q 44.921875 -0.390625 47.0625 0.1875 
Q 49.21875 0.78125 49.21875 4.6875 
L 49.21875 25.78125 
Q 25.390625 25.390625 16.796875 23.828125 
Q 15.625 27.734375 14.0625 32.03125 
Q 22.65625 32.8125 29.296875 35.9375 
Q 35.9375 39.0625 45.3125 45.3125 
Q 36.328125 45.3125 31.828125 44.921875 
Q 27.34375 44.53125 21.875 43.75 
Q 20.703125 48.046875 19.53125 51.953125 
Q 26.171875 51.953125 32.8125 57.21875 
Q 39.453125 62.5 42.96875 68.75 
Q 21.09375 67.96875 14.453125 67.1875 
Q 13.28125 71.09375 11.71875 74.21875 
Q 33.59375 74.21875 50.78125 75.78125 
Q 67.96875 77.34375 82.8125 81.25 
z
M 72.265625 19.53125 
Q 76.953125 16.015625 83.203125 11.515625 
Q 89.453125 7.03125 93.75 2.734375 
Q 90.625 0 87.5 -3.515625 
Q 82.421875 1.953125 76.953125 6.25 
Q 71.484375 10.546875 66.796875 13.671875 
Q 70.3125 16.40625 72.265625 19.53125 
z
M 34.375 13.671875 
Q 29.6875 11.328125 24.015625 5.859375 
Q 18.359375 0.390625 12.5 -4.6875 
Q 8.984375 -1.171875 5.859375 0.390625 
Q 16.796875 7.03125 26.171875 19.140625 
Q 29.6875 16.40625 34.375 13.671875 
z
" id="SimHei-31995"/>
      <path d="M 70.703125 76.953125 
Q 69.921875 75 68.75 71.671875 
Q 67.578125 68.359375 65.234375 59.765625 
L 83.203125 59.765625 
Q 87.109375 59.765625 92.578125 60.15625 
L 92.578125 53.125 
Q 88.28125 53.515625 85.9375 53.515625 
Q 85.9375 47.265625 83.78125 33.78125 
Q 81.640625 20.3125 76.171875 10.546875 
Q 80.078125 5.859375 84.953125 2.140625 
Q 89.84375 -1.5625 94.140625 -3.125 
Q 89.453125 -6.640625 87.890625 -9.765625 
Q 83.203125 -7.03125 79.296875 -3.515625 
Q 75.390625 0 71.484375 5.078125 
Q 67.1875 0.390625 62.296875 -2.921875 
Q 57.421875 -6.25 50 -10.15625 
Q 48.046875 -6.640625 44.53125 -4.6875 
Q 50.390625 -2.34375 57.03125 1.953125 
Q 63.671875 6.25 67.1875 10.546875 
Q 64.453125 16.015625 61.90625 22.265625 
Q 59.375 28.515625 57.421875 38.671875 
Q 56.25 35.546875 53.515625 30.46875 
Q 50.78125 32.03125 46.875 33.59375 
Q 53.125 44.53125 57.03125 57.421875 
Q 60.9375 70.3125 62.109375 79.6875 
Q 66.796875 77.734375 70.703125 76.953125 
z
M 32.8125 35.15625 
Q 31.25 33.59375 29.296875 30.078125 
L 50.78125 30.078125 
Q 48.4375 20.3125 42.578125 10.546875 
Q 48.828125 8.203125 52.34375 6.25 
Q 50.390625 3.515625 48.828125 0.390625 
Q 45.3125 2.734375 38.28125 5.078125 
Q 30.46875 -3.515625 11.328125 -10.15625 
Q 9.375 -5.859375 6.25 -4.296875 
Q 24.609375 0 31.25 7.421875 
Q 20.3125 10.15625 13.28125 12.109375 
Q 15.625 15.625 19.53125 23.828125 
Q 15.625 23.828125 6.640625 23.4375 
L 6.640625 30.46875 
Q 14.0625 30.078125 21.875 30.078125 
Q 23.4375 33.59375 24.21875 37.890625 
Q 28.515625 36.328125 32.8125 35.15625 
z
M 27.734375 61.71875 
Q 27.734375 71.09375 27.34375 79.6875 
L 35.15625 79.6875 
Q 34.765625 71.484375 34.765625 61.71875 
Q 48.046875 61.71875 53.515625 62.109375 
L 53.515625 55.078125 
Q 48.046875 55.46875 34.765625 55.46875 
Q 34.765625 44.140625 35.15625 37.890625 
L 27.34375 37.890625 
Q 27.734375 43.359375 27.734375 51.5625 
Q 25.78125 48.4375 20.3125 43.546875 
Q 14.84375 38.671875 10.15625 35.9375 
Q 8.203125 39.453125 4.296875 41.015625 
Q 7.8125 42.1875 13.671875 46.484375 
Q 19.53125 50.78125 22.65625 55.46875 
Q 14.84375 55.46875 7.8125 55.078125 
L 7.8125 62.109375 
Q 14.453125 61.71875 27.734375 61.71875 
z
M 62.109375 49.609375 
Q 65.625 26.5625 71.875 17.578125 
Q 75.78125 26.5625 77.140625 35.734375 
Q 78.515625 44.921875 78.90625 53.515625 
L 63.671875 53.515625 
L 62.109375 49.609375 
z
M 22.65625 15.625 
Q 27.34375 14.453125 35.546875 12.5 
Q 38.671875 16.40625 41.40625 23.828125 
L 26.953125 23.828125 
Q 25 19.921875 22.65625 15.625 
z
M 51.953125 75.390625 
Q 50 72.265625 48.828125 69.53125 
Q 47.65625 66.796875 45.703125 62.890625 
Q 42.578125 64.453125 39.453125 65.234375 
Q 42.578125 70.3125 45.3125 78.125 
Q 49.21875 76.171875 51.953125 75.390625 
z
M 40.234375 52.734375 
Q 45.3125 47.65625 50 42.578125 
Q 47.65625 40.625 44.921875 37.890625 
Q 39.453125 44.53125 35.9375 48.4375 
Q 38.28125 50.390625 40.234375 52.734375 
z
M 14.453125 78.125 
Q 19.921875 72.65625 23.4375 67.1875 
L 17.578125 63.671875 
Q 14.84375 69.140625 9.375 73.828125 
Q 12.890625 76.171875 14.453125 78.125 
z
" id="SimHei-25968"/>
      <path d="M 84.765625 79.6875 
L 89.0625 74.609375 
Q 66.796875 58.203125 67.578125 36.71875 
Q 67.96875 16.015625 88.671875 0.78125 
L 84.375 -4.296875 
Q 60.546875 12.890625 61.328125 39.0625 
Q 61.328125 60.546875 84.765625 79.6875 
z
" id="SimHei-65288"/>
      <path d="M 28.515625 1.953125 
L 20.703125 1.953125 
L 20.703125 68.75 
L 28.515625 68.75 
z
" id="SimHei-108"/>
      <path d="M 15.625 79.6875 
Q 39.0625 60.546875 39.0625 39.0625 
Q 39.84375 12.890625 16.015625 -4.296875 
L 11.71875 0.78125 
Q 32.421875 16.015625 32.8125 36.71875 
Q 33.59375 58.203125 11.328125 74.609375 
L 15.625 79.6875 
z
" id="SimHei-65289"/>
     </defs>
     <g transform="translate(105.9 350.9)scale(0.14 -0.14)">
      <use xlink:href="#SimHei-25509"/>
      <use x="100" xlink:href="#SimHei-31181"/>
      <use x="200" xlink:href="#SimHei-21518"/>
      <use x="300" xlink:href="#SimHei-20986"/>
      <use x="400" xlink:href="#SimHei-29616"/>
      <use x="500" xlink:href="#SimHei-30151"/>
      <use x="600" xlink:href="#SimHei-29366"/>
      <use x="700" xlink:href="#SimHei-30340"/>
      <use x="800" xlink:href="#SimHei-27010"/>
      <use x="900" xlink:href="#SimHei-29575"/>
      <use x="1000" xlink:href="#SimHei-38477"/>
      <use x="1100" xlink:href="#SimHei-20302"/>
      <use x="1200" xlink:href="#SimHei-31995"/>
      <use x="1300" xlink:href="#SimHei-25968"/>
      <use x="1400" xlink:href="#SimHei-65288"/>
      <use x="1500" xlink:href="#SimHei-108"/>
      <use x="1550" xlink:href="#SimHei-65289"/>
     </g>
    </g>
   </g>
   <g id="matplotlib.axis_2">
    <g id="ytick_1">
     <g id="line2d_7">
      <defs>
       <path d="M 0 0 
L -3.5 0 
" id="m98a08b64df" style="stroke:#000000;stroke-width:0.8;"/>
      </defs>
      <g>
       <use style="stroke:#000000;stroke-width:0.8;" x="54" xlink:href="#m98a08b64df" y="320.4"/>
      </g>
     </g>
     <g id="text_8">
      <!-- 0.1 -->
      <g transform="translate(32 323.8375)scale(0.1 -0.1)">
       <use xlink:href="#SimHei-48"/>
       <use x="50" xlink:href="#SimHei-46"/>
       <use x="100" xlink:href="#SimHei-49"/>
      </g>
     </g>
    </g>
    <g id="ytick_2">
     <g id="line2d_8">
      <g>
       <use style="stroke:#000000;stroke-width:0.8;" x="54" xlink:href="#m98a08b64df" y="289.6"/>
      </g>
     </g>
     <g id="text_9">
      <!-- 0.2 -->
      <g transform="translate(32 293.0375)scale(0.1 -0.1)">
       <use xlink:href="#SimHei-48"/>
       <use x="50" xlink:href="#SimHei-46"/>
       <use x="100" xlink:href="#SimHei-50"/>
      </g>
     </g>
    </g>
    <g id="ytick_3">
     <g id="line2d_9">
      <g>
       <use style="stroke:#000000;stroke-width:0.8;" x="54" xlink:href="#m98a08b64df" y="258.8"/>
      </g>
     </g>
     <g id="text_10">
      <!-- 0.3 -->
      <defs>
       <path d="M 3.90625 19.140625 
L 10.9375 20.3125 
Q 12.5 15.234375 16.015625 11.90625 
Q 19.53125 8.59375 24.796875 8.78125 
Q 30.078125 8.984375 33.203125 13.078125 
Q 36.328125 17.1875 35.9375 22.453125 
Q 35.546875 27.734375 31.828125 30.65625 
Q 28.125 33.59375 19.921875 34.765625 
L 19.921875 39.84375 
Q 28.125 40.625 31.828125 44.140625 
Q 35.546875 47.65625 35.15625 53.3125 
Q 34.765625 58.984375 30.078125 61.515625 
Q 25.390625 64.0625 20.109375 62.109375 
Q 14.84375 60.15625 11.71875 51.171875 
L 4.6875 52.34375 
Q 7.03125 59.375 11.125 64.0625 
Q 15.234375 68.75 22.265625 69.53125 
Q 29.296875 70.3125 34.5625 67.765625 
Q 39.84375 65.234375 41.984375 59.953125 
Q 44.140625 54.6875 42.578125 48.4375 
Q 41.015625 42.1875 33.59375 37.5 
Q 39.0625 35.15625 41.984375 30.46875 
Q 44.921875 25.78125 43.9375 18.15625 
Q 42.96875 10.546875 37.109375 5.859375 
Q 31.25 1.171875 23.828125 1.359375 
Q 16.40625 1.5625 10.9375 6.046875 
Q 5.46875 10.546875 3.90625 19.140625 
z
" id="SimHei-51"/>
      </defs>
      <g transform="translate(32 262.2375)scale(0.1 -0.1)">
       <use xlink:href="#SimHei-48"/>
       <use x="50" xlink:href="#SimHei-46"/>
       <use x="100" xlink:href="#SimHei-51"/>
      </g>
     </g>
    </g>
    <g id="ytick_4">
     <g id="line2d_10">
      <g>
       <use style="stroke:#000000;stroke-width:0.8;" x="54" xlink:href="#m98a08b64df" y="228"/>
      </g>
     </g>
     <g id="text_11">
      <!-- 0.4 -->
      <g transform="translate(32 231.4375)scale(0.1 -0.1)">
       <use xlink:href="#SimHei-48"/>
       <use x="50" xlink:href="#SimHei-46"/>
       <use x="100" xlink:href="#SimHei-52"/>
      </g>
     </g>
    </g>
    <g id="ytick_5">
     <g id="line2d_11">
      <g>
       <use style="stroke:#000000;stroke-width:0.8;" x="54" xlink:href="#m98a08b64df" y="197.2"/>
      </g>
     </g>
     <g id="text_12">
      <!-- 0.5 -->
      <defs>
       <path d="M 8.59375 20.703125 
Q 11.328125 10.15625 17.96875 8.984375 
Q 24.609375 7.8125 28.703125 10.34375 
Q 32.8125 12.890625 34.5625 16.984375 
Q 36.328125 21.09375 36.125 26.171875 
Q 35.9375 31.25 33.390625 34.765625 
Q 30.859375 38.28125 26.953125 39.453125 
Q 23.046875 40.625 18.15625 39.453125 
Q 13.28125 38.28125 10.15625 33.984375 
L 3.515625 34.765625 
Q 4.296875 37.109375 10.9375 68.359375 
L 41.796875 68.359375 
L 41.796875 61.328125 
L 16.796875 61.328125 
Q 14.84375 50.78125 12.890625 44.53125 
Q 18.75 47.265625 23.828125 47.0625 
Q 28.90625 46.875 33.59375 44.71875 
Q 38.28125 42.578125 40.421875 38.859375 
Q 42.578125 35.15625 43.546875 31.4375 
Q 44.53125 27.734375 44.328125 23.4375 
Q 44.140625 19.140625 42.578125 14.640625 
Q 41.015625 10.15625 37.890625 7.21875 
Q 34.765625 4.296875 30.265625 2.53125 
Q 25.78125 0.78125 19.921875 1.171875 
Q 14.0625 1.5625 8.78125 5.46875 
Q 3.515625 9.375 1.5625 18.75 
z
" id="SimHei-53"/>
      </defs>
      <g transform="translate(32 200.6375)scale(0.1 -0.1)">
       <use xlink:href="#SimHei-48"/>
       <use x="50" xlink:href="#SimHei-46"/>
       <use x="100" xlink:href="#SimHei-53"/>
      </g>
     </g>
    </g>
    <g id="ytick_6">
     <g id="line2d_12">
      <g>
       <use style="stroke:#000000;stroke-width:0.8;" x="54" xlink:href="#m98a08b64df" y="166.4"/>
      </g>
     </g>
     <g id="text_13">
      <!-- 0.6 -->
      <g transform="translate(32 169.8375)scale(0.1 -0.1)">
       <use xlink:href="#SimHei-48"/>
       <use x="50" xlink:href="#SimHei-46"/>
       <use x="100" xlink:href="#SimHei-54"/>
      </g>
     </g>
    </g>
    <g id="ytick_7">
     <g id="line2d_13">
      <g>
       <use style="stroke:#000000;stroke-width:0.8;" x="54" xlink:href="#m98a08b64df" y="135.6"/>
      </g>
     </g>
     <g id="text_14">
      <!-- 0.7 -->
      <defs>
       <path d="M 13.28125 2.34375 
Q 20.3125 32.03125 37.890625 61.328125 
L 4.296875 61.328125 
L 4.296875 68.359375 
L 46.09375 68.359375 
L 46.09375 61.71875 
Q 27.734375 32.03125 21.875 2.34375 
L 13.28125 2.34375 
z
" id="SimHei-55"/>
      </defs>
      <g transform="translate(32 139.0375)scale(0.1 -0.1)">
       <use xlink:href="#SimHei-48"/>
       <use x="50" xlink:href="#SimHei-46"/>
       <use x="100" xlink:href="#SimHei-55"/>
      </g>
     </g>
    </g>
    <g id="ytick_8">
     <g id="line2d_14">
      <g>
       <use style="stroke:#000000;stroke-width:0.8;" x="54" xlink:href="#m98a08b64df" y="104.8"/>
      </g>
     </g>
     <g id="text_15">
      <!-- 0.8 -->
      <g transform="translate(32 108.2375)scale(0.1 -0.1)">
       <use xlink:href="#SimHei-48"/>
       <use x="50" xlink:href="#SimHei-46"/>
       <use x="100" xlink:href="#SimHei-56"/>
      </g>
     </g>
    </g>
    <g id="ytick_9">
     <g id="line2d_15">
      <g>
       <use style="stroke:#000000;stroke-width:0.8;" x="54" xlink:href="#m98a08b64df" y="74"/>
      </g>
     </g>
     <g id="text_16">
      <!-- 0.9 -->
      <defs>
       <path d="M 12.5 1.171875 
Q 21.09375 15.625 26.5625 27.34375 
Q 16.796875 25.78125 10.34375 29.875 
Q 3.90625 33.984375 2.53125 41.015625 
Q 1.171875 48.046875 2.734375 53.703125 
Q 4.296875 59.375 7.609375 63.078125 
Q 10.9375 66.796875 15.625 68.359375 
Q 20.3125 69.921875 24.015625 69.921875 
Q 27.734375 69.921875 31.640625 68.359375 
Q 35.546875 66.796875 38.671875 63.671875 
Q 41.796875 60.546875 42.96875 57.21875 
Q 44.140625 53.90625 44.140625 48.625 
Q 44.140625 43.359375 40.234375 35.15625 
Q 36.328125 26.953125 21.09375 1.171875 
z
M 9.765625 50 
Q 10.9375 39.84375 14.640625 36.515625 
Q 18.359375 33.203125 22.65625 33.59375 
Q 26.953125 33.984375 29.484375 35.9375 
Q 32.03125 37.890625 34.375 42.578125 
Q 35.9375 48.4375 35.15625 52.53125 
Q 34.375 56.640625 31.046875 59.375 
Q 27.734375 62.109375 23.828125 62.109375 
Q 21.484375 62.5 17.765625 60.9375 
Q 14.0625 59.375 11.90625 54.6875 
Q 9.765625 50 10.9375 39.84375 
z
" id="SimHei-57"/>
      </defs>
      <g transform="translate(32 77.4375)scale(0.1 -0.1)">
       <use xlink:href="#SimHei-48"/>
       <use x="50" xlink:href="#SimHei-46"/>
       <use x="100" xlink:href="#SimHei-57"/>
      </g>
     </g>
    </g>
    <g id="ytick_10">
     <g id="line2d_16">
      <g>
       <use style="stroke:#000000;stroke-width:0.8;" x="54" xlink:href="#m98a08b64df" y="43.2"/>
      </g>
     </g>
     <g id="text_17">
      <!-- 1.0 -->
      <g transform="translate(32 46.6375)scale(0.1 -0.1)">
       <use xlink:href="#SimHei-49"/>
       <use x="50" xlink:href="#SimHei-46"/>
       <use x="100" xlink:href="#SimHei-48"/>
      </g>
     </g>
    </g>
    <g id="text_18">
     <!-- 无症状被发现的概率降低系数（k） -->
     <defs>
      <path d="M 67.96875 73.828125 
Q 76.171875 73.828125 82.8125 74.21875 
L 82.8125 66.796875 
Q 76.953125 67.1875 67.96875 67.1875 
L 49.609375 67.1875 
Q 49.609375 54.296875 48.828125 43.75 
L 78.90625 43.75 
Q 85.9375 43.75 91.796875 44.140625 
L 91.796875 36.71875 
Q 85.9375 37.109375 79.296875 37.109375 
L 61.71875 37.109375 
L 61.71875 6.640625 
Q 61.71875 1.5625 67.578125 1.5625 
L 80.859375 1.5625 
Q 85.15625 1.5625 85.546875 13.28125 
Q 89.453125 10.9375 94.140625 9.765625 
Q 92.1875 -5.46875 85.15625 -5.46875 
L 63.671875 -5.46875 
Q 54.6875 -5.078125 54.6875 4.6875 
L 54.6875 37.109375 
L 48.046875 37.109375 
Q 44.921875 22.265625 40.421875 14.640625 
Q 35.9375 7.03125 30.078125 1.75 
Q 24.21875 -3.515625 12.5 -10.15625 
Q 10.546875 -5.859375 5.859375 -3.515625 
Q 15.234375 0.78125 21.09375 5.265625 
Q 26.953125 9.765625 32.21875 16.40625 
Q 37.5 23.046875 40.625 37.109375 
L 23.4375 37.109375 
Q 13.671875 37.109375 9.375 36.71875 
L 9.375 44.140625 
Q 13.671875 43.75 23.4375 43.75 
L 41.40625 43.75 
Q 41.796875 55.46875 41.796875 67.1875 
L 31.25 67.1875 
Q 23.4375 67.1875 16.796875 66.796875 
L 16.796875 74.21875 
Q 23.4375 73.828125 31.25 73.828125 
z
" id="SimHei-26080"/>
      <path d="M 64.0625 65.234375 
Q 64.0625 75 63.671875 80.859375 
L 71.484375 80.859375 
Q 71.09375 75.390625 71.09375 65.234375 
L 94.140625 65.234375 
Q 92.1875 59.765625 89.453125 50.390625 
Q 86.71875 51.5625 81.640625 51.953125 
Q 83.984375 57.421875 84.375 59.375 
L 71.09375 59.375 
L 71.09375 41.40625 
L 87.109375 41.40625 
Q 84.765625 32.421875 81.640625 24.609375 
Q 78.515625 16.796875 73.046875 8.59375 
Q 76.953125 5.078125 83.984375 2.34375 
Q 91.015625 -0.390625 95.703125 -0.78125 
Q 91.40625 -4.6875 90.234375 -8.59375 
Q 83.203125 -5.859375 78.125 -2.921875 
Q 73.046875 0 68.75 3.90625 
Q 62.109375 -3.125 50.390625 -9.765625 
Q 47.65625 -5.46875 44.53125 -3.90625 
Q 55.859375 0 64.0625 8.984375 
Q 57.421875 17.578125 53.125 35.546875 
L 51.171875 35.546875 
Q 50.78125 24.609375 48.234375 14.453125 
Q 45.703125 4.296875 36.71875 -8.59375 
Q 33.984375 -6.25 29.296875 -4.6875 
Q 37.109375 3.515625 40.625 12.890625 
Q 44.140625 22.265625 44.53125 33.59375 
L 44.53125 52.734375 
Q 44.53125 60.9375 44.140625 65.234375 
L 64.0625 65.234375 
z
M 28.515625 36.328125 
Q 32.421875 40.625 35.9375 46.09375 
Q 39.0625 42.578125 41.40625 40.625 
Q 37.890625 37.5 32.421875 32.03125 
L 39.84375 24.609375 
Q 37.5 22.65625 34.375 19.140625 
Q 30.859375 24.609375 24.609375 30.859375 
L 24.609375 8.203125 
Q 24.609375 0 25 -9.765625 
L 17.578125 -9.765625 
Q 17.96875 2.734375 17.96875 10.9375 
L 17.96875 32.421875 
Q 14.0625 28.125 8.203125 23.046875 
Q 6.25 26.171875 3.125 28.90625 
Q 10.546875 33.984375 16.203125 40.625 
Q 21.875 47.265625 25.78125 55.078125 
L 17.96875 55.078125 
Q 12.5 55.078125 6.25 54.6875 
L 6.25 61.328125 
Q 14.84375 60.9375 20.3125 60.9375 
L 36.71875 60.9375 
Q 30.46875 48.046875 24.21875 39.84375 
Q 25.78125 38.671875 28.515625 36.328125 
z
M 64.0625 41.40625 
L 64.0625 59.375 
L 51.171875 59.375 
L 51.171875 41.40625 
z
M 59.765625 35.546875 
Q 63.28125 21.484375 68.75 14.0625 
Q 71.875 18.75 74.015625 23.625 
Q 76.171875 28.515625 78.125 35.546875 
z
M 23.4375 82.03125 
Q 27.34375 75 30.46875 68.359375 
L 23.4375 64.84375 
Q 20.703125 72.65625 16.796875 78.515625 
Q 20.3125 79.6875 23.4375 82.03125 
z
" id="SimHei-34987"/>
      <path d="M 54.296875 76.953125 
Q 52.34375 72.65625 51.171875 68.15625 
Q 50 63.671875 48.046875 55.859375 
L 79.296875 55.859375 
Q 83.203125 55.859375 91.015625 56.25 
L 91.015625 48.828125 
Q 83.203125 49.21875 79.296875 49.21875 
L 46.484375 49.21875 
Q 44.140625 43.359375 41.40625 37.5 
L 82.8125 37.5 
Q 75.390625 19.53125 62.109375 7.421875 
Q 72.65625 0 92.96875 -2.34375 
Q 90.234375 -5.46875 88.28125 -10.15625 
Q 80.46875 -8.59375 72.265625 -5.65625 
Q 64.0625 -2.734375 56.25 2.734375 
Q 50 -1.171875 41.015625 -4.875 
Q 32.03125 -8.59375 22.65625 -10.9375 
Q 21.875 -7.03125 18.75 -3.515625 
Q 27.34375 -2.34375 35.9375 0.578125 
Q 44.53125 3.515625 51.171875 7.8125 
Q 44.53125 14.453125 36.328125 26.953125 
Q 32.03125 19.921875 25.390625 13.28125 
Q 18.75 6.640625 10.9375 1.171875 
Q 9.375 3.90625 4.6875 7.03125 
Q 10.546875 10.15625 16.203125 15.234375 
Q 21.875 20.3125 28.125 28.703125 
Q 34.375 37.109375 38.671875 49.21875 
Q 28.515625 49.21875 23.046875 48.828125 
Q 17.578125 48.4375 14.84375 47.265625 
Q 13.671875 50.78125 11.71875 54.6875 
Q 15.625 55.46875 17.375 60.546875 
Q 19.140625 65.625 21.09375 76.171875 
Q 24.21875 74.609375 29.6875 73.046875 
Q 27.734375 69.140625 26.171875 65.03125 
Q 24.609375 60.9375 22.65625 55.859375 
L 40.625 55.859375 
Q 43.75 68.359375 45.3125 79.6875 
Q 49.609375 77.34375 54.296875 76.953125 
z
M 41.796875 31.25 
Q 47.265625 21.484375 57.03125 11.71875 
Q 65.625 18.75 72.265625 31.25 
L 41.796875 31.25 
z
M 68.75 79.296875 
Q 75.390625 71.875 82.03125 64.0625 
Q 79.296875 62.5 75.390625 58.984375 
Q 69.140625 67.96875 63.28125 74.21875 
Q 66.015625 76.171875 68.75 79.296875 
z
" id="SimHei-21457"/>
      <path d="M 45.703125 1.953125 
L 36.71875 1.953125 
L 22.65625 25.78125 
L 13.671875 17.1875 
L 13.671875 1.953125 
L 5.859375 1.953125 
L 5.859375 68.75 
L 13.671875 68.75 
L 13.671875 26.171875 
L 33.203125 45.703125 
L 42.96875 45.703125 
L 27.734375 30.859375 
z
" id="SimHei-107"/>
     </defs>
     <g transform="translate(26.25 290.3)rotate(-90)scale(0.14 -0.14)">
      <use xlink:href="#SimHei-26080"/>
      <use x="100" xlink:href="#SimHei-30151"/>
      <use x="200" xlink:href="#SimHei-29366"/>
      <use x="300" xlink:href="#SimHei-34987"/>
      <use x="400" xlink:href="#SimHei-21457"/>
      <use x="500" xlink:href="#SimHei-29616"/>
      <use x="600" xlink:href="#SimHei-30340"/>
      <use x="700" xlink:href="#SimHei-27010"/>
      <use x="800" xlink:href="#SimHei-29575"/>
      <use x="900" xlink:href="#SimHei-38477"/>
      <use x="1000" xlink:href="#SimHei-20302"/>
      <use x="1100" xlink:href="#SimHei-31995"/>
      <use x="1200" xlink:href="#SimHei-25968"/>
      <use x="1300" xlink:href="#SimHei-65288"/>
      <use x="1400" xlink:href="#SimHei-107"/>
      <use x="1450" xlink:href="#SimHei-65289"/>
     </g>
    </g>
   </g>
   <g id="LineCollection_1"/>
   <g id="LineCollection_2">
    <path clip-path="url(#p4341c8bab7)" d="M 108.545405 86.107338 
L 107.568 86.05435 
L 104.22 85.874597 
L 100.872 85.696571 
L 97.524 85.520247 
L 94.176 85.3456 
L 90.828 85.172607 
L 87.48 85.001244 
L 84.132 84.831488 
L 80.784 84.663318 
L 77.436 84.49671 
L 74.088 84.331643 
L 70.74 84.168096 
L 67.392 84.006048 
L 64.044 83.845478 
L 60.696 83.686367 
L 57.348 83.528694 
L 54 83.37244 
" style="fill:none;stroke:#482878;stroke-width:1.5;"/>
    <path clip-path="url(#p4341c8bab7)" d="M 208.92405 92.254433 
L 208.008 92.189478 
L 204.66 91.954759 
L 201.312 91.722673 
L 197.964 91.493178 
L 194.616 91.266229 
L 191.268 91.041785 
L 187.92 90.819805 
L 184.572 90.600247 
L 181.224 90.383074 
L 177.876 90.168245 
L 174.528 89.955723 
L 171.18 89.745472 
L 167.832 89.537455 
L 165.6 89.4 
L 164.484 89.330008 
L 161.136 89.121505 
L 157.788 88.915182 
L 154.44 88.711006 
L 151.092 88.508943 
L 147.744 88.308961 
L 144.396 88.111028 
L 141.048 87.915112 
L 137.7 87.721183 
L 134.352 87.529211 
L 132.988447 87.45181 
" style="fill:none;stroke:#482878;stroke-width:1.5;"/>
    <path clip-path="url(#p4341c8bab7)" d="M 388.8 109.1904 
L 385.452 108.770339 
L 382.104 108.357042 
L 378.756 107.950345 
L 378.171429 107.88 
L 375.408 107.541634 
L 372.06 107.137572 
L 368.712 106.739813 
L 365.364 106.34821 
L 362.016 105.962621 
L 358.668 105.582909 
L 355.32 105.208941 
L 351.972 104.840587 
L 351.6 104.8 
L 348.624 104.469563 
L 345.276 104.103014 
L 341.928 103.741847 
L 340.444691 103.584166 
" style="fill:none;stroke:#482878;stroke-width:1.5;"/>
    <path clip-path="url(#p4341c8bab7)" d="M 316.09022 101.108936 
L 315.144 101.015634 
L 311.796 100.69005 
L 308.448 100.368919 
L 305.1 100.052151 
L 301.752 99.739657 
L 298.404 99.431351 
L 295.056 99.12715 
L 291.708 98.826973 
L 289.6 98.64 
L 288.36 98.528041 
L 285.012 98.228455 
L 281.664 97.932754 
L 278.316 97.640863 
L 274.968 97.352709 
L 271.62 97.06822 
L 268.272 96.787328 
L 264.924 96.509964 
L 261.576 96.236062 
L 258.228 95.965558 
L 254.88 95.698389 
L 253.129412 95.56 
L 251.532 95.431433 
L 248.184 95.164393 
L 244.836 94.900586 
L 241.488 94.639953 
L 238.14 94.382437 
L 234.792 94.127983 
L 233.340345 94.018959 
" style="fill:none;stroke:#482878;stroke-width:1.5;"/>
   </g>
   <g id="LineCollection_3">
    <path clip-path="url(#p4341c8bab7)" d="M 103.678335 228.008138 
L 103.6 228 
L 100.872 227.703505 
L 97.524 227.342781 
L 94.176 226.985488 
L 90.828 226.631579 
L 87.48 226.281005 
L 84.132 225.93372 
L 80.784 225.589676 
L 77.436 225.24883 
L 74.176271 224.92 
L 74.088 224.910694 
L 70.74 224.55938 
L 67.392 224.211286 
L 64.044 223.866368 
L 60.696 223.524583 
L 57.348 223.185887 
L 54 222.85024 
" style="fill:none;stroke:#3e4989;stroke-width:1.5;"/>
    <path clip-path="url(#p4341c8bab7)" d="M 202.294981 239.120006 
L 201.312 239.001361 
L 197.964 238.601769 
L 194.616 238.206611 
L 191.268 237.815815 
L 187.92 237.429307 
L 186.266667 237.24 
L 184.572 237.036298 
L 181.224 236.637152 
L 177.876 236.242316 
L 174.528 235.851721 
L 171.18 235.465299 
L 167.832 235.082982 
L 164.484 234.704706 
L 161.136 234.330407 
L 159.6 234.16 
L 157.788 233.949214 
L 154.44 233.562872 
L 151.092 233.180528 
L 147.744 232.802122 
L 144.396 232.427592 
L 141.048 232.05688 
L 137.7 231.689927 
L 134.352 231.326676 
L 132.059016 231.08 
L 131.004 230.961129 
L 128.017804 230.626877 
" style="fill:none;stroke:#3e4989;stroke-width:1.5;"/>
    <path clip-path="url(#p4341c8bab7)" d="M 388.8 264.3104 
L 385.452 263.793766 
L 382.104 263.28545 
L 378.756 262.785252 
L 375.408 262.29298 
L 372.557746 261.88 
L 372.06 261.803336 
L 368.712 261.292291 
L 365.364 260.789156 
L 362.016 260.293747 
L 358.668 259.80589 
L 355.32 259.325412 
L 351.972 258.852147 
L 351.6 258.8 
L 348.624 258.357377 
L 345.276 257.866383 
L 341.928 257.382597 
L 338.58 256.905862 
L 335.232 256.436026 
L 331.884 255.972939 
L 330.034783 255.72 
L 328.536 255.502887 
L 325.188 255.022868 
L 321.84 254.5496 
L 318.492 254.082941 
L 315.144 253.622753 
L 311.796 253.168902 
L 308.448 252.72126 
L 307.835294 252.64 
L 305.1 252.256453 
L 301.752 251.792746 
L 299.259714 251.452184 
" style="fill:none;stroke:#3e4989;stroke-width:1.5;"/>
    <path clip-path="url(#p4341c8bab7)" d="M 274.993911 248.221287 
L 274.968 248.217856 
L 271.62 247.78013 
L 268.272 247.347937 
L 264.924 246.921173 
L 261.576 246.499736 
L 261.418182 246.48 
L 258.228 246.059498 
L 254.88 245.623507 
L 251.532 245.192858 
L 248.184 244.767453 
L 244.836 244.347198 
L 241.488 243.932 
L 238.14 243.521767 
L 237.138462 243.4 
L 234.792 243.099731 
L 231.444 242.675603 
L 228.096 242.25646 
L 226.596436 242.070919 
" style="fill:none;stroke:#3e4989;stroke-width:1.5;"/>
   </g>
   <g id="LineCollection_4">
    <path clip-path="url(#p4341c8bab7)" d="M 207.986112 280.254435 
L 204.66 279.935945 
L 201.312 279.618957 
L 197.964 279.305506 
L 194.616 278.995533 
L 191.268 278.688982 
L 187.92 278.385795 
L 184.572 278.085918 
L 181.224 277.789296 
L 177.876 277.495877 
L 175.389474 277.28 
L 174.528 277.199141 
L 171.18 276.887003 
L 167.832 276.578182 
L 164.484 276.272625 
L 161.136 275.97028 
L 157.788 275.671098 
L 154.44 275.375029 
L 151.092 275.082024 
L 147.744 274.792037 
L 144.396 274.50502 
L 141.048 274.220929 
L 140.8 274.2 
L 137.7 273.918028 
L 134.352 273.616457 
L 132.517105 273.452839 
" style="fill:none;stroke:#31688e;stroke-width:1.5;"/>
    <path clip-path="url(#p4341c8bab7)" d="M 108.127138 271.355704 
L 107.568 271.309181 
L 105.275676 271.12 
L 104.22 271.026361 
L 100.872 270.731269 
L 97.524 270.438998 
L 94.176 270.149507 
L 90.828 269.862757 
L 87.48 269.57871 
L 84.132 269.297327 
L 80.784 269.018571 
L 77.436 268.742405 
L 74.088 268.468794 
L 70.74 268.197702 
L 68.778082 268.04 
L 67.392 267.920564 
L 64.044 267.633933 
L 60.696 267.349906 
L 57.348 267.068446 
L 54 266.78952 
" style="fill:none;stroke:#31688e;stroke-width:1.5;"/>
    <path clip-path="url(#p4341c8bab7)" d="M 388.8 298.2352 
L 385.452 297.866676 
L 382.104 297.504084 
L 378.756 297.147284 
L 375.408 296.796138 
L 372.06 296.450512 
L 368.712 296.110277 
L 365.364 295.775307 
L 365.209756 295.76 
L 362.016 295.408481 
L 358.668 295.045471 
L 355.32 294.687953 
L 351.972 294.335802 
L 348.624 293.988898 
L 345.276 293.647125 
L 341.928 293.31037 
L 338.58 292.978523 
L 335.525926 292.68 
L 335.232 292.648309 
L 334.471363 292.566937 
" style="fill:none;stroke:#31688e;stroke-width:1.5;"/>
    <path clip-path="url(#p4341c8bab7)" d="M 310.117917 290.082064 
L 308.448 289.92017 
L 305.1 289.6 
L 301.752 289.250903 
L 298.404 288.906484 
L 295.056 288.566651 
L 291.708 288.231312 
L 288.36 287.90038 
L 285.012 287.573766 
L 281.664 287.251389 
L 278.316 286.933165 
L 274.968 286.619016 
L 273.903797 286.52 
L 271.62 286.287748 
L 268.272 285.950892 
L 264.924 285.618267 
L 261.576 285.289794 
L 258.228 284.965396 
L 254.88 284.644997 
L 251.532 284.328524 
L 248.184 284.015906 
L 244.836 283.707071 
L 241.907692 283.44 
L 241.488 283.398329 
L 238.14 283.068149 
L 234.792 282.741894 
L 232.362109 282.507905 
" style="fill:none;stroke:#31688e;stroke-width:1.5;"/>
   </g>
   <g id="LineCollection_5">
    <path clip-path="url(#p4341c8bab7)" d="M 388.8 313.0752 
L 385.452 312.798704 
L 382.104 312.52666 
L 378.756 312.258961 
L 375.408 311.995504 
L 372.06 311.736189 
L 368.712 311.480918 
L 365.364 311.229598 
L 364.427586 311.16 
L 362.016 310.952494 
L 358.668 310.668191 
L 355.32 310.388188 
L 351.972 310.112389 
L 348.624 309.840699 
L 345.276 309.573028 
L 341.928 309.309287 
L 338.58 309.049389 
L 335.232 308.793253 
L 331.884 308.540796 
L 328.536 308.291939 
L 325.646512 308.08 
L 325.188 308.04147 
L 321.84 307.762375 
L 318.492 307.487178 
L 315.144 307.215797 
L 311.796 306.948153 
L 308.448 306.68417 
L 305.1 306.423774 
L 301.752 306.166891 
L 298.404 305.91345 
L 295.056 305.663385 
L 291.708 305.416626 
L 288.36 305.173109 
L 285.952941 305 
L 285.012 304.923168 
L 281.664 304.652058 
L 278.316 304.384441 
L 274.968 304.12025 
L 271.62 303.85942 
L 268.272 303.601888 
L 266.59439 303.474464 
" style="fill:none;stroke:#26828e;stroke-width:1.5;"/>
    <path clip-path="url(#p4341c8bab7)" d="M 242.180893 301.672314 
L 241.488 301.6176 
L 238.14 301.356391 
L 234.792 301.098287 
L 231.444 300.843234 
L 228.096 300.591177 
L 224.748 300.342065 
L 221.4 300.095845 
L 218.052 299.852469 
L 214.704 299.611886 
L 211.356 299.374049 
L 208.008 299.138911 
L 204.66 298.906428 
L 203.696386 298.84 
L 201.312 298.656122 
L 197.964 298.400398 
L 194.616 298.147513 
L 191.268 297.897418 
L 187.92 297.650068 
L 184.572 297.405419 
L 181.224 297.163425 
L 177.876 296.924044 
L 174.528 296.687234 
L 171.18 296.452954 
L 167.832 296.221164 
L 164.484 295.991823 
L 161.136 295.764893 
L 161.063415 295.76 
L 157.788 295.514495 
L 154.44 295.266132 
L 151.092 295.02034 
L 147.744 294.777078 
L 144.396 294.536309 
L 141.048 294.297994 
L 137.7 294.062096 
L 134.352 293.828578 
L 132.952738 293.731961 
" style="fill:none;stroke:#26828e;stroke-width:1.5;"/>
    <path clip-path="url(#p4341c8bab7)" d="M 108.531349 292.040033 
L 107.568 291.971069 
L 104.22 291.733705 
L 100.872 291.498621 
L 97.524 291.265784 
L 94.176 291.035163 
L 90.828 290.806725 
L 87.48 290.58044 
L 84.132 290.356277 
L 80.784 290.134207 
L 77.436 289.914201 
L 74.088 289.69623 
L 72.6 289.6 
L 70.74 289.467662 
L 67.392 289.231153 
L 64.044 288.996801 
L 60.696 288.764577 
L 57.348 288.534453 
L 54 288.3064 
" style="fill:none;stroke:#26828e;stroke-width:1.5;"/>
   </g>
   <g id="LineCollection_6">
    <path clip-path="url(#p4341c8bab7)" d="M 372.266667 320.4 
L 372.06 320.385205 
L 368.712 320.147515 
L 365.364 319.913503 
L 362.016 319.683085 
L 358.668 319.45618 
L 355.32 319.232706 
L 351.972 319.012587 
L 348.624 318.795748 
L 345.276 318.582117 
L 341.928 318.371622 
L 338.58 318.164194 
L 335.232 317.959768 
L 331.884 317.758279 
L 328.536 317.559664 
L 325.188 317.363862 
L 324.431461 317.32 
L 321.84 317.140975 
L 318.492 316.912551 
L 315.144 316.687295 
L 311.796 316.465141 
L 308.448 316.246026 
L 305.1 316.029887 
L 301.752 315.816664 
L 298.404 315.6063 
L 295.056 315.398736 
L 291.708 315.193917 
L 288.36 314.99179 
L 285.012 314.792301 
L 281.664 314.595398 
L 278.316 314.401033 
L 275.509091 314.24 
L 274.968 314.203548 
L 271.62 313.979669 
L 268.272 313.75862 
L 264.924 313.540348 
L 261.576 313.3248 
L 258.228 313.111926 
L 254.88 312.901677 
L 251.532 312.694004 
L 248.184 312.48886 
L 244.836 312.286199 
L 241.488 312.085976 
L 238.14 311.888149 
L 234.792 311.692673 
L 231.444 311.499508 
L 228.096 311.308612 
L 225.462069 311.16 
L 224.748 311.11327 
L 221.4 310.895716 
L 218.052 310.680674 
L 214.704 310.4681 
L 211.356 310.257953 
L 208.008 310.05019 
L 204.66 309.844772 
L 201.312 309.64166 
L 197.964 309.440814 
L 194.616 309.242197 
L 191.268 309.045772 
L 187.92 308.851502 
L 184.572 308.659354 
L 181.224 308.469291 
L 177.876 308.281281 
L 174.528 308.09529 
L 174.251163 308.08 
L 171.18 307.885329 
L 167.832 307.675273 
L 166.547147 307.595512 
" style="fill:none;stroke:#1f9e89;stroke-width:1.5;"/>
    <path clip-path="url(#p4341c8bab7)" d="M 142.11088 306.133242 
L 141.048 306.071896 
L 137.7 305.88062 
L 134.352 305.691274 
L 131.004 305.503828 
L 127.656 305.318255 
L 124.308 305.134527 
L 121.835294 305 
L 120.96 304.945846 
L 117.612 304.739993 
L 114.264 304.536157 
L 110.916 304.334306 
L 107.568 304.134414 
L 104.22 303.93645 
L 100.872 303.740388 
L 97.524 303.546201 
L 94.176 303.35386 
L 90.828 303.163341 
L 87.48 302.974618 
L 86.459095 302.91761 
" style="fill:none;stroke:#1f9e89;stroke-width:1.5;"/>
    <path clip-path="url(#p4341c8bab7)" d="M 62.017258 301.552442 
L 60.696 301.474068 
L 57.348 301.277269 
L 54 301.08224 
" style="fill:none;stroke:#1f9e89;stroke-width:1.5;"/>
   </g>
   <g id="LineCollection_7">
    <path clip-path="url(#p4341c8bab7)" d="M 268.933333 320.4 
L 268.272 320.361933 
L 264.924 320.170666 
L 261.576 319.981786 
L 258.228 319.79525 
L 254.88 319.611014 
L 251.532 319.429035 
L 248.184 319.249272 
L 244.836 319.071685 
L 241.488 318.896235 
L 238.14 318.722884 
L 234.792 318.551593 
L 231.444 318.382327 
L 228.096 318.21505 
L 224.748 318.049726 
L 221.4 317.886323 
L 218.052 317.724806 
L 214.704 317.565143 
L 211.356 317.407302 
L 209.48764 317.32 
L 208.008 317.237504 
L 204.66 317.052359 
L 201.312 316.869291 
L 200.364055 316.818036 
" style="fill:none;stroke:#35b779;stroke-width:1.5;"/>
    <path clip-path="url(#p4341c8bab7)" d="M 175.917192 315.545086 
L 174.528 315.475528 
L 171.18 315.309683 
L 167.832 315.1456 
L 164.484 314.983251 
L 161.136 314.822609 
L 157.788 314.663648 
L 154.44 314.50634 
L 151.092 314.35066 
L 148.690909 314.24 
L 147.744 314.18869 
L 144.396 314.008465 
L 141.048 313.830077 
L 137.7 313.653499 
L 134.352 313.478701 
L 131.004 313.305659 
L 127.656 313.134345 
L 124.308 312.964734 
L 120.96 312.7968 
L 117.612 312.630519 
L 114.264 312.465866 
L 110.916 312.302818 
L 107.568 312.141352 
L 104.22 311.981443 
L 100.872 311.823071 
L 97.524 311.666213 
L 94.176 311.510847 
L 90.828 311.356951 
L 87.48 311.204507 
L 86.496552 311.16 
L 84.132 311.035741 
L 80.784 310.861202 
L 77.436 310.688285 
L 74.088 310.516967 
L 70.74 310.347227 
L 67.392 310.179042 
L 64.044 310.012392 
L 60.696 309.847255 
L 57.348 309.683611 
L 54 309.52144 
" style="fill:none;stroke:#35b779;stroke-width:1.5;"/>
   </g>
   <g id="LineCollection_8">
    <path clip-path="url(#p4341c8bab7)" d="M 165.6 320.4 
L 164.484 320.346285 
L 161.136 320.186271 
L 157.788 320.02793 
L 154.44 319.871237 
L 151.092 319.716166 
L 147.744 319.562691 
L 144.396 319.410789 
L 141.048 319.260435 
L 137.7 319.111606 
L 134.352 318.964278 
L 131.004 318.818429 
L 127.656 318.674038 
L 124.308 318.531081 
L 120.96 318.389538 
L 117.612 318.249389 
L 114.264 318.110612 
L 110.916 317.973187 
L 107.568 317.837095 
L 106.407079 317.79036 
" style="fill:none;stroke:#6ece58;stroke-width:1.5;"/>
    <path clip-path="url(#p4341c8bab7)" d="M 81.949677 316.741602 
L 80.784 316.68892 
L 77.436 316.539012 
L 74.088 316.390492 
L 70.74 316.243339 
L 67.392 316.097535 
L 64.044 315.953061 
L 60.696 315.809899 
L 57.348 315.668031 
L 54 315.52744 
" style="fill:none;stroke:#6ece58;stroke-width:1.5;"/>
   </g>
   <g id="LineCollection_9">
    <path clip-path="url(#p4341c8bab7)" d="M 62.266667 320.4 
L 60.696 320.335043 
L 57.348 320.197503 
L 54 320.0612 
" style="fill:none;stroke:#b5de2b;stroke-width:1.5;"/>
   </g>
   <g id="LineCollection_10"/>
   <g id="patch_3">
    <path d="M 54 320.4 
L 54 43.2 
" style="fill:none;stroke:#000000;stroke-linecap:square;stroke-linejoin:miter;stroke-width:0.8;"/>
   </g>
   <g id="patch_4">
    <path d="M 388.8 320.4 
L 388.8 43.2 
" style="fill:none;stroke:#000000;stroke-linecap:square;stroke-linejoin:miter;stroke-width:0.8;"/>
   </g>
   <g id="patch_5">
    <path d="M 54 320.4 
L 388.8 320.4 
" style="fill:none;stroke:#000000;stroke-linecap:square;stroke-linejoin:miter;stroke-width:0.8;"/>
   </g>
   <g id="patch_6">
    <path d="M 54 43.2 
L 388.8 43.2 
" style="fill:none;stroke:#000000;stroke-linecap:square;stroke-linejoin:miter;stroke-width:0.8;"/>
   </g>
   <g id="text_19">
    <g clip-path="url(#p4341c8bab7)">
     <!-- 0.6 -->
     <g style="fill:#ff0000;" transform="translate(111.595873 89.64601)rotate(-356.855344)scale(0.12 -0.12)">
      <use xlink:href="#SimHei-48"/>
      <use x="50" xlink:href="#SimHei-46"/>
      <use x="100" xlink:href="#SimHei-54"/>
     </g>
    </g>
   </g>
   <g id="text_20">
    <g clip-path="url(#p4341c8bab7)">
     <!-- 0.6 -->
     <g style="fill:#ff0000;" transform="translate(211.913767 95.839006)rotate(-355.872113)scale(0.12 -0.12)">
      <use xlink:href="#SimHei-48"/>
      <use x="50" xlink:href="#SimHei-46"/>
      <use x="100" xlink:href="#SimHei-54"/>
     </g>
    </g>
   </g>
   <g id="text_21">
    <g clip-path="url(#p4341c8bab7)">
     <!-- 2.4 -->
     <g style="fill:#ff0000;" transform="translate(245.165279 305.27569)rotate(-355.805869)scale(0.12 -0.12)">
      <use xlink:href="#SimHei-50"/>
      <use x="50" xlink:href="#SimHei-46"/>
      <use x="100" xlink:href="#SimHei-52"/>
     </g>
    </g>
   </g>
   <g id="text_22">
    <g clip-path="url(#p4341c8bab7)">
     <!-- 1.2 -->
     <g style="fill:#ff0000;" transform="translate(106.541149 231.687723)rotate(-353.859674)scale(0.12 -0.12)">
      <use xlink:href="#SimHei-49"/>
      <use x="50" xlink:href="#SimHei-46"/>
      <use x="100" xlink:href="#SimHei-50"/>
     </g>
    </g>
   </g>
   <g id="text_23">
    <g clip-path="url(#p4341c8bab7)">
     <!-- 1.2 -->
     <g style="fill:#ff0000;" transform="translate(205.104492 242.863878)rotate(-353.082409)scale(0.12 -0.12)">
      <use xlink:href="#SimHei-49"/>
      <use x="50" xlink:href="#SimHei-46"/>
      <use x="100" xlink:href="#SimHei-50"/>
     </g>
    </g>
   </g>
   <g id="text_24">
    <g clip-path="url(#p4341c8bab7)">
     <!-- 0.6 -->
     <g style="fill:#ff0000;" transform="translate(318.975092 104.770689)rotate(-354.202951)scale(0.12 -0.12)">
      <use xlink:href="#SimHei-48"/>
      <use x="50" xlink:href="#SimHei-46"/>
      <use x="100" xlink:href="#SimHei-54"/>
     </g>
    </g>
   </g>
   <g id="text_25">
    <g clip-path="url(#p4341c8bab7)">
     <!-- 1.8 -->
     <g style="fill:#ff0000;" transform="translate(210.904332 283.897941)rotate(-354.739723)scale(0.12 -0.12)">
      <use xlink:href="#SimHei-49"/>
      <use x="50" xlink:href="#SimHei-46"/>
      <use x="100" xlink:href="#SimHei-56"/>
     </g>
    </g>
   </g>
   <g id="text_26">
    <g clip-path="url(#p4341c8bab7)">
     <!-- 1.8 -->
     <g style="fill:#ff0000;" transform="translate(111.067766 274.977317)rotate(-355.087142)scale(0.12 -0.12)">
      <use xlink:href="#SimHei-49"/>
      <use x="50" xlink:href="#SimHei-46"/>
      <use x="100" xlink:href="#SimHei-56"/>
     </g>
    </g>
   </g>
   <g id="text_27">
    <g clip-path="url(#p4341c8bab7)">
     <!-- 1.2 -->
     <g style="fill:#ff0000;" transform="translate(277.760091 251.997908)rotate(-352.423598)scale(0.12 -0.12)">
      <use xlink:href="#SimHei-49"/>
      <use x="50" xlink:href="#SimHei-46"/>
      <use x="100" xlink:href="#SimHei-50"/>
     </g>
    </g>
   </g>
   <g id="text_28">
    <g clip-path="url(#p4341c8bab7)">
     <!-- 4.2 -->
     <g style="fill:#ff0000;" transform="translate(85.040412 320.288984)rotate(-357.543418)scale(0.12 -0.12)">
      <use xlink:href="#SimHei-52"/>
      <use x="50" xlink:href="#SimHei-46"/>
      <use x="100" xlink:href="#SimHei-50"/>
     </g>
    </g>
   </g>
   <g id="text_29">
    <g clip-path="url(#p4341c8bab7)">
     <!-- 2.4 -->
     <g style="fill:#ff0000;" transform="translate(111.529478 295.649222)rotate(-356.044737)scale(0.12 -0.12)">
      <use xlink:href="#SimHei-50"/>
      <use x="50" xlink:href="#SimHei-46"/>
      <use x="100" xlink:href="#SimHei-52"/>
     </g>
    </g>
   </g>
   <g id="text_30">
    <g clip-path="url(#p4341c8bab7)">
     <!-- 1.8 -->
     <g style="fill:#ff0000;" transform="translate(313.001752 293.736723)rotate(-354.173505)scale(0.12 -0.12)">
      <use xlink:href="#SimHei-49"/>
      <use x="50" xlink:href="#SimHei-46"/>
      <use x="100" xlink:href="#SimHei-56"/>
     </g>
    </g>
   </g>
   <g id="text_31">
    <g clip-path="url(#p4341c8bab7)">
     <!-- 3.6 -->
     <g style="fill:#ff0000;" transform="translate(178.977971 319.071123)rotate(-357.019295)scale(0.12 -0.12)">
      <use xlink:href="#SimHei-51"/>
      <use x="50" xlink:href="#SimHei-46"/>
      <use x="100" xlink:href="#SimHei-54"/>
     </g>
    </g>
   </g>
   <g id="text_32">
    <g clip-path="url(#p4341c8bab7)">
     <!-- 3.0 -->
     <g style="fill:#ff0000;" transform="translate(145.144345 309.681788)rotate(-356.575928)scale(0.12 -0.12)">
      <use xlink:href="#SimHei-51"/>
      <use x="50" xlink:href="#SimHei-46"/>
      <use x="100" xlink:href="#SimHei-48"/>
     </g>
    </g>
   </g>
   <g id="text_33">
    <g clip-path="url(#p4341c8bab7)">
     <!-- 3.0 -->
     <g style="fill:#ff0000;" transform="translate(65.064025 305.115251)rotate(-356.816274)scale(0.12 -0.12)">
      <use xlink:href="#SimHei-51"/>
      <use x="50" xlink:href="#SimHei-46"/>
      <use x="100" xlink:href="#SimHei-48"/>
     </g>
    </g>
   </g>
   <g id="text_34">
    <!-- 基本再生数R0 -->
    <defs>
     <path d="M 28.125 71.09375 
Q 28.125 76.5625 27.734375 81.25 
L 35.9375 81.25 
Q 35.546875 76.171875 35.546875 71.09375 
L 63.671875 71.09375 
Q 63.671875 76.5625 63.28125 81.25 
L 71.484375 81.25 
Q 71.09375 76.171875 71.09375 71.09375 
L 76.953125 71.09375 
Q 81.25 71.09375 87.890625 71.484375 
L 87.890625 65.234375 
Q 81.25 65.625 76.953125 65.625 
L 71.09375 65.625 
L 71.09375 34.765625 
L 79.6875 34.765625 
Q 87.5 34.765625 94.140625 35.15625 
L 94.140625 28.125 
Q 87.890625 28.90625 80.078125 28.90625 
L 70.3125 28.90625 
Q 76.171875 22.65625 81.640625 19.328125 
Q 87.109375 16.015625 95.703125 14.0625 
Q 92.1875 9.765625 91.40625 5.46875 
Q 81.25 10.15625 74.015625 16.203125 
Q 66.796875 22.265625 62.5 28.90625 
L 39.0625 28.90625 
Q 34.375 21.484375 26.75 15.625 
Q 19.140625 9.765625 8.59375 5.46875 
Q 7.421875 8.984375 4.296875 12.890625 
Q 10.9375 14.453125 18.9375 18.9375 
Q 26.953125 23.4375 30.46875 28.90625 
L 20.3125 28.90625 
Q 13.28125 28.90625 6.25 28.125 
L 6.25 35.15625 
Q 13.28125 34.765625 20.3125 34.765625 
L 28.125 34.765625 
L 28.125 65.625 
Q 18.75 65.625 12.109375 65.234375 
L 12.109375 71.484375 
Q 18.75 71.09375 25.390625 71.09375 
z
M 46.09375 14.84375 
Q 46.09375 18.75 45.703125 24.609375 
L 54.296875 24.609375 
Q 53.515625 20.3125 53.515625 14.84375 
L 60.9375 14.84375 
Q 66.40625 14.84375 71.484375 15.234375 
L 71.484375 7.8125 
Q 66.40625 8.59375 60.546875 8.59375 
L 53.515625 8.59375 
L 53.515625 -1.5625 
L 70.3125 -1.5625 
Q 79.296875 -1.5625 86.71875 -1.171875 
L 86.71875 -8.203125 
Q 79.296875 -7.8125 70.3125 -7.8125 
L 28.125 -7.8125 
Q 20.3125 -7.8125 13.28125 -8.203125 
L 13.28125 -1.171875 
Q 19.921875 -1.5625 28.125 -1.5625 
L 46.09375 -1.5625 
L 46.09375 8.59375 
L 39.84375 8.59375 
Q 33.203125 8.59375 27.734375 8.203125 
L 27.734375 15.234375 
Q 33.203125 14.84375 39.0625 14.84375 
z
M 63.671875 34.765625 
L 63.671875 41.40625 
L 35.546875 41.40625 
L 35.546875 34.765625 
z
M 63.671875 58.984375 
L 63.671875 65.625 
L 35.546875 65.625 
L 35.546875 58.984375 
z
M 63.671875 47.265625 
L 63.671875 52.734375 
L 35.546875 52.734375 
L 35.546875 47.265625 
z
" id="SimHei-22522"/>
     <path d="M 46.09375 61.328125 
L 46.09375 69.140625 
Q 46.09375 75.390625 45.703125 80.859375 
L 54.296875 80.859375 
Q 53.90625 76.5625 53.90625 69.53125 
L 53.90625 61.328125 
L 75.78125 61.328125 
Q 82.421875 61.328125 91.40625 61.71875 
L 91.40625 54.296875 
Q 82.8125 54.6875 76.171875 54.6875 
L 60.15625 54.6875 
Q 65.625 36.71875 75.96875 26.359375 
Q 86.328125 16.015625 94.921875 12.5 
Q 91.40625 9.765625 88.28125 5.078125 
Q 75 14.0625 66.59375 25.578125 
Q 58.203125 37.109375 53.90625 52.34375 
L 53.90625 15.625 
L 58.984375 15.625 
Q 65.234375 15.625 71.875 16.015625 
L 71.875 8.59375 
Q 65.234375 8.984375 58.59375 8.984375 
L 53.90625 8.984375 
Q 53.90625 0 54.296875 -9.375 
L 45.703125 -9.375 
Q 46.09375 0 46.09375 8.984375 
L 41.015625 8.984375 
Q 34.765625 8.984375 28.515625 8.59375 
L 28.515625 16.015625 
Q 34.765625 15.625 41.015625 15.625 
L 46.09375 15.625 
L 46.09375 51.5625 
Q 39.84375 35.546875 32.21875 24.609375 
Q 24.609375 13.671875 11.71875 2.734375 
Q 8.59375 7.03125 4.296875 8.984375 
Q 17.1875 16.796875 25.78125 28.515625 
Q 34.375 40.234375 39.453125 54.6875 
L 22.265625 54.6875 
Q 16.015625 54.6875 8.984375 54.296875 
L 8.984375 61.71875 
Q 16.015625 61.328125 21.875 61.328125 
z
" id="SimHei-26412"/>
     <path d="M 62.890625 -1.953125 
Q 68.359375 -2.34375 70.890625 -1.953125 
Q 73.4375 -1.5625 73.4375 2.734375 
L 73.4375 13.671875 
L 26.171875 13.671875 
L 26.171875 -10.15625 
L 17.578125 -10.15625 
Q 18.359375 -3.515625 18.359375 3.125 
L 18.359375 13.671875 
Q 9.375 13.671875 3.515625 13.28125 
L 3.515625 20.703125 
Q 8.984375 19.921875 18.359375 19.921875 
L 18.359375 44.140625 
Q 18.359375 52.734375 17.578125 57.8125 
L 46.09375 57.8125 
L 46.09375 69.921875 
L 24.21875 69.921875 
Q 16.40625 69.921875 9.375 69.53125 
L 9.375 76.953125 
Q 16.40625 76.5625 23.828125 76.5625 
L 75.78125 76.5625 
Q 84.765625 76.5625 90.234375 76.953125 
L 90.234375 69.53125 
Q 84.765625 69.921875 75.78125 69.921875 
L 53.90625 69.921875 
L 53.90625 57.8125 
L 81.640625 57.8125 
Q 81.25 52.734375 81.25 42.96875 
L 81.25 19.921875 
Q 91.015625 19.921875 96.875 20.703125 
L 96.875 13.28125 
Q 91.40625 13.671875 81.25 13.671875 
L 81.25 -2.734375 
Q 81.25 -7.421875 77.34375 -8.59375 
Q 73.4375 -9.765625 66.40625 -10.546875 
Q 65.234375 -6.25 62.890625 -1.953125 
z
M 46.09375 38.671875 
L 46.09375 51.953125 
L 26.171875 51.953125 
L 26.171875 38.671875 
z
M 73.4375 38.671875 
L 73.4375 51.953125 
L 53.90625 51.953125 
L 53.90625 38.671875 
z
M 46.09375 19.921875 
L 46.09375 32.8125 
L 26.171875 32.8125 
L 26.171875 19.921875 
z
M 73.4375 19.921875 
L 73.4375 32.8125 
L 53.90625 32.8125 
L 53.90625 19.921875 
z
" id="SimHei-20877"/>
     <path d="M 29.296875 72.65625 
Q 26.953125 69.921875 25.390625 65.8125 
Q 23.828125 61.71875 22.265625 57.8125 
L 45.703125 57.8125 
L 45.703125 71.484375 
Q 45.703125 76.5625 45.3125 81.25 
L 54.296875 81.25 
Q 53.90625 76.953125 53.90625 71.484375 
L 53.90625 57.8125 
L 71.09375 57.8125 
Q 77.34375 57.8125 85.15625 58.203125 
L 85.15625 50.390625 
Q 77.734375 50.78125 71.09375 50.78125 
L 53.90625 50.78125 
L 53.90625 33.203125 
L 66.015625 33.203125 
Q 71.484375 33.203125 79.296875 33.59375 
L 79.296875 25.78125 
Q 71.875 26.171875 66.015625 26.171875 
L 53.90625 26.171875 
L 53.90625 2.734375 
L 77.34375 2.734375 
Q 83.59375 2.734375 91.796875 3.125 
L 91.796875 -4.296875 
Q 83.984375 -3.90625 77.34375 -3.90625 
L 21.09375 -3.90625 
Q 14.453125 -3.90625 7.421875 -4.296875 
L 7.421875 3.125 
Q 14.84375 2.734375 21.09375 2.734375 
L 45.703125 2.734375 
L 45.703125 26.171875 
L 31.25 26.171875 
Q 25.78125 26.171875 19.921875 25.78125 
L 19.921875 33.59375 
Q 25.78125 33.203125 31.25 33.203125 
L 45.703125 33.203125 
L 45.703125 50.78125 
L 19.53125 50.78125 
Q 16.015625 42.578125 12.5 36.71875 
Q 8.203125 38.671875 3.125 39.453125 
Q 7.421875 44.140625 12.296875 54.484375 
Q 17.1875 64.84375 19.140625 76.5625 
L 29.296875 72.65625 
z
" id="SimHei-29983"/>
     <path d="M 46.875 1.953125 
L 37.5 1.953125 
L 23.4375 30.859375 
L 13.28125 30.859375 
L 13.28125 1.953125 
L 4.296875 1.953125 
L 4.296875 68.75 
L 23.828125 68.75 
Q 33.203125 68.75 39.0625 64.25 
Q 44.921875 59.765625 44.921875 49.609375 
Q 44.921875 41.796875 41.015625 37.5 
Q 37.109375 33.203125 32.03125 32.03125 
z
M 35.9375 49.609375 
Q 35.9375 55.078125 32.609375 58.203125 
Q 29.296875 61.328125 21.875 61.328125 
L 13.28125 61.328125 
L 13.28125 38.28125 
L 24.21875 38.28125 
Q 28.90625 38.28125 32.421875 40.8125 
Q 35.9375 43.359375 35.9375 49.609375 
z
" id="SimHei-82"/>
    </defs>
    <g transform="translate(173.4 37.2)scale(0.16 -0.16)">
     <use xlink:href="#SimHei-22522"/>
     <use x="100" xlink:href="#SimHei-26412"/>
     <use x="200" xlink:href="#SimHei-20877"/>
     <use x="300" xlink:href="#SimHei-29983"/>
     <use x="400" xlink:href="#SimHei-25968"/>
     <use x="500" xlink:href="#SimHei-82"/>
     <use x="550" xlink:href="#SimHei-48"/>
    </g>
   </g>
  </g>
 </g>
 <defs>
  <clipPath id="p4341c8bab7">
   <rect height="277.2" width="334.8" x="54" y="43.2"/>
  </clipPath>
 </defs>
</svg>
