<?xml version="1.0" encoding="utf-8" standalone="no"?>
<!DOCTYPE svg PUBLIC "-//W3C//DTD SVG 1.1//EN"
  "http://www.w3.org/Graphics/SVG/1.1/DTD/svg11.dtd">
<!-- Created with matplotlib (https://matplotlib.org/) -->
<svg height="360pt" version="1.1" viewBox="0 0 432 360" width="432pt" xmlns="http://www.w3.org/2000/svg" xmlns:xlink="http://www.w3.org/1999/xlink">
 <defs>
  <style type="text/css">
*{stroke-linecap:butt;stroke-linejoin:round;}
  </style>
 </defs>
 <g id="figure_1">
  <g id="patch_1">
   <path d="M 0 360 
L 432 360 
L 432 0 
L 0 0 
z
" style="fill:#ffffff;"/>
  </g>
  <g id="axes_1">
   <g id="patch_2">
    <path d="M 54 320.4 
L 388.8 320.4 
L 388.8 43.2 
L 54 43.2 
z
" style="fill:#ffffff;"/>
   </g>
   <g id="matplotlib.axis_1">
    <g id="xtick_1">
     <g id="line2d_1">
      <defs>
       <path d="M 0 0 
L 0 3.5 
" id="mdd1a9b0033" style="stroke:#000000;stroke-width:0.8;"/>
      </defs>
      <g>
       <use style="stroke:#000000;stroke-width:0.8;" x="54" xlink:href="#mdd1a9b0033" y="320.4"/>
      </g>
     </g>
     <g id="text_1">
      <!-- 0.0 -->
      <defs>
       <path d="M 3.125 29.296875 
Q 3.90625 50 6.4375 56.046875 
Q 8.984375 62.109375 13.671875 66.015625 
Q 18.359375 69.921875 25.1875 69.921875 
Q 32.03125 69.921875 37.109375 64.25 
Q 42.1875 58.59375 43.75 50 
Q 45.3125 41.40625 44.71875 30.265625 
Q 44.140625 19.140625 40.8125 12.109375 
Q 37.5 5.078125 30.859375 2.34375 
Q 24.21875 -0.390625 17.578125 2.921875 
Q 10.9375 6.25 8.203125 11.71875 
Q 5.46875 17.1875 4.296875 23.234375 
Q 3.125 29.296875 3.90625 50 
z
M 12.890625 52.734375 
Q 10.546875 31.25 12.5 22.84375 
Q 14.453125 14.453125 18.9375 10.9375 
Q 23.4375 7.421875 28.125 9.5625 
Q 32.8125 11.71875 34.953125 18.15625 
Q 37.109375 24.609375 37.109375 32.21875 
Q 37.109375 39.84375 36.515625 46.09375 
Q 35.9375 52.34375 33 57.421875 
Q 30.078125 62.5 25.1875 62.6875 
Q 20.3125 62.890625 16.59375 57.8125 
Q 12.890625 52.734375 10.546875 31.25 
z
" id="SimHei-48"/>
       <path d="M 16.796875 1.953125 
L 7.8125 1.953125 
L 7.8125 10.546875 
L 16.796875 10.546875 
z
" id="SimHei-46"/>
      </defs>
      <g transform="translate(46.5 334.275)scale(0.1 -0.1)">
       <use xlink:href="#SimHei-48"/>
       <use x="50" xlink:href="#SimHei-46"/>
       <use x="100" xlink:href="#SimHei-48"/>
      </g>
     </g>
    </g>
    <g id="xtick_2">
     <g id="line2d_2">
      <g>
       <use style="stroke:#000000;stroke-width:0.8;" x="120.96" xlink:href="#mdd1a9b0033" y="320.4"/>
      </g>
     </g>
     <g id="text_2">
      <!-- 0.2 -->
      <defs>
       <path d="M 4.6875 3.90625 
Q 5.078125 9.765625 10.15625 14.453125 
Q 15.234375 19.140625 23.046875 29.09375 
Q 30.859375 39.0625 33.203125 44.53125 
Q 35.546875 50 34.953125 53.90625 
Q 34.375 57.8125 31.25 60.34375 
Q 28.125 62.890625 24.015625 62.5 
Q 19.921875 62.109375 16.203125 59.375 
Q 12.5 56.640625 10.546875 51.171875 
L 3.125 52.34375 
Q 6.25 61.328125 11.125 65.421875 
Q 16.015625 69.53125 22.65625 69.921875 
Q 26.5625 70.3125 29.6875 69.71875 
Q 32.8125 69.140625 36.125 66.984375 
Q 39.453125 64.84375 41.59375 60.546875 
Q 43.75 56.25 43.15625 50.1875 
Q 42.578125 44.140625 37.109375 35.734375 
Q 31.640625 27.34375 16.015625 9.375 
L 44.140625 9.375 
L 44.140625 2.34375 
L 4.6875 2.34375 
z
" id="SimHei-50"/>
      </defs>
      <g transform="translate(113.46 334.275)scale(0.1 -0.1)">
       <use xlink:href="#SimHei-48"/>
       <use x="50" xlink:href="#SimHei-46"/>
       <use x="100" xlink:href="#SimHei-50"/>
      </g>
     </g>
    </g>
    <g id="xtick_3">
     <g id="line2d_3">
      <g>
       <use style="stroke:#000000;stroke-width:0.8;" x="187.92" xlink:href="#mdd1a9b0033" y="320.4"/>
      </g>
     </g>
     <g id="text_3">
      <!-- 0.4 -->
      <defs>
       <path d="M 31.25 17.1875 
L 1.171875 17.1875 
L 1.171875 23.828125 
L 32.8125 69.53125 
L 38.671875 69.53125 
L 38.671875 23.828125 
L 48.046875 23.828125 
L 48.046875 17.1875 
L 38.671875 17.1875 
L 38.671875 2.34375 
L 31.25 2.34375 
z
M 31.25 23.828125 
L 31.25 54.6875 
L 9.375 23.828125 
z
" id="SimHei-52"/>
      </defs>
      <g transform="translate(180.42 334.275)scale(0.1 -0.1)">
       <use xlink:href="#SimHei-48"/>
       <use x="50" xlink:href="#SimHei-46"/>
       <use x="100" xlink:href="#SimHei-52"/>
      </g>
     </g>
    </g>
    <g id="xtick_4">
     <g id="line2d_4">
      <g>
       <use style="stroke:#000000;stroke-width:0.8;" x="254.88" xlink:href="#mdd1a9b0033" y="320.4"/>
      </g>
     </g>
     <g id="text_4">
      <!-- 0.6 -->
      <defs>
       <path d="M 3.515625 19.53125 
Q 4.296875 30.859375 6.046875 34.765625 
Q 7.8125 38.671875 11.328125 44.53125 
L 27.34375 69.53125 
L 36.328125 69.53125 
L 19.921875 43.75 
Q 30.46875 46.484375 36.71875 42.96875 
Q 42.96875 39.453125 45.109375 34.953125 
Q 47.265625 30.46875 47.453125 25.1875 
Q 47.65625 19.921875 45.890625 14.84375 
Q 44.140625 9.765625 39.640625 5.65625 
Q 35.15625 1.5625 27.140625 1.171875 
Q 19.140625 0.78125 13.46875 4.09375 
Q 7.8125 7.421875 5.65625 13.46875 
Q 3.515625 19.53125 4.296875 30.859375 
z
M 12.5 16.015625 
Q 19.53125 8.59375 25.390625 8.203125 
Q 31.25 7.8125 35.15625 12.109375 
Q 39.0625 16.40625 39.0625 24.609375 
Q 39.0625 32.8125 34.171875 35.9375 
Q 29.296875 39.0625 23.234375 38.28125 
Q 17.1875 37.5 14.453125 32.421875 
Q 11.71875 27.34375 12.109375 21.671875 
Q 12.5 16.015625 19.53125 8.59375 
z
" id="SimHei-54"/>
      </defs>
      <g transform="translate(247.38 334.275)scale(0.1 -0.1)">
       <use xlink:href="#SimHei-48"/>
       <use x="50" xlink:href="#SimHei-46"/>
       <use x="100" xlink:href="#SimHei-54"/>
      </g>
     </g>
    </g>
    <g id="xtick_5">
     <g id="line2d_5">
      <g>
       <use style="stroke:#000000;stroke-width:0.8;" x="321.84" xlink:href="#mdd1a9b0033" y="320.4"/>
      </g>
     </g>
     <g id="text_5">
      <!-- 0.8 -->
      <defs>
       <path d="M 2.734375 16.796875 
Q 2.734375 26.171875 5.078125 30.65625 
Q 7.421875 35.15625 12.890625 37.890625 
Q 8.203125 40.625 6.640625 43.9375 
Q 5.078125 47.265625 4.875 51.5625 
Q 4.6875 55.859375 6.046875 58.984375 
Q 7.421875 62.109375 10.15625 64.84375 
Q 12.890625 67.578125 16.203125 68.546875 
Q 19.53125 69.53125 23.4375 69.53125 
Q 27.34375 69.53125 30.46875 68.75 
Q 33.59375 67.96875 37.109375 65.421875 
Q 40.625 62.890625 42.1875 58.203125 
Q 43.75 53.515625 41.984375 47.265625 
Q 40.234375 41.015625 32.8125 37.5 
Q 39.453125 35.546875 42.1875 31.4375 
Q 44.921875 27.34375 44.921875 21.484375 
Q 44.921875 15.625 43.15625 12.109375 
Q 41.40625 8.59375 39.25 6.25 
Q 37.109375 3.90625 33.390625 2.53125 
Q 29.6875 1.171875 24.015625 1.171875 
Q 18.359375 1.171875 14.25 2.53125 
Q 10.15625 3.90625 7.421875 6.640625 
Q 4.6875 9.375 3.703125 13.078125 
Q 2.734375 16.796875 2.734375 26.171875 
z
M 10.9375 26.5625 
Q 10.546875 17.1875 12.296875 13.671875 
Q 14.0625 10.15625 18.75 9.171875 
Q 23.4375 8.203125 28.515625 9.375 
Q 33.59375 10.546875 35.546875 14.84375 
Q 37.5 19.140625 36.90625 23.4375 
Q 36.328125 27.734375 32.03125 30.65625 
Q 27.734375 33.59375 22.65625 33.203125 
Q 17.578125 32.8125 14.25 29.6875 
Q 10.9375 26.5625 10.546875 17.1875 
z
M 12.109375 56.25 
Q 12.109375 48.4375 14.84375 44.921875 
Q 17.578125 41.40625 23.4375 41.40625 
Q 29.296875 41.40625 32.21875 44.921875 
Q 35.15625 48.4375 34.953125 53.3125 
Q 34.765625 58.203125 31.4375 60.546875 
Q 28.125 62.890625 22.453125 62.5 
Q 16.796875 62.109375 14.453125 59.171875 
Q 12.109375 56.25 12.109375 48.4375 
z
" id="SimHei-56"/>
      </defs>
      <g transform="translate(314.34 334.275)scale(0.1 -0.1)">
       <use xlink:href="#SimHei-48"/>
       <use x="50" xlink:href="#SimHei-46"/>
       <use x="100" xlink:href="#SimHei-56"/>
      </g>
     </g>
    </g>
    <g id="xtick_6">
     <g id="line2d_6">
      <g>
       <use style="stroke:#000000;stroke-width:0.8;" x="388.8" xlink:href="#mdd1a9b0033" y="320.4"/>
      </g>
     </g>
     <g id="text_6">
      <!-- 1.0 -->
      <defs>
       <path d="M 21.875 56.25 
Q 16.796875 51.171875 8.984375 46.484375 
L 8.984375 53.90625 
Q 18.75 60.546875 25 69.53125 
L 29.6875 69.53125 
L 29.6875 2.34375 
L 21.875 2.34375 
z
" id="SimHei-49"/>
      </defs>
      <g transform="translate(381.3 334.275)scale(0.1 -0.1)">
       <use xlink:href="#SimHei-49"/>
       <use x="50" xlink:href="#SimHei-46"/>
       <use x="100" xlink:href="#SimHei-48"/>
      </g>
     </g>
    </g>
    <g id="text_7">
     <!-- 接种后出现症状的概率降低系数（l） -->
     <defs>
      <path d="M 66.015625 35.546875 
Q 64.84375 34.375 62.5 29.6875 
L 87.5 29.6875 
Q 94.53125 30.078125 96.09375 30.078125 
L 96.09375 23.046875 
Q 93.359375 23.4375 88.28125 23.4375 
L 81.640625 23.4375 
Q 78.125 14.453125 73.4375 7.8125 
Q 85.546875 1.953125 94.53125 -2.734375 
Q 93.359375 -3.90625 88.671875 -9.765625 
Q 82.421875 -5.078125 68.359375 2.34375 
Q 62.890625 -2.34375 55.65625 -5.265625 
Q 48.4375 -8.203125 38.28125 -10.15625 
Q 37.890625 -7.03125 34.765625 -3.125 
Q 41.015625 -2.34375 48.046875 -0.578125 
Q 55.078125 1.171875 61.328125 5.46875 
Q 57.8125 7.03125 44.921875 12.5 
Q 47.265625 16.015625 51.171875 23.4375 
L 44.921875 23.4375 
Q 38.671875 23.4375 35.9375 23.046875 
L 35.9375 30.46875 
Q 37.890625 30.078125 44.53125 29.6875 
L 53.90625 29.6875 
Q 56.640625 36.328125 57.03125 39.0625 
Q 63.671875 36.328125 66.015625 35.546875 
z
M 18.359375 61.71875 
L 18.359375 73.4375 
Q 18.359375 75.78125 17.578125 80.078125 
L 26.171875 80.078125 
Q 25.390625 75.78125 25.390625 73.4375 
L 25.390625 61.71875 
Q 29.296875 61.71875 35.15625 62.109375 
L 35.15625 54.6875 
Q 29.296875 55.078125 25.390625 55.078125 
L 25.390625 36.71875 
Q 27.34375 37.890625 34.375 41.015625 
Q 34.375 35.9375 34.765625 33.59375 
Q 27.734375 30.46875 25.390625 29.296875 
L 25.390625 1.171875 
Q 25.390625 -4.296875 22.265625 -6.640625 
Q 19.140625 -8.984375 10.15625 -9.765625 
Q 10.15625 -7.03125 7.03125 -0.390625 
Q 14.84375 -1.5625 16.40625 -0.390625 
Q 17.96875 0.78125 18.359375 4.296875 
L 18.359375 26.5625 
Q 15.234375 25.390625 7.03125 20.703125 
Q 5.078125 26.5625 3.515625 29.296875 
Q 13.28125 31.640625 18.359375 33.984375 
L 18.359375 55.078125 
L 15.625 55.078125 
Q 10.15625 55.078125 4.6875 54.6875 
L 4.6875 62.5 
Q 10.546875 61.71875 15.625 61.71875 
z
M 74.609375 64.0625 
Q 81.25 60.546875 83.59375 59.765625 
Q 81.25 57.8125 76.953125 46.09375 
L 84.765625 46.09375 
Q 91.015625 46.484375 92.96875 46.875 
L 92.96875 39.453125 
Q 90.234375 39.84375 85.546875 39.84375 
L 47.265625 39.84375 
Q 44.53125 39.84375 38.28125 39.453125 
L 38.28125 46.875 
Q 44.140625 46.484375 46.484375 46.09375 
L 69.53125 46.09375 
Q 73.4375 56.640625 74.609375 64.0625 
z
M 61.71875 71.484375 
Q 60.15625 78.125 58.984375 80.46875 
Q 64.453125 81.640625 67.1875 82.421875 
L 70.3125 71.484375 
L 83.59375 71.484375 
Q 89.0625 71.875 92.96875 71.875 
L 92.96875 64.84375 
Q 88.671875 65.234375 83.984375 65.234375 
L 49.609375 65.234375 
Q 43.359375 65.234375 39.0625 64.84375 
L 39.0625 71.875 
Q 42.96875 71.484375 48.4375 71.484375 
z
M 54.296875 15.625 
Q 63.28125 12.5 67.1875 10.15625 
Q 72.265625 17.578125 74.21875 23.4375 
L 59.375 23.4375 
Q 55.859375 18.359375 54.296875 15.625 
z
M 53.515625 61.71875 
Q 58.203125 53.90625 60.15625 50 
Q 53.90625 48.046875 52.34375 46.875 
Q 49.21875 54.296875 46.484375 57.8125 
Q 50.78125 59.765625 53.515625 61.71875 
z
" id="SimHei-25509"/>
      <path d="M 66.015625 62.5 
Q 66.015625 77.734375 65.625 82.421875 
L 73.828125 82.421875 
Q 73.4375 78.125 73.4375 62.5 
L 93.75 62.5 
Q 93.359375 58.203125 93.359375 50.78125 
L 93.359375 24.21875 
Q 93.359375 19.921875 93.75 14.453125 
L 85.9375 14.453125 
L 85.9375 22.265625 
L 73.4375 22.265625 
L 73.4375 5.859375 
Q 73.4375 -4.296875 73.828125 -10.9375 
L 65.625 -10.9375 
Q 66.015625 -4.296875 66.015625 5.859375 
L 66.015625 22.265625 
L 53.515625 22.265625 
L 53.515625 12.890625 
L 45.703125 12.890625 
Q 46.09375 17.578125 46.09375 23.4375 
L 46.09375 50 
Q 46.09375 58.203125 45.703125 62.5 
L 66.015625 62.5 
z
M 5.46875 50.78125 
Q 11.328125 50.390625 19.140625 50.390625 
L 22.265625 50.390625 
L 22.265625 67.578125 
Q 18.359375 66.40625 8.984375 64.453125 
Q 7.421875 67.96875 5.46875 71.484375 
Q 14.0625 71.875 22.0625 74.015625 
Q 30.078125 76.171875 36.71875 79.6875 
Q 39.0625 76.5625 42.578125 72.265625 
Q 38.671875 71.875 35.9375 71.09375 
Q 33.203125 70.3125 29.6875 69.53125 
L 29.6875 50.390625 
Q 34.765625 50.390625 42.1875 50.78125 
L 42.1875 43.75 
Q 34.765625 44.140625 29.6875 44.140625 
L 29.6875 3.515625 
Q 29.6875 -1.953125 30.078125 -10.15625 
L 21.875 -10.15625 
Q 22.265625 -1.953125 22.265625 3.515625 
L 22.265625 29.296875 
Q 19.140625 21.484375 16.59375 16.796875 
Q 14.0625 12.109375 9.765625 5.46875 
Q 6.640625 9.765625 3.90625 13.28125 
Q 9.375 19.140625 13.859375 26.953125 
Q 18.359375 34.765625 20.3125 44.140625 
L 14.453125 44.140625 
Q 8.984375 44.140625 5.46875 43.75 
z
M 66.015625 28.515625 
L 66.015625 56.25 
L 53.515625 56.25 
L 53.515625 28.515625 
z
M 85.9375 28.515625 
L 85.9375 56.25 
L 73.4375 56.25 
L 73.4375 28.515625 
z
M 37.109375 38.671875 
Q 38.28125 35.9375 40.234375 33.203125 
Q 42.1875 30.46875 44.53125 25.390625 
Q 41.015625 23.828125 37.890625 21.484375 
Q 35.9375 25.78125 34.5625 28.703125 
Q 33.203125 31.640625 30.859375 34.765625 
Q 33.203125 36.328125 37.109375 38.671875 
z
" id="SimHei-31181"/>
      <path d="M 85.546875 33.59375 
Q 85.15625 27.34375 85.15625 12.109375 
Q 85.15625 -2.734375 85.9375 -8.59375 
L 77.734375 -8.59375 
L 77.734375 -0.390625 
L 39.453125 -0.390625 
L 39.453125 -9.375 
L 31.640625 -9.375 
Q 32.03125 -2.734375 32.03125 12.109375 
Q 32.03125 27.34375 31.640625 33.59375 
L 85.546875 33.59375 
z
M 80.859375 79.296875 
Q 82.8125 75 86.328125 70.703125 
Q 77.34375 69.921875 58.59375 67.765625 
Q 39.84375 65.625 24.609375 65.234375 
L 24.609375 52.734375 
L 81.25 52.734375 
Q 86.71875 52.734375 93.359375 53.125 
L 93.359375 45.3125 
Q 87.109375 45.703125 81.25 45.703125 
L 24.609375 45.703125 
Q 24.21875 37.890625 23.234375 29.296875 
Q 22.265625 20.703125 19.53125 11.125 
Q 16.796875 1.5625 12.5 -5.078125 
Q 10.15625 -3.125 3.515625 -0.78125 
Q 9.765625 5.078125 12.890625 16.59375 
Q 16.015625 28.125 16.40625 44.140625 
Q 16.796875 60.15625 16.796875 71.484375 
Q 35.9375 71.875 56.640625 74.609375 
Q 77.34375 77.34375 80.859375 79.296875 
z
M 77.734375 5.859375 
L 77.734375 26.953125 
L 39.453125 26.953125 
L 39.453125 5.859375 
z
" id="SimHei-21518"/>
      <path d="M 23.046875 71.09375 
Q 22.65625 66.015625 22.65625 61.71875 
L 22.65625 46.09375 
L 45.703125 46.09375 
L 45.703125 69.140625 
Q 45.703125 74.609375 45.3125 80.078125 
L 53.515625 80.078125 
Q 53.125 75.390625 53.125 69.140625 
L 53.125 46.09375 
L 76.5625 46.09375 
L 76.5625 60.546875 
Q 76.5625 66.796875 76.171875 70.703125 
L 84.375 70.703125 
Q 83.984375 66.796875 83.984375 60.15625 
L 83.984375 49.609375 
Q 83.984375 43.359375 84.375 39.453125 
L 53.125 39.453125 
L 53.125 3.515625 
L 80.078125 3.515625 
L 80.078125 19.921875 
Q 80.078125 25.78125 79.6875 30.078125 
L 87.890625 30.078125 
Q 87.5 25.78125 87.5 20.3125 
L 87.5 2.734375 
Q 87.5 -5.078125 87.890625 -10.15625 
L 80.078125 -10.15625 
L 80.078125 -3.125 
L 10.546875 -3.125 
Q 10.9375 1.5625 10.9375 8.203125 
L 10.9375 19.921875 
Q 10.9375 26.5625 10.546875 30.46875 
L 18.75 30.46875 
Q 18.359375 26.5625 18.359375 19.921875 
L 18.359375 3.515625 
L 45.703125 3.515625 
L 45.703125 39.453125 
L 14.84375 39.453125 
Q 15.234375 43.359375 15.234375 49.21875 
L 15.234375 61.328125 
Q 15.234375 66.40625 14.84375 71.09375 
L 23.046875 71.09375 
z
" id="SimHei-20986"/>
      <path d="M 72.65625 60.15625 
Q 71.09375 55.859375 70.5 46.484375 
Q 69.921875 37.109375 67.96875 26.5625 
L 75.78125 26.5625 
Q 75.390625 22.65625 75.390625 16.015625 
L 75.390625 3.515625 
Q 75.390625 -2.34375 77.53125 -2.734375 
Q 79.6875 -3.125 82.421875 -2.921875 
Q 85.15625 -2.734375 86.328125 -0.1875 
Q 87.5 2.34375 87.890625 8.984375 
Q 91.796875 6.640625 96.484375 5.859375 
Q 94.53125 -2.34375 92.578125 -5.265625 
Q 90.625 -8.203125 84.375 -8.984375 
L 76.5625 -8.984375 
Q 67.96875 -8.984375 67.96875 -1.5625 
L 67.96875 25.78125 
Q 64.453125 13.28125 57.8125 4.875 
Q 51.171875 -3.515625 37.890625 -10.546875 
Q 35.9375 -7.421875 31.25 -5.078125 
Q 43.75 0 49.609375 6.046875 
Q 55.46875 12.109375 58.984375 21.484375 
Q 62.5 30.859375 63.078125 41.015625 
Q 63.671875 51.171875 63.28125 61.328125 
Q 68.359375 60.546875 72.65625 60.15625 
z
M 28.90625 72.265625 
Q 33.203125 72.265625 39.453125 72.65625 
L 39.453125 65.234375 
Q 33.203125 65.625 26.171875 65.625 
L 26.171875 44.140625 
Q 31.640625 44.140625 37.890625 44.53125 
L 37.890625 37.109375 
Q 31.640625 37.5 26.171875 37.5 
L 26.171875 13.671875 
Q 32.8125 15.234375 39.84375 17.578125 
Q 39.453125 13.28125 39.453125 10.15625 
Q 26.5625 7.03125 18.75 4.296875 
Q 10.9375 1.5625 7.03125 -0.390625 
Q 5.859375 5.078125 3.90625 8.984375 
Q 10.15625 9.765625 19.140625 11.71875 
L 19.140625 37.5 
Q 12.890625 37.5 7.03125 37.109375 
L 7.03125 44.53125 
Q 12.890625 44.140625 19.140625 44.140625 
L 19.140625 65.625 
Q 12.109375 65.625 6.640625 65.234375 
L 6.640625 72.65625 
Q 11.328125 72.265625 15.625 72.265625 
z
M 89.84375 76.171875 
Q 89.453125 69.921875 89.453125 63.671875 
L 89.453125 37.5 
Q 89.453125 30.078125 89.84375 24.609375 
L 82.421875 24.609375 
L 82.421875 69.921875 
L 52.734375 69.921875 
L 52.734375 24.21875 
L 45.3125 24.21875 
Q 45.703125 30.859375 45.703125 39.0625 
L 45.703125 60.546875 
Q 45.703125 69.140625 45.3125 76.171875 
L 89.84375 76.171875 
z
" id="SimHei-29616"/>
      <path d="M 77.734375 52.734375 
Q 85.15625 52.734375 93.359375 53.125 
L 93.359375 46.09375 
Q 85.546875 46.484375 77.734375 46.484375 
L 68.359375 46.484375 
L 68.359375 30.078125 
L 77.734375 30.078125 
Q 82.8125 30.078125 91.015625 30.46875 
L 91.015625 23.046875 
Q 83.203125 23.4375 77.734375 23.4375 
L 68.359375 23.4375 
L 68.359375 1.5625 
L 79.6875 1.5625 
Q 86.71875 1.5625 95.703125 1.953125 
L 95.703125 -5.078125 
Q 86.328125 -4.6875 80.078125 -4.6875 
L 44.53125 -4.6875 
Q 37.109375 -4.6875 28.125 -5.078125 
L 28.125 1.953125 
Q 33.59375 1.5625 40.234375 1.5625 
L 40.234375 22.65625 
Q 40.234375 26.953125 39.84375 34.375 
L 48.046875 34.375 
Q 47.65625 28.125 47.65625 22.65625 
L 47.65625 1.5625 
L 60.15625 1.5625 
L 60.15625 46.484375 
L 49.21875 46.484375 
Q 42.578125 46.484375 35.15625 46.09375 
L 35.15625 53.125 
Q 42.578125 52.734375 49.21875 52.734375 
z
M 60.9375 82.421875 
Q 62.5 76.171875 64.453125 69.921875 
L 79.296875 69.921875 
Q 85.546875 69.921875 95.3125 70.3125 
L 95.3125 62.890625 
Q 85.546875 63.28125 79.296875 63.28125 
L 28.90625 63.28125 
L 28.90625 46.09375 
Q 28.90625 36.328125 28.515625 25.96875 
Q 28.125 15.625 25.78125 7.609375 
Q 23.4375 -0.390625 16.796875 -10.9375 
Q 13.671875 -8.59375 8.59375 -6.25 
Q 13.28125 -1.953125 16.40625 4.09375 
Q 19.53125 10.15625 20.5 16.59375 
Q 21.484375 23.046875 21.484375 27.734375 
Q 15.625 23.828125 8.203125 18.75 
Q 6.25 22.65625 3.90625 26.953125 
Q 7.421875 28.125 21.484375 34.375 
L 21.484375 53.90625 
Q 21.484375 62.5 21.09375 69.921875 
L 54.6875 69.921875 
Q 53.515625 75.78125 51.953125 80.46875 
Q 56.25 81.25 60.9375 82.421875 
z
M 8.59375 61.328125 
Q 14.453125 55.078125 20.3125 48.046875 
Q 17.96875 46.484375 14.453125 42.96875 
Q 9.375 50 3.515625 56.25 
Q 6.640625 58.984375 8.59375 61.328125 
z
" id="SimHei-30151"/>
      <path d="M 34.765625 -4.296875 
Q 41.796875 0.390625 46.484375 7.421875 
Q 51.171875 14.453125 53.90625 21.09375 
Q 56.640625 27.734375 57.8125 33.984375 
Q 58.984375 40.234375 59.375 44.921875 
L 50.390625 44.921875 
Q 44.53125 44.921875 39.0625 44.53125 
L 39.0625 51.953125 
Q 44.53125 51.5625 50 51.5625 
L 59.765625 51.5625 
Q 59.765625 62.109375 59.5625 68.359375 
Q 59.375 74.609375 58.984375 79.296875 
L 69.140625 79.296875 
Q 67.96875 74.21875 67.765625 68.9375 
Q 67.578125 63.671875 67.578125 51.5625 
L 83.59375 51.5625 
Q 87.890625 51.5625 93.359375 51.953125 
L 93.359375 44.53125 
Q 87.890625 44.921875 83.59375 44.921875 
L 68.359375 44.921875 
Q 73.046875 22.65625 78.3125 15.03125 
Q 83.59375 7.421875 87.890625 4.09375 
Q 92.1875 0.78125 95.703125 -1.171875 
Q 90.234375 -3.515625 87.890625 -8.203125 
Q 81.640625 -3.125 77.921875 1.75 
Q 74.21875 6.640625 71.671875 11.328125 
Q 69.140625 16.015625 67.375 20.890625 
Q 65.625 25.78125 64.453125 31.25 
Q 62.5 21.875 59.5625 15.234375 
Q 56.640625 8.59375 53.515625 3.703125 
Q 50.390625 -1.171875 42.96875 -9.765625 
Q 39.453125 -6.25 34.765625 -4.296875 
z
M 34.765625 81.25 
Q 34.375 75.390625 34.375 66.40625 
L 34.375 12.109375 
Q 34.375 0.78125 34.765625 -9.765625 
L 26.171875 -9.765625 
Q 26.5625 1.171875 26.5625 12.109375 
L 26.5625 30.46875 
Q 23.828125 27.34375 18.75 21.09375 
Q 13.671875 14.84375 10.9375 11.71875 
Q 7.8125 15.625 4.296875 17.96875 
Q 8.984375 21.484375 14.25 26.75 
Q 19.53125 32.03125 26.5625 40.625 
L 26.5625 66.40625 
Q 26.5625 75.390625 26.171875 81.25 
L 34.765625 81.25 
z
M 9.765625 67.578125 
Q 12.5 64.453125 15.625 60.546875 
Q 18.75 56.640625 21.484375 52.734375 
Q 18.359375 50.390625 16.40625 48.046875 
Q 13.28125 52.34375 3.90625 63.28125 
Q 6.25 65.234375 9.765625 67.578125 
z
M 85.546875 57.03125 
Q 82.03125 62.109375 73.4375 69.921875 
Q 76.5625 72.265625 78.515625 74.21875 
Q 82.03125 71.484375 84.765625 68.546875 
Q 87.5 65.625 91.015625 62.109375 
Q 87.890625 59.375 85.546875 57.03125 
z
" id="SimHei-29366"/>
      <path d="M 32.8125 77.734375 
Q 30.859375 74.21875 27.34375 61.71875 
L 44.921875 61.71875 
Q 44.53125 55.078125 44.53125 44.921875 
L 44.53125 10.546875 
Q 44.53125 4.6875 44.921875 -6.25 
L 37.109375 -6.25 
L 37.109375 1.5625 
L 17.1875 1.5625 
L 17.1875 -7.03125 
L 9.375 -7.03125 
Q 9.765625 5.46875 9.765625 8.59375 
L 9.765625 44.53125 
Q 9.765625 55.078125 9.375 61.71875 
L 20.703125 61.71875 
Q 22.65625 70.703125 23.828125 80.46875 
Q 29.296875 78.515625 32.8125 77.734375 
z
M 91.015625 48.046875 
Q 90.625 24.21875 89.0625 2.734375 
Q 88.28125 -4.296875 81.640625 -6.640625 
Q 75 -8.984375 66.796875 -9.765625 
Q 66.40625 -5.46875 63.28125 -0.78125 
Q 71.09375 -1.171875 75.578125 -0.390625 
Q 80.078125 0.390625 81.25 3.125 
Q 82.421875 5.859375 83 19.140625 
Q 83.59375 32.421875 83.984375 56.25 
L 61.328125 56.25 
Q 58.203125 48.828125 52.34375 38.671875 
Q 49.609375 41.40625 45.703125 42.96875 
Q 49.21875 47.65625 52.34375 54.296875 
Q 55.46875 60.9375 57.8125 68.75 
Q 60.15625 76.5625 60.546875 80.859375 
Q 66.015625 78.515625 69.921875 77.34375 
Q 67.96875 74.21875 66.59375 70.5 
Q 65.234375 66.796875 63.671875 63.28125 
L 91.40625 63.28125 
Q 91.015625 55.078125 91.015625 48.046875 
z
M 37.109375 8.203125 
L 37.109375 28.90625 
L 17.1875 28.90625 
L 17.1875 8.203125 
z
M 37.109375 35.546875 
L 37.109375 55.078125 
L 17.1875 55.078125 
L 17.1875 35.546875 
z
M 67.96875 32.03125 
Q 70.3125 27.34375 73.4375 19.921875 
Q 70.703125 18.75 66.015625 16.015625 
Q 63.28125 23.4375 60.9375 28.703125 
Q 58.59375 33.984375 56.25 37.5 
Q 58.984375 39.0625 63.28125 41.40625 
z
" id="SimHei-30340"/>
      <path d="M 48.4375 17.96875 
Q 46.875 21.09375 45.3125 23.046875 
Q 48.046875 25 51.171875 26.953125 
Q 53.515625 23.046875 55.265625 19.71875 
Q 57.03125 16.40625 59.765625 11.71875 
Q 57.421875 9.765625 53.515625 7.03125 
Q 52.734375 9.375 51.171875 12.5 
Q 48.046875 9.765625 43.359375 6.4375 
Q 38.671875 3.125 35.15625 -0.78125 
Q 32.421875 3.125 30.078125 5.46875 
Q 32.8125 8.203125 33.203125 13.671875 
L 33.203125 62.5 
Q 33.203125 69.140625 32.8125 73.4375 
L 55.859375 73.4375 
Q 55.46875 67.578125 55.46875 54.296875 
Q 55.46875 41.40625 55.859375 34.375 
L 39.84375 34.375 
L 39.84375 11.71875 
Q 42.578125 13.28125 48.4375 17.96875 
z
M 51.953125 -10.9375 
Q 50 -7.8125 46.09375 -5.078125 
Q 53.125 -1.171875 60.15625 9.953125 
Q 67.1875 21.09375 70.3125 36.71875 
L 59.375 36.71875 
Q 59.765625 42.578125 59.765625 48.046875 
Q 59.765625 53.515625 59.375 58.59375 
L 66.796875 58.59375 
Q 66.015625 55.46875 66.015625 50.78125 
L 66.015625 42.578125 
L 71.875 42.578125 
Q 73.046875 54.6875 73.046875 68.75 
L 69.140625 68.75 
Q 63.671875 68.75 59.375 68.359375 
L 59.375 75 
Q 64.0625 74.609375 69.140625 74.609375 
L 80.46875 74.609375 
Q 87.890625 74.609375 91.40625 75 
L 91.40625 68.359375 
Q 88.28125 68.75 79.6875 68.75 
Q 79.6875 57.8125 78.515625 42.578125 
L 83.984375 42.578125 
Q 87.5 42.578125 92.578125 42.96875 
L 92.578125 36.328125 
Q 87.5 36.71875 84.765625 36.71875 
L 77.34375 36.71875 
Q 72.265625 16.796875 66.984375 7.21875 
Q 61.71875 -2.34375 51.953125 -10.9375 
z
M 15.625 69.140625 
Q 15.625 74.21875 15.234375 78.90625 
L 23.046875 78.90625 
Q 22.265625 73.828125 22.265625 67.1875 
L 22.265625 59.375 
Q 25.390625 59.375 30.078125 59.765625 
L 30.078125 53.125 
Q 25 53.515625 22.265625 53.515625 
L 22.265625 41.40625 
Q 24.21875 42.578125 26.5625 44.140625 
Q 29.6875 36.71875 32.421875 29.296875 
Q 28.90625 28.515625 26.5625 26.5625 
Q 25 32.03125 22.265625 38.28125 
L 22.265625 4.6875 
Q 22.265625 -1.953125 22.65625 -8.984375 
L 15.234375 -8.984375 
Q 15.625 -0.78125 15.625 4.6875 
L 15.625 31.640625 
Q 12.890625 22.65625 8.59375 14.84375 
Q 7.03125 17.96875 2.734375 21.09375 
Q 7.8125 28.515625 10.34375 35.546875 
Q 12.890625 42.578125 14.84375 53.515625 
Q 7.8125 53.515625 5.46875 53.125 
L 5.46875 59.765625 
Q 8.59375 59.375 15.625 59.375 
z
M 82.8125 26.953125 
Q 82.421875 16.40625 82.421875 3.515625 
Q 82.421875 -0.78125 84.5625 -1.171875 
Q 86.71875 -1.5625 87.890625 -1.359375 
Q 89.0625 -1.171875 89.640625 0.578125 
Q 90.234375 2.34375 90.234375 7.421875 
Q 93.75 5.46875 97.65625 4.6875 
Q 96.09375 -3.515625 94.53125 -5.46875 
Q 92.96875 -7.421875 88.28125 -7.421875 
L 83.59375 -7.421875 
Q 75 -7.03125 75.78125 0.78125 
Q 75.78125 14.453125 75.78125 26.953125 
L 82.8125 26.953125 
z
M 48.828125 40.234375 
L 48.828125 51.171875 
L 39.84375 51.171875 
L 39.84375 40.234375 
z
M 48.828125 57.03125 
L 48.828125 67.578125 
L 39.84375 67.578125 
L 39.84375 57.03125 
z
" id="SimHei-27010"/>
      <path d="M 51.953125 80.46875 
Q 53.515625 76.5625 55.46875 70.703125 
L 75 70.703125 
Q 82.03125 70.703125 90.625 71.09375 
L 90.625 64.453125 
Q 82.03125 65.234375 74.609375 65.234375 
L 43.75 65.234375 
Q 46.484375 63.28125 51.5625 60.9375 
Q 48.046875 58.59375 44.921875 55.265625 
Q 41.796875 51.953125 38.671875 48.828125 
L 51.171875 48.828125 
Q 55.859375 53.515625 58.984375 58.984375 
Q 62.5 56.25 66.796875 53.515625 
Q 61.71875 50.78125 56.25 44.921875 
Q 50.78125 39.0625 41.015625 31.25 
L 60.15625 32.8125 
Q 58.203125 35.15625 56.25 37.890625 
Q 58.59375 38.671875 62.5 41.40625 
Q 66.40625 36.71875 73.4375 26.5625 
Q 69.921875 25.390625 66.015625 22.65625 
Q 65.234375 25 62.890625 27.734375 
Q 57.8125 27.34375 53.515625 27.34375 
L 53.515625 16.40625 
L 80.46875 16.40625 
Q 88.671875 16.40625 95.3125 16.796875 
L 95.3125 10.15625 
Q 89.0625 10.546875 80.078125 10.546875 
L 53.515625 10.546875 
L 53.515625 2.734375 
Q 53.515625 -4.6875 53.90625 -9.765625 
L 45.3125 -9.765625 
Q 45.703125 -4.6875 45.703125 2.734375 
L 45.703125 10.546875 
L 20.703125 10.546875 
Q 12.890625 10.546875 5.078125 10.15625 
L 5.078125 16.796875 
Q 12.890625 16.40625 21.09375 16.40625 
L 45.703125 16.40625 
L 45.703125 26.5625 
Q 42.1875 26.171875 38.671875 25.578125 
Q 35.15625 25 31.640625 23.828125 
Q 30.46875 27.734375 28.90625 31.25 
Q 32.421875 31.640625 36.328125 34.375 
Q 40.234375 37.109375 46.484375 43.75 
Q 35.9375 42.578125 31.640625 41.015625 
Q 30.859375 44.921875 28.90625 49.609375 
Q 32.421875 49.609375 36.328125 54.484375 
Q 40.234375 59.375 42.96875 65.234375 
L 26.5625 65.234375 
Q 17.96875 65.234375 10.15625 64.453125 
L 10.15625 71.09375 
Q 17.96875 70.703125 24.21875 70.703125 
L 46.484375 70.703125 
Q 45.3125 75.390625 43.75 78.515625 
Q 47.265625 79.296875 51.953125 80.46875 
z
M 25.390625 40.234375 
Q 26.953125 37.5 28.515625 34.375 
Q 24.609375 32.03125 20.703125 29.09375 
Q 16.796875 26.171875 12.5 22.265625 
Q 9.765625 26.171875 7.421875 29.296875 
Q 12.5 31.640625 17.1875 34.5625 
Q 21.875 37.5 25.390625 40.234375 
z
M 75.78125 41.40625 
Q 80.078125 38.671875 83.390625 36.515625 
Q 86.71875 34.375 91.796875 30.46875 
Q 88.671875 28.125 85.9375 25 
Q 82.8125 27.734375 79.09375 30.859375 
Q 75.390625 33.984375 71.484375 36.328125 
Q 73.828125 38.671875 75.78125 41.40625 
z
M 89.453125 55.078125 
Q 86.71875 53.90625 82.8125 50.96875 
Q 78.90625 48.046875 75 44.140625 
Q 72.265625 47.65625 69.921875 49.609375 
Q 73.4375 51.953125 76.171875 54.484375 
Q 78.90625 57.03125 82.8125 61.328125 
Q 86.328125 57.8125 89.453125 55.078125 
z
M 16.40625 60.15625 
Q 22.265625 56.25 27.734375 51.171875 
Q 24.609375 48.4375 22.265625 45.703125 
Q 16.796875 51.5625 10.546875 55.078125 
Q 13.671875 57.8125 16.40625 60.15625 
z
" id="SimHei-29575"/>
      <path d="M 63.671875 78.90625 
Q 60.15625 75 58.984375 72.265625 
L 88.28125 72.265625 
Q 84.765625 65.234375 81.046875 59.953125 
Q 77.34375 54.6875 72.65625 50 
Q 76.5625 47.265625 82.421875 45.703125 
Q 88.28125 44.140625 96.875 43.75 
Q 94.140625 39.453125 93.359375 35.9375 
Q 83.984375 37.5 77.34375 40.03125 
Q 70.703125 42.578125 66.796875 45.3125 
Q 61.71875 42.1875 55.46875 39.0625 
Q 49.21875 35.9375 39.453125 33.203125 
Q 38.28125 36.71875 35.15625 39.84375 
Q 43.359375 41.40625 50.1875 44.140625 
Q 57.03125 46.875 60.546875 50 
Q 55.46875 55.078125 51.953125 60.546875 
Q 46.875 53.90625 44.140625 51.171875 
Q 41.40625 53.90625 38.28125 55.46875 
Q 43.359375 60.15625 48.046875 67.578125 
Q 52.734375 75 55.859375 82.8125 
Q 61.71875 79.6875 63.671875 78.90625 
z
M 36.71875 77.734375 
Q 34.765625 72.65625 31.640625 63.46875 
Q 28.515625 54.296875 26.171875 46.484375 
Q 32.421875 38.28125 34.375 33.984375 
Q 36.328125 29.6875 35.734375 24.21875 
Q 35.15625 18.75 31.4375 15.8125 
Q 27.734375 12.890625 21.09375 12.109375 
Q 20.3125 16.015625 17.96875 20.703125 
Q 25.78125 20.3125 27.140625 23.625 
Q 28.515625 26.953125 27.921875 30.65625 
Q 27.34375 34.375 18.75 45.703125 
L 22.65625 56.25 
Q 25 62.890625 26.953125 71.09375 
L 15.234375 71.09375 
L 15.234375 -9.375 
L 7.8125 -9.375 
Q 8.203125 5.078125 8.203125 13.671875 
L 8.203125 58.59375 
Q 8.203125 67.578125 7.8125 77.734375 
L 36.71875 77.734375 
z
M 79.6875 32.421875 
Q 82.421875 32.421875 89.453125 32.8125 
L 89.453125 25.78125 
Q 85.15625 26.171875 80.46875 26.171875 
L 71.484375 26.171875 
L 71.484375 14.0625 
L 81.25 14.0625 
Q 88.671875 14.0625 94.53125 14.453125 
L 94.53125 7.421875 
Q 89.0625 7.8125 81.640625 7.8125 
L 71.484375 7.8125 
L 71.484375 1.953125 
Q 71.484375 -3.90625 71.875 -9.375 
L 64.0625 -9.375 
Q 64.453125 -3.515625 64.453125 1.5625 
L 64.453125 7.8125 
L 37.109375 7.8125 
Q 39.0625 17.1875 39.0625 21.875 
L 47.265625 20.703125 
Q 45.703125 16.015625 45.703125 14.0625 
L 64.453125 14.0625 
L 64.453125 26.171875 
L 54.296875 26.171875 
Q 48.4375 26.171875 43.359375 25.78125 
L 43.359375 32.8125 
Q 50.390625 32.421875 54.296875 32.421875 
L 64.453125 32.421875 
Q 64.453125 37.109375 64.0625 41.015625 
L 71.484375 41.015625 
Q 71.09375 34.765625 71.09375 32.421875 
z
M 66.796875 54.296875 
Q 71.875 58.203125 76.953125 66.40625 
L 55.46875 66.40625 
Q 62.890625 57.03125 66.796875 54.296875 
z
" id="SimHei-38477"/>
      <path d="M 35.9375 71.09375 
Q 42.96875 70.703125 58.59375 72.453125 
Q 74.21875 74.21875 82.421875 78.125 
Q 84.765625 73.828125 87.5 69.921875 
Q 80.078125 68.75 67.96875 67.1875 
Q 67.96875 59.765625 68.75 44.53125 
L 78.125 44.53125 
Q 84.765625 44.53125 91.40625 44.921875 
L 91.40625 37.890625 
Q 84.765625 38.28125 78.515625 38.28125 
L 69.53125 38.28125 
Q 71.484375 20.703125 75.96875 11.90625 
Q 80.46875 3.125 83.203125 1.171875 
Q 85.9375 -0.78125 86.90625 1.953125 
Q 87.890625 4.6875 88.671875 12.109375 
Q 92.578125 8.984375 96.09375 8.203125 
Q 93.75 -1.5625 91.40625 -5.265625 
Q 89.0625 -8.984375 83.59375 -7.8125 
Q 78.125 -6.640625 71.671875 4.09375 
Q 65.234375 14.84375 62.5 38.28125 
L 43.359375 38.28125 
L 43.359375 7.8125 
Q 51.171875 14.84375 55.859375 19.921875 
Q 57.421875 15.234375 58.984375 12.5 
Q 43.359375 -0.78125 39.0625 -5.46875 
Q 36.328125 -2.734375 33.984375 0.390625 
Q 35.9375 2.34375 36.328125 7.8125 
L 36.328125 58.203125 
Q 36.328125 63.671875 35.9375 71.09375 
z
M 32.03125 79.296875 
Q 29.6875 76.5625 25 61.71875 
L 25 6.640625 
Q 25 -1.171875 25.390625 -9.765625 
L 17.1875 -9.765625 
Q 17.578125 -1.171875 17.578125 7.03125 
L 17.578125 47.265625 
Q 13.671875 39.0625 9.765625 33.203125 
Q 6.25 36.71875 3.515625 37.890625 
Q 9.375 45.3125 15.03125 57.609375 
Q 20.703125 69.921875 23.4375 82.421875 
Q 24.609375 81.25 32.03125 79.296875 
z
M 61.71875 44.53125 
Q 60.9375 58.984375 60.9375 66.015625 
Q 48.828125 65.234375 43.359375 64.84375 
L 43.359375 44.53125 
z
M 60.15625 -9.765625 
Q 53.90625 -1.171875 50.78125 1.5625 
Q 53.90625 4.296875 55.859375 6.640625 
Q 61.328125 0.78125 66.015625 -4.6875 
Q 62.890625 -7.03125 60.15625 -9.765625 
z
" id="SimHei-20302"/>
      <path d="M 82.8125 81.25 
Q 85.15625 77.34375 89.453125 73.046875 
Q 77.734375 72.65625 69.328125 71.671875 
Q 60.9375 70.703125 48.828125 69.53125 
Q 50.78125 67.578125 54.296875 66.015625 
Q 49.21875 62.890625 44.328125 58.78125 
Q 39.453125 54.6875 34.765625 51.171875 
L 54.296875 51.171875 
Q 64.0625 57.8125 70.703125 63.28125 
Q 74.609375 60.15625 80.078125 57.8125 
Q 74.609375 55.46875 69.53125 52.734375 
Q 64.453125 50 52.921875 42.765625 
Q 41.40625 35.546875 33.203125 30.859375 
Q 56.25 32.03125 76.171875 32.8125 
Q 74.21875 34.765625 66.015625 41.015625 
Q 69.921875 42.578125 72.65625 44.921875 
Q 77.34375 41.40625 83.390625 36.125 
Q 89.453125 30.859375 94.921875 25.78125 
Q 90.234375 23.046875 87.5 20.703125 
Q 84.375 24.609375 81.640625 26.953125 
Q 71.09375 26.5625 56.640625 25.78125 
L 56.640625 2.34375 
Q 56.640625 -5.078125 52.921875 -6.4375 
Q 49.21875 -7.8125 39.453125 -9.375 
Q 38.671875 -4.6875 35.9375 -0.390625 
Q 44.921875 -0.390625 47.0625 0.1875 
Q 49.21875 0.78125 49.21875 4.6875 
L 49.21875 25.78125 
Q 25.390625 25.390625 16.796875 23.828125 
Q 15.625 27.734375 14.0625 32.03125 
Q 22.65625 32.8125 29.296875 35.9375 
Q 35.9375 39.0625 45.3125 45.3125 
Q 36.328125 45.3125 31.828125 44.921875 
Q 27.34375 44.53125 21.875 43.75 
Q 20.703125 48.046875 19.53125 51.953125 
Q 26.171875 51.953125 32.8125 57.21875 
Q 39.453125 62.5 42.96875 68.75 
Q 21.09375 67.96875 14.453125 67.1875 
Q 13.28125 71.09375 11.71875 74.21875 
Q 33.59375 74.21875 50.78125 75.78125 
Q 67.96875 77.34375 82.8125 81.25 
z
M 72.265625 19.53125 
Q 76.953125 16.015625 83.203125 11.515625 
Q 89.453125 7.03125 93.75 2.734375 
Q 90.625 0 87.5 -3.515625 
Q 82.421875 1.953125 76.953125 6.25 
Q 71.484375 10.546875 66.796875 13.671875 
Q 70.3125 16.40625 72.265625 19.53125 
z
M 34.375 13.671875 
Q 29.6875 11.328125 24.015625 5.859375 
Q 18.359375 0.390625 12.5 -4.6875 
Q 8.984375 -1.171875 5.859375 0.390625 
Q 16.796875 7.03125 26.171875 19.140625 
Q 29.6875 16.40625 34.375 13.671875 
z
" id="SimHei-31995"/>
      <path d="M 70.703125 76.953125 
Q 69.921875 75 68.75 71.671875 
Q 67.578125 68.359375 65.234375 59.765625 
L 83.203125 59.765625 
Q 87.109375 59.765625 92.578125 60.15625 
L 92.578125 53.125 
Q 88.28125 53.515625 85.9375 53.515625 
Q 85.9375 47.265625 83.78125 33.78125 
Q 81.640625 20.3125 76.171875 10.546875 
Q 80.078125 5.859375 84.953125 2.140625 
Q 89.84375 -1.5625 94.140625 -3.125 
Q 89.453125 -6.640625 87.890625 -9.765625 
Q 83.203125 -7.03125 79.296875 -3.515625 
Q 75.390625 0 71.484375 5.078125 
Q 67.1875 0.390625 62.296875 -2.921875 
Q 57.421875 -6.25 50 -10.15625 
Q 48.046875 -6.640625 44.53125 -4.6875 
Q 50.390625 -2.34375 57.03125 1.953125 
Q 63.671875 6.25 67.1875 10.546875 
Q 64.453125 16.015625 61.90625 22.265625 
Q 59.375 28.515625 57.421875 38.671875 
Q 56.25 35.546875 53.515625 30.46875 
Q 50.78125 32.03125 46.875 33.59375 
Q 53.125 44.53125 57.03125 57.421875 
Q 60.9375 70.3125 62.109375 79.6875 
Q 66.796875 77.734375 70.703125 76.953125 
z
M 32.8125 35.15625 
Q 31.25 33.59375 29.296875 30.078125 
L 50.78125 30.078125 
Q 48.4375 20.3125 42.578125 10.546875 
Q 48.828125 8.203125 52.34375 6.25 
Q 50.390625 3.515625 48.828125 0.390625 
Q 45.3125 2.734375 38.28125 5.078125 
Q 30.46875 -3.515625 11.328125 -10.15625 
Q 9.375 -5.859375 6.25 -4.296875 
Q 24.609375 0 31.25 7.421875 
Q 20.3125 10.15625 13.28125 12.109375 
Q 15.625 15.625 19.53125 23.828125 
Q 15.625 23.828125 6.640625 23.4375 
L 6.640625 30.46875 
Q 14.0625 30.078125 21.875 30.078125 
Q 23.4375 33.59375 24.21875 37.890625 
Q 28.515625 36.328125 32.8125 35.15625 
z
M 27.734375 61.71875 
Q 27.734375 71.09375 27.34375 79.6875 
L 35.15625 79.6875 
Q 34.765625 71.484375 34.765625 61.71875 
Q 48.046875 61.71875 53.515625 62.109375 
L 53.515625 55.078125 
Q 48.046875 55.46875 34.765625 55.46875 
Q 34.765625 44.140625 35.15625 37.890625 
L 27.34375 37.890625 
Q 27.734375 43.359375 27.734375 51.5625 
Q 25.78125 48.4375 20.3125 43.546875 
Q 14.84375 38.671875 10.15625 35.9375 
Q 8.203125 39.453125 4.296875 41.015625 
Q 7.8125 42.1875 13.671875 46.484375 
Q 19.53125 50.78125 22.65625 55.46875 
Q 14.84375 55.46875 7.8125 55.078125 
L 7.8125 62.109375 
Q 14.453125 61.71875 27.734375 61.71875 
z
M 62.109375 49.609375 
Q 65.625 26.5625 71.875 17.578125 
Q 75.78125 26.5625 77.140625 35.734375 
Q 78.515625 44.921875 78.90625 53.515625 
L 63.671875 53.515625 
L 62.109375 49.609375 
z
M 22.65625 15.625 
Q 27.34375 14.453125 35.546875 12.5 
Q 38.671875 16.40625 41.40625 23.828125 
L 26.953125 23.828125 
Q 25 19.921875 22.65625 15.625 
z
M 51.953125 75.390625 
Q 50 72.265625 48.828125 69.53125 
Q 47.65625 66.796875 45.703125 62.890625 
Q 42.578125 64.453125 39.453125 65.234375 
Q 42.578125 70.3125 45.3125 78.125 
Q 49.21875 76.171875 51.953125 75.390625 
z
M 40.234375 52.734375 
Q 45.3125 47.65625 50 42.578125 
Q 47.65625 40.625 44.921875 37.890625 
Q 39.453125 44.53125 35.9375 48.4375 
Q 38.28125 50.390625 40.234375 52.734375 
z
M 14.453125 78.125 
Q 19.921875 72.65625 23.4375 67.1875 
L 17.578125 63.671875 
Q 14.84375 69.140625 9.375 73.828125 
Q 12.890625 76.171875 14.453125 78.125 
z
" id="SimHei-25968"/>
      <path d="M 84.765625 79.6875 
L 89.0625 74.609375 
Q 66.796875 58.203125 67.578125 36.71875 
Q 67.96875 16.015625 88.671875 0.78125 
L 84.375 -4.296875 
Q 60.546875 12.890625 61.328125 39.0625 
Q 61.328125 60.546875 84.765625 79.6875 
z
" id="SimHei-65288"/>
      <path d="M 28.515625 1.953125 
L 20.703125 1.953125 
L 20.703125 68.75 
L 28.515625 68.75 
z
" id="SimHei-108"/>
      <path d="M 15.625 79.6875 
Q 39.0625 60.546875 39.0625 39.0625 
Q 39.84375 12.890625 16.015625 -4.296875 
L 11.71875 0.78125 
Q 32.421875 16.015625 32.8125 36.71875 
Q 33.59375 58.203125 11.328125 74.609375 
L 15.625 79.6875 
z
" id="SimHei-65289"/>
     </defs>
     <g transform="translate(138.9 347.65)scale(0.1 -0.1)">
      <use xlink:href="#SimHei-25509"/>
      <use x="100" xlink:href="#SimHei-31181"/>
      <use x="200" xlink:href="#SimHei-21518"/>
      <use x="300" xlink:href="#SimHei-20986"/>
      <use x="400" xlink:href="#SimHei-29616"/>
      <use x="500" xlink:href="#SimHei-30151"/>
      <use x="600" xlink:href="#SimHei-29366"/>
      <use x="700" xlink:href="#SimHei-30340"/>
      <use x="800" xlink:href="#SimHei-27010"/>
      <use x="900" xlink:href="#SimHei-29575"/>
      <use x="1000" xlink:href="#SimHei-38477"/>
      <use x="1100" xlink:href="#SimHei-20302"/>
      <use x="1200" xlink:href="#SimHei-31995"/>
      <use x="1300" xlink:href="#SimHei-25968"/>
      <use x="1400" xlink:href="#SimHei-65288"/>
      <use x="1500" xlink:href="#SimHei-108"/>
      <use x="1550" xlink:href="#SimHei-65289"/>
     </g>
    </g>
   </g>
   <g id="matplotlib.axis_2">
    <g id="ytick_1">
     <g id="line2d_7">
      <defs>
       <path d="M 0 0 
L -3.5 0 
" id="m2e17a1400f" style="stroke:#000000;stroke-width:0.8;"/>
      </defs>
      <g>
       <use style="stroke:#000000;stroke-width:0.8;" x="54" xlink:href="#m2e17a1400f" y="320.4"/>
      </g>
     </g>
     <g id="text_8">
      <!-- 0.1 -->
      <g transform="translate(32 323.8375)scale(0.1 -0.1)">
       <use xlink:href="#SimHei-48"/>
       <use x="50" xlink:href="#SimHei-46"/>
       <use x="100" xlink:href="#SimHei-49"/>
      </g>
     </g>
    </g>
    <g id="ytick_2">
     <g id="line2d_8">
      <g>
       <use style="stroke:#000000;stroke-width:0.8;" x="54" xlink:href="#m2e17a1400f" y="289.6"/>
      </g>
     </g>
     <g id="text_9">
      <!-- 0.2 -->
      <g transform="translate(32 293.0375)scale(0.1 -0.1)">
       <use xlink:href="#SimHei-48"/>
       <use x="50" xlink:href="#SimHei-46"/>
       <use x="100" xlink:href="#SimHei-50"/>
      </g>
     </g>
    </g>
    <g id="ytick_3">
     <g id="line2d_9">
      <g>
       <use style="stroke:#000000;stroke-width:0.8;" x="54" xlink:href="#m2e17a1400f" y="258.8"/>
      </g>
     </g>
     <g id="text_10">
      <!-- 0.3 -->
      <defs>
       <path d="M 3.90625 19.140625 
L 10.9375 20.3125 
Q 12.5 15.234375 16.015625 11.90625 
Q 19.53125 8.59375 24.796875 8.78125 
Q 30.078125 8.984375 33.203125 13.078125 
Q 36.328125 17.1875 35.9375 22.453125 
Q 35.546875 27.734375 31.828125 30.65625 
Q 28.125 33.59375 19.921875 34.765625 
L 19.921875 39.84375 
Q 28.125 40.625 31.828125 44.140625 
Q 35.546875 47.65625 35.15625 53.3125 
Q 34.765625 58.984375 30.078125 61.515625 
Q 25.390625 64.0625 20.109375 62.109375 
Q 14.84375 60.15625 11.71875 51.171875 
L 4.6875 52.34375 
Q 7.03125 59.375 11.125 64.0625 
Q 15.234375 68.75 22.265625 69.53125 
Q 29.296875 70.3125 34.5625 67.765625 
Q 39.84375 65.234375 41.984375 59.953125 
Q 44.140625 54.6875 42.578125 48.4375 
Q 41.015625 42.1875 33.59375 37.5 
Q 39.0625 35.15625 41.984375 30.46875 
Q 44.921875 25.78125 43.9375 18.15625 
Q 42.96875 10.546875 37.109375 5.859375 
Q 31.25 1.171875 23.828125 1.359375 
Q 16.40625 1.5625 10.9375 6.046875 
Q 5.46875 10.546875 3.90625 19.140625 
z
" id="SimHei-51"/>
      </defs>
      <g transform="translate(32 262.2375)scale(0.1 -0.1)">
       <use xlink:href="#SimHei-48"/>
       <use x="50" xlink:href="#SimHei-46"/>
       <use x="100" xlink:href="#SimHei-51"/>
      </g>
     </g>
    </g>
    <g id="ytick_4">
     <g id="line2d_10">
      <g>
       <use style="stroke:#000000;stroke-width:0.8;" x="54" xlink:href="#m2e17a1400f" y="228"/>
      </g>
     </g>
     <g id="text_11">
      <!-- 0.4 -->
      <g transform="translate(32 231.4375)scale(0.1 -0.1)">
       <use xlink:href="#SimHei-48"/>
       <use x="50" xlink:href="#SimHei-46"/>
       <use x="100" xlink:href="#SimHei-52"/>
      </g>
     </g>
    </g>
    <g id="ytick_5">
     <g id="line2d_11">
      <g>
       <use style="stroke:#000000;stroke-width:0.8;" x="54" xlink:href="#m2e17a1400f" y="197.2"/>
      </g>
     </g>
     <g id="text_12">
      <!-- 0.5 -->
      <defs>
       <path d="M 8.59375 20.703125 
Q 11.328125 10.15625 17.96875 8.984375 
Q 24.609375 7.8125 28.703125 10.34375 
Q 32.8125 12.890625 34.5625 16.984375 
Q 36.328125 21.09375 36.125 26.171875 
Q 35.9375 31.25 33.390625 34.765625 
Q 30.859375 38.28125 26.953125 39.453125 
Q 23.046875 40.625 18.15625 39.453125 
Q 13.28125 38.28125 10.15625 33.984375 
L 3.515625 34.765625 
Q 4.296875 37.109375 10.9375 68.359375 
L 41.796875 68.359375 
L 41.796875 61.328125 
L 16.796875 61.328125 
Q 14.84375 50.78125 12.890625 44.53125 
Q 18.75 47.265625 23.828125 47.0625 
Q 28.90625 46.875 33.59375 44.71875 
Q 38.28125 42.578125 40.421875 38.859375 
Q 42.578125 35.15625 43.546875 31.4375 
Q 44.53125 27.734375 44.328125 23.4375 
Q 44.140625 19.140625 42.578125 14.640625 
Q 41.015625 10.15625 37.890625 7.21875 
Q 34.765625 4.296875 30.265625 2.53125 
Q 25.78125 0.78125 19.921875 1.171875 
Q 14.0625 1.5625 8.78125 5.46875 
Q 3.515625 9.375 1.5625 18.75 
z
" id="SimHei-53"/>
      </defs>
      <g transform="translate(32 200.6375)scale(0.1 -0.1)">
       <use xlink:href="#SimHei-48"/>
       <use x="50" xlink:href="#SimHei-46"/>
       <use x="100" xlink:href="#SimHei-53"/>
      </g>
     </g>
    </g>
    <g id="ytick_6">
     <g id="line2d_12">
      <g>
       <use style="stroke:#000000;stroke-width:0.8;" x="54" xlink:href="#m2e17a1400f" y="166.4"/>
      </g>
     </g>
     <g id="text_13">
      <!-- 0.6 -->
      <g transform="translate(32 169.8375)scale(0.1 -0.1)">
       <use xlink:href="#SimHei-48"/>
       <use x="50" xlink:href="#SimHei-46"/>
       <use x="100" xlink:href="#SimHei-54"/>
      </g>
     </g>
    </g>
    <g id="ytick_7">
     <g id="line2d_13">
      <g>
       <use style="stroke:#000000;stroke-width:0.8;" x="54" xlink:href="#m2e17a1400f" y="135.6"/>
      </g>
     </g>
     <g id="text_14">
      <!-- 0.7 -->
      <defs>
       <path d="M 13.28125 2.34375 
Q 20.3125 32.03125 37.890625 61.328125 
L 4.296875 61.328125 
L 4.296875 68.359375 
L 46.09375 68.359375 
L 46.09375 61.71875 
Q 27.734375 32.03125 21.875 2.34375 
L 13.28125 2.34375 
z
" id="SimHei-55"/>
      </defs>
      <g transform="translate(32 139.0375)scale(0.1 -0.1)">
       <use xlink:href="#SimHei-48"/>
       <use x="50" xlink:href="#SimHei-46"/>
       <use x="100" xlink:href="#SimHei-55"/>
      </g>
     </g>
    </g>
    <g id="ytick_8">
     <g id="line2d_14">
      <g>
       <use style="stroke:#000000;stroke-width:0.8;" x="54" xlink:href="#m2e17a1400f" y="104.8"/>
      </g>
     </g>
     <g id="text_15">
      <!-- 0.8 -->
      <g transform="translate(32 108.2375)scale(0.1 -0.1)">
       <use xlink:href="#SimHei-48"/>
       <use x="50" xlink:href="#SimHei-46"/>
       <use x="100" xlink:href="#SimHei-56"/>
      </g>
     </g>
    </g>
    <g id="ytick_9">
     <g id="line2d_15">
      <g>
       <use style="stroke:#000000;stroke-width:0.8;" x="54" xlink:href="#m2e17a1400f" y="74"/>
      </g>
     </g>
     <g id="text_16">
      <!-- 0.9 -->
      <defs>
       <path d="M 12.5 1.171875 
Q 21.09375 15.625 26.5625 27.34375 
Q 16.796875 25.78125 10.34375 29.875 
Q 3.90625 33.984375 2.53125 41.015625 
Q 1.171875 48.046875 2.734375 53.703125 
Q 4.296875 59.375 7.609375 63.078125 
Q 10.9375 66.796875 15.625 68.359375 
Q 20.3125 69.921875 24.015625 69.921875 
Q 27.734375 69.921875 31.640625 68.359375 
Q 35.546875 66.796875 38.671875 63.671875 
Q 41.796875 60.546875 42.96875 57.21875 
Q 44.140625 53.90625 44.140625 48.625 
Q 44.140625 43.359375 40.234375 35.15625 
Q 36.328125 26.953125 21.09375 1.171875 
z
M 9.765625 50 
Q 10.9375 39.84375 14.640625 36.515625 
Q 18.359375 33.203125 22.65625 33.59375 
Q 26.953125 33.984375 29.484375 35.9375 
Q 32.03125 37.890625 34.375 42.578125 
Q 35.9375 48.4375 35.15625 52.53125 
Q 34.375 56.640625 31.046875 59.375 
Q 27.734375 62.109375 23.828125 62.109375 
Q 21.484375 62.5 17.765625 60.9375 
Q 14.0625 59.375 11.90625 54.6875 
Q 9.765625 50 10.9375 39.84375 
z
" id="SimHei-57"/>
      </defs>
      <g transform="translate(32 77.4375)scale(0.1 -0.1)">
       <use xlink:href="#SimHei-48"/>
       <use x="50" xlink:href="#SimHei-46"/>
       <use x="100" xlink:href="#SimHei-57"/>
      </g>
     </g>
    </g>
    <g id="ytick_10">
     <g id="line2d_16">
      <g>
       <use style="stroke:#000000;stroke-width:0.8;" x="54" xlink:href="#m2e17a1400f" y="43.2"/>
      </g>
     </g>
     <g id="text_17">
      <!-- 1.0 -->
      <g transform="translate(32 46.6375)scale(0.1 -0.1)">
       <use xlink:href="#SimHei-49"/>
       <use x="50" xlink:href="#SimHei-46"/>
       <use x="100" xlink:href="#SimHei-48"/>
      </g>
     </g>
    </g>
    <g id="text_18">
     <!-- 无症状被发现的概率降低系数（k） -->
     <defs>
      <path d="M 67.96875 73.828125 
Q 76.171875 73.828125 82.8125 74.21875 
L 82.8125 66.796875 
Q 76.953125 67.1875 67.96875 67.1875 
L 49.609375 67.1875 
Q 49.609375 54.296875 48.828125 43.75 
L 78.90625 43.75 
Q 85.9375 43.75 91.796875 44.140625 
L 91.796875 36.71875 
Q 85.9375 37.109375 79.296875 37.109375 
L 61.71875 37.109375 
L 61.71875 6.640625 
Q 61.71875 1.5625 67.578125 1.5625 
L 80.859375 1.5625 
Q 85.15625 1.5625 85.546875 13.28125 
Q 89.453125 10.9375 94.140625 9.765625 
Q 92.1875 -5.46875 85.15625 -5.46875 
L 63.671875 -5.46875 
Q 54.6875 -5.078125 54.6875 4.6875 
L 54.6875 37.109375 
L 48.046875 37.109375 
Q 44.921875 22.265625 40.421875 14.640625 
Q 35.9375 7.03125 30.078125 1.75 
Q 24.21875 -3.515625 12.5 -10.15625 
Q 10.546875 -5.859375 5.859375 -3.515625 
Q 15.234375 0.78125 21.09375 5.265625 
Q 26.953125 9.765625 32.21875 16.40625 
Q 37.5 23.046875 40.625 37.109375 
L 23.4375 37.109375 
Q 13.671875 37.109375 9.375 36.71875 
L 9.375 44.140625 
Q 13.671875 43.75 23.4375 43.75 
L 41.40625 43.75 
Q 41.796875 55.46875 41.796875 67.1875 
L 31.25 67.1875 
Q 23.4375 67.1875 16.796875 66.796875 
L 16.796875 74.21875 
Q 23.4375 73.828125 31.25 73.828125 
z
" id="SimHei-26080"/>
      <path d="M 64.0625 65.234375 
Q 64.0625 75 63.671875 80.859375 
L 71.484375 80.859375 
Q 71.09375 75.390625 71.09375 65.234375 
L 94.140625 65.234375 
Q 92.1875 59.765625 89.453125 50.390625 
Q 86.71875 51.5625 81.640625 51.953125 
Q 83.984375 57.421875 84.375 59.375 
L 71.09375 59.375 
L 71.09375 41.40625 
L 87.109375 41.40625 
Q 84.765625 32.421875 81.640625 24.609375 
Q 78.515625 16.796875 73.046875 8.59375 
Q 76.953125 5.078125 83.984375 2.34375 
Q 91.015625 -0.390625 95.703125 -0.78125 
Q 91.40625 -4.6875 90.234375 -8.59375 
Q 83.203125 -5.859375 78.125 -2.921875 
Q 73.046875 0 68.75 3.90625 
Q 62.109375 -3.125 50.390625 -9.765625 
Q 47.65625 -5.46875 44.53125 -3.90625 
Q 55.859375 0 64.0625 8.984375 
Q 57.421875 17.578125 53.125 35.546875 
L 51.171875 35.546875 
Q 50.78125 24.609375 48.234375 14.453125 
Q 45.703125 4.296875 36.71875 -8.59375 
Q 33.984375 -6.25 29.296875 -4.6875 
Q 37.109375 3.515625 40.625 12.890625 
Q 44.140625 22.265625 44.53125 33.59375 
L 44.53125 52.734375 
Q 44.53125 60.9375 44.140625 65.234375 
L 64.0625 65.234375 
z
M 28.515625 36.328125 
Q 32.421875 40.625 35.9375 46.09375 
Q 39.0625 42.578125 41.40625 40.625 
Q 37.890625 37.5 32.421875 32.03125 
L 39.84375 24.609375 
Q 37.5 22.65625 34.375 19.140625 
Q 30.859375 24.609375 24.609375 30.859375 
L 24.609375 8.203125 
Q 24.609375 0 25 -9.765625 
L 17.578125 -9.765625 
Q 17.96875 2.734375 17.96875 10.9375 
L 17.96875 32.421875 
Q 14.0625 28.125 8.203125 23.046875 
Q 6.25 26.171875 3.125 28.90625 
Q 10.546875 33.984375 16.203125 40.625 
Q 21.875 47.265625 25.78125 55.078125 
L 17.96875 55.078125 
Q 12.5 55.078125 6.25 54.6875 
L 6.25 61.328125 
Q 14.84375 60.9375 20.3125 60.9375 
L 36.71875 60.9375 
Q 30.46875 48.046875 24.21875 39.84375 
Q 25.78125 38.671875 28.515625 36.328125 
z
M 64.0625 41.40625 
L 64.0625 59.375 
L 51.171875 59.375 
L 51.171875 41.40625 
z
M 59.765625 35.546875 
Q 63.28125 21.484375 68.75 14.0625 
Q 71.875 18.75 74.015625 23.625 
Q 76.171875 28.515625 78.125 35.546875 
z
M 23.4375 82.03125 
Q 27.34375 75 30.46875 68.359375 
L 23.4375 64.84375 
Q 20.703125 72.65625 16.796875 78.515625 
Q 20.3125 79.6875 23.4375 82.03125 
z
" id="SimHei-34987"/>
      <path d="M 54.296875 76.953125 
Q 52.34375 72.65625 51.171875 68.15625 
Q 50 63.671875 48.046875 55.859375 
L 79.296875 55.859375 
Q 83.203125 55.859375 91.015625 56.25 
L 91.015625 48.828125 
Q 83.203125 49.21875 79.296875 49.21875 
L 46.484375 49.21875 
Q 44.140625 43.359375 41.40625 37.5 
L 82.8125 37.5 
Q 75.390625 19.53125 62.109375 7.421875 
Q 72.65625 0 92.96875 -2.34375 
Q 90.234375 -5.46875 88.28125 -10.15625 
Q 80.46875 -8.59375 72.265625 -5.65625 
Q 64.0625 -2.734375 56.25 2.734375 
Q 50 -1.171875 41.015625 -4.875 
Q 32.03125 -8.59375 22.65625 -10.9375 
Q 21.875 -7.03125 18.75 -3.515625 
Q 27.34375 -2.34375 35.9375 0.578125 
Q 44.53125 3.515625 51.171875 7.8125 
Q 44.53125 14.453125 36.328125 26.953125 
Q 32.03125 19.921875 25.390625 13.28125 
Q 18.75 6.640625 10.9375 1.171875 
Q 9.375 3.90625 4.6875 7.03125 
Q 10.546875 10.15625 16.203125 15.234375 
Q 21.875 20.3125 28.125 28.703125 
Q 34.375 37.109375 38.671875 49.21875 
Q 28.515625 49.21875 23.046875 48.828125 
Q 17.578125 48.4375 14.84375 47.265625 
Q 13.671875 50.78125 11.71875 54.6875 
Q 15.625 55.46875 17.375 60.546875 
Q 19.140625 65.625 21.09375 76.171875 
Q 24.21875 74.609375 29.6875 73.046875 
Q 27.734375 69.140625 26.171875 65.03125 
Q 24.609375 60.9375 22.65625 55.859375 
L 40.625 55.859375 
Q 43.75 68.359375 45.3125 79.6875 
Q 49.609375 77.34375 54.296875 76.953125 
z
M 41.796875 31.25 
Q 47.265625 21.484375 57.03125 11.71875 
Q 65.625 18.75 72.265625 31.25 
L 41.796875 31.25 
z
M 68.75 79.296875 
Q 75.390625 71.875 82.03125 64.0625 
Q 79.296875 62.5 75.390625 58.984375 
Q 69.140625 67.96875 63.28125 74.21875 
Q 66.015625 76.171875 68.75 79.296875 
z
" id="SimHei-21457"/>
      <path d="M 45.703125 1.953125 
L 36.71875 1.953125 
L 22.65625 25.78125 
L 13.671875 17.1875 
L 13.671875 1.953125 
L 5.859375 1.953125 
L 5.859375 68.75 
L 13.671875 68.75 
L 13.671875 26.171875 
L 33.203125 45.703125 
L 42.96875 45.703125 
L 27.734375 30.859375 
z
" id="SimHei-107"/>
     </defs>
     <g transform="translate(26.75 259.3)rotate(-90)scale(0.1 -0.1)">
      <use xlink:href="#SimHei-26080"/>
      <use x="100" xlink:href="#SimHei-30151"/>
      <use x="200" xlink:href="#SimHei-29366"/>
      <use x="300" xlink:href="#SimHei-34987"/>
      <use x="400" xlink:href="#SimHei-21457"/>
      <use x="500" xlink:href="#SimHei-29616"/>
      <use x="600" xlink:href="#SimHei-30340"/>
      <use x="700" xlink:href="#SimHei-27010"/>
      <use x="800" xlink:href="#SimHei-29575"/>
      <use x="900" xlink:href="#SimHei-38477"/>
      <use x="1000" xlink:href="#SimHei-20302"/>
      <use x="1100" xlink:href="#SimHei-31995"/>
      <use x="1200" xlink:href="#SimHei-25968"/>
      <use x="1300" xlink:href="#SimHei-65288"/>
      <use x="1400" xlink:href="#SimHei-107"/>
      <use x="1450" xlink:href="#SimHei-65289"/>
     </g>
    </g>
   </g>
   <g id="LineCollection_1"/>
   <g id="LineCollection_2">
    <path clip-path="url(#p3b43570fb9)" d="M 101.79196 199.992701 
L 100.872 199.936891 
L 97.524 199.734832 
L 94.176 199.533814 
L 90.828 199.33383 
L 87.48 199.134872 
L 84.132 198.936931 
L 80.784 198.74 
L 77.436 198.544071 
L 74.088 198.349137 
L 70.74 198.15519 
L 67.392 197.962222 
L 64.044 197.770227 
L 60.696 197.579196 
L 57.348 197.389123 
L 54 197.2 
L 54 197.2 
" style="fill:none;stroke:#472d7b;stroke-width:1.5;"/>
    <path clip-path="url(#p3b43570fb9)" d="M 201.657842 206.180327 
L 201.312 206.157609 
L 197.964 205.938918 
L 194.616 205.721448 
L 191.268 205.50519 
L 187.92 205.290133 
L 184.572 205.076268 
L 181.224 204.863585 
L 177.876 204.652073 
L 174.528 204.441723 
L 171.18 204.232526 
L 167.832 204.024472 
L 164.484 203.817552 
L 161.136 203.611757 
L 157.788 203.407076 
L 157.015385 203.36 
L 154.44 203.196843 
L 151.092 202.985751 
L 147.744 202.775794 
L 144.396 202.566962 
L 141.048 202.359247 
L 138.445626 202.198653 
" style="fill:none;stroke:#472d7b;stroke-width:1.5;"/>
    <path clip-path="url(#p3b43570fb9)" d="M 388.8 219.1912 
L 385.452 218.9448 
L 382.926316 218.76 
L 382.104 218.697176 
L 378.756 218.442445 
L 375.408 218.189389 
L 372.06 217.937993 
L 368.712 217.688241 
L 365.364 217.440115 
L 362.016 217.1936 
L 358.668 216.948681 
L 355.32 216.705342 
L 351.972 216.463568 
L 348.624 216.223344 
L 345.276 215.984654 
L 341.928 215.747485 
L 340.971429 215.68 
L 338.58 215.504 
L 335.232 215.258937 
L 331.884 215.01542 
L 330.689533 214.929086 
" style="fill:none;stroke:#472d7b;stroke-width:1.5;"/>
    <path clip-path="url(#p3b43570fb9)" d="M 306.270527 213.202223 
L 305.1 213.121231 
L 301.752 212.890994 
L 298.404 212.662165 
L 297.490909 212.6 
L 295.056 212.42722 
L 291.708 212.190894 
L 288.36 211.956 
L 285.012 211.722526 
L 281.664 211.490458 
L 278.316 211.259784 
L 274.968 211.030491 
L 271.62 210.802567 
L 268.272 210.576 
L 264.924 210.350777 
L 261.576 210.126888 
L 258.228 209.904319 
L 254.88 209.683059 
L 252.4 209.52 
L 251.532 209.460568 
L 248.184 209.232173 
L 244.836 209.00511 
L 241.488 208.779367 
L 238.300265 208.565677 
" style="fill:none;stroke:#472d7b;stroke-width:1.5;"/>
   </g>
   <g id="LineCollection_3">
    <path clip-path="url(#p3b43570fb9)" d="M 209.335404 264.304744 
L 208.008 264.233329 
L 204.66 264.05422 
L 201.312 263.876117 
L 197.964 263.699012 
L 194.616 263.522896 
L 191.268 263.347762 
L 187.92 263.1736 
L 184.572 263.000403 
L 181.224 262.828164 
L 177.876 262.656873 
L 174.528 262.486523 
L 171.18 262.317107 
L 167.832 262.148616 
L 164.484 261.981044 
L 162.456338 261.88 
L 161.136 261.809696 
L 157.788 261.632098 
L 154.44 261.455459 
L 151.092 261.279774 
L 147.744 261.105032 
L 144.396 260.931228 
L 141.048 260.758353 
L 137.7 260.5864 
L 134.352 260.415362 
L 133.444906 260.369267 
" style="fill:none;stroke:#3b528b;stroke-width:1.5;"/>
    <path clip-path="url(#p3b43570fb9)" d="M 108.995341 259.149033 
L 107.568 259.079125 
L 104.22 258.916 
L 101.828571 258.8 
L 100.872 258.750528 
L 97.524 258.577953 
L 94.176 258.406268 
L 90.828 258.235465 
L 87.48 258.065538 
L 84.132 257.896481 
L 80.784 257.728286 
L 77.436 257.560947 
L 74.088 257.394457 
L 70.74 257.22881 
L 67.392 257.064 
L 64.044 256.90002 
L 60.696 256.736864 
L 57.348 256.574526 
L 54 256.413 
" style="fill:none;stroke:#3b528b;stroke-width:1.5;"/>
    <path clip-path="url(#p3b43570fb9)" d="M 388.8 274.2 
L 385.452 274.000465 
L 382.104 273.802252 
L 378.756 273.605347 
L 375.408 273.409737 
L 372.06 273.21541 
L 368.712 273.022353 
L 365.364 272.830554 
L 362.016 272.64 
L 358.668 272.45068 
L 355.32 272.262581 
L 351.972 272.075691 
L 348.624 271.89 
L 345.276 271.705495 
L 341.928 271.522166 
L 338.58 271.34 
L 335.232 271.158987 
L 334.508108 271.12 
L 331.884 270.967846 
L 328.536 270.774808 
L 325.188 270.582979 
L 321.84 270.39235 
L 318.492 270.202908 
L 315.144 270.014643 
L 311.796 269.827544 
L 308.448 269.6416 
L 305.1 269.4568 
L 301.752 269.273134 
L 299.084422 269.127689 
" style="fill:none;stroke:#3b528b;stroke-width:1.5;"/>
    <path clip-path="url(#p3b43570fb9)" d="M 274.639932 267.80992 
L 271.62 267.640979 
L 268.272 267.4548 
L 264.924 267.269726 
L 261.576 267.085747 
L 258.228 266.902853 
L 254.88 266.721035 
L 251.532 266.540284 
L 248.184 266.360589 
L 244.836 266.181943 
L 241.488 266.004335 
L 238.14 265.827757 
L 234.792 265.652199 
L 233.781117 265.599497 
" style="fill:none;stroke:#3b528b;stroke-width:1.5;"/>
   </g>
   <g id="LineCollection_4">
    <path clip-path="url(#p3b43570fb9)" d="M 242.85346 290.473196 
L 241.488 290.416558 
L 238.14 290.278493 
L 234.792 290.141225 
L 231.444 290.004749 
L 228.096 289.869057 
L 224.748 289.734143 
L 221.4 289.6 
L 218.052 289.452581 
L 214.704 289.306 
L 211.356 289.160249 
L 208.008 289.015322 
L 204.66 288.871211 
L 201.312 288.72791 
L 197.964 288.585412 
L 194.616 288.443709 
L 191.268 288.302797 
L 187.92 288.162667 
L 184.572 288.023313 
L 181.224 287.884729 
L 177.876 287.746909 
L 174.528 287.609846 
L 171.18 287.473534 
L 167.832 287.337967 
L 164.484 287.203139 
L 161.136 287.069043 
L 157.788 286.935675 
L 154.44 286.803027 
L 151.092 286.671094 
L 147.744 286.539871 
L 147.235443 286.52 
L 144.396 286.398286 
L 141.048 286.255482 
L 137.7 286.11344 
L 134.352 285.972153 
L 133.362044 285.930598 
" style="fill:none;stroke:#2c728e;stroke-width:1.5;"/>
    <path clip-path="url(#p3b43570fb9)" d="M 108.902819 284.922354 
L 107.568 284.86835 
L 104.22 284.7336 
L 100.872 284.599548 
L 97.524 284.466189 
L 94.176 284.333518 
L 90.828 284.201528 
L 87.48 284.070215 
L 84.132 283.939574 
L 80.784 283.8096 
L 77.436 283.680287 
L 74.088 283.55163 
L 71.169231 283.44 
L 70.74 283.422066 
L 67.392 283.282578 
L 64.044 283.143792 
L 60.696 283.005705 
L 57.348 282.868309 
L 54 282.7316 
" style="fill:none;stroke:#2c728e;stroke-width:1.5;"/>
    <path clip-path="url(#p3b43570fb9)" d="M 388.8 296.8072 
L 385.452 296.661079 
L 382.104 296.515926 
L 378.756 296.371731 
L 375.408 296.228484 
L 372.06 296.086177 
L 368.712 295.9448 
L 365.364 295.804344 
L 364.302439 295.76 
L 362.016 295.6536 
L 358.668 295.498649 
L 355.32 295.344697 
L 351.972 295.191735 
L 348.624 295.039754 
L 345.276 294.888744 
L 341.928 294.738696 
L 338.58 294.5896 
L 335.232 294.441448 
L 334.150336 294.393886 
" style="fill:none;stroke:#2c728e;stroke-width:1.5;"/>
    <path clip-path="url(#p3b43570fb9)" d="M 309.692969 293.341555 
L 308.448 293.289156 
L 305.1 293.149108 
L 301.752 293.009919 
L 298.404 292.871582 
L 295.056 292.734088 
L 293.733333 292.68 
L 291.708 292.588255 
L 288.36 292.437333 
L 285.012 292.287323 
L 281.664 292.138217 
L 278.316 291.990006 
L 274.968 291.842683 
L 271.62 291.696239 
L 268.272 291.550667 
L 267.311527 291.509153 
" style="fill:none;stroke:#2c728e;stroke-width:1.5;"/>
   </g>
   <g id="LineCollection_5">
    <path clip-path="url(#p3b43570fb9)" d="M 388.8 309.147733 
L 385.452 309.029786 
L 382.104 308.91262 
L 378.756 308.796227 
L 375.408 308.6806 
L 372.06 308.565731 
L 368.712 308.451613 
L 365.364 308.338238 
L 362.016 308.2256 
L 358.668 308.113691 
L 357.655814 308.08 
L 355.32 307.990581 
L 351.972 307.863113 
L 348.624 307.736462 
L 345.276 307.61062 
L 341.928 307.48558 
L 338.58 307.361333 
L 335.232 307.237873 
L 331.884 307.115192 
L 328.536 306.993283 
L 325.188 306.872138 
L 321.84 306.75175 
L 318.492 306.632112 
L 315.144 306.513217 
L 311.796 306.395059 
L 308.448 306.27763 
L 305.1 306.160923 
L 301.752 306.044933 
L 298.404 305.929651 
L 295.056 305.815073 
L 291.708 305.701191 
L 288.36 305.588 
L 285.012 305.475492 
L 281.664 305.363663 
L 278.316 305.252505 
L 274.968 305.142012 
L 271.62 305.032179 
L 270.635294 305 
L 268.272 304.912 
L 264.924 304.787964 
L 261.576 304.664663 
L 258.228 304.542088 
L 254.88 304.420235 
L 251.532 304.299097 
L 248.184 304.178667 
L 244.836 304.058939 
L 241.488 303.939907 
L 238.14 303.821565 
L 234.792 303.703908 
L 231.444 303.586928 
L 228.096 303.470621 
L 224.748 303.35498 
L 221.4 303.24 
L 218.052 303.125675 
L 214.704 303.012 
L 211.356 302.898969 
L 208.008 302.786576 
L 204.66 302.674817 
L 201.312 302.563685 
L 197.964 302.453176 
L 194.616 302.343285 
L 191.268 302.234006 
L 187.92 302.125333 
L 184.572 302.017263 
L 181.542857 301.92 
L 181.224 301.908429 
L 177.876 301.787297 
L 174.528 301.666831 
L 171.18 301.547025 
L 167.832 301.427873 
L 166.813064 301.391808 
" style="fill:none;stroke:#21918c;stroke-width:1.5;"/>
    <path clip-path="url(#p3b43570fb9)" d="M 142.347825 300.541899 
L 141.048 300.4976 
L 137.7 300.384107 
L 134.352 300.271217 
L 131.004 300.158926 
L 127.656 300.04723 
L 124.308 299.936122 
L 120.96 299.8256 
L 117.612 299.715658 
L 114.264 299.606291 
L 110.916 299.497496 
L 107.568 299.389267 
L 104.22 299.2816 
L 100.872 299.174491 
L 97.524 299.067936 
L 94.176 298.96193 
L 90.828 298.856469 
L 90.303614 298.84 
L 87.48 298.740492 
L 84.132 298.623061 
L 80.784 298.506229 
L 77.436 298.389991 
L 74.088 298.274343 
L 70.74 298.159281 
L 67.392 298.0448 
L 64.044 297.930896 
L 60.696 297.817564 
L 57.348 297.7048 
L 54 297.5926 
" style="fill:none;stroke:#21918c;stroke-width:1.5;"/>
   </g>
   <g id="LineCollection_6">
    <path clip-path="url(#p3b43570fb9)" d="M 388.8 316.9504 
L 385.452 316.842344 
L 382.104 316.735004 
L 378.756 316.628372 
L 375.408 316.522442 
L 372.06 316.417207 
L 368.712 316.312659 
L 365.364 316.208792 
L 362.016 316.1056 
L 358.668 316.003076 
L 355.32 315.901213 
L 351.972 315.800005 
L 348.624 315.699446 
L 345.276 315.59953 
L 341.928 315.50025 
L 338.58 315.4016 
L 335.232 315.303575 
L 331.884 315.206168 
L 328.536 315.109374 
L 325.188 315.013186 
L 321.84 314.9176 
L 318.492 314.822609 
L 315.144 314.728209 
L 311.796 314.634393 
L 308.448 314.541156 
L 305.1 314.448492 
L 301.752 314.356398 
L 298.404 314.264866 
L 297.490909 314.24 
L 295.056 314.161873 
L 291.708 314.055013 
L 288.36 313.9488 
L 285.012 313.843229 
L 281.664 313.738294 
L 278.316 313.633989 
L 274.968 313.530309 
L 271.62 313.427248 
L 268.272 313.3248 
L 264.924 313.22296 
L 261.576 313.121723 
L 258.228 313.021083 
L 254.88 312.921035 
L 251.532 312.821574 
L 248.184 312.722695 
L 244.836 312.624392 
L 241.488 312.52666 
L 238.14 312.429496 
L 234.792 312.332892 
L 231.444 312.236846 
L 228.096 312.141352 
L 224.748 312.046405 
L 221.4 311.952 
L 218.052 311.858133 
L 214.704 311.7648 
L 211.356 311.671995 
L 208.008 311.579715 
L 204.66 311.487955 
L 201.312 311.39671 
L 197.964 311.305976 
L 194.616 311.21575 
L 192.537931 311.16 
L 191.268 311.120363 
L 187.92 311.016267 
L 184.572 310.912747 
L 181.224 310.809799 
L 177.876 310.707418 
L 174.528 310.6056 
L 171.18 310.50434 
L 167.832 310.403633 
L 164.484 310.303475 
L 161.136 310.203861 
L 157.788 310.104787 
L 154.44 310.006249 
L 151.092 309.908242 
L 147.744 309.810761 
L 144.396 309.713804 
L 141.048 309.617365 
L 137.7 309.52144 
L 134.352 309.426026 
L 131.004 309.331117 
L 127.656 309.236711 
L 124.308 309.142803 
L 120.96 309.049389 
L 117.612 308.956466 
L 114.264 308.864029 
L 110.916 308.772075 
L 107.568 308.6806 
L 104.22 308.5896 
L 100.872 308.499072 
L 97.524 308.409011 
L 94.176 308.319414 
L 90.828 308.230279 
L 87.48 308.1416 
L 86.240802 308.10892 
" style="fill:none;stroke:#28ae80;stroke-width:1.5;"/>
    <path clip-path="url(#p3b43570fb9)" d="M 61.771587 307.382577 
L 60.696 307.351015 
L 57.348 307.253263 
L 54 307.156 
" style="fill:none;stroke:#28ae80;stroke-width:1.5;"/>
   </g>
   <g id="LineCollection_7">
    <path clip-path="url(#p3b43570fb9)" d="M 314.4 320.4 
L 311.796 320.326576 
L 308.448 320.232691 
L 305.1 320.139385 
L 301.752 320.04665 
L 298.404 319.954483 
L 295.056 319.862878 
L 291.708 319.77183 
L 288.36 319.681333 
L 285.012 319.591384 
L 281.664 319.501976 
L 278.316 319.413105 
L 274.968 319.324766 
L 271.62 319.236955 
L 268.272 319.149667 
L 264.924 319.062896 
L 261.576 318.976639 
L 258.228 318.890891 
L 254.88 318.805647 
L 251.532 318.720903 
L 248.184 318.636655 
L 244.836 318.552898 
L 241.488 318.469628 
L 238.14 318.386841 
L 234.792 318.304532 
L 231.444 318.222697 
L 228.096 318.141333 
L 224.748 318.060436 
L 221.4 317.98 
L 218.052 317.900023 
L 214.704 317.8205 
L 211.356 317.741428 
L 208.008 317.662802 
L 204.66 317.58462 
L 201.312 317.506876 
L 200.243984 317.482215 
" style="fill:none;stroke:#5ec962;stroke-width:1.5;"/>
    <path clip-path="url(#p3b43570fb9)" d="M 175.772202 316.84953 
L 174.528 316.816369 
L 171.18 316.727627 
L 167.832 316.63937 
L 164.484 316.551595 
L 161.136 316.464296 
L 157.788 316.37747 
L 154.44 316.291114 
L 151.092 316.205223 
L 147.744 316.119794 
L 144.396 316.034823 
L 141.048 315.950306 
L 137.7 315.86624 
L 134.352 315.782621 
L 131.004 315.699446 
L 127.656 315.616711 
L 124.308 315.534413 
L 120.96 315.452547 
L 117.612 315.371112 
L 114.264 315.290103 
L 110.916 315.209516 
L 107.568 315.12935 
L 104.22 315.0496 
L 100.872 314.970263 
L 97.524 314.891336 
L 94.176 314.812816 
L 90.828 314.7347 
L 87.48 314.656985 
L 84.132 314.579666 
L 80.784 314.502743 
L 77.436 314.426211 
L 74.088 314.350067 
L 70.74 314.274309 
L 69.218182 314.24 
L 67.392 314.191467 
L 64.044 314.102835 
L 60.696 314.014649 
L 57.348 313.926905 
L 54 313.8396 
" style="fill:none;stroke:#5ec962;stroke-width:1.5;"/>
   </g>
   <g id="LineCollection_8">
    <path clip-path="url(#p3b43570fb9)" d="M 128.4 320.4 
L 127.656 320.382074 
L 124.308 320.301668 
L 120.96 320.221684 
L 117.612 320.142121 
L 114.264 320.062974 
L 110.916 319.98424 
L 107.568 319.905917 
L 106.360872 319.877824 
" style="fill:none;stroke:#addc30;stroke-width:1.5;"/>
    <path clip-path="url(#p3b43570fb9)" d="M 81.887263 319.31848 
L 80.784 319.293714 
L 77.436 319.218941 
L 74.088 319.144548 
L 70.74 319.070532 
L 67.392 318.996889 
L 64.044 318.923617 
L 60.696 318.850714 
L 57.348 318.778175 
L 54 318.706 
" style="fill:none;stroke:#addc30;stroke-width:1.5;"/>
   </g>
   <g id="LineCollection_9"/>
   <g id="patch_3">
    <path d="M 54 320.4 
L 54 43.2 
" style="fill:none;stroke:#000000;stroke-linecap:square;stroke-linejoin:miter;stroke-width:0.8;"/>
   </g>
   <g id="patch_4">
    <path d="M 388.8 320.4 
L 388.8 43.2 
" style="fill:none;stroke:#000000;stroke-linecap:square;stroke-linejoin:miter;stroke-width:0.8;"/>
   </g>
   <g id="patch_5">
    <path d="M 54 320.4 
L 388.8 320.4 
" style="fill:none;stroke:#000000;stroke-linecap:square;stroke-linejoin:miter;stroke-width:0.8;"/>
   </g>
   <g id="patch_6">
    <path d="M 54 43.2 
L 388.8 43.2 
" style="fill:none;stroke:#000000;stroke-linecap:square;stroke-linejoin:miter;stroke-width:0.8;"/>
   </g>
   <g id="text_19">
    <g clip-path="url(#p3b43570fb9)">
     <!-- 1.2 -->
     <g style="fill:#ff0000;" transform="translate(104.825204 203.554679)rotate(-356.585716)scale(0.12 -0.12)">
      <use xlink:href="#SimHei-49"/>
      <use x="50" xlink:href="#SimHei-46"/>
      <use x="100" xlink:href="#SimHei-50"/>
     </g>
    </g>
   </g>
   <g id="text_20">
    <g clip-path="url(#p3b43570fb9)">
     <!-- 1.2 -->
     <g style="fill:#ff0000;" transform="translate(204.674172 209.755646)rotate(-356.313114)scale(0.12 -0.12)">
      <use xlink:href="#SimHei-49"/>
      <use x="50" xlink:href="#SimHei-46"/>
      <use x="100" xlink:href="#SimHei-50"/>
     </g>
    </g>
   </g>
   <g id="text_21">
    <g clip-path="url(#p3b43570fb9)">
     <!-- 2.4 -->
     <g style="fill:#ff0000;" transform="translate(245.947967 293.976652)rotate(-357.574557)scale(0.12 -0.12)">
      <use xlink:href="#SimHei-50"/>
      <use x="50" xlink:href="#SimHei-46"/>
      <use x="100" xlink:href="#SimHei-52"/>
     </g>
    </g>
   </g>
   <g id="text_22">
    <g clip-path="url(#p3b43570fb9)">
     <!-- 1.2 -->
     <g style="fill:#ff0000;" transform="translate(117.039693 204.274331)rotate(-356.512058)scale(0.12 -0.12)">
      <use xlink:href="#SimHei-49"/>
      <use x="50" xlink:href="#SimHei-46"/>
      <use x="100" xlink:href="#SimHei-50"/>
     </g>
    </g>
   </g>
   <g id="text_23">
    <g clip-path="url(#p3b43570fb9)">
     <!-- 1.2 -->
     <g style="fill:#ff0000;" transform="translate(216.884015 210.532017)rotate(-356.219517)scale(0.12 -0.12)">
      <use xlink:href="#SimHei-49"/>
      <use x="50" xlink:href="#SimHei-46"/>
      <use x="100" xlink:href="#SimHei-50"/>
     </g>
    </g>
   </g>
   <g id="text_24">
    <g clip-path="url(#p3b43570fb9)">
     <!-- 1.2 -->
     <g style="fill:#ff0000;" transform="translate(309.26508 216.787466)rotate(-355.955022)scale(0.12 -0.12)">
      <use xlink:href="#SimHei-49"/>
      <use x="50" xlink:href="#SimHei-46"/>
      <use x="100" xlink:href="#SimHei-50"/>
     </g>
    </g>
   </g>
   <g id="text_25">
    <g clip-path="url(#p3b43570fb9)">
     <!-- 1.8 -->
     <g style="fill:#ff0000;" transform="translate(212.391509 267.862333)rotate(-356.968217)scale(0.12 -0.12)">
      <use xlink:href="#SimHei-49"/>
      <use x="50" xlink:href="#SimHei-46"/>
      <use x="100" xlink:href="#SimHei-56"/>
     </g>
    </g>
   </g>
   <g id="text_26">
    <g clip-path="url(#p3b43570fb9)">
     <!-- 1.8 -->
     <g style="fill:#ff0000;" transform="translate(112.063371 262.67541)rotate(-357.142751)scale(0.12 -0.12)">
      <use xlink:href="#SimHei-49"/>
      <use x="50" xlink:href="#SimHei-46"/>
      <use x="100" xlink:href="#SimHei-56"/>
     </g>
    </g>
   </g>
   <g id="text_27">
    <g clip-path="url(#p3b43570fb9)">
     <!-- 1.8 -->
     <g style="fill:#ff0000;" transform="translate(277.694006 271.357193)rotate(-356.924653)scale(0.12 -0.12)">
      <use xlink:href="#SimHei-49"/>
      <use x="50" xlink:href="#SimHei-46"/>
      <use x="100" xlink:href="#SimHei-56"/>
     </g>
    </g>
   </g>
   <g id="text_28">
    <g clip-path="url(#p3b43570fb9)">
     <!-- 4.8 -->
     <g style="fill:#ff0000;" transform="translate(85.049365 322.763962)rotate(-358.690775)scale(0.12 -0.12)">
      <use xlink:href="#SimHei-52"/>
      <use x="50" xlink:href="#SimHei-46"/>
      <use x="100" xlink:href="#SimHei-56"/>
     </g>
    </g>
   </g>
   <g id="text_29">
    <g clip-path="url(#p3b43570fb9)">
     <!-- 2.4 -->
     <g style="fill:#ff0000;" transform="translate(112.001264 288.423028)rotate(-357.639491)scale(0.12 -0.12)">
      <use xlink:href="#SimHei-50"/>
      <use x="50" xlink:href="#SimHei-46"/>
      <use x="100" xlink:href="#SimHei-52"/>
     </g>
    </g>
   </g>
   <g id="text_30">
    <g clip-path="url(#p3b43570fb9)">
     <!-- 2.4 -->
     <g style="fill:#ff0000;" transform="translate(312.785153 296.846633)rotate(-357.536273)scale(0.12 -0.12)">
      <use xlink:href="#SimHei-50"/>
      <use x="50" xlink:href="#SimHei-46"/>
      <use x="100" xlink:href="#SimHei-52"/>
     </g>
    </g>
   </g>
   <g id="text_31">
    <g clip-path="url(#p3b43570fb9)">
     <!-- 4.2 -->
     <g style="fill:#ff0000;" transform="translate(178.923144 320.318737)rotate(-358.511523)scale(0.12 -0.12)">
      <use xlink:href="#SimHei-52"/>
      <use x="50" xlink:href="#SimHei-46"/>
      <use x="100" xlink:href="#SimHei-50"/>
     </g>
    </g>
   </g>
   <g id="text_32">
    <g clip-path="url(#p3b43570fb9)">
     <!-- 3.0 -->
     <g style="fill:#ff0000;" transform="translate(145.468842 304.0231)rotate(-358.010362)scale(0.12 -0.12)">
      <use xlink:href="#SimHei-51"/>
      <use x="50" xlink:href="#SimHei-46"/>
      <use x="100" xlink:href="#SimHei-48"/>
     </g>
    </g>
   </g>
   <g id="text_33">
    <g clip-path="url(#p3b43570fb9)">
     <!-- 3.6 -->
     <g style="fill:#ff0000;" transform="translate(64.909498 310.849387)rotate(-358.289415)scale(0.12 -0.12)">
      <use xlink:href="#SimHei-51"/>
      <use x="50" xlink:href="#SimHei-46"/>
      <use x="100" xlink:href="#SimHei-54"/>
     </g>
    </g>
   </g>
   <g id="text_34">
    <!-- 基本再生数，R0 -->
    <defs>
     <path d="M 28.125 71.09375 
Q 28.125 76.5625 27.734375 81.25 
L 35.9375 81.25 
Q 35.546875 76.171875 35.546875 71.09375 
L 63.671875 71.09375 
Q 63.671875 76.5625 63.28125 81.25 
L 71.484375 81.25 
Q 71.09375 76.171875 71.09375 71.09375 
L 76.953125 71.09375 
Q 81.25 71.09375 87.890625 71.484375 
L 87.890625 65.234375 
Q 81.25 65.625 76.953125 65.625 
L 71.09375 65.625 
L 71.09375 34.765625 
L 79.6875 34.765625 
Q 87.5 34.765625 94.140625 35.15625 
L 94.140625 28.125 
Q 87.890625 28.90625 80.078125 28.90625 
L 70.3125 28.90625 
Q 76.171875 22.65625 81.640625 19.328125 
Q 87.109375 16.015625 95.703125 14.0625 
Q 92.1875 9.765625 91.40625 5.46875 
Q 81.25 10.15625 74.015625 16.203125 
Q 66.796875 22.265625 62.5 28.90625 
L 39.0625 28.90625 
Q 34.375 21.484375 26.75 15.625 
Q 19.140625 9.765625 8.59375 5.46875 
Q 7.421875 8.984375 4.296875 12.890625 
Q 10.9375 14.453125 18.9375 18.9375 
Q 26.953125 23.4375 30.46875 28.90625 
L 20.3125 28.90625 
Q 13.28125 28.90625 6.25 28.125 
L 6.25 35.15625 
Q 13.28125 34.765625 20.3125 34.765625 
L 28.125 34.765625 
L 28.125 65.625 
Q 18.75 65.625 12.109375 65.234375 
L 12.109375 71.484375 
Q 18.75 71.09375 25.390625 71.09375 
z
M 46.09375 14.84375 
Q 46.09375 18.75 45.703125 24.609375 
L 54.296875 24.609375 
Q 53.515625 20.3125 53.515625 14.84375 
L 60.9375 14.84375 
Q 66.40625 14.84375 71.484375 15.234375 
L 71.484375 7.8125 
Q 66.40625 8.59375 60.546875 8.59375 
L 53.515625 8.59375 
L 53.515625 -1.5625 
L 70.3125 -1.5625 
Q 79.296875 -1.5625 86.71875 -1.171875 
L 86.71875 -8.203125 
Q 79.296875 -7.8125 70.3125 -7.8125 
L 28.125 -7.8125 
Q 20.3125 -7.8125 13.28125 -8.203125 
L 13.28125 -1.171875 
Q 19.921875 -1.5625 28.125 -1.5625 
L 46.09375 -1.5625 
L 46.09375 8.59375 
L 39.84375 8.59375 
Q 33.203125 8.59375 27.734375 8.203125 
L 27.734375 15.234375 
Q 33.203125 14.84375 39.0625 14.84375 
z
M 63.671875 34.765625 
L 63.671875 41.40625 
L 35.546875 41.40625 
L 35.546875 34.765625 
z
M 63.671875 58.984375 
L 63.671875 65.625 
L 35.546875 65.625 
L 35.546875 58.984375 
z
M 63.671875 47.265625 
L 63.671875 52.734375 
L 35.546875 52.734375 
L 35.546875 47.265625 
z
" id="SimHei-22522"/>
     <path d="M 46.09375 61.328125 
L 46.09375 69.140625 
Q 46.09375 75.390625 45.703125 80.859375 
L 54.296875 80.859375 
Q 53.90625 76.5625 53.90625 69.53125 
L 53.90625 61.328125 
L 75.78125 61.328125 
Q 82.421875 61.328125 91.40625 61.71875 
L 91.40625 54.296875 
Q 82.8125 54.6875 76.171875 54.6875 
L 60.15625 54.6875 
Q 65.625 36.71875 75.96875 26.359375 
Q 86.328125 16.015625 94.921875 12.5 
Q 91.40625 9.765625 88.28125 5.078125 
Q 75 14.0625 66.59375 25.578125 
Q 58.203125 37.109375 53.90625 52.34375 
L 53.90625 15.625 
L 58.984375 15.625 
Q 65.234375 15.625 71.875 16.015625 
L 71.875 8.59375 
Q 65.234375 8.984375 58.59375 8.984375 
L 53.90625 8.984375 
Q 53.90625 0 54.296875 -9.375 
L 45.703125 -9.375 
Q 46.09375 0 46.09375 8.984375 
L 41.015625 8.984375 
Q 34.765625 8.984375 28.515625 8.59375 
L 28.515625 16.015625 
Q 34.765625 15.625 41.015625 15.625 
L 46.09375 15.625 
L 46.09375 51.5625 
Q 39.84375 35.546875 32.21875 24.609375 
Q 24.609375 13.671875 11.71875 2.734375 
Q 8.59375 7.03125 4.296875 8.984375 
Q 17.1875 16.796875 25.78125 28.515625 
Q 34.375 40.234375 39.453125 54.6875 
L 22.265625 54.6875 
Q 16.015625 54.6875 8.984375 54.296875 
L 8.984375 61.71875 
Q 16.015625 61.328125 21.875 61.328125 
z
" id="SimHei-26412"/>
     <path d="M 62.890625 -1.953125 
Q 68.359375 -2.34375 70.890625 -1.953125 
Q 73.4375 -1.5625 73.4375 2.734375 
L 73.4375 13.671875 
L 26.171875 13.671875 
L 26.171875 -10.15625 
L 17.578125 -10.15625 
Q 18.359375 -3.515625 18.359375 3.125 
L 18.359375 13.671875 
Q 9.375 13.671875 3.515625 13.28125 
L 3.515625 20.703125 
Q 8.984375 19.921875 18.359375 19.921875 
L 18.359375 44.140625 
Q 18.359375 52.734375 17.578125 57.8125 
L 46.09375 57.8125 
L 46.09375 69.921875 
L 24.21875 69.921875 
Q 16.40625 69.921875 9.375 69.53125 
L 9.375 76.953125 
Q 16.40625 76.5625 23.828125 76.5625 
L 75.78125 76.5625 
Q 84.765625 76.5625 90.234375 76.953125 
L 90.234375 69.53125 
Q 84.765625 69.921875 75.78125 69.921875 
L 53.90625 69.921875 
L 53.90625 57.8125 
L 81.640625 57.8125 
Q 81.25 52.734375 81.25 42.96875 
L 81.25 19.921875 
Q 91.015625 19.921875 96.875 20.703125 
L 96.875 13.28125 
Q 91.40625 13.671875 81.25 13.671875 
L 81.25 -2.734375 
Q 81.25 -7.421875 77.34375 -8.59375 
Q 73.4375 -9.765625 66.40625 -10.546875 
Q 65.234375 -6.25 62.890625 -1.953125 
z
M 46.09375 38.671875 
L 46.09375 51.953125 
L 26.171875 51.953125 
L 26.171875 38.671875 
z
M 73.4375 38.671875 
L 73.4375 51.953125 
L 53.90625 51.953125 
L 53.90625 38.671875 
z
M 46.09375 19.921875 
L 46.09375 32.8125 
L 26.171875 32.8125 
L 26.171875 19.921875 
z
M 73.4375 19.921875 
L 73.4375 32.8125 
L 53.90625 32.8125 
L 53.90625 19.921875 
z
" id="SimHei-20877"/>
     <path d="M 29.296875 72.65625 
Q 26.953125 69.921875 25.390625 65.8125 
Q 23.828125 61.71875 22.265625 57.8125 
L 45.703125 57.8125 
L 45.703125 71.484375 
Q 45.703125 76.5625 45.3125 81.25 
L 54.296875 81.25 
Q 53.90625 76.953125 53.90625 71.484375 
L 53.90625 57.8125 
L 71.09375 57.8125 
Q 77.34375 57.8125 85.15625 58.203125 
L 85.15625 50.390625 
Q 77.734375 50.78125 71.09375 50.78125 
L 53.90625 50.78125 
L 53.90625 33.203125 
L 66.015625 33.203125 
Q 71.484375 33.203125 79.296875 33.59375 
L 79.296875 25.78125 
Q 71.875 26.171875 66.015625 26.171875 
L 53.90625 26.171875 
L 53.90625 2.734375 
L 77.34375 2.734375 
Q 83.59375 2.734375 91.796875 3.125 
L 91.796875 -4.296875 
Q 83.984375 -3.90625 77.34375 -3.90625 
L 21.09375 -3.90625 
Q 14.453125 -3.90625 7.421875 -4.296875 
L 7.421875 3.125 
Q 14.84375 2.734375 21.09375 2.734375 
L 45.703125 2.734375 
L 45.703125 26.171875 
L 31.25 26.171875 
Q 25.78125 26.171875 19.921875 25.78125 
L 19.921875 33.59375 
Q 25.78125 33.203125 31.25 33.203125 
L 45.703125 33.203125 
L 45.703125 50.78125 
L 19.53125 50.78125 
Q 16.015625 42.578125 12.5 36.71875 
Q 8.203125 38.671875 3.125 39.453125 
Q 7.421875 44.140625 12.296875 54.484375 
Q 17.1875 64.84375 19.140625 76.5625 
L 29.296875 72.65625 
z
" id="SimHei-29983"/>
     <path d="M 13.671875 14.84375 
L 27.734375 14.84375 
L 27.734375 -0.78125 
Q 26.5625 -10.546875 17.96875 -15.234375 
L 14.0625 -11.71875 
Q 21.09375 -7.8125 21.09375 0 
L 13.671875 0 
z
" id="SimHei-65292"/>
     <path d="M 46.875 1.953125 
L 37.5 1.953125 
L 23.4375 30.859375 
L 13.28125 30.859375 
L 13.28125 1.953125 
L 4.296875 1.953125 
L 4.296875 68.75 
L 23.828125 68.75 
Q 33.203125 68.75 39.0625 64.25 
Q 44.921875 59.765625 44.921875 49.609375 
Q 44.921875 41.796875 41.015625 37.5 
Q 37.109375 33.203125 32.03125 32.03125 
z
M 35.9375 49.609375 
Q 35.9375 55.078125 32.609375 58.203125 
Q 29.296875 61.328125 21.875 61.328125 
L 13.28125 61.328125 
L 13.28125 38.28125 
L 24.21875 38.28125 
Q 28.90625 38.28125 32.421875 40.8125 
Q 35.9375 43.359375 35.9375 49.609375 
z
" id="SimHei-82"/>
    </defs>
    <g transform="translate(179.4 37.2)scale(0.12 -0.12)">
     <use xlink:href="#SimHei-22522"/>
     <use x="100" xlink:href="#SimHei-26412"/>
     <use x="200" xlink:href="#SimHei-20877"/>
     <use x="300" xlink:href="#SimHei-29983"/>
     <use x="400" xlink:href="#SimHei-25968"/>
     <use x="500" xlink:href="#SimHei-65292"/>
     <use x="600" xlink:href="#SimHei-82"/>
     <use x="650" xlink:href="#SimHei-48"/>
    </g>
   </g>
  </g>
 </g>
 <defs>
  <clipPath id="p3b43570fb9">
   <rect height="277.2" width="334.8" x="54" y="43.2"/>
  </clipPath>
 </defs>
</svg>
