<?xml version="1.0" encoding="utf-8" standalone="no"?>
<!DOCTYPE svg PUBLIC "-//W3C//DTD SVG 1.1//EN"
  "http://www.w3.org/Graphics/SVG/1.1/DTD/svg11.dtd">
<!-- Created with matplotlib (https://matplotlib.org/) -->
<svg height="360pt" version="1.1" viewBox="0 0 432 360" width="432pt" xmlns="http://www.w3.org/2000/svg" xmlns:xlink="http://www.w3.org/1999/xlink">
 <defs>
  <style type="text/css">
*{stroke-linecap:butt;stroke-linejoin:round;}
  </style>
 </defs>
 <g id="figure_1">
  <g id="patch_1">
   <path d="M 0 360 
L 432 360 
L 432 0 
L 0 0 
z
" style="fill:#ffffff;"/>
  </g>
  <g id="axes_1">
   <g id="patch_2">
    <path d="M 54 320.4 
L 388.8 320.4 
L 388.8 43.2 
L 54 43.2 
z
" style="fill:#ffffff;"/>
   </g>
   <g id="matplotlib.axis_1">
    <g id="xtick_1">
     <g id="line2d_1">
      <defs>
       <path d="M 0 0 
L 0 3.5 
" id="m962010ba52" style="stroke:#000000;stroke-width:0.8;"/>
      </defs>
      <g>
       <use style="stroke:#000000;stroke-width:0.8;" x="54" xlink:href="#m962010ba52" y="320.4"/>
      </g>
     </g>
     <g id="text_1">
      <!-- 0.0 -->
      <defs>
       <path d="M 3.125 29.296875 
Q 3.90625 50 6.4375 56.046875 
Q 8.984375 62.109375 13.671875 66.015625 
Q 18.359375 69.921875 25.1875 69.921875 
Q 32.03125 69.921875 37.109375 64.25 
Q 42.1875 58.59375 43.75 50 
Q 45.3125 41.40625 44.71875 30.265625 
Q 44.140625 19.140625 40.8125 12.109375 
Q 37.5 5.078125 30.859375 2.34375 
Q 24.21875 -0.390625 17.578125 2.921875 
Q 10.9375 6.25 8.203125 11.71875 
Q 5.46875 17.1875 4.296875 23.234375 
Q 3.125 29.296875 3.90625 50 
z
M 12.890625 52.734375 
Q 10.546875 31.25 12.5 22.84375 
Q 14.453125 14.453125 18.9375 10.9375 
Q 23.4375 7.421875 28.125 9.5625 
Q 32.8125 11.71875 34.953125 18.15625 
Q 37.109375 24.609375 37.109375 32.21875 
Q 37.109375 39.84375 36.515625 46.09375 
Q 35.9375 52.34375 33 57.421875 
Q 30.078125 62.5 25.1875 62.6875 
Q 20.3125 62.890625 16.59375 57.8125 
Q 12.890625 52.734375 10.546875 31.25 
z
" id="SimHei-48"/>
       <path d="M 16.796875 1.953125 
L 7.8125 1.953125 
L 7.8125 10.546875 
L 16.796875 10.546875 
z
" id="SimHei-46"/>
      </defs>
      <g transform="translate(46.5 334.275)scale(0.1 -0.1)">
       <use xlink:href="#SimHei-48"/>
       <use x="50" xlink:href="#SimHei-46"/>
       <use x="100" xlink:href="#SimHei-48"/>
      </g>
     </g>
    </g>
    <g id="xtick_2">
     <g id="line2d_2">
      <g>
       <use style="stroke:#000000;stroke-width:0.8;" x="120.96" xlink:href="#m962010ba52" y="320.4"/>
      </g>
     </g>
     <g id="text_2">
      <!-- 0.2 -->
      <defs>
       <path d="M 4.6875 3.90625 
Q 5.078125 9.765625 10.15625 14.453125 
Q 15.234375 19.140625 23.046875 29.09375 
Q 30.859375 39.0625 33.203125 44.53125 
Q 35.546875 50 34.953125 53.90625 
Q 34.375 57.8125 31.25 60.34375 
Q 28.125 62.890625 24.015625 62.5 
Q 19.921875 62.109375 16.203125 59.375 
Q 12.5 56.640625 10.546875 51.171875 
L 3.125 52.34375 
Q 6.25 61.328125 11.125 65.421875 
Q 16.015625 69.53125 22.65625 69.921875 
Q 26.5625 70.3125 29.6875 69.71875 
Q 32.8125 69.140625 36.125 66.984375 
Q 39.453125 64.84375 41.59375 60.546875 
Q 43.75 56.25 43.15625 50.1875 
Q 42.578125 44.140625 37.109375 35.734375 
Q 31.640625 27.34375 16.015625 9.375 
L 44.140625 9.375 
L 44.140625 2.34375 
L 4.6875 2.34375 
z
" id="SimHei-50"/>
      </defs>
      <g transform="translate(113.46 334.275)scale(0.1 -0.1)">
       <use xlink:href="#SimHei-48"/>
       <use x="50" xlink:href="#SimHei-46"/>
       <use x="100" xlink:href="#SimHei-50"/>
      </g>
     </g>
    </g>
    <g id="xtick_3">
     <g id="line2d_3">
      <g>
       <use style="stroke:#000000;stroke-width:0.8;" x="187.92" xlink:href="#m962010ba52" y="320.4"/>
      </g>
     </g>
     <g id="text_3">
      <!-- 0.4 -->
      <defs>
       <path d="M 31.25 17.1875 
L 1.171875 17.1875 
L 1.171875 23.828125 
L 32.8125 69.53125 
L 38.671875 69.53125 
L 38.671875 23.828125 
L 48.046875 23.828125 
L 48.046875 17.1875 
L 38.671875 17.1875 
L 38.671875 2.34375 
L 31.25 2.34375 
z
M 31.25 23.828125 
L 31.25 54.6875 
L 9.375 23.828125 
z
" id="SimHei-52"/>
      </defs>
      <g transform="translate(180.42 334.275)scale(0.1 -0.1)">
       <use xlink:href="#SimHei-48"/>
       <use x="50" xlink:href="#SimHei-46"/>
       <use x="100" xlink:href="#SimHei-52"/>
      </g>
     </g>
    </g>
    <g id="xtick_4">
     <g id="line2d_4">
      <g>
       <use style="stroke:#000000;stroke-width:0.8;" x="254.88" xlink:href="#m962010ba52" y="320.4"/>
      </g>
     </g>
     <g id="text_4">
      <!-- 0.6 -->
      <defs>
       <path d="M 3.515625 19.53125 
Q 4.296875 30.859375 6.046875 34.765625 
Q 7.8125 38.671875 11.328125 44.53125 
L 27.34375 69.53125 
L 36.328125 69.53125 
L 19.921875 43.75 
Q 30.46875 46.484375 36.71875 42.96875 
Q 42.96875 39.453125 45.109375 34.953125 
Q 47.265625 30.46875 47.453125 25.1875 
Q 47.65625 19.921875 45.890625 14.84375 
Q 44.140625 9.765625 39.640625 5.65625 
Q 35.15625 1.5625 27.140625 1.171875 
Q 19.140625 0.78125 13.46875 4.09375 
Q 7.8125 7.421875 5.65625 13.46875 
Q 3.515625 19.53125 4.296875 30.859375 
z
M 12.5 16.015625 
Q 19.53125 8.59375 25.390625 8.203125 
Q 31.25 7.8125 35.15625 12.109375 
Q 39.0625 16.40625 39.0625 24.609375 
Q 39.0625 32.8125 34.171875 35.9375 
Q 29.296875 39.0625 23.234375 38.28125 
Q 17.1875 37.5 14.453125 32.421875 
Q 11.71875 27.34375 12.109375 21.671875 
Q 12.5 16.015625 19.53125 8.59375 
z
" id="SimHei-54"/>
      </defs>
      <g transform="translate(247.38 334.275)scale(0.1 -0.1)">
       <use xlink:href="#SimHei-48"/>
       <use x="50" xlink:href="#SimHei-46"/>
       <use x="100" xlink:href="#SimHei-54"/>
      </g>
     </g>
    </g>
    <g id="xtick_5">
     <g id="line2d_5">
      <g>
       <use style="stroke:#000000;stroke-width:0.8;" x="321.84" xlink:href="#m962010ba52" y="320.4"/>
      </g>
     </g>
     <g id="text_5">
      <!-- 0.8 -->
      <defs>
       <path d="M 2.734375 16.796875 
Q 2.734375 26.171875 5.078125 30.65625 
Q 7.421875 35.15625 12.890625 37.890625 
Q 8.203125 40.625 6.640625 43.9375 
Q 5.078125 47.265625 4.875 51.5625 
Q 4.6875 55.859375 6.046875 58.984375 
Q 7.421875 62.109375 10.15625 64.84375 
Q 12.890625 67.578125 16.203125 68.546875 
Q 19.53125 69.53125 23.4375 69.53125 
Q 27.34375 69.53125 30.46875 68.75 
Q 33.59375 67.96875 37.109375 65.421875 
Q 40.625 62.890625 42.1875 58.203125 
Q 43.75 53.515625 41.984375 47.265625 
Q 40.234375 41.015625 32.8125 37.5 
Q 39.453125 35.546875 42.1875 31.4375 
Q 44.921875 27.34375 44.921875 21.484375 
Q 44.921875 15.625 43.15625 12.109375 
Q 41.40625 8.59375 39.25 6.25 
Q 37.109375 3.90625 33.390625 2.53125 
Q 29.6875 1.171875 24.015625 1.171875 
Q 18.359375 1.171875 14.25 2.53125 
Q 10.15625 3.90625 7.421875 6.640625 
Q 4.6875 9.375 3.703125 13.078125 
Q 2.734375 16.796875 2.734375 26.171875 
z
M 10.9375 26.5625 
Q 10.546875 17.1875 12.296875 13.671875 
Q 14.0625 10.15625 18.75 9.171875 
Q 23.4375 8.203125 28.515625 9.375 
Q 33.59375 10.546875 35.546875 14.84375 
Q 37.5 19.140625 36.90625 23.4375 
Q 36.328125 27.734375 32.03125 30.65625 
Q 27.734375 33.59375 22.65625 33.203125 
Q 17.578125 32.8125 14.25 29.6875 
Q 10.9375 26.5625 10.546875 17.1875 
z
M 12.109375 56.25 
Q 12.109375 48.4375 14.84375 44.921875 
Q 17.578125 41.40625 23.4375 41.40625 
Q 29.296875 41.40625 32.21875 44.921875 
Q 35.15625 48.4375 34.953125 53.3125 
Q 34.765625 58.203125 31.4375 60.546875 
Q 28.125 62.890625 22.453125 62.5 
Q 16.796875 62.109375 14.453125 59.171875 
Q 12.109375 56.25 12.109375 48.4375 
z
" id="SimHei-56"/>
      </defs>
      <g transform="translate(314.34 334.275)scale(0.1 -0.1)">
       <use xlink:href="#SimHei-48"/>
       <use x="50" xlink:href="#SimHei-46"/>
       <use x="100" xlink:href="#SimHei-56"/>
      </g>
     </g>
    </g>
    <g id="xtick_6">
     <g id="line2d_6">
      <g>
       <use style="stroke:#000000;stroke-width:0.8;" x="388.8" xlink:href="#m962010ba52" y="320.4"/>
      </g>
     </g>
     <g id="text_6">
      <!-- 1.0 -->
      <defs>
       <path d="M 21.875 56.25 
Q 16.796875 51.171875 8.984375 46.484375 
L 8.984375 53.90625 
Q 18.75 60.546875 25 69.53125 
L 29.6875 69.53125 
L 29.6875 2.34375 
L 21.875 2.34375 
z
" id="SimHei-49"/>
      </defs>
      <g transform="translate(381.3 334.275)scale(0.1 -0.1)">
       <use xlink:href="#SimHei-49"/>
       <use x="50" xlink:href="#SimHei-46"/>
       <use x="100" xlink:href="#SimHei-48"/>
      </g>
     </g>
    </g>
    <g id="text_7">
     <!-- 接种后出现症状的概率降低系数（l） -->
     <defs>
      <path d="M 66.015625 35.546875 
Q 64.84375 34.375 62.5 29.6875 
L 87.5 29.6875 
Q 94.53125 30.078125 96.09375 30.078125 
L 96.09375 23.046875 
Q 93.359375 23.4375 88.28125 23.4375 
L 81.640625 23.4375 
Q 78.125 14.453125 73.4375 7.8125 
Q 85.546875 1.953125 94.53125 -2.734375 
Q 93.359375 -3.90625 88.671875 -9.765625 
Q 82.421875 -5.078125 68.359375 2.34375 
Q 62.890625 -2.34375 55.65625 -5.265625 
Q 48.4375 -8.203125 38.28125 -10.15625 
Q 37.890625 -7.03125 34.765625 -3.125 
Q 41.015625 -2.34375 48.046875 -0.578125 
Q 55.078125 1.171875 61.328125 5.46875 
Q 57.8125 7.03125 44.921875 12.5 
Q 47.265625 16.015625 51.171875 23.4375 
L 44.921875 23.4375 
Q 38.671875 23.4375 35.9375 23.046875 
L 35.9375 30.46875 
Q 37.890625 30.078125 44.53125 29.6875 
L 53.90625 29.6875 
Q 56.640625 36.328125 57.03125 39.0625 
Q 63.671875 36.328125 66.015625 35.546875 
z
M 18.359375 61.71875 
L 18.359375 73.4375 
Q 18.359375 75.78125 17.578125 80.078125 
L 26.171875 80.078125 
Q 25.390625 75.78125 25.390625 73.4375 
L 25.390625 61.71875 
Q 29.296875 61.71875 35.15625 62.109375 
L 35.15625 54.6875 
Q 29.296875 55.078125 25.390625 55.078125 
L 25.390625 36.71875 
Q 27.34375 37.890625 34.375 41.015625 
Q 34.375 35.9375 34.765625 33.59375 
Q 27.734375 30.46875 25.390625 29.296875 
L 25.390625 1.171875 
Q 25.390625 -4.296875 22.265625 -6.640625 
Q 19.140625 -8.984375 10.15625 -9.765625 
Q 10.15625 -7.03125 7.03125 -0.390625 
Q 14.84375 -1.5625 16.40625 -0.390625 
Q 17.96875 0.78125 18.359375 4.296875 
L 18.359375 26.5625 
Q 15.234375 25.390625 7.03125 20.703125 
Q 5.078125 26.5625 3.515625 29.296875 
Q 13.28125 31.640625 18.359375 33.984375 
L 18.359375 55.078125 
L 15.625 55.078125 
Q 10.15625 55.078125 4.6875 54.6875 
L 4.6875 62.5 
Q 10.546875 61.71875 15.625 61.71875 
z
M 74.609375 64.0625 
Q 81.25 60.546875 83.59375 59.765625 
Q 81.25 57.8125 76.953125 46.09375 
L 84.765625 46.09375 
Q 91.015625 46.484375 92.96875 46.875 
L 92.96875 39.453125 
Q 90.234375 39.84375 85.546875 39.84375 
L 47.265625 39.84375 
Q 44.53125 39.84375 38.28125 39.453125 
L 38.28125 46.875 
Q 44.140625 46.484375 46.484375 46.09375 
L 69.53125 46.09375 
Q 73.4375 56.640625 74.609375 64.0625 
z
M 61.71875 71.484375 
Q 60.15625 78.125 58.984375 80.46875 
Q 64.453125 81.640625 67.1875 82.421875 
L 70.3125 71.484375 
L 83.59375 71.484375 
Q 89.0625 71.875 92.96875 71.875 
L 92.96875 64.84375 
Q 88.671875 65.234375 83.984375 65.234375 
L 49.609375 65.234375 
Q 43.359375 65.234375 39.0625 64.84375 
L 39.0625 71.875 
Q 42.96875 71.484375 48.4375 71.484375 
z
M 54.296875 15.625 
Q 63.28125 12.5 67.1875 10.15625 
Q 72.265625 17.578125 74.21875 23.4375 
L 59.375 23.4375 
Q 55.859375 18.359375 54.296875 15.625 
z
M 53.515625 61.71875 
Q 58.203125 53.90625 60.15625 50 
Q 53.90625 48.046875 52.34375 46.875 
Q 49.21875 54.296875 46.484375 57.8125 
Q 50.78125 59.765625 53.515625 61.71875 
z
" id="SimHei-25509"/>
      <path d="M 66.015625 62.5 
Q 66.015625 77.734375 65.625 82.421875 
L 73.828125 82.421875 
Q 73.4375 78.125 73.4375 62.5 
L 93.75 62.5 
Q 93.359375 58.203125 93.359375 50.78125 
L 93.359375 24.21875 
Q 93.359375 19.921875 93.75 14.453125 
L 85.9375 14.453125 
L 85.9375 22.265625 
L 73.4375 22.265625 
L 73.4375 5.859375 
Q 73.4375 -4.296875 73.828125 -10.9375 
L 65.625 -10.9375 
Q 66.015625 -4.296875 66.015625 5.859375 
L 66.015625 22.265625 
L 53.515625 22.265625 
L 53.515625 12.890625 
L 45.703125 12.890625 
Q 46.09375 17.578125 46.09375 23.4375 
L 46.09375 50 
Q 46.09375 58.203125 45.703125 62.5 
L 66.015625 62.5 
z
M 5.46875 50.78125 
Q 11.328125 50.390625 19.140625 50.390625 
L 22.265625 50.390625 
L 22.265625 67.578125 
Q 18.359375 66.40625 8.984375 64.453125 
Q 7.421875 67.96875 5.46875 71.484375 
Q 14.0625 71.875 22.0625 74.015625 
Q 30.078125 76.171875 36.71875 79.6875 
Q 39.0625 76.5625 42.578125 72.265625 
Q 38.671875 71.875 35.9375 71.09375 
Q 33.203125 70.3125 29.6875 69.53125 
L 29.6875 50.390625 
Q 34.765625 50.390625 42.1875 50.78125 
L 42.1875 43.75 
Q 34.765625 44.140625 29.6875 44.140625 
L 29.6875 3.515625 
Q 29.6875 -1.953125 30.078125 -10.15625 
L 21.875 -10.15625 
Q 22.265625 -1.953125 22.265625 3.515625 
L 22.265625 29.296875 
Q 19.140625 21.484375 16.59375 16.796875 
Q 14.0625 12.109375 9.765625 5.46875 
Q 6.640625 9.765625 3.90625 13.28125 
Q 9.375 19.140625 13.859375 26.953125 
Q 18.359375 34.765625 20.3125 44.140625 
L 14.453125 44.140625 
Q 8.984375 44.140625 5.46875 43.75 
z
M 66.015625 28.515625 
L 66.015625 56.25 
L 53.515625 56.25 
L 53.515625 28.515625 
z
M 85.9375 28.515625 
L 85.9375 56.25 
L 73.4375 56.25 
L 73.4375 28.515625 
z
M 37.109375 38.671875 
Q 38.28125 35.9375 40.234375 33.203125 
Q 42.1875 30.46875 44.53125 25.390625 
Q 41.015625 23.828125 37.890625 21.484375 
Q 35.9375 25.78125 34.5625 28.703125 
Q 33.203125 31.640625 30.859375 34.765625 
Q 33.203125 36.328125 37.109375 38.671875 
z
" id="SimHei-31181"/>
      <path d="M 85.546875 33.59375 
Q 85.15625 27.34375 85.15625 12.109375 
Q 85.15625 -2.734375 85.9375 -8.59375 
L 77.734375 -8.59375 
L 77.734375 -0.390625 
L 39.453125 -0.390625 
L 39.453125 -9.375 
L 31.640625 -9.375 
Q 32.03125 -2.734375 32.03125 12.109375 
Q 32.03125 27.34375 31.640625 33.59375 
L 85.546875 33.59375 
z
M 80.859375 79.296875 
Q 82.8125 75 86.328125 70.703125 
Q 77.34375 69.921875 58.59375 67.765625 
Q 39.84375 65.625 24.609375 65.234375 
L 24.609375 52.734375 
L 81.25 52.734375 
Q 86.71875 52.734375 93.359375 53.125 
L 93.359375 45.3125 
Q 87.109375 45.703125 81.25 45.703125 
L 24.609375 45.703125 
Q 24.21875 37.890625 23.234375 29.296875 
Q 22.265625 20.703125 19.53125 11.125 
Q 16.796875 1.5625 12.5 -5.078125 
Q 10.15625 -3.125 3.515625 -0.78125 
Q 9.765625 5.078125 12.890625 16.59375 
Q 16.015625 28.125 16.40625 44.140625 
Q 16.796875 60.15625 16.796875 71.484375 
Q 35.9375 71.875 56.640625 74.609375 
Q 77.34375 77.34375 80.859375 79.296875 
z
M 77.734375 5.859375 
L 77.734375 26.953125 
L 39.453125 26.953125 
L 39.453125 5.859375 
z
" id="SimHei-21518"/>
      <path d="M 23.046875 71.09375 
Q 22.65625 66.015625 22.65625 61.71875 
L 22.65625 46.09375 
L 45.703125 46.09375 
L 45.703125 69.140625 
Q 45.703125 74.609375 45.3125 80.078125 
L 53.515625 80.078125 
Q 53.125 75.390625 53.125 69.140625 
L 53.125 46.09375 
L 76.5625 46.09375 
L 76.5625 60.546875 
Q 76.5625 66.796875 76.171875 70.703125 
L 84.375 70.703125 
Q 83.984375 66.796875 83.984375 60.15625 
L 83.984375 49.609375 
Q 83.984375 43.359375 84.375 39.453125 
L 53.125 39.453125 
L 53.125 3.515625 
L 80.078125 3.515625 
L 80.078125 19.921875 
Q 80.078125 25.78125 79.6875 30.078125 
L 87.890625 30.078125 
Q 87.5 25.78125 87.5 20.3125 
L 87.5 2.734375 
Q 87.5 -5.078125 87.890625 -10.15625 
L 80.078125 -10.15625 
L 80.078125 -3.125 
L 10.546875 -3.125 
Q 10.9375 1.5625 10.9375 8.203125 
L 10.9375 19.921875 
Q 10.9375 26.5625 10.546875 30.46875 
L 18.75 30.46875 
Q 18.359375 26.5625 18.359375 19.921875 
L 18.359375 3.515625 
L 45.703125 3.515625 
L 45.703125 39.453125 
L 14.84375 39.453125 
Q 15.234375 43.359375 15.234375 49.21875 
L 15.234375 61.328125 
Q 15.234375 66.40625 14.84375 71.09375 
L 23.046875 71.09375 
z
" id="SimHei-20986"/>
      <path d="M 72.65625 60.15625 
Q 71.09375 55.859375 70.5 46.484375 
Q 69.921875 37.109375 67.96875 26.5625 
L 75.78125 26.5625 
Q 75.390625 22.65625 75.390625 16.015625 
L 75.390625 3.515625 
Q 75.390625 -2.34375 77.53125 -2.734375 
Q 79.6875 -3.125 82.421875 -2.921875 
Q 85.15625 -2.734375 86.328125 -0.1875 
Q 87.5 2.34375 87.890625 8.984375 
Q 91.796875 6.640625 96.484375 5.859375 
Q 94.53125 -2.34375 92.578125 -5.265625 
Q 90.625 -8.203125 84.375 -8.984375 
L 76.5625 -8.984375 
Q 67.96875 -8.984375 67.96875 -1.5625 
L 67.96875 25.78125 
Q 64.453125 13.28125 57.8125 4.875 
Q 51.171875 -3.515625 37.890625 -10.546875 
Q 35.9375 -7.421875 31.25 -5.078125 
Q 43.75 0 49.609375 6.046875 
Q 55.46875 12.109375 58.984375 21.484375 
Q 62.5 30.859375 63.078125 41.015625 
Q 63.671875 51.171875 63.28125 61.328125 
Q 68.359375 60.546875 72.65625 60.15625 
z
M 28.90625 72.265625 
Q 33.203125 72.265625 39.453125 72.65625 
L 39.453125 65.234375 
Q 33.203125 65.625 26.171875 65.625 
L 26.171875 44.140625 
Q 31.640625 44.140625 37.890625 44.53125 
L 37.890625 37.109375 
Q 31.640625 37.5 26.171875 37.5 
L 26.171875 13.671875 
Q 32.8125 15.234375 39.84375 17.578125 
Q 39.453125 13.28125 39.453125 10.15625 
Q 26.5625 7.03125 18.75 4.296875 
Q 10.9375 1.5625 7.03125 -0.390625 
Q 5.859375 5.078125 3.90625 8.984375 
Q 10.15625 9.765625 19.140625 11.71875 
L 19.140625 37.5 
Q 12.890625 37.5 7.03125 37.109375 
L 7.03125 44.53125 
Q 12.890625 44.140625 19.140625 44.140625 
L 19.140625 65.625 
Q 12.109375 65.625 6.640625 65.234375 
L 6.640625 72.65625 
Q 11.328125 72.265625 15.625 72.265625 
z
M 89.84375 76.171875 
Q 89.453125 69.921875 89.453125 63.671875 
L 89.453125 37.5 
Q 89.453125 30.078125 89.84375 24.609375 
L 82.421875 24.609375 
L 82.421875 69.921875 
L 52.734375 69.921875 
L 52.734375 24.21875 
L 45.3125 24.21875 
Q 45.703125 30.859375 45.703125 39.0625 
L 45.703125 60.546875 
Q 45.703125 69.140625 45.3125 76.171875 
L 89.84375 76.171875 
z
" id="SimHei-29616"/>
      <path d="M 77.734375 52.734375 
Q 85.15625 52.734375 93.359375 53.125 
L 93.359375 46.09375 
Q 85.546875 46.484375 77.734375 46.484375 
L 68.359375 46.484375 
L 68.359375 30.078125 
L 77.734375 30.078125 
Q 82.8125 30.078125 91.015625 30.46875 
L 91.015625 23.046875 
Q 83.203125 23.4375 77.734375 23.4375 
L 68.359375 23.4375 
L 68.359375 1.5625 
L 79.6875 1.5625 
Q 86.71875 1.5625 95.703125 1.953125 
L 95.703125 -5.078125 
Q 86.328125 -4.6875 80.078125 -4.6875 
L 44.53125 -4.6875 
Q 37.109375 -4.6875 28.125 -5.078125 
L 28.125 1.953125 
Q 33.59375 1.5625 40.234375 1.5625 
L 40.234375 22.65625 
Q 40.234375 26.953125 39.84375 34.375 
L 48.046875 34.375 
Q 47.65625 28.125 47.65625 22.65625 
L 47.65625 1.5625 
L 60.15625 1.5625 
L 60.15625 46.484375 
L 49.21875 46.484375 
Q 42.578125 46.484375 35.15625 46.09375 
L 35.15625 53.125 
Q 42.578125 52.734375 49.21875 52.734375 
z
M 60.9375 82.421875 
Q 62.5 76.171875 64.453125 69.921875 
L 79.296875 69.921875 
Q 85.546875 69.921875 95.3125 70.3125 
L 95.3125 62.890625 
Q 85.546875 63.28125 79.296875 63.28125 
L 28.90625 63.28125 
L 28.90625 46.09375 
Q 28.90625 36.328125 28.515625 25.96875 
Q 28.125 15.625 25.78125 7.609375 
Q 23.4375 -0.390625 16.796875 -10.9375 
Q 13.671875 -8.59375 8.59375 -6.25 
Q 13.28125 -1.953125 16.40625 4.09375 
Q 19.53125 10.15625 20.5 16.59375 
Q 21.484375 23.046875 21.484375 27.734375 
Q 15.625 23.828125 8.203125 18.75 
Q 6.25 22.65625 3.90625 26.953125 
Q 7.421875 28.125 21.484375 34.375 
L 21.484375 53.90625 
Q 21.484375 62.5 21.09375 69.921875 
L 54.6875 69.921875 
Q 53.515625 75.78125 51.953125 80.46875 
Q 56.25 81.25 60.9375 82.421875 
z
M 8.59375 61.328125 
Q 14.453125 55.078125 20.3125 48.046875 
Q 17.96875 46.484375 14.453125 42.96875 
Q 9.375 50 3.515625 56.25 
Q 6.640625 58.984375 8.59375 61.328125 
z
" id="SimHei-30151"/>
      <path d="M 34.765625 -4.296875 
Q 41.796875 0.390625 46.484375 7.421875 
Q 51.171875 14.453125 53.90625 21.09375 
Q 56.640625 27.734375 57.8125 33.984375 
Q 58.984375 40.234375 59.375 44.921875 
L 50.390625 44.921875 
Q 44.53125 44.921875 39.0625 44.53125 
L 39.0625 51.953125 
Q 44.53125 51.5625 50 51.5625 
L 59.765625 51.5625 
Q 59.765625 62.109375 59.5625 68.359375 
Q 59.375 74.609375 58.984375 79.296875 
L 69.140625 79.296875 
Q 67.96875 74.21875 67.765625 68.9375 
Q 67.578125 63.671875 67.578125 51.5625 
L 83.59375 51.5625 
Q 87.890625 51.5625 93.359375 51.953125 
L 93.359375 44.53125 
Q 87.890625 44.921875 83.59375 44.921875 
L 68.359375 44.921875 
Q 73.046875 22.65625 78.3125 15.03125 
Q 83.59375 7.421875 87.890625 4.09375 
Q 92.1875 0.78125 95.703125 -1.171875 
Q 90.234375 -3.515625 87.890625 -8.203125 
Q 81.640625 -3.125 77.921875 1.75 
Q 74.21875 6.640625 71.671875 11.328125 
Q 69.140625 16.015625 67.375 20.890625 
Q 65.625 25.78125 64.453125 31.25 
Q 62.5 21.875 59.5625 15.234375 
Q 56.640625 8.59375 53.515625 3.703125 
Q 50.390625 -1.171875 42.96875 -9.765625 
Q 39.453125 -6.25 34.765625 -4.296875 
z
M 34.765625 81.25 
Q 34.375 75.390625 34.375 66.40625 
L 34.375 12.109375 
Q 34.375 0.78125 34.765625 -9.765625 
L 26.171875 -9.765625 
Q 26.5625 1.171875 26.5625 12.109375 
L 26.5625 30.46875 
Q 23.828125 27.34375 18.75 21.09375 
Q 13.671875 14.84375 10.9375 11.71875 
Q 7.8125 15.625 4.296875 17.96875 
Q 8.984375 21.484375 14.25 26.75 
Q 19.53125 32.03125 26.5625 40.625 
L 26.5625 66.40625 
Q 26.5625 75.390625 26.171875 81.25 
L 34.765625 81.25 
z
M 9.765625 67.578125 
Q 12.5 64.453125 15.625 60.546875 
Q 18.75 56.640625 21.484375 52.734375 
Q 18.359375 50.390625 16.40625 48.046875 
Q 13.28125 52.34375 3.90625 63.28125 
Q 6.25 65.234375 9.765625 67.578125 
z
M 85.546875 57.03125 
Q 82.03125 62.109375 73.4375 69.921875 
Q 76.5625 72.265625 78.515625 74.21875 
Q 82.03125 71.484375 84.765625 68.546875 
Q 87.5 65.625 91.015625 62.109375 
Q 87.890625 59.375 85.546875 57.03125 
z
" id="SimHei-29366"/>
      <path d="M 32.8125 77.734375 
Q 30.859375 74.21875 27.34375 61.71875 
L 44.921875 61.71875 
Q 44.53125 55.078125 44.53125 44.921875 
L 44.53125 10.546875 
Q 44.53125 4.6875 44.921875 -6.25 
L 37.109375 -6.25 
L 37.109375 1.5625 
L 17.1875 1.5625 
L 17.1875 -7.03125 
L 9.375 -7.03125 
Q 9.765625 5.46875 9.765625 8.59375 
L 9.765625 44.53125 
Q 9.765625 55.078125 9.375 61.71875 
L 20.703125 61.71875 
Q 22.65625 70.703125 23.828125 80.46875 
Q 29.296875 78.515625 32.8125 77.734375 
z
M 91.015625 48.046875 
Q 90.625 24.21875 89.0625 2.734375 
Q 88.28125 -4.296875 81.640625 -6.640625 
Q 75 -8.984375 66.796875 -9.765625 
Q 66.40625 -5.46875 63.28125 -0.78125 
Q 71.09375 -1.171875 75.578125 -0.390625 
Q 80.078125 0.390625 81.25 3.125 
Q 82.421875 5.859375 83 19.140625 
Q 83.59375 32.421875 83.984375 56.25 
L 61.328125 56.25 
Q 58.203125 48.828125 52.34375 38.671875 
Q 49.609375 41.40625 45.703125 42.96875 
Q 49.21875 47.65625 52.34375 54.296875 
Q 55.46875 60.9375 57.8125 68.75 
Q 60.15625 76.5625 60.546875 80.859375 
Q 66.015625 78.515625 69.921875 77.34375 
Q 67.96875 74.21875 66.59375 70.5 
Q 65.234375 66.796875 63.671875 63.28125 
L 91.40625 63.28125 
Q 91.015625 55.078125 91.015625 48.046875 
z
M 37.109375 8.203125 
L 37.109375 28.90625 
L 17.1875 28.90625 
L 17.1875 8.203125 
z
M 37.109375 35.546875 
L 37.109375 55.078125 
L 17.1875 55.078125 
L 17.1875 35.546875 
z
M 67.96875 32.03125 
Q 70.3125 27.34375 73.4375 19.921875 
Q 70.703125 18.75 66.015625 16.015625 
Q 63.28125 23.4375 60.9375 28.703125 
Q 58.59375 33.984375 56.25 37.5 
Q 58.984375 39.0625 63.28125 41.40625 
z
" id="SimHei-30340"/>
      <path d="M 48.4375 17.96875 
Q 46.875 21.09375 45.3125 23.046875 
Q 48.046875 25 51.171875 26.953125 
Q 53.515625 23.046875 55.265625 19.71875 
Q 57.03125 16.40625 59.765625 11.71875 
Q 57.421875 9.765625 53.515625 7.03125 
Q 52.734375 9.375 51.171875 12.5 
Q 48.046875 9.765625 43.359375 6.4375 
Q 38.671875 3.125 35.15625 -0.78125 
Q 32.421875 3.125 30.078125 5.46875 
Q 32.8125 8.203125 33.203125 13.671875 
L 33.203125 62.5 
Q 33.203125 69.140625 32.8125 73.4375 
L 55.859375 73.4375 
Q 55.46875 67.578125 55.46875 54.296875 
Q 55.46875 41.40625 55.859375 34.375 
L 39.84375 34.375 
L 39.84375 11.71875 
Q 42.578125 13.28125 48.4375 17.96875 
z
M 51.953125 -10.9375 
Q 50 -7.8125 46.09375 -5.078125 
Q 53.125 -1.171875 60.15625 9.953125 
Q 67.1875 21.09375 70.3125 36.71875 
L 59.375 36.71875 
Q 59.765625 42.578125 59.765625 48.046875 
Q 59.765625 53.515625 59.375 58.59375 
L 66.796875 58.59375 
Q 66.015625 55.46875 66.015625 50.78125 
L 66.015625 42.578125 
L 71.875 42.578125 
Q 73.046875 54.6875 73.046875 68.75 
L 69.140625 68.75 
Q 63.671875 68.75 59.375 68.359375 
L 59.375 75 
Q 64.0625 74.609375 69.140625 74.609375 
L 80.46875 74.609375 
Q 87.890625 74.609375 91.40625 75 
L 91.40625 68.359375 
Q 88.28125 68.75 79.6875 68.75 
Q 79.6875 57.8125 78.515625 42.578125 
L 83.984375 42.578125 
Q 87.5 42.578125 92.578125 42.96875 
L 92.578125 36.328125 
Q 87.5 36.71875 84.765625 36.71875 
L 77.34375 36.71875 
Q 72.265625 16.796875 66.984375 7.21875 
Q 61.71875 -2.34375 51.953125 -10.9375 
z
M 15.625 69.140625 
Q 15.625 74.21875 15.234375 78.90625 
L 23.046875 78.90625 
Q 22.265625 73.828125 22.265625 67.1875 
L 22.265625 59.375 
Q 25.390625 59.375 30.078125 59.765625 
L 30.078125 53.125 
Q 25 53.515625 22.265625 53.515625 
L 22.265625 41.40625 
Q 24.21875 42.578125 26.5625 44.140625 
Q 29.6875 36.71875 32.421875 29.296875 
Q 28.90625 28.515625 26.5625 26.5625 
Q 25 32.03125 22.265625 38.28125 
L 22.265625 4.6875 
Q 22.265625 -1.953125 22.65625 -8.984375 
L 15.234375 -8.984375 
Q 15.625 -0.78125 15.625 4.6875 
L 15.625 31.640625 
Q 12.890625 22.65625 8.59375 14.84375 
Q 7.03125 17.96875 2.734375 21.09375 
Q 7.8125 28.515625 10.34375 35.546875 
Q 12.890625 42.578125 14.84375 53.515625 
Q 7.8125 53.515625 5.46875 53.125 
L 5.46875 59.765625 
Q 8.59375 59.375 15.625 59.375 
z
M 82.8125 26.953125 
Q 82.421875 16.40625 82.421875 3.515625 
Q 82.421875 -0.78125 84.5625 -1.171875 
Q 86.71875 -1.5625 87.890625 -1.359375 
Q 89.0625 -1.171875 89.640625 0.578125 
Q 90.234375 2.34375 90.234375 7.421875 
Q 93.75 5.46875 97.65625 4.6875 
Q 96.09375 -3.515625 94.53125 -5.46875 
Q 92.96875 -7.421875 88.28125 -7.421875 
L 83.59375 -7.421875 
Q 75 -7.03125 75.78125 0.78125 
Q 75.78125 14.453125 75.78125 26.953125 
L 82.8125 26.953125 
z
M 48.828125 40.234375 
L 48.828125 51.171875 
L 39.84375 51.171875 
L 39.84375 40.234375 
z
M 48.828125 57.03125 
L 48.828125 67.578125 
L 39.84375 67.578125 
L 39.84375 57.03125 
z
" id="SimHei-27010"/>
      <path d="M 51.953125 80.46875 
Q 53.515625 76.5625 55.46875 70.703125 
L 75 70.703125 
Q 82.03125 70.703125 90.625 71.09375 
L 90.625 64.453125 
Q 82.03125 65.234375 74.609375 65.234375 
L 43.75 65.234375 
Q 46.484375 63.28125 51.5625 60.9375 
Q 48.046875 58.59375 44.921875 55.265625 
Q 41.796875 51.953125 38.671875 48.828125 
L 51.171875 48.828125 
Q 55.859375 53.515625 58.984375 58.984375 
Q 62.5 56.25 66.796875 53.515625 
Q 61.71875 50.78125 56.25 44.921875 
Q 50.78125 39.0625 41.015625 31.25 
L 60.15625 32.8125 
Q 58.203125 35.15625 56.25 37.890625 
Q 58.59375 38.671875 62.5 41.40625 
Q 66.40625 36.71875 73.4375 26.5625 
Q 69.921875 25.390625 66.015625 22.65625 
Q 65.234375 25 62.890625 27.734375 
Q 57.8125 27.34375 53.515625 27.34375 
L 53.515625 16.40625 
L 80.46875 16.40625 
Q 88.671875 16.40625 95.3125 16.796875 
L 95.3125 10.15625 
Q 89.0625 10.546875 80.078125 10.546875 
L 53.515625 10.546875 
L 53.515625 2.734375 
Q 53.515625 -4.6875 53.90625 -9.765625 
L 45.3125 -9.765625 
Q 45.703125 -4.6875 45.703125 2.734375 
L 45.703125 10.546875 
L 20.703125 10.546875 
Q 12.890625 10.546875 5.078125 10.15625 
L 5.078125 16.796875 
Q 12.890625 16.40625 21.09375 16.40625 
L 45.703125 16.40625 
L 45.703125 26.5625 
Q 42.1875 26.171875 38.671875 25.578125 
Q 35.15625 25 31.640625 23.828125 
Q 30.46875 27.734375 28.90625 31.25 
Q 32.421875 31.640625 36.328125 34.375 
Q 40.234375 37.109375 46.484375 43.75 
Q 35.9375 42.578125 31.640625 41.015625 
Q 30.859375 44.921875 28.90625 49.609375 
Q 32.421875 49.609375 36.328125 54.484375 
Q 40.234375 59.375 42.96875 65.234375 
L 26.5625 65.234375 
Q 17.96875 65.234375 10.15625 64.453125 
L 10.15625 71.09375 
Q 17.96875 70.703125 24.21875 70.703125 
L 46.484375 70.703125 
Q 45.3125 75.390625 43.75 78.515625 
Q 47.265625 79.296875 51.953125 80.46875 
z
M 25.390625 40.234375 
Q 26.953125 37.5 28.515625 34.375 
Q 24.609375 32.03125 20.703125 29.09375 
Q 16.796875 26.171875 12.5 22.265625 
Q 9.765625 26.171875 7.421875 29.296875 
Q 12.5 31.640625 17.1875 34.5625 
Q 21.875 37.5 25.390625 40.234375 
z
M 75.78125 41.40625 
Q 80.078125 38.671875 83.390625 36.515625 
Q 86.71875 34.375 91.796875 30.46875 
Q 88.671875 28.125 85.9375 25 
Q 82.8125 27.734375 79.09375 30.859375 
Q 75.390625 33.984375 71.484375 36.328125 
Q 73.828125 38.671875 75.78125 41.40625 
z
M 89.453125 55.078125 
Q 86.71875 53.90625 82.8125 50.96875 
Q 78.90625 48.046875 75 44.140625 
Q 72.265625 47.65625 69.921875 49.609375 
Q 73.4375 51.953125 76.171875 54.484375 
Q 78.90625 57.03125 82.8125 61.328125 
Q 86.328125 57.8125 89.453125 55.078125 
z
M 16.40625 60.15625 
Q 22.265625 56.25 27.734375 51.171875 
Q 24.609375 48.4375 22.265625 45.703125 
Q 16.796875 51.5625 10.546875 55.078125 
Q 13.671875 57.8125 16.40625 60.15625 
z
" id="SimHei-29575"/>
      <path d="M 63.671875 78.90625 
Q 60.15625 75 58.984375 72.265625 
L 88.28125 72.265625 
Q 84.765625 65.234375 81.046875 59.953125 
Q 77.34375 54.6875 72.65625 50 
Q 76.5625 47.265625 82.421875 45.703125 
Q 88.28125 44.140625 96.875 43.75 
Q 94.140625 39.453125 93.359375 35.9375 
Q 83.984375 37.5 77.34375 40.03125 
Q 70.703125 42.578125 66.796875 45.3125 
Q 61.71875 42.1875 55.46875 39.0625 
Q 49.21875 35.9375 39.453125 33.203125 
Q 38.28125 36.71875 35.15625 39.84375 
Q 43.359375 41.40625 50.1875 44.140625 
Q 57.03125 46.875 60.546875 50 
Q 55.46875 55.078125 51.953125 60.546875 
Q 46.875 53.90625 44.140625 51.171875 
Q 41.40625 53.90625 38.28125 55.46875 
Q 43.359375 60.15625 48.046875 67.578125 
Q 52.734375 75 55.859375 82.8125 
Q 61.71875 79.6875 63.671875 78.90625 
z
M 36.71875 77.734375 
Q 34.765625 72.65625 31.640625 63.46875 
Q 28.515625 54.296875 26.171875 46.484375 
Q 32.421875 38.28125 34.375 33.984375 
Q 36.328125 29.6875 35.734375 24.21875 
Q 35.15625 18.75 31.4375 15.8125 
Q 27.734375 12.890625 21.09375 12.109375 
Q 20.3125 16.015625 17.96875 20.703125 
Q 25.78125 20.3125 27.140625 23.625 
Q 28.515625 26.953125 27.921875 30.65625 
Q 27.34375 34.375 18.75 45.703125 
L 22.65625 56.25 
Q 25 62.890625 26.953125 71.09375 
L 15.234375 71.09375 
L 15.234375 -9.375 
L 7.8125 -9.375 
Q 8.203125 5.078125 8.203125 13.671875 
L 8.203125 58.59375 
Q 8.203125 67.578125 7.8125 77.734375 
L 36.71875 77.734375 
z
M 79.6875 32.421875 
Q 82.421875 32.421875 89.453125 32.8125 
L 89.453125 25.78125 
Q 85.15625 26.171875 80.46875 26.171875 
L 71.484375 26.171875 
L 71.484375 14.0625 
L 81.25 14.0625 
Q 88.671875 14.0625 94.53125 14.453125 
L 94.53125 7.421875 
Q 89.0625 7.8125 81.640625 7.8125 
L 71.484375 7.8125 
L 71.484375 1.953125 
Q 71.484375 -3.90625 71.875 -9.375 
L 64.0625 -9.375 
Q 64.453125 -3.515625 64.453125 1.5625 
L 64.453125 7.8125 
L 37.109375 7.8125 
Q 39.0625 17.1875 39.0625 21.875 
L 47.265625 20.703125 
Q 45.703125 16.015625 45.703125 14.0625 
L 64.453125 14.0625 
L 64.453125 26.171875 
L 54.296875 26.171875 
Q 48.4375 26.171875 43.359375 25.78125 
L 43.359375 32.8125 
Q 50.390625 32.421875 54.296875 32.421875 
L 64.453125 32.421875 
Q 64.453125 37.109375 64.0625 41.015625 
L 71.484375 41.015625 
Q 71.09375 34.765625 71.09375 32.421875 
z
M 66.796875 54.296875 
Q 71.875 58.203125 76.953125 66.40625 
L 55.46875 66.40625 
Q 62.890625 57.03125 66.796875 54.296875 
z
" id="SimHei-38477"/>
      <path d="M 35.9375 71.09375 
Q 42.96875 70.703125 58.59375 72.453125 
Q 74.21875 74.21875 82.421875 78.125 
Q 84.765625 73.828125 87.5 69.921875 
Q 80.078125 68.75 67.96875 67.1875 
Q 67.96875 59.765625 68.75 44.53125 
L 78.125 44.53125 
Q 84.765625 44.53125 91.40625 44.921875 
L 91.40625 37.890625 
Q 84.765625 38.28125 78.515625 38.28125 
L 69.53125 38.28125 
Q 71.484375 20.703125 75.96875 11.90625 
Q 80.46875 3.125 83.203125 1.171875 
Q 85.9375 -0.78125 86.90625 1.953125 
Q 87.890625 4.6875 88.671875 12.109375 
Q 92.578125 8.984375 96.09375 8.203125 
Q 93.75 -1.5625 91.40625 -5.265625 
Q 89.0625 -8.984375 83.59375 -7.8125 
Q 78.125 -6.640625 71.671875 4.09375 
Q 65.234375 14.84375 62.5 38.28125 
L 43.359375 38.28125 
L 43.359375 7.8125 
Q 51.171875 14.84375 55.859375 19.921875 
Q 57.421875 15.234375 58.984375 12.5 
Q 43.359375 -0.78125 39.0625 -5.46875 
Q 36.328125 -2.734375 33.984375 0.390625 
Q 35.9375 2.34375 36.328125 7.8125 
L 36.328125 58.203125 
Q 36.328125 63.671875 35.9375 71.09375 
z
M 32.03125 79.296875 
Q 29.6875 76.5625 25 61.71875 
L 25 6.640625 
Q 25 -1.171875 25.390625 -9.765625 
L 17.1875 -9.765625 
Q 17.578125 -1.171875 17.578125 7.03125 
L 17.578125 47.265625 
Q 13.671875 39.0625 9.765625 33.203125 
Q 6.25 36.71875 3.515625 37.890625 
Q 9.375 45.3125 15.03125 57.609375 
Q 20.703125 69.921875 23.4375 82.421875 
Q 24.609375 81.25 32.03125 79.296875 
z
M 61.71875 44.53125 
Q 60.9375 58.984375 60.9375 66.015625 
Q 48.828125 65.234375 43.359375 64.84375 
L 43.359375 44.53125 
z
M 60.15625 -9.765625 
Q 53.90625 -1.171875 50.78125 1.5625 
Q 53.90625 4.296875 55.859375 6.640625 
Q 61.328125 0.78125 66.015625 -4.6875 
Q 62.890625 -7.03125 60.15625 -9.765625 
z
" id="SimHei-20302"/>
      <path d="M 82.8125 81.25 
Q 85.15625 77.34375 89.453125 73.046875 
Q 77.734375 72.65625 69.328125 71.671875 
Q 60.9375 70.703125 48.828125 69.53125 
Q 50.78125 67.578125 54.296875 66.015625 
Q 49.21875 62.890625 44.328125 58.78125 
Q 39.453125 54.6875 34.765625 51.171875 
L 54.296875 51.171875 
Q 64.0625 57.8125 70.703125 63.28125 
Q 74.609375 60.15625 80.078125 57.8125 
Q 74.609375 55.46875 69.53125 52.734375 
Q 64.453125 50 52.921875 42.765625 
Q 41.40625 35.546875 33.203125 30.859375 
Q 56.25 32.03125 76.171875 32.8125 
Q 74.21875 34.765625 66.015625 41.015625 
Q 69.921875 42.578125 72.65625 44.921875 
Q 77.34375 41.40625 83.390625 36.125 
Q 89.453125 30.859375 94.921875 25.78125 
Q 90.234375 23.046875 87.5 20.703125 
Q 84.375 24.609375 81.640625 26.953125 
Q 71.09375 26.5625 56.640625 25.78125 
L 56.640625 2.34375 
Q 56.640625 -5.078125 52.921875 -6.4375 
Q 49.21875 -7.8125 39.453125 -9.375 
Q 38.671875 -4.6875 35.9375 -0.390625 
Q 44.921875 -0.390625 47.0625 0.1875 
Q 49.21875 0.78125 49.21875 4.6875 
L 49.21875 25.78125 
Q 25.390625 25.390625 16.796875 23.828125 
Q 15.625 27.734375 14.0625 32.03125 
Q 22.65625 32.8125 29.296875 35.9375 
Q 35.9375 39.0625 45.3125 45.3125 
Q 36.328125 45.3125 31.828125 44.921875 
Q 27.34375 44.53125 21.875 43.75 
Q 20.703125 48.046875 19.53125 51.953125 
Q 26.171875 51.953125 32.8125 57.21875 
Q 39.453125 62.5 42.96875 68.75 
Q 21.09375 67.96875 14.453125 67.1875 
Q 13.28125 71.09375 11.71875 74.21875 
Q 33.59375 74.21875 50.78125 75.78125 
Q 67.96875 77.34375 82.8125 81.25 
z
M 72.265625 19.53125 
Q 76.953125 16.015625 83.203125 11.515625 
Q 89.453125 7.03125 93.75 2.734375 
Q 90.625 0 87.5 -3.515625 
Q 82.421875 1.953125 76.953125 6.25 
Q 71.484375 10.546875 66.796875 13.671875 
Q 70.3125 16.40625 72.265625 19.53125 
z
M 34.375 13.671875 
Q 29.6875 11.328125 24.015625 5.859375 
Q 18.359375 0.390625 12.5 -4.6875 
Q 8.984375 -1.171875 5.859375 0.390625 
Q 16.796875 7.03125 26.171875 19.140625 
Q 29.6875 16.40625 34.375 13.671875 
z
" id="SimHei-31995"/>
      <path d="M 70.703125 76.953125 
Q 69.921875 75 68.75 71.671875 
Q 67.578125 68.359375 65.234375 59.765625 
L 83.203125 59.765625 
Q 87.109375 59.765625 92.578125 60.15625 
L 92.578125 53.125 
Q 88.28125 53.515625 85.9375 53.515625 
Q 85.9375 47.265625 83.78125 33.78125 
Q 81.640625 20.3125 76.171875 10.546875 
Q 80.078125 5.859375 84.953125 2.140625 
Q 89.84375 -1.5625 94.140625 -3.125 
Q 89.453125 -6.640625 87.890625 -9.765625 
Q 83.203125 -7.03125 79.296875 -3.515625 
Q 75.390625 0 71.484375 5.078125 
Q 67.1875 0.390625 62.296875 -2.921875 
Q 57.421875 -6.25 50 -10.15625 
Q 48.046875 -6.640625 44.53125 -4.6875 
Q 50.390625 -2.34375 57.03125 1.953125 
Q 63.671875 6.25 67.1875 10.546875 
Q 64.453125 16.015625 61.90625 22.265625 
Q 59.375 28.515625 57.421875 38.671875 
Q 56.25 35.546875 53.515625 30.46875 
Q 50.78125 32.03125 46.875 33.59375 
Q 53.125 44.53125 57.03125 57.421875 
Q 60.9375 70.3125 62.109375 79.6875 
Q 66.796875 77.734375 70.703125 76.953125 
z
M 32.8125 35.15625 
Q 31.25 33.59375 29.296875 30.078125 
L 50.78125 30.078125 
Q 48.4375 20.3125 42.578125 10.546875 
Q 48.828125 8.203125 52.34375 6.25 
Q 50.390625 3.515625 48.828125 0.390625 
Q 45.3125 2.734375 38.28125 5.078125 
Q 30.46875 -3.515625 11.328125 -10.15625 
Q 9.375 -5.859375 6.25 -4.296875 
Q 24.609375 0 31.25 7.421875 
Q 20.3125 10.15625 13.28125 12.109375 
Q 15.625 15.625 19.53125 23.828125 
Q 15.625 23.828125 6.640625 23.4375 
L 6.640625 30.46875 
Q 14.0625 30.078125 21.875 30.078125 
Q 23.4375 33.59375 24.21875 37.890625 
Q 28.515625 36.328125 32.8125 35.15625 
z
M 27.734375 61.71875 
Q 27.734375 71.09375 27.34375 79.6875 
L 35.15625 79.6875 
Q 34.765625 71.484375 34.765625 61.71875 
Q 48.046875 61.71875 53.515625 62.109375 
L 53.515625 55.078125 
Q 48.046875 55.46875 34.765625 55.46875 
Q 34.765625 44.140625 35.15625 37.890625 
L 27.34375 37.890625 
Q 27.734375 43.359375 27.734375 51.5625 
Q 25.78125 48.4375 20.3125 43.546875 
Q 14.84375 38.671875 10.15625 35.9375 
Q 8.203125 39.453125 4.296875 41.015625 
Q 7.8125 42.1875 13.671875 46.484375 
Q 19.53125 50.78125 22.65625 55.46875 
Q 14.84375 55.46875 7.8125 55.078125 
L 7.8125 62.109375 
Q 14.453125 61.71875 27.734375 61.71875 
z
M 62.109375 49.609375 
Q 65.625 26.5625 71.875 17.578125 
Q 75.78125 26.5625 77.140625 35.734375 
Q 78.515625 44.921875 78.90625 53.515625 
L 63.671875 53.515625 
L 62.109375 49.609375 
z
M 22.65625 15.625 
Q 27.34375 14.453125 35.546875 12.5 
Q 38.671875 16.40625 41.40625 23.828125 
L 26.953125 23.828125 
Q 25 19.921875 22.65625 15.625 
z
M 51.953125 75.390625 
Q 50 72.265625 48.828125 69.53125 
Q 47.65625 66.796875 45.703125 62.890625 
Q 42.578125 64.453125 39.453125 65.234375 
Q 42.578125 70.3125 45.3125 78.125 
Q 49.21875 76.171875 51.953125 75.390625 
z
M 40.234375 52.734375 
Q 45.3125 47.65625 50 42.578125 
Q 47.65625 40.625 44.921875 37.890625 
Q 39.453125 44.53125 35.9375 48.4375 
Q 38.28125 50.390625 40.234375 52.734375 
z
M 14.453125 78.125 
Q 19.921875 72.65625 23.4375 67.1875 
L 17.578125 63.671875 
Q 14.84375 69.140625 9.375 73.828125 
Q 12.890625 76.171875 14.453125 78.125 
z
" id="SimHei-25968"/>
      <path d="M 84.765625 79.6875 
L 89.0625 74.609375 
Q 66.796875 58.203125 67.578125 36.71875 
Q 67.96875 16.015625 88.671875 0.78125 
L 84.375 -4.296875 
Q 60.546875 12.890625 61.328125 39.0625 
Q 61.328125 60.546875 84.765625 79.6875 
z
" id="SimHei-65288"/>
      <path d="M 28.515625 1.953125 
L 20.703125 1.953125 
L 20.703125 68.75 
L 28.515625 68.75 
z
" id="SimHei-108"/>
      <path d="M 15.625 79.6875 
Q 39.0625 60.546875 39.0625 39.0625 
Q 39.84375 12.890625 16.015625 -4.296875 
L 11.71875 0.78125 
Q 32.421875 16.015625 32.8125 36.71875 
Q 33.59375 58.203125 11.328125 74.609375 
L 15.625 79.6875 
z
" id="SimHei-65289"/>
     </defs>
     <g transform="translate(138.9 347.65)scale(0.1 -0.1)">
      <use xlink:href="#SimHei-25509"/>
      <use x="100" xlink:href="#SimHei-31181"/>
      <use x="200" xlink:href="#SimHei-21518"/>
      <use x="300" xlink:href="#SimHei-20986"/>
      <use x="400" xlink:href="#SimHei-29616"/>
      <use x="500" xlink:href="#SimHei-30151"/>
      <use x="600" xlink:href="#SimHei-29366"/>
      <use x="700" xlink:href="#SimHei-30340"/>
      <use x="800" xlink:href="#SimHei-27010"/>
      <use x="900" xlink:href="#SimHei-29575"/>
      <use x="1000" xlink:href="#SimHei-38477"/>
      <use x="1100" xlink:href="#SimHei-20302"/>
      <use x="1200" xlink:href="#SimHei-31995"/>
      <use x="1300" xlink:href="#SimHei-25968"/>
      <use x="1400" xlink:href="#SimHei-65288"/>
      <use x="1500" xlink:href="#SimHei-108"/>
      <use x="1550" xlink:href="#SimHei-65289"/>
     </g>
    </g>
   </g>
   <g id="matplotlib.axis_2">
    <g id="ytick_1">
     <g id="line2d_7">
      <defs>
       <path d="M 0 0 
L -3.5 0 
" id="m370fa8561f" style="stroke:#000000;stroke-width:0.8;"/>
      </defs>
      <g>
       <use style="stroke:#000000;stroke-width:0.8;" x="54" xlink:href="#m370fa8561f" y="320.4"/>
      </g>
     </g>
     <g id="text_8">
      <!-- 0.0 -->
      <g transform="translate(32 323.8375)scale(0.1 -0.1)">
       <use xlink:href="#SimHei-48"/>
       <use x="50" xlink:href="#SimHei-46"/>
       <use x="100" xlink:href="#SimHei-48"/>
      </g>
     </g>
    </g>
    <g id="ytick_2">
     <g id="line2d_8">
      <g>
       <use style="stroke:#000000;stroke-width:0.8;" x="54" xlink:href="#m370fa8561f" y="264.96"/>
      </g>
     </g>
     <g id="text_9">
      <!-- 0.2 -->
      <g transform="translate(32 268.3975)scale(0.1 -0.1)">
       <use xlink:href="#SimHei-48"/>
       <use x="50" xlink:href="#SimHei-46"/>
       <use x="100" xlink:href="#SimHei-50"/>
      </g>
     </g>
    </g>
    <g id="ytick_3">
     <g id="line2d_9">
      <g>
       <use style="stroke:#000000;stroke-width:0.8;" x="54" xlink:href="#m370fa8561f" y="209.52"/>
      </g>
     </g>
     <g id="text_10">
      <!-- 0.4 -->
      <g transform="translate(32 212.9575)scale(0.1 -0.1)">
       <use xlink:href="#SimHei-48"/>
       <use x="50" xlink:href="#SimHei-46"/>
       <use x="100" xlink:href="#SimHei-52"/>
      </g>
     </g>
    </g>
    <g id="ytick_4">
     <g id="line2d_10">
      <g>
       <use style="stroke:#000000;stroke-width:0.8;" x="54" xlink:href="#m370fa8561f" y="154.08"/>
      </g>
     </g>
     <g id="text_11">
      <!-- 0.6 -->
      <g transform="translate(32 157.5175)scale(0.1 -0.1)">
       <use xlink:href="#SimHei-48"/>
       <use x="50" xlink:href="#SimHei-46"/>
       <use x="100" xlink:href="#SimHei-54"/>
      </g>
     </g>
    </g>
    <g id="ytick_5">
     <g id="line2d_11">
      <g>
       <use style="stroke:#000000;stroke-width:0.8;" x="54" xlink:href="#m370fa8561f" y="98.64"/>
      </g>
     </g>
     <g id="text_12">
      <!-- 0.8 -->
      <g transform="translate(32 102.0775)scale(0.1 -0.1)">
       <use xlink:href="#SimHei-48"/>
       <use x="50" xlink:href="#SimHei-46"/>
       <use x="100" xlink:href="#SimHei-56"/>
      </g>
     </g>
    </g>
    <g id="ytick_6">
     <g id="line2d_12">
      <g>
       <use style="stroke:#000000;stroke-width:0.8;" x="54" xlink:href="#m370fa8561f" y="43.2"/>
      </g>
     </g>
     <g id="text_13">
      <!-- 1.0 -->
      <g transform="translate(32 46.6375)scale(0.1 -0.1)">
       <use xlink:href="#SimHei-49"/>
       <use x="50" xlink:href="#SimHei-46"/>
       <use x="100" xlink:href="#SimHei-48"/>
      </g>
     </g>
    </g>
    <g id="text_14">
     <!-- 感染率降低系数（w） -->
     <defs>
      <path d="M 95.703125 29.6875 
Q 92.1875 18.75 89.453125 17.375 
Q 86.71875 16.015625 81.828125 17.765625 
Q 76.953125 19.53125 69.140625 26.5625 
Q 64.453125 21.484375 58.203125 17.1875 
Q 55.46875 20.3125 52.34375 21.875 
Q 60.546875 26.5625 65.234375 32.03125 
Q 60.9375 39.0625 58.78125 47.453125 
Q 56.640625 55.859375 55.859375 63.28125 
L 20.703125 63.28125 
Q 20.703125 45.703125 20.109375 39.453125 
Q 19.53125 33.203125 17.578125 27.734375 
Q 15.625 22.265625 11.71875 16.015625 
Q 7.03125 19.140625 4.296875 19.921875 
Q 8.984375 25.78125 11.125 31.4375 
Q 13.28125 37.109375 13.671875 44.53125 
Q 14.0625 51.953125 13.671875 69.53125 
L 55.078125 69.53125 
Q 55.078125 72.65625 54.6875 80.859375 
Q 58.203125 80.078125 62.890625 79.6875 
Q 62.109375 75 62.5 69.53125 
L 79.6875 69.53125 
Q 85.15625 69.53125 92.578125 69.921875 
L 92.578125 62.890625 
Q 85.15625 63.28125 80.078125 63.28125 
L 62.890625 63.28125 
Q 64.453125 46.875 69.53125 38.671875 
Q 71.875 42.578125 73.828125 48.234375 
Q 75.78125 53.90625 76.953125 58.984375 
Q 80.859375 57.421875 85.15625 56.25 
Q 83.59375 54.6875 81.046875 47.65625 
Q 78.515625 40.625 73.828125 32.03125 
Q 78.125 28.125 81.4375 26.171875 
Q 84.765625 24.21875 85.734375 25.390625 
Q 86.71875 26.5625 88.28125 33.59375 
Q 91.40625 30.859375 95.703125 29.6875 
z
M 51.953125 25 
L 24.609375 25 
L 24.609375 44.921875 
L 51.953125 44.921875 
z
M 76.171875 2.734375 
Q 73.4375 -5.078125 71.484375 -6.4375 
Q 69.53125 -7.8125 66.40625 -7.8125 
L 36.71875 -7.8125 
Q 31.640625 -7.421875 30.65625 -3.125 
Q 29.6875 1.171875 29.6875 5.078125 
Q 29.6875 8.984375 29.296875 14.453125 
L 37.5 14.453125 
Q 37.109375 7.8125 37.109375 5.078125 
Q 37.109375 2.734375 37.5 0.390625 
Q 37.890625 -1.953125 42.578125 -1.5625 
L 60.546875 -1.5625 
Q 64.453125 -1.5625 65.8125 -0.1875 
Q 67.1875 1.171875 67.96875 7.03125 
Q 71.09375 4.6875 76.171875 2.734375 
z
M 51.5625 51.171875 
L 25 51.171875 
L 25 57.03125 
L 51.5625 57.03125 
z
M 83.59375 14.0625 
Q 92.1875 3.515625 94.921875 -0.78125 
Q 91.015625 -3.125 87.890625 -5.46875 
Q 83.984375 1.953125 77.34375 9.375 
Q 80.078125 11.328125 83.59375 14.0625 
z
M 7.421875 -2.734375 
Q 10.9375 1.5625 15.234375 14.453125 
Q 18.359375 12.890625 22.65625 11.328125 
Q 17.578125 -0.390625 14.84375 -5.859375 
Q 11.71875 -4.296875 7.421875 -2.734375 
z
M 45.703125 30.46875 
L 45.703125 39.453125 
L 30.859375 39.453125 
L 30.859375 30.46875 
z
M 42.578125 16.40625 
Q 44.921875 18.359375 48.4375 20.703125 
Q 55.078125 12.109375 57.03125 8.59375 
Q 53.90625 6.640625 51.171875 3.90625 
Q 48.828125 8.203125 42.578125 16.40625 
z
M 76.5625 70.3125 
Q 74.21875 72.265625 67.96875 76.5625 
Q 70.3125 79.296875 71.875 81.640625 
Q 74.609375 80.078125 81.25 75 
Q 78.90625 73.046875 76.5625 70.3125 
z
" id="SimHei-24863"/>
      <path d="M 91.015625 -7.03125 
Q 74.21875 -2.34375 66.40625 3.90625 
Q 58.59375 10.15625 53.90625 17.96875 
Q 53.90625 -4.6875 54.296875 -9.375 
L 46.09375 -9.375 
Q 46.484375 -4.296875 46.484375 16.796875 
Q 40.625 8.59375 31.4375 2.34375 
Q 22.265625 -3.90625 9.765625 -8.984375 
Q 8.59375 -5.078125 3.125 -1.5625 
Q 16.796875 1.5625 25.96875 7.609375 
Q 35.15625 13.671875 38.671875 19.140625 
L 19.140625 19.140625 
Q 13.671875 19.140625 6.25 18.75 
L 6.25 25.78125 
Q 13.671875 25.390625 19.140625 25.390625 
L 46.484375 25.390625 
Q 46.484375 28.515625 46.09375 33.59375 
L 54.296875 33.59375 
Q 53.90625 28.90625 53.90625 25.390625 
L 82.8125 25.390625 
Q 87.890625 25.390625 93.75 25.78125 
L 93.75 18.75 
Q 87.890625 19.140625 82.8125 19.140625 
L 61.71875 19.140625 
Q 67.96875 10.546875 78.125 6.25 
Q 88.28125 1.953125 96.484375 1.171875 
Q 91.40625 -3.90625 91.015625 -7.03125 
z
M 28.515625 35.9375 
Q 39.84375 40.234375 45.703125 47.0625 
Q 51.5625 53.90625 53.125 62.5 
Q 47.265625 62.5 40.234375 62.109375 
L 40.234375 69.140625 
Q 47.65625 68.75 53.515625 68.75 
Q 53.90625 76.953125 53.515625 82.03125 
Q 58.203125 80.859375 62.5 80.859375 
Q 61.328125 78.515625 60.9375 68.75 
L 80.078125 68.75 
Q 79.6875 64.84375 79.296875 60.15625 
L 78.125 44.53125 
Q 78.515625 40.625 80.859375 40.625 
L 85.15625 40.625 
Q 87.109375 40.625 87.6875 42.1875 
Q 88.28125 43.75 88.671875 50 
Q 91.796875 47.265625 96.875 46.875 
Q 95.3125 36.328125 92.375 35.34375 
Q 89.453125 34.375 84.171875 34.171875 
Q 78.90625 33.984375 74.796875 34.953125 
Q 70.703125 35.9375 71.09375 42.1875 
L 72.265625 62.5 
L 60.546875 62.5 
Q 59.375 53.515625 54.296875 45.890625 
Q 49.21875 38.28125 35.546875 30.078125 
Q 33.984375 32.8125 28.515625 35.9375 
z
M 33.984375 45.703125 
Q 19.140625 33.984375 13.28125 29.296875 
Q 10.9375 33.203125 7.8125 35.9375 
Q 17.1875 40.625 31.25 52.734375 
Q 32.03125 49.609375 33.984375 45.703125 
z
M 10.546875 64.84375 
Q 21.484375 59.765625 27.34375 56.25 
Q 24.609375 52.734375 23.046875 49.609375 
Q 19.140625 53.125 7.03125 58.59375 
Q 9.375 61.328125 10.546875 64.84375 
z
M 28.90625 64.84375 
Q 23.046875 69.921875 14.0625 74.609375 
Q 16.015625 76.953125 18.359375 80.078125 
Q 27.34375 75 33.984375 71.09375 
Q 30.46875 67.578125 28.90625 64.84375 
z
" id="SimHei-26579"/>
      <path d="M 48.046875 45.703125 
L 38.28125 1.171875 
L 30.859375 1.171875 
L 24.609375 35.15625 
L 23.828125 35.15625 
L 17.578125 1.171875 
L 10.15625 1.171875 
L 0.390625 45.703125 
L 8.59375 45.703125 
L 13.671875 16.40625 
L 14.453125 16.40625 
L 19.921875 45.703125 
L 28.515625 45.703125 
L 33.984375 16.40625 
L 34.765625 16.40625 
L 39.84375 45.703125 
z
" id="SimHei-119"/>
     </defs>
     <g transform="translate(26.75 229.3)rotate(-90)scale(0.1 -0.1)">
      <use xlink:href="#SimHei-24863"/>
      <use x="100" xlink:href="#SimHei-26579"/>
      <use x="200" xlink:href="#SimHei-29575"/>
      <use x="300" xlink:href="#SimHei-38477"/>
      <use x="400" xlink:href="#SimHei-20302"/>
      <use x="500" xlink:href="#SimHei-31995"/>
      <use x="600" xlink:href="#SimHei-25968"/>
      <use x="700" xlink:href="#SimHei-65288"/>
      <use x="800" xlink:href="#SimHei-119"/>
      <use x="850" xlink:href="#SimHei-65289"/>
     </g>
    </g>
   </g>
   <g id="LineCollection_1"/>
   <g id="LineCollection_2">
    <path clip-path="url(#p95ec30f2bf)" d="M 54 314.625 
L 57.348 314.610526 
L 60.696 314.59598 
L 64.044 314.58136 
L 67.392 314.566667 
L 70.74 314.551899 
L 74.088 314.537056 
L 77.436 314.522137 
L 80.784 314.507143 
L 84.132 314.492072 
L 87.48 314.476923 
L 90.828 314.461697 
L 94.176 314.446392 
L 97.524 314.431008 
L 100.872 314.415544 
L 104.22 314.4 
L 107.568 314.384375 
L 108.757413 314.378795 
" style="fill:none;stroke:#482173;stroke-width:1.5;"/>
    <path clip-path="url(#p95ec30f2bf)" d="M 133.237134 314.261809 
L 134.352 314.256383 
L 137.7 314.24 
L 141.048 314.223529 
L 144.396 314.206971 
L 147.744 314.190323 
L 151.092 314.173585 
L 154.44 314.156757 
L 157.788 314.139837 
L 161.136 314.122826 
L 164.484 314.105722 
L 167.832 314.088525 
L 171.18 314.071233 
L 174.528 314.053846 
L 177.876 314.036364 
L 181.224 314.018785 
L 184.572 314.001108 
L 187.92 313.983333 
L 191.268 313.96546 
L 194.616 313.947486 
L 197.964 313.929412 
L 201.312 313.911236 
L 204.66 313.892958 
L 208.008 313.874576 
L 209.201197 313.867988 
" style="fill:none;stroke:#482173;stroke-width:1.5;"/>
    <path clip-path="url(#p95ec30f2bf)" d="M 233.680808 313.730085 
L 234.792 313.723699 
L 238.14 313.704348 
L 241.488 313.684884 
L 244.836 313.665306 
L 248.184 313.645614 
L 251.532 313.625806 
L 254.88 313.605882 
L 258.228 313.585841 
L 261.576 313.56568 
L 264.924 313.545401 
L 268.272 313.525 
L 271.62 313.504478 
L 274.968 313.483832 
L 278.316 313.463063 
L 281.664 313.442169 
L 285.012 313.421148 
L 288.36 313.4 
L 291.708 313.378723 
L 295.056 313.357317 
L 298.404 313.33578 
L 301.752 313.31411 
L 305.1 313.292308 
L 308.448 313.27037 
L 309.589023 313.262848 
" style="fill:none;stroke:#482173;stroke-width:1.5;"/>
    <path clip-path="url(#p95ec30f2bf)" d="M 334.068467 313.097888 
L 335.232 313.089873 
L 338.58 313.066667 
L 341.928 313.043312 
L 345.276 313.019808 
L 348.624 312.996154 
L 351.972 312.972347 
L 355.32 312.948387 
L 358.668 312.924272 
L 362.016 312.9 
L 365.364 312.87557 
L 368.712 312.85098 
L 372.06 312.82623 
L 375.408 312.801316 
L 378.756 312.776238 
L 382.104 312.750993 
L 385.452 312.725581 
L 388.8 312.7 
" style="fill:none;stroke:#482173;stroke-width:1.5;"/>
   </g>
   <g id="LineCollection_3">
    <path clip-path="url(#p95ec30f2bf)" d="M 54 285.75 
L 57.348 285.663158 
L 60.696 285.575879 
L 64.044 285.488161 
L 67.392 285.4 
L 70.74 285.311392 
L 74.088 285.222335 
L 77.436 285.132824 
L 80.784 285.042857 
L 84.132 284.95243 
L 87.48 284.861538 
L 90.828 284.77018 
L 94.176 284.678351 
L 97.524 284.586047 
L 100.872 284.493264 
L 104.22 284.4 
L 105.507692 284.364 
L 107.568 284.30625 
L 108.87159 284.269557 
" style="fill:none;stroke:#433e85;stroke-width:1.5;"/>
    <path clip-path="url(#p95ec30f2bf)" d="M 133.341529 283.567808 
L 134.352 283.538298 
L 137.7 283.44 
L 141.048 283.341176 
L 144.396 283.241823 
L 147.744 283.141935 
L 151.092 283.041509 
L 154.44 282.940541 
L 157.788 282.839024 
L 161.136 282.736957 
L 164.484 282.634332 
L 167.832 282.531148 
L 171.18 282.427397 
L 174.528 282.323077 
L 177.876 282.218182 
L 181.224 282.112707 
L 184.572 282.006648 
L 187.92 281.9 
L 191.268 281.792758 
L 194.616 281.684916 
L 197.485714 281.592 
L 197.964 281.576471 
L 201.312 281.467416 
L 204.66 281.357746 
L 208.008 281.247458 
L 209.233867 281.206847 
" style="fill:none;stroke:#433e85;stroke-width:1.5;"/>
    <path clip-path="url(#p95ec30f2bf)" d="M 233.699892 280.379853 
L 234.792 280.342197 
L 238.14 280.226087 
L 241.488 280.109302 
L 244.836 279.991837 
L 248.184 279.873684 
L 251.532 279.754839 
L 254.88 279.635294 
L 258.228 279.515044 
L 261.576 279.394083 
L 264.924 279.272404 
L 268.272 279.15 
L 271.62 279.026866 
L 274.968 278.902994 
L 277.2 278.82 
L 278.316 278.778378 
L 281.664 278.653012 
L 285.012 278.526888 
L 288.36 278.4 
L 291.708 278.27234 
L 295.056 278.143902 
L 298.404 278.014679 
L 301.752 277.884663 
L 305.1 277.753846 
L 308.448 277.622222 
L 310.100798 277.556841 
" style="fill:none;stroke:#433e85;stroke-width:1.5;"/>
    <path clip-path="url(#p95ec30f2bf)" d="M 334.560773 276.56698 
L 335.232 276.539241 
L 338.58 276.4 
L 341.928 276.259873 
L 345.276 276.11885 
L 346.95 276.048 
L 348.624 275.976923 
L 351.972 275.834084 
L 355.32 275.690323 
L 358.668 275.545631 
L 362.016 275.4 
L 365.364 275.25342 
L 368.712 275.105882 
L 372.06 274.957377 
L 375.408 274.807895 
L 378.756 274.657426 
L 382.104 274.50596 
L 385.452 274.353488 
L 388.8 274.2 
" style="fill:none;stroke:#433e85;stroke-width:1.5;"/>
   </g>
   <g id="LineCollection_4">
    <path clip-path="url(#p95ec30f2bf)" d="M 54 256.875 
L 57.348 256.715789 
L 58.852174 256.644 
L 60.696 256.555779 
L 64.044 256.394962 
L 67.392 256.233333 
L 70.74 256.070886 
L 74.088 255.907614 
L 77.436 255.743511 
L 80.784 255.578571 
L 84.132 255.412788 
L 87.48 255.246154 
L 90.828 255.078663 
L 94.176 254.910309 
L 97.524 254.741085 
L 100.872 254.570984 
L 104.22 254.4 
L 107.568 254.228125 
L 108.86434 254.161228 
" style="fill:none;stroke:#38588c;stroke-width:1.5;"/>
    <path clip-path="url(#p95ec30f2bf)" d="M 133.310573 252.875972 
L 134.352 252.820213 
L 137.7 252.64 
L 141.048 252.458824 
L 144.396 252.276676 
L 147.744 252.093548 
L 151.092 251.909434 
L 154.44 251.724324 
L 157.788 251.538211 
L 161.136 251.351087 
L 164.484 251.162943 
L 165.6 251.1 
L 167.832 250.97377 
L 171.18 250.783562 
L 174.528 250.592308 
L 177.876 250.4 
L 181.224 250.20663 
L 184.572 250.012188 
L 187.92 249.816667 
L 191.268 249.620056 
L 194.616 249.422346 
L 197.964 249.223529 
L 201.312 249.023596 
L 204.66 248.822535 
L 208.008 248.620339 
L 209.8366 248.509278 
" style="fill:none;stroke:#38588c;stroke-width:1.5;"/>
    <path clip-path="url(#p95ec30f2bf)" d="M 234.269634 246.993715 
L 234.792 246.960694 
L 238.14 246.747826 
L 241.488 246.533721 
L 244.836 246.318367 
L 248.184 246.101754 
L 251.532 245.883871 
L 254.88 245.664706 
L 256.533333 245.556 
L 258.228 245.444248 
L 261.576 245.222485 
L 264.924 244.999407 
L 268.272 244.775 
L 271.62 244.549254 
L 274.968 244.322156 
L 278.316 244.093694 
L 281.664 243.863855 
L 285.012 243.632628 
L 288.36 243.4 
L 291.708 243.165957 
L 295.056 242.930488 
L 297.128571 242.784 
L 298.404 242.693578 
L 301.752 242.455215 
L 305.1 242.215385 
L 308.448 241.974074 
L 310.935273 241.793691 
" style="fill:none;stroke:#38588c;stroke-width:1.5;"/>
    <path clip-path="url(#p95ec30f2bf)" d="M 335.347964 239.979766 
L 338.58 239.733333 
L 341.928 239.476433 
L 345.276 239.217891 
L 348.624 238.957692 
L 351.972 238.69582 
L 355.32 238.432258 
L 358.668 238.16699 
L 362.016 237.9 
L 365.364 237.63127 
L 368.712 237.360784 
L 370.2 237.24 
L 372.06 237.088525 
L 375.408 236.814474 
L 378.756 236.538614 
L 382.104 236.260927 
L 385.452 235.981395 
L 388.8 235.7 
" style="fill:none;stroke:#38588c;stroke-width:1.5;"/>
   </g>
   <g id="LineCollection_5">
    <path clip-path="url(#p95ec30f2bf)" d="M 54 228 
L 57.348 227.768421 
L 60.696 227.535678 
L 64.044 227.301763 
L 67.392 227.066667 
L 70.74 226.83038 
L 74.088 226.592893 
L 77.436 226.354198 
L 80.258824 226.152 
L 80.784 226.114286 
L 84.132 225.873146 
L 87.48 225.630769 
L 90.828 225.387147 
L 94.176 225.142268 
L 97.524 224.896124 
L 100.872 224.648705 
L 104.22 224.4 
L 107.568 224.15 
L 110.916 223.898695 
L 114.264 223.646073 
L 117.612 223.392126 
L 117.771429 223.38 
L 120.96 223.136842 
L 124.308 222.880211 
L 127.656 222.622222 
L 131.004 222.362865 
L 134.352 222.102128 
L 137.7 221.84 
L 141.048 221.576471 
L 144.396 221.311528 
L 147.744 221.045161 
L 151.092 220.777358 
L 153.2 220.608 
L 154.44 220.508108 
L 157.788 220.237398 
L 161.136 219.965217 
L 164.484 219.691553 
L 167.832 219.416393 
L 171.18 219.139726 
L 174.528 218.861538 
L 177.876 218.581818 
L 181.224 218.300552 
L 184.572 218.017729 
L 186.713514 217.836 
L 187.92 217.733333 
L 191.268 217.447354 
L 194.616 217.159777 
L 197.964 216.870588 
L 201.312 216.579775 
L 204.66 216.287324 
L 208.008 215.99322 
L 211.356 215.69745 
L 214.704 215.4 
L 218.052 215.100855 
L 218.463158 215.064 
L 221.4 214.8 
L 224.748 214.497421 
L 228.096 214.193103 
L 231.444 213.887032 
L 234.792 213.579191 
L 238.14 213.269565 
L 241.488 212.95814 
L 244.836 212.644898 
L 248.184 212.329825 
L 248.584615 212.292 
L 251.532 212.012903 
L 254.88 211.694118 
L 258.228 211.373451 
L 261.576 211.050888 
L 264.924 210.726409 
L 268.272 210.4 
L 271.62 210.071642 
L 274.968 209.741317 
L 277.2 209.52 
L 278.316 209.409009 
L 281.664 209.074699 
L 285.012 208.738369 
L 288.36 208.4 
L 291.708 208.059574 
L 295.056 207.717073 
L 298.404 207.372477 
L 301.752 207.025767 
L 304.419512 206.748 
L 305.1 206.676923 
L 308.448 206.325926 
L 310.953308 206.061648 
" style="fill:none;stroke:#2d708e;stroke-width:1.5;"/>
    <path clip-path="url(#p95ec30f2bf)" d="M 335.291567 203.431368 
L 338.58 203.066667 
L 341.928 202.692994 
L 345.276 202.316933 
L 348.624 201.938462 
L 351.972 201.557556 
L 355.060465 201.204 
L 355.32 201.174194 
L 358.668 200.78835 
L 362.016 200.4 
L 365.364 200.009121 
L 368.712 199.615686 
L 372.06 199.219672 
L 375.408 198.821053 
L 378.654545 198.432 
L 378.756 198.419802 
L 382.104 198.015894 
L 385.452 197.609302 
L 388.8 197.2 
" style="fill:none;stroke:#2d708e;stroke-width:1.5;"/>
   </g>
   <g id="LineCollection_6">
    <path clip-path="url(#p95ec30f2bf)" d="M 54 199.125 
L 57.348 198.821053 
L 60.696 198.515578 
L 61.609091 198.432 
L 64.044 198.208564 
L 67.392 197.9 
L 70.74 197.589873 
L 74.088 197.278173 
L 77.436 196.964885 
L 80.784 196.65 
L 84.132 196.333504 
L 87.48 196.015385 
L 90.828 195.69563 
L 91.2 195.66 
L 94.176 195.374227 
L 97.524 195.051163 
L 100.872 194.726425 
L 104.22 194.4 
L 107.568 194.071875 
L 108.490403 193.981002 
" style="fill:none;stroke:#25858e;stroke-width:1.5;"/>
    <path clip-path="url(#p95ec30f2bf)" d="M 132.848158 191.537758 
L 134.352 191.384043 
L 137.7 191.04 
L 141.048 190.694118 
L 144.396 190.346381 
L 146.604255 190.116 
L 147.744 189.996774 
L 151.092 189.645283 
L 154.44 189.291892 
L 157.788 188.936585 
L 161.136 188.579348 
L 164.484 188.220163 
L 167.832 187.859016 
L 171.18 187.49589 
L 172.575 187.344 
L 174.528 187.130769 
L 177.876 186.763636 
L 181.224 186.394475 
L 184.572 186.023269 
L 187.92 185.65 
L 191.268 185.274652 
L 194.616 184.897207 
L 197.485714 184.572 
L 197.964 184.517647 
L 201.312 184.135955 
L 204.66 183.752113 
L 207.630335 183.409645 
" style="fill:none;stroke:#25858e;stroke-width:1.5;"/>
    <path clip-path="url(#p95ec30f2bf)" d="M 244.092072 179.06291 
L 244.376471 179.028 
L 244.836 178.971429 
L 248.184 178.557895 
L 251.532 178.141935 
L 254.88 177.723529 
L 258.228 177.302655 
L 261.576 176.87929 
L 264.924 176.453412 
L 266.469231 176.256 
L 268.272 176.025 
L 271.62 175.59403 
L 274.968 175.160479 
L 278.316 174.724324 
L 281.664 174.285542 
L 285.012 173.844109 
L 287.728302 173.484 
L 288.36 173.4 
L 291.708 172.953191 
L 295.056 172.503659 
L 298.404 172.051376 
L 301.752 171.596319 
L 305.1 171.138462 
L 308.2 170.712 
L 308.448 170.677778 
L 311.76798 170.218121 
" style="fill:none;stroke:#25858e;stroke-width:1.5;"/>
    <path clip-path="url(#p95ec30f2bf)" d="M 336.004575 166.774884 
L 338.58 166.4 
L 341.928 165.909554 
L 345.276 165.415974 
L 346.95 165.168 
L 348.624 164.919231 
L 351.972 164.419293 
L 355.32 163.916129 
L 358.668 163.409709 
L 362.016 162.9 
L 365.305263 162.396 
L 365.364 162.386971 
L 368.712 161.870588 
L 372.06 161.35082 
L 375.408 160.827632 
L 378.756 160.30099 
L 382.104 159.770861 
L 383.027586 159.624 
L 385.452 159.237209 
L 388.8 158.7 
" style="fill:none;stroke:#25858e;stroke-width:1.5;"/>
   </g>
   <g id="LineCollection_7">
    <path clip-path="url(#p95ec30f2bf)" d="M 54 170.25 
L 57.348 169.873684 
L 60.696 169.495477 
L 64.044 169.115365 
L 67.392 168.733333 
L 70.74 168.349367 
L 74.088 167.963452 
L 74.290909 167.94 
L 77.436 167.575573 
L 80.784 167.185714 
L 84.132 166.793862 
L 87.48 166.4 
L 90.828 166.004113 
L 94.176 165.606186 
L 97.524 165.206202 
L 97.842857 165.168 
L 100.872 164.804145 
L 104.22 164.4 
L 107.568 163.99375 
L 108.129174 163.925301 
" style="fill:none;stroke:#1e9b8a;stroke-width:1.5;"/>
    <path clip-path="url(#p95ec30f2bf)" d="M 132.422752 160.910109 
L 134.352 160.665957 
L 137.7 160.24 
L 141.048 159.811765 
L 142.510345 159.624 
L 144.396 159.381233 
L 147.744 158.948387 
L 151.092 158.513208 
L 154.44 158.075676 
L 157.788 157.635772 
L 161.136 157.193478 
L 163.708475 156.852 
L 164.484 156.748774 
L 167.832 156.301639 
L 171.18 155.852055 
L 174.528 155.4 
L 177.876 154.945455 
L 181.224 154.488398 
L 184.2 154.08 
L 184.572 154.028809 
L 187.92 153.566667 
L 191.268 153.10195 
L 194.616 152.634637 
L 197.964 152.164706 
L 201.312 151.692135 
L 204.019672 151.308 
L 204.66 151.216901 
L 208.008 150.738983 
L 211.356 150.258357 
L 214.704 149.775 
L 218.052 149.288889 
L 221.4 148.8 
L 223.2 148.536 
L 224.748 148.308309 
L 228.096 147.813793 
L 231.444 147.316427 
L 234.792 146.816185 
L 238.14 146.313043 
L 241.488 145.806977 
L 241.771429 145.764 
L 244.836 145.297959 
L 248.184 144.785965 
L 251.532 144.270968 
L 254.88 143.752941 
L 258.228 143.231858 
L 259.7625 142.992 
L 261.576 142.707692 
L 264.924 142.180415 
L 268.272 141.65 
L 271.62 141.116418 
L 274.968 140.579641 
L 277.2 140.22 
L 278.316 140.03964 
L 281.664 139.496386 
L 285.012 138.949849 
L 288.36 138.4 
L 291.708 137.846809 
L 294.109091 137.448 
L 295.056 137.290244 
L 298.404 136.730275 
L 301.752 136.166871 
L 305.1 135.6 
L 308.448 135.02963 
L 310.513433 134.676 
L 311.796 134.455728 
L 315.144 133.878261 
L 318.492 133.297196 
L 321.84 132.7125 
L 325.188 132.124138 
L 326.435294 131.904 
L 328.536 131.532075 
L 331.884 130.936278 
L 335.232 130.336709 
L 338.58 129.733333 
L 341.895652 129.132 
L 341.928 129.126115 
L 345.276 128.515016 
L 348.624 127.9 
L 351.972 127.281029 
L 355.32 126.658065 
L 356.914286 126.36 
L 358.668 126.031068 
L 362.016 125.4 
L 365.364 124.764821 
L 368.712 124.12549 
L 371.509859 123.588 
L 372.06 123.481967 
L 375.408 122.834211 
L 378.756 122.182178 
L 382.104 121.525828 
L 385.452 120.865116 
L 385.7 120.816 
L 388.8 120.2 
" style="fill:none;stroke:#1e9b8a;stroke-width:1.5;"/>
   </g>
   <g id="LineCollection_8">
    <path clip-path="url(#p95ec30f2bf)" d="M 54 141.375 
L 57.348 140.926316 
L 60.696 140.475377 
L 62.584615 140.22 
L 64.044 140.022166 
L 67.392 139.566667 
L 70.74 139.108861 
L 74.088 138.648731 
L 77.436 138.18626 
L 80.784 137.721429 
L 82.745455 137.448 
L 84.132 137.25422 
L 87.48 136.784615 
L 90.828 136.312596 
L 94.176 135.838144 
L 97.524 135.36124 
L 100.872 134.881865 
L 102.304478 134.676 
L 104.22 134.4 
L 107.568 133.915625 
L 107.653948 133.903125 
" style="fill:none;stroke:#2ab07f;stroke-width:1.5;"/>
    <path clip-path="url(#p95ec30f2bf)" d="M 131.870605 130.322289 
L 134.352 129.947872 
L 137.7 129.44 
L 139.721739 129.132 
L 141.048 128.929412 
L 144.396 128.416086 
L 147.744 127.9 
L 151.092 127.381132 
L 154.44 126.859459 
L 157.628571 126.36 
L 157.788 126.334959 
L 161.136 125.807609 
L 164.484 125.277384 
L 167.832 124.744262 
L 171.18 124.208219 
L 174.528 123.669231 
L 175.030986 123.588 
L 177.876 123.127273 
L 181.224 122.58232 
L 184.572 122.034349 
L 187.92 121.483333 
L 191.268 120.929248 
L 191.95 120.816 
L 194.616 120.372067 
L 197.964 119.811765 
L 201.312 119.248315 
L 204.66 118.68169 
L 207.553322 118.18925 
" style="fill:none;stroke:#2ab07f;stroke-width:1.5;"/>
    <path clip-path="url(#p95ec30f2bf)" d="M 231.67055 113.990764 
L 234.792 113.434682 
L 238.14 112.834783 
L 240 112.5 
L 241.488 112.231395 
L 244.836 111.62449 
L 248.184 111.014035 
L 251.532 110.4 
L 254.88 109.782353 
L 255.173684 109.728 
L 258.228 109.161062 
L 261.576 108.536095 
L 264.924 107.907418 
L 268.272 107.275 
L 269.953247 106.956 
L 271.62 106.638806 
L 274.968 105.998802 
L 278.316 105.354955 
L 281.664 104.707229 
L 284.353846 104.184 
L 285.012 104.055589 
L 288.36 103.4 
L 291.708 102.740426 
L 295.056 102.076829 
L 298.389873 101.412 
L 298.404 101.409174 
L 301.752 100.737423 
L 305.1 100.061538 
L 308.448 99.381481 
L 309.44928 99.176839 
" style="fill:none;stroke:#2ab07f;stroke-width:1.5;"/>
    <path clip-path="url(#p95ec30f2bf)" d="M 333.412654 94.174546 
L 335.232 93.786076 
L 338.443902 93.096 
L 338.58 93.066667 
L 341.928 92.342675 
L 345.276 91.614058 
L 348.624 90.880769 
L 351.151807 90.324 
L 351.972 90.142765 
L 355.32 89.4 
L 358.668 88.652427 
L 362.016 87.9 
L 363.557143 87.552 
L 365.364 87.142671 
L 368.712 86.380392 
L 372.06 85.613115 
L 375.408 84.840789 
L 375.670588 84.78 
L 378.756 84.063366 
L 382.104 83.280795 
L 385.452 82.493023 
L 387.502326 82.008 
L 388.8 81.7 
" style="fill:none;stroke:#2ab07f;stroke-width:1.5;"/>
   </g>
   <g id="LineCollection_9">
    <path clip-path="url(#p95ec30f2bf)" d="M 54 112.5 
L 57.348 111.978947 
L 60.696 111.455276 
L 64.044 110.928967 
L 67.392 110.4 
L 70.74 109.868354 
L 71.621053 109.728 
L 74.088 109.33401 
L 77.436 108.796947 
L 80.784 108.257143 
L 84.132 107.714578 
L 87.48 107.169231 
L 88.784416 106.956 
L 90.828 106.62108 
L 94.176 106.070103 
L 97.524 105.516279 
L 100.872 104.959585 
L 104.22 104.4 
L 105.507692 104.184 
L 107.069426 103.921349 
" style="fill:none;stroke:#52c569;stroke-width:1.5;"/>
    <path clip-path="url(#p95ec30f2bf)" d="M 131.196992 99.782628 
L 134.352 99.229787 
L 137.7 98.64 
L 141.048 98.047059 
L 144.396 97.450938 
L 147.744 96.851613 
L 151.092 96.249057 
L 153.2 95.868 
L 154.44 95.643243 
L 157.788 95.034146 
L 161.136 94.421739 
L 164.484 93.805995 
L 167.832 93.186885 
L 168.321951 93.096 
L 171.18 92.564384 
L 174.528 91.938462 
L 177.876 91.309091 
L 181.224 90.676243 
L 183.079518 90.324 
L 184.572 90.039889 
L 187.92 89.4 
L 191.268 88.756546 
L 194.616 88.109497 
L 197.485714 87.552 
L 197.964 87.458824 
L 201.312 86.804494 
L 204.66 86.146479 
L 206.319999 85.81838 
" style="fill:none;stroke:#52c569;stroke-width:1.5;"/>
    <path clip-path="url(#p95ec30f2bf)" d="M 331.355869 58.195747 
L 331.884 58.065615 
L 335.232 57.235443 
L 335.936842 57.06 
L 338.58 56.4 
L 341.928 55.559236 
L 345.276 54.713099 
L 346.95 54.288 
L 348.624 53.861538 
L 351.972 53.004502 
L 355.32 52.141935 
L 357.736082 51.516 
L 358.668 51.273786 
L 362.016 50.4 
L 365.364 49.520521 
L 368.302041 48.744 
L 368.712 48.635294 
L 372.06 47.744262 
L 375.408 46.847368 
L 378.654545 45.972 
L 378.756 45.944554 
L 382.104 45.035762 
L 385.452 44.12093 
L 388.8 43.2 
" style="fill:none;stroke:#52c569;stroke-width:1.5;"/>
    <path clip-path="url(#p95ec30f2bf)" d="M 242.300015 78.484875 
L 244.836 77.95102 
L 248.184 77.242105 
L 251.532 76.529032 
L 251.836364 76.464 
L 254.88 75.811765 
L 258.228 75.090265 
L 261.576 74.364497 
L 264.660674 73.692 
L 264.924 73.634421 
L 268.272 72.9 
L 271.62 72.161194 
L 274.968 71.417964 
L 277.2 70.92 
L 278.316 70.67027 
L 281.664 69.918072 
L 285.012 69.161329 
L 288.36 68.4 
L 289.463736 68.148 
L 291.708 67.634043 
L 295.056 66.863415 
L 298.404 66.088073 
L 301.46087 65.376 
L 301.752 65.307975 
L 305.1 64.523077 
L 307.560135 63.942767 
" style="fill:none;stroke:#52c569;stroke-width:1.5;"/>
   </g>
   <g id="LineCollection_10">
    <path clip-path="url(#p95ec30f2bf)" d="M 54 83.625 
L 57.348 83.031579 
L 60.696 82.435176 
L 63.083721 82.008 
L 64.044 81.835768 
L 67.392 81.233333 
L 70.74 80.627848 
L 74.088 80.019289 
L 77.436 79.407634 
L 78.372414 79.236 
L 80.784 78.792857 
L 84.132 78.174936 
L 87.48 77.553846 
L 90.828 76.929563 
L 93.313636 76.464 
L 94.176 76.302062 
L 97.524 75.671318 
L 100.872 75.037306 
L 104.22 74.4 
L 107.568 73.759375 
L 107.919101 73.692 
L 108.990086 73.485945 
" style="fill:none;stroke:#86d549;stroke-width:1.5;"/>
    <path clip-path="url(#p95ec30f2bf)" d="M 133.013225 68.778873 
L 134.352 68.511702 
L 136.167033 68.148 
L 137.7 67.84 
L 141.048 67.164706 
L 144.396 66.485791 
L 147.744 65.803226 
L 149.830435 65.376 
L 151.092 65.116981 
L 154.44 64.427027 
L 157.788 63.733333 
L 161.136 63.03587 
L 163.2 62.604 
L 164.484 62.334605 
L 167.832 61.629508 
L 171.18 60.920548 
L 174.528 60.207692 
L 176.285106 59.832 
L 177.876 59.490909 
L 181.224 58.770166 
L 184.572 58.045429 
L 187.92 57.316667 
L 189.094737 57.06 
L 191.268 56.583844 
L 194.616 55.846927 
L 197.964 55.105882 
L 201.312 54.360674 
L 201.6375 54.288 
L 204.66 53.611268 
L 208.008 52.857627 
L 211.356 52.099717 
L 213.921649 51.516 
L 214.704 51.3375 
L 218.052 50.57094 
L 221.4 49.8 
L 224.748 49.024642 
L 225.955102 48.744 
L 228.096 48.244828 
L 231.444 47.460519 
L 234.792 46.671676 
L 237.745455 45.972 
L 238.14 45.878261 
L 241.488 45.080233 
L 244.836 44.277551 
L 248.184 43.470175 
L 249.3 43.2 
" style="fill:none;stroke:#86d549;stroke-width:1.5;"/>
   </g>
   <g id="LineCollection_11">
    <path clip-path="url(#p95ec30f2bf)" d="M 54 54.75 
L 56.325 54.288 
L 57.348 54.084211 
L 60.696 53.415075 
L 60.846594 53.384826 
" style="fill:none;stroke:#c2df23;stroke-width:1.5;"/>
    <path clip-path="url(#p95ec30f2bf)" d="M 84.832098 48.48958 
L 87.48 47.938462 
L 90.828 47.238046 
L 94.176 46.534021 
L 96.836364 45.972 
L 97.524 45.826357 
L 100.872 45.115026 
L 104.22 44.4 
L 107.568 43.68125 
L 109.8 43.2 
" style="fill:none;stroke:#c2df23;stroke-width:1.5;"/>
   </g>
   <g id="LineCollection_12"/>
   <g id="patch_3">
    <path d="M 54 320.4 
L 54 43.2 
" style="fill:none;stroke:#000000;stroke-linecap:square;stroke-linejoin:miter;stroke-width:0.8;"/>
   </g>
   <g id="patch_4">
    <path d="M 388.8 320.4 
L 388.8 43.2 
" style="fill:none;stroke:#000000;stroke-linecap:square;stroke-linejoin:miter;stroke-width:0.8;"/>
   </g>
   <g id="patch_5">
    <path d="M 54 320.4 
L 388.8 320.4 
" style="fill:none;stroke:#000000;stroke-linecap:square;stroke-linejoin:miter;stroke-width:0.8;"/>
   </g>
   <g id="patch_6">
    <path d="M 54 43.2 
L 388.8 43.2 
" style="fill:none;stroke:#000000;stroke-linecap:square;stroke-linejoin:miter;stroke-width:0.8;"/>
   </g>
   <g id="text_15">
    <g clip-path="url(#p95ec30f2bf)">
     <!-- 1.3 -->
     <defs>
      <path d="M 3.90625 19.140625 
L 10.9375 20.3125 
Q 12.5 15.234375 16.015625 11.90625 
Q 19.53125 8.59375 24.796875 8.78125 
Q 30.078125 8.984375 33.203125 13.078125 
Q 36.328125 17.1875 35.9375 22.453125 
Q 35.546875 27.734375 31.828125 30.65625 
Q 28.125 33.59375 19.921875 34.765625 
L 19.921875 39.84375 
Q 28.125 40.625 31.828125 44.140625 
Q 35.546875 47.65625 35.15625 53.3125 
Q 34.765625 58.984375 30.078125 61.515625 
Q 25.390625 64.0625 20.109375 62.109375 
Q 14.84375 60.15625 11.71875 51.171875 
L 4.6875 52.34375 
Q 7.03125 59.375 11.125 64.0625 
Q 15.234375 68.75 22.265625 69.53125 
Q 29.296875 70.3125 34.5625 67.765625 
Q 39.84375 65.234375 41.984375 59.953125 
Q 44.140625 54.6875 42.578125 48.4375 
Q 41.015625 42.1875 33.59375 37.5 
Q 39.0625 35.15625 41.984375 30.46875 
Q 44.921875 25.78125 43.9375 18.15625 
Q 42.96875 10.546875 37.109375 5.859375 
Q 31.25 1.171875 23.828125 1.359375 
Q 16.40625 1.5625 10.9375 6.046875 
Q 5.46875 10.546875 3.90625 19.140625 
z
" id="SimHei-51"/>
     </defs>
     <g style="fill:#ff0000;" transform="translate(112.013507 317.738844)rotate(-0.273804)scale(0.12 -0.12)">
      <use xlink:href="#SimHei-49"/>
      <use x="50" xlink:href="#SimHei-46"/>
      <use x="100" xlink:href="#SimHei-51"/>
     </g>
    </g>
   </g>
   <g id="text_16">
    <g clip-path="url(#p95ec30f2bf)">
     <!-- 1.3 -->
     <g style="fill:#ff0000;" transform="translate(212.460162 317.225414)rotate(-0.32276)scale(0.12 -0.12)">
      <use xlink:href="#SimHei-49"/>
      <use x="50" xlink:href="#SimHei-46"/>
      <use x="100" xlink:href="#SimHei-51"/>
     </g>
    </g>
   </g>
   <g id="text_17">
    <g clip-path="url(#p95ec30f2bf)">
     <!-- 1.3 -->
     <g style="fill:#ff0000;" transform="translate(312.851698 316.616894)rotate(-0.386082)scale(0.12 -0.12)">
      <use xlink:href="#SimHei-49"/>
      <use x="50" xlink:href="#SimHei-46"/>
      <use x="100" xlink:href="#SimHei-51"/>
     </g>
    </g>
   </g>
   <g id="text_18">
    <g clip-path="url(#p95ec30f2bf)">
     <!-- 1.3 -->
     <g style="fill:#ff0000;" transform="translate(112.207105 287.553711)rotate(-1.642691)scale(0.12 -0.12)">
      <use xlink:href="#SimHei-49"/>
      <use x="50" xlink:href="#SimHei-46"/>
      <use x="100" xlink:href="#SimHei-51"/>
     </g>
    </g>
   </g>
   <g id="text_19">
    <g clip-path="url(#p95ec30f2bf)">
     <!-- 1.3 -->
     <g style="fill:#ff0000;" transform="translate(212.586179 284.474841)rotate(-1.935939)scale(0.12 -0.12)">
      <use xlink:href="#SimHei-49"/>
      <use x="50" xlink:href="#SimHei-46"/>
      <use x="100" xlink:href="#SimHei-51"/>
     </g>
    </g>
   </g>
   <g id="text_20">
    <g clip-path="url(#p95ec30f2bf)">
     <!-- 1.3 -->
     <g style="fill:#ff0000;" transform="translate(313.474859 280.803778)rotate(-2.317618)scale(0.12 -0.12)">
      <use xlink:href="#SimHei-49"/>
      <use x="50" xlink:href="#SimHei-46"/>
      <use x="100" xlink:href="#SimHei-51"/>
     </g>
    </g>
   </g>
   <g id="text_21">
    <g clip-path="url(#p95ec30f2bf)">
     <!-- 1.3 -->
     <g style="fill:#ff0000;" transform="translate(112.277394 257.367713)rotate(-3.009556)scale(0.12 -0.12)">
      <use xlink:href="#SimHei-49"/>
      <use x="50" xlink:href="#SimHei-46"/>
      <use x="100" xlink:href="#SimHei-51"/>
     </g>
    </g>
   </g>
   <g id="text_22">
    <g clip-path="url(#p95ec30f2bf)">
     <!-- 1.3 -->
     <g style="fill:#ff0000;" transform="translate(213.279847 251.685171)rotate(-3.549885)scale(0.12 -0.12)">
      <use xlink:href="#SimHei-49"/>
      <use x="50" xlink:href="#SimHei-46"/>
      <use x="100" xlink:href="#SimHei-51"/>
     </g>
    </g>
   </g>
   <g id="text_23">
    <g clip-path="url(#p95ec30f2bf)">
     <!-- 1.3 -->
     <g style="fill:#ff0000;" transform="translate(314.417217 244.929564)rotate(-4.249669)scale(0.12 -0.12)">
      <use xlink:href="#SimHei-49"/>
      <use x="50" xlink:href="#SimHei-46"/>
      <use x="100" xlink:href="#SimHei-51"/>
     </g>
    </g>
   </g>
   <g id="text_24">
    <g clip-path="url(#p95ec30f2bf)">
     <!-- 1.4 -->
     <g style="fill:#ff0000;" transform="translate(112.052207 197.027457)rotate(-5.727532)scale(0.12 -0.12)">
      <use xlink:href="#SimHei-49"/>
      <use x="50" xlink:href="#SimHei-46"/>
      <use x="100" xlink:href="#SimHei-52"/>
     </g>
    </g>
   </g>
   <g id="text_25">
    <g clip-path="url(#p95ec30f2bf)">
     <!-- 1.4 -->
     <g style="fill:#ff0000;" transform="translate(211.245104 186.39628)rotate(-6.727756)scale(0.12 -0.12)">
      <use xlink:href="#SimHei-49"/>
      <use x="50" xlink:href="#SimHei-46"/>
      <use x="100" xlink:href="#SimHei-52"/>
     </g>
    </g>
   </g>
   <g id="text_26">
    <g clip-path="url(#p95ec30f2bf)">
     <!-- 1.4 -->
     <g style="fill:#ff0000;" transform="translate(314.538796 209.083705)rotate(-6.168703)scale(0.12 -0.12)">
      <use xlink:href="#SimHei-49"/>
      <use x="50" xlink:href="#SimHei-46"/>
      <use x="100" xlink:href="#SimHei-52"/>
     </g>
    </g>
   </g>
   <g id="text_27">
    <g clip-path="url(#p95ec30f2bf)">
     <!-- 1.4 -->
     <g style="fill:#ff0000;" transform="translate(111.76188 166.889672)rotate(-7.073975)scale(0.12 -0.12)">
      <use xlink:href="#SimHei-49"/>
      <use x="50" xlink:href="#SimHei-46"/>
      <use x="100" xlink:href="#SimHei-52"/>
     </g>
    </g>
   </g>
   <g id="text_28">
    <g clip-path="url(#p95ec30f2bf)">
     <!-- 1.4 -->
     <g style="fill:#ff0000;" transform="translate(223.414788 184.978089)rotate(-6.93117)scale(0.12 -0.12)">
      <use xlink:href="#SimHei-49"/>
      <use x="50" xlink:href="#SimHei-46"/>
      <use x="100" xlink:href="#SimHei-52"/>
     </g>
    </g>
   </g>
   <g id="text_29">
    <g clip-path="url(#p95ec30f2bf)">
     <!-- 1.4 -->
     <g style="fill:#ff0000;" transform="translate(315.453059 173.122601)rotate(-8.084651)scale(0.12 -0.12)">
      <use xlink:href="#SimHei-49"/>
      <use x="50" xlink:href="#SimHei-46"/>
      <use x="100" xlink:href="#SimHei-52"/>
     </g>
    </g>
   </g>
   <g id="text_30">
    <g clip-path="url(#p95ec30f2bf)">
     <!-- 1.4 -->
     <g style="fill:#ff0000;" transform="translate(111.355123 136.784249)rotate(-8.410167)scale(0.12 -0.12)">
      <use xlink:href="#SimHei-49"/>
      <use x="50" xlink:href="#SimHei-46"/>
      <use x="100" xlink:href="#SimHei-52"/>
     </g>
    </g>
   </g>
   <g id="text_31">
    <g clip-path="url(#p95ec30f2bf)">
     <!-- 1.4 -->
     <g style="fill:#ff0000;" transform="translate(211.327767 120.979312)rotate(-9.875941)scale(0.12 -0.12)">
      <use xlink:href="#SimHei-49"/>
      <use x="50" xlink:href="#SimHei-46"/>
      <use x="100" xlink:href="#SimHei-52"/>
     </g>
    </g>
   </g>
   <g id="text_32">
    <g clip-path="url(#p95ec30f2bf)">
     <!-- 1.4 -->
     <g style="fill:#ff0000;" transform="translate(313.316046 101.845408)rotate(-11.789565)scale(0.12 -0.12)">
      <use xlink:href="#SimHei-49"/>
      <use x="50" xlink:href="#SimHei-46"/>
      <use x="100" xlink:href="#SimHei-52"/>
     </g>
    </g>
   </g>
   <g id="text_33">
    <g clip-path="url(#p95ec30f2bf)">
     <!-- 1.4 -->
     <g style="fill:#ff0000;" transform="translate(110.836583 106.718762)rotate(-9.733531)scale(0.12 -0.12)">
      <use xlink:href="#SimHei-49"/>
      <use x="50" xlink:href="#SimHei-46"/>
      <use x="100" xlink:href="#SimHei-52"/>
     </g>
    </g>
   </g>
   <g id="text_34">
    <g clip-path="url(#p95ec30f2bf)">
     <!-- 1.4 -->
     <g style="fill:#ff0000;" transform="translate(210.16825 88.510175)rotate(-11.405205)scale(0.12 -0.12)">
      <use xlink:href="#SimHei-49"/>
      <use x="50" xlink:href="#SimHei-46"/>
      <use x="100" xlink:href="#SimHei-52"/>
     </g>
    </g>
   </g>
   <g id="text_35">
    <g clip-path="url(#p95ec30f2bf)">
     <!-- 1.4 -->
     <g style="fill:#ff0000;" transform="translate(311.50918 66.49291)rotate(-13.578558)scale(0.12 -0.12)">
      <use xlink:href="#SimHei-49"/>
      <use x="50" xlink:href="#SimHei-46"/>
      <use x="100" xlink:href="#SimHei-52"/>
     </g>
    </g>
   </g>
   <g id="text_36">
    <g clip-path="url(#p95ec30f2bf)">
     <!-- 1.5 -->
     <defs>
      <path d="M 8.59375 20.703125 
Q 11.328125 10.15625 17.96875 8.984375 
Q 24.609375 7.8125 28.703125 10.34375 
Q 32.8125 12.890625 34.5625 16.984375 
Q 36.328125 21.09375 36.125 26.171875 
Q 35.9375 31.25 33.390625 34.765625 
Q 30.859375 38.28125 26.953125 39.453125 
Q 23.046875 40.625 18.15625 39.453125 
Q 13.28125 38.28125 10.15625 33.984375 
L 3.515625 34.765625 
Q 4.296875 37.109375 10.9375 68.359375 
L 41.796875 68.359375 
L 41.796875 61.328125 
L 16.796875 61.328125 
Q 14.84375 50.78125 12.890625 44.53125 
Q 18.75 47.265625 23.828125 47.0625 
Q 28.90625 46.875 33.59375 44.71875 
Q 38.28125 42.578125 40.421875 38.859375 
Q 42.578125 35.15625 43.546875 31.4375 
Q 44.53125 27.734375 44.328125 23.4375 
Q 44.140625 19.140625 42.578125 14.640625 
Q 41.015625 10.15625 37.890625 7.21875 
Q 34.765625 4.296875 30.265625 2.53125 
Q 25.78125 0.78125 19.921875 1.171875 
Q 14.0625 1.5625 8.78125 5.46875 
Q 3.515625 9.375 1.5625 18.75 
z
" id="SimHei-53"/>
     </defs>
     <g style="fill:#ff0000;" transform="translate(112.82279 76.196679)rotate(-11.08575)scale(0.12 -0.12)">
      <use xlink:href="#SimHei-49"/>
      <use x="50" xlink:href="#SimHei-46"/>
      <use x="100" xlink:href="#SimHei-53"/>
     </g>
    </g>
   </g>
   <g id="text_37">
    <g clip-path="url(#p95ec30f2bf)">
     <!-- 1.4 -->
     <g style="fill:#ff0000;" transform="translate(222.191246 86.112879)rotate(-11.736588)scale(0.12 -0.12)">
      <use xlink:href="#SimHei-49"/>
      <use x="50" xlink:href="#SimHei-46"/>
      <use x="100" xlink:href="#SimHei-52"/>
     </g>
    </g>
   </g>
   <g id="text_38">
    <g clip-path="url(#p95ec30f2bf)">
     <!-- 1.5 -->
     <g style="fill:#ff0000;" transform="translate(64.700195 56.064665)rotate(-11.533591)scale(0.12 -0.12)">
      <use xlink:href="#SimHei-49"/>
      <use x="50" xlink:href="#SimHei-46"/>
      <use x="100" xlink:href="#SimHei-53"/>
     </g>
    </g>
   </g>
   <g id="text_39">
    <!-- 基本再生数，R0 -->
    <defs>
     <path d="M 28.125 71.09375 
Q 28.125 76.5625 27.734375 81.25 
L 35.9375 81.25 
Q 35.546875 76.171875 35.546875 71.09375 
L 63.671875 71.09375 
Q 63.671875 76.5625 63.28125 81.25 
L 71.484375 81.25 
Q 71.09375 76.171875 71.09375 71.09375 
L 76.953125 71.09375 
Q 81.25 71.09375 87.890625 71.484375 
L 87.890625 65.234375 
Q 81.25 65.625 76.953125 65.625 
L 71.09375 65.625 
L 71.09375 34.765625 
L 79.6875 34.765625 
Q 87.5 34.765625 94.140625 35.15625 
L 94.140625 28.125 
Q 87.890625 28.90625 80.078125 28.90625 
L 70.3125 28.90625 
Q 76.171875 22.65625 81.640625 19.328125 
Q 87.109375 16.015625 95.703125 14.0625 
Q 92.1875 9.765625 91.40625 5.46875 
Q 81.25 10.15625 74.015625 16.203125 
Q 66.796875 22.265625 62.5 28.90625 
L 39.0625 28.90625 
Q 34.375 21.484375 26.75 15.625 
Q 19.140625 9.765625 8.59375 5.46875 
Q 7.421875 8.984375 4.296875 12.890625 
Q 10.9375 14.453125 18.9375 18.9375 
Q 26.953125 23.4375 30.46875 28.90625 
L 20.3125 28.90625 
Q 13.28125 28.90625 6.25 28.125 
L 6.25 35.15625 
Q 13.28125 34.765625 20.3125 34.765625 
L 28.125 34.765625 
L 28.125 65.625 
Q 18.75 65.625 12.109375 65.234375 
L 12.109375 71.484375 
Q 18.75 71.09375 25.390625 71.09375 
z
M 46.09375 14.84375 
Q 46.09375 18.75 45.703125 24.609375 
L 54.296875 24.609375 
Q 53.515625 20.3125 53.515625 14.84375 
L 60.9375 14.84375 
Q 66.40625 14.84375 71.484375 15.234375 
L 71.484375 7.8125 
Q 66.40625 8.59375 60.546875 8.59375 
L 53.515625 8.59375 
L 53.515625 -1.5625 
L 70.3125 -1.5625 
Q 79.296875 -1.5625 86.71875 -1.171875 
L 86.71875 -8.203125 
Q 79.296875 -7.8125 70.3125 -7.8125 
L 28.125 -7.8125 
Q 20.3125 -7.8125 13.28125 -8.203125 
L 13.28125 -1.171875 
Q 19.921875 -1.5625 28.125 -1.5625 
L 46.09375 -1.5625 
L 46.09375 8.59375 
L 39.84375 8.59375 
Q 33.203125 8.59375 27.734375 8.203125 
L 27.734375 15.234375 
Q 33.203125 14.84375 39.0625 14.84375 
z
M 63.671875 34.765625 
L 63.671875 41.40625 
L 35.546875 41.40625 
L 35.546875 34.765625 
z
M 63.671875 58.984375 
L 63.671875 65.625 
L 35.546875 65.625 
L 35.546875 58.984375 
z
M 63.671875 47.265625 
L 63.671875 52.734375 
L 35.546875 52.734375 
L 35.546875 47.265625 
z
" id="SimHei-22522"/>
     <path d="M 46.09375 61.328125 
L 46.09375 69.140625 
Q 46.09375 75.390625 45.703125 80.859375 
L 54.296875 80.859375 
Q 53.90625 76.5625 53.90625 69.53125 
L 53.90625 61.328125 
L 75.78125 61.328125 
Q 82.421875 61.328125 91.40625 61.71875 
L 91.40625 54.296875 
Q 82.8125 54.6875 76.171875 54.6875 
L 60.15625 54.6875 
Q 65.625 36.71875 75.96875 26.359375 
Q 86.328125 16.015625 94.921875 12.5 
Q 91.40625 9.765625 88.28125 5.078125 
Q 75 14.0625 66.59375 25.578125 
Q 58.203125 37.109375 53.90625 52.34375 
L 53.90625 15.625 
L 58.984375 15.625 
Q 65.234375 15.625 71.875 16.015625 
L 71.875 8.59375 
Q 65.234375 8.984375 58.59375 8.984375 
L 53.90625 8.984375 
Q 53.90625 0 54.296875 -9.375 
L 45.703125 -9.375 
Q 46.09375 0 46.09375 8.984375 
L 41.015625 8.984375 
Q 34.765625 8.984375 28.515625 8.59375 
L 28.515625 16.015625 
Q 34.765625 15.625 41.015625 15.625 
L 46.09375 15.625 
L 46.09375 51.5625 
Q 39.84375 35.546875 32.21875 24.609375 
Q 24.609375 13.671875 11.71875 2.734375 
Q 8.59375 7.03125 4.296875 8.984375 
Q 17.1875 16.796875 25.78125 28.515625 
Q 34.375 40.234375 39.453125 54.6875 
L 22.265625 54.6875 
Q 16.015625 54.6875 8.984375 54.296875 
L 8.984375 61.71875 
Q 16.015625 61.328125 21.875 61.328125 
z
" id="SimHei-26412"/>
     <path d="M 62.890625 -1.953125 
Q 68.359375 -2.34375 70.890625 -1.953125 
Q 73.4375 -1.5625 73.4375 2.734375 
L 73.4375 13.671875 
L 26.171875 13.671875 
L 26.171875 -10.15625 
L 17.578125 -10.15625 
Q 18.359375 -3.515625 18.359375 3.125 
L 18.359375 13.671875 
Q 9.375 13.671875 3.515625 13.28125 
L 3.515625 20.703125 
Q 8.984375 19.921875 18.359375 19.921875 
L 18.359375 44.140625 
Q 18.359375 52.734375 17.578125 57.8125 
L 46.09375 57.8125 
L 46.09375 69.921875 
L 24.21875 69.921875 
Q 16.40625 69.921875 9.375 69.53125 
L 9.375 76.953125 
Q 16.40625 76.5625 23.828125 76.5625 
L 75.78125 76.5625 
Q 84.765625 76.5625 90.234375 76.953125 
L 90.234375 69.53125 
Q 84.765625 69.921875 75.78125 69.921875 
L 53.90625 69.921875 
L 53.90625 57.8125 
L 81.640625 57.8125 
Q 81.25 52.734375 81.25 42.96875 
L 81.25 19.921875 
Q 91.015625 19.921875 96.875 20.703125 
L 96.875 13.28125 
Q 91.40625 13.671875 81.25 13.671875 
L 81.25 -2.734375 
Q 81.25 -7.421875 77.34375 -8.59375 
Q 73.4375 -9.765625 66.40625 -10.546875 
Q 65.234375 -6.25 62.890625 -1.953125 
z
M 46.09375 38.671875 
L 46.09375 51.953125 
L 26.171875 51.953125 
L 26.171875 38.671875 
z
M 73.4375 38.671875 
L 73.4375 51.953125 
L 53.90625 51.953125 
L 53.90625 38.671875 
z
M 46.09375 19.921875 
L 46.09375 32.8125 
L 26.171875 32.8125 
L 26.171875 19.921875 
z
M 73.4375 19.921875 
L 73.4375 32.8125 
L 53.90625 32.8125 
L 53.90625 19.921875 
z
" id="SimHei-20877"/>
     <path d="M 29.296875 72.65625 
Q 26.953125 69.921875 25.390625 65.8125 
Q 23.828125 61.71875 22.265625 57.8125 
L 45.703125 57.8125 
L 45.703125 71.484375 
Q 45.703125 76.5625 45.3125 81.25 
L 54.296875 81.25 
Q 53.90625 76.953125 53.90625 71.484375 
L 53.90625 57.8125 
L 71.09375 57.8125 
Q 77.34375 57.8125 85.15625 58.203125 
L 85.15625 50.390625 
Q 77.734375 50.78125 71.09375 50.78125 
L 53.90625 50.78125 
L 53.90625 33.203125 
L 66.015625 33.203125 
Q 71.484375 33.203125 79.296875 33.59375 
L 79.296875 25.78125 
Q 71.875 26.171875 66.015625 26.171875 
L 53.90625 26.171875 
L 53.90625 2.734375 
L 77.34375 2.734375 
Q 83.59375 2.734375 91.796875 3.125 
L 91.796875 -4.296875 
Q 83.984375 -3.90625 77.34375 -3.90625 
L 21.09375 -3.90625 
Q 14.453125 -3.90625 7.421875 -4.296875 
L 7.421875 3.125 
Q 14.84375 2.734375 21.09375 2.734375 
L 45.703125 2.734375 
L 45.703125 26.171875 
L 31.25 26.171875 
Q 25.78125 26.171875 19.921875 25.78125 
L 19.921875 33.59375 
Q 25.78125 33.203125 31.25 33.203125 
L 45.703125 33.203125 
L 45.703125 50.78125 
L 19.53125 50.78125 
Q 16.015625 42.578125 12.5 36.71875 
Q 8.203125 38.671875 3.125 39.453125 
Q 7.421875 44.140625 12.296875 54.484375 
Q 17.1875 64.84375 19.140625 76.5625 
L 29.296875 72.65625 
z
" id="SimHei-29983"/>
     <path d="M 13.671875 14.84375 
L 27.734375 14.84375 
L 27.734375 -0.78125 
Q 26.5625 -10.546875 17.96875 -15.234375 
L 14.0625 -11.71875 
Q 21.09375 -7.8125 21.09375 0 
L 13.671875 0 
z
" id="SimHei-65292"/>
     <path d="M 46.875 1.953125 
L 37.5 1.953125 
L 23.4375 30.859375 
L 13.28125 30.859375 
L 13.28125 1.953125 
L 4.296875 1.953125 
L 4.296875 68.75 
L 23.828125 68.75 
Q 33.203125 68.75 39.0625 64.25 
Q 44.921875 59.765625 44.921875 49.609375 
Q 44.921875 41.796875 41.015625 37.5 
Q 37.109375 33.203125 32.03125 32.03125 
z
M 35.9375 49.609375 
Q 35.9375 55.078125 32.609375 58.203125 
Q 29.296875 61.328125 21.875 61.328125 
L 13.28125 61.328125 
L 13.28125 38.28125 
L 24.21875 38.28125 
Q 28.90625 38.28125 32.421875 40.8125 
Q 35.9375 43.359375 35.9375 49.609375 
z
" id="SimHei-82"/>
    </defs>
    <g transform="translate(179.4 37.2)scale(0.12 -0.12)">
     <use xlink:href="#SimHei-22522"/>
     <use x="100" xlink:href="#SimHei-26412"/>
     <use x="200" xlink:href="#SimHei-20877"/>
     <use x="300" xlink:href="#SimHei-29983"/>
     <use x="400" xlink:href="#SimHei-25968"/>
     <use x="500" xlink:href="#SimHei-65292"/>
     <use x="600" xlink:href="#SimHei-82"/>
     <use x="650" xlink:href="#SimHei-48"/>
    </g>
   </g>
  </g>
 </g>
 <defs>
  <clipPath id="p95ec30f2bf">
   <rect height="277.2" width="334.8" x="54" y="43.2"/>
  </clipPath>
 </defs>
</svg>
