<?xml version="1.0" encoding="utf-8" standalone="no"?>
<!DOCTYPE svg PUBLIC "-//W3C//DTD SVG 1.1//EN"
  "http://www.w3.org/Graphics/SVG/1.1/DTD/svg11.dtd">
<!-- Created with matplotlib (https://matplotlib.org/) -->
<svg height="360pt" version="1.1" viewBox="0 0 360 360" width="360pt" xmlns="http://www.w3.org/2000/svg" xmlns:xlink="http://www.w3.org/1999/xlink">
 <defs>
  <style type="text/css">
*{stroke-linecap:butt;stroke-linejoin:round;}
  </style>
 </defs>
 <g id="figure_1">
  <g id="patch_1">
   <path d="M 0 360 
L 360 360 
L 360 0 
L 0 0 
z
" style="fill:#ffffff;"/>
  </g>
  <g id="axes_1">
   <g id="patch_2">
    <path d="M 41.4 306 
L 329.4 306 
L 329.4 32.4 
L 41.4 32.4 
z
" style="fill:#ffffff;"/>
   </g>
   <g id="patch_3">
    <path clip-path="url(#pe8246a54cf)" d="M 54.490909 306 
L 66.258018 306 
L 66.258018 187.210498 
L 54.490909 187.210498 
z
" style="fill:#1f77b4;"/>
   </g>
   <g id="patch_4">
    <path clip-path="url(#pe8246a54cf)" d="M 69.199796 306 
L 80.966905 306 
L 80.966905 199.968816 
L 69.199796 199.968816 
z
" style="fill:#1f77b4;"/>
   </g>
   <g id="patch_5">
    <path clip-path="url(#pe8246a54cf)" d="M 83.908682 306 
L 95.675792 306 
L 95.675792 175.309768 
L 83.908682 175.309768 
z
" style="fill:#1f77b4;"/>
   </g>
   <g id="patch_6">
    <path clip-path="url(#pe8246a54cf)" d="M 98.617569 306 
L 110.384678 306 
L 110.384678 117.33412 
L 98.617569 117.33412 
z
" style="fill:#1f77b4;"/>
   </g>
   <g id="patch_7">
    <path clip-path="url(#pe8246a54cf)" d="M 113.326456 306 
L 125.093565 306 
L 125.093565 66.664983 
L 113.326456 66.664983 
z
" style="fill:#1f77b4;"/>
   </g>
   <g id="patch_8">
    <path clip-path="url(#pe8246a54cf)" d="M 128.035342 306 
L 139.802451 306 
L 139.802451 88.914618 
L 128.035342 88.914618 
z
" style="fill:#1f77b4;"/>
   </g>
   <g id="patch_9">
    <path clip-path="url(#pe8246a54cf)" d="M 142.744229 306 
L 154.511338 306 
L 154.511338 122.469436 
L 142.744229 122.469436 
z
" style="fill:#1f77b4;"/>
   </g>
   <g id="patch_10">
    <path clip-path="url(#pe8246a54cf)" d="M 157.453115 306 
L 169.220225 306 
L 169.220225 112.0865 
L 157.453115 112.0865 
z
" style="fill:#1f77b4;"/>
   </g>
   <g id="patch_11">
    <path clip-path="url(#pe8246a54cf)" d="M 172.162002 306 
L 183.929111 306 
L 183.929111 122.745089 
L 172.162002 122.745089 
z
" style="fill:#1f77b4;"/>
   </g>
   <g id="patch_12">
    <path clip-path="url(#pe8246a54cf)" d="M 186.870889 306 
L 198.637998 306 
L 198.637998 161.271874 
L 186.870889 161.271874 
z
" style="fill:#1f77b4;"/>
   </g>
   <g id="patch_13">
    <path clip-path="url(#pe8246a54cf)" d="M 201.579775 306 
L 213.346885 306 
L 213.346885 204.658323 
L 201.579775 204.658323 
z
" style="fill:#1f77b4;"/>
   </g>
   <g id="patch_14">
    <path clip-path="url(#pe8246a54cf)" d="M 216.288662 306 
L 228.055771 306 
L 228.055771 216.59989 
L 216.288662 216.59989 
z
" style="fill:#1f77b4;"/>
   </g>
   <g id="patch_15">
    <path clip-path="url(#pe8246a54cf)" d="M 230.997549 306 
L 242.764658 306 
L 242.764658 242.991129 
L 230.997549 242.991129 
z
" style="fill:#1f77b4;"/>
   </g>
   <g id="patch_16">
    <path clip-path="url(#pe8246a54cf)" d="M 245.706435 306 
L 257.473544 306 
L 257.473544 261.361201 
L 245.706435 261.361201 
z
" style="fill:#1f77b4;"/>
   </g>
   <g id="patch_17">
    <path clip-path="url(#pe8246a54cf)" d="M 260.415322 306 
L 272.182431 306 
L 272.182431 267.908815 
L 260.415322 267.908815 
z
" style="fill:#1f77b4;"/>
   </g>
   <g id="patch_18">
    <path clip-path="url(#pe8246a54cf)" d="M 275.124208 306 
L 286.891318 306 
L 286.891318 276.032076 
L 275.124208 276.032076 
z
" style="fill:#1f77b4;"/>
   </g>
   <g id="patch_19">
    <path clip-path="url(#pe8246a54cf)" d="M 289.833095 306 
L 301.600204 306 
L 301.600204 290.26735 
L 289.833095 290.26735 
z
" style="fill:#1f77b4;"/>
   </g>
   <g id="patch_20">
    <path clip-path="url(#pe8246a54cf)" d="M 304.541982 306 
L 316.309091 306 
L 316.309091 289.590128 
L 304.541982 289.590128 
z
" style="fill:#1f77b4;"/>
   </g>
   <g id="matplotlib.axis_1">
    <g id="xtick_1">
     <g id="line2d_1">
      <defs>
       <path d="M 0 0 
L 0 3.5 
" id="m3964133aa7" style="stroke:#000000;stroke-width:0.8;"/>
      </defs>
      <g>
       <use style="stroke:#000000;stroke-width:0.8;" x="60.374464" xlink:href="#m3964133aa7" y="306"/>
      </g>
     </g>
     <g id="text_1">
      <!-- 0-4 -->
      <defs>
       <path d="M 27.296875 -1.796875 
Q 15.703125 -1.796875 9.453125 7.75 
Q 3.203125 17.296875 3.203125 35.90625 
Q 3.203125 54.5 9.453125 64.046875 
Q 15.703125 73.59375 27.296875 73.59375 
Q 38.703125 73.59375 45.453125 63.84375 
Q 52.203125 54.09375 52.203125 35.90625 
Q 52.203125 17.703125 45.390625 7.953125 
Q 38.59375 -1.796875 27.296875 -1.796875 
z
M 27.5 66.796875 
Q 19.203125 66.796875 14.59375 58.796875 
Q 10 50.796875 10 35.703125 
Q 10 4.703125 27.5 4.703125 
Q 36 4.703125 40.75 12.84375 
Q 45.5 21 45.5 35.703125 
Q 45.5 50.796875 40.59375 58.796875 
Q 35.703125 66.796875 27.5 66.796875 
z
" id="STXihei-48"/>
       <path d="M 3.203125 30 
L 30 30 
L 30 24 
L 3.203125 24 
z
" id="STXihei-45"/>
       <path d="M 42.59375 73.59375 
L 44 73.59375 
L 44 23.59375 
L 52.703125 23.59375 
L 52.703125 16.703125 
L 44 16.703125 
L 44 0 
L 36.90625 0 
L 36.90625 16.703125 
L 2.5 16.703125 
z
M 36.90625 23.59375 
L 36.90625 53.5 
L 15.703125 23.59375 
z
" id="STXihei-52"/>
      </defs>
      <g transform="translate(59.120461 329.151806)rotate(-60)scale(0.1 -0.1)">
       <use xlink:href="#STXihei-48"/>
       <use x="55.399994" xlink:href="#STXihei-45"/>
       <use x="88.599991" xlink:href="#STXihei-52"/>
      </g>
     </g>
    </g>
    <g id="xtick_2">
     <g id="line2d_2">
      <g>
       <use style="stroke:#000000;stroke-width:0.8;" x="75.08335" xlink:href="#m3964133aa7" y="306"/>
      </g>
     </g>
     <g id="text_2">
      <!-- 5-9 -->
      <defs>
       <path d="M 49.203125 71.796875 
L 49.203125 65 
L 23.59375 65 
L 20 45.40625 
Q 24.796875 46.796875 29 46.796875 
Q 38.40625 46.796875 44.703125 40.140625 
Q 51 33.5 51 23.296875 
Q 51 12.703125 44.140625 5.453125 
Q 37.296875 -1.796875 26 -1.796875 
Q 17.40625 -1.796875 11.34375 3.34375 
Q 5.296875 8.5 4.09375 17.40625 
L 11.40625 17.40625 
Q 12.703125 11.40625 16.796875 8.203125 
Q 20.90625 5 26.296875 5 
Q 33.40625 5 38.546875 10.296875 
Q 43.703125 15.59375 43.703125 23.5 
Q 43.703125 30.703125 39.203125 35.34375 
Q 34.703125 40 27 40 
Q 20.203125 40 11.40625 36.203125 
L 18.09375 71.796875 
z
" id="STXihei-53"/>
       <path d="M 19.203125 -1.796875 
L 13.296875 2 
L 32.703125 31.40625 
Q 28.90625 30.09375 25.203125 30.09375 
Q 16.59375 30.09375 10.75 36.296875 
Q 4.90625 42.5 4.90625 51.5 
Q 4.90625 61 11.40625 67.296875 
Q 17.90625 73.59375 27.296875 73.59375 
Q 36.796875 73.59375 42.9375 67.140625 
Q 49.09375 60.703125 49.09375 51.703125 
Q 49.09375 46.703125 47.046875 41.640625 
Q 45 36.59375 41 30.703125 
z
M 11.90625 51.5 
Q 11.90625 45.203125 16.296875 40.796875 
Q 20.703125 36.40625 27 36.40625 
Q 33.296875 36.40625 37.6875 40.84375 
Q 42.09375 45.296875 42.09375 51.5 
Q 42.09375 57.703125 37.6875 62.140625 
Q 33.296875 66.59375 27 66.59375 
Q 20.703125 66.59375 16.296875 62.1875 
Q 11.90625 57.796875 11.90625 51.5 
z
" id="STXihei-57"/>
      </defs>
      <g transform="translate(73.829347 329.151806)rotate(-60)scale(0.1 -0.1)">
       <use xlink:href="#STXihei-53"/>
       <use x="55.399994" xlink:href="#STXihei-45"/>
       <use x="88.599991" xlink:href="#STXihei-57"/>
      </g>
     </g>
    </g>
    <g id="xtick_3">
     <g id="line2d_3">
      <g>
       <use style="stroke:#000000;stroke-width:0.8;" x="89.792237" xlink:href="#m3964133aa7" y="306"/>
      </g>
     </g>
     <g id="text_3">
      <!-- 10-14 -->
      <defs>
       <path d="M 18.5 71.796875 
L 32.59375 71.796875 
L 32.59375 0 
L 25.5 0 
L 25.5 64.796875 
L 14.203125 64.796875 
z
" id="STXihei-49"/>
      </defs>
      <g transform="translate(85.767921 338.74845)rotate(-60)scale(0.1 -0.1)">
       <use xlink:href="#STXihei-49"/>
       <use x="55.399994" xlink:href="#STXihei-48"/>
       <use x="110.799988" xlink:href="#STXihei-45"/>
       <use x="143.999985" xlink:href="#STXihei-49"/>
       <use x="199.399979" xlink:href="#STXihei-52"/>
      </g>
     </g>
    </g>
    <g id="xtick_4">
     <g id="line2d_4">
      <g>
       <use style="stroke:#000000;stroke-width:0.8;" x="104.501124" xlink:href="#m3964133aa7" y="306"/>
      </g>
     </g>
     <g id="text_4">
      <!-- 15-19 -->
      <g transform="translate(100.476808 338.74845)rotate(-60)scale(0.1 -0.1)">
       <use xlink:href="#STXihei-49"/>
       <use x="55.399994" xlink:href="#STXihei-53"/>
       <use x="110.799988" xlink:href="#STXihei-45"/>
       <use x="143.999985" xlink:href="#STXihei-49"/>
       <use x="199.399979" xlink:href="#STXihei-57"/>
      </g>
     </g>
    </g>
    <g id="xtick_5">
     <g id="line2d_5">
      <g>
       <use style="stroke:#000000;stroke-width:0.8;" x="119.21001" xlink:href="#m3964133aa7" y="306"/>
      </g>
     </g>
     <g id="text_5">
      <!-- 20-24 -->
      <defs>
       <path d="M 11.59375 49.296875 
L 4.703125 49.296875 
Q 5.203125 60.296875 12 66.9375 
Q 18.796875 73.59375 28.59375 73.59375 
Q 38.09375 73.59375 44.4375 67.34375 
Q 50.796875 61.09375 50.796875 52.09375 
Q 50.796875 45.40625 47.25 39.703125 
Q 43.703125 34 36.5 26.203125 
L 18.59375 6.90625 
L 51.796875 6.90625 
L 51.796875 0 
L 3 0 
L 30.40625 29.59375 
Q 37.59375 37.40625 40.6875 41.90625 
Q 43.796875 46.40625 43.796875 52 
Q 43.796875 58 39.25 62.390625 
Q 34.703125 66.796875 28.203125 66.796875 
Q 21.203125 66.796875 16.75 62.25 
Q 12.296875 57.703125 11.59375 49.296875 
z
" id="STXihei-50"/>
      </defs>
      <g transform="translate(115.185695 338.74845)rotate(-60)scale(0.1 -0.1)">
       <use xlink:href="#STXihei-50"/>
       <use x="55.399994" xlink:href="#STXihei-48"/>
       <use x="110.799988" xlink:href="#STXihei-45"/>
       <use x="143.999985" xlink:href="#STXihei-50"/>
       <use x="199.399979" xlink:href="#STXihei-52"/>
      </g>
     </g>
    </g>
    <g id="xtick_6">
     <g id="line2d_6">
      <g>
       <use style="stroke:#000000;stroke-width:0.8;" x="133.918897" xlink:href="#m3964133aa7" y="306"/>
      </g>
     </g>
     <g id="text_6">
      <!-- 25-29 -->
      <g transform="translate(129.894581 338.74845)rotate(-60)scale(0.1 -0.1)">
       <use xlink:href="#STXihei-50"/>
       <use x="55.399994" xlink:href="#STXihei-53"/>
       <use x="110.799988" xlink:href="#STXihei-45"/>
       <use x="143.999985" xlink:href="#STXihei-50"/>
       <use x="199.399979" xlink:href="#STXihei-57"/>
      </g>
     </g>
    </g>
    <g id="xtick_7">
     <g id="line2d_7">
      <g>
       <use style="stroke:#000000;stroke-width:0.8;" x="148.627783" xlink:href="#m3964133aa7" y="306"/>
      </g>
     </g>
     <g id="text_7">
      <!-- 30-34 -->
      <defs>
       <path d="M 13.203125 55.203125 
L 5.90625 55.203125 
Q 7.90625 64.09375 13.546875 68.84375 
Q 19.203125 73.59375 27 73.59375 
Q 35.5 73.59375 41.546875 68.1875 
Q 47.59375 62.796875 47.59375 55.09375 
Q 47.59375 45.796875 38.40625 40.40625 
Q 44.703125 37.796875 48.140625 32.640625 
Q 51.59375 27.5 51.59375 21.40625 
Q 51.59375 11.90625 44.640625 5.046875 
Q 37.703125 -1.796875 27.09375 -1.796875 
Q 17.703125 -1.796875 11.59375 3.546875 
Q 5.5 8.90625 3.5 19.203125 
L 10.5 19.203125 
Q 12.40625 12.09375 16.34375 8.640625 
Q 20.296875 5.203125 27.203125 5.203125 
Q 34.703125 5.203125 39.59375 9.796875 
Q 44.5 14.40625 44.5 20.796875 
Q 44.5 28 39.09375 32.140625 
Q 33.703125 36.296875 23.40625 36.5 
L 23.40625 43.09375 
Q 30.796875 43.09375 35.4375 46.5 
Q 40.09375 49.90625 40.09375 55.09375 
Q 40.09375 60 36.34375 63.34375 
Q 32.59375 66.703125 27 66.703125 
Q 22 66.703125 18.75 63.84375 
Q 15.5 61 13.203125 55.203125 
z
" id="STXihei-51"/>
      </defs>
      <g transform="translate(144.603468 338.74845)rotate(-60)scale(0.1 -0.1)">
       <use xlink:href="#STXihei-51"/>
       <use x="55.399994" xlink:href="#STXihei-48"/>
       <use x="110.799988" xlink:href="#STXihei-45"/>
       <use x="143.999985" xlink:href="#STXihei-51"/>
       <use x="199.399979" xlink:href="#STXihei-52"/>
      </g>
     </g>
    </g>
    <g id="xtick_8">
     <g id="line2d_8">
      <g>
       <use style="stroke:#000000;stroke-width:0.8;" x="163.33667" xlink:href="#m3964133aa7" y="306"/>
      </g>
     </g>
     <g id="text_8">
      <!-- 35-39 -->
      <g transform="translate(159.312355 338.74845)rotate(-60)scale(0.1 -0.1)">
       <use xlink:href="#STXihei-51"/>
       <use x="55.399994" xlink:href="#STXihei-53"/>
       <use x="110.799988" xlink:href="#STXihei-45"/>
       <use x="143.999985" xlink:href="#STXihei-51"/>
       <use x="199.399979" xlink:href="#STXihei-57"/>
      </g>
     </g>
    </g>
    <g id="xtick_9">
     <g id="line2d_9">
      <g>
       <use style="stroke:#000000;stroke-width:0.8;" x="178.045557" xlink:href="#m3964133aa7" y="306"/>
      </g>
     </g>
     <g id="text_9">
      <!-- 40-44 -->
      <g transform="translate(174.021241 338.74845)rotate(-60)scale(0.1 -0.1)">
       <use xlink:href="#STXihei-52"/>
       <use x="55.399994" xlink:href="#STXihei-48"/>
       <use x="110.799988" xlink:href="#STXihei-45"/>
       <use x="143.999985" xlink:href="#STXihei-52"/>
       <use x="199.399979" xlink:href="#STXihei-52"/>
      </g>
     </g>
    </g>
    <g id="xtick_10">
     <g id="line2d_10">
      <g>
       <use style="stroke:#000000;stroke-width:0.8;" x="192.754443" xlink:href="#m3964133aa7" y="306"/>
      </g>
     </g>
     <g id="text_10">
      <!-- 45-49 -->
      <g transform="translate(188.730128 338.74845)rotate(-60)scale(0.1 -0.1)">
       <use xlink:href="#STXihei-52"/>
       <use x="55.399994" xlink:href="#STXihei-53"/>
       <use x="110.799988" xlink:href="#STXihei-45"/>
       <use x="143.999985" xlink:href="#STXihei-52"/>
       <use x="199.399979" xlink:href="#STXihei-57"/>
      </g>
     </g>
    </g>
    <g id="xtick_11">
     <g id="line2d_11">
      <g>
       <use style="stroke:#000000;stroke-width:0.8;" x="207.46333" xlink:href="#m3964133aa7" y="306"/>
      </g>
     </g>
     <g id="text_11">
      <!-- 50-54 -->
      <g transform="translate(203.439014 338.74845)rotate(-60)scale(0.1 -0.1)">
       <use xlink:href="#STXihei-53"/>
       <use x="55.399994" xlink:href="#STXihei-48"/>
       <use x="110.799988" xlink:href="#STXihei-45"/>
       <use x="143.999985" xlink:href="#STXihei-53"/>
       <use x="199.399979" xlink:href="#STXihei-52"/>
      </g>
     </g>
    </g>
    <g id="xtick_12">
     <g id="line2d_12">
      <g>
       <use style="stroke:#000000;stroke-width:0.8;" x="222.172217" xlink:href="#m3964133aa7" y="306"/>
      </g>
     </g>
     <g id="text_12">
      <!-- 55-59 -->
      <g transform="translate(218.147901 338.74845)rotate(-60)scale(0.1 -0.1)">
       <use xlink:href="#STXihei-53"/>
       <use x="55.399994" xlink:href="#STXihei-53"/>
       <use x="110.799988" xlink:href="#STXihei-45"/>
       <use x="143.999985" xlink:href="#STXihei-53"/>
       <use x="199.399979" xlink:href="#STXihei-57"/>
      </g>
     </g>
    </g>
    <g id="xtick_13">
     <g id="line2d_13">
      <g>
       <use style="stroke:#000000;stroke-width:0.8;" x="236.881103" xlink:href="#m3964133aa7" y="306"/>
      </g>
     </g>
     <g id="text_13">
      <!-- 60-64 -->
      <defs>
       <path d="M 36.703125 73.59375 
L 42.59375 69.796875 
L 23.203125 40.40625 
Q 27.296875 41.796875 31 41.796875 
Q 39 41.796875 45 35.4375 
Q 51 29.09375 51 20.09375 
Q 51 10.796875 44.453125 4.5 
Q 37.90625 -1.796875 28.5 -1.796875 
Q 19.203125 -1.796875 12.953125 4.59375 
Q 6.703125 11 6.703125 20.203125 
Q 6.703125 24.59375 8.390625 29.25 
Q 10.09375 33.90625 14.90625 41.09375 
z
M 43.90625 20.296875 
Q 43.90625 26.59375 39.5 31 
Q 35.09375 35.40625 28.796875 35.40625 
Q 22.5 35.40625 18.09375 31 
Q 13.703125 26.59375 13.703125 20.296875 
Q 13.703125 14 18.140625 9.59375 
Q 22.59375 5.203125 28.796875 5.203125 
Q 35 5.203125 39.453125 9.59375 
Q 43.90625 14 43.90625 20.296875 
z
" id="STXihei-54"/>
      </defs>
      <g transform="translate(232.856788 338.74845)rotate(-60)scale(0.1 -0.1)">
       <use xlink:href="#STXihei-54"/>
       <use x="55.399994" xlink:href="#STXihei-48"/>
       <use x="110.799988" xlink:href="#STXihei-45"/>
       <use x="143.999985" xlink:href="#STXihei-54"/>
       <use x="199.399979" xlink:href="#STXihei-52"/>
      </g>
     </g>
    </g>
    <g id="xtick_14">
     <g id="line2d_14">
      <g>
       <use style="stroke:#000000;stroke-width:0.8;" x="251.58999" xlink:href="#m3964133aa7" y="306"/>
      </g>
     </g>
     <g id="text_14">
      <!-- 65-69 -->
      <g transform="translate(247.565674 338.74845)rotate(-60)scale(0.1 -0.1)">
       <use xlink:href="#STXihei-54"/>
       <use x="55.399994" xlink:href="#STXihei-53"/>
       <use x="110.799988" xlink:href="#STXihei-45"/>
       <use x="143.999985" xlink:href="#STXihei-54"/>
       <use x="199.399979" xlink:href="#STXihei-57"/>
      </g>
     </g>
    </g>
    <g id="xtick_15">
     <g id="line2d_15">
      <g>
       <use style="stroke:#000000;stroke-width:0.8;" x="266.298876" xlink:href="#m3964133aa7" y="306"/>
      </g>
     </g>
     <g id="text_15">
      <!-- 70-74 -->
      <defs>
       <path d="M 7.203125 71.796875 
L 52.703125 71.796875 
L 14.296875 -1.796875 
L 8.40625 1.203125 
L 41.59375 65 
L 7.203125 65 
z
" id="STXihei-55"/>
      </defs>
      <g transform="translate(262.274561 338.74845)rotate(-60)scale(0.1 -0.1)">
       <use xlink:href="#STXihei-55"/>
       <use x="55.399994" xlink:href="#STXihei-48"/>
       <use x="110.799988" xlink:href="#STXihei-45"/>
       <use x="143.999985" xlink:href="#STXihei-55"/>
       <use x="199.399979" xlink:href="#STXihei-52"/>
      </g>
     </g>
    </g>
    <g id="xtick_16">
     <g id="line2d_16">
      <g>
       <use style="stroke:#000000;stroke-width:0.8;" x="281.007763" xlink:href="#m3964133aa7" y="306"/>
      </g>
     </g>
     <g id="text_16">
      <!-- 75-79 -->
      <g transform="translate(276.983447 338.74845)rotate(-60)scale(0.1 -0.1)">
       <use xlink:href="#STXihei-55"/>
       <use x="55.399994" xlink:href="#STXihei-53"/>
       <use x="110.799988" xlink:href="#STXihei-45"/>
       <use x="143.999985" xlink:href="#STXihei-55"/>
       <use x="199.399979" xlink:href="#STXihei-57"/>
      </g>
     </g>
    </g>
    <g id="xtick_17">
     <g id="line2d_17">
      <g>
       <use style="stroke:#000000;stroke-width:0.8;" x="295.71665" xlink:href="#m3964133aa7" y="306"/>
      </g>
     </g>
     <g id="text_17">
      <!-- 80-84 -->
      <defs>
       <path d="M 38.40625 39.40625 
Q 52 32.703125 52 20.59375 
Q 52 11 45.25 4.59375 
Q 38.5 -1.796875 27.59375 -1.796875 
Q 16.59375 -1.796875 10 4.59375 
Q 3.40625 11 3.40625 20 
Q 3.40625 32.59375 17.296875 39.40625 
Q 6.796875 45 6.796875 54.90625 
Q 6.796875 62.296875 12.9375 67.9375 
Q 19.09375 73.59375 28.09375 73.59375 
Q 36.5 73.59375 42.59375 68.09375 
Q 48.703125 62.59375 48.703125 54.703125 
Q 48.703125 45.09375 38.40625 39.40625 
z
M 41.5 55 
Q 41.5 59.796875 37.75 63.25 
Q 34 66.703125 27.703125 66.703125 
Q 21.90625 66.703125 18 63.25 
Q 14.09375 59.796875 14.09375 54.796875 
Q 14.09375 50 18.34375 46.140625 
Q 22.59375 42.296875 28 42.296875 
Q 33.40625 42.296875 37.453125 46.09375 
Q 41.5 49.90625 41.5 55 
z
M 44.796875 20.5 
Q 44.796875 26.59375 39.84375 31.1875 
Q 34.90625 35.796875 28.09375 35.796875 
Q 20.796875 35.796875 15.6875 31.046875 
Q 10.59375 26.296875 10.59375 19.796875 
Q 10.59375 13.40625 15.296875 9.203125 
Q 20 5 27.703125 5 
Q 35.203125 5 40 9.5 
Q 44.796875 14 44.796875 20.5 
z
" id="STXihei-56"/>
      </defs>
      <g transform="translate(291.692334 338.74845)rotate(-60)scale(0.1 -0.1)">
       <use xlink:href="#STXihei-56"/>
       <use x="55.399994" xlink:href="#STXihei-48"/>
       <use x="110.799988" xlink:href="#STXihei-45"/>
       <use x="143.999985" xlink:href="#STXihei-56"/>
       <use x="199.399979" xlink:href="#STXihei-52"/>
      </g>
     </g>
    </g>
    <g id="xtick_18">
     <g id="line2d_18">
      <g>
       <use style="stroke:#000000;stroke-width:0.8;" x="310.425536" xlink:href="#m3964133aa7" y="306"/>
      </g>
     </g>
     <g id="text_18">
      <!-- 85+ -->
      <defs>
       <path d="M 27 39.296875 
L 27 60.40625 
L 33.59375 60.40625 
L 33.59375 39.296875 
L 55 39.296875 
L 55 32.59375 
L 33.59375 32.59375 
L 33.59375 11.40625 
L 27 11.40625 
L 27 32.59375 
L 5.59375 32.59375 
L 5.59375 39.296875 
z
" id="STXihei-43"/>
      </defs>
      <g transform="translate(308.486768 331.523904)rotate(-60)scale(0.1 -0.1)">
       <use xlink:href="#STXihei-56"/>
       <use x="55.399994" xlink:href="#STXihei-53"/>
       <use x="110.799988" xlink:href="#STXihei-43"/>
      </g>
     </g>
    </g>
    <g id="text_19">
     <!-- 年龄组 -->
     <defs>
      <path d="M 30.59375 64.09375 
Q 65.09375 64.09375 74.296875 64.34375 
Q 83.5 64.59375 89.5 65.59375 
L 89.5 58.40625 
Q 87.796875 59 57.296875 59 
L 57.296875 44.5 
Q 76.703125 44.5 82.90625 45.09375 
L 82.90625 39 
Q 77.703125 39.40625 57.296875 39.40625 
L 57.296875 19.40625 
Q 79.90625 19.40625 94.203125 20.203125 
L 94.203125 13.59375 
Q 79.703125 14.40625 57.296875 14.40625 
L 57.296875 0.59375 
Q 57.296875 -7.296875 58.203125 -16.296875 
L 50 -16.296875 
Q 50.90625 -7.296875 50.90625 0.59375 
L 50.90625 14.40625 
Q 17.296875 14.40625 5.703125 13.59375 
L 5.703125 20.203125 
Q 12.59375 19.703125 23 19.59375 
L 23 32.5 
Q 23 40.59375 22.296875 45.09375 
Q 30.796875 44.5 50.90625 44.5 
L 50.90625 59 
L 27.203125 59 
Q 20.203125 49 14.296875 42.703125 
Q 11.703125 45.5 8.40625 46.90625 
Q 23.296875 59.296875 30.09375 76.90625 
Q 32.296875 74.296875 36.296875 73 
Q 37.296875 72.703125 37.296875 71.640625 
Q 37.296875 70.59375 36.34375 70.5 
Q 35.40625 70.40625 34.453125 69.40625 
Q 33.5 68.40625 30.59375 64.09375 
z
M 50.90625 39.40625 
L 29.5 39.40625 
L 29.5 19.40625 
L 50.90625 19.40625 
z
" id="STXihei-24180"/>
      <path d="M 69.5 65 
Q 67 57.296875 61.640625 48.390625 
Q 56.296875 39.5 50.203125 33 
Q 48.09375 35.90625 44.203125 37 
Q 52.5 42.40625 58.890625 53.90625 
Q 65.296875 65.40625 66.796875 77.203125 
Q 70.09375 75.40625 73.59375 75.09375 
Q 75.203125 74.90625 75.203125 74.25 
Q 75.203125 73.59375 73.890625 73.046875 
Q 72.59375 72.5 71.703125 71.09375 
Q 75.59375 61.59375 82.796875 52.34375 
Q 90 43.09375 97.703125 38.09375 
Q 94.296875 35.59375 92.796875 32.703125 
Q 79.90625 44.40625 69.5 65 
z
M 33.203125 57.40625 
L 33.203125 45.90625 
Q 42.40625 45.90625 46.90625 46.796875 
L 46.90625 40.5 
Q 42.796875 41.40625 25.1875 41.40625 
Q 7.59375 41.40625 3.90625 40.5 
L 3.90625 46.796875 
Q 7.90625 45.90625 13.703125 45.90625 
L 13.703125 58.5 
Q 13.703125 64.796875 12.796875 68.203125 
Q 15.40625 67.40625 20.703125 67.40625 
Q 21.703125 67.40625 21.703125 67 
Q 21.703125 66.59375 20.5 65.75 
Q 19.296875 64.90625 19.296875 62.5 
L 19.296875 45.90625 
L 27.703125 45.90625 
L 27.703125 66 
Q 27.703125 71.703125 26.796875 76 
Q 29.59375 75.703125 34.703125 75.703125 
Q 35.703125 75.703125 35.703125 75.25 
Q 35.703125 74.796875 34.796875 74.09375 
Q 33.203125 72.703125 33.203125 70.90625 
L 33.203125 62.09375 
Q 46 62.09375 49.09375 62.703125 
L 49.09375 56.90625 
Q 46.703125 57.40625 33.203125 57.40625 
z
M 78.5 33.296875 
L 74 29.796875 
Q 68.796875 37.90625 62.40625 42.703125 
L 66.203125 46.59375 
Q 72.796875 40.703125 78.5 33.296875 
z
M 27 21.5 
Q 23.09375 10.09375 18.703125 2.796875 
Q 16.59375 4.59375 14.296875 5.09375 
L 14.296875 -1.5 
L 40.703125 0.5 
L 40.703125 22.59375 
Q 40.703125 29 39.703125 33.296875 
Q 43.5 32.59375 47.296875 32.59375 
Q 48.796875 32.59375 48.796875 32 
Q 48.796875 31.40625 48 30.796875 
Q 47.203125 30.203125 46.84375 29.59375 
Q 46.5 29 46.5 27.5 
L 46.5 -2.703125 
Q 46.5 -9.09375 47.09375 -13.40625 
L 40.703125 -13.40625 
L 40.703125 -4.5 
L 19.40625 -6.203125 
Q 12.5 -6.703125 7.59375 -7.703125 
Q 8.796875 -2.796875 8.796875 2.40625 
L 8.796875 23.296875 
Q 8.796875 30.703125 7.90625 34.59375 
Q 10.5 34 12.90625 34 
L 15.203125 34.09375 
Q 16.203125 34.09375 16.203125 33.59375 
Q 16.203125 33.09375 15.25 32.390625 
Q 14.296875 31.703125 14.296875 28.59375 
L 14.296875 6.90625 
Q 19 13.296875 21.640625 20.5 
Q 24.296875 27.703125 26.09375 38.59375 
Q 29 37 32.40625 36.203125 
Q 33.59375 35.90625 33.59375 35.09375 
Q 33.59375 34.296875 32.1875 33.546875 
Q 30.796875 32.796875 28.296875 25.5 
Q 35.40625 17.09375 39.703125 10.296875 
L 35.296875 7.203125 
Q 31.703125 14.90625 27 21.5 
z
M 66.59375 1.09375 
L 81.40625 20.90625 
L 72.796875 21 
Q 59.796875 21.09375 51 20.09375 
L 51 27.09375 
Q 60.09375 26.09375 71.796875 26.09375 
Q 83.5 26.09375 90.5 27.09375 
L 90.5 21 
Q 87.796875 20.203125 82.6875 13.796875 
Q 77.59375 7.40625 70.703125 -2.40625 
L 82.59375 -13 
L 77.796875 -17.40625 
Q 70.296875 -7.90625 55.5 3.203125 
L 58.90625 7.203125 
Q 63.703125 3.59375 66.59375 1.09375 
z
" id="STXihei-40836"/>
      <path d="M 25.40625 40.203125 
L 14.203125 39 
Q 8.796875 38.5 6.5 37.703125 
Q 5.296875 42.796875 4 44.5 
Q 8.40625 47.203125 13.84375 56.296875 
Q 19.296875 65.40625 22.703125 76.09375 
Q 25.40625 74.40625 29.90625 73.09375 
Q 31.5 72.59375 31.5 71.5 
Q 31.5 70.40625 29.84375 69.703125 
Q 28.203125 69 24.796875 64.203125 
Q 21.40625 59.40625 12.90625 44.40625 
L 28.5 45.09375 
Q 32.5 51.90625 34.5 58.90625 
Q 38.40625 56.296875 41.40625 55.203125 
Q 42.59375 54.796875 42.59375 53.84375 
Q 42.59375 52.90625 41.1875 52.25 
Q 39.796875 51.59375 35.09375 45.25 
Q 30.40625 38.90625 17.296875 18.59375 
Q 26.796875 19.40625 40.203125 23.09375 
Q 39.90625 22.40625 39.90625 21.15625 
Q 39.90625 19.90625 40.5 17.09375 
L 20.59375 13.703125 
Q 14.09375 12.59375 9.59375 10.796875 
Q 8.59375 15.703125 6.59375 18.296875 
Q 13.59375 21.40625 25.40625 40.203125 
z
M 47.40625 -5.90625 
L 47.40625 55 
Q 47.40625 64 46.59375 69.5 
Q 51.59375 68.59375 67.59375 68.59375 
Q 83.59375 68.59375 88.59375 69.5 
Q 87.703125 63.40625 87.703125 55 
L 87.703125 -5.796875 
Q 93.09375 -5.40625 96.203125 -5 
L 96.203125 -11.796875 
Q 90.09375 -10.90625 66 -10.90625 
Q 41.90625 -10.90625 36.296875 -11.796875 
L 36.296875 -5 
Q 41.90625 -5.796875 47.40625 -5.90625 
z
M 53.90625 44.203125 
L 81.203125 44.203125 
L 81.203125 63.40625 
L 53.90625 63.40625 
z
M 81.203125 39.40625 
L 53.90625 39.40625 
L 53.90625 18.203125 
L 81.203125 18.203125 
z
M 81.203125 13.40625 
L 53.90625 13.40625 
L 53.90625 -5.90625 
L 81.203125 -5.90625 
z
M 41.5 6.09375 
Q 41.296875 3.09375 41.703125 0.203125 
Q 16.59375 -5.5 6.796875 -8.59375 
Q 6.203125 -4.90625 4.40625 -1.203125 
Q 20.703125 -0.5 41.5 6.09375 
z
" id="STXihei-32452"/>
     </defs>
     <g transform="translate(161.4 355.751263)scale(0.16 -0.16)">
      <use xlink:href="#STXihei-24180"/>
      <use x="99.999985" xlink:href="#STXihei-40836"/>
      <use x="199.999969" xlink:href="#STXihei-32452"/>
     </g>
    </g>
   </g>
   <g id="matplotlib.axis_2">
    <g id="ytick_1">
     <g id="line2d_19">
      <defs>
       <path d="M 0 0 
L -3.5 0 
" id="m96bb5ed9e1" style="stroke:#000000;stroke-width:0.8;"/>
      </defs>
      <g>
       <use style="stroke:#000000;stroke-width:0.8;" x="41.4" xlink:href="#m96bb5ed9e1" y="306"/>
      </g>
     </g>
     <g id="text_20">
      <!-- 0 -->
      <g transform="translate(28.859375 309.679688)scale(0.1 -0.1)">
       <use xlink:href="#STXihei-48"/>
      </g>
     </g>
    </g>
    <g id="ytick_2">
     <g id="line2d_20">
      <g>
       <use style="stroke:#000000;stroke-width:0.8;" x="41.4" xlink:href="#m96bb5ed9e1" y="263.907692"/>
      </g>
     </g>
     <g id="text_21">
      <!-- 2 -->
      <g transform="translate(28.859375 267.58738)scale(0.1 -0.1)">
       <use xlink:href="#STXihei-50"/>
      </g>
     </g>
    </g>
    <g id="ytick_3">
     <g id="line2d_21">
      <g>
       <use style="stroke:#000000;stroke-width:0.8;" x="41.4" xlink:href="#m96bb5ed9e1" y="221.815385"/>
      </g>
     </g>
     <g id="text_22">
      <!-- 4 -->
      <g transform="translate(28.859375 225.495072)scale(0.1 -0.1)">
       <use xlink:href="#STXihei-52"/>
      </g>
     </g>
    </g>
    <g id="ytick_4">
     <g id="line2d_22">
      <g>
       <use style="stroke:#000000;stroke-width:0.8;" x="41.4" xlink:href="#m96bb5ed9e1" y="179.723077"/>
      </g>
     </g>
     <g id="text_23">
      <!-- 6 -->
      <g transform="translate(28.859375 183.402764)scale(0.1 -0.1)">
       <use xlink:href="#STXihei-54"/>
      </g>
     </g>
    </g>
    <g id="ytick_5">
     <g id="line2d_23">
      <g>
       <use style="stroke:#000000;stroke-width:0.8;" x="41.4" xlink:href="#m96bb5ed9e1" y="137.630769"/>
      </g>
     </g>
     <g id="text_24">
      <!-- 8 -->
      <g transform="translate(28.859375 141.310457)scale(0.1 -0.1)">
       <use xlink:href="#STXihei-56"/>
      </g>
     </g>
    </g>
    <g id="ytick_6">
     <g id="line2d_24">
      <g>
       <use style="stroke:#000000;stroke-width:0.8;" x="41.4" xlink:href="#m96bb5ed9e1" y="95.538462"/>
      </g>
     </g>
     <g id="text_25">
      <!-- 10 -->
      <g transform="translate(23.31875 99.218149)scale(0.1 -0.1)">
       <use xlink:href="#STXihei-49"/>
       <use x="55.399994" xlink:href="#STXihei-48"/>
      </g>
     </g>
    </g>
    <g id="ytick_7">
     <g id="line2d_25">
      <g>
       <use style="stroke:#000000;stroke-width:0.8;" x="41.4" xlink:href="#m96bb5ed9e1" y="53.446154"/>
      </g>
     </g>
     <g id="text_26">
      <!-- 12 -->
      <g transform="translate(23.31875 57.125841)scale(0.1 -0.1)">
       <use xlink:href="#STXihei-49"/>
       <use x="55.399994" xlink:href="#STXihei-50"/>
      </g>
     </g>
    </g>
    <g id="text_27">
     <!-- 人数（%） -->
     <defs>
      <path d="M 50.796875 35.59375 
Q 47.296875 22.09375 36.59375 9.09375 
Q 25.90625 -3.90625 9.59375 -14.09375 
Q 8.203125 -10.296875 4.09375 -8.40625 
Q 16.59375 -2.40625 25.6875 6 
Q 34.796875 14.40625 39.890625 24.34375 
Q 45 34.296875 46.046875 44.890625 
Q 47.09375 55.5 47.09375 60.640625 
Q 47.09375 65.796875 46.203125 73.203125 
Q 49.703125 72.40625 54.59375 72.40625 
Q 56 72.40625 56 71.40625 
Q 56 70.703125 55.140625 70.046875 
Q 54.296875 69.40625 54.09375 65.296875 
Q 53.796875 58.203125 52.40625 45.90625 
Q 58 28.296875 71.640625 12.6875 
Q 85.296875 -2.90625 96.40625 -7.09375 
Q 92.90625 -9.09375 90.40625 -13.40625 
Q 79.59375 -6.203125 68.046875 7.4375 
Q 56.5 21.09375 50.796875 35.59375 
z
" id="STXihei-20154"/>
      <path d="M 24.09375 49.296875 
Q 13.296875 49.296875 7.203125 48.59375 
L 7.203125 54.5 
Q 16.5 53.796875 28.703125 53.796875 
L 28.703125 64.5 
Q 28.703125 70 27.703125 74.90625 
Q 31.703125 74.5 34.140625 74.5 
Q 36.59375 74.5 36.59375 73.796875 
Q 36.59375 73.09375 35.796875 72.796875 
Q 34.40625 72.296875 34.40625 69.203125 
L 34.40625 53.796875 
Q 43.90625 53.90625 56 54.5 
L 56 48.59375 
Q 48.40625 49.296875 34.40625 49.296875 
Q 42.59375 43 50.203125 35.5 
L 45.796875 30.90625 
Q 40.5 37.5 34.40625 43.90625 
Q 34.59375 36 35.09375 30.5 
L 28 30.5 
Q 28.703125 37.59375 28.703125 47.90625 
Q 21.203125 34.703125 9.796875 25.40625 
Q 8.40625 27.59375 5.296875 29.40625 
Q 17.296875 38.09375 24.09375 49.296875 
z
M 74.203125 12.40625 
Q 79.90625 23.796875 80.90625 48.796875 
L 64.59375 48.796875 
Q 60.796875 36.90625 55.90625 28.703125 
Q 54.90625 29.09375 53.09375 30.09375 
Q 51.296875 31.09375 50.09375 31.5 
Q 55.40625 37.90625 59.203125 50.046875 
Q 63 62.203125 63.703125 74.703125 
Q 67.796875 73 72 73 
Q 73.296875 73 73.296875 71.84375 
Q 73.296875 70.703125 72.046875 69.953125 
Q 70.796875 69.203125 69.84375 67.296875 
Q 68.90625 65.40625 66.09375 53.90625 
L 83.09375 53.90625 
Q 91.40625 53.90625 95.40625 54.703125 
L 95.40625 48.09375 
Q 92.40625 48.703125 86.59375 48.703125 
Q 84.59375 19.203125 77.40625 7.09375 
Q 85.09375 -3.703125 96.703125 -8 
Q 93.796875 -10.59375 91.90625 -14.203125 
Q 82 -7.09375 74.296875 2.59375 
Q 66.09375 -7.703125 50.90625 -16.296875 
Q 49.203125 -13.90625 45.296875 -10.703125 
Q 52.203125 -8.703125 59.296875 -3.796875 
Q 66.40625 1.09375 70.90625 7 
Q 64.203125 17.09375 60.796875 32.703125 
L 66.40625 34.203125 
Q 66.796875 24.90625 74.203125 12.40625 
z
M 47.296875 71.703125 
Q 50 69.40625 51.703125 68.546875 
Q 53.40625 67.703125 53.40625 66.796875 
Q 53.40625 65.90625 52.25 65.59375 
Q 51.09375 65.296875 49.25 63.34375 
Q 47.40625 61.40625 43.203125 55.59375 
Q 41.59375 56.703125 38.59375 57.703125 
Q 44.59375 64.09375 47.296875 71.703125 
z
M 23.796875 59.203125 
L 18.703125 56.203125 
Q 14.796875 63.203125 10.796875 67.90625 
L 15.09375 70.5 
Q 20 65 23.796875 59.203125 
z
M 41.5 1.40625 
Q 47.5 -1 52.5 -3.5 
Q 50.40625 -5.296875 48.5 -8.5 
Q 43 -5.09375 37.296875 -2.59375 
Q 29.703125 -8.90625 11.703125 -14.203125 
Q 11 -10.796875 8.203125 -7.703125 
Q 23 -6 31.59375 -0.203125 
Q 23.09375 3 14.703125 4.703125 
Q 18.90625 10.5 21.796875 15.703125 
Q 12.90625 15.59375 7.296875 14.90625 
L 7.296875 20.90625 
Q 12.703125 20.5 24.09375 20.296875 
Q 25.90625 23.90625 27.90625 29.90625 
Q 31.203125 28.296875 33.34375 27.84375 
Q 35.5 27.40625 35.5 26.546875 
Q 35.5 25.703125 34.046875 25 
Q 32.59375 24.296875 30.09375 20.296875 
L 44.296875 20.296875 
Q 49.296875 20.296875 52.203125 21 
Q 47.203125 7.796875 41.5 1.40625 
z
M 27.59375 15.703125 
L 23.203125 7.5 
Q 29.703125 5.796875 36 3.40625 
Q 40.796875 8.203125 43.5 15.703125 
z
" id="STXihei-25968"/>
      <path d="M 90.40625 70.59375 
Q 81.703125 60.796875 77.5 51.6875 
Q 73.296875 42.59375 73.296875 33 
Q 73.296875 16.203125 77.34375 7.453125 
Q 81.40625 -1.296875 89.90625 -10.296875 
L 86 -14.203125 
Q 76.40625 -4.796875 71.65625 6.25 
Q 66.90625 17.296875 66.90625 32.90625 
Q 66.90625 43.203125 72.046875 54.34375 
Q 77.203125 65.5 86.796875 74.09375 
z
" id="STXihei-65288"/>
      <path d="M 67.40625 75 
L 15.09375 -5 
L 8.59375 -5 
L 56.296875 67.90625 
Q 50.5 66.5 44.453125 66.09375 
Q 38.40625 65.703125 35.59375 65.796875 
L 33 65.90625 
Q 36 61.703125 36 57 
Q 36 49.796875 31.140625 44.75 
Q 26.296875 39.703125 19 39.703125 
Q 12 39.703125 7.09375 44.59375 
Q 2.203125 49.5 2.203125 56.59375 
Q 2.203125 63.703125 7.25 68.59375 
Q 12.296875 73.5 18.90625 73.5 
Q 21.59375 73.5 25 72.796875 
Q 31.59375 71.40625 38.90625 71.40625 
Q 50.5 71.40625 61.703125 75 
z
M 29.90625 56.703125 
Q 29.90625 61.203125 26.75 64.296875 
Q 23.59375 67.40625 19.09375 67.40625 
Q 14.703125 67.40625 11.546875 64.25 
Q 8.40625 61.09375 8.40625 56.703125 
Q 8.40625 52.296875 11.546875 49.140625 
Q 14.703125 46 19.09375 46 
Q 23.59375 46 26.75 49.09375 
Q 29.90625 52.203125 29.90625 56.703125 
z
M 41.5 14.796875 
Q 41.5 21.703125 46.453125 26.703125 
Q 51.40625 31.703125 58.296875 31.703125 
Q 65.296875 31.703125 70.25 26.75 
Q 75.203125 21.796875 75.203125 14.796875 
Q 75.203125 7.796875 70.25 2.84375 
Q 65.296875 -2.09375 58.296875 -2.09375 
Q 51.40625 -2.09375 46.453125 2.84375 
Q 41.5 7.796875 41.5 14.796875 
z
M 69.09375 14.796875 
Q 69.09375 19.203125 65.9375 22.34375 
Q 62.796875 25.5 58.296875 25.5 
Q 53.90625 25.5 50.796875 22.34375 
Q 47.703125 19.203125 47.703125 14.796875 
Q 47.703125 10.40625 50.796875 7.25 
Q 53.90625 4.09375 58.296875 4.09375 
Q 62.796875 4.09375 65.9375 7.1875 
Q 69.09375 10.296875 69.09375 14.796875 
z
" id="STXihei-37"/>
      <path d="M 13.203125 74.09375 
Q 22.796875 65.5 27.9375 54.34375 
Q 33.09375 43.203125 33.09375 32.90625 
Q 33.09375 17.296875 28.34375 6.25 
Q 23.59375 -4.796875 14 -14.203125 
L 10.09375 -10.296875 
Q 18.59375 -1.296875 22.640625 7.453125 
Q 26.703125 16.203125 26.703125 33 
Q 26.703125 42.59375 22.5 51.6875 
Q 18.296875 60.796875 9.59375 70.59375 
z
" id="STXihei-65289"/>
     </defs>
     <g transform="translate(16.21375 207.4)rotate(-90)scale(0.16 -0.16)">
      <use xlink:href="#STXihei-20154"/>
      <use x="99.999985" xlink:href="#STXihei-25968"/>
      <use x="199.999969" xlink:href="#STXihei-65288"/>
      <use x="299.999954" xlink:href="#STXihei-37"/>
      <use x="377.499939" xlink:href="#STXihei-65289"/>
     </g>
    </g>
   </g>
   <g id="line2d_26">
    <path clip-path="url(#pe8246a54cf)" d="M 60.374464 187.210498 
L 75.08335 199.968816 
L 89.792237 175.309768 
L 104.501124 117.33412 
L 119.21001 66.664983 
L 133.918897 88.914618 
L 148.627783 122.469436 
L 163.33667 112.0865 
L 178.045557 122.745089 
L 192.754443 161.271874 
L 207.46333 204.658323 
L 222.172217 216.59989 
L 236.881103 242.991129 
L 251.58999 261.361201 
L 266.298876 267.908815 
L 281.007763 276.032076 
L 295.71665 290.26735 
L 310.425536 289.590128 
" style="fill:none;stroke:#ff0000;stroke-linecap:square;stroke-width:1.5;"/>
   </g>
   <g id="patch_21">
    <path d="M 41.4 306 
L 41.4 32.4 
" style="fill:none;stroke:#000000;stroke-linecap:square;stroke-linejoin:miter;stroke-width:0.8;"/>
   </g>
   <g id="patch_22">
    <path d="M 329.4 306 
L 329.4 32.4 
" style="fill:none;stroke:#000000;stroke-linecap:square;stroke-linejoin:miter;stroke-width:0.8;"/>
   </g>
   <g id="patch_23">
    <path d="M 41.4 306 
L 329.4 306 
" style="fill:none;stroke:#000000;stroke-linecap:square;stroke-linejoin:miter;stroke-width:0.8;"/>
   </g>
   <g id="patch_24">
    <path d="M 41.4 32.4 
L 329.4 32.4 
" style="fill:none;stroke:#000000;stroke-linecap:square;stroke-linejoin:miter;stroke-width:0.8;"/>
   </g>
   <g id="text_28">
    <!-- 广东省年龄分布 -->
    <defs>
     <path d="M 62 63.59375 
L 56.5 59.796875 
Q 52.59375 66.796875 46.703125 72.703125 
L 51.296875 76.5 
Q 57.5 70.296875 62 63.59375 
z
M 94.203125 53.09375 
Q 87.09375 53.703125 68.09375 53.703125 
L 26.296875 53.703125 
Q 26.90625 42.40625 26.90625 34.09375 
Q 26.90625 16.59375 24.25 6.09375 
Q 21.59375 -4.40625 14.59375 -15.09375 
Q 11.5 -12 7.5 -11.59375 
Q 14.796875 -4 17.84375 6.953125 
Q 20.90625 17.90625 20.90625 35.296875 
Q 20.90625 45.90625 19.796875 59.59375 
Q 26 58.90625 57.453125 58.90625 
Q 88.90625 58.90625 94.203125 59.59375 
z
" id="STXihei-24191"/>
     <path d="M 36.90625 55.703125 
Q 18 55.703125 7.796875 54.90625 
L 7.796875 61.703125 
Q 18 60.90625 39.59375 60.90625 
Q 42.703125 67.296875 45.09375 75 
Q 49.09375 72.703125 51.75 72.453125 
Q 54.40625 72.203125 54.40625 71.390625 
Q 54.40625 70.59375 53.15625 70.09375 
Q 51.90625 69.59375 50.703125 67.84375 
Q 49.5 66.09375 46.59375 60.90625 
L 72.296875 60.90625 
Q 82.40625 60.90625 92.59375 61.703125 
L 92.59375 54.90625 
Q 82.40625 55.703125 72.296875 55.703125 
L 43.59375 55.703125 
Q 38.296875 46.59375 25.703125 30 
L 50.59375 30 
L 50.59375 36.90625 
Q 50.59375 45.90625 50.203125 48.203125 
Q 53.703125 47.40625 56.5 47.40625 
Q 59.296875 47.40625 59.296875 46.75 
Q 59.296875 46.09375 58.40625 45.5 
Q 56.5 44.09375 56.5 41.796875 
L 56.5 30 
Q 79.703125 30 86.5 30.703125 
L 86.5 24.09375 
Q 77.09375 25 56.5 25 
L 56.5 -6 
Q 56.5 -9.5 55.5 -11.203125 
Q 54.5 -12.90625 51.046875 -13.84375 
Q 47.59375 -14.796875 40 -15.296875 
Q 39.59375 -10.796875 36.5 -7.09375 
Q 42.296875 -7.90625 45.140625 -7.90625 
Q 48 -7.90625 49.296875 -7.203125 
Q 50.59375 -6.5 50.59375 -4 
L 50.59375 25 
Q 33.40625 25 26.34375 24.703125 
Q 19.296875 24.40625 17.59375 23.5 
Q 17.59375 26.90625 15.796875 30 
Q 18 30.40625 20.046875 32.046875 
Q 22.09375 33.703125 27.890625 41.890625 
Q 33.703125 50.09375 36.90625 55.703125 
z
M 31 18.59375 
Q 34.09375 15.59375 37 14.203125 
Q 38 13.703125 38 13.09375 
Q 38 12.5 36.890625 12.34375 
Q 35.796875 12.203125 33.890625 10.84375 
Q 32 9.5 30.796875 8.09375 
Q 21.5 -3 9.90625 -11 
Q 7.59375 -7.203125 4.296875 -5.59375 
Q 18.59375 0.796875 31 18.59375 
z
M 95.09375 -4.09375 
L 90.203125 -9.203125 
Q 79 2.5 64.703125 11.796875 
L 68.703125 17 
Q 82.90625 7 95.09375 -4.09375 
z
" id="STXihei-19996"/>
     <path d="M 46.90625 41 
L 46.90625 65.40625 
Q 46.90625 71.90625 45.796875 75.5 
Q 51 74.59375 53.34375 74.5 
Q 55.703125 74.40625 55.703125 73.59375 
Q 55.703125 72.796875 54.59375 72.203125 
Q 53 71.296875 53 68.703125 
L 53 43.296875 
Q 68.5 49.90625 73 55.203125 
Q 75.796875 52.203125 78.59375 50.59375 
Q 79.5 50.09375 79.5 49.203125 
Q 79.5 47.90625 78.09375 47.90625 
Q 73.40625 47.90625 69.5 45.59375 
Q 56.90625 38.09375 31.90625 32.09375 
Q 39.703125 31.796875 56.546875 31.796875 
Q 73.40625 31.796875 82.09375 32.703125 
Q 81.5 29.59375 81.5 25 
L 81.5 -5.59375 
Q 81.5 -10.40625 82.203125 -15.59375 
L 75.59375 -15.59375 
L 75.59375 -9 
L 28.296875 -9 
L 28.296875 -16 
L 21.5 -16 
Q 22.203125 -11.203125 22.203125 -6 
L 22.203125 29.796875 
L 8.796875 27.203125 
Q 8.796875 30.703125 6 34.203125 
Q 26.59375 34.59375 46.90625 41 
z
M 28.296875 19.40625 
L 75.59375 19.40625 
L 75.59375 27.296875 
L 28.296875 27.296875 
z
M 75.59375 14.90625 
L 28.296875 14.90625 
L 28.296875 7.90625 
L 75.59375 7.90625 
z
M 28.296875 3.59375 
L 28.296875 -4.40625 
L 75.59375 -4.40625 
L 75.59375 3.59375 
z
M 94.703125 50.5 
L 89.703125 46.203125 
Q 78.5 57.59375 68.09375 63.90625 
L 71.203125 68.09375 
Q 84.59375 59.296875 94.703125 50.5 
z
M 30.90625 67.40625 
Q 33.5 64.59375 36.203125 63.59375 
Q 37.40625 63.09375 37.40625 62.546875 
Q 37.40625 62 35.75 61.34375 
Q 34.09375 60.703125 29.5 55.90625 
Q 22.40625 48.40625 13.296875 41.203125 
Q 10.59375 45.5 7.5 45.796875 
Q 21.796875 52.59375 30.90625 67.40625 
z
" id="STXihei-30465"/>
     <path d="M 95.5 33.296875 
Q 92.5 31.296875 90.203125 26.90625 
Q 79.5 35 72.546875 44.84375 
Q 65.59375 54.703125 58.5 72 
L 64 74.09375 
Q 70.5 57.703125 77.640625 48 
Q 84.796875 38.296875 95.5 33.296875 
z
M 37.40625 73.796875 
Q 41.203125 70.796875 45 70.296875 
Q 46.296875 70.09375 46.296875 69.296875 
Q 46.296875 68.5 45.09375 68 
Q 42.5 66.90625 39.09375 60.90625 
Q 27.40625 39.90625 12.296875 24.296875 
Q 9.796875 28.203125 5.5 28.90625 
Q 29.5 47.203125 37.40625 73.796875 
z
M 37.59375 29.40625 
Q 29.203125 29.40625 23 28.703125 
L 23 35.296875 
Q 29.09375 34.5 49.640625 34.5 
Q 70.203125 34.5 78.40625 35.296875 
L 75.09375 -1.203125 
Q 74.796875 -4.703125 73.140625 -6.640625 
Q 71.5 -8.59375 66.84375 -9.796875 
Q 62.203125 -11 53 -11.296875 
Q 52.90625 -7.203125 49.40625 -4 
Q 54.40625 -4.296875 58.546875 -4.296875 
Q 62.703125 -4.296875 65.046875 -3.546875 
Q 67.40625 -2.796875 68.203125 -1.296875 
Q 69 0.203125 69.296875 3.296875 
L 71.796875 29.40625 
L 43.5 29.40625 
Q 43.296875 13.796875 36.59375 3.796875 
Q 29.90625 -6.203125 15 -14.09375 
Q 13.203125 -10.796875 8.796875 -9.296875 
Q 23 -3.09375 30.296875 4.703125 
Q 37.59375 12.5 37.59375 29.40625 
z
" id="STXihei-20998"/>
     <path d="M 38 53.59375 
Q 15.296875 53.5 6 52.703125 
L 6 59.59375 
Q 14.203125 58.796875 40.59375 58.796875 
Q 44.296875 67.09375 45.09375 75.296875 
Q 50.90625 73.296875 53.90625 73.296875 
Q 55 73.296875 55 72.59375 
Q 55 71.90625 54.203125 71.40625 
Q 51.59375 70 47 58.796875 
L 65.703125 58.796875 
Q 84.796875 58.796875 95.90625 59.59375 
L 95.90625 52.703125 
Q 84.796875 53.59375 65.703125 53.59375 
L 44.796875 53.59375 
Q 40.203125 43.703125 31.203125 34.203125 
L 51.5 34.203125 
Q 51.296875 45 50.796875 49 
Q 53.40625 48.296875 58.796875 48.296875 
Q 60.296875 48.296875 60.296875 47.6875 
Q 60.296875 47.09375 59 45.890625 
Q 57.703125 44.703125 57.703125 40.5 
L 57.703125 34.203125 
Q 73.203125 34.203125 87.203125 35 
Q 86.703125 31.09375 86.703125 26.703125 
L 86.703125 3.09375 
Q 86.703125 -0.59375 85.34375 -2.640625 
Q 84 -4.703125 80.34375 -5.796875 
Q 76.703125 -6.90625 69.203125 -7.5 
Q 68.90625 -2.59375 65.90625 0.90625 
Q 71.5 0.09375 74.546875 0.09375 
Q 77.59375 0.09375 79 1 
Q 80.40625 1.90625 80.40625 4.59375 
L 80.40625 29.09375 
L 57.703125 29.09375 
L 57.703125 -6.703125 
Q 57.703125 -10.90625 58.203125 -16.09375 
L 50.90625 -16.09375 
Q 51.5 -11.296875 51.5 -6.703125 
L 51.5 29.09375 
L 31.796875 29.09375 
L 31.796875 -7 
L 25.09375 -7 
Q 25.796875 -2.40625 25.796875 2.796875 
L 25.796875 28.703125 
Q 17.90625 21.296875 8.59375 14.703125 
Q 6.59375 17.90625 2.796875 19.90625 
Q 15.296875 26.703125 23.546875 34.5 
Q 31.796875 42.296875 38 53.59375 
z
" id="STXihei-24067"/>
    </defs>
    <g transform="translate(115.4 26.4)scale(0.2 -0.2)">
     <use xlink:href="#STXihei-24191"/>
     <use x="99.999985" xlink:href="#STXihei-19996"/>
     <use x="199.999969" xlink:href="#STXihei-30465"/>
     <use x="299.999954" xlink:href="#STXihei-24180"/>
     <use x="399.999939" xlink:href="#STXihei-40836"/>
     <use x="499.999924" xlink:href="#STXihei-20998"/>
     <use x="599.999908" xlink:href="#STXihei-24067"/>
    </g>
   </g>
  </g>
 </g>
 <defs>
  <clipPath id="pe8246a54cf">
   <rect height="273.6" width="288" x="41.4" y="32.4"/>
  </clipPath>
 </defs>
</svg>
